%TF.GenerationSoftware,KiCad,Pcbnew,8.0.4*%
%TF.CreationDate,2024-07-18T22:26:43+02:00*%
%TF.ProjectId,circuit,63697263-7569-4742-9e6b-696361645f70,rev?*%
%TF.SameCoordinates,Original*%
%TF.FileFunction,Copper,L2,Bot*%
%TF.FilePolarity,Positive*%
%FSLAX46Y46*%
G04 Gerber Fmt 4.6, Leading zero omitted, Abs format (unit mm)*
G04 Created by KiCad (PCBNEW 8.0.4) date 2024-07-18 22:26:43*
%MOMM*%
%LPD*%
G01*
G04 APERTURE LIST*
%TA.AperFunction,ComponentPad*%
%ADD10R,2.000000X2.000000*%
%TD*%
%TA.AperFunction,ComponentPad*%
%ADD11C,2.000000*%
%TD*%
%TA.AperFunction,ComponentPad*%
%ADD12R,1.600000X1.600000*%
%TD*%
%TA.AperFunction,ComponentPad*%
%ADD13O,1.600000X1.600000*%
%TD*%
%TA.AperFunction,ComponentPad*%
%ADD14C,1.500000*%
%TD*%
%TA.AperFunction,ViaPad*%
%ADD15C,0.600000*%
%TD*%
%TA.AperFunction,Conductor*%
%ADD16C,0.300000*%
%TD*%
%TA.AperFunction,Conductor*%
%ADD17C,0.150000*%
%TD*%
%TA.AperFunction,Conductor*%
%ADD18C,0.500000*%
%TD*%
G04 APERTURE END LIST*
D10*
%TO.P,J1.1.3,1,Pin_1*%
%TO.N,/L1*%
X246800000Y-92100000D03*
D11*
%TO.P,J1.1.3,2,Pin_2*%
%TO.N,/R2*%
X246800000Y-94640000D03*
%TD*%
D10*
%TO.P,J1.1.1,1,Pin_1*%
%TO.N,/L1*%
X246800000Y-49800000D03*
D11*
%TO.P,J1.1.1,2,Pin_2*%
%TO.N,/R1*%
X246800000Y-52340000D03*
%TD*%
D10*
%TO.P,J1.1.2,1,Pin_1*%
%TO.N,/L2*%
X207400000Y-49800000D03*
D11*
%TO.P,J1.1.2,2,Pin_2*%
%TO.N,/R1*%
X207400000Y-52340000D03*
%TD*%
D10*
%TO.P,J1.2.2,1,Pin_1*%
%TO.N,/L4*%
X207400000Y-69300000D03*
D11*
%TO.P,J1.2.2,2,Pin_2*%
%TO.N,/R1*%
X207400000Y-71840000D03*
%TD*%
D12*
%TO.P,U1,1,~{RESET}/PC6*%
%TO.N,/RESET*%
X221200000Y-55460000D03*
D13*
%TO.P,U1,2,PD0*%
%TO.N,/L1*%
X221200000Y-58000000D03*
%TO.P,U1,3,PD1*%
%TO.N,/L2*%
X221200000Y-60540000D03*
%TO.P,U1,4,PD2*%
%TO.N,/L3*%
X221200000Y-63080000D03*
%TO.P,U1,5,PD3*%
%TO.N,/L4*%
X221200000Y-65620000D03*
%TO.P,U1,6,PD4*%
%TO.N,/R1*%
X221200000Y-68160000D03*
%TO.P,U1,7,VCC*%
%TO.N,+5V*%
X221200000Y-70700000D03*
%TO.P,U1,8,GND*%
%TO.N,GND*%
X221200000Y-73240000D03*
%TO.P,U1,9,XTAL1/PB6*%
%TO.N,/XTAL1*%
X221200000Y-75780000D03*
%TO.P,U1,10,XTAL2/PB7*%
%TO.N,/XTAL2*%
X221200000Y-78320000D03*
%TO.P,U1,11,PD5*%
%TO.N,/R2*%
X221200000Y-80860000D03*
%TO.P,U1,12,PD6*%
%TO.N,/R3*%
X221200000Y-83400000D03*
%TO.P,U1,13,PD7*%
%TO.N,/R4*%
X221200000Y-85940000D03*
%TO.P,U1,14,PB0*%
%TO.N,unconnected-(U1-PB0-Pad14)*%
X221200000Y-88480000D03*
%TO.P,U1,15,PB1*%
%TO.N,unconnected-(U1-PB1-Pad15)*%
X228820000Y-88480000D03*
%TO.P,U1,16,PB2*%
%TO.N,unconnected-(U1-PB2-Pad16)*%
X228820000Y-85940000D03*
%TO.P,U1,17,PB3*%
%TO.N,/MOSI*%
X228820000Y-83400000D03*
%TO.P,U1,18,PB4*%
%TO.N,/MISO*%
X228820000Y-80860000D03*
%TO.P,U1,19,PB5*%
%TO.N,/SCK*%
X228820000Y-78320000D03*
%TO.P,U1,20,AVCC*%
%TO.N,+5V*%
X228820000Y-75780000D03*
%TO.P,U1,21,AREF*%
%TO.N,unconnected-(U1-AREF-Pad21)*%
X228820000Y-73240000D03*
%TO.P,U1,22,GND*%
%TO.N,GND*%
X228820000Y-70700000D03*
%TO.P,U1,23,PC0*%
%TO.N,unconnected-(U1-PC0-Pad23)*%
X228820000Y-68160000D03*
%TO.P,U1,24,PC1*%
%TO.N,unconnected-(U1-PC1-Pad24)*%
X228820000Y-65620000D03*
%TO.P,U1,25,PC2*%
%TO.N,unconnected-(U1-PC2-Pad25)*%
X228820000Y-63080000D03*
%TO.P,U1,26,PC3*%
%TO.N,unconnected-(U1-PC3-Pad26)*%
X228820000Y-60540000D03*
%TO.P,U1,27,PC4*%
%TO.N,/SDA*%
X228820000Y-58000000D03*
%TO.P,U1,28,PC5*%
%TO.N,/SCL*%
X228820000Y-55460000D03*
%TD*%
D14*
%TO.P,Y1,1,1*%
%TO.N,/XTAL1*%
X217200000Y-78900000D03*
%TO.P,Y1,2,2*%
%TO.N,/XTAL2*%
X217200000Y-83800000D03*
%TD*%
D10*
%TO.P,J1.2.1,1,Pin_1*%
%TO.N,/L3*%
X246900000Y-83300000D03*
D11*
%TO.P,J1.2.1,2,Pin_2*%
%TO.N,/R1*%
X246900000Y-85840000D03*
%TD*%
D10*
%TO.P,J1.1.4,1,Pin_1*%
%TO.N,/L2*%
X207400000Y-92100000D03*
D11*
%TO.P,J1.1.4,2,Pin_2*%
%TO.N,/R2*%
X207400000Y-94640000D03*
%TD*%
D15*
%TO.N,/L4*%
X223500000Y-72000000D03*
%TO.N,/R2*%
X219500000Y-49000000D03*
X210500000Y-69900000D03*
%TO.N,/R1*%
X214000000Y-64500000D03*
X218000000Y-52000000D03*
%TO.N,/L2*%
X212500000Y-91000000D03*
%TO.N,GND*%
X233488413Y-81446587D03*
X212000000Y-80000000D03*
X219500000Y-74500000D03*
X233000000Y-73000000D03*
%TO.N,/R2*%
X219000000Y-93000000D03*
%TO.N,/RESET*%
X234750000Y-80250000D03*
%TD*%
D16*
%TO.N,/R2*%
X219500000Y-49580761D02*
X219500000Y-49000000D01*
X210500000Y-58580761D02*
X219500000Y-49580761D01*
X210500000Y-69900000D02*
X210500000Y-58580761D01*
%TO.N,/L4*%
X220000000Y-71126346D02*
X220000000Y-66820000D01*
X220873654Y-72000000D02*
X220000000Y-71126346D01*
X220000000Y-66820000D02*
X221200000Y-65620000D01*
X223500000Y-72000000D02*
X220873654Y-72000000D01*
%TO.N,/L2*%
X211350000Y-89850000D02*
X211350000Y-69150000D01*
X212500000Y-91000000D02*
X211350000Y-89850000D01*
X211350000Y-69150000D02*
X219960000Y-60540000D01*
X221200000Y-60540000D02*
X219960000Y-60540000D01*
%TO.N,/R1*%
X214000000Y-64500000D02*
X214250000Y-64250000D01*
X218000000Y-52000000D02*
X218000000Y-60500000D01*
X218000000Y-60500000D02*
X214000000Y-64500000D01*
D17*
%TO.N,/RESET*%
X222000000Y-74500000D02*
X227000000Y-79500000D01*
X227000000Y-79500000D02*
X234000000Y-79500000D01*
X219500000Y-73530140D02*
X220469860Y-74500000D01*
X219500000Y-62000000D02*
X219500000Y-73530140D01*
X222500000Y-61000000D02*
X221500000Y-62000000D01*
X222500000Y-60000000D02*
X222500000Y-61000000D01*
X234000000Y-79500000D02*
X234750000Y-80250000D01*
X221500000Y-62000000D02*
X219500000Y-62000000D01*
X220469860Y-74500000D02*
X222000000Y-74500000D01*
X221575000Y-59075000D02*
X222500000Y-60000000D01*
X220075000Y-59075000D02*
X221575000Y-59075000D01*
X219500000Y-57160000D02*
X219500000Y-58500000D01*
X221200000Y-55460000D02*
X219500000Y-57160000D01*
X219500000Y-58500000D02*
X220075000Y-59075000D01*
D18*
%TO.N,GND*%
X236250000Y-81310661D02*
X236250000Y-76250000D01*
X233488413Y-81446587D02*
X236114074Y-81446587D01*
X236114074Y-81446587D02*
X236250000Y-81310661D01*
X236250000Y-76250000D02*
X233000000Y-73000000D01*
X212000000Y-77000000D02*
X212000000Y-80000000D01*
X212500000Y-76500000D02*
X212000000Y-77000000D01*
X217500000Y-76500000D02*
X212500000Y-76500000D01*
X219500000Y-74500000D02*
X217500000Y-76500000D01*
X230700000Y-70700000D02*
X233000000Y-73000000D01*
X228820000Y-70700000D02*
X230700000Y-70700000D01*
X226280000Y-73240000D02*
X228820000Y-70700000D01*
X221200000Y-73240000D02*
X226280000Y-73240000D01*
D16*
%TO.N,/R1*%
X222540000Y-69500000D02*
X221200000Y-68160000D01*
X230560000Y-69500000D02*
X222540000Y-69500000D01*
X246900000Y-85840000D02*
X230560000Y-69500000D01*
%TO.N,/L3*%
X230600000Y-67000000D02*
X246900000Y-83300000D01*
X225120000Y-67000000D02*
X230600000Y-67000000D01*
X221200000Y-63080000D02*
X225120000Y-67000000D01*
%TO.N,/R2*%
X224640000Y-94640000D02*
X246800000Y-94640000D01*
X223000000Y-93000000D02*
X224640000Y-94640000D01*
X219000000Y-93000000D02*
X223000000Y-93000000D01*
%TO.N,/L1*%
X246000000Y-81500000D02*
X236000000Y-71500000D01*
X236000000Y-71500000D02*
X236000000Y-57000000D01*
X248500000Y-82200000D02*
X247800000Y-81500000D01*
X248500000Y-90400000D02*
X248500000Y-82200000D01*
X247800000Y-81500000D02*
X246000000Y-81500000D01*
X246800000Y-92100000D02*
X248500000Y-90400000D01*
X236000000Y-57000000D02*
X239600000Y-57000000D01*
X227193654Y-58000000D02*
X221200000Y-58000000D01*
X228343654Y-56850000D02*
X227193654Y-58000000D01*
X229296346Y-56850000D02*
X228343654Y-56850000D01*
X229446346Y-57000000D02*
X229296346Y-56850000D01*
X239600000Y-57000000D02*
X229446346Y-57000000D01*
X246800000Y-49800000D02*
X239600000Y-57000000D01*
D17*
%TO.N,/RESET*%
X221200000Y-55460000D02*
X221200000Y-56080000D01*
D18*
%TO.N,/XTAL2*%
X221200000Y-78320000D02*
X217200000Y-82320000D01*
X217200000Y-82320000D02*
X217200000Y-83800000D01*
%TO.N,/XTAL1*%
X218080000Y-78900000D02*
X217200000Y-78900000D01*
X221200000Y-75780000D02*
X218080000Y-78900000D01*
%TD*%
%TA.AperFunction,Conductor*%
%TO.N,GND*%
G36*
X227526817Y-70170185D02*
G01*
X227572572Y-70222989D01*
X227582516Y-70292147D01*
X227579553Y-70306593D01*
X227541127Y-70449999D01*
X227541128Y-70450000D01*
X228504314Y-70450000D01*
X228499920Y-70454394D01*
X228447259Y-70545606D01*
X228420000Y-70647339D01*
X228420000Y-70752661D01*
X228447259Y-70854394D01*
X228499920Y-70945606D01*
X228504314Y-70950000D01*
X227541128Y-70950000D01*
X227593730Y-71146317D01*
X227593734Y-71146326D01*
X227689865Y-71352482D01*
X227820342Y-71538820D01*
X227981179Y-71699657D01*
X228167518Y-71830134D01*
X228167520Y-71830135D01*
X228225865Y-71857342D01*
X228278305Y-71903514D01*
X228297457Y-71970707D01*
X228277242Y-72037589D01*
X228225867Y-72082105D01*
X228167268Y-72109431D01*
X228167264Y-72109433D01*
X227980858Y-72239954D01*
X227819954Y-72400858D01*
X227689432Y-72587265D01*
X227689431Y-72587267D01*
X227593261Y-72793502D01*
X227593258Y-72793511D01*
X227534366Y-73013302D01*
X227534364Y-73013313D01*
X227514532Y-73239998D01*
X227514532Y-73240001D01*
X227534364Y-73466686D01*
X227534366Y-73466697D01*
X227593258Y-73686488D01*
X227593261Y-73686497D01*
X227689431Y-73892732D01*
X227689432Y-73892734D01*
X227819954Y-74079141D01*
X227980858Y-74240045D01*
X227980861Y-74240047D01*
X228167266Y-74370568D01*
X228225275Y-74397618D01*
X228277714Y-74443791D01*
X228296866Y-74510984D01*
X228276650Y-74577865D01*
X228225275Y-74622382D01*
X228167267Y-74649431D01*
X228167265Y-74649432D01*
X227980858Y-74779954D01*
X227819954Y-74940858D01*
X227689432Y-75127265D01*
X227689431Y-75127267D01*
X227593261Y-75333502D01*
X227593258Y-75333511D01*
X227534366Y-75553302D01*
X227534364Y-75553313D01*
X227514532Y-75779998D01*
X227514532Y-75780001D01*
X227534364Y-76006686D01*
X227534366Y-76006697D01*
X227593258Y-76226488D01*
X227593261Y-76226497D01*
X227689431Y-76432732D01*
X227689432Y-76432734D01*
X227819954Y-76619141D01*
X227980858Y-76780045D01*
X227983062Y-76781588D01*
X228167266Y-76910568D01*
X228225275Y-76937618D01*
X228277714Y-76983791D01*
X228296866Y-77050984D01*
X228276650Y-77117865D01*
X228225275Y-77162382D01*
X228167267Y-77189431D01*
X228167265Y-77189432D01*
X227980858Y-77319954D01*
X227819954Y-77480858D01*
X227689432Y-77667265D01*
X227689431Y-77667267D01*
X227593261Y-77873502D01*
X227593258Y-77873511D01*
X227534366Y-78093302D01*
X227534364Y-78093313D01*
X227514532Y-78319998D01*
X227514532Y-78320001D01*
X227534364Y-78546686D01*
X227534366Y-78546697D01*
X227593773Y-78768407D01*
X227592110Y-78838257D01*
X227552947Y-78896119D01*
X227488719Y-78923623D01*
X227473998Y-78924500D01*
X227289742Y-78924500D01*
X227222703Y-78904815D01*
X227202061Y-78888181D01*
X222352110Y-74038230D01*
X222318625Y-73976907D01*
X222323609Y-73907215D01*
X222328173Y-73897541D01*
X222327846Y-73897389D01*
X222426265Y-73686326D01*
X222426269Y-73686317D01*
X222478872Y-73490000D01*
X221515686Y-73490000D01*
X221520080Y-73485606D01*
X221572741Y-73394394D01*
X221600000Y-73292661D01*
X221600000Y-73187339D01*
X221572741Y-73085606D01*
X221520080Y-72994394D01*
X221515686Y-72990000D01*
X222478872Y-72990000D01*
X222478872Y-72989999D01*
X222429729Y-72806593D01*
X222431392Y-72736743D01*
X222470555Y-72678881D01*
X222534783Y-72651377D01*
X222549504Y-72650500D01*
X222994932Y-72650500D01*
X223060904Y-72669506D01*
X223150477Y-72725789D01*
X223150481Y-72725790D01*
X223320737Y-72785366D01*
X223320743Y-72785367D01*
X223320745Y-72785368D01*
X223320746Y-72785368D01*
X223320750Y-72785369D01*
X223499996Y-72805565D01*
X223500000Y-72805565D01*
X223500004Y-72805565D01*
X223679249Y-72785369D01*
X223679252Y-72785368D01*
X223679255Y-72785368D01*
X223849522Y-72725789D01*
X224002262Y-72629816D01*
X224129816Y-72502262D01*
X224225789Y-72349522D01*
X224285368Y-72179255D01*
X224285369Y-72179249D01*
X224305565Y-72000003D01*
X224305565Y-71999996D01*
X224285369Y-71820750D01*
X224285368Y-71820745D01*
X224225788Y-71650476D01*
X224186582Y-71588080D01*
X224129816Y-71497738D01*
X224002262Y-71370184D01*
X223849523Y-71274211D01*
X223679254Y-71214631D01*
X223679249Y-71214630D01*
X223500004Y-71194435D01*
X223499996Y-71194435D01*
X223320750Y-71214630D01*
X223320737Y-71214633D01*
X223150481Y-71274209D01*
X223150477Y-71274210D01*
X223060904Y-71330494D01*
X222994932Y-71349500D01*
X222526717Y-71349500D01*
X222459678Y-71329815D01*
X222413923Y-71277011D01*
X222403979Y-71207853D01*
X222414336Y-71173094D01*
X222426736Y-71146502D01*
X222426739Y-71146496D01*
X222485635Y-70926692D01*
X222505468Y-70700000D01*
X222505347Y-70698622D01*
X222491674Y-70542335D01*
X222485635Y-70473308D01*
X222440964Y-70306592D01*
X222442627Y-70236744D01*
X222481790Y-70178881D01*
X222546018Y-70151377D01*
X222560739Y-70150500D01*
X227459778Y-70150500D01*
X227526817Y-70170185D01*
G37*
%TD.AperFunction*%
%TA.AperFunction,Conductor*%
G36*
X251192539Y-45720185D02*
G01*
X251238294Y-45772989D01*
X251249500Y-45824500D01*
X251249500Y-97675500D01*
X251229815Y-97742539D01*
X251177011Y-97788294D01*
X251125500Y-97799500D01*
X202674500Y-97799500D01*
X202607461Y-97779815D01*
X202561706Y-97727011D01*
X202550500Y-97675500D01*
X202550500Y-94639994D01*
X205894357Y-94639994D01*
X205894357Y-94640005D01*
X205914890Y-94887812D01*
X205914892Y-94887824D01*
X205975936Y-95128881D01*
X206075826Y-95356606D01*
X206211833Y-95564782D01*
X206211836Y-95564785D01*
X206380256Y-95747738D01*
X206576491Y-95900474D01*
X206795190Y-96018828D01*
X207030386Y-96099571D01*
X207275665Y-96140500D01*
X207524335Y-96140500D01*
X207769614Y-96099571D01*
X208004810Y-96018828D01*
X208223509Y-95900474D01*
X208419744Y-95747738D01*
X208588164Y-95564785D01*
X208724173Y-95356607D01*
X208824063Y-95128881D01*
X208885108Y-94887821D01*
X208905643Y-94640000D01*
X208885108Y-94392179D01*
X208824063Y-94151119D01*
X208724173Y-93923393D01*
X208593256Y-93723009D01*
X208573070Y-93656122D01*
X208592250Y-93588936D01*
X208637642Y-93546356D01*
X208642323Y-93543798D01*
X208642331Y-93543796D01*
X208757546Y-93457546D01*
X208843796Y-93342331D01*
X208894091Y-93207483D01*
X208900500Y-93147873D01*
X208900499Y-91052128D01*
X208894091Y-90992517D01*
X208843796Y-90857669D01*
X208843795Y-90857668D01*
X208843793Y-90857664D01*
X208757547Y-90742455D01*
X208757544Y-90742452D01*
X208642335Y-90656206D01*
X208642328Y-90656202D01*
X208507482Y-90605908D01*
X208507483Y-90605908D01*
X208447883Y-90599501D01*
X208447881Y-90599500D01*
X208447873Y-90599500D01*
X208447864Y-90599500D01*
X206352129Y-90599500D01*
X206352123Y-90599501D01*
X206292516Y-90605908D01*
X206157671Y-90656202D01*
X206157664Y-90656206D01*
X206042455Y-90742452D01*
X206042452Y-90742455D01*
X205956206Y-90857664D01*
X205956202Y-90857671D01*
X205905908Y-90992517D01*
X205899501Y-91052116D01*
X205899501Y-91052123D01*
X205899500Y-91052135D01*
X205899500Y-93147870D01*
X205899501Y-93147876D01*
X205905908Y-93207483D01*
X205956202Y-93342328D01*
X205956206Y-93342335D01*
X206042452Y-93457544D01*
X206042455Y-93457547D01*
X206157664Y-93543793D01*
X206162361Y-93546358D01*
X206211766Y-93595764D01*
X206226617Y-93664037D01*
X206206742Y-93723011D01*
X206075826Y-93923393D01*
X205975936Y-94151118D01*
X205914892Y-94392175D01*
X205914890Y-94392187D01*
X205894357Y-94639994D01*
X202550500Y-94639994D01*
X202550500Y-85993713D01*
X203449500Y-85993713D01*
X203449500Y-86206286D01*
X203478042Y-86386497D01*
X203482754Y-86416243D01*
X203528361Y-86556607D01*
X203548444Y-86618414D01*
X203644951Y-86807820D01*
X203769890Y-86979786D01*
X203920213Y-87130109D01*
X204092179Y-87255048D01*
X204092181Y-87255049D01*
X204092184Y-87255051D01*
X204281588Y-87351557D01*
X204483757Y-87417246D01*
X204693713Y-87450500D01*
X204693714Y-87450500D01*
X204906286Y-87450500D01*
X204906287Y-87450500D01*
X205116243Y-87417246D01*
X205318412Y-87351557D01*
X205507816Y-87255051D01*
X205557673Y-87218828D01*
X205679786Y-87130109D01*
X205679788Y-87130106D01*
X205679792Y-87130104D01*
X205830104Y-86979792D01*
X205830106Y-86979788D01*
X205830109Y-86979786D01*
X205955048Y-86807820D01*
X205955047Y-86807820D01*
X205955051Y-86807816D01*
X206051557Y-86618412D01*
X206117246Y-86416243D01*
X206150500Y-86206287D01*
X206150500Y-85993713D01*
X206117246Y-85783757D01*
X206051557Y-85581588D01*
X205955051Y-85392184D01*
X205955049Y-85392181D01*
X205955048Y-85392179D01*
X205830109Y-85220213D01*
X205679786Y-85069890D01*
X205507820Y-84944951D01*
X205318414Y-84848444D01*
X205318413Y-84848443D01*
X205318412Y-84848443D01*
X205116243Y-84782754D01*
X205116241Y-84782753D01*
X205116240Y-84782753D01*
X204954957Y-84757208D01*
X204906287Y-84749500D01*
X204693713Y-84749500D01*
X204645042Y-84757208D01*
X204483760Y-84782753D01*
X204281585Y-84848444D01*
X204092179Y-84944951D01*
X203920213Y-85069890D01*
X203769890Y-85220213D01*
X203644951Y-85392179D01*
X203548444Y-85581585D01*
X203482753Y-85783760D01*
X203449500Y-85993713D01*
X202550500Y-85993713D01*
X202550500Y-71839994D01*
X205894357Y-71839994D01*
X205894357Y-71840005D01*
X205914890Y-72087812D01*
X205914892Y-72087824D01*
X205975936Y-72328881D01*
X206075826Y-72556606D01*
X206211833Y-72764782D01*
X206211836Y-72764785D01*
X206380256Y-72947738D01*
X206576491Y-73100474D01*
X206795190Y-73218828D01*
X207030386Y-73299571D01*
X207275665Y-73340500D01*
X207524335Y-73340500D01*
X207769614Y-73299571D01*
X208004810Y-73218828D01*
X208223509Y-73100474D01*
X208419744Y-72947738D01*
X208588164Y-72764785D01*
X208724173Y-72556607D01*
X208824063Y-72328881D01*
X208885108Y-72087821D01*
X208885582Y-72082106D01*
X208905643Y-71840005D01*
X208905643Y-71839994D01*
X208885109Y-71592187D01*
X208885107Y-71592175D01*
X208824063Y-71351118D01*
X208745974Y-71173094D01*
X208724173Y-71123393D01*
X208593256Y-70923009D01*
X208573070Y-70856122D01*
X208592250Y-70788936D01*
X208637642Y-70746356D01*
X208642323Y-70743798D01*
X208642331Y-70743796D01*
X208757546Y-70657546D01*
X208843796Y-70542331D01*
X208894091Y-70407483D01*
X208900500Y-70347873D01*
X208900500Y-69899996D01*
X209694435Y-69899996D01*
X209694435Y-69900003D01*
X209714630Y-70079249D01*
X209714631Y-70079254D01*
X209774211Y-70249523D01*
X209870184Y-70402262D01*
X209997738Y-70529816D01*
X210150478Y-70625789D01*
X210300497Y-70678283D01*
X210320745Y-70685368D01*
X210320750Y-70685369D01*
X210499996Y-70705565D01*
X210500000Y-70705565D01*
X210500001Y-70705565D01*
X210508324Y-70704627D01*
X210561617Y-70698622D01*
X210630437Y-70710676D01*
X210681817Y-70758024D01*
X210699500Y-70821842D01*
X210699500Y-89914069D01*
X210699500Y-89914071D01*
X210699499Y-89914071D01*
X210724497Y-90039738D01*
X210724499Y-90039744D01*
X210773534Y-90158125D01*
X210844726Y-90264673D01*
X210844727Y-90264674D01*
X211678277Y-91098223D01*
X211711762Y-91159546D01*
X211713815Y-91172012D01*
X211714630Y-91179246D01*
X211714632Y-91179255D01*
X211774210Y-91349521D01*
X211858161Y-91483127D01*
X211870184Y-91502262D01*
X211997738Y-91629816D01*
X212150478Y-91725789D01*
X212320745Y-91785368D01*
X212320750Y-91785369D01*
X212499996Y-91805565D01*
X212500000Y-91805565D01*
X212500004Y-91805565D01*
X212679249Y-91785369D01*
X212679252Y-91785368D01*
X212679255Y-91785368D01*
X212849522Y-91725789D01*
X213002262Y-91629816D01*
X213129816Y-91502262D01*
X213225789Y-91349522D01*
X213285368Y-91179255D01*
X213299692Y-91052127D01*
X213305565Y-91000003D01*
X213305565Y-90999996D01*
X213285369Y-90820750D01*
X213285368Y-90820745D01*
X213245961Y-90708127D01*
X213225789Y-90650478D01*
X213129816Y-90497738D01*
X213002262Y-90370184D01*
X212849521Y-90274210D01*
X212679255Y-90214632D01*
X212679246Y-90214630D01*
X212672012Y-90213815D01*
X212607600Y-90186744D01*
X212598223Y-90178277D01*
X212036819Y-89616873D01*
X212003334Y-89555550D01*
X212000500Y-89529192D01*
X212000500Y-69470808D01*
X212020185Y-69403769D01*
X212036819Y-69383127D01*
X218712819Y-62707127D01*
X218774142Y-62673642D01*
X218843834Y-62678626D01*
X218899767Y-62720498D01*
X218924184Y-62785962D01*
X218924500Y-62794808D01*
X218924500Y-73454374D01*
X218924500Y-73605906D01*
X218933635Y-73640000D01*
X218963719Y-73752276D01*
X219001602Y-73817890D01*
X219039485Y-73883505D01*
X219039486Y-73883506D01*
X219039487Y-73883507D01*
X220005004Y-74849023D01*
X220005014Y-74849034D01*
X220009344Y-74853364D01*
X220009345Y-74853365D01*
X220083915Y-74927935D01*
X220117399Y-74989256D01*
X220112415Y-75058948D01*
X220097809Y-75086736D01*
X220069435Y-75127258D01*
X220069434Y-75127261D01*
X219973261Y-75333502D01*
X219973258Y-75333511D01*
X219914366Y-75553302D01*
X219914364Y-75553313D01*
X219894532Y-75779998D01*
X219894532Y-75780003D01*
X219909129Y-75946861D01*
X219895362Y-76015360D01*
X219873282Y-76045348D01*
X218064776Y-77853854D01*
X218003453Y-77887339D01*
X217933761Y-77882355D01*
X217905979Y-77867752D01*
X217827639Y-77812898D01*
X217629330Y-77720425D01*
X217629326Y-77720424D01*
X217629322Y-77720422D01*
X217417977Y-77663793D01*
X217200002Y-77644723D01*
X217199998Y-77644723D01*
X217054682Y-77657436D01*
X216982023Y-77663793D01*
X216982020Y-77663793D01*
X216770677Y-77720422D01*
X216770668Y-77720426D01*
X216572361Y-77812898D01*
X216572357Y-77812900D01*
X216393121Y-77938402D01*
X216238402Y-78093121D01*
X216112900Y-78272357D01*
X216112898Y-78272361D01*
X216020426Y-78470668D01*
X216020422Y-78470677D01*
X215963793Y-78682020D01*
X215963793Y-78682024D01*
X215944723Y-78899997D01*
X215944723Y-78900002D01*
X215963793Y-79117975D01*
X215963793Y-79117979D01*
X216020422Y-79329322D01*
X216020424Y-79329326D01*
X216020425Y-79329330D01*
X216060284Y-79414808D01*
X216112897Y-79527638D01*
X216112898Y-79527639D01*
X216238402Y-79706877D01*
X216393123Y-79861598D01*
X216572361Y-79987102D01*
X216770670Y-80079575D01*
X216770676Y-80079576D01*
X216770677Y-80079577D01*
X216801364Y-80087799D01*
X216982023Y-80136207D01*
X217164926Y-80152208D01*
X217199998Y-80155277D01*
X217200000Y-80155277D01*
X217200002Y-80155277D01*
X217228254Y-80152805D01*
X217417977Y-80136207D01*
X217629330Y-80079575D01*
X217827639Y-79987102D01*
X218006877Y-79861598D01*
X218161598Y-79706877D01*
X218180149Y-79680382D01*
X218234721Y-79636759D01*
X218257524Y-79629890D01*
X218298913Y-79621658D01*
X218377716Y-79589017D01*
X218435491Y-79565086D01*
X218435492Y-79565085D01*
X218435495Y-79565084D01*
X218496666Y-79524211D01*
X218558416Y-79482952D01*
X219692569Y-78348797D01*
X219753890Y-78315314D01*
X219823581Y-78320298D01*
X219879515Y-78362169D01*
X219903776Y-78425673D01*
X219909129Y-78486860D01*
X219895362Y-78555360D01*
X219873282Y-78585348D01*
X216617049Y-81841582D01*
X216604712Y-81860047D01*
X216534913Y-81964508D01*
X216478343Y-82101082D01*
X216478340Y-82101092D01*
X216449500Y-82246079D01*
X216449500Y-82734376D01*
X216429815Y-82801415D01*
X216396625Y-82835950D01*
X216393125Y-82838400D01*
X216238400Y-82993124D01*
X216112900Y-83172357D01*
X216112898Y-83172361D01*
X216020426Y-83370668D01*
X216020422Y-83370677D01*
X215963793Y-83582020D01*
X215963793Y-83582024D01*
X215944723Y-83799997D01*
X215944723Y-83800002D01*
X215963793Y-84017975D01*
X215963793Y-84017979D01*
X216020422Y-84229322D01*
X216020424Y-84229326D01*
X216020425Y-84229330D01*
X216024999Y-84239139D01*
X216112897Y-84427638D01*
X216112898Y-84427639D01*
X216238402Y-84606877D01*
X216393123Y-84761598D01*
X216572361Y-84887102D01*
X216770670Y-84979575D01*
X216982023Y-85036207D01*
X217164926Y-85052208D01*
X217199998Y-85055277D01*
X217200000Y-85055277D01*
X217200002Y-85055277D01*
X217228254Y-85052805D01*
X217417977Y-85036207D01*
X217629330Y-84979575D01*
X217827639Y-84887102D01*
X218006877Y-84761598D01*
X218161598Y-84606877D01*
X218287102Y-84427639D01*
X218379575Y-84229330D01*
X218436207Y-84017977D01*
X218455277Y-83800000D01*
X218436207Y-83582023D01*
X218401548Y-83452675D01*
X218379577Y-83370677D01*
X218379576Y-83370676D01*
X218379575Y-83370670D01*
X218287102Y-83172362D01*
X218287100Y-83172359D01*
X218287099Y-83172357D01*
X218161599Y-82993124D01*
X218121977Y-82953502D01*
X218006877Y-82838402D01*
X218003374Y-82835949D01*
X217959751Y-82781372D01*
X217950500Y-82734376D01*
X217950500Y-82682228D01*
X217970185Y-82615189D01*
X217986814Y-82594552D01*
X219692568Y-80888797D01*
X219753891Y-80855313D01*
X219823583Y-80860297D01*
X219879516Y-80902169D01*
X219903777Y-80965671D01*
X219914364Y-81086687D01*
X219914366Y-81086697D01*
X219973258Y-81306488D01*
X219973261Y-81306497D01*
X220069431Y-81512732D01*
X220069432Y-81512734D01*
X220199954Y-81699141D01*
X220360858Y-81860045D01*
X220360861Y-81860047D01*
X220547266Y-81990568D01*
X220605275Y-82017618D01*
X220657714Y-82063791D01*
X220676866Y-82130984D01*
X220656650Y-82197865D01*
X220605275Y-82242381D01*
X220597340Y-82246082D01*
X220547267Y-82269431D01*
X220547265Y-82269432D01*
X220360858Y-82399954D01*
X220199954Y-82560858D01*
X220069432Y-82747265D01*
X220069431Y-82747267D01*
X219973261Y-82953502D01*
X219973258Y-82953511D01*
X219914366Y-83173302D01*
X219914364Y-83173313D01*
X219894532Y-83399998D01*
X219894532Y-83400001D01*
X219914364Y-83626686D01*
X219914366Y-83626697D01*
X219973258Y-83846488D01*
X219973261Y-83846497D01*
X220069431Y-84052732D01*
X220069432Y-84052734D01*
X220199954Y-84239141D01*
X220360858Y-84400045D01*
X220360861Y-84400047D01*
X220547266Y-84530568D01*
X220605275Y-84557618D01*
X220657714Y-84603791D01*
X220676866Y-84670984D01*
X220656650Y-84737865D01*
X220605275Y-84782382D01*
X220547267Y-84809431D01*
X220547265Y-84809432D01*
X220360858Y-84939954D01*
X220199954Y-85100858D01*
X220069432Y-85287265D01*
X220069431Y-85287267D01*
X219973261Y-85493502D01*
X219973258Y-85493511D01*
X219914366Y-85713302D01*
X219914364Y-85713313D01*
X219894532Y-85939998D01*
X219894532Y-85940001D01*
X219914364Y-86166686D01*
X219914366Y-86166697D01*
X219973258Y-86386488D01*
X219973261Y-86386497D01*
X220069431Y-86592732D01*
X220069432Y-86592734D01*
X220199954Y-86779141D01*
X220360858Y-86940045D01*
X220360861Y-86940047D01*
X220547266Y-87070568D01*
X220605275Y-87097618D01*
X220657714Y-87143791D01*
X220676866Y-87210984D01*
X220656650Y-87277865D01*
X220605275Y-87322382D01*
X220547267Y-87349431D01*
X220547265Y-87349432D01*
X220360858Y-87479954D01*
X220199954Y-87640858D01*
X220069432Y-87827265D01*
X220069431Y-87827267D01*
X219973261Y-88033502D01*
X219973258Y-88033511D01*
X219914366Y-88253302D01*
X219914364Y-88253313D01*
X219894532Y-88479998D01*
X219894532Y-88480001D01*
X219914364Y-88706686D01*
X219914366Y-88706697D01*
X219973258Y-88926488D01*
X219973261Y-88926497D01*
X220069431Y-89132732D01*
X220069432Y-89132734D01*
X220199954Y-89319141D01*
X220360858Y-89480045D01*
X220360861Y-89480047D01*
X220547266Y-89610568D01*
X220753504Y-89706739D01*
X220973308Y-89765635D01*
X221135230Y-89779801D01*
X221199998Y-89785468D01*
X221200000Y-89785468D01*
X221200002Y-89785468D01*
X221256673Y-89780509D01*
X221426692Y-89765635D01*
X221646496Y-89706739D01*
X221852734Y-89610568D01*
X222039139Y-89480047D01*
X222200047Y-89319139D01*
X222330568Y-89132734D01*
X222426739Y-88926496D01*
X222485635Y-88706692D01*
X222505468Y-88480000D01*
X222485635Y-88253308D01*
X222426739Y-88033504D01*
X222330568Y-87827266D01*
X222200047Y-87640861D01*
X222200045Y-87640858D01*
X222039141Y-87479954D01*
X221852734Y-87349432D01*
X221852728Y-87349429D01*
X221794725Y-87322382D01*
X221742285Y-87276210D01*
X221723133Y-87209017D01*
X221743348Y-87142135D01*
X221794725Y-87097618D01*
X221852734Y-87070568D01*
X222039139Y-86940047D01*
X222200047Y-86779139D01*
X222330568Y-86592734D01*
X222426739Y-86386496D01*
X222485635Y-86166692D01*
X222505468Y-85940000D01*
X222485635Y-85713308D01*
X222426739Y-85493504D01*
X222330568Y-85287266D01*
X222200047Y-85100861D01*
X222200045Y-85100858D01*
X222039141Y-84939954D01*
X221852734Y-84809432D01*
X221852728Y-84809429D01*
X221794725Y-84782382D01*
X221742285Y-84736210D01*
X221723133Y-84669017D01*
X221743348Y-84602135D01*
X221794725Y-84557618D01*
X221852734Y-84530568D01*
X222039139Y-84400047D01*
X222200047Y-84239139D01*
X222330568Y-84052734D01*
X222426739Y-83846496D01*
X222485635Y-83626692D01*
X222505468Y-83400000D01*
X222485635Y-83173308D01*
X222426739Y-82953504D01*
X222330568Y-82747266D01*
X222200047Y-82560861D01*
X222200045Y-82560858D01*
X222039141Y-82399954D01*
X221852734Y-82269432D01*
X221852728Y-82269429D01*
X221802660Y-82246082D01*
X221794724Y-82242381D01*
X221742285Y-82196210D01*
X221723133Y-82129017D01*
X221743348Y-82062135D01*
X221794725Y-82017618D01*
X221852734Y-81990568D01*
X222039139Y-81860047D01*
X222200047Y-81699139D01*
X222330568Y-81512734D01*
X222426739Y-81306496D01*
X222485635Y-81086692D01*
X222502634Y-80892384D01*
X222505468Y-80860001D01*
X222505468Y-80859998D01*
X222485635Y-80633313D01*
X222485635Y-80633308D01*
X222440916Y-80466415D01*
X222426741Y-80413511D01*
X222426738Y-80413502D01*
X222330568Y-80207266D01*
X222200047Y-80020861D01*
X222200045Y-80020858D01*
X222039141Y-79859954D01*
X221852734Y-79729432D01*
X221852728Y-79729429D01*
X221825038Y-79716517D01*
X221794724Y-79702381D01*
X221742285Y-79656210D01*
X221723133Y-79589017D01*
X221743348Y-79522135D01*
X221794725Y-79477618D01*
X221852734Y-79450568D01*
X222039139Y-79320047D01*
X222200047Y-79159139D01*
X222330568Y-78972734D01*
X222426739Y-78766496D01*
X222485635Y-78546692D01*
X222505468Y-78320000D01*
X222485635Y-78093308D01*
X222426739Y-77873504D01*
X222330568Y-77667266D01*
X222200047Y-77480861D01*
X222200045Y-77480858D01*
X222039141Y-77319954D01*
X221852734Y-77189432D01*
X221852728Y-77189429D01*
X221794725Y-77162382D01*
X221742285Y-77116210D01*
X221723133Y-77049017D01*
X221743348Y-76982135D01*
X221794725Y-76937618D01*
X221852734Y-76910568D01*
X222039139Y-76780047D01*
X222200047Y-76619139D01*
X222330568Y-76432734D01*
X222426739Y-76226496D01*
X222473829Y-76050750D01*
X222510192Y-75991092D01*
X222573039Y-75960562D01*
X222642415Y-75968856D01*
X222681284Y-75995164D01*
X226539485Y-79853365D01*
X226646635Y-79960515D01*
X226777865Y-80036281D01*
X226924234Y-80075500D01*
X227556234Y-80075500D01*
X227623273Y-80095185D01*
X227669028Y-80147989D01*
X227678972Y-80217147D01*
X227668616Y-80251905D01*
X227593262Y-80413502D01*
X227593258Y-80413511D01*
X227534366Y-80633302D01*
X227534364Y-80633313D01*
X227514532Y-80859998D01*
X227514532Y-80860001D01*
X227534364Y-81086686D01*
X227534366Y-81086697D01*
X227593258Y-81306488D01*
X227593261Y-81306497D01*
X227689431Y-81512732D01*
X227689432Y-81512734D01*
X227819954Y-81699141D01*
X227980858Y-81860045D01*
X227980861Y-81860047D01*
X228167266Y-81990568D01*
X228225275Y-82017618D01*
X228277714Y-82063791D01*
X228296866Y-82130984D01*
X228276650Y-82197865D01*
X228225275Y-82242381D01*
X228217340Y-82246082D01*
X228167267Y-82269431D01*
X228167265Y-82269432D01*
X227980858Y-82399954D01*
X227819954Y-82560858D01*
X227689432Y-82747265D01*
X227689431Y-82747267D01*
X227593261Y-82953502D01*
X227593258Y-82953511D01*
X227534366Y-83173302D01*
X227534364Y-83173313D01*
X227514532Y-83399998D01*
X227514532Y-83400001D01*
X227534364Y-83626686D01*
X227534366Y-83626697D01*
X227593258Y-83846488D01*
X227593261Y-83846497D01*
X227689431Y-84052732D01*
X227689432Y-84052734D01*
X227819954Y-84239141D01*
X227980858Y-84400045D01*
X227980861Y-84400047D01*
X228167266Y-84530568D01*
X228225275Y-84557618D01*
X228277714Y-84603791D01*
X228296866Y-84670984D01*
X228276650Y-84737865D01*
X228225275Y-84782382D01*
X228167267Y-84809431D01*
X228167265Y-84809432D01*
X227980858Y-84939954D01*
X227819954Y-85100858D01*
X227689432Y-85287265D01*
X227689431Y-85287267D01*
X227593261Y-85493502D01*
X227593258Y-85493511D01*
X227534366Y-85713302D01*
X227534364Y-85713313D01*
X227514532Y-85939998D01*
X227514532Y-85940001D01*
X227534364Y-86166686D01*
X227534366Y-86166697D01*
X227593258Y-86386488D01*
X227593261Y-86386497D01*
X227689431Y-86592732D01*
X227689432Y-86592734D01*
X227819954Y-86779141D01*
X227980858Y-86940045D01*
X227980861Y-86940047D01*
X228167266Y-87070568D01*
X228225275Y-87097618D01*
X228277714Y-87143791D01*
X228296866Y-87210984D01*
X228276650Y-87277865D01*
X228225275Y-87322382D01*
X228167267Y-87349431D01*
X228167265Y-87349432D01*
X227980858Y-87479954D01*
X227819954Y-87640858D01*
X227689432Y-87827265D01*
X227689431Y-87827267D01*
X227593261Y-88033502D01*
X227593258Y-88033511D01*
X227534366Y-88253302D01*
X227534364Y-88253313D01*
X227514532Y-88479998D01*
X227514532Y-88480001D01*
X227534364Y-88706686D01*
X227534366Y-88706697D01*
X227593258Y-88926488D01*
X227593261Y-88926497D01*
X227689431Y-89132732D01*
X227689432Y-89132734D01*
X227819954Y-89319141D01*
X227980858Y-89480045D01*
X227980861Y-89480047D01*
X228167266Y-89610568D01*
X228373504Y-89706739D01*
X228593308Y-89765635D01*
X228755230Y-89779801D01*
X228819998Y-89785468D01*
X228820000Y-89785468D01*
X228820002Y-89785468D01*
X228876673Y-89780509D01*
X229046692Y-89765635D01*
X229266496Y-89706739D01*
X229472734Y-89610568D01*
X229659139Y-89480047D01*
X229820047Y-89319139D01*
X229950568Y-89132734D01*
X230046739Y-88926496D01*
X230105635Y-88706692D01*
X230125468Y-88480000D01*
X230105635Y-88253308D01*
X230046739Y-88033504D01*
X229950568Y-87827266D01*
X229820047Y-87640861D01*
X229820045Y-87640858D01*
X229659141Y-87479954D01*
X229472734Y-87349432D01*
X229472728Y-87349429D01*
X229414725Y-87322382D01*
X229362285Y-87276210D01*
X229343133Y-87209017D01*
X229363348Y-87142135D01*
X229414725Y-87097618D01*
X229472734Y-87070568D01*
X229659139Y-86940047D01*
X229820047Y-86779139D01*
X229950568Y-86592734D01*
X230046739Y-86386496D01*
X230105635Y-86166692D01*
X230125468Y-85940000D01*
X230105635Y-85713308D01*
X230046739Y-85493504D01*
X229950568Y-85287266D01*
X229820047Y-85100861D01*
X229820045Y-85100858D01*
X229659141Y-84939954D01*
X229472734Y-84809432D01*
X229472728Y-84809429D01*
X229414725Y-84782382D01*
X229362285Y-84736210D01*
X229343133Y-84669017D01*
X229363348Y-84602135D01*
X229414725Y-84557618D01*
X229472734Y-84530568D01*
X229659139Y-84400047D01*
X229820047Y-84239139D01*
X229950568Y-84052734D01*
X230046739Y-83846496D01*
X230105635Y-83626692D01*
X230125468Y-83400000D01*
X230105635Y-83173308D01*
X230046739Y-82953504D01*
X229950568Y-82747266D01*
X229820047Y-82560861D01*
X229820045Y-82560858D01*
X229659141Y-82399954D01*
X229472734Y-82269432D01*
X229472728Y-82269429D01*
X229422660Y-82246082D01*
X229414724Y-82242381D01*
X229362285Y-82196210D01*
X229343133Y-82129017D01*
X229363348Y-82062135D01*
X229414725Y-82017618D01*
X229472734Y-81990568D01*
X229659139Y-81860047D01*
X229820047Y-81699139D01*
X229950568Y-81512734D01*
X230046739Y-81306496D01*
X230105635Y-81086692D01*
X230122634Y-80892384D01*
X230125468Y-80860001D01*
X230125468Y-80859998D01*
X230105635Y-80633313D01*
X230105635Y-80633308D01*
X230060916Y-80466415D01*
X230046741Y-80413511D01*
X230046740Y-80413510D01*
X230046739Y-80413504D01*
X229971384Y-80251905D01*
X229960892Y-80182827D01*
X229989412Y-80119043D01*
X230047888Y-80080804D01*
X230083766Y-80075500D01*
X233710258Y-80075500D01*
X233777297Y-80095185D01*
X233797939Y-80111819D01*
X233914808Y-80228688D01*
X233948293Y-80290011D01*
X233950347Y-80302485D01*
X233964630Y-80429249D01*
X234024210Y-80599521D01*
X234045436Y-80633302D01*
X234120184Y-80752262D01*
X234247738Y-80879816D01*
X234400478Y-80975789D01*
X234454597Y-80994726D01*
X234570745Y-81035368D01*
X234570750Y-81035369D01*
X234749996Y-81055565D01*
X234750000Y-81055565D01*
X234750004Y-81055565D01*
X234929249Y-81035369D01*
X234929252Y-81035368D01*
X234929255Y-81035368D01*
X235099522Y-80975789D01*
X235252262Y-80879816D01*
X235379816Y-80752262D01*
X235475789Y-80599522D01*
X235535368Y-80429255D01*
X235537143Y-80413502D01*
X235555565Y-80250003D01*
X235555565Y-80249996D01*
X235535369Y-80070750D01*
X235535368Y-80070745D01*
X235475789Y-79900478D01*
X235450325Y-79859953D01*
X235379815Y-79747737D01*
X235252262Y-79620184D01*
X235099521Y-79524210D01*
X234929249Y-79464630D01*
X234802485Y-79450347D01*
X234738071Y-79423280D01*
X234728688Y-79414808D01*
X234353367Y-79039487D01*
X234353365Y-79039485D01*
X234287750Y-79001602D01*
X234222136Y-78963719D01*
X234148950Y-78944109D01*
X234075766Y-78924500D01*
X234075765Y-78924500D01*
X230166002Y-78924500D01*
X230098963Y-78904815D01*
X230053208Y-78852011D01*
X230043264Y-78782853D01*
X230046227Y-78768407D01*
X230104331Y-78551557D01*
X230105635Y-78546692D01*
X230125468Y-78320000D01*
X230105635Y-78093308D01*
X230046739Y-77873504D01*
X229950568Y-77667266D01*
X229820047Y-77480861D01*
X229820045Y-77480858D01*
X229659141Y-77319954D01*
X229472734Y-77189432D01*
X229472728Y-77189429D01*
X229414725Y-77162382D01*
X229362285Y-77116210D01*
X229343133Y-77049017D01*
X229363348Y-76982135D01*
X229414725Y-76937618D01*
X229472734Y-76910568D01*
X229659139Y-76780047D01*
X229820047Y-76619139D01*
X229950568Y-76432734D01*
X230046739Y-76226496D01*
X230105635Y-76006692D01*
X230125468Y-75780000D01*
X230105635Y-75553308D01*
X230046739Y-75333504D01*
X229950568Y-75127266D01*
X229820047Y-74940861D01*
X229820045Y-74940858D01*
X229659141Y-74779954D01*
X229472734Y-74649432D01*
X229472728Y-74649429D01*
X229414725Y-74622382D01*
X229362285Y-74576210D01*
X229343133Y-74509017D01*
X229363348Y-74442135D01*
X229414725Y-74397618D01*
X229472734Y-74370568D01*
X229659139Y-74240047D01*
X229820047Y-74079139D01*
X229950568Y-73892734D01*
X230046739Y-73686496D01*
X230105635Y-73466692D01*
X230125468Y-73240000D01*
X230105635Y-73013308D01*
X230046739Y-72793504D01*
X229950568Y-72587266D01*
X229820047Y-72400861D01*
X229820045Y-72400858D01*
X229659141Y-72239954D01*
X229472734Y-72109432D01*
X229472732Y-72109431D01*
X229461275Y-72104088D01*
X229414132Y-72082105D01*
X229361694Y-72035934D01*
X229342542Y-71968740D01*
X229362758Y-71901859D01*
X229414134Y-71857341D01*
X229472484Y-71830132D01*
X229658820Y-71699657D01*
X229819657Y-71538820D01*
X229950134Y-71352482D01*
X230046265Y-71146326D01*
X230046269Y-71146317D01*
X230098872Y-70950000D01*
X229135686Y-70950000D01*
X229140080Y-70945606D01*
X229192741Y-70854394D01*
X229220000Y-70752661D01*
X229220000Y-70647339D01*
X229192741Y-70545606D01*
X229140080Y-70454394D01*
X229135686Y-70450000D01*
X230098872Y-70450000D01*
X230098872Y-70449999D01*
X230060447Y-70306593D01*
X230062110Y-70236743D01*
X230101273Y-70178881D01*
X230165501Y-70151377D01*
X230180222Y-70150500D01*
X230239192Y-70150500D01*
X230306231Y-70170185D01*
X230326873Y-70186819D01*
X245429194Y-85289140D01*
X245462679Y-85350463D01*
X245461719Y-85407261D01*
X245414892Y-85592174D01*
X245414890Y-85592187D01*
X245394357Y-85839994D01*
X245394357Y-85840005D01*
X245414890Y-86087812D01*
X245414892Y-86087824D01*
X245475936Y-86328881D01*
X245575826Y-86556606D01*
X245711833Y-86764782D01*
X245744245Y-86799991D01*
X245880256Y-86947738D01*
X246076491Y-87100474D01*
X246131252Y-87130109D01*
X246280695Y-87210984D01*
X246295190Y-87218828D01*
X246530386Y-87299571D01*
X246775665Y-87340500D01*
X247024335Y-87340500D01*
X247269614Y-87299571D01*
X247504810Y-87218828D01*
X247666483Y-87131334D01*
X247734811Y-87116740D01*
X247800183Y-87141403D01*
X247841844Y-87197493D01*
X247849500Y-87240390D01*
X247849500Y-90079191D01*
X247829815Y-90146230D01*
X247813181Y-90166872D01*
X247416872Y-90563181D01*
X247355549Y-90596666D01*
X247329191Y-90599500D01*
X245752129Y-90599500D01*
X245752123Y-90599501D01*
X245692516Y-90605908D01*
X245557671Y-90656202D01*
X245557664Y-90656206D01*
X245442455Y-90742452D01*
X245442452Y-90742455D01*
X245356206Y-90857664D01*
X245356202Y-90857671D01*
X245305908Y-90992517D01*
X245299501Y-91052116D01*
X245299501Y-91052123D01*
X245299500Y-91052135D01*
X245299500Y-93147870D01*
X245299501Y-93147876D01*
X245305908Y-93207483D01*
X245356202Y-93342328D01*
X245356206Y-93342335D01*
X245442452Y-93457544D01*
X245442455Y-93457547D01*
X245557664Y-93543793D01*
X245562361Y-93546358D01*
X245611766Y-93595764D01*
X245626617Y-93664037D01*
X245606742Y-93723011D01*
X245475826Y-93923393D01*
X245475214Y-93924525D01*
X245474842Y-93924898D01*
X245473022Y-93927686D01*
X245472448Y-93927311D01*
X245425991Y-93974112D01*
X245366163Y-93989500D01*
X224960808Y-93989500D01*
X224893769Y-93969815D01*
X224873127Y-93953181D01*
X223414674Y-92494727D01*
X223414673Y-92494726D01*
X223414669Y-92494723D01*
X223308127Y-92423535D01*
X223189744Y-92374499D01*
X223189738Y-92374497D01*
X223064071Y-92349500D01*
X223064069Y-92349500D01*
X219505068Y-92349500D01*
X219439096Y-92330494D01*
X219349522Y-92274210D01*
X219349518Y-92274209D01*
X219179262Y-92214633D01*
X219179249Y-92214630D01*
X219000004Y-92194435D01*
X218999996Y-92194435D01*
X218820750Y-92214630D01*
X218820745Y-92214631D01*
X218650476Y-92274211D01*
X218497737Y-92370184D01*
X218370184Y-92497737D01*
X218274211Y-92650476D01*
X218214631Y-92820745D01*
X218214630Y-92820750D01*
X218194435Y-92999996D01*
X218194435Y-93000003D01*
X218214630Y-93179249D01*
X218214631Y-93179254D01*
X218274211Y-93349523D01*
X218370184Y-93502262D01*
X218497738Y-93629816D01*
X218560904Y-93669506D01*
X218646056Y-93723011D01*
X218650478Y-93725789D01*
X218820739Y-93785366D01*
X218820745Y-93785368D01*
X218820750Y-93785369D01*
X218999996Y-93805565D01*
X219000000Y-93805565D01*
X219000004Y-93805565D01*
X219179249Y-93785369D01*
X219179251Y-93785368D01*
X219179255Y-93785368D01*
X219179258Y-93785366D01*
X219179262Y-93785366D01*
X219269377Y-93753832D01*
X219349522Y-93725789D01*
X219439096Y-93669505D01*
X219505068Y-93650500D01*
X222679192Y-93650500D01*
X222746231Y-93670185D01*
X222766873Y-93686819D01*
X224225324Y-95145271D01*
X224225331Y-95145277D01*
X224331871Y-95216464D01*
X224331870Y-95216464D01*
X224366544Y-95230826D01*
X224450256Y-95265501D01*
X224450260Y-95265501D01*
X224450261Y-95265502D01*
X224575928Y-95290500D01*
X224575931Y-95290500D01*
X245366163Y-95290500D01*
X245433202Y-95310185D01*
X245472561Y-95352615D01*
X245473022Y-95352314D01*
X245474785Y-95355012D01*
X245475214Y-95355475D01*
X245475826Y-95356606D01*
X245611833Y-95564782D01*
X245611836Y-95564785D01*
X245780256Y-95747738D01*
X245976491Y-95900474D01*
X246195190Y-96018828D01*
X246430386Y-96099571D01*
X246675665Y-96140500D01*
X246924335Y-96140500D01*
X247169614Y-96099571D01*
X247404810Y-96018828D01*
X247623509Y-95900474D01*
X247819744Y-95747738D01*
X247988164Y-95564785D01*
X248124173Y-95356607D01*
X248224063Y-95128881D01*
X248285108Y-94887821D01*
X248305643Y-94640000D01*
X248285108Y-94392179D01*
X248224063Y-94151119D01*
X248124173Y-93923393D01*
X247993256Y-93723009D01*
X247973070Y-93656122D01*
X247992250Y-93588936D01*
X248037642Y-93546356D01*
X248042323Y-93543798D01*
X248042331Y-93543796D01*
X248157546Y-93457546D01*
X248243796Y-93342331D01*
X248294091Y-93207483D01*
X248300500Y-93147873D01*
X248300499Y-91570807D01*
X248320184Y-91503769D01*
X248336818Y-91483127D01*
X248660400Y-91159546D01*
X249005277Y-90814669D01*
X249076465Y-90708127D01*
X249125501Y-90589744D01*
X249126379Y-90585331D01*
X249150500Y-90464069D01*
X249150500Y-82135931D01*
X249150500Y-82135928D01*
X249125502Y-82010261D01*
X249125501Y-82010260D01*
X249125501Y-82010256D01*
X249076465Y-81891873D01*
X249019026Y-81805909D01*
X249005276Y-81785330D01*
X248732678Y-81512732D01*
X248214674Y-80994727D01*
X248214673Y-80994726D01*
X248214669Y-80994723D01*
X248108127Y-80923535D01*
X247989744Y-80874499D01*
X247989738Y-80874497D01*
X247864071Y-80849500D01*
X247864069Y-80849500D01*
X246320808Y-80849500D01*
X246253769Y-80829815D01*
X246233127Y-80813181D01*
X242613659Y-77193713D01*
X247649500Y-77193713D01*
X247649500Y-77406287D01*
X247682754Y-77616243D01*
X247746651Y-77812898D01*
X247748444Y-77818414D01*
X247844951Y-78007820D01*
X247969890Y-78179786D01*
X248120213Y-78330109D01*
X248292179Y-78455048D01*
X248292181Y-78455049D01*
X248292184Y-78455051D01*
X248481588Y-78551557D01*
X248683757Y-78617246D01*
X248893713Y-78650500D01*
X248893714Y-78650500D01*
X249106286Y-78650500D01*
X249106287Y-78650500D01*
X249316243Y-78617246D01*
X249518412Y-78551557D01*
X249707816Y-78455051D01*
X249748252Y-78425673D01*
X249879786Y-78330109D01*
X249879788Y-78330106D01*
X249879792Y-78330104D01*
X250030104Y-78179792D01*
X250030106Y-78179788D01*
X250030109Y-78179786D01*
X250155048Y-78007820D01*
X250155047Y-78007820D01*
X250155051Y-78007816D01*
X250251557Y-77818412D01*
X250317246Y-77616243D01*
X250350500Y-77406287D01*
X250350500Y-77193713D01*
X250317246Y-76983757D01*
X250251557Y-76781588D01*
X250155051Y-76592184D01*
X250155049Y-76592181D01*
X250155048Y-76592179D01*
X250030109Y-76420213D01*
X249879786Y-76269890D01*
X249707820Y-76144951D01*
X249518414Y-76048444D01*
X249518413Y-76048443D01*
X249518412Y-76048443D01*
X249316243Y-75982754D01*
X249316241Y-75982753D01*
X249316240Y-75982753D01*
X249154957Y-75957208D01*
X249106287Y-75949500D01*
X248893713Y-75949500D01*
X248845042Y-75957208D01*
X248683760Y-75982753D01*
X248481585Y-76048444D01*
X248292179Y-76144951D01*
X248120213Y-76269890D01*
X247969890Y-76420213D01*
X247844951Y-76592179D01*
X247748444Y-76781585D01*
X247682753Y-76983760D01*
X247672262Y-77050000D01*
X247649500Y-77193713D01*
X242613659Y-77193713D01*
X236686819Y-71266873D01*
X236653334Y-71205550D01*
X236650500Y-71179192D01*
X236650500Y-57774500D01*
X236670185Y-57707461D01*
X236722989Y-57661706D01*
X236774500Y-57650500D01*
X239664071Y-57650500D01*
X239748615Y-57633682D01*
X239789744Y-57625501D01*
X239908127Y-57576465D01*
X239942491Y-57553504D01*
X240014669Y-57505277D01*
X245096438Y-52423506D01*
X245157759Y-52390023D01*
X245227451Y-52395007D01*
X245283384Y-52436879D01*
X245307693Y-52500949D01*
X245314890Y-52587812D01*
X245314892Y-52587824D01*
X245375936Y-52828881D01*
X245475826Y-53056606D01*
X245611833Y-53264782D01*
X245611836Y-53264785D01*
X245780256Y-53447738D01*
X245976491Y-53600474D01*
X246195190Y-53718828D01*
X246430386Y-53799571D01*
X246675665Y-53840500D01*
X246924335Y-53840500D01*
X247169614Y-53799571D01*
X247404810Y-53718828D01*
X247623509Y-53600474D01*
X247819744Y-53447738D01*
X247988164Y-53264785D01*
X248124173Y-53056607D01*
X248224063Y-52828881D01*
X248285108Y-52587821D01*
X248291965Y-52505067D01*
X248305643Y-52340005D01*
X248305643Y-52339994D01*
X248285109Y-52092187D01*
X248285107Y-52092175D01*
X248224063Y-51851118D01*
X248165995Y-51718739D01*
X248124173Y-51623393D01*
X247993256Y-51423009D01*
X247973070Y-51356122D01*
X247992250Y-51288936D01*
X248037642Y-51246356D01*
X248042323Y-51243798D01*
X248042331Y-51243796D01*
X248157546Y-51157546D01*
X248243796Y-51042331D01*
X248294091Y-50907483D01*
X248300500Y-50847873D01*
X248300499Y-48752128D01*
X248294091Y-48692517D01*
X248278411Y-48650478D01*
X248243797Y-48557671D01*
X248243793Y-48557664D01*
X248157547Y-48442455D01*
X248157544Y-48442452D01*
X248042335Y-48356206D01*
X248042328Y-48356202D01*
X247907482Y-48305908D01*
X247907483Y-48305908D01*
X247847883Y-48299501D01*
X247847881Y-48299500D01*
X247847873Y-48299500D01*
X247847864Y-48299500D01*
X245752129Y-48299500D01*
X245752123Y-48299501D01*
X245692516Y-48305908D01*
X245557671Y-48356202D01*
X245557664Y-48356206D01*
X245442455Y-48442452D01*
X245442452Y-48442455D01*
X245356206Y-48557664D01*
X245356202Y-48557671D01*
X245305908Y-48692517D01*
X245299501Y-48752116D01*
X245299501Y-48752123D01*
X245299500Y-48752135D01*
X245299500Y-50329191D01*
X245279815Y-50396230D01*
X245263181Y-50416872D01*
X239366873Y-56313181D01*
X239305550Y-56346666D01*
X239279192Y-56349500D01*
X230022984Y-56349500D01*
X229955945Y-56329815D01*
X229910190Y-56277011D01*
X229900246Y-56207853D01*
X229921408Y-56154378D01*
X229950568Y-56112734D01*
X230046739Y-55906496D01*
X230105635Y-55686692D01*
X230125468Y-55460000D01*
X230105635Y-55233308D01*
X230046739Y-55013504D01*
X229950568Y-54807266D01*
X229820047Y-54620861D01*
X229820045Y-54620858D01*
X229659141Y-54459954D01*
X229472734Y-54329432D01*
X229472732Y-54329431D01*
X229266497Y-54233261D01*
X229266488Y-54233258D01*
X229046697Y-54174366D01*
X229046693Y-54174365D01*
X229046692Y-54174365D01*
X229046691Y-54174364D01*
X229046686Y-54174364D01*
X228820002Y-54154532D01*
X228819998Y-54154532D01*
X228593313Y-54174364D01*
X228593302Y-54174366D01*
X228373511Y-54233258D01*
X228373502Y-54233261D01*
X228167267Y-54329431D01*
X228167265Y-54329432D01*
X227980858Y-54459954D01*
X227819954Y-54620858D01*
X227689432Y-54807265D01*
X227689431Y-54807267D01*
X227593261Y-55013502D01*
X227593258Y-55013511D01*
X227534366Y-55233302D01*
X227534364Y-55233313D01*
X227514532Y-55459998D01*
X227514532Y-55460001D01*
X227534364Y-55686686D01*
X227534366Y-55686697D01*
X227593258Y-55906488D01*
X227593261Y-55906497D01*
X227689431Y-56112732D01*
X227689432Y-56112734D01*
X227823058Y-56303574D01*
X227821250Y-56304839D01*
X227845470Y-56360153D01*
X227834444Y-56429147D01*
X227810152Y-56463555D01*
X226960527Y-57313181D01*
X226899204Y-57346666D01*
X226872846Y-57349500D01*
X222396683Y-57349500D01*
X222329644Y-57329815D01*
X222295108Y-57296623D01*
X222200045Y-57160858D01*
X222039143Y-56999956D01*
X222014536Y-56982726D01*
X221970912Y-56928149D01*
X221963719Y-56858650D01*
X221995241Y-56796296D01*
X222055471Y-56760882D01*
X222072404Y-56757861D01*
X222107483Y-56754091D01*
X222242331Y-56703796D01*
X222357546Y-56617546D01*
X222443796Y-56502331D01*
X222494091Y-56367483D01*
X222500500Y-56307873D01*
X222500499Y-54612128D01*
X222494091Y-54552517D01*
X222459567Y-54459954D01*
X222443797Y-54417671D01*
X222443793Y-54417664D01*
X222357547Y-54302455D01*
X222357544Y-54302452D01*
X222242335Y-54216206D01*
X222242328Y-54216202D01*
X222107482Y-54165908D01*
X222107483Y-54165908D01*
X222047883Y-54159501D01*
X222047881Y-54159500D01*
X222047873Y-54159500D01*
X222047864Y-54159500D01*
X220352129Y-54159500D01*
X220352123Y-54159501D01*
X220292516Y-54165908D01*
X220157671Y-54216202D01*
X220157664Y-54216206D01*
X220042455Y-54302452D01*
X220042452Y-54302455D01*
X219956206Y-54417664D01*
X219956202Y-54417671D01*
X219905908Y-54552517D01*
X219899501Y-54612116D01*
X219899501Y-54612123D01*
X219899500Y-54612135D01*
X219899500Y-55895257D01*
X219879815Y-55962296D01*
X219863181Y-55982938D01*
X219146635Y-56699485D01*
X219039487Y-56806632D01*
X219039485Y-56806635D01*
X218963719Y-56937863D01*
X218947082Y-56999956D01*
X218924500Y-57084234D01*
X218924500Y-58424234D01*
X218924500Y-58575766D01*
X218924797Y-58576875D01*
X218963719Y-58722136D01*
X218998032Y-58781567D01*
X219039485Y-58853365D01*
X219721635Y-59535515D01*
X219852865Y-59611281D01*
X219981416Y-59645725D01*
X220041076Y-59682090D01*
X220071605Y-59744937D01*
X220063310Y-59814312D01*
X220018825Y-59868190D01*
X219952273Y-59889465D01*
X219949322Y-59889500D01*
X219895929Y-59889500D01*
X219770261Y-59914497D01*
X219770255Y-59914499D01*
X219651874Y-59963534D01*
X219545326Y-60034726D01*
X218848794Y-60731258D01*
X218787471Y-60764743D01*
X218717779Y-60759759D01*
X218661846Y-60717887D01*
X218637429Y-60652423D01*
X218639495Y-60619389D01*
X218650500Y-60564069D01*
X218650500Y-52505067D01*
X218669507Y-52439094D01*
X218725788Y-52349524D01*
X218785368Y-52179254D01*
X218785369Y-52179249D01*
X218805565Y-52000003D01*
X218805565Y-51999996D01*
X218785369Y-51820750D01*
X218785368Y-51820745D01*
X218725787Y-51650473D01*
X218633479Y-51503567D01*
X218614478Y-51436331D01*
X218634845Y-51369496D01*
X218650786Y-51349919D01*
X220005277Y-49995430D01*
X220076465Y-49888888D01*
X220125501Y-49770505D01*
X220132378Y-49735931D01*
X220150500Y-49644830D01*
X220150500Y-49505067D01*
X220169507Y-49439094D01*
X220225788Y-49349524D01*
X220272074Y-49217246D01*
X220285368Y-49179255D01*
X220288489Y-49151555D01*
X220305565Y-49000003D01*
X220305565Y-48999996D01*
X220285369Y-48820750D01*
X220285368Y-48820745D01*
X220261358Y-48752128D01*
X220225789Y-48650478D01*
X220129816Y-48497738D01*
X220002262Y-48370184D01*
X219980010Y-48356202D01*
X219849523Y-48274211D01*
X219679254Y-48214631D01*
X219679249Y-48214630D01*
X219500004Y-48194435D01*
X219499996Y-48194435D01*
X219320750Y-48214630D01*
X219320745Y-48214631D01*
X219150476Y-48274211D01*
X218997737Y-48370184D01*
X218870184Y-48497737D01*
X218774211Y-48650476D01*
X218714631Y-48820745D01*
X218714630Y-48820750D01*
X218694435Y-48999996D01*
X218694435Y-49000003D01*
X218714630Y-49179249D01*
X218714633Y-49179262D01*
X218758089Y-49303448D01*
X218761652Y-49373226D01*
X218728729Y-49432084D01*
X209994724Y-58166089D01*
X209954231Y-58226691D01*
X209954232Y-58226692D01*
X209923534Y-58272635D01*
X209874499Y-58391016D01*
X209874497Y-58391022D01*
X209849500Y-58516689D01*
X209849500Y-69394931D01*
X209830494Y-69460903D01*
X209774211Y-69550477D01*
X209774209Y-69550481D01*
X209714633Y-69720737D01*
X209714630Y-69720750D01*
X209694435Y-69899996D01*
X208900500Y-69899996D01*
X208900499Y-68252128D01*
X208894091Y-68192517D01*
X208881963Y-68160001D01*
X208843797Y-68057671D01*
X208843793Y-68057664D01*
X208757547Y-67942455D01*
X208757544Y-67942452D01*
X208642335Y-67856206D01*
X208642328Y-67856202D01*
X208507482Y-67805908D01*
X208507483Y-67805908D01*
X208447883Y-67799501D01*
X208447881Y-67799500D01*
X208447873Y-67799500D01*
X208447864Y-67799500D01*
X206352129Y-67799500D01*
X206352123Y-67799501D01*
X206292516Y-67805908D01*
X206157671Y-67856202D01*
X206157664Y-67856206D01*
X206042455Y-67942452D01*
X206042452Y-67942455D01*
X205956206Y-68057664D01*
X205956202Y-68057671D01*
X205905908Y-68192517D01*
X205899583Y-68251357D01*
X205899501Y-68252123D01*
X205899500Y-68252135D01*
X205899500Y-70347870D01*
X205899501Y-70347876D01*
X205905908Y-70407483D01*
X205956202Y-70542328D01*
X205956206Y-70542335D01*
X206042452Y-70657544D01*
X206042455Y-70657547D01*
X206157664Y-70743793D01*
X206162361Y-70746358D01*
X206211766Y-70795764D01*
X206226617Y-70864037D01*
X206206742Y-70923011D01*
X206075826Y-71123393D01*
X205975936Y-71351118D01*
X205914892Y-71592175D01*
X205914890Y-71592187D01*
X205894357Y-71839994D01*
X202550500Y-71839994D01*
X202550500Y-56893713D01*
X203449500Y-56893713D01*
X203449500Y-57106287D01*
X203482754Y-57316243D01*
X203544175Y-57505277D01*
X203548444Y-57518414D01*
X203644951Y-57707820D01*
X203769890Y-57879786D01*
X203920213Y-58030109D01*
X204092179Y-58155048D01*
X204092181Y-58155049D01*
X204092184Y-58155051D01*
X204281588Y-58251557D01*
X204483757Y-58317246D01*
X204693713Y-58350500D01*
X204693714Y-58350500D01*
X204906286Y-58350500D01*
X204906287Y-58350500D01*
X205116243Y-58317246D01*
X205318412Y-58251557D01*
X205507816Y-58155051D01*
X205529789Y-58139086D01*
X205679786Y-58030109D01*
X205679788Y-58030106D01*
X205679792Y-58030104D01*
X205830104Y-57879792D01*
X205830106Y-57879788D01*
X205830109Y-57879786D01*
X205955048Y-57707820D01*
X205955047Y-57707820D01*
X205955051Y-57707816D01*
X206051557Y-57518412D01*
X206117246Y-57316243D01*
X206150500Y-57106287D01*
X206150500Y-56893713D01*
X206117246Y-56683757D01*
X206051557Y-56481588D01*
X205955051Y-56292184D01*
X205955049Y-56292181D01*
X205955048Y-56292179D01*
X205830109Y-56120213D01*
X205679786Y-55969890D01*
X205507820Y-55844951D01*
X205318414Y-55748444D01*
X205318413Y-55748443D01*
X205318412Y-55748443D01*
X205116243Y-55682754D01*
X205116241Y-55682753D01*
X205116240Y-55682753D01*
X204954957Y-55657208D01*
X204906287Y-55649500D01*
X204693713Y-55649500D01*
X204645042Y-55657208D01*
X204483760Y-55682753D01*
X204281585Y-55748444D01*
X204092179Y-55844951D01*
X203920213Y-55969890D01*
X203769890Y-56120213D01*
X203644951Y-56292179D01*
X203548444Y-56481585D01*
X203482753Y-56683760D01*
X203468578Y-56773261D01*
X203449500Y-56893713D01*
X202550500Y-56893713D01*
X202550500Y-52339994D01*
X205894357Y-52339994D01*
X205894357Y-52340005D01*
X205914890Y-52587812D01*
X205914892Y-52587824D01*
X205975936Y-52828881D01*
X206075826Y-53056606D01*
X206211833Y-53264782D01*
X206211836Y-53264785D01*
X206380256Y-53447738D01*
X206576491Y-53600474D01*
X206795190Y-53718828D01*
X207030386Y-53799571D01*
X207275665Y-53840500D01*
X207524335Y-53840500D01*
X207769614Y-53799571D01*
X208004810Y-53718828D01*
X208223509Y-53600474D01*
X208419744Y-53447738D01*
X208588164Y-53264785D01*
X208724173Y-53056607D01*
X208824063Y-52828881D01*
X208885108Y-52587821D01*
X208891965Y-52505067D01*
X208905643Y-52340005D01*
X208905643Y-52339994D01*
X208885109Y-52092187D01*
X208885107Y-52092175D01*
X208824063Y-51851118D01*
X208765995Y-51718739D01*
X208724173Y-51623393D01*
X208593256Y-51423009D01*
X208573070Y-51356122D01*
X208592250Y-51288936D01*
X208637642Y-51246356D01*
X208642323Y-51243798D01*
X208642331Y-51243796D01*
X208757546Y-51157546D01*
X208843796Y-51042331D01*
X208894091Y-50907483D01*
X208900500Y-50847873D01*
X208900499Y-48752128D01*
X208894091Y-48692517D01*
X208878411Y-48650478D01*
X208843797Y-48557671D01*
X208843793Y-48557664D01*
X208757547Y-48442455D01*
X208757544Y-48442452D01*
X208642335Y-48356206D01*
X208642328Y-48356202D01*
X208507482Y-48305908D01*
X208507483Y-48305908D01*
X208447883Y-48299501D01*
X208447881Y-48299500D01*
X208447873Y-48299500D01*
X208447864Y-48299500D01*
X206352129Y-48299500D01*
X206352123Y-48299501D01*
X206292516Y-48305908D01*
X206157671Y-48356202D01*
X206157664Y-48356206D01*
X206042455Y-48442452D01*
X206042452Y-48442455D01*
X205956206Y-48557664D01*
X205956202Y-48557671D01*
X205905908Y-48692517D01*
X205899501Y-48752116D01*
X205899501Y-48752123D01*
X205899500Y-48752135D01*
X205899500Y-50847870D01*
X205899501Y-50847876D01*
X205905908Y-50907483D01*
X205956202Y-51042328D01*
X205956206Y-51042335D01*
X206042452Y-51157544D01*
X206042455Y-51157547D01*
X206157664Y-51243793D01*
X206162361Y-51246358D01*
X206211766Y-51295764D01*
X206226617Y-51364037D01*
X206206742Y-51423011D01*
X206075826Y-51623393D01*
X205975936Y-51851118D01*
X205914892Y-52092175D01*
X205914890Y-52092187D01*
X205894357Y-52339994D01*
X202550500Y-52339994D01*
X202550500Y-47793713D01*
X238449500Y-47793713D01*
X238449500Y-48006286D01*
X238482498Y-48214632D01*
X238482754Y-48216243D01*
X238528230Y-48356204D01*
X238548444Y-48418414D01*
X238644951Y-48607820D01*
X238769890Y-48779786D01*
X238920213Y-48930109D01*
X239092179Y-49055048D01*
X239092181Y-49055049D01*
X239092184Y-49055051D01*
X239281588Y-49151557D01*
X239483757Y-49217246D01*
X239693713Y-49250500D01*
X239693714Y-49250500D01*
X239906286Y-49250500D01*
X239906287Y-49250500D01*
X240116243Y-49217246D01*
X240318412Y-49151557D01*
X240507816Y-49055051D01*
X240583588Y-49000000D01*
X240679786Y-48930109D01*
X240679788Y-48930106D01*
X240679792Y-48930104D01*
X240830104Y-48779792D01*
X240830106Y-48779788D01*
X240830109Y-48779786D01*
X240955048Y-48607820D01*
X240955047Y-48607820D01*
X240955051Y-48607816D01*
X241051557Y-48418412D01*
X241117246Y-48216243D01*
X241150500Y-48006287D01*
X241150500Y-47793713D01*
X241117246Y-47583757D01*
X241051557Y-47381588D01*
X240955051Y-47192184D01*
X240955049Y-47192181D01*
X240955048Y-47192179D01*
X240830109Y-47020213D01*
X240679786Y-46869890D01*
X240507820Y-46744951D01*
X240318414Y-46648444D01*
X240318413Y-46648443D01*
X240318412Y-46648443D01*
X240116243Y-46582754D01*
X240116241Y-46582753D01*
X240116240Y-46582753D01*
X239954957Y-46557208D01*
X239906287Y-46549500D01*
X239693713Y-46549500D01*
X239645042Y-46557208D01*
X239483760Y-46582753D01*
X239281585Y-46648444D01*
X239092179Y-46744951D01*
X238920213Y-46869890D01*
X238769890Y-47020213D01*
X238644951Y-47192179D01*
X238548444Y-47381585D01*
X238482753Y-47583760D01*
X238449500Y-47793713D01*
X202550500Y-47793713D01*
X202550500Y-45824500D01*
X202570185Y-45757461D01*
X202622989Y-45711706D01*
X202674500Y-45700500D01*
X251125500Y-45700500D01*
X251192539Y-45720185D01*
G37*
%TD.AperFunction*%
%TD*%
M02*
