%TF.GenerationSoftware,KiCad,Pcbnew,8.0.7*%
%TF.CreationDate,2024-12-21T11:08:24+01:00*%
%TF.ProjectId,circuit,63697263-7569-4742-9e6b-696361645f70,rev?*%
%TF.SameCoordinates,Original*%
%TF.FileFunction,Copper,L2,Bot*%
%TF.FilePolarity,Positive*%
%FSLAX46Y46*%
G04 Gerber Fmt 4.6, Leading zero omitted, Abs format (unit mm)*
G04 Created by KiCad (PCBNEW 8.0.7) date 2024-12-21 11:08:24*
%MOMM*%
%LPD*%
G01*
G04 APERTURE LIST*
%TA.AperFunction,ComponentPad*%
%ADD10R,2.000000X2.000000*%
%TD*%
%TA.AperFunction,ComponentPad*%
%ADD11C,2.000000*%
%TD*%
%TA.AperFunction,ComponentPad*%
%ADD12R,1.600000X1.600000*%
%TD*%
%TA.AperFunction,ComponentPad*%
%ADD13O,1.600000X1.600000*%
%TD*%
%TA.AperFunction,ComponentPad*%
%ADD14C,1.500000*%
%TD*%
%TA.AperFunction,ViaPad*%
%ADD15C,0.600000*%
%TD*%
%TA.AperFunction,Conductor*%
%ADD16C,0.600000*%
%TD*%
%TA.AperFunction,Conductor*%
%ADD17C,0.500000*%
%TD*%
%TA.AperFunction,Conductor*%
%ADD18C,0.150000*%
%TD*%
%TA.AperFunction,Conductor*%
%ADD19C,0.300000*%
%TD*%
%TA.AperFunction,Conductor*%
%ADD20C,0.200000*%
%TD*%
G04 APERTURE END LIST*
D10*
%TO.P,J1.1.3,1,Pin_1*%
%TO.N,/L1*%
X246800000Y-92100000D03*
D11*
%TO.P,J1.1.3,2,Pin_2*%
%TO.N,/R2*%
X246800000Y-94640000D03*
%TD*%
D10*
%TO.P,J1.1.1,1,Pin_1*%
%TO.N,/L1*%
X246800000Y-49800000D03*
D11*
%TO.P,J1.1.1,2,Pin_2*%
%TO.N,/R1*%
X246800000Y-52340000D03*
%TD*%
D10*
%TO.P,J1.1.2,1,Pin_1*%
%TO.N,/L2*%
X207400000Y-49800000D03*
D11*
%TO.P,J1.1.2,2,Pin_2*%
%TO.N,/R1*%
X207400000Y-52340000D03*
%TD*%
D10*
%TO.P,J1.2.2,1,Pin_1*%
%TO.N,/L4*%
X207400000Y-69300000D03*
D11*
%TO.P,J1.2.2,2,Pin_2*%
%TO.N,/R1*%
X207400000Y-71840000D03*
%TD*%
D12*
%TO.P,U1,1,~{RESET}/PC6*%
%TO.N,/RESET*%
X221200000Y-55460000D03*
D13*
%TO.P,U1,2,PD0*%
%TO.N,/L1*%
X221200000Y-58000000D03*
%TO.P,U1,3,PD1*%
%TO.N,/L2*%
X221200000Y-60540000D03*
%TO.P,U1,4,PD2*%
%TO.N,/L3*%
X221200000Y-63080000D03*
%TO.P,U1,5,PD3*%
%TO.N,/L4*%
X221200000Y-65620000D03*
%TO.P,U1,6,PD4*%
%TO.N,/R1*%
X221200000Y-68160000D03*
%TO.P,U1,7,VCC*%
%TO.N,+5V*%
X221200000Y-70700000D03*
%TO.P,U1,8,GND*%
%TO.N,GND*%
X221200000Y-73240000D03*
%TO.P,U1,9,XTAL1/PB6*%
%TO.N,/XTAL1*%
X221200000Y-75780000D03*
%TO.P,U1,10,XTAL2/PB7*%
%TO.N,/XTAL2*%
X221200000Y-78320000D03*
%TO.P,U1,11,PD5*%
%TO.N,/R2*%
X221200000Y-80860000D03*
%TO.P,U1,12,PD6*%
%TO.N,/R3*%
X221200000Y-83400000D03*
%TO.P,U1,13,PD7*%
%TO.N,/R4*%
X221200000Y-85940000D03*
%TO.P,U1,14,PB0*%
%TO.N,unconnected-(U1-PB0-Pad14)*%
X221200000Y-88480000D03*
%TO.P,U1,15,PB1*%
%TO.N,unconnected-(U1-PB1-Pad15)*%
X228820000Y-88480000D03*
%TO.P,U1,16,PB2*%
%TO.N,unconnected-(U1-PB2-Pad16)*%
X228820000Y-85940000D03*
%TO.P,U1,17,PB3*%
%TO.N,/MOSI*%
X228820000Y-83400000D03*
%TO.P,U1,18,PB4*%
%TO.N,/MISO*%
X228820000Y-80860000D03*
%TO.P,U1,19,PB5*%
%TO.N,/SCK*%
X228820000Y-78320000D03*
%TO.P,U1,20,AVCC*%
%TO.N,+5V*%
X228820000Y-75780000D03*
%TO.P,U1,21,AREF*%
%TO.N,unconnected-(U1-AREF-Pad21)*%
X228820000Y-73240000D03*
%TO.P,U1,22,GND*%
%TO.N,GND*%
X228820000Y-70700000D03*
%TO.P,U1,23,PC0*%
%TO.N,unconnected-(U1-PC0-Pad23)*%
X228820000Y-68160000D03*
%TO.P,U1,24,PC1*%
%TO.N,unconnected-(U1-PC1-Pad24)*%
X228820000Y-65620000D03*
%TO.P,U1,25,PC2*%
%TO.N,unconnected-(U1-PC2-Pad25)*%
X228820000Y-63080000D03*
%TO.P,U1,26,PC3*%
%TO.N,unconnected-(U1-PC3-Pad26)*%
X228820000Y-60540000D03*
%TO.P,U1,27,PC4*%
%TO.N,/SDA*%
X228820000Y-58000000D03*
%TO.P,U1,28,PC5*%
%TO.N,/SCL*%
X228820000Y-55460000D03*
%TD*%
D14*
%TO.P,Y1,1,1*%
%TO.N,/XTAL1*%
X217200000Y-78900000D03*
%TO.P,Y1,2,2*%
%TO.N,/XTAL2*%
X217200000Y-83800000D03*
%TD*%
D10*
%TO.P,J1.2.1,1,Pin_1*%
%TO.N,/L3*%
X246900000Y-83300000D03*
D11*
%TO.P,J1.2.1,2,Pin_2*%
%TO.N,/R1*%
X246900000Y-85840000D03*
%TD*%
D10*
%TO.P,J1.1.4,1,Pin_1*%
%TO.N,/L2*%
X207400000Y-92100000D03*
D11*
%TO.P,J1.1.4,2,Pin_2*%
%TO.N,/R2*%
X207400000Y-94640000D03*
%TD*%
D15*
%TO.N,+5V*%
X233350000Y-88200000D03*
X233000000Y-63635000D03*
%TO.N,/RESET*%
X231400000Y-55300000D03*
%TO.N,/L1*%
X215280000Y-95210000D03*
%TO.N,/L2*%
X211350000Y-74700000D03*
%TO.N,/R1*%
X220360000Y-52055000D03*
X214000000Y-64500000D03*
%TO.N,/R2*%
X216955000Y-68410000D03*
X222900000Y-48745000D03*
X219000000Y-93000000D03*
%TO.N,/L4*%
X225400000Y-72300000D03*
%TO.N,GND*%
X213600000Y-80600000D03*
%TD*%
D16*
%TO.N,+5V*%
X233350000Y-80310000D02*
X228820000Y-75780000D01*
X233350000Y-88200000D02*
X233350000Y-80310000D01*
X224931371Y-70700000D02*
X226800000Y-72568629D01*
X221200000Y-70700000D02*
X224931371Y-70700000D01*
X226800000Y-73760000D02*
X228820000Y-75780000D01*
X226800000Y-72568629D02*
X226800000Y-73760000D01*
D17*
%TO.N,/XTAL1*%
X221200000Y-75780000D02*
X218080000Y-78900000D01*
X218080000Y-78900000D02*
X217200000Y-78900000D01*
%TO.N,/XTAL2*%
X217200000Y-82320000D02*
X217200000Y-83800000D01*
X221200000Y-78320000D02*
X217200000Y-82320000D01*
D18*
%TO.N,/RESET*%
X230485000Y-54385000D02*
X231400000Y-55300000D01*
X221200000Y-55460000D02*
X222275000Y-54385000D01*
X222275000Y-54385000D02*
X230485000Y-54385000D01*
X221200000Y-55460000D02*
X221200000Y-56080000D01*
D19*
%TO.N,/L3*%
X225120000Y-67000000D02*
X230600000Y-67000000D01*
X221200000Y-63080000D02*
X225120000Y-67000000D01*
X230600000Y-67000000D02*
X246900000Y-83300000D01*
%TO.N,/L1*%
X247800000Y-81500000D02*
X246000000Y-81500000D01*
X246000000Y-81500000D02*
X236000000Y-71500000D01*
X229573173Y-57000000D02*
X229273173Y-56700000D01*
X237700000Y-57000000D02*
X236000000Y-57000000D01*
X226900000Y-58000000D02*
X221200000Y-58000000D01*
X248500000Y-82200000D02*
X247800000Y-81500000D01*
X236000000Y-71500000D02*
X236000000Y-57000000D01*
X229273173Y-56700000D02*
X228200000Y-56700000D01*
X246800000Y-92100000D02*
X248500000Y-90400000D01*
X246800000Y-92100000D02*
X218390000Y-92100000D01*
X236000000Y-57000000D02*
X229573173Y-57000000D01*
X218390000Y-92100000D02*
X215280000Y-95210000D01*
X248500000Y-90400000D02*
X248500000Y-82200000D01*
X228200000Y-56700000D02*
X226900000Y-58000000D01*
X244900000Y-49800000D02*
X237700000Y-57000000D01*
X246800000Y-49800000D02*
X244900000Y-49800000D01*
%TO.N,/L2*%
X219960000Y-60540000D02*
X221200000Y-60540000D01*
X211350000Y-74700000D02*
X211350000Y-69150000D01*
X211350000Y-69150000D02*
X219960000Y-60540000D01*
%TO.N,/R1*%
X218000000Y-56100000D02*
X218000000Y-60500000D01*
X218000000Y-60500000D02*
X214000000Y-64500000D01*
X220360000Y-53740000D02*
X218000000Y-56100000D01*
X227133654Y-68100000D02*
X221260000Y-68100000D01*
X220360000Y-52055000D02*
X220360000Y-53740000D01*
X221260000Y-68100000D02*
X221200000Y-68160000D01*
X228343654Y-69310000D02*
X227133654Y-68100000D01*
X214000000Y-64500000D02*
X214250000Y-64250000D01*
X246900000Y-85840000D02*
X229833173Y-68773173D01*
X229833173Y-68773173D02*
X229296346Y-69310000D01*
X229296346Y-69310000D02*
X228343654Y-69310000D01*
%TO.N,/R2*%
X220335761Y-48745000D02*
X222900000Y-48745000D01*
X216955000Y-68410000D02*
X212200000Y-73165000D01*
X223000000Y-93000000D02*
X224640000Y-94640000D01*
X212200000Y-73165000D02*
X212200000Y-75100000D01*
X210500000Y-58580761D02*
X220335761Y-48745000D01*
X211800000Y-75500000D02*
X211000000Y-75500000D01*
X211000000Y-75500000D02*
X210500000Y-75000000D01*
X219000000Y-93000000D02*
X223000000Y-93000000D01*
X210500000Y-75000000D02*
X210500000Y-58580761D01*
X212200000Y-75100000D02*
X211800000Y-75500000D01*
X224640000Y-94640000D02*
X246800000Y-94640000D01*
%TO.N,/L4*%
X222400000Y-72300000D02*
X222190000Y-72090000D01*
X222190000Y-72090000D02*
X219590000Y-72090000D01*
X225400000Y-72300000D02*
X222400000Y-72300000D01*
X219025000Y-67795000D02*
X221200000Y-65620000D01*
X219025000Y-71525000D02*
X219025000Y-67795000D01*
X219590000Y-72090000D02*
X219025000Y-71525000D01*
D20*
%TO.N,GND*%
X213840000Y-80600000D02*
X221200000Y-73240000D01*
X213600000Y-80600000D02*
X213840000Y-80600000D01*
%TD*%
%TA.AperFunction,Conductor*%
%TO.N,+5V*%
G36*
X235292539Y-57670185D02*
G01*
X235338294Y-57722989D01*
X235349500Y-57774500D01*
X235349500Y-70530191D01*
X235329815Y-70597230D01*
X235277011Y-70642985D01*
X235207853Y-70652929D01*
X235144297Y-70623904D01*
X235137819Y-70617872D01*
X231014673Y-66494726D01*
X231014669Y-66494723D01*
X230908127Y-66423535D01*
X230789744Y-66374499D01*
X230789738Y-66374497D01*
X230664071Y-66349500D01*
X230664069Y-66349500D01*
X230109413Y-66349500D01*
X230042374Y-66329815D01*
X229996619Y-66277011D01*
X229986675Y-66207853D01*
X229997031Y-66173095D01*
X230004270Y-66157568D01*
X230046739Y-66066496D01*
X230105635Y-65846692D01*
X230125468Y-65620000D01*
X230124999Y-65614645D01*
X230119801Y-65555230D01*
X230105635Y-65393308D01*
X230046739Y-65173504D01*
X229950568Y-64967266D01*
X229820047Y-64780861D01*
X229820045Y-64780858D01*
X229659141Y-64619954D01*
X229472734Y-64489432D01*
X229472728Y-64489429D01*
X229414725Y-64462382D01*
X229362285Y-64416210D01*
X229343133Y-64349017D01*
X229363348Y-64282135D01*
X229414725Y-64237618D01*
X229472734Y-64210568D01*
X229659139Y-64080047D01*
X229820047Y-63919139D01*
X229950568Y-63732734D01*
X230046739Y-63526496D01*
X230105635Y-63306692D01*
X230125468Y-63080000D01*
X230105635Y-62853308D01*
X230046739Y-62633504D01*
X229950568Y-62427266D01*
X229820047Y-62240861D01*
X229820045Y-62240858D01*
X229659141Y-62079954D01*
X229472734Y-61949432D01*
X229472728Y-61949429D01*
X229414725Y-61922382D01*
X229362285Y-61876210D01*
X229343133Y-61809017D01*
X229363348Y-61742135D01*
X229414725Y-61697618D01*
X229472734Y-61670568D01*
X229659139Y-61540047D01*
X229820047Y-61379139D01*
X229950568Y-61192734D01*
X230046739Y-60986496D01*
X230105635Y-60766692D01*
X230125468Y-60540000D01*
X230105635Y-60313308D01*
X230046739Y-60093504D01*
X229950568Y-59887266D01*
X229820047Y-59700861D01*
X229820045Y-59700858D01*
X229659141Y-59539954D01*
X229472734Y-59409432D01*
X229472728Y-59409429D01*
X229414725Y-59382382D01*
X229362285Y-59336210D01*
X229343133Y-59269017D01*
X229363348Y-59202135D01*
X229414725Y-59157618D01*
X229472734Y-59130568D01*
X229659139Y-59000047D01*
X229820047Y-58839139D01*
X229950568Y-58652734D01*
X230046739Y-58446496D01*
X230105635Y-58226692D01*
X230125468Y-58000000D01*
X230106685Y-57785307D01*
X230120452Y-57716807D01*
X230169067Y-57666624D01*
X230230213Y-57650500D01*
X235225500Y-57650500D01*
X235292539Y-57670185D01*
G37*
%TD.AperFunction*%
%TA.AperFunction,Conductor*%
G36*
X251192539Y-45720185D02*
G01*
X251238294Y-45772989D01*
X251249500Y-45824500D01*
X251249500Y-97675500D01*
X251229815Y-97742539D01*
X251177011Y-97788294D01*
X251125500Y-97799500D01*
X202674500Y-97799500D01*
X202607461Y-97779815D01*
X202561706Y-97727011D01*
X202550500Y-97675500D01*
X202550500Y-94639994D01*
X205894357Y-94639994D01*
X205894357Y-94640005D01*
X205914890Y-94887812D01*
X205914892Y-94887824D01*
X205975936Y-95128881D01*
X206075826Y-95356606D01*
X206211833Y-95564782D01*
X206211836Y-95564785D01*
X206380256Y-95747738D01*
X206576491Y-95900474D01*
X206576493Y-95900475D01*
X206789160Y-96015565D01*
X206795190Y-96018828D01*
X207030386Y-96099571D01*
X207275665Y-96140500D01*
X207524335Y-96140500D01*
X207769614Y-96099571D01*
X208004810Y-96018828D01*
X208223509Y-95900474D01*
X208419744Y-95747738D01*
X208588164Y-95564785D01*
X208724173Y-95356607D01*
X208824063Y-95128881D01*
X208885108Y-94887821D01*
X208900030Y-94707738D01*
X208905643Y-94640005D01*
X208905643Y-94639994D01*
X208885109Y-94392187D01*
X208885107Y-94392175D01*
X208824063Y-94151118D01*
X208746420Y-93974112D01*
X208724173Y-93923393D01*
X208593256Y-93723009D01*
X208573070Y-93656122D01*
X208592250Y-93588936D01*
X208637642Y-93546356D01*
X208642323Y-93543798D01*
X208642331Y-93543796D01*
X208757546Y-93457546D01*
X208843796Y-93342331D01*
X208894091Y-93207483D01*
X208900500Y-93147873D01*
X208900499Y-91052128D01*
X208894091Y-90992517D01*
X208843796Y-90857669D01*
X208843795Y-90857668D01*
X208843793Y-90857664D01*
X208757547Y-90742455D01*
X208757544Y-90742452D01*
X208642335Y-90656206D01*
X208642328Y-90656202D01*
X208507482Y-90605908D01*
X208507483Y-90605908D01*
X208447883Y-90599501D01*
X208447881Y-90599500D01*
X208447873Y-90599500D01*
X208447864Y-90599500D01*
X206352129Y-90599500D01*
X206352123Y-90599501D01*
X206292516Y-90605908D01*
X206157671Y-90656202D01*
X206157664Y-90656206D01*
X206042455Y-90742452D01*
X206042452Y-90742455D01*
X205956206Y-90857664D01*
X205956202Y-90857671D01*
X205905908Y-90992517D01*
X205899501Y-91052116D01*
X205899501Y-91052123D01*
X205899500Y-91052135D01*
X205899500Y-93147870D01*
X205899501Y-93147876D01*
X205905908Y-93207483D01*
X205956202Y-93342328D01*
X205956206Y-93342335D01*
X206042452Y-93457544D01*
X206042455Y-93457547D01*
X206157664Y-93543793D01*
X206162361Y-93546358D01*
X206211766Y-93595764D01*
X206226617Y-93664037D01*
X206206742Y-93723011D01*
X206075826Y-93923393D01*
X205975936Y-94151118D01*
X205914892Y-94392175D01*
X205914890Y-94392187D01*
X205894357Y-94639994D01*
X202550500Y-94639994D01*
X202550500Y-85993713D01*
X203449500Y-85993713D01*
X203449500Y-86206286D01*
X203478042Y-86386497D01*
X203482754Y-86416243D01*
X203528361Y-86556607D01*
X203548444Y-86618414D01*
X203644951Y-86807820D01*
X203769890Y-86979786D01*
X203920213Y-87130109D01*
X204092179Y-87255048D01*
X204092181Y-87255049D01*
X204092184Y-87255051D01*
X204281588Y-87351557D01*
X204483757Y-87417246D01*
X204693713Y-87450500D01*
X204693714Y-87450500D01*
X204906286Y-87450500D01*
X204906287Y-87450500D01*
X205116243Y-87417246D01*
X205318412Y-87351557D01*
X205507816Y-87255051D01*
X205557673Y-87218828D01*
X205679786Y-87130109D01*
X205679788Y-87130106D01*
X205679792Y-87130104D01*
X205830104Y-86979792D01*
X205830106Y-86979788D01*
X205830109Y-86979786D01*
X205955048Y-86807820D01*
X205955047Y-86807820D01*
X205955051Y-86807816D01*
X206051557Y-86618412D01*
X206117246Y-86416243D01*
X206150500Y-86206287D01*
X206150500Y-85993713D01*
X206117246Y-85783757D01*
X206051557Y-85581588D01*
X205955051Y-85392184D01*
X205955049Y-85392181D01*
X205955048Y-85392179D01*
X205830109Y-85220213D01*
X205679786Y-85069890D01*
X205507820Y-84944951D01*
X205318414Y-84848444D01*
X205318413Y-84848443D01*
X205318412Y-84848443D01*
X205116243Y-84782754D01*
X205116241Y-84782753D01*
X205116240Y-84782753D01*
X204954957Y-84757208D01*
X204906287Y-84749500D01*
X204693713Y-84749500D01*
X204645042Y-84757208D01*
X204483760Y-84782753D01*
X204281585Y-84848444D01*
X204092179Y-84944951D01*
X203920213Y-85069890D01*
X203769890Y-85220213D01*
X203644951Y-85392179D01*
X203548444Y-85581585D01*
X203482753Y-85783760D01*
X203449500Y-85993713D01*
X202550500Y-85993713D01*
X202550500Y-71839994D01*
X205894357Y-71839994D01*
X205894357Y-71840005D01*
X205914890Y-72087812D01*
X205914892Y-72087824D01*
X205975936Y-72328881D01*
X206075826Y-72556606D01*
X206211833Y-72764782D01*
X206211836Y-72764785D01*
X206380256Y-72947738D01*
X206576491Y-73100474D01*
X206795190Y-73218828D01*
X207030386Y-73299571D01*
X207275665Y-73340500D01*
X207524335Y-73340500D01*
X207769614Y-73299571D01*
X208004810Y-73218828D01*
X208223509Y-73100474D01*
X208419744Y-72947738D01*
X208588164Y-72764785D01*
X208724173Y-72556607D01*
X208824063Y-72328881D01*
X208885108Y-72087821D01*
X208885559Y-72082382D01*
X208905643Y-71840005D01*
X208905643Y-71839994D01*
X208885109Y-71592187D01*
X208885107Y-71592175D01*
X208824063Y-71351118D01*
X208724174Y-71123396D01*
X208724173Y-71123393D01*
X208593256Y-70923009D01*
X208573070Y-70856122D01*
X208592250Y-70788936D01*
X208637642Y-70746356D01*
X208642323Y-70743798D01*
X208642331Y-70743796D01*
X208757546Y-70657546D01*
X208843796Y-70542331D01*
X208894091Y-70407483D01*
X208900500Y-70347873D01*
X208900499Y-68252128D01*
X208894091Y-68192517D01*
X208884642Y-68167184D01*
X208843797Y-68057671D01*
X208843793Y-68057664D01*
X208757547Y-67942455D01*
X208757544Y-67942452D01*
X208642335Y-67856206D01*
X208642328Y-67856202D01*
X208507482Y-67805908D01*
X208507483Y-67805908D01*
X208447883Y-67799501D01*
X208447881Y-67799500D01*
X208447873Y-67799500D01*
X208447864Y-67799500D01*
X206352129Y-67799500D01*
X206352123Y-67799501D01*
X206292516Y-67805908D01*
X206157671Y-67856202D01*
X206157664Y-67856206D01*
X206042455Y-67942452D01*
X206042452Y-67942455D01*
X205956206Y-68057664D01*
X205956202Y-68057671D01*
X205905908Y-68192517D01*
X205899583Y-68251357D01*
X205899501Y-68252123D01*
X205899500Y-68252135D01*
X205899500Y-70347870D01*
X205899501Y-70347876D01*
X205905908Y-70407483D01*
X205956202Y-70542328D01*
X205956206Y-70542335D01*
X206042452Y-70657544D01*
X206042455Y-70657547D01*
X206157664Y-70743793D01*
X206162361Y-70746358D01*
X206211766Y-70795764D01*
X206226617Y-70864037D01*
X206206742Y-70923011D01*
X206075826Y-71123393D01*
X205975936Y-71351118D01*
X205914892Y-71592175D01*
X205914890Y-71592187D01*
X205894357Y-71839994D01*
X202550500Y-71839994D01*
X202550500Y-58516689D01*
X209849500Y-58516689D01*
X209849500Y-75064070D01*
X209863516Y-75134529D01*
X209863516Y-75134531D01*
X209869391Y-75164069D01*
X209874499Y-75189744D01*
X209923535Y-75308127D01*
X209989772Y-75407259D01*
X209994726Y-75414673D01*
X210585326Y-76005273D01*
X210585329Y-76005275D01*
X210585331Y-76005277D01*
X210691873Y-76076465D01*
X210810256Y-76125501D01*
X210810260Y-76125501D01*
X210810261Y-76125502D01*
X210935928Y-76150500D01*
X210935931Y-76150500D01*
X211864071Y-76150500D01*
X211948615Y-76133682D01*
X211989744Y-76125501D01*
X212108127Y-76076465D01*
X212214669Y-76005277D01*
X212705276Y-75514670D01*
X212776465Y-75408127D01*
X212825501Y-75289744D01*
X212828141Y-75276468D01*
X212828142Y-75276468D01*
X212828142Y-75276465D01*
X212850500Y-75164069D01*
X212850500Y-73485807D01*
X212870185Y-73418768D01*
X212886814Y-73398131D01*
X217053224Y-69231720D01*
X217114545Y-69198237D01*
X217127019Y-69196183D01*
X217134255Y-69195368D01*
X217304522Y-69135789D01*
X217457262Y-69039816D01*
X217584816Y-68912262D01*
X217680789Y-68759522D01*
X217740368Y-68589255D01*
X217760565Y-68410000D01*
X217760003Y-68405016D01*
X217740369Y-68230750D01*
X217740368Y-68230745D01*
X217708278Y-68139037D01*
X217680789Y-68060478D01*
X217584816Y-67907738D01*
X217457262Y-67780184D01*
X217304523Y-67684211D01*
X217134254Y-67624631D01*
X217134249Y-67624630D01*
X216955004Y-67604435D01*
X216954996Y-67604435D01*
X216775750Y-67624630D01*
X216775745Y-67624631D01*
X216605476Y-67684211D01*
X216452737Y-67780184D01*
X216325184Y-67907737D01*
X216229210Y-68060478D01*
X216169632Y-68230744D01*
X216169630Y-68230752D01*
X216168815Y-68237988D01*
X216141743Y-68302400D01*
X216133277Y-68311775D01*
X212212181Y-72232872D01*
X212150858Y-72266357D01*
X212081166Y-72261373D01*
X212025233Y-72219501D01*
X212000816Y-72154037D01*
X212000500Y-72145191D01*
X212000500Y-69470807D01*
X212020185Y-69403768D01*
X212036814Y-69383131D01*
X220032698Y-61387246D01*
X220094021Y-61353762D01*
X220163713Y-61358746D01*
X220208060Y-61387247D01*
X220360858Y-61540045D01*
X220360861Y-61540047D01*
X220547266Y-61670568D01*
X220605275Y-61697618D01*
X220657714Y-61743791D01*
X220676866Y-61810984D01*
X220656650Y-61877865D01*
X220605275Y-61922382D01*
X220547267Y-61949431D01*
X220547265Y-61949432D01*
X220360858Y-62079954D01*
X220199954Y-62240858D01*
X220069432Y-62427265D01*
X220069431Y-62427267D01*
X219973261Y-62633502D01*
X219973258Y-62633511D01*
X219914366Y-62853302D01*
X219914364Y-62853313D01*
X219894532Y-63079998D01*
X219894532Y-63080001D01*
X219914364Y-63306686D01*
X219914366Y-63306697D01*
X219973258Y-63526488D01*
X219973261Y-63526497D01*
X220069431Y-63732732D01*
X220069432Y-63732734D01*
X220199954Y-63919141D01*
X220360858Y-64080045D01*
X220360861Y-64080047D01*
X220547266Y-64210568D01*
X220605275Y-64237618D01*
X220657714Y-64283791D01*
X220676866Y-64350984D01*
X220656650Y-64417865D01*
X220605275Y-64462382D01*
X220547267Y-64489431D01*
X220547265Y-64489432D01*
X220360858Y-64619954D01*
X220199954Y-64780858D01*
X220069432Y-64967265D01*
X220069431Y-64967267D01*
X219973261Y-65173502D01*
X219973258Y-65173511D01*
X219914366Y-65393302D01*
X219914364Y-65393313D01*
X219894532Y-65619998D01*
X219894532Y-65620001D01*
X219914364Y-65846686D01*
X219914366Y-65846697D01*
X219925209Y-65887163D01*
X219923546Y-65957013D01*
X219893115Y-66006937D01*
X218519727Y-67380325D01*
X218519721Y-67380332D01*
X218473505Y-67449500D01*
X218473506Y-67449501D01*
X218448534Y-67486874D01*
X218399499Y-67605255D01*
X218399497Y-67605261D01*
X218374500Y-67730928D01*
X218374500Y-71589071D01*
X218391493Y-71674497D01*
X218391493Y-71674498D01*
X218399497Y-71714737D01*
X218399500Y-71714746D01*
X218447474Y-71830567D01*
X218448535Y-71833127D01*
X218511084Y-71926739D01*
X218519726Y-71939673D01*
X219175325Y-72595272D01*
X219175332Y-72595278D01*
X219281863Y-72666459D01*
X219281865Y-72666460D01*
X219281874Y-72666466D01*
X219315568Y-72680422D01*
X219315569Y-72680423D01*
X219400251Y-72715499D01*
X219400256Y-72715501D01*
X219400260Y-72715501D01*
X219400261Y-72715502D01*
X219525928Y-72740500D01*
X219525931Y-72740500D01*
X219654069Y-72740500D01*
X219825863Y-72740500D01*
X219892902Y-72760185D01*
X219938657Y-72812989D01*
X219948601Y-72882147D01*
X219945638Y-72896593D01*
X219914366Y-73013302D01*
X219914364Y-73013313D01*
X219894532Y-73239998D01*
X219894532Y-73240001D01*
X219914364Y-73466686D01*
X219914366Y-73466697D01*
X219940152Y-73562931D01*
X219938489Y-73632781D01*
X219908058Y-73682705D01*
X213818673Y-79772090D01*
X213757350Y-79805575D01*
X213717109Y-79807629D01*
X213600003Y-79794435D01*
X213599996Y-79794435D01*
X213420750Y-79814630D01*
X213420745Y-79814631D01*
X213250476Y-79874211D01*
X213097737Y-79970184D01*
X212970184Y-80097737D01*
X212874211Y-80250476D01*
X212814631Y-80420745D01*
X212814630Y-80420750D01*
X212794435Y-80599996D01*
X212794435Y-80600003D01*
X212814630Y-80779249D01*
X212814631Y-80779254D01*
X212874211Y-80949523D01*
X212960397Y-81086686D01*
X212970184Y-81102262D01*
X213097738Y-81229816D01*
X213188080Y-81286582D01*
X213219760Y-81306488D01*
X213250478Y-81325789D01*
X213420745Y-81385368D01*
X213420750Y-81385369D01*
X213599996Y-81405565D01*
X213600000Y-81405565D01*
X213600004Y-81405565D01*
X213779249Y-81385369D01*
X213779252Y-81385368D01*
X213779255Y-81385368D01*
X213949522Y-81325789D01*
X214102262Y-81229816D01*
X214229816Y-81102262D01*
X214294811Y-80998821D01*
X214312122Y-80977112D01*
X214320520Y-80968716D01*
X214320520Y-80968714D01*
X214330724Y-80958511D01*
X214330728Y-80958506D01*
X215875958Y-79413275D01*
X215937279Y-79379792D01*
X216006971Y-79384776D01*
X216062904Y-79426648D01*
X216076019Y-79448552D01*
X216112898Y-79527639D01*
X216238402Y-79706877D01*
X216393123Y-79861598D01*
X216572361Y-79987102D01*
X216770670Y-80079575D01*
X216982023Y-80136207D01*
X217164926Y-80152208D01*
X217199998Y-80155277D01*
X217200000Y-80155277D01*
X217200002Y-80155277D01*
X217228254Y-80152805D01*
X217417977Y-80136207D01*
X217629330Y-80079575D01*
X217827639Y-79987102D01*
X218006877Y-79861598D01*
X218161598Y-79706877D01*
X218180149Y-79680382D01*
X218234721Y-79636759D01*
X218257524Y-79629890D01*
X218298913Y-79621658D01*
X218435495Y-79565084D01*
X218491536Y-79527639D01*
X218558416Y-79482952D01*
X219692569Y-78348797D01*
X219753890Y-78315314D01*
X219823581Y-78320298D01*
X219879515Y-78362169D01*
X219903776Y-78425673D01*
X219909129Y-78486860D01*
X219895362Y-78555360D01*
X219873282Y-78585348D01*
X216617049Y-81841582D01*
X216604712Y-81860047D01*
X216534913Y-81964508D01*
X216478343Y-82101082D01*
X216478340Y-82101092D01*
X216449500Y-82246079D01*
X216449500Y-82734376D01*
X216429815Y-82801415D01*
X216396625Y-82835950D01*
X216393125Y-82838400D01*
X216238400Y-82993124D01*
X216112900Y-83172357D01*
X216112898Y-83172361D01*
X216020426Y-83370668D01*
X216020422Y-83370677D01*
X215963793Y-83582020D01*
X215963793Y-83582024D01*
X215944723Y-83799997D01*
X215944723Y-83800002D01*
X215963793Y-84017975D01*
X215963793Y-84017979D01*
X216020422Y-84229322D01*
X216020424Y-84229326D01*
X216020425Y-84229330D01*
X216024999Y-84239139D01*
X216112897Y-84427638D01*
X216112898Y-84427639D01*
X216238402Y-84606877D01*
X216393123Y-84761598D01*
X216572361Y-84887102D01*
X216770670Y-84979575D01*
X216982023Y-85036207D01*
X217164926Y-85052208D01*
X217199998Y-85055277D01*
X217200000Y-85055277D01*
X217200002Y-85055277D01*
X217228254Y-85052805D01*
X217417977Y-85036207D01*
X217629330Y-84979575D01*
X217827639Y-84887102D01*
X218006877Y-84761598D01*
X218161598Y-84606877D01*
X218287102Y-84427639D01*
X218379575Y-84229330D01*
X218436207Y-84017977D01*
X218455277Y-83800000D01*
X218436207Y-83582023D01*
X218387434Y-83400000D01*
X218379577Y-83370677D01*
X218379576Y-83370676D01*
X218379575Y-83370670D01*
X218287102Y-83172362D01*
X218287100Y-83172359D01*
X218287099Y-83172357D01*
X218161599Y-82993124D01*
X218121977Y-82953502D01*
X218006877Y-82838402D01*
X218003374Y-82835949D01*
X217959751Y-82781372D01*
X217950500Y-82734376D01*
X217950500Y-82682228D01*
X217970185Y-82615189D01*
X217986814Y-82594552D01*
X219692568Y-80888797D01*
X219753891Y-80855313D01*
X219823583Y-80860297D01*
X219879516Y-80902169D01*
X219903777Y-80965671D01*
X219914364Y-81086687D01*
X219914366Y-81086697D01*
X219973258Y-81306488D01*
X219973261Y-81306497D01*
X220069431Y-81512732D01*
X220069432Y-81512734D01*
X220199954Y-81699141D01*
X220360858Y-81860045D01*
X220360861Y-81860047D01*
X220547266Y-81990568D01*
X220605275Y-82017618D01*
X220657714Y-82063791D01*
X220676866Y-82130984D01*
X220656650Y-82197865D01*
X220605275Y-82242381D01*
X220597340Y-82246082D01*
X220547267Y-82269431D01*
X220547265Y-82269432D01*
X220360858Y-82399954D01*
X220199954Y-82560858D01*
X220069432Y-82747265D01*
X220069431Y-82747267D01*
X219973261Y-82953502D01*
X219973258Y-82953511D01*
X219914366Y-83173302D01*
X219914364Y-83173313D01*
X219894532Y-83399998D01*
X219894532Y-83400001D01*
X219914364Y-83626686D01*
X219914366Y-83626697D01*
X219973258Y-83846488D01*
X219973261Y-83846497D01*
X220069431Y-84052732D01*
X220069432Y-84052734D01*
X220199954Y-84239141D01*
X220360858Y-84400045D01*
X220360861Y-84400047D01*
X220547266Y-84530568D01*
X220605275Y-84557618D01*
X220657714Y-84603791D01*
X220676866Y-84670984D01*
X220656650Y-84737865D01*
X220605275Y-84782382D01*
X220547267Y-84809431D01*
X220547265Y-84809432D01*
X220360858Y-84939954D01*
X220199954Y-85100858D01*
X220069432Y-85287265D01*
X220069431Y-85287267D01*
X219973261Y-85493502D01*
X219973258Y-85493511D01*
X219914366Y-85713302D01*
X219914364Y-85713313D01*
X219894532Y-85939998D01*
X219894532Y-85940001D01*
X219914364Y-86166686D01*
X219914366Y-86166697D01*
X219973258Y-86386488D01*
X219973261Y-86386497D01*
X220069431Y-86592732D01*
X220069432Y-86592734D01*
X220199954Y-86779141D01*
X220360858Y-86940045D01*
X220360861Y-86940047D01*
X220547266Y-87070568D01*
X220605275Y-87097618D01*
X220657714Y-87143791D01*
X220676866Y-87210984D01*
X220656650Y-87277865D01*
X220605275Y-87322382D01*
X220547267Y-87349431D01*
X220547265Y-87349432D01*
X220360858Y-87479954D01*
X220199954Y-87640858D01*
X220069432Y-87827265D01*
X220069431Y-87827267D01*
X219973261Y-88033502D01*
X219973258Y-88033511D01*
X219914366Y-88253302D01*
X219914364Y-88253313D01*
X219894532Y-88479998D01*
X219894532Y-88480001D01*
X219914364Y-88706686D01*
X219914366Y-88706697D01*
X219973258Y-88926488D01*
X219973261Y-88926497D01*
X220069431Y-89132732D01*
X220069432Y-89132734D01*
X220199954Y-89319141D01*
X220360858Y-89480045D01*
X220360861Y-89480047D01*
X220547266Y-89610568D01*
X220753504Y-89706739D01*
X220973308Y-89765635D01*
X221135230Y-89779801D01*
X221199998Y-89785468D01*
X221200000Y-89785468D01*
X221200002Y-89785468D01*
X221256673Y-89780509D01*
X221426692Y-89765635D01*
X221646496Y-89706739D01*
X221852734Y-89610568D01*
X222039139Y-89480047D01*
X222200047Y-89319139D01*
X222330568Y-89132734D01*
X222426739Y-88926496D01*
X222485635Y-88706692D01*
X222505468Y-88480000D01*
X222485635Y-88253308D01*
X222426739Y-88033504D01*
X222330568Y-87827266D01*
X222200047Y-87640861D01*
X222200045Y-87640858D01*
X222039141Y-87479954D01*
X221852734Y-87349432D01*
X221852728Y-87349429D01*
X221794725Y-87322382D01*
X221742285Y-87276210D01*
X221723133Y-87209017D01*
X221743348Y-87142135D01*
X221794725Y-87097618D01*
X221852734Y-87070568D01*
X222039139Y-86940047D01*
X222200047Y-86779139D01*
X222330568Y-86592734D01*
X222426739Y-86386496D01*
X222485635Y-86166692D01*
X222505468Y-85940000D01*
X222485635Y-85713308D01*
X222426739Y-85493504D01*
X222330568Y-85287266D01*
X222200047Y-85100861D01*
X222200045Y-85100858D01*
X222039141Y-84939954D01*
X221852734Y-84809432D01*
X221852728Y-84809429D01*
X221794725Y-84782382D01*
X221742285Y-84736210D01*
X221723133Y-84669017D01*
X221743348Y-84602135D01*
X221794725Y-84557618D01*
X221852734Y-84530568D01*
X222039139Y-84400047D01*
X222200047Y-84239139D01*
X222330568Y-84052734D01*
X222426739Y-83846496D01*
X222485635Y-83626692D01*
X222505468Y-83400000D01*
X222485635Y-83173308D01*
X222426739Y-82953504D01*
X222330568Y-82747266D01*
X222200047Y-82560861D01*
X222200045Y-82560858D01*
X222039141Y-82399954D01*
X221852734Y-82269432D01*
X221852728Y-82269429D01*
X221802660Y-82246082D01*
X221794724Y-82242381D01*
X221742285Y-82196210D01*
X221723133Y-82129017D01*
X221743348Y-82062135D01*
X221794725Y-82017618D01*
X221852734Y-81990568D01*
X222039139Y-81860047D01*
X222200047Y-81699139D01*
X222330568Y-81512734D01*
X222426739Y-81306496D01*
X222485635Y-81086692D01*
X222502634Y-80892384D01*
X222505468Y-80860001D01*
X222505468Y-80859998D01*
X222485635Y-80633313D01*
X222485635Y-80633308D01*
X222426739Y-80413504D01*
X222330568Y-80207266D01*
X222200047Y-80020861D01*
X222200045Y-80020858D01*
X222039141Y-79859954D01*
X221852734Y-79729432D01*
X221852728Y-79729429D01*
X221825038Y-79716517D01*
X221794724Y-79702381D01*
X221742285Y-79656210D01*
X221723133Y-79589017D01*
X221743348Y-79522135D01*
X221794725Y-79477618D01*
X221852734Y-79450568D01*
X222039139Y-79320047D01*
X222200047Y-79159139D01*
X222330568Y-78972734D01*
X222426739Y-78766496D01*
X222485635Y-78546692D01*
X222505468Y-78320000D01*
X222485635Y-78093308D01*
X222426739Y-77873504D01*
X222330568Y-77667266D01*
X222200047Y-77480861D01*
X222200045Y-77480858D01*
X222039141Y-77319954D01*
X221852734Y-77189432D01*
X221852728Y-77189429D01*
X221794725Y-77162382D01*
X221742285Y-77116210D01*
X221723133Y-77049017D01*
X221743348Y-76982135D01*
X221794725Y-76937618D01*
X221795319Y-76937341D01*
X221852734Y-76910568D01*
X222039139Y-76780047D01*
X222200047Y-76619139D01*
X222330568Y-76432734D01*
X222426739Y-76226496D01*
X222485635Y-76006692D01*
X222505468Y-75780000D01*
X222485635Y-75553308D01*
X222426739Y-75333504D01*
X222330568Y-75127266D01*
X222200047Y-74940861D01*
X222200045Y-74940858D01*
X222039141Y-74779954D01*
X221852734Y-74649432D01*
X221852728Y-74649429D01*
X221794725Y-74622382D01*
X221742285Y-74576210D01*
X221723133Y-74509017D01*
X221743348Y-74442135D01*
X221794725Y-74397618D01*
X221852734Y-74370568D01*
X222039139Y-74240047D01*
X222200047Y-74079139D01*
X222330568Y-73892734D01*
X222426739Y-73686496D01*
X222485635Y-73466692D01*
X222505468Y-73240000D01*
X222491934Y-73085307D01*
X222505701Y-73016808D01*
X222554316Y-72966624D01*
X222615462Y-72950500D01*
X224894932Y-72950500D01*
X224960904Y-72969506D01*
X225050477Y-73025789D01*
X225050481Y-73025790D01*
X225220737Y-73085366D01*
X225220743Y-73085367D01*
X225220745Y-73085368D01*
X225220746Y-73085368D01*
X225220750Y-73085369D01*
X225399996Y-73105565D01*
X225400000Y-73105565D01*
X225400004Y-73105565D01*
X225579249Y-73085369D01*
X225579252Y-73085368D01*
X225579255Y-73085368D01*
X225749522Y-73025789D01*
X225902262Y-72929816D01*
X226029816Y-72802262D01*
X226125789Y-72649522D01*
X226185368Y-72479255D01*
X226205565Y-72300000D01*
X226201774Y-72266357D01*
X226185369Y-72120750D01*
X226185368Y-72120745D01*
X226125788Y-71950476D01*
X226052051Y-71833125D01*
X226029816Y-71797738D01*
X225902262Y-71670184D01*
X225839096Y-71630494D01*
X225749523Y-71574211D01*
X225579254Y-71514631D01*
X225579249Y-71514630D01*
X225400004Y-71494435D01*
X225399996Y-71494435D01*
X225220750Y-71514630D01*
X225220737Y-71514633D01*
X225050481Y-71574209D01*
X225050477Y-71574210D01*
X224960904Y-71630494D01*
X224894932Y-71649500D01*
X222720809Y-71649500D01*
X222653770Y-71629815D01*
X222633128Y-71613181D01*
X222604673Y-71584726D01*
X222498125Y-71513533D01*
X222414058Y-71478712D01*
X222359655Y-71434871D01*
X222337590Y-71368577D01*
X222349129Y-71311746D01*
X222426266Y-71146326D01*
X222426269Y-71146317D01*
X222478872Y-70950000D01*
X221515686Y-70950000D01*
X221520080Y-70945606D01*
X221572741Y-70854394D01*
X221600000Y-70752661D01*
X221600000Y-70647339D01*
X221572741Y-70545606D01*
X221520080Y-70454394D01*
X221515686Y-70450000D01*
X222478872Y-70450000D01*
X222478872Y-70449999D01*
X222426269Y-70253682D01*
X222426265Y-70253673D01*
X222330134Y-70047517D01*
X222199657Y-69861179D01*
X222038820Y-69700342D01*
X221852482Y-69569865D01*
X221794133Y-69542657D01*
X221741694Y-69496484D01*
X221722542Y-69429291D01*
X221742758Y-69362410D01*
X221794129Y-69317895D01*
X221852734Y-69290568D01*
X222039139Y-69160047D01*
X222200047Y-68999139D01*
X222330568Y-68812734D01*
X222330573Y-68812722D01*
X222330706Y-68812495D01*
X222330793Y-68812411D01*
X222333673Y-68808299D01*
X222334499Y-68808877D01*
X222381275Y-68764282D01*
X222438090Y-68750500D01*
X226812846Y-68750500D01*
X226879885Y-68770185D01*
X226900527Y-68786819D01*
X227810152Y-69696444D01*
X227843637Y-69757767D01*
X227838653Y-69827459D01*
X227822149Y-69855790D01*
X227823058Y-69856426D01*
X227689432Y-70047265D01*
X227689431Y-70047267D01*
X227593261Y-70253502D01*
X227593258Y-70253511D01*
X227534366Y-70473302D01*
X227534364Y-70473313D01*
X227514532Y-70699998D01*
X227514532Y-70700001D01*
X227534364Y-70926686D01*
X227534366Y-70926697D01*
X227593258Y-71146488D01*
X227593261Y-71146497D01*
X227689431Y-71352732D01*
X227689432Y-71352734D01*
X227819954Y-71539141D01*
X227980858Y-71700045D01*
X228027693Y-71732839D01*
X228167266Y-71830568D01*
X228187504Y-71840005D01*
X228225275Y-71857618D01*
X228277714Y-71903791D01*
X228296866Y-71970984D01*
X228276650Y-72037865D01*
X228225275Y-72082382D01*
X228167267Y-72109431D01*
X228167265Y-72109432D01*
X227980858Y-72239954D01*
X227819954Y-72400858D01*
X227689432Y-72587265D01*
X227689431Y-72587267D01*
X227593261Y-72793502D01*
X227593258Y-72793511D01*
X227534366Y-73013302D01*
X227534364Y-73013313D01*
X227514532Y-73239998D01*
X227514532Y-73240001D01*
X227534364Y-73466686D01*
X227534366Y-73466697D01*
X227593258Y-73686488D01*
X227593261Y-73686497D01*
X227689431Y-73892732D01*
X227689432Y-73892734D01*
X227819954Y-74079141D01*
X227980858Y-74240045D01*
X227980861Y-74240047D01*
X228167266Y-74370568D01*
X228225865Y-74397893D01*
X228278305Y-74444065D01*
X228297457Y-74511258D01*
X228277242Y-74578139D01*
X228225867Y-74622657D01*
X228167515Y-74649867D01*
X227981179Y-74780342D01*
X227820342Y-74941179D01*
X227689865Y-75127517D01*
X227593734Y-75333673D01*
X227593730Y-75333682D01*
X227541127Y-75529999D01*
X227541128Y-75530000D01*
X228504314Y-75530000D01*
X228499920Y-75534394D01*
X228447259Y-75625606D01*
X228420000Y-75727339D01*
X228420000Y-75832661D01*
X228447259Y-75934394D01*
X228499920Y-76025606D01*
X228504314Y-76030000D01*
X227541128Y-76030000D01*
X227593730Y-76226317D01*
X227593734Y-76226326D01*
X227689865Y-76432482D01*
X227820342Y-76618820D01*
X227981179Y-76779657D01*
X228167518Y-76910134D01*
X228167520Y-76910135D01*
X228225865Y-76937342D01*
X228278305Y-76983514D01*
X228297457Y-77050707D01*
X228277242Y-77117589D01*
X228225867Y-77162105D01*
X228167268Y-77189431D01*
X228167264Y-77189433D01*
X227980858Y-77319954D01*
X227819954Y-77480858D01*
X227689432Y-77667265D01*
X227689431Y-77667267D01*
X227593261Y-77873502D01*
X227593258Y-77873511D01*
X227534366Y-78093302D01*
X227534364Y-78093313D01*
X227514532Y-78319998D01*
X227514532Y-78320001D01*
X227534364Y-78546686D01*
X227534366Y-78546697D01*
X227593258Y-78766488D01*
X227593261Y-78766497D01*
X227689431Y-78972732D01*
X227689432Y-78972734D01*
X227819954Y-79159141D01*
X227980858Y-79320045D01*
X227980861Y-79320047D01*
X228167266Y-79450568D01*
X228225275Y-79477618D01*
X228277714Y-79523791D01*
X228296866Y-79590984D01*
X228276650Y-79657865D01*
X228225275Y-79702381D01*
X228208272Y-79710310D01*
X228167267Y-79729431D01*
X228167265Y-79729432D01*
X227980858Y-79859954D01*
X227819954Y-80020858D01*
X227689432Y-80207265D01*
X227689431Y-80207267D01*
X227593261Y-80413502D01*
X227593258Y-80413511D01*
X227534366Y-80633302D01*
X227534364Y-80633313D01*
X227514532Y-80859998D01*
X227514532Y-80860001D01*
X227534364Y-81086686D01*
X227534366Y-81086697D01*
X227593258Y-81306488D01*
X227593261Y-81306497D01*
X227689431Y-81512732D01*
X227689432Y-81512734D01*
X227819954Y-81699141D01*
X227980858Y-81860045D01*
X227980861Y-81860047D01*
X228167266Y-81990568D01*
X228225275Y-82017618D01*
X228277714Y-82063791D01*
X228296866Y-82130984D01*
X228276650Y-82197865D01*
X228225275Y-82242381D01*
X228217340Y-82246082D01*
X228167267Y-82269431D01*
X228167265Y-82269432D01*
X227980858Y-82399954D01*
X227819954Y-82560858D01*
X227689432Y-82747265D01*
X227689431Y-82747267D01*
X227593261Y-82953502D01*
X227593258Y-82953511D01*
X227534366Y-83173302D01*
X227534364Y-83173313D01*
X227514532Y-83399998D01*
X227514532Y-83400001D01*
X227534364Y-83626686D01*
X227534366Y-83626697D01*
X227593258Y-83846488D01*
X227593261Y-83846497D01*
X227689431Y-84052732D01*
X227689432Y-84052734D01*
X227819954Y-84239141D01*
X227980858Y-84400045D01*
X227980861Y-84400047D01*
X228167266Y-84530568D01*
X228225275Y-84557618D01*
X228277714Y-84603791D01*
X228296866Y-84670984D01*
X228276650Y-84737865D01*
X228225275Y-84782382D01*
X228167267Y-84809431D01*
X228167265Y-84809432D01*
X227980858Y-84939954D01*
X227819954Y-85100858D01*
X227689432Y-85287265D01*
X227689431Y-85287267D01*
X227593261Y-85493502D01*
X227593258Y-85493511D01*
X227534366Y-85713302D01*
X227534364Y-85713313D01*
X227514532Y-85939998D01*
X227514532Y-85940001D01*
X227534364Y-86166686D01*
X227534366Y-86166697D01*
X227593258Y-86386488D01*
X227593261Y-86386497D01*
X227689431Y-86592732D01*
X227689432Y-86592734D01*
X227819954Y-86779141D01*
X227980858Y-86940045D01*
X227980861Y-86940047D01*
X228167266Y-87070568D01*
X228225275Y-87097618D01*
X228277714Y-87143791D01*
X228296866Y-87210984D01*
X228276650Y-87277865D01*
X228225275Y-87322382D01*
X228167267Y-87349431D01*
X228167265Y-87349432D01*
X227980858Y-87479954D01*
X227819954Y-87640858D01*
X227689432Y-87827265D01*
X227689431Y-87827267D01*
X227593261Y-88033502D01*
X227593258Y-88033511D01*
X227534366Y-88253302D01*
X227534364Y-88253313D01*
X227514532Y-88479998D01*
X227514532Y-88480001D01*
X227534364Y-88706686D01*
X227534366Y-88706697D01*
X227593258Y-88926488D01*
X227593261Y-88926497D01*
X227689431Y-89132732D01*
X227689432Y-89132734D01*
X227819954Y-89319141D01*
X227980858Y-89480045D01*
X227980861Y-89480047D01*
X228167266Y-89610568D01*
X228373504Y-89706739D01*
X228593308Y-89765635D01*
X228755230Y-89779801D01*
X228819998Y-89785468D01*
X228820000Y-89785468D01*
X228820002Y-89785468D01*
X228876673Y-89780509D01*
X229046692Y-89765635D01*
X229266496Y-89706739D01*
X229472734Y-89610568D01*
X229659139Y-89480047D01*
X229820047Y-89319139D01*
X229950568Y-89132734D01*
X230046739Y-88926496D01*
X230105635Y-88706692D01*
X230125468Y-88480000D01*
X230105635Y-88253308D01*
X230046739Y-88033504D01*
X229950568Y-87827266D01*
X229820047Y-87640861D01*
X229820045Y-87640858D01*
X229659141Y-87479954D01*
X229472734Y-87349432D01*
X229472728Y-87349429D01*
X229414725Y-87322382D01*
X229362285Y-87276210D01*
X229343133Y-87209017D01*
X229363348Y-87142135D01*
X229414725Y-87097618D01*
X229472734Y-87070568D01*
X229659139Y-86940047D01*
X229820047Y-86779139D01*
X229950568Y-86592734D01*
X230046739Y-86386496D01*
X230105635Y-86166692D01*
X230125468Y-85940000D01*
X230105635Y-85713308D01*
X230046739Y-85493504D01*
X229950568Y-85287266D01*
X229820047Y-85100861D01*
X229820045Y-85100858D01*
X229659141Y-84939954D01*
X229472734Y-84809432D01*
X229472728Y-84809429D01*
X229414725Y-84782382D01*
X229362285Y-84736210D01*
X229343133Y-84669017D01*
X229363348Y-84602135D01*
X229414725Y-84557618D01*
X229472734Y-84530568D01*
X229659139Y-84400047D01*
X229820047Y-84239139D01*
X229950568Y-84052734D01*
X230046739Y-83846496D01*
X230105635Y-83626692D01*
X230125468Y-83400000D01*
X230105635Y-83173308D01*
X230046739Y-82953504D01*
X229950568Y-82747266D01*
X229820047Y-82560861D01*
X229820045Y-82560858D01*
X229659141Y-82399954D01*
X229472734Y-82269432D01*
X229472728Y-82269429D01*
X229422660Y-82246082D01*
X229414724Y-82242381D01*
X229362285Y-82196210D01*
X229343133Y-82129017D01*
X229363348Y-82062135D01*
X229414725Y-82017618D01*
X229472734Y-81990568D01*
X229659139Y-81860047D01*
X229820047Y-81699139D01*
X229950568Y-81512734D01*
X230046739Y-81306496D01*
X230105635Y-81086692D01*
X230122634Y-80892384D01*
X230125468Y-80860001D01*
X230125468Y-80859998D01*
X230105635Y-80633313D01*
X230105635Y-80633308D01*
X230046739Y-80413504D01*
X229950568Y-80207266D01*
X229820047Y-80020861D01*
X229820045Y-80020858D01*
X229659141Y-79859954D01*
X229472734Y-79729432D01*
X229472728Y-79729429D01*
X229445038Y-79716517D01*
X229414724Y-79702381D01*
X229362285Y-79656210D01*
X229343133Y-79589017D01*
X229363348Y-79522135D01*
X229414725Y-79477618D01*
X229472734Y-79450568D01*
X229659139Y-79320047D01*
X229820047Y-79159139D01*
X229950568Y-78972734D01*
X230046739Y-78766496D01*
X230105635Y-78546692D01*
X230125468Y-78320000D01*
X230105635Y-78093308D01*
X230046739Y-77873504D01*
X229950568Y-77667266D01*
X229820047Y-77480861D01*
X229820045Y-77480858D01*
X229659141Y-77319954D01*
X229472734Y-77189432D01*
X229472732Y-77189431D01*
X229414725Y-77162382D01*
X229414132Y-77162105D01*
X229361694Y-77115934D01*
X229342542Y-77048740D01*
X229362758Y-76981859D01*
X229414134Y-76937341D01*
X229472484Y-76910132D01*
X229658820Y-76779657D01*
X229819657Y-76618820D01*
X229950134Y-76432482D01*
X230046265Y-76226326D01*
X230046269Y-76226317D01*
X230098872Y-76030000D01*
X229135686Y-76030000D01*
X229140080Y-76025606D01*
X229192741Y-75934394D01*
X229220000Y-75832661D01*
X229220000Y-75727339D01*
X229192741Y-75625606D01*
X229140080Y-75534394D01*
X229135686Y-75530000D01*
X230098872Y-75530000D01*
X230098872Y-75529999D01*
X230046269Y-75333682D01*
X230046265Y-75333673D01*
X229950134Y-75127517D01*
X229819657Y-74941179D01*
X229658820Y-74780342D01*
X229472482Y-74649865D01*
X229414133Y-74622657D01*
X229361694Y-74576484D01*
X229342542Y-74509291D01*
X229362758Y-74442410D01*
X229414129Y-74397895D01*
X229472734Y-74370568D01*
X229659139Y-74240047D01*
X229820047Y-74079139D01*
X229950568Y-73892734D01*
X230046739Y-73686496D01*
X230105635Y-73466692D01*
X230125468Y-73240000D01*
X230105635Y-73013308D01*
X230046739Y-72793504D01*
X229950568Y-72587266D01*
X229820047Y-72400861D01*
X229820045Y-72400858D01*
X229659141Y-72239954D01*
X229472734Y-72109432D01*
X229472728Y-72109429D01*
X229414725Y-72082382D01*
X229362285Y-72036210D01*
X229343133Y-71969017D01*
X229363348Y-71902135D01*
X229414725Y-71857618D01*
X229472734Y-71830568D01*
X229659139Y-71700047D01*
X229820047Y-71539139D01*
X229950568Y-71352734D01*
X230046739Y-71146496D01*
X230105635Y-70926692D01*
X230125468Y-70700000D01*
X230105635Y-70473308D01*
X230046739Y-70253504D01*
X230040909Y-70241003D01*
X230030417Y-70171928D01*
X230058935Y-70108144D01*
X230117410Y-70069903D01*
X230187278Y-70069347D01*
X230240972Y-70100917D01*
X245429195Y-85289140D01*
X245462680Y-85350463D01*
X245461720Y-85407262D01*
X245414892Y-85592178D01*
X245414890Y-85592187D01*
X245394357Y-85839994D01*
X245394357Y-85840005D01*
X245414890Y-86087812D01*
X245414892Y-86087824D01*
X245475936Y-86328881D01*
X245575826Y-86556606D01*
X245711833Y-86764782D01*
X245744245Y-86799991D01*
X245880256Y-86947738D01*
X246076491Y-87100474D01*
X246131252Y-87130109D01*
X246280695Y-87210984D01*
X246295190Y-87218828D01*
X246530386Y-87299571D01*
X246775665Y-87340500D01*
X247024335Y-87340500D01*
X247269614Y-87299571D01*
X247504810Y-87218828D01*
X247666483Y-87131334D01*
X247734811Y-87116740D01*
X247800183Y-87141403D01*
X247841844Y-87197493D01*
X247849500Y-87240390D01*
X247849500Y-90079191D01*
X247829815Y-90146230D01*
X247813181Y-90166872D01*
X247416872Y-90563181D01*
X247355549Y-90596666D01*
X247329191Y-90599500D01*
X245752129Y-90599500D01*
X245752123Y-90599501D01*
X245692516Y-90605908D01*
X245557671Y-90656202D01*
X245557664Y-90656206D01*
X245442455Y-90742452D01*
X245442452Y-90742455D01*
X245356206Y-90857664D01*
X245356202Y-90857671D01*
X245305908Y-90992517D01*
X245299501Y-91052116D01*
X245299501Y-91052123D01*
X245299500Y-91052135D01*
X245299500Y-91325500D01*
X245279815Y-91392539D01*
X245227011Y-91438294D01*
X245175500Y-91449500D01*
X218325929Y-91449500D01*
X218200261Y-91474497D01*
X218200255Y-91474499D01*
X218081875Y-91523533D01*
X218081866Y-91523538D01*
X217975331Y-91594723D01*
X217975327Y-91594726D01*
X215181775Y-94388277D01*
X215120452Y-94421762D01*
X215107988Y-94423815D01*
X215100752Y-94424630D01*
X215100744Y-94424632D01*
X214930478Y-94484210D01*
X214777737Y-94580184D01*
X214650184Y-94707737D01*
X214554211Y-94860476D01*
X214494631Y-95030745D01*
X214494630Y-95030750D01*
X214474435Y-95209996D01*
X214474435Y-95210000D01*
X214494630Y-95389249D01*
X214494631Y-95389254D01*
X214554211Y-95559523D01*
X214650184Y-95712262D01*
X214777738Y-95839816D01*
X214930478Y-95935789D01*
X215100745Y-95995368D01*
X215100750Y-95995369D01*
X215279996Y-96015565D01*
X215280000Y-96015565D01*
X215280004Y-96015565D01*
X215459249Y-95995369D01*
X215459252Y-95995368D01*
X215459255Y-95995368D01*
X215629522Y-95935789D01*
X215782262Y-95839816D01*
X215909816Y-95712262D01*
X216005789Y-95559522D01*
X216065368Y-95389255D01*
X216066182Y-95382025D01*
X216093245Y-95317611D01*
X216101712Y-95308232D01*
X218081767Y-93328176D01*
X218143088Y-93294693D01*
X218212780Y-93299677D01*
X218268713Y-93341549D01*
X218274440Y-93349887D01*
X218370184Y-93502262D01*
X218497738Y-93629816D01*
X218560904Y-93669506D01*
X218646056Y-93723011D01*
X218650478Y-93725789D01*
X218820739Y-93785366D01*
X218820745Y-93785368D01*
X218820750Y-93785369D01*
X218999996Y-93805565D01*
X219000000Y-93805565D01*
X219000004Y-93805565D01*
X219179249Y-93785369D01*
X219179251Y-93785368D01*
X219179255Y-93785368D01*
X219179258Y-93785366D01*
X219179262Y-93785366D01*
X219269377Y-93753832D01*
X219349522Y-93725789D01*
X219439096Y-93669505D01*
X219505068Y-93650500D01*
X222679192Y-93650500D01*
X222746231Y-93670185D01*
X222766873Y-93686819D01*
X224225326Y-95145273D01*
X224225327Y-95145274D01*
X224225330Y-95145276D01*
X224322197Y-95210000D01*
X224331873Y-95216465D01*
X224450256Y-95265501D01*
X224450260Y-95265501D01*
X224450261Y-95265502D01*
X224575928Y-95290500D01*
X224575931Y-95290500D01*
X245366163Y-95290500D01*
X245433202Y-95310185D01*
X245472561Y-95352615D01*
X245473022Y-95352314D01*
X245474785Y-95355012D01*
X245475214Y-95355475D01*
X245475826Y-95356606D01*
X245611833Y-95564782D01*
X245611836Y-95564785D01*
X245780256Y-95747738D01*
X245976491Y-95900474D01*
X245976493Y-95900475D01*
X246189160Y-96015565D01*
X246195190Y-96018828D01*
X246430386Y-96099571D01*
X246675665Y-96140500D01*
X246924335Y-96140500D01*
X247169614Y-96099571D01*
X247404810Y-96018828D01*
X247623509Y-95900474D01*
X247819744Y-95747738D01*
X247988164Y-95564785D01*
X248124173Y-95356607D01*
X248224063Y-95128881D01*
X248285108Y-94887821D01*
X248300030Y-94707738D01*
X248305643Y-94640005D01*
X248305643Y-94639994D01*
X248285109Y-94392187D01*
X248285107Y-94392175D01*
X248224063Y-94151118D01*
X248146420Y-93974112D01*
X248124173Y-93923393D01*
X247993256Y-93723009D01*
X247973070Y-93656122D01*
X247992250Y-93588936D01*
X248037642Y-93546356D01*
X248042323Y-93543798D01*
X248042331Y-93543796D01*
X248157546Y-93457546D01*
X248243796Y-93342331D01*
X248294091Y-93207483D01*
X248300500Y-93147873D01*
X248300499Y-91570807D01*
X248320184Y-91503769D01*
X248336818Y-91483127D01*
X249005272Y-90814674D01*
X249005273Y-90814673D01*
X249005273Y-90814672D01*
X249005277Y-90814669D01*
X249076465Y-90708127D01*
X249125501Y-90589744D01*
X249150500Y-90464069D01*
X249150500Y-82135931D01*
X249150500Y-82135928D01*
X249125502Y-82010261D01*
X249125501Y-82010260D01*
X249125501Y-82010256D01*
X249076465Y-81891873D01*
X249019026Y-81805909D01*
X249005276Y-81785330D01*
X248625511Y-81405565D01*
X248214674Y-80994727D01*
X248214673Y-80994726D01*
X248203094Y-80986989D01*
X248108127Y-80923535D01*
X247989744Y-80874499D01*
X247989738Y-80874497D01*
X247864071Y-80849500D01*
X247864069Y-80849500D01*
X246320808Y-80849500D01*
X246253769Y-80829815D01*
X246233127Y-80813181D01*
X242613659Y-77193713D01*
X247649500Y-77193713D01*
X247649500Y-77406286D01*
X247679511Y-77595771D01*
X247682754Y-77616243D01*
X247746651Y-77812898D01*
X247748444Y-77818414D01*
X247844951Y-78007820D01*
X247969890Y-78179786D01*
X248120213Y-78330109D01*
X248292179Y-78455048D01*
X248292181Y-78455049D01*
X248292184Y-78455051D01*
X248481588Y-78551557D01*
X248683757Y-78617246D01*
X248893713Y-78650500D01*
X248893714Y-78650500D01*
X249106286Y-78650500D01*
X249106287Y-78650500D01*
X249316243Y-78617246D01*
X249518412Y-78551557D01*
X249707816Y-78455051D01*
X249748252Y-78425673D01*
X249879786Y-78330109D01*
X249879788Y-78330106D01*
X249879792Y-78330104D01*
X250030104Y-78179792D01*
X250030106Y-78179788D01*
X250030109Y-78179786D01*
X250155048Y-78007820D01*
X250155047Y-78007820D01*
X250155051Y-78007816D01*
X250251557Y-77818412D01*
X250317246Y-77616243D01*
X250350500Y-77406287D01*
X250350500Y-77193713D01*
X250317246Y-76983757D01*
X250251557Y-76781588D01*
X250155051Y-76592184D01*
X250155049Y-76592181D01*
X250155048Y-76592179D01*
X250030109Y-76420213D01*
X249879786Y-76269890D01*
X249707820Y-76144951D01*
X249518414Y-76048444D01*
X249518413Y-76048443D01*
X249518412Y-76048443D01*
X249316243Y-75982754D01*
X249316241Y-75982753D01*
X249316240Y-75982753D01*
X249154957Y-75957208D01*
X249106287Y-75949500D01*
X248893713Y-75949500D01*
X248845042Y-75957208D01*
X248683760Y-75982753D01*
X248481585Y-76048444D01*
X248292179Y-76144951D01*
X248120213Y-76269890D01*
X247969890Y-76420213D01*
X247844951Y-76592179D01*
X247748444Y-76781585D01*
X247682753Y-76983760D01*
X247649500Y-77193713D01*
X242613659Y-77193713D01*
X236686819Y-71266873D01*
X236653334Y-71205550D01*
X236650500Y-71179192D01*
X236650500Y-57774500D01*
X236670185Y-57707461D01*
X236722989Y-57661706D01*
X236774500Y-57650500D01*
X237764071Y-57650500D01*
X237848615Y-57633682D01*
X237889744Y-57625501D01*
X238008127Y-57576465D01*
X238042491Y-57553504D01*
X238114669Y-57505277D01*
X245087820Y-50532126D01*
X245149143Y-50498641D01*
X245218835Y-50503625D01*
X245274768Y-50545497D01*
X245299185Y-50610961D01*
X245299501Y-50619807D01*
X245299501Y-50847876D01*
X245305908Y-50907483D01*
X245356202Y-51042328D01*
X245356206Y-51042335D01*
X245442452Y-51157544D01*
X245442455Y-51157547D01*
X245557664Y-51243793D01*
X245562361Y-51246358D01*
X245611766Y-51295764D01*
X245626617Y-51364037D01*
X245606742Y-51423011D01*
X245475826Y-51623393D01*
X245375936Y-51851118D01*
X245314892Y-52092175D01*
X245314890Y-52092187D01*
X245294357Y-52339994D01*
X245294357Y-52340005D01*
X245314890Y-52587812D01*
X245314892Y-52587824D01*
X245375936Y-52828881D01*
X245475826Y-53056606D01*
X245611833Y-53264782D01*
X245611836Y-53264785D01*
X245780256Y-53447738D01*
X245976491Y-53600474D01*
X246195190Y-53718828D01*
X246430386Y-53799571D01*
X246675665Y-53840500D01*
X246924335Y-53840500D01*
X247169614Y-53799571D01*
X247404810Y-53718828D01*
X247623509Y-53600474D01*
X247819744Y-53447738D01*
X247988164Y-53264785D01*
X248124173Y-53056607D01*
X248224063Y-52828881D01*
X248285108Y-52587821D01*
X248290368Y-52524343D01*
X248305643Y-52340005D01*
X248305643Y-52339994D01*
X248285109Y-52092187D01*
X248285107Y-52092175D01*
X248224063Y-51851118D01*
X248124174Y-51623396D01*
X248124173Y-51623393D01*
X247993256Y-51423009D01*
X247973070Y-51356122D01*
X247992250Y-51288936D01*
X248037642Y-51246356D01*
X248042323Y-51243798D01*
X248042331Y-51243796D01*
X248157546Y-51157546D01*
X248243796Y-51042331D01*
X248294091Y-50907483D01*
X248300500Y-50847873D01*
X248300499Y-48752128D01*
X248294091Y-48692517D01*
X248243796Y-48557669D01*
X248243795Y-48557668D01*
X248243793Y-48557664D01*
X248157547Y-48442455D01*
X248157544Y-48442452D01*
X248042335Y-48356206D01*
X248042328Y-48356202D01*
X247907482Y-48305908D01*
X247907483Y-48305908D01*
X247847883Y-48299501D01*
X247847881Y-48299500D01*
X247847873Y-48299500D01*
X247847864Y-48299500D01*
X245752129Y-48299500D01*
X245752123Y-48299501D01*
X245692516Y-48305908D01*
X245557671Y-48356202D01*
X245557664Y-48356206D01*
X245442455Y-48442452D01*
X245442452Y-48442455D01*
X245356206Y-48557664D01*
X245356202Y-48557671D01*
X245305908Y-48692517D01*
X245300266Y-48745000D01*
X245299501Y-48752123D01*
X245299500Y-48752135D01*
X245299500Y-49025500D01*
X245279815Y-49092539D01*
X245227011Y-49138294D01*
X245175500Y-49149500D01*
X244835929Y-49149500D01*
X244710261Y-49174497D01*
X244710251Y-49174500D01*
X244661220Y-49194810D01*
X244591881Y-49223530D01*
X244591863Y-49223540D01*
X244485332Y-49294721D01*
X244485325Y-49294727D01*
X237466873Y-56313181D01*
X237405550Y-56346666D01*
X237379192Y-56349500D01*
X231443043Y-56349500D01*
X231400101Y-56336890D01*
X231378351Y-56347640D01*
X231356957Y-56349500D01*
X230022984Y-56349500D01*
X229955945Y-56329815D01*
X229910190Y-56277011D01*
X229900246Y-56207853D01*
X229921408Y-56154378D01*
X229950568Y-56112734D01*
X230046739Y-55906496D01*
X230105635Y-55686692D01*
X230123783Y-55479255D01*
X230125468Y-55460001D01*
X230125468Y-55459998D01*
X230114280Y-55332125D01*
X230105635Y-55233308D01*
X230092308Y-55183573D01*
X230074362Y-55116593D01*
X230076025Y-55046743D01*
X230115188Y-54988881D01*
X230179417Y-54961377D01*
X230194137Y-54960500D01*
X230195258Y-54960500D01*
X230262297Y-54980185D01*
X230282939Y-54996819D01*
X230564808Y-55278688D01*
X230598293Y-55340011D01*
X230600347Y-55352485D01*
X230614630Y-55479249D01*
X230674210Y-55649521D01*
X230727624Y-55734529D01*
X230770184Y-55802262D01*
X230897738Y-55929816D01*
X231050478Y-56025789D01*
X231220745Y-56085368D01*
X231220750Y-56085369D01*
X231370840Y-56102280D01*
X231397366Y-56113426D01*
X231408108Y-56106523D01*
X231429160Y-56102280D01*
X231579249Y-56085369D01*
X231579252Y-56085368D01*
X231579255Y-56085368D01*
X231749522Y-56025789D01*
X231902262Y-55929816D01*
X232029816Y-55802262D01*
X232125789Y-55649522D01*
X232185368Y-55479255D01*
X232185369Y-55479249D01*
X232205565Y-55300003D01*
X232205565Y-55299996D01*
X232185369Y-55120750D01*
X232185368Y-55120745D01*
X232172685Y-55084500D01*
X232125789Y-54950478D01*
X232029816Y-54797738D01*
X231902262Y-54670184D01*
X231749521Y-54574210D01*
X231579249Y-54514630D01*
X231452485Y-54500347D01*
X231388071Y-54473280D01*
X231378688Y-54464808D01*
X230838367Y-53924487D01*
X230838365Y-53924485D01*
X230772750Y-53886602D01*
X230707136Y-53848719D01*
X230633950Y-53829109D01*
X230560766Y-53809500D01*
X222199234Y-53809500D01*
X222052863Y-53848719D01*
X221921635Y-53924485D01*
X221921632Y-53924487D01*
X221722938Y-54123181D01*
X221661615Y-54156666D01*
X221635257Y-54159500D01*
X221075912Y-54159500D01*
X221008873Y-54139815D01*
X220963118Y-54087011D01*
X220953174Y-54017853D01*
X220961351Y-53988047D01*
X220985501Y-53929744D01*
X221003253Y-53840500D01*
X221010500Y-53804069D01*
X221010500Y-52560067D01*
X221029507Y-52494094D01*
X221085788Y-52404524D01*
X221145368Y-52234254D01*
X221145369Y-52234249D01*
X221165565Y-52055003D01*
X221165565Y-52054996D01*
X221145369Y-51875750D01*
X221145368Y-51875745D01*
X221085788Y-51705476D01*
X221034213Y-51623396D01*
X220989816Y-51552738D01*
X220862262Y-51425184D01*
X220858804Y-51423011D01*
X220709523Y-51329211D01*
X220539254Y-51269631D01*
X220539249Y-51269630D01*
X220360004Y-51249435D01*
X220359996Y-51249435D01*
X220180750Y-51269630D01*
X220180745Y-51269631D01*
X220010476Y-51329211D01*
X219857737Y-51425184D01*
X219730184Y-51552737D01*
X219634211Y-51705476D01*
X219574631Y-51875745D01*
X219574630Y-51875750D01*
X219554435Y-52054996D01*
X219554435Y-52055003D01*
X219574630Y-52234249D01*
X219574631Y-52234254D01*
X219634211Y-52404524D01*
X219690493Y-52494094D01*
X219709500Y-52560067D01*
X219709500Y-53419191D01*
X219689815Y-53486230D01*
X219673181Y-53506872D01*
X217494727Y-55685325D01*
X217494724Y-55685328D01*
X217461849Y-55734529D01*
X217461850Y-55734530D01*
X217423534Y-55791874D01*
X217374499Y-55910255D01*
X217374497Y-55910261D01*
X217349500Y-56035928D01*
X217349500Y-60179191D01*
X217329815Y-60246230D01*
X217313181Y-60266872D01*
X213901775Y-63678277D01*
X213840452Y-63711762D01*
X213827988Y-63713815D01*
X213820752Y-63714630D01*
X213820744Y-63714632D01*
X213650478Y-63774210D01*
X213497737Y-63870184D01*
X213370184Y-63997737D01*
X213274211Y-64150476D01*
X213214631Y-64320745D01*
X213214630Y-64320750D01*
X213194435Y-64499996D01*
X213194435Y-64500003D01*
X213214630Y-64679249D01*
X213214631Y-64679254D01*
X213274211Y-64849523D01*
X213348195Y-64967267D01*
X213370184Y-65002262D01*
X213497738Y-65129816D01*
X213650478Y-65225789D01*
X213708664Y-65246149D01*
X213820745Y-65285368D01*
X213820750Y-65285369D01*
X213990822Y-65304531D01*
X214055236Y-65331597D01*
X214094791Y-65389192D01*
X214096929Y-65459029D01*
X214064620Y-65515432D01*
X211362181Y-68217872D01*
X211300858Y-68251357D01*
X211231166Y-68246373D01*
X211175233Y-68204501D01*
X211150816Y-68139037D01*
X211150500Y-68130191D01*
X211150500Y-58901569D01*
X211170185Y-58834530D01*
X211186819Y-58813888D01*
X220568888Y-49431819D01*
X220630211Y-49398334D01*
X220656569Y-49395500D01*
X222394932Y-49395500D01*
X222460904Y-49414506D01*
X222550477Y-49470789D01*
X222550481Y-49470790D01*
X222720737Y-49530366D01*
X222720743Y-49530367D01*
X222720745Y-49530368D01*
X222720746Y-49530368D01*
X222720750Y-49530369D01*
X222899996Y-49550565D01*
X222900000Y-49550565D01*
X222900004Y-49550565D01*
X223079249Y-49530369D01*
X223079252Y-49530368D01*
X223079255Y-49530368D01*
X223249522Y-49470789D01*
X223402262Y-49374816D01*
X223529816Y-49247262D01*
X223625789Y-49094522D01*
X223685368Y-48924255D01*
X223704762Y-48752127D01*
X223705565Y-48745003D01*
X223705565Y-48744996D01*
X223685369Y-48565750D01*
X223685368Y-48565745D01*
X223642227Y-48442455D01*
X223625789Y-48395478D01*
X223601111Y-48356204D01*
X223569508Y-48305908D01*
X223529816Y-48242738D01*
X223402262Y-48115184D01*
X223339096Y-48075494D01*
X223249523Y-48019211D01*
X223079254Y-47959631D01*
X223079249Y-47959630D01*
X222900004Y-47939435D01*
X222899996Y-47939435D01*
X222720750Y-47959630D01*
X222720737Y-47959633D01*
X222550481Y-48019209D01*
X222550477Y-48019210D01*
X222460904Y-48075494D01*
X222394932Y-48094500D01*
X220271690Y-48094500D01*
X220146022Y-48119497D01*
X220146012Y-48119500D01*
X220115102Y-48132303D01*
X220115103Y-48132304D01*
X220027638Y-48168532D01*
X220027624Y-48168540D01*
X219921093Y-48239721D01*
X219921086Y-48239727D01*
X209994724Y-58166089D01*
X209954231Y-58226691D01*
X209954232Y-58226692D01*
X209923534Y-58272635D01*
X209874499Y-58391016D01*
X209874497Y-58391022D01*
X209849500Y-58516689D01*
X202550500Y-58516689D01*
X202550500Y-56893713D01*
X203449500Y-56893713D01*
X203449500Y-57106287D01*
X203482754Y-57316243D01*
X203544175Y-57505277D01*
X203548444Y-57518414D01*
X203644951Y-57707820D01*
X203769890Y-57879786D01*
X203920213Y-58030109D01*
X204092179Y-58155048D01*
X204092181Y-58155049D01*
X204092184Y-58155051D01*
X204281588Y-58251557D01*
X204483757Y-58317246D01*
X204693713Y-58350500D01*
X204693714Y-58350500D01*
X204906286Y-58350500D01*
X204906287Y-58350500D01*
X205116243Y-58317246D01*
X205318412Y-58251557D01*
X205507816Y-58155051D01*
X205529789Y-58139086D01*
X205679786Y-58030109D01*
X205679788Y-58030106D01*
X205679792Y-58030104D01*
X205830104Y-57879792D01*
X205830106Y-57879788D01*
X205830109Y-57879786D01*
X205955048Y-57707820D01*
X205955047Y-57707820D01*
X205955051Y-57707816D01*
X206051557Y-57518412D01*
X206117246Y-57316243D01*
X206150500Y-57106287D01*
X206150500Y-56893713D01*
X206117246Y-56683757D01*
X206051557Y-56481588D01*
X205955051Y-56292184D01*
X205955049Y-56292181D01*
X205955048Y-56292179D01*
X205830109Y-56120213D01*
X205679786Y-55969890D01*
X205507820Y-55844951D01*
X205318414Y-55748444D01*
X205318413Y-55748443D01*
X205318412Y-55748443D01*
X205116243Y-55682754D01*
X205116241Y-55682753D01*
X205116240Y-55682753D01*
X204954957Y-55657208D01*
X204906287Y-55649500D01*
X204693713Y-55649500D01*
X204645042Y-55657208D01*
X204483760Y-55682753D01*
X204281585Y-55748444D01*
X204092179Y-55844951D01*
X203920213Y-55969890D01*
X203769890Y-56120213D01*
X203644951Y-56292179D01*
X203548444Y-56481585D01*
X203482753Y-56683760D01*
X203468578Y-56773261D01*
X203449500Y-56893713D01*
X202550500Y-56893713D01*
X202550500Y-52339994D01*
X205894357Y-52339994D01*
X205894357Y-52340005D01*
X205914890Y-52587812D01*
X205914892Y-52587824D01*
X205975936Y-52828881D01*
X206075826Y-53056606D01*
X206211833Y-53264782D01*
X206211836Y-53264785D01*
X206380256Y-53447738D01*
X206576491Y-53600474D01*
X206795190Y-53718828D01*
X207030386Y-53799571D01*
X207275665Y-53840500D01*
X207524335Y-53840500D01*
X207769614Y-53799571D01*
X208004810Y-53718828D01*
X208223509Y-53600474D01*
X208419744Y-53447738D01*
X208588164Y-53264785D01*
X208724173Y-53056607D01*
X208824063Y-52828881D01*
X208885108Y-52587821D01*
X208890368Y-52524343D01*
X208905643Y-52340005D01*
X208905643Y-52339994D01*
X208885109Y-52092187D01*
X208885107Y-52092175D01*
X208824063Y-51851118D01*
X208724174Y-51623396D01*
X208724173Y-51623393D01*
X208593256Y-51423009D01*
X208573070Y-51356122D01*
X208592250Y-51288936D01*
X208637642Y-51246356D01*
X208642323Y-51243798D01*
X208642331Y-51243796D01*
X208757546Y-51157546D01*
X208843796Y-51042331D01*
X208894091Y-50907483D01*
X208900500Y-50847873D01*
X208900499Y-48752128D01*
X208894091Y-48692517D01*
X208843796Y-48557669D01*
X208843795Y-48557668D01*
X208843793Y-48557664D01*
X208757547Y-48442455D01*
X208757544Y-48442452D01*
X208642335Y-48356206D01*
X208642328Y-48356202D01*
X208507482Y-48305908D01*
X208507483Y-48305908D01*
X208447883Y-48299501D01*
X208447881Y-48299500D01*
X208447873Y-48299500D01*
X208447864Y-48299500D01*
X206352129Y-48299500D01*
X206352123Y-48299501D01*
X206292516Y-48305908D01*
X206157671Y-48356202D01*
X206157664Y-48356206D01*
X206042455Y-48442452D01*
X206042452Y-48442455D01*
X205956206Y-48557664D01*
X205956202Y-48557671D01*
X205905908Y-48692517D01*
X205900266Y-48745000D01*
X205899501Y-48752123D01*
X205899500Y-48752135D01*
X205899500Y-50847870D01*
X205899501Y-50847876D01*
X205905908Y-50907483D01*
X205956202Y-51042328D01*
X205956206Y-51042335D01*
X206042452Y-51157544D01*
X206042455Y-51157547D01*
X206157664Y-51243793D01*
X206162361Y-51246358D01*
X206211766Y-51295764D01*
X206226617Y-51364037D01*
X206206742Y-51423011D01*
X206075826Y-51623393D01*
X205975936Y-51851118D01*
X205914892Y-52092175D01*
X205914890Y-52092187D01*
X205894357Y-52339994D01*
X202550500Y-52339994D01*
X202550500Y-47793713D01*
X238449500Y-47793713D01*
X238449500Y-48006286D01*
X238475198Y-48168540D01*
X238482754Y-48216243D01*
X238540991Y-48395478D01*
X238548444Y-48418414D01*
X238644951Y-48607820D01*
X238769890Y-48779786D01*
X238920213Y-48930109D01*
X239092179Y-49055048D01*
X239092181Y-49055049D01*
X239092184Y-49055051D01*
X239281588Y-49151557D01*
X239483757Y-49217246D01*
X239693713Y-49250500D01*
X239693714Y-49250500D01*
X239906286Y-49250500D01*
X239906287Y-49250500D01*
X240116243Y-49217246D01*
X240318412Y-49151557D01*
X240507816Y-49055051D01*
X240548490Y-49025500D01*
X240679786Y-48930109D01*
X240679788Y-48930106D01*
X240679792Y-48930104D01*
X240830104Y-48779792D01*
X240830106Y-48779788D01*
X240830109Y-48779786D01*
X240955048Y-48607820D01*
X240955047Y-48607820D01*
X240955051Y-48607816D01*
X241051557Y-48418412D01*
X241117246Y-48216243D01*
X241150500Y-48006287D01*
X241150500Y-47793713D01*
X241117246Y-47583757D01*
X241051557Y-47381588D01*
X240955051Y-47192184D01*
X240955049Y-47192181D01*
X240955048Y-47192179D01*
X240830109Y-47020213D01*
X240679786Y-46869890D01*
X240507820Y-46744951D01*
X240318414Y-46648444D01*
X240318413Y-46648443D01*
X240318412Y-46648443D01*
X240116243Y-46582754D01*
X240116241Y-46582753D01*
X240116240Y-46582753D01*
X239954957Y-46557208D01*
X239906287Y-46549500D01*
X239693713Y-46549500D01*
X239645042Y-46557208D01*
X239483760Y-46582753D01*
X239281585Y-46648444D01*
X239092179Y-46744951D01*
X238920213Y-46869890D01*
X238769890Y-47020213D01*
X238644951Y-47192179D01*
X238548444Y-47381585D01*
X238482753Y-47583760D01*
X238449500Y-47793713D01*
X202550500Y-47793713D01*
X202550500Y-45824500D01*
X202570185Y-45757461D01*
X202622989Y-45711706D01*
X202674500Y-45700500D01*
X251125500Y-45700500D01*
X251192539Y-45720185D01*
G37*
%TD.AperFunction*%
%TD*%
M02*
