%TF.GenerationSoftware,KiCad,Pcbnew,8.0.7*%
%TF.CreationDate,2024-12-21T11:08:24+01:00*%
%TF.ProjectId,circuit,63697263-7569-4742-9e6b-696361645f70,rev?*%
%TF.SameCoordinates,Original*%
%TF.FileFunction,Soldermask,Bot*%
%TF.FilePolarity,Negative*%
%FSLAX46Y46*%
G04 Gerber Fmt 4.6, Leading zero omitted, Abs format (unit mm)*
G04 Created by KiCad (PCBNEW 8.0.7) date 2024-12-21 11:08:24*
%MOMM*%
%LPD*%
G01*
G04 APERTURE LIST*
%ADD10R,2.000000X2.000000*%
%ADD11C,2.000000*%
%ADD12C,2.200000*%
%ADD13R,1.600000X1.600000*%
%ADD14O,1.600000X1.600000*%
%ADD15C,1.500000*%
G04 APERTURE END LIST*
D10*
%TO.C,J1.1.3*%
X246800000Y-92100000D03*
D11*
X246800000Y-94640000D03*
%TD*%
D10*
%TO.C,J1.1.1*%
X246800000Y-49800000D03*
D11*
X246800000Y-52340000D03*
%TD*%
D12*
%TO.C,REF\u002A\u002A*%
X249000000Y-77300000D03*
%TD*%
%TO.C,REF\u002A\u002A*%
X204800000Y-57000000D03*
%TD*%
%TO.C,REF\u002A\u002A*%
X204800000Y-86100000D03*
%TD*%
D10*
%TO.C,J1.1.2*%
X207400000Y-49800000D03*
D11*
X207400000Y-52340000D03*
%TD*%
D10*
%TO.C,J1.2.2*%
X207400000Y-69300000D03*
D11*
X207400000Y-71840000D03*
%TD*%
D13*
%TO.C,U1*%
X221200000Y-55460000D03*
D14*
X221200000Y-58000000D03*
X221200000Y-60540000D03*
X221200000Y-63080000D03*
X221200000Y-65620000D03*
X221200000Y-68160000D03*
X221200000Y-70700000D03*
X221200000Y-73240000D03*
X221200000Y-75780000D03*
X221200000Y-78320000D03*
X221200000Y-80860000D03*
X221200000Y-83400000D03*
X221200000Y-85940000D03*
X221200000Y-88480000D03*
X228820000Y-88480000D03*
X228820000Y-85940000D03*
X228820000Y-83400000D03*
X228820000Y-80860000D03*
X228820000Y-78320000D03*
X228820000Y-75780000D03*
X228820000Y-73240000D03*
X228820000Y-70700000D03*
X228820000Y-68160000D03*
X228820000Y-65620000D03*
X228820000Y-63080000D03*
X228820000Y-60540000D03*
X228820000Y-58000000D03*
X228820000Y-55460000D03*
%TD*%
D12*
%TO.C,REF\u002A\u002A*%
X239800000Y-47900000D03*
%TD*%
D15*
%TO.C,Y1*%
X217200000Y-78900000D03*
X217200000Y-83800000D03*
%TD*%
D10*
%TO.C,J1.2.1*%
X246900000Y-83300000D03*
D11*
X246900000Y-85840000D03*
%TD*%
D10*
%TO.C,J1.1.4*%
X207400000Y-92100000D03*
D11*
X207400000Y-94640000D03*
%TD*%
M02*
