%TF.GenerationSoftware,KiCad,Pcbnew,8.0.7*%
%TF.CreationDate,2024-12-21T11:08:24+01:00*%
%TF.ProjectId,circuit,63697263-7569-4742-9e6b-696361645f70,rev?*%
%TF.SameCoordinates,Original*%
%TF.FileFunction,Paste,Top*%
%TF.FilePolarity,Positive*%
%FSLAX46Y46*%
G04 Gerber Fmt 4.6, Leading zero omitted, Abs format (unit mm)*
G04 Created by KiCad (PCBNEW 8.0.7) date 2024-12-21 11:08:24*
%MOMM*%
%LPD*%
G01*
G04 APERTURE LIST*
G04 Aperture macros list*
%AMRoundRect*
0 Rectangle with rounded corners*
0 $1 Rounding radius*
0 $2 $3 $4 $5 $6 $7 $8 $9 X,Y pos of 4 corners*
0 Add a 4 corners polygon primitive as box body*
4,1,4,$2,$3,$4,$5,$6,$7,$8,$9,$2,$3,0*
0 Add four circle primitives for the rounded corners*
1,1,$1+$1,$2,$3*
1,1,$1+$1,$4,$5*
1,1,$1+$1,$6,$7*
1,1,$1+$1,$8,$9*
0 Add four rect primitives between the rounded corners*
20,1,$1+$1,$2,$3,$4,$5,0*
20,1,$1+$1,$4,$5,$6,$7,0*
20,1,$1+$1,$6,$7,$8,$9,0*
20,1,$1+$1,$8,$9,$2,$3,0*%
G04 Aperture macros list end*
%ADD10RoundRect,0.237500X0.237500X-0.300000X0.237500X0.300000X-0.237500X0.300000X-0.237500X-0.300000X0*%
%ADD11R,2.510000X1.000000*%
%ADD12R,1.000000X2.510000*%
%ADD13RoundRect,0.237500X-0.237500X0.300000X-0.237500X-0.300000X0.237500X-0.300000X0.237500X0.300000X0*%
%ADD14R,5.000000X0.760000*%
%ADD15R,4.500000X8.800000*%
%ADD16R,3.150000X1.000000*%
%ADD17R,1.550000X1.300000*%
G04 APERTURE END LIST*
D10*
%TO.C,C2*%
X213600000Y-83925000D03*
X213600000Y-82200000D03*
%TD*%
D11*
%TO.C,J1*%
X213645000Y-55710000D03*
X216955000Y-58250000D03*
X213645000Y-60790000D03*
X216955000Y-63330000D03*
X213645000Y-65870000D03*
X216955000Y-68410000D03*
X213645000Y-70950000D03*
X216955000Y-73490000D03*
%TD*%
D12*
%TO.C,J1.1*%
X215280000Y-52055000D03*
X217820000Y-48745000D03*
X220360000Y-52055000D03*
X222900000Y-48745000D03*
%TD*%
D13*
%TO.C,C1*%
X213600000Y-78875000D03*
X213600000Y-80600000D03*
%TD*%
D14*
%TO.C,J4*%
X232970000Y-67445000D03*
X232970000Y-66175000D03*
X232970000Y-64905000D03*
X232970000Y-63635000D03*
X232970000Y-62365000D03*
X232970000Y-61095000D03*
X232970000Y-59825000D03*
X232970000Y-58555000D03*
D15*
X248900000Y-63000000D03*
%TD*%
D16*
%TO.C,J3*%
X238400000Y-88200000D03*
X233350000Y-88200000D03*
X238400000Y-85660000D03*
X233350000Y-85660000D03*
X238400000Y-83120000D03*
X233350000Y-83120000D03*
%TD*%
D12*
%TO.C,J1.2*%
X227100000Y-52055000D03*
X229640000Y-48745000D03*
X232180000Y-52055000D03*
X234720000Y-48745000D03*
%TD*%
%TO.C,J1.4*%
X227100000Y-95210000D03*
X229640000Y-91900000D03*
X232180000Y-95210000D03*
X234720000Y-91900000D03*
%TD*%
D17*
%TO.C,SW1*%
X234800000Y-73900000D03*
X242750000Y-73900000D03*
X234800000Y-78400000D03*
X242750000Y-78400000D03*
%TD*%
D12*
%TO.C,J1.3*%
X215280000Y-95210000D03*
X217820000Y-91900000D03*
X220360000Y-95210000D03*
X222900000Y-91900000D03*
%TD*%
M02*
