%TF.GenerationSoftware,KiCad,Pcbnew,8.0.4*%
%TF.CreationDate,2024-07-18T22:26:43+02:00*%
%TF.ProjectId,circuit,63697263-7569-4742-9e6b-696361645f70,rev?*%
%TF.SameCoordinates,Original*%
%TF.FileFunction,Copper,L1,Top*%
%TF.FilePolarity,Positive*%
%FSLAX46Y46*%
G04 Gerber Fmt 4.6, Leading zero omitted, Abs format (unit mm)*
G04 Created by KiCad (PCBNEW 8.0.4) date 2024-07-18 22:26:43*
%MOMM*%
%LPD*%
G01*
G04 APERTURE LIST*
G04 Aperture macros list*
%AMRoundRect*
0 Rectangle with rounded corners*
0 $1 Rounding radius*
0 $2 $3 $4 $5 $6 $7 $8 $9 X,Y pos of 4 corners*
0 Add a 4 corners polygon primitive as box body*
4,1,4,$2,$3,$4,$5,$6,$7,$8,$9,$2,$3,0*
0 Add four circle primitives for the rounded corners*
1,1,$1+$1,$2,$3*
1,1,$1+$1,$4,$5*
1,1,$1+$1,$6,$7*
1,1,$1+$1,$8,$9*
0 Add four rect primitives between the rounded corners*
20,1,$1+$1,$2,$3,$4,$5,0*
20,1,$1+$1,$4,$5,$6,$7,0*
20,1,$1+$1,$6,$7,$8,$9,0*
20,1,$1+$1,$8,$9,$2,$3,0*%
G04 Aperture macros list end*
%TA.AperFunction,ComponentPad*%
%ADD10R,2.000000X2.000000*%
%TD*%
%TA.AperFunction,ComponentPad*%
%ADD11C,2.000000*%
%TD*%
%TA.AperFunction,SMDPad,CuDef*%
%ADD12RoundRect,0.237500X0.237500X-0.300000X0.237500X0.300000X-0.237500X0.300000X-0.237500X-0.300000X0*%
%TD*%
%TA.AperFunction,SMDPad,CuDef*%
%ADD13R,2.510000X1.000000*%
%TD*%
%TA.AperFunction,SMDPad,CuDef*%
%ADD14RoundRect,0.237500X-0.237500X0.300000X-0.237500X-0.300000X0.237500X-0.300000X0.237500X0.300000X0*%
%TD*%
%TA.AperFunction,SMDPad,CuDef*%
%ADD15R,4.500000X8.800000*%
%TD*%
%TA.AperFunction,SMDPad,CuDef*%
%ADD16R,5.000000X0.760000*%
%TD*%
%TA.AperFunction,ComponentPad*%
%ADD17R,1.600000X1.600000*%
%TD*%
%TA.AperFunction,ComponentPad*%
%ADD18O,1.600000X1.600000*%
%TD*%
%TA.AperFunction,SMDPad,CuDef*%
%ADD19R,3.150000X1.000000*%
%TD*%
%TA.AperFunction,ComponentPad*%
%ADD20C,1.500000*%
%TD*%
%TA.AperFunction,SMDPad,CuDef*%
%ADD21R,1.000000X2.510000*%
%TD*%
%TA.AperFunction,ViaPad*%
%ADD22C,0.600000*%
%TD*%
%TA.AperFunction,Conductor*%
%ADD23C,0.300000*%
%TD*%
%TA.AperFunction,Conductor*%
%ADD24C,0.150000*%
%TD*%
%TA.AperFunction,Conductor*%
%ADD25C,0.500000*%
%TD*%
G04 APERTURE END LIST*
D10*
%TO.P,J1.1.3,1,Pin_1*%
%TO.N,/L1*%
X246800000Y-92100000D03*
D11*
%TO.P,J1.1.3,2,Pin_2*%
%TO.N,/R2*%
X246800000Y-94640000D03*
%TD*%
D10*
%TO.P,J1.1.1,1,Pin_1*%
%TO.N,/L1*%
X246800000Y-49800000D03*
D11*
%TO.P,J1.1.1,2,Pin_2*%
%TO.N,/R1*%
X246800000Y-52340000D03*
%TD*%
D12*
%TO.P,C2,1*%
%TO.N,/XTAL2*%
X213600000Y-83925000D03*
%TO.P,C2,2*%
%TO.N,GND*%
X213600000Y-82200000D03*
%TD*%
D13*
%TO.P,J1,1,Pin_1*%
%TO.N,/L1*%
X213645000Y-55710000D03*
%TO.P,J1,2,Pin_2*%
%TO.N,/L2*%
X216955000Y-58250000D03*
%TO.P,J1,3,Pin_3*%
%TO.N,/L3*%
X213645000Y-60790000D03*
%TO.P,J1,4,Pin_4*%
%TO.N,/L4*%
X216955000Y-63330000D03*
%TO.P,J1,5,Pin_5*%
%TO.N,/R1*%
X213645000Y-65870000D03*
%TO.P,J1,6,Pin_6*%
%TO.N,/R2*%
X216955000Y-68410000D03*
%TO.P,J1,7,Pin_7*%
%TO.N,/R3*%
X213645000Y-70950000D03*
%TO.P,J1,8,Pin_8*%
%TO.N,/R4*%
X216955000Y-73490000D03*
%TD*%
D10*
%TO.P,J1.1.2,1,Pin_1*%
%TO.N,/L2*%
X207400000Y-49800000D03*
D11*
%TO.P,J1.1.2,2,Pin_2*%
%TO.N,/R1*%
X207400000Y-52340000D03*
%TD*%
D14*
%TO.P,C1,1*%
%TO.N,/XTAL1*%
X213600000Y-78875000D03*
%TO.P,C1,2*%
%TO.N,GND*%
X213600000Y-80600000D03*
%TD*%
D15*
%TO.P,J4,L*%
%TO.N,N/C*%
X248900000Y-63000000D03*
D16*
%TO.P,J4,8*%
%TO.N,/SCL*%
X232970000Y-58555000D03*
%TO.P,J4,7*%
X232970000Y-59825000D03*
%TO.P,J4,6*%
%TO.N,/SDA*%
X232970000Y-61095000D03*
%TO.P,J4,5*%
X232970000Y-62365000D03*
%TO.P,J4,4*%
%TO.N,+5V*%
X232970000Y-63635000D03*
%TO.P,J4,3*%
X232970000Y-64905000D03*
%TO.P,J4,2*%
%TO.N,GND*%
X232970000Y-66175000D03*
%TO.P,J4,1*%
X232970000Y-67445000D03*
%TD*%
D10*
%TO.P,J1.2.2,1,Pin_1*%
%TO.N,/L4*%
X207400000Y-69300000D03*
D11*
%TO.P,J1.2.2,2,Pin_2*%
%TO.N,/R1*%
X207400000Y-71840000D03*
%TD*%
D17*
%TO.P,U1,1,~{RESET}/PC6*%
%TO.N,/RESET*%
X221200000Y-55460000D03*
D18*
%TO.P,U1,2,PD0*%
%TO.N,/L1*%
X221200000Y-58000000D03*
%TO.P,U1,3,PD1*%
%TO.N,/L2*%
X221200000Y-60540000D03*
%TO.P,U1,4,PD2*%
%TO.N,/L3*%
X221200000Y-63080000D03*
%TO.P,U1,5,PD3*%
%TO.N,/L4*%
X221200000Y-65620000D03*
%TO.P,U1,6,PD4*%
%TO.N,/R1*%
X221200000Y-68160000D03*
%TO.P,U1,7,VCC*%
%TO.N,+5V*%
X221200000Y-70700000D03*
%TO.P,U1,8,GND*%
%TO.N,GND*%
X221200000Y-73240000D03*
%TO.P,U1,9,XTAL1/PB6*%
%TO.N,/XTAL1*%
X221200000Y-75780000D03*
%TO.P,U1,10,XTAL2/PB7*%
%TO.N,/XTAL2*%
X221200000Y-78320000D03*
%TO.P,U1,11,PD5*%
%TO.N,/R2*%
X221200000Y-80860000D03*
%TO.P,U1,12,PD6*%
%TO.N,/R3*%
X221200000Y-83400000D03*
%TO.P,U1,13,PD7*%
%TO.N,/R4*%
X221200000Y-85940000D03*
%TO.P,U1,14,PB0*%
%TO.N,unconnected-(U1-PB0-Pad14)*%
X221200000Y-88480000D03*
%TO.P,U1,15,PB1*%
%TO.N,unconnected-(U1-PB1-Pad15)*%
X228820000Y-88480000D03*
%TO.P,U1,16,PB2*%
%TO.N,unconnected-(U1-PB2-Pad16)*%
X228820000Y-85940000D03*
%TO.P,U1,17,PB3*%
%TO.N,/MOSI*%
X228820000Y-83400000D03*
%TO.P,U1,18,PB4*%
%TO.N,/MISO*%
X228820000Y-80860000D03*
%TO.P,U1,19,PB5*%
%TO.N,/SCK*%
X228820000Y-78320000D03*
%TO.P,U1,20,AVCC*%
%TO.N,+5V*%
X228820000Y-75780000D03*
%TO.P,U1,21,AREF*%
%TO.N,unconnected-(U1-AREF-Pad21)*%
X228820000Y-73240000D03*
%TO.P,U1,22,GND*%
%TO.N,GND*%
X228820000Y-70700000D03*
%TO.P,U1,23,PC0*%
%TO.N,unconnected-(U1-PC0-Pad23)*%
X228820000Y-68160000D03*
%TO.P,U1,24,PC1*%
%TO.N,unconnected-(U1-PC1-Pad24)*%
X228820000Y-65620000D03*
%TO.P,U1,25,PC2*%
%TO.N,unconnected-(U1-PC2-Pad25)*%
X228820000Y-63080000D03*
%TO.P,U1,26,PC3*%
%TO.N,unconnected-(U1-PC3-Pad26)*%
X228820000Y-60540000D03*
%TO.P,U1,27,PC4*%
%TO.N,/SDA*%
X228820000Y-58000000D03*
%TO.P,U1,28,PC5*%
%TO.N,/SCL*%
X228820000Y-55460000D03*
%TD*%
D19*
%TO.P,J3,1,MISO*%
%TO.N,/MISO*%
X238400000Y-88200000D03*
%TO.P,J3,2,VCC*%
%TO.N,+5V*%
X233350000Y-88200000D03*
%TO.P,J3,3,SCK*%
%TO.N,/SCK*%
X238400000Y-85660000D03*
%TO.P,J3,4,MOSI*%
%TO.N,/MOSI*%
X233350000Y-85660000D03*
%TO.P,J3,5,~{RST}*%
%TO.N,/RESET*%
X238400000Y-83120000D03*
%TO.P,J3,6,GND*%
%TO.N,GND*%
X233350000Y-83120000D03*
%TD*%
D20*
%TO.P,Y1,1,1*%
%TO.N,/XTAL1*%
X217200000Y-78900000D03*
%TO.P,Y1,2,2*%
%TO.N,/XTAL2*%
X217200000Y-83800000D03*
%TD*%
D10*
%TO.P,J1.2.1,1,Pin_1*%
%TO.N,/L3*%
X246900000Y-83300000D03*
D11*
%TO.P,J1.2.1,2,Pin_2*%
%TO.N,/R1*%
X246900000Y-85840000D03*
%TD*%
D21*
%TO.P,J1.4,1,Pin_1*%
%TO.N,/L3*%
X227100000Y-95210000D03*
%TO.P,J1.4,2,Pin_2*%
%TO.N,/L4*%
X229640000Y-91900000D03*
%TO.P,J1.4,3,Pin_3*%
%TO.N,/R3*%
X232180000Y-95210000D03*
%TO.P,J1.4,4,Pin_4*%
%TO.N,/R4*%
X234720000Y-91900000D03*
%TD*%
D10*
%TO.P,J1.1.4,1,Pin_1*%
%TO.N,/L2*%
X207400000Y-92100000D03*
D11*
%TO.P,J1.1.4,2,Pin_2*%
%TO.N,/R2*%
X207400000Y-94640000D03*
%TD*%
D21*
%TO.P,J1.3,1,Pin_1*%
%TO.N,/L1*%
X215280000Y-95210000D03*
%TO.P,J1.3,2,Pin_2*%
%TO.N,/L2*%
X217820000Y-91900000D03*
%TO.P,J1.3,3,Pin_3*%
%TO.N,/R3*%
X220360000Y-95210000D03*
%TO.P,J1.3,4,Pin_4*%
%TO.N,/R4*%
X222900000Y-91900000D03*
%TD*%
%TO.P,J1.2,1,Pin_1*%
%TO.N,/L3*%
X227100000Y-52055000D03*
%TO.P,J1.2,2,Pin_2*%
%TO.N,/L4*%
X229640000Y-48745000D03*
%TO.P,J1.2,3,Pin_3*%
%TO.N,/R1*%
X232180000Y-52055000D03*
%TO.P,J1.2,4,Pin_4*%
%TO.N,/R2*%
X234720000Y-48745000D03*
%TD*%
%TO.P,J1.1,1,Pin_1*%
%TO.N,/L1*%
X215280000Y-52055000D03*
%TO.P,J1.1,2,Pin_2*%
%TO.N,/L2*%
X217820000Y-48745000D03*
%TO.P,J1.1,3,Pin_3*%
%TO.N,/R1*%
X220360000Y-52055000D03*
%TO.P,J1.1,4,Pin_4*%
%TO.N,/R2*%
X222900000Y-48745000D03*
%TD*%
D22*
%TO.N,/L4*%
X223500000Y-72000000D03*
%TO.N,/R2*%
X219500000Y-49000000D03*
X210500000Y-69900000D03*
%TO.N,/R1*%
X214000000Y-64500000D03*
X218000000Y-52000000D03*
%TO.N,/L2*%
X212500000Y-91000000D03*
%TO.N,GND*%
X233488413Y-81446587D03*
X212000000Y-80000000D03*
X219500000Y-74500000D03*
X233000000Y-73000000D03*
%TO.N,/R2*%
X219000000Y-93000000D03*
%TO.N,/RESET*%
X234750000Y-80250000D03*
%TD*%
D23*
%TO.N,/R2*%
X219000000Y-93175000D02*
X218670000Y-93505000D01*
X219000000Y-93000000D02*
X219000000Y-93175000D01*
X211249189Y-69900000D02*
X212739189Y-68410000D01*
X210500000Y-69900000D02*
X211249189Y-69900000D01*
X212739189Y-68410000D02*
X216955000Y-68410000D01*
%TO.N,/L4*%
X223500000Y-72000000D02*
X223500000Y-85760000D01*
X223500000Y-85760000D02*
X229640000Y-91900000D01*
%TO.N,/L3*%
X236695000Y-93505000D02*
X246900000Y-83300000D01*
X229492106Y-95210000D02*
X231197106Y-93505000D01*
X231197106Y-93505000D02*
X236695000Y-93505000D01*
X227100000Y-95210000D02*
X229492106Y-95210000D01*
%TO.N,/R4*%
X233620000Y-93000000D02*
X234720000Y-91900000D01*
X229995000Y-94000000D02*
X230995000Y-93000000D01*
X230995000Y-93000000D02*
X233620000Y-93000000D01*
X229000000Y-94000000D02*
X229995000Y-94000000D01*
X222900000Y-91900000D02*
X226900000Y-91900000D01*
X226900000Y-91900000D02*
X229000000Y-94000000D01*
%TO.N,/R2*%
X219755000Y-48745000D02*
X222900000Y-48745000D01*
X219500000Y-49000000D02*
X219755000Y-48745000D01*
%TO.N,/R1*%
X214000000Y-65515000D02*
X213645000Y-65870000D01*
X214000000Y-64500000D02*
X214000000Y-65515000D01*
X218000000Y-52000000D02*
X217500000Y-51500000D01*
X220360000Y-52055000D02*
X218055000Y-52055000D01*
X218055000Y-52055000D02*
X218000000Y-52000000D01*
X217500000Y-50450000D02*
X217500000Y-51500000D01*
X217500000Y-50450000D02*
X209290000Y-50450000D01*
%TO.N,/L2*%
X212500000Y-91900000D02*
X212500000Y-91000000D01*
X212500000Y-91900000D02*
X207600000Y-91900000D01*
X217820000Y-91900000D02*
X212500000Y-91900000D01*
D24*
%TO.N,/RESET*%
X237620000Y-83120000D02*
X238400000Y-83120000D01*
X234750000Y-80250000D02*
X237620000Y-83120000D01*
D25*
%TO.N,GND*%
X233488413Y-82981587D02*
X233350000Y-83120000D01*
X233488413Y-81446587D02*
X233488413Y-82981587D01*
X213600000Y-80600000D02*
X213600000Y-82200000D01*
X212000000Y-80600000D02*
X213600000Y-82200000D01*
X212000000Y-80000000D02*
X212000000Y-80600000D01*
X219940000Y-74500000D02*
X219500000Y-74500000D01*
X221200000Y-73240000D02*
X219940000Y-74500000D01*
X232970000Y-67445000D02*
X232970000Y-66175000D01*
X232970000Y-72970000D02*
X232970000Y-67445000D01*
X233000000Y-73000000D02*
X232970000Y-72970000D01*
%TO.N,+5V*%
X221200000Y-70700000D02*
X227370000Y-70700000D01*
X227370000Y-70700000D02*
X227570000Y-70500000D01*
X227570000Y-70500000D02*
X227570000Y-65102233D01*
X227570000Y-74530000D02*
X227570000Y-70500000D01*
X232970000Y-63635000D02*
X232970000Y-64905000D01*
X232235000Y-64370000D02*
X232970000Y-63635000D01*
X227570000Y-65102233D02*
X228302233Y-64370000D01*
X228302233Y-64370000D02*
X232235000Y-64370000D01*
X228820000Y-75780000D02*
X227570000Y-74530000D01*
X227570000Y-77030000D02*
X228820000Y-75780000D01*
X227570000Y-86570000D02*
X227570000Y-77030000D01*
X228230000Y-87230000D02*
X227570000Y-86570000D01*
X232380000Y-87230000D02*
X228230000Y-87230000D01*
X233350000Y-88200000D02*
X232380000Y-87230000D01*
D23*
%TO.N,/R3*%
X216362893Y-93605000D02*
X217967893Y-95210000D01*
X214430000Y-93605000D02*
X216362893Y-93605000D01*
X212045000Y-95990000D02*
X214430000Y-93605000D01*
X206840811Y-95990000D02*
X212045000Y-95990000D01*
X208750000Y-90750000D02*
X206050000Y-90750000D01*
X206050000Y-95199189D02*
X206840811Y-95990000D01*
X210500000Y-89000000D02*
X208750000Y-90750000D01*
X210500000Y-74095000D02*
X210500000Y-89000000D01*
X213645000Y-70950000D02*
X210500000Y-74095000D01*
X217967893Y-95210000D02*
X220360000Y-95210000D01*
X206050000Y-90750000D02*
X206050000Y-95199189D01*
%TO.N,/R2*%
X209540000Y-92500000D02*
X207400000Y-94640000D01*
X218670000Y-93505000D02*
X216970000Y-93505000D01*
X216970000Y-93505000D02*
X215965000Y-92500000D01*
X215965000Y-92500000D02*
X209540000Y-92500000D01*
X221200000Y-81355635D02*
X221200000Y-80860000D01*
X219000000Y-93000000D02*
X219500000Y-92500000D01*
X219500000Y-92500000D02*
X219500000Y-83055635D01*
X219500000Y-83055635D02*
X221200000Y-81355635D01*
%TO.N,/L1*%
X241585000Y-97315000D02*
X246800000Y-92100000D01*
X217385000Y-97315000D02*
X241585000Y-97315000D01*
X215280000Y-95210000D02*
X217385000Y-97315000D01*
%TO.N,/R4*%
X221676346Y-77170000D02*
X220670000Y-77170000D01*
X216990000Y-73490000D02*
X216955000Y-73490000D01*
X223000000Y-78493654D02*
X221676346Y-77170000D01*
X220670000Y-77170000D02*
X216990000Y-73490000D01*
X223000000Y-84140000D02*
X223000000Y-78493654D01*
X221200000Y-85940000D02*
X223000000Y-84140000D01*
%TO.N,/R2*%
X215350000Y-74340000D02*
X215350000Y-70015000D01*
X216510000Y-75500000D02*
X215350000Y-74340000D01*
X215350000Y-70015000D02*
X216955000Y-68410000D01*
X221200000Y-80200000D02*
X216510000Y-75510000D01*
X216510000Y-75510000D02*
X216510000Y-75500000D01*
X221200000Y-80860000D02*
X221200000Y-80200000D01*
%TO.N,/L2*%
X216255000Y-48745000D02*
X217820000Y-48745000D01*
X207400000Y-49800000D02*
X215200000Y-49800000D01*
X215200000Y-49800000D02*
X216255000Y-48745000D01*
%TO.N,/R1*%
X209290000Y-50450000D02*
X207400000Y-52340000D01*
%TO.N,/R2*%
X225145000Y-46500000D02*
X222900000Y-48745000D01*
X232475000Y-46500000D02*
X225145000Y-46500000D01*
X234720000Y-48745000D02*
X232475000Y-46500000D01*
%TO.N,/R1*%
X222045000Y-52055000D02*
X220360000Y-52055000D01*
X227100000Y-47000000D02*
X222045000Y-52055000D01*
X232180000Y-48830000D02*
X230350000Y-47000000D01*
X230350000Y-47000000D02*
X227100000Y-47000000D01*
X232180000Y-52055000D02*
X232180000Y-48830000D01*
%TO.N,/L2*%
X206000000Y-51200000D02*
X207400000Y-49800000D01*
X206000000Y-52849189D02*
X206000000Y-51200000D01*
X216955000Y-58250000D02*
X211400811Y-58250000D01*
X211400811Y-58250000D02*
X206000000Y-52849189D01*
%TO.N,/L4*%
X227670000Y-54983654D02*
X229640000Y-53013654D01*
X229640000Y-53013654D02*
X229640000Y-48745000D01*
X221200000Y-65620000D02*
X227670000Y-59150000D01*
X227670000Y-59150000D02*
X227670000Y-54983654D01*
%TO.N,/L3*%
X227100000Y-57180000D02*
X227100000Y-52055000D01*
X221200000Y-63080000D02*
X227100000Y-57180000D01*
D25*
%TO.N,/XTAL1*%
X213625000Y-78900000D02*
X213600000Y-78875000D01*
X217200000Y-78900000D02*
X213625000Y-78900000D01*
%TO.N,/XTAL2*%
X213725000Y-83800000D02*
X213600000Y-83925000D01*
X217200000Y-83800000D02*
X213725000Y-83800000D01*
D24*
%TO.N,/MOSI*%
X228820000Y-83400000D02*
X231080000Y-85660000D01*
X231080000Y-85660000D02*
X233350000Y-85660000D01*
%TO.N,/RESET*%
X237120000Y-83120000D02*
X238400000Y-83120000D01*
%TO.N,/SCK*%
X237740000Y-85000000D02*
X238400000Y-85660000D01*
X231820000Y-78320000D02*
X236500000Y-83000000D01*
X236500000Y-83000000D02*
X236500000Y-85000000D01*
X228820000Y-78320000D02*
X231820000Y-78320000D01*
X236500000Y-85000000D02*
X237740000Y-85000000D01*
%TO.N,/MISO*%
X236000000Y-86500000D02*
X237700000Y-88200000D01*
X236000000Y-83145000D02*
X236000000Y-86500000D01*
X237700000Y-88200000D02*
X238400000Y-88200000D01*
X228820000Y-80860000D02*
X233715000Y-80860000D01*
X233715000Y-80860000D02*
X236000000Y-83145000D01*
D23*
%TO.N,/L3*%
X220068630Y-63080000D02*
X217778630Y-60790000D01*
X221200000Y-63080000D02*
X220068630Y-63080000D01*
X217778630Y-60790000D02*
X213645000Y-60790000D01*
X221200000Y-63080000D02*
X221200000Y-62800000D01*
%TO.N,/L1*%
X213645000Y-53690000D02*
X215280000Y-52055000D01*
X218910000Y-55710000D02*
X213645000Y-55710000D01*
X213645000Y-55710000D02*
X213645000Y-53690000D01*
X221200000Y-58000000D02*
X218910000Y-55710000D01*
%TO.N,/L2*%
X219245000Y-60540000D02*
X216955000Y-58250000D01*
X221200000Y-60540000D02*
X219245000Y-60540000D01*
%TO.N,/R4*%
X222900000Y-87640000D02*
X222900000Y-91900000D01*
X221200000Y-85940000D02*
X222900000Y-87640000D01*
%TO.N,/R1*%
X216710000Y-65870000D02*
X213645000Y-65870000D01*
X219000000Y-68160000D02*
X216710000Y-65870000D01*
X232180000Y-52055000D02*
X246515000Y-52055000D01*
X213370000Y-65870000D02*
X207400000Y-71840000D01*
X213645000Y-65870000D02*
X213370000Y-65870000D01*
X246515000Y-52055000D02*
X246800000Y-52340000D01*
X221200000Y-68160000D02*
X219000000Y-68160000D01*
%TO.N,/R3*%
X221200000Y-83400000D02*
X220050000Y-84550000D01*
X220360000Y-95210000D02*
X221965000Y-96815000D01*
X220050000Y-84550000D02*
X220050000Y-94900000D01*
X221965000Y-96815000D02*
X230575000Y-96815000D01*
X220050000Y-94900000D02*
X220360000Y-95210000D01*
X230575000Y-96815000D02*
X232180000Y-95210000D01*
%TO.N,/L4*%
X216955000Y-63330000D02*
X213370000Y-63330000D01*
X221200000Y-65620000D02*
X219245000Y-65620000D01*
X213370000Y-63330000D02*
X207400000Y-69300000D01*
X219245000Y-65620000D02*
X216955000Y-63330000D01*
D24*
%TO.N,/SDA*%
X230195000Y-59375000D02*
X230195000Y-60440000D01*
X232970000Y-61095000D02*
X232970000Y-62365000D01*
X230850000Y-61095000D02*
X232970000Y-61095000D01*
X230195000Y-60440000D02*
X230850000Y-61095000D01*
X228820000Y-58000000D02*
X230195000Y-59375000D01*
%TO.N,/SCL*%
X231915000Y-58555000D02*
X232970000Y-58555000D01*
X232970000Y-58555000D02*
X232970000Y-59825000D01*
X228820000Y-55460000D02*
X231915000Y-58555000D01*
D23*
%TO.N,/L2*%
X207600000Y-91900000D02*
X207400000Y-92100000D01*
%TD*%
%TA.AperFunction,Conductor*%
%TO.N,+5V*%
G36*
X251192539Y-45720185D02*
G01*
X251238294Y-45772989D01*
X251249500Y-45824500D01*
X251249500Y-57975500D01*
X251229815Y-58042539D01*
X251177011Y-58088294D01*
X251125500Y-58099500D01*
X246602129Y-58099500D01*
X246602123Y-58099501D01*
X246542516Y-58105908D01*
X246407671Y-58156202D01*
X246407664Y-58156206D01*
X246292455Y-58242452D01*
X246292452Y-58242455D01*
X246206206Y-58357664D01*
X246206202Y-58357671D01*
X246155908Y-58492517D01*
X246149501Y-58552116D01*
X246149500Y-58552135D01*
X246149500Y-67447870D01*
X246149501Y-67447876D01*
X246155908Y-67507483D01*
X246206202Y-67642328D01*
X246206206Y-67642335D01*
X246292452Y-67757544D01*
X246292455Y-67757547D01*
X246407664Y-67843793D01*
X246407671Y-67843797D01*
X246542517Y-67894091D01*
X246542516Y-67894091D01*
X246549444Y-67894835D01*
X246602127Y-67900500D01*
X251125500Y-67900499D01*
X251192539Y-67920184D01*
X251238294Y-67972988D01*
X251249500Y-68024499D01*
X251249500Y-97675500D01*
X251229815Y-97742539D01*
X251177011Y-97788294D01*
X251125500Y-97799500D01*
X242319808Y-97799500D01*
X242252769Y-97779815D01*
X242207014Y-97727011D01*
X242197070Y-97657853D01*
X242226095Y-97594297D01*
X242232127Y-97587819D01*
X242926785Y-96893161D01*
X245096438Y-94723506D01*
X245157759Y-94690023D01*
X245227451Y-94695007D01*
X245283384Y-94736879D01*
X245307693Y-94800949D01*
X245314890Y-94887812D01*
X245314892Y-94887824D01*
X245375936Y-95128881D01*
X245475826Y-95356606D01*
X245611833Y-95564782D01*
X245611836Y-95564785D01*
X245780256Y-95747738D01*
X245976491Y-95900474D01*
X246195190Y-96018828D01*
X246430386Y-96099571D01*
X246675665Y-96140500D01*
X246924335Y-96140500D01*
X247169614Y-96099571D01*
X247404810Y-96018828D01*
X247623509Y-95900474D01*
X247819744Y-95747738D01*
X247988164Y-95564785D01*
X248124173Y-95356607D01*
X248224063Y-95128881D01*
X248285108Y-94887821D01*
X248285166Y-94887126D01*
X248305643Y-94640005D01*
X248305643Y-94639994D01*
X248285109Y-94392187D01*
X248285107Y-94392175D01*
X248224063Y-94151118D01*
X248140448Y-93960497D01*
X248124173Y-93923393D01*
X247993256Y-93723009D01*
X247973070Y-93656122D01*
X247992250Y-93588936D01*
X248037642Y-93546356D01*
X248042323Y-93543798D01*
X248042331Y-93543796D01*
X248157546Y-93457546D01*
X248243796Y-93342331D01*
X248294091Y-93207483D01*
X248300500Y-93147873D01*
X248300499Y-91052128D01*
X248294091Y-90992517D01*
X248243796Y-90857669D01*
X248243795Y-90857668D01*
X248243793Y-90857664D01*
X248157547Y-90742455D01*
X248157544Y-90742452D01*
X248042335Y-90656206D01*
X248042328Y-90656202D01*
X247907482Y-90605908D01*
X247907483Y-90605908D01*
X247847883Y-90599501D01*
X247847881Y-90599500D01*
X247847873Y-90599500D01*
X247847864Y-90599500D01*
X245752129Y-90599500D01*
X245752123Y-90599501D01*
X245692516Y-90605908D01*
X245557671Y-90656202D01*
X245557664Y-90656206D01*
X245442455Y-90742452D01*
X245442452Y-90742455D01*
X245356206Y-90857664D01*
X245356202Y-90857671D01*
X245305908Y-90992517D01*
X245301038Y-91037819D01*
X245299501Y-91052123D01*
X245299500Y-91052135D01*
X245299500Y-92629191D01*
X245279815Y-92696230D01*
X245263181Y-92716872D01*
X241351873Y-96628181D01*
X241290550Y-96661666D01*
X241264192Y-96664500D01*
X233302244Y-96664500D01*
X233235205Y-96644815D01*
X233189450Y-96592011D01*
X233178954Y-96527247D01*
X233180500Y-96512873D01*
X233180499Y-94279499D01*
X233200184Y-94212461D01*
X233252987Y-94166706D01*
X233304499Y-94155500D01*
X236759071Y-94155500D01*
X236849850Y-94137442D01*
X236884744Y-94130501D01*
X237003127Y-94081465D01*
X237029161Y-94064070D01*
X237029162Y-94064070D01*
X237094451Y-94020445D01*
X237109669Y-94010277D01*
X245196438Y-85923506D01*
X245257759Y-85890023D01*
X245327451Y-85895007D01*
X245383384Y-85936879D01*
X245407693Y-86000949D01*
X245414890Y-86087812D01*
X245414892Y-86087824D01*
X245475936Y-86328881D01*
X245575826Y-86556606D01*
X245711833Y-86764782D01*
X245744245Y-86799991D01*
X245880256Y-86947738D01*
X246076491Y-87100474D01*
X246131252Y-87130109D01*
X246280695Y-87210984D01*
X246295190Y-87218828D01*
X246530386Y-87299571D01*
X246775665Y-87340500D01*
X247024335Y-87340500D01*
X247269614Y-87299571D01*
X247504810Y-87218828D01*
X247723509Y-87100474D01*
X247919744Y-86947738D01*
X248088164Y-86764785D01*
X248224173Y-86556607D01*
X248324063Y-86328881D01*
X248385108Y-86087821D01*
X248391278Y-86013365D01*
X248405643Y-85840005D01*
X248405643Y-85839994D01*
X248385109Y-85592187D01*
X248385107Y-85592175D01*
X248324063Y-85351118D01*
X248224174Y-85123396D01*
X248224173Y-85123393D01*
X248093256Y-84923009D01*
X248073070Y-84856122D01*
X248092250Y-84788936D01*
X248137642Y-84746356D01*
X248142323Y-84743798D01*
X248142331Y-84743796D01*
X248257546Y-84657546D01*
X248343796Y-84542331D01*
X248394091Y-84407483D01*
X248400500Y-84347873D01*
X248400499Y-82252128D01*
X248394091Y-82192517D01*
X248388007Y-82176206D01*
X248343797Y-82057671D01*
X248343793Y-82057664D01*
X248257547Y-81942455D01*
X248257544Y-81942452D01*
X248142335Y-81856206D01*
X248142328Y-81856202D01*
X248007482Y-81805908D01*
X248007483Y-81805908D01*
X247947883Y-81799501D01*
X247947881Y-81799500D01*
X247947873Y-81799500D01*
X247947864Y-81799500D01*
X245852129Y-81799500D01*
X245852123Y-81799501D01*
X245792516Y-81805908D01*
X245657671Y-81856202D01*
X245657664Y-81856206D01*
X245542455Y-81942452D01*
X245542452Y-81942455D01*
X245456206Y-82057664D01*
X245456202Y-82057671D01*
X245405908Y-82192517D01*
X245399777Y-82249549D01*
X245399501Y-82252123D01*
X245399500Y-82252135D01*
X245399500Y-83829191D01*
X245379815Y-83896230D01*
X245363181Y-83916872D01*
X240687180Y-88592872D01*
X240625857Y-88626357D01*
X240556165Y-88621373D01*
X240500232Y-88579501D01*
X240475815Y-88514037D01*
X240475499Y-88505212D01*
X240475499Y-87652128D01*
X240469091Y-87592517D01*
X240427107Y-87479953D01*
X240418797Y-87457671D01*
X240418793Y-87457664D01*
X240332547Y-87342455D01*
X240332544Y-87342452D01*
X240217335Y-87256206D01*
X240217328Y-87256202D01*
X240082482Y-87205908D01*
X240082483Y-87205908D01*
X240022883Y-87199501D01*
X240022881Y-87199500D01*
X240022873Y-87199500D01*
X240022865Y-87199500D01*
X237564742Y-87199500D01*
X237497703Y-87179815D01*
X237477061Y-87163181D01*
X237186060Y-86872180D01*
X237152575Y-86810857D01*
X237157559Y-86741165D01*
X237199431Y-86685232D01*
X237264895Y-86660815D01*
X237273741Y-86660499D01*
X240022871Y-86660499D01*
X240022872Y-86660499D01*
X240082483Y-86654091D01*
X240217331Y-86603796D01*
X240332546Y-86517546D01*
X240418796Y-86402331D01*
X240469091Y-86267483D01*
X240475500Y-86207873D01*
X240475499Y-85112128D01*
X240469091Y-85052517D01*
X240463007Y-85036206D01*
X240418797Y-84917671D01*
X240418793Y-84917664D01*
X240332547Y-84802455D01*
X240332544Y-84802452D01*
X240217335Y-84716206D01*
X240217328Y-84716202D01*
X240082482Y-84665908D01*
X240082483Y-84665908D01*
X240022883Y-84659501D01*
X240022881Y-84659500D01*
X240022873Y-84659500D01*
X240022865Y-84659500D01*
X238264742Y-84659500D01*
X238197703Y-84639815D01*
X238177061Y-84623181D01*
X238093367Y-84539487D01*
X238093365Y-84539485D01*
X238027750Y-84501602D01*
X237962136Y-84463719D01*
X237888950Y-84444109D01*
X237815766Y-84424500D01*
X237815765Y-84424500D01*
X237199500Y-84424500D01*
X237132461Y-84404815D01*
X237086706Y-84352011D01*
X237075500Y-84300500D01*
X237075500Y-84244499D01*
X237095185Y-84177460D01*
X237147989Y-84131705D01*
X237199500Y-84120499D01*
X240022871Y-84120499D01*
X240022872Y-84120499D01*
X240082483Y-84114091D01*
X240217331Y-84063796D01*
X240332546Y-83977546D01*
X240418796Y-83862331D01*
X240469091Y-83727483D01*
X240475500Y-83667873D01*
X240475499Y-82572128D01*
X240469091Y-82512517D01*
X240463912Y-82498632D01*
X240418797Y-82377671D01*
X240418793Y-82377664D01*
X240332547Y-82262455D01*
X240332544Y-82262452D01*
X240217335Y-82176206D01*
X240217328Y-82176202D01*
X240082482Y-82125908D01*
X240082483Y-82125908D01*
X240022883Y-82119501D01*
X240022881Y-82119500D01*
X240022873Y-82119500D01*
X240022865Y-82119500D01*
X237484742Y-82119500D01*
X237417703Y-82099815D01*
X237397061Y-82083181D01*
X235585190Y-80271310D01*
X235551705Y-80209987D01*
X235549651Y-80197512D01*
X235535369Y-80070750D01*
X235535368Y-80070745D01*
X235504925Y-79983745D01*
X235475789Y-79900478D01*
X235450325Y-79859953D01*
X235402415Y-79783704D01*
X235379816Y-79747738D01*
X235252262Y-79620184D01*
X235205791Y-79590984D01*
X235099523Y-79524211D01*
X234929254Y-79464631D01*
X234929249Y-79464630D01*
X234750004Y-79444435D01*
X234749996Y-79444435D01*
X234570750Y-79464630D01*
X234570745Y-79464631D01*
X234400476Y-79524211D01*
X234247737Y-79620184D01*
X234247736Y-79620185D01*
X234178580Y-79689340D01*
X234117256Y-79722825D01*
X234047565Y-79717839D01*
X234003219Y-79689339D01*
X232173367Y-77859487D01*
X232173365Y-77859485D01*
X232092678Y-77812900D01*
X232042136Y-77783719D01*
X231968950Y-77764109D01*
X231895766Y-77744500D01*
X231895765Y-77744500D01*
X230065579Y-77744500D01*
X229998540Y-77724815D01*
X229953197Y-77672904D01*
X229950568Y-77667266D01*
X229845465Y-77517162D01*
X229820045Y-77480858D01*
X229659141Y-77319954D01*
X229478848Y-77193713D01*
X247649500Y-77193713D01*
X247649500Y-77406286D01*
X247672323Y-77550388D01*
X247682754Y-77616243D01*
X247746651Y-77812898D01*
X247748444Y-77818414D01*
X247844951Y-78007820D01*
X247969890Y-78179786D01*
X248120213Y-78330109D01*
X248292179Y-78455048D01*
X248292181Y-78455049D01*
X248292184Y-78455051D01*
X248481588Y-78551557D01*
X248683757Y-78617246D01*
X248893713Y-78650500D01*
X248893714Y-78650500D01*
X249106286Y-78650500D01*
X249106287Y-78650500D01*
X249316243Y-78617246D01*
X249518412Y-78551557D01*
X249707816Y-78455051D01*
X249749526Y-78424747D01*
X249879786Y-78330109D01*
X249879788Y-78330106D01*
X249879792Y-78330104D01*
X250030104Y-78179792D01*
X250030106Y-78179788D01*
X250030109Y-78179786D01*
X250155048Y-78007820D01*
X250155047Y-78007820D01*
X250155051Y-78007816D01*
X250251557Y-77818412D01*
X250317246Y-77616243D01*
X250350500Y-77406287D01*
X250350500Y-77193713D01*
X250317246Y-76983757D01*
X250251557Y-76781588D01*
X250155051Y-76592184D01*
X250155049Y-76592181D01*
X250155048Y-76592179D01*
X250030109Y-76420213D01*
X249879786Y-76269890D01*
X249707820Y-76144951D01*
X249518414Y-76048444D01*
X249518413Y-76048443D01*
X249518412Y-76048443D01*
X249316243Y-75982754D01*
X249316241Y-75982753D01*
X249316240Y-75982753D01*
X249154957Y-75957208D01*
X249106287Y-75949500D01*
X248893713Y-75949500D01*
X248845042Y-75957208D01*
X248683760Y-75982753D01*
X248481585Y-76048444D01*
X248292179Y-76144951D01*
X248120213Y-76269890D01*
X247969890Y-76420213D01*
X247844951Y-76592179D01*
X247748444Y-76781585D01*
X247682753Y-76983760D01*
X247649500Y-77193713D01*
X229478848Y-77193713D01*
X229472734Y-77189432D01*
X229472732Y-77189431D01*
X229461275Y-77184088D01*
X229414132Y-77162105D01*
X229361694Y-77115934D01*
X229342542Y-77048740D01*
X229362758Y-76981859D01*
X229414134Y-76937341D01*
X229472484Y-76910132D01*
X229658820Y-76779657D01*
X229819657Y-76618820D01*
X229950134Y-76432482D01*
X230046265Y-76226326D01*
X230046269Y-76226317D01*
X230098872Y-76030000D01*
X229135686Y-76030000D01*
X229140080Y-76025606D01*
X229192741Y-75934394D01*
X229220000Y-75832661D01*
X229220000Y-75727339D01*
X229192741Y-75625606D01*
X229140080Y-75534394D01*
X229135686Y-75530000D01*
X230098872Y-75530000D01*
X230098872Y-75529999D01*
X230046269Y-75333682D01*
X230046265Y-75333673D01*
X229950134Y-75127517D01*
X229819657Y-74941179D01*
X229658820Y-74780342D01*
X229472482Y-74649865D01*
X229414133Y-74622657D01*
X229361694Y-74576484D01*
X229342542Y-74509291D01*
X229362758Y-74442410D01*
X229414129Y-74397895D01*
X229472734Y-74370568D01*
X229659139Y-74240047D01*
X229820047Y-74079139D01*
X229950568Y-73892734D01*
X230046739Y-73686496D01*
X230105635Y-73466692D01*
X230125468Y-73240000D01*
X230120153Y-73179255D01*
X230105635Y-73013313D01*
X230105635Y-73013308D01*
X230052132Y-72813631D01*
X230046741Y-72793511D01*
X230046738Y-72793502D01*
X230033347Y-72764785D01*
X229950568Y-72587266D01*
X229820047Y-72400861D01*
X229820045Y-72400858D01*
X229659141Y-72239954D01*
X229472734Y-72109432D01*
X229472728Y-72109429D01*
X229414725Y-72082382D01*
X229362285Y-72036210D01*
X229343133Y-71969017D01*
X229363348Y-71902135D01*
X229414725Y-71857618D01*
X229415319Y-71857341D01*
X229472734Y-71830568D01*
X229659139Y-71700047D01*
X229820047Y-71539139D01*
X229950568Y-71352734D01*
X230046739Y-71146496D01*
X230105635Y-70926692D01*
X230125468Y-70700000D01*
X230105635Y-70473308D01*
X230046739Y-70253504D01*
X229950568Y-70047266D01*
X229820047Y-69860861D01*
X229820045Y-69860858D01*
X229659141Y-69699954D01*
X229472734Y-69569432D01*
X229472728Y-69569429D01*
X229414725Y-69542382D01*
X229362285Y-69496210D01*
X229343133Y-69429017D01*
X229363348Y-69362135D01*
X229414725Y-69317618D01*
X229472734Y-69290568D01*
X229659139Y-69160047D01*
X229820047Y-68999139D01*
X229950568Y-68812734D01*
X230046739Y-68606496D01*
X230105635Y-68386692D01*
X230105635Y-68386684D01*
X230106574Y-68381364D01*
X230108802Y-68381756D01*
X230130721Y-68325702D01*
X230187306Y-68284715D01*
X230257068Y-68280827D01*
X230272127Y-68285377D01*
X230362517Y-68319091D01*
X230422127Y-68325500D01*
X232095500Y-68325499D01*
X232162539Y-68345184D01*
X232208294Y-68397987D01*
X232219500Y-68449499D01*
X232219500Y-72785762D01*
X232214771Y-72813631D01*
X232216182Y-72813953D01*
X232214630Y-72820750D01*
X232194435Y-72999996D01*
X232194435Y-73000003D01*
X232214630Y-73179249D01*
X232214631Y-73179254D01*
X232274211Y-73349523D01*
X232346433Y-73464462D01*
X232370184Y-73502262D01*
X232497738Y-73629816D01*
X232563062Y-73670862D01*
X232632721Y-73714632D01*
X232650478Y-73725789D01*
X232758347Y-73763534D01*
X232820745Y-73785368D01*
X232820750Y-73785369D01*
X232999996Y-73805565D01*
X233000000Y-73805565D01*
X233000004Y-73805565D01*
X233179249Y-73785369D01*
X233179252Y-73785368D01*
X233179255Y-73785368D01*
X233349522Y-73725789D01*
X233502262Y-73629816D01*
X233629816Y-73502262D01*
X233725789Y-73349522D01*
X233785368Y-73179255D01*
X233785369Y-73179249D01*
X233805565Y-73000003D01*
X233805565Y-72999996D01*
X233785369Y-72820750D01*
X233785368Y-72820745D01*
X233727458Y-72655248D01*
X233720500Y-72614293D01*
X233720500Y-68449499D01*
X233740185Y-68382460D01*
X233792989Y-68336705D01*
X233844500Y-68325499D01*
X235517871Y-68325499D01*
X235517872Y-68325499D01*
X235577483Y-68319091D01*
X235712331Y-68268796D01*
X235827546Y-68182546D01*
X235913796Y-68067331D01*
X235964091Y-67932483D01*
X235970500Y-67872873D01*
X235970499Y-67017128D01*
X235964091Y-66957517D01*
X235925231Y-66853329D01*
X235920248Y-66783642D01*
X235925227Y-66766682D01*
X235964091Y-66662483D01*
X235970500Y-66602873D01*
X235970499Y-65747128D01*
X235964091Y-65687517D01*
X235924965Y-65582617D01*
X235919982Y-65512927D01*
X235924966Y-65495951D01*
X235963597Y-65392376D01*
X235963598Y-65392372D01*
X235969999Y-65332844D01*
X235970000Y-65332827D01*
X235970000Y-65155000D01*
X232844000Y-65155000D01*
X232776961Y-65135315D01*
X232731206Y-65082511D01*
X232720000Y-65031000D01*
X232720000Y-64655000D01*
X233220000Y-64655000D01*
X235970000Y-64655000D01*
X235970000Y-64477172D01*
X235969999Y-64477155D01*
X235963598Y-64417627D01*
X235963597Y-64417623D01*
X235924699Y-64313334D01*
X235919715Y-64243643D01*
X235924699Y-64226666D01*
X235963597Y-64122376D01*
X235963598Y-64122372D01*
X235969999Y-64062844D01*
X235970000Y-64062827D01*
X235970000Y-63885000D01*
X233220000Y-63885000D01*
X233220000Y-64655000D01*
X232720000Y-64655000D01*
X232720000Y-63509000D01*
X232739685Y-63441961D01*
X232792489Y-63396206D01*
X232844000Y-63385000D01*
X235970000Y-63385000D01*
X235970000Y-63207172D01*
X235969999Y-63207155D01*
X235963598Y-63147627D01*
X235963597Y-63147623D01*
X235924966Y-63044049D01*
X235919982Y-62974357D01*
X235924966Y-62957382D01*
X235963783Y-62853308D01*
X235964091Y-62852483D01*
X235970500Y-62792873D01*
X235970499Y-61937128D01*
X235964091Y-61877517D01*
X235925231Y-61773329D01*
X235920248Y-61703642D01*
X235925227Y-61686682D01*
X235964091Y-61582483D01*
X235970500Y-61522873D01*
X235970499Y-60667128D01*
X235964091Y-60607517D01*
X235925231Y-60503329D01*
X235920248Y-60433642D01*
X235925227Y-60416682D01*
X235964091Y-60312483D01*
X235970500Y-60252873D01*
X235970499Y-59397128D01*
X235964091Y-59337517D01*
X235925231Y-59233329D01*
X235920248Y-59163642D01*
X235925227Y-59146682D01*
X235964091Y-59042483D01*
X235970500Y-58982873D01*
X235970499Y-58127128D01*
X235964091Y-58067517D01*
X235913796Y-57932669D01*
X235913795Y-57932668D01*
X235913793Y-57932664D01*
X235827547Y-57817455D01*
X235827544Y-57817452D01*
X235712335Y-57731206D01*
X235712328Y-57731202D01*
X235577482Y-57680908D01*
X235577483Y-57680908D01*
X235517883Y-57674501D01*
X235517881Y-57674500D01*
X235517873Y-57674500D01*
X235517865Y-57674500D01*
X231899742Y-57674500D01*
X231832703Y-57654815D01*
X231812061Y-57638181D01*
X230104470Y-55930590D01*
X230070985Y-55869267D01*
X230072376Y-55810815D01*
X230105635Y-55686692D01*
X230125468Y-55460000D01*
X230105635Y-55233308D01*
X230046739Y-55013504D01*
X229950568Y-54807266D01*
X229820047Y-54620861D01*
X229820045Y-54620858D01*
X229659141Y-54459954D01*
X229472734Y-54329432D01*
X229468043Y-54326724D01*
X229469294Y-54324555D01*
X229424781Y-54285203D01*
X229405763Y-54217971D01*
X229426113Y-54151130D01*
X229442070Y-54131528D01*
X230145277Y-53428323D01*
X230216465Y-53321781D01*
X230235705Y-53275331D01*
X230265501Y-53203398D01*
X230290500Y-53077723D01*
X230290500Y-50564141D01*
X230310185Y-50497102D01*
X230362989Y-50451347D01*
X230371149Y-50447966D01*
X230382331Y-50443796D01*
X230384123Y-50442455D01*
X230445871Y-50396230D01*
X230497546Y-50357546D01*
X230583796Y-50242331D01*
X230634091Y-50107483D01*
X230640500Y-50047873D01*
X230640499Y-48509806D01*
X230660184Y-48442768D01*
X230712987Y-48397013D01*
X230782146Y-48387069D01*
X230845702Y-48416094D01*
X230852180Y-48422126D01*
X231493181Y-49063127D01*
X231526666Y-49124450D01*
X231529500Y-49150808D01*
X231529500Y-50235858D01*
X231509815Y-50302897D01*
X231457011Y-50348652D01*
X231448847Y-50352034D01*
X231437669Y-50356204D01*
X231437664Y-50356206D01*
X231322455Y-50442452D01*
X231322452Y-50442455D01*
X231236206Y-50557664D01*
X231236202Y-50557671D01*
X231185908Y-50692517D01*
X231179501Y-50752116D01*
X231179501Y-50752123D01*
X231179500Y-50752135D01*
X231179500Y-53357870D01*
X231179501Y-53357876D01*
X231185908Y-53417483D01*
X231236202Y-53552328D01*
X231236206Y-53552335D01*
X231322452Y-53667544D01*
X231322455Y-53667547D01*
X231437664Y-53753793D01*
X231437671Y-53753797D01*
X231572517Y-53804091D01*
X231572516Y-53804091D01*
X231579444Y-53804835D01*
X231632127Y-53810500D01*
X232727872Y-53810499D01*
X232787483Y-53804091D01*
X232922331Y-53753796D01*
X233037546Y-53667546D01*
X233123796Y-53552331D01*
X233174091Y-53417483D01*
X233180500Y-53357873D01*
X233180500Y-52829500D01*
X233200185Y-52762461D01*
X233252989Y-52716706D01*
X233304500Y-52705500D01*
X245248179Y-52705500D01*
X245315218Y-52725185D01*
X245360973Y-52777989D01*
X245368384Y-52799059D01*
X245375933Y-52828870D01*
X245375936Y-52828878D01*
X245475826Y-53056606D01*
X245611833Y-53264782D01*
X245611836Y-53264785D01*
X245780256Y-53447738D01*
X245976491Y-53600474D01*
X246195190Y-53718828D01*
X246430386Y-53799571D01*
X246675665Y-53840500D01*
X246924335Y-53840500D01*
X247169614Y-53799571D01*
X247404810Y-53718828D01*
X247623509Y-53600474D01*
X247819744Y-53447738D01*
X247988164Y-53264785D01*
X248124173Y-53056607D01*
X248224063Y-52828881D01*
X248285108Y-52587821D01*
X248285109Y-52587812D01*
X248305643Y-52340005D01*
X248305643Y-52339994D01*
X248285109Y-52092187D01*
X248285107Y-52092175D01*
X248224063Y-51851118D01*
X248124174Y-51623396D01*
X248124173Y-51623393D01*
X247993256Y-51423009D01*
X247973070Y-51356122D01*
X247992250Y-51288936D01*
X248037642Y-51246356D01*
X248042323Y-51243798D01*
X248042331Y-51243796D01*
X248157546Y-51157546D01*
X248243796Y-51042331D01*
X248294091Y-50907483D01*
X248300500Y-50847873D01*
X248300499Y-48752128D01*
X248294091Y-48692517D01*
X248283621Y-48664446D01*
X248243797Y-48557671D01*
X248243793Y-48557664D01*
X248157547Y-48442455D01*
X248157544Y-48442452D01*
X248042335Y-48356206D01*
X248042328Y-48356202D01*
X247907482Y-48305908D01*
X247907483Y-48305908D01*
X247847883Y-48299501D01*
X247847881Y-48299500D01*
X247847873Y-48299500D01*
X247847864Y-48299500D01*
X245752129Y-48299500D01*
X245752123Y-48299501D01*
X245692516Y-48305908D01*
X245557671Y-48356202D01*
X245557664Y-48356206D01*
X245442455Y-48442452D01*
X245442452Y-48442455D01*
X245356206Y-48557664D01*
X245356202Y-48557671D01*
X245305908Y-48692517D01*
X245299501Y-48752116D01*
X245299501Y-48752123D01*
X245299500Y-48752135D01*
X245299500Y-50847870D01*
X245299501Y-50847876D01*
X245305908Y-50907483D01*
X245356202Y-51042328D01*
X245356206Y-51042335D01*
X245442452Y-51157544D01*
X245442453Y-51157544D01*
X245442454Y-51157546D01*
X245463083Y-51172989D01*
X245474097Y-51181234D01*
X245515967Y-51237168D01*
X245520951Y-51306860D01*
X245487465Y-51368182D01*
X245426141Y-51401667D01*
X245399785Y-51404500D01*
X233304499Y-51404500D01*
X233237460Y-51384815D01*
X233191705Y-51332011D01*
X233180499Y-51280500D01*
X233180499Y-50752129D01*
X233180498Y-50752123D01*
X233180497Y-50752116D01*
X233174091Y-50692517D01*
X233155302Y-50642142D01*
X233123797Y-50557671D01*
X233123793Y-50557664D01*
X233037547Y-50442455D01*
X233037544Y-50442452D01*
X232922335Y-50356206D01*
X232922332Y-50356205D01*
X232922331Y-50356204D01*
X232911161Y-50352038D01*
X232855231Y-50310166D01*
X232830816Y-50244701D01*
X232830500Y-50235858D01*
X232830500Y-48765928D01*
X232805502Y-48640261D01*
X232805501Y-48640260D01*
X232805501Y-48640256D01*
X232756465Y-48521873D01*
X232715602Y-48460717D01*
X232715600Y-48460714D01*
X232685279Y-48415333D01*
X231632127Y-47362181D01*
X231598642Y-47300858D01*
X231603626Y-47231166D01*
X231645498Y-47175233D01*
X231710962Y-47150816D01*
X231719808Y-47150500D01*
X232154192Y-47150500D01*
X232221231Y-47170185D01*
X232241873Y-47186819D01*
X233683181Y-48628127D01*
X233716666Y-48689450D01*
X233719500Y-48715808D01*
X233719500Y-50047870D01*
X233719501Y-50047876D01*
X233725908Y-50107483D01*
X233776202Y-50242328D01*
X233776206Y-50242335D01*
X233862452Y-50357544D01*
X233862455Y-50357547D01*
X233977664Y-50443793D01*
X233977671Y-50443797D01*
X234112517Y-50494091D01*
X234112516Y-50494091D01*
X234119444Y-50494835D01*
X234172127Y-50500500D01*
X235267872Y-50500499D01*
X235327483Y-50494091D01*
X235462331Y-50443796D01*
X235577546Y-50357546D01*
X235663796Y-50242331D01*
X235714091Y-50107483D01*
X235720500Y-50047873D01*
X235720499Y-47793713D01*
X238449500Y-47793713D01*
X238449500Y-48006286D01*
X238482498Y-48214632D01*
X238482754Y-48216243D01*
X238528230Y-48356204D01*
X238548444Y-48418414D01*
X238644951Y-48607820D01*
X238769890Y-48779786D01*
X238920213Y-48930109D01*
X239092179Y-49055048D01*
X239092181Y-49055049D01*
X239092184Y-49055051D01*
X239281588Y-49151557D01*
X239483757Y-49217246D01*
X239693713Y-49250500D01*
X239693714Y-49250500D01*
X239906286Y-49250500D01*
X239906287Y-49250500D01*
X240116243Y-49217246D01*
X240318412Y-49151557D01*
X240507816Y-49055051D01*
X240598676Y-48989038D01*
X240679786Y-48930109D01*
X240679788Y-48930106D01*
X240679792Y-48930104D01*
X240830104Y-48779792D01*
X240830106Y-48779788D01*
X240830109Y-48779786D01*
X240955048Y-48607820D01*
X240955047Y-48607820D01*
X240955051Y-48607816D01*
X241051557Y-48418412D01*
X241117246Y-48216243D01*
X241150500Y-48006287D01*
X241150500Y-47793713D01*
X241117246Y-47583757D01*
X241051557Y-47381588D01*
X240955051Y-47192184D01*
X240955049Y-47192181D01*
X240955048Y-47192179D01*
X240830109Y-47020213D01*
X240679786Y-46869890D01*
X240507820Y-46744951D01*
X240318414Y-46648444D01*
X240318413Y-46648443D01*
X240318412Y-46648443D01*
X240116243Y-46582754D01*
X240116241Y-46582753D01*
X240116240Y-46582753D01*
X239954957Y-46557208D01*
X239906287Y-46549500D01*
X239693713Y-46549500D01*
X239645042Y-46557208D01*
X239483760Y-46582753D01*
X239281585Y-46648444D01*
X239092179Y-46744951D01*
X238920213Y-46869890D01*
X238769890Y-47020213D01*
X238644951Y-47192179D01*
X238548444Y-47381585D01*
X238482753Y-47583760D01*
X238449500Y-47793713D01*
X235720499Y-47793713D01*
X235720499Y-47442128D01*
X235714091Y-47382517D01*
X235713743Y-47381585D01*
X235663797Y-47247671D01*
X235663793Y-47247664D01*
X235577547Y-47132455D01*
X235577544Y-47132452D01*
X235462335Y-47046206D01*
X235462328Y-47046202D01*
X235327482Y-46995908D01*
X235327483Y-46995908D01*
X235267883Y-46989501D01*
X235267881Y-46989500D01*
X235267873Y-46989500D01*
X235267864Y-46989500D01*
X234172129Y-46989500D01*
X234172123Y-46989501D01*
X234112516Y-46995908D01*
X234025735Y-47028276D01*
X233956043Y-47033260D01*
X233894721Y-46999775D01*
X232889674Y-45994727D01*
X232889667Y-45994721D01*
X232789215Y-45927602D01*
X232744409Y-45873990D01*
X232735702Y-45804665D01*
X232765856Y-45741638D01*
X232825299Y-45704918D01*
X232858105Y-45700500D01*
X251125500Y-45700500D01*
X251192539Y-45720185D01*
G37*
%TD.AperFunction*%
%TA.AperFunction,Conductor*%
G36*
X230311084Y-85707166D02*
G01*
X230326039Y-85719919D01*
X230619485Y-86013365D01*
X230726635Y-86120515D01*
X230857865Y-86196281D01*
X231004234Y-86235500D01*
X231182885Y-86235500D01*
X231249924Y-86255185D01*
X231295679Y-86307989D01*
X231299067Y-86316167D01*
X231331202Y-86402328D01*
X231331206Y-86402335D01*
X231417452Y-86517544D01*
X231417455Y-86517547D01*
X231532664Y-86603793D01*
X231532671Y-86603797D01*
X231667517Y-86654091D01*
X231667516Y-86654091D01*
X231674444Y-86654835D01*
X231727127Y-86660500D01*
X234972872Y-86660499D01*
X235032483Y-86654091D01*
X235167331Y-86603796D01*
X235241123Y-86548555D01*
X235306585Y-86524138D01*
X235374858Y-86538989D01*
X235424264Y-86588394D01*
X235435208Y-86615729D01*
X235463719Y-86722136D01*
X235501602Y-86787750D01*
X235539485Y-86853365D01*
X235539487Y-86853367D01*
X236288181Y-87602061D01*
X236321666Y-87663384D01*
X236324500Y-87689742D01*
X236324500Y-88747870D01*
X236324501Y-88747876D01*
X236330908Y-88807483D01*
X236381202Y-88942328D01*
X236381206Y-88942335D01*
X236467452Y-89057544D01*
X236467455Y-89057547D01*
X236582664Y-89143793D01*
X236582671Y-89143797D01*
X236717517Y-89194091D01*
X236717516Y-89194091D01*
X236724444Y-89194835D01*
X236777127Y-89200500D01*
X239780191Y-89200499D01*
X239847230Y-89220184D01*
X239892985Y-89272988D01*
X239902929Y-89342146D01*
X239873904Y-89405702D01*
X239867872Y-89412180D01*
X236461873Y-92818181D01*
X236400550Y-92851666D01*
X236374192Y-92854500D01*
X235844500Y-92854500D01*
X235777461Y-92834815D01*
X235731706Y-92782011D01*
X235720500Y-92730500D01*
X235720499Y-90597129D01*
X235720498Y-90597123D01*
X235720497Y-90597116D01*
X235714091Y-90537517D01*
X235699254Y-90497738D01*
X235663797Y-90402671D01*
X235663793Y-90402664D01*
X235577547Y-90287455D01*
X235577544Y-90287452D01*
X235462335Y-90201206D01*
X235462328Y-90201202D01*
X235327482Y-90150908D01*
X235327483Y-90150908D01*
X235267883Y-90144501D01*
X235267881Y-90144500D01*
X235267873Y-90144500D01*
X235267864Y-90144500D01*
X234172129Y-90144500D01*
X234172123Y-90144501D01*
X234112516Y-90150908D01*
X233977671Y-90201202D01*
X233977664Y-90201206D01*
X233862455Y-90287452D01*
X233862452Y-90287455D01*
X233776206Y-90402664D01*
X233776202Y-90402671D01*
X233725908Y-90537517D01*
X233719501Y-90597116D01*
X233719501Y-90597123D01*
X233719500Y-90597135D01*
X233719500Y-91929191D01*
X233699815Y-91996230D01*
X233683181Y-92016872D01*
X233386873Y-92313181D01*
X233325550Y-92346666D01*
X233299192Y-92349500D01*
X230930929Y-92349500D01*
X230805261Y-92374497D01*
X230800497Y-92375943D01*
X230730630Y-92376568D01*
X230671516Y-92339321D01*
X230641924Y-92276027D01*
X230640499Y-92257283D01*
X230640499Y-90597129D01*
X230640498Y-90597123D01*
X230640497Y-90597116D01*
X230634091Y-90537517D01*
X230619254Y-90497738D01*
X230583797Y-90402671D01*
X230583793Y-90402664D01*
X230497547Y-90287455D01*
X230497544Y-90287452D01*
X230382335Y-90201206D01*
X230382328Y-90201202D01*
X230247482Y-90150908D01*
X230247483Y-90150908D01*
X230187883Y-90144501D01*
X230187881Y-90144500D01*
X230187873Y-90144500D01*
X230187864Y-90144500D01*
X229092129Y-90144500D01*
X229092123Y-90144501D01*
X229032516Y-90150908D01*
X228945735Y-90183276D01*
X228876043Y-90188260D01*
X228814721Y-90154775D01*
X228650401Y-89990455D01*
X228616916Y-89929132D01*
X228621900Y-89859440D01*
X228663772Y-89803507D01*
X228729236Y-89779090D01*
X228748881Y-89779245D01*
X228820000Y-89785468D01*
X228820000Y-89785467D01*
X228820001Y-89785468D01*
X228820002Y-89785468D01*
X228876673Y-89780509D01*
X229046692Y-89765635D01*
X229266496Y-89706739D01*
X229472734Y-89610568D01*
X229659139Y-89480047D01*
X229820047Y-89319139D01*
X229950568Y-89132734D01*
X230046739Y-88926496D01*
X230094608Y-88747844D01*
X231275000Y-88747844D01*
X231281401Y-88807372D01*
X231281403Y-88807379D01*
X231331645Y-88942086D01*
X231331649Y-88942093D01*
X231417809Y-89057187D01*
X231417812Y-89057190D01*
X231532906Y-89143350D01*
X231532913Y-89143354D01*
X231667620Y-89193596D01*
X231667627Y-89193598D01*
X231727155Y-89199999D01*
X231727172Y-89200000D01*
X233100000Y-89200000D01*
X233600000Y-89200000D01*
X234972828Y-89200000D01*
X234972844Y-89199999D01*
X235032372Y-89193598D01*
X235032379Y-89193596D01*
X235167086Y-89143354D01*
X235167093Y-89143350D01*
X235282187Y-89057190D01*
X235282190Y-89057187D01*
X235368350Y-88942093D01*
X235368354Y-88942086D01*
X235418596Y-88807379D01*
X235418598Y-88807372D01*
X235424999Y-88747844D01*
X235425000Y-88747827D01*
X235425000Y-88450000D01*
X233600000Y-88450000D01*
X233600000Y-89200000D01*
X233100000Y-89200000D01*
X233100000Y-88450000D01*
X231275000Y-88450000D01*
X231275000Y-88747844D01*
X230094608Y-88747844D01*
X230105635Y-88706692D01*
X230125468Y-88480000D01*
X230105635Y-88253308D01*
X230046739Y-88033504D01*
X229950568Y-87827266D01*
X229827955Y-87652155D01*
X231275000Y-87652155D01*
X231275000Y-87950000D01*
X233100000Y-87950000D01*
X233600000Y-87950000D01*
X235425000Y-87950000D01*
X235425000Y-87652172D01*
X235424999Y-87652155D01*
X235418598Y-87592627D01*
X235418596Y-87592620D01*
X235368354Y-87457913D01*
X235368350Y-87457906D01*
X235282190Y-87342812D01*
X235282187Y-87342809D01*
X235167093Y-87256649D01*
X235167086Y-87256645D01*
X235032379Y-87206403D01*
X235032372Y-87206401D01*
X234972844Y-87200000D01*
X233600000Y-87200000D01*
X233600000Y-87950000D01*
X233100000Y-87950000D01*
X233100000Y-87200000D01*
X231727155Y-87200000D01*
X231667627Y-87206401D01*
X231667620Y-87206403D01*
X231532913Y-87256645D01*
X231532906Y-87256649D01*
X231417812Y-87342809D01*
X231417809Y-87342812D01*
X231331649Y-87457906D01*
X231331645Y-87457913D01*
X231281403Y-87592620D01*
X231281401Y-87592627D01*
X231275000Y-87652155D01*
X229827955Y-87652155D01*
X229827936Y-87652128D01*
X229820045Y-87640858D01*
X229659141Y-87479954D01*
X229472734Y-87349432D01*
X229472728Y-87349429D01*
X229414725Y-87322382D01*
X229362285Y-87276210D01*
X229343133Y-87209017D01*
X229363348Y-87142135D01*
X229414725Y-87097618D01*
X229472734Y-87070568D01*
X229659139Y-86940047D01*
X229820047Y-86779139D01*
X229950568Y-86592734D01*
X230046739Y-86386496D01*
X230105635Y-86166692D01*
X230125468Y-85940000D01*
X230114830Y-85818407D01*
X230128597Y-85749907D01*
X230177212Y-85699724D01*
X230245240Y-85683791D01*
X230311084Y-85707166D01*
G37*
%TD.AperFunction*%
%TA.AperFunction,Conductor*%
G36*
X227434806Y-60407652D02*
G01*
X227490739Y-60449524D01*
X227515156Y-60514988D01*
X227515001Y-60534634D01*
X227514532Y-60539998D01*
X227514532Y-60540001D01*
X227534364Y-60766686D01*
X227534366Y-60766697D01*
X227593258Y-60986488D01*
X227593261Y-60986497D01*
X227689431Y-61192732D01*
X227689432Y-61192734D01*
X227819954Y-61379141D01*
X227980858Y-61540045D01*
X227980861Y-61540047D01*
X228167266Y-61670568D01*
X228225275Y-61697618D01*
X228277714Y-61743791D01*
X228296866Y-61810984D01*
X228276650Y-61877865D01*
X228225275Y-61922382D01*
X228167267Y-61949431D01*
X228167265Y-61949432D01*
X227980858Y-62079954D01*
X227819954Y-62240858D01*
X227689432Y-62427265D01*
X227689431Y-62427267D01*
X227593261Y-62633502D01*
X227593258Y-62633511D01*
X227534366Y-62853302D01*
X227534364Y-62853313D01*
X227514532Y-63079998D01*
X227514532Y-63080001D01*
X227534364Y-63306686D01*
X227534366Y-63306697D01*
X227593258Y-63526488D01*
X227593261Y-63526497D01*
X227689431Y-63732732D01*
X227689432Y-63732734D01*
X227819954Y-63919141D01*
X227980858Y-64080045D01*
X227980861Y-64080047D01*
X228167266Y-64210568D01*
X228225275Y-64237618D01*
X228277714Y-64283791D01*
X228296866Y-64350984D01*
X228276650Y-64417865D01*
X228225275Y-64462382D01*
X228167267Y-64489431D01*
X228167265Y-64489432D01*
X227980858Y-64619954D01*
X227819954Y-64780858D01*
X227689432Y-64967265D01*
X227689431Y-64967267D01*
X227593261Y-65173502D01*
X227593258Y-65173511D01*
X227534366Y-65393302D01*
X227534364Y-65393313D01*
X227514532Y-65619998D01*
X227514532Y-65620001D01*
X227534364Y-65846686D01*
X227534366Y-65846697D01*
X227593258Y-66066488D01*
X227593261Y-66066497D01*
X227689431Y-66272732D01*
X227689432Y-66272734D01*
X227819954Y-66459141D01*
X227980858Y-66620045D01*
X227980861Y-66620047D01*
X228167266Y-66750568D01*
X228225275Y-66777618D01*
X228277714Y-66823791D01*
X228296866Y-66890984D01*
X228276650Y-66957865D01*
X228225275Y-67002382D01*
X228167267Y-67029431D01*
X228167265Y-67029432D01*
X227980858Y-67159954D01*
X227819954Y-67320858D01*
X227689432Y-67507265D01*
X227689431Y-67507267D01*
X227593261Y-67713502D01*
X227593258Y-67713511D01*
X227534366Y-67933302D01*
X227534364Y-67933313D01*
X227514532Y-68159998D01*
X227514532Y-68160001D01*
X227534364Y-68386686D01*
X227534366Y-68386697D01*
X227593258Y-68606488D01*
X227593261Y-68606497D01*
X227689431Y-68812732D01*
X227689432Y-68812734D01*
X227819954Y-68999141D01*
X227980858Y-69160045D01*
X227980861Y-69160047D01*
X228167266Y-69290568D01*
X228225275Y-69317618D01*
X228277714Y-69363791D01*
X228296866Y-69430984D01*
X228276650Y-69497865D01*
X228225275Y-69542382D01*
X228167267Y-69569431D01*
X228167265Y-69569432D01*
X227980858Y-69699954D01*
X227819954Y-69860858D01*
X227689432Y-70047265D01*
X227689431Y-70047267D01*
X227593261Y-70253502D01*
X227593258Y-70253511D01*
X227534366Y-70473302D01*
X227534364Y-70473313D01*
X227514532Y-70699998D01*
X227514532Y-70700001D01*
X227534364Y-70926686D01*
X227534366Y-70926697D01*
X227593258Y-71146488D01*
X227593261Y-71146497D01*
X227689431Y-71352732D01*
X227689432Y-71352734D01*
X227819954Y-71539141D01*
X227980858Y-71700045D01*
X227980861Y-71700047D01*
X228167266Y-71830568D01*
X228187504Y-71840005D01*
X228225275Y-71857618D01*
X228277714Y-71903791D01*
X228296866Y-71970984D01*
X228276650Y-72037865D01*
X228225275Y-72082382D01*
X228167267Y-72109431D01*
X228167265Y-72109432D01*
X227980858Y-72239954D01*
X227819954Y-72400858D01*
X227689432Y-72587265D01*
X227689431Y-72587267D01*
X227593261Y-72793502D01*
X227593258Y-72793511D01*
X227534366Y-73013302D01*
X227534364Y-73013313D01*
X227514532Y-73239998D01*
X227514532Y-73240001D01*
X227534364Y-73466686D01*
X227534366Y-73466697D01*
X227593258Y-73686488D01*
X227593261Y-73686497D01*
X227689431Y-73892732D01*
X227689432Y-73892734D01*
X227819954Y-74079141D01*
X227980858Y-74240045D01*
X227980861Y-74240047D01*
X228167266Y-74370568D01*
X228225865Y-74397893D01*
X228278305Y-74444065D01*
X228297457Y-74511258D01*
X228277242Y-74578139D01*
X228225867Y-74622657D01*
X228167515Y-74649867D01*
X227981179Y-74780342D01*
X227820342Y-74941179D01*
X227689865Y-75127517D01*
X227593734Y-75333673D01*
X227593730Y-75333682D01*
X227541127Y-75529999D01*
X227541128Y-75530000D01*
X228504314Y-75530000D01*
X228499920Y-75534394D01*
X228447259Y-75625606D01*
X228420000Y-75727339D01*
X228420000Y-75832661D01*
X228447259Y-75934394D01*
X228499920Y-76025606D01*
X228504314Y-76030000D01*
X227541128Y-76030000D01*
X227593730Y-76226317D01*
X227593734Y-76226326D01*
X227689865Y-76432482D01*
X227820342Y-76618820D01*
X227981179Y-76779657D01*
X228167518Y-76910134D01*
X228167520Y-76910135D01*
X228225865Y-76937342D01*
X228278305Y-76983514D01*
X228297457Y-77050707D01*
X228277242Y-77117589D01*
X228225867Y-77162105D01*
X228167268Y-77189431D01*
X228167264Y-77189433D01*
X227980858Y-77319954D01*
X227819954Y-77480858D01*
X227689432Y-77667265D01*
X227689431Y-77667267D01*
X227593261Y-77873502D01*
X227593258Y-77873511D01*
X227534366Y-78093302D01*
X227534364Y-78093313D01*
X227514532Y-78319998D01*
X227514532Y-78320001D01*
X227534364Y-78546686D01*
X227534366Y-78546697D01*
X227593258Y-78766488D01*
X227593261Y-78766497D01*
X227689431Y-78972732D01*
X227689432Y-78972734D01*
X227819954Y-79159141D01*
X227980858Y-79320045D01*
X227980861Y-79320047D01*
X228167266Y-79450568D01*
X228225275Y-79477618D01*
X228277714Y-79523791D01*
X228296866Y-79590984D01*
X228276650Y-79657865D01*
X228225275Y-79702381D01*
X228208272Y-79710310D01*
X228167267Y-79729431D01*
X228167265Y-79729432D01*
X227980858Y-79859954D01*
X227819954Y-80020858D01*
X227689432Y-80207265D01*
X227689431Y-80207267D01*
X227593261Y-80413502D01*
X227593258Y-80413511D01*
X227534366Y-80633302D01*
X227534364Y-80633313D01*
X227514532Y-80859998D01*
X227514532Y-80860001D01*
X227534364Y-81086686D01*
X227534366Y-81086697D01*
X227593258Y-81306488D01*
X227593261Y-81306497D01*
X227689431Y-81512732D01*
X227689432Y-81512734D01*
X227819954Y-81699141D01*
X227980858Y-81860045D01*
X227980861Y-81860047D01*
X228167266Y-81990568D01*
X228225275Y-82017618D01*
X228277714Y-82063791D01*
X228296866Y-82130984D01*
X228276650Y-82197865D01*
X228225275Y-82242382D01*
X228167267Y-82269431D01*
X228167265Y-82269432D01*
X227980858Y-82399954D01*
X227819954Y-82560858D01*
X227689432Y-82747265D01*
X227689431Y-82747267D01*
X227593261Y-82953502D01*
X227593258Y-82953511D01*
X227534366Y-83173302D01*
X227534364Y-83173313D01*
X227514532Y-83399998D01*
X227514532Y-83400001D01*
X227534364Y-83626686D01*
X227534366Y-83626697D01*
X227593258Y-83846488D01*
X227593261Y-83846497D01*
X227689431Y-84052732D01*
X227689432Y-84052734D01*
X227819954Y-84239141D01*
X227980858Y-84400045D01*
X227980861Y-84400047D01*
X228167266Y-84530568D01*
X228225275Y-84557618D01*
X228277714Y-84603791D01*
X228296866Y-84670984D01*
X228276650Y-84737865D01*
X228225275Y-84782382D01*
X228167267Y-84809431D01*
X228167265Y-84809432D01*
X227980858Y-84939954D01*
X227819954Y-85100858D01*
X227689432Y-85287265D01*
X227689431Y-85287267D01*
X227593261Y-85493502D01*
X227593258Y-85493511D01*
X227534366Y-85713302D01*
X227534364Y-85713313D01*
X227514532Y-85939996D01*
X227514532Y-85940001D01*
X227534364Y-86166686D01*
X227534366Y-86166697D01*
X227593258Y-86386488D01*
X227593261Y-86386497D01*
X227689431Y-86592732D01*
X227689432Y-86592734D01*
X227819954Y-86779141D01*
X227980858Y-86940045D01*
X227980861Y-86940047D01*
X228167266Y-87070568D01*
X228225275Y-87097618D01*
X228277714Y-87143791D01*
X228296866Y-87210984D01*
X228276650Y-87277865D01*
X228225275Y-87322382D01*
X228167267Y-87349431D01*
X228167265Y-87349432D01*
X227980858Y-87479954D01*
X227819954Y-87640858D01*
X227689432Y-87827265D01*
X227689431Y-87827267D01*
X227593261Y-88033502D01*
X227593258Y-88033511D01*
X227534366Y-88253302D01*
X227534364Y-88253313D01*
X227514532Y-88479998D01*
X227514532Y-88480002D01*
X227520753Y-88551110D01*
X227506986Y-88619610D01*
X227458371Y-88669793D01*
X227390342Y-88685726D01*
X227324499Y-88662350D01*
X227309544Y-88649598D01*
X224186819Y-85526873D01*
X224153334Y-85465550D01*
X224150500Y-85439192D01*
X224150500Y-72505067D01*
X224169507Y-72439094D01*
X224225788Y-72349524D01*
X224225789Y-72349522D01*
X224285368Y-72179255D01*
X224293235Y-72109432D01*
X224305565Y-72000003D01*
X224305565Y-71999996D01*
X224285369Y-71820750D01*
X224285368Y-71820745D01*
X224248001Y-71713957D01*
X224225789Y-71650478D01*
X224129816Y-71497738D01*
X224002262Y-71370184D01*
X223974491Y-71352734D01*
X223849523Y-71274211D01*
X223679254Y-71214631D01*
X223679249Y-71214630D01*
X223500004Y-71194435D01*
X223499996Y-71194435D01*
X223320750Y-71214630D01*
X223320745Y-71214631D01*
X223150476Y-71274211D01*
X222997737Y-71370184D01*
X222870184Y-71497737D01*
X222774211Y-71650476D01*
X222714631Y-71820745D01*
X222714630Y-71820750D01*
X222694435Y-71999996D01*
X222694435Y-72000003D01*
X222714630Y-72179249D01*
X222714631Y-72179254D01*
X222774211Y-72349524D01*
X222830493Y-72439094D01*
X222849500Y-72505067D01*
X222849500Y-77123846D01*
X222829815Y-77190885D01*
X222777011Y-77236640D01*
X222707853Y-77246584D01*
X222644297Y-77217559D01*
X222637819Y-77211527D01*
X222209847Y-76783555D01*
X222176362Y-76722232D01*
X222181346Y-76652540D01*
X222197861Y-76624217D01*
X222196942Y-76623574D01*
X222234586Y-76569810D01*
X222330568Y-76432734D01*
X222426739Y-76226496D01*
X222485635Y-76006692D01*
X222505468Y-75780000D01*
X222485635Y-75553308D01*
X222426739Y-75333504D01*
X222330568Y-75127266D01*
X222200047Y-74940861D01*
X222200045Y-74940858D01*
X222039141Y-74779954D01*
X221852734Y-74649432D01*
X221852728Y-74649429D01*
X221794725Y-74622382D01*
X221742285Y-74576210D01*
X221723133Y-74509017D01*
X221743348Y-74442135D01*
X221794725Y-74397618D01*
X221852734Y-74370568D01*
X222039139Y-74240047D01*
X222200047Y-74079139D01*
X222330568Y-73892734D01*
X222426739Y-73686496D01*
X222485635Y-73466692D01*
X222505468Y-73240000D01*
X222500153Y-73179255D01*
X222485635Y-73013313D01*
X222485635Y-73013308D01*
X222432132Y-72813631D01*
X222426741Y-72793511D01*
X222426738Y-72793502D01*
X222413347Y-72764785D01*
X222330568Y-72587266D01*
X222200047Y-72400861D01*
X222200045Y-72400858D01*
X222039141Y-72239954D01*
X221852734Y-72109432D01*
X221852732Y-72109431D01*
X221841275Y-72104088D01*
X221794132Y-72082105D01*
X221741694Y-72035934D01*
X221722542Y-71968740D01*
X221742758Y-71901859D01*
X221794134Y-71857341D01*
X221852484Y-71830132D01*
X222038820Y-71699657D01*
X222199657Y-71538820D01*
X222330134Y-71352482D01*
X222426265Y-71146326D01*
X222426269Y-71146317D01*
X222478872Y-70950000D01*
X221515686Y-70950000D01*
X221520080Y-70945606D01*
X221572741Y-70854394D01*
X221600000Y-70752661D01*
X221600000Y-70647339D01*
X221572741Y-70545606D01*
X221520080Y-70454394D01*
X221515686Y-70450000D01*
X222478872Y-70450000D01*
X222478872Y-70449999D01*
X222426269Y-70253682D01*
X222426265Y-70253673D01*
X222330134Y-70047517D01*
X222199657Y-69861179D01*
X222038820Y-69700342D01*
X221852482Y-69569865D01*
X221794133Y-69542657D01*
X221741694Y-69496484D01*
X221722542Y-69429291D01*
X221742758Y-69362410D01*
X221794129Y-69317895D01*
X221852734Y-69290568D01*
X222039139Y-69160047D01*
X222200047Y-68999139D01*
X222330568Y-68812734D01*
X222426739Y-68606496D01*
X222485635Y-68386692D01*
X222503495Y-68182547D01*
X222505468Y-68160001D01*
X222505468Y-68159998D01*
X222497361Y-68067335D01*
X222485635Y-67933308D01*
X222426739Y-67713504D01*
X222330568Y-67507266D01*
X222200047Y-67320861D01*
X222200045Y-67320858D01*
X222039141Y-67159954D01*
X221852734Y-67029432D01*
X221852728Y-67029429D01*
X221794725Y-67002382D01*
X221742285Y-66956210D01*
X221723133Y-66889017D01*
X221743348Y-66822135D01*
X221794725Y-66777618D01*
X221852734Y-66750568D01*
X222039139Y-66620047D01*
X222200047Y-66459139D01*
X222330568Y-66272734D01*
X222426739Y-66066496D01*
X222485635Y-65846692D01*
X222505468Y-65620000D01*
X222502197Y-65582618D01*
X222494615Y-65495951D01*
X222485635Y-65393308D01*
X222474790Y-65352834D01*
X222476453Y-65282984D01*
X222506882Y-65233062D01*
X227303793Y-60436151D01*
X227365114Y-60402668D01*
X227434806Y-60407652D01*
G37*
%TD.AperFunction*%
%TA.AperFunction,Conductor*%
G36*
X218858691Y-68795136D02*
G01*
X218935928Y-68810500D01*
X218935931Y-68810500D01*
X220003317Y-68810500D01*
X220070356Y-68830185D01*
X220104892Y-68863377D01*
X220199954Y-68999141D01*
X220360858Y-69160045D01*
X220360861Y-69160047D01*
X220547266Y-69290568D01*
X220605865Y-69317893D01*
X220658305Y-69364065D01*
X220677457Y-69431258D01*
X220657242Y-69498139D01*
X220605867Y-69542657D01*
X220547515Y-69569867D01*
X220361179Y-69700342D01*
X220200342Y-69861179D01*
X220069865Y-70047517D01*
X219973734Y-70253673D01*
X219973730Y-70253682D01*
X219921127Y-70449999D01*
X219921128Y-70450000D01*
X220884314Y-70450000D01*
X220879920Y-70454394D01*
X220827259Y-70545606D01*
X220800000Y-70647339D01*
X220800000Y-70752661D01*
X220827259Y-70854394D01*
X220879920Y-70945606D01*
X220884314Y-70950000D01*
X219921128Y-70950000D01*
X219973730Y-71146317D01*
X219973734Y-71146326D01*
X220069865Y-71352482D01*
X220200342Y-71538820D01*
X220361179Y-71699657D01*
X220547518Y-71830134D01*
X220547520Y-71830135D01*
X220605865Y-71857342D01*
X220658305Y-71903514D01*
X220677457Y-71970707D01*
X220657242Y-72037589D01*
X220605867Y-72082105D01*
X220547268Y-72109431D01*
X220547264Y-72109433D01*
X220360858Y-72239954D01*
X220199954Y-72400858D01*
X220069432Y-72587265D01*
X220069431Y-72587267D01*
X219973261Y-72793502D01*
X219973258Y-72793511D01*
X219914366Y-73013302D01*
X219914364Y-73013313D01*
X219894532Y-73239998D01*
X219894532Y-73240003D01*
X219909129Y-73406861D01*
X219895362Y-73475360D01*
X219873282Y-73505348D01*
X219707768Y-73670862D01*
X219646445Y-73704347D01*
X219606203Y-73706401D01*
X219500003Y-73694435D01*
X219499996Y-73694435D01*
X219320750Y-73714630D01*
X219320745Y-73714631D01*
X219150476Y-73774211D01*
X218997739Y-73870183D01*
X218922180Y-73945742D01*
X218860856Y-73979226D01*
X218791165Y-73974241D01*
X218735231Y-73932370D01*
X218710815Y-73866905D01*
X218710499Y-73858083D01*
X218710499Y-72942128D01*
X218704091Y-72882517D01*
X218681053Y-72820750D01*
X218653797Y-72747671D01*
X218653793Y-72747664D01*
X218567547Y-72632455D01*
X218567544Y-72632452D01*
X218452335Y-72546206D01*
X218452328Y-72546202D01*
X218317482Y-72495908D01*
X218317483Y-72495908D01*
X218257883Y-72489501D01*
X218257881Y-72489500D01*
X218257873Y-72489500D01*
X218257865Y-72489500D01*
X216124500Y-72489500D01*
X216057461Y-72469815D01*
X216011706Y-72417011D01*
X216000500Y-72365500D01*
X216000500Y-70335807D01*
X216020185Y-70268768D01*
X216036815Y-70248130D01*
X216838127Y-69446817D01*
X216899450Y-69413333D01*
X216925808Y-69410499D01*
X218257871Y-69410499D01*
X218257872Y-69410499D01*
X218317483Y-69404091D01*
X218452331Y-69353796D01*
X218567546Y-69267546D01*
X218653796Y-69152331D01*
X218704091Y-69017483D01*
X218710500Y-68957873D01*
X218710499Y-68916753D01*
X218730182Y-68849716D01*
X218782985Y-68803960D01*
X218852143Y-68794015D01*
X218858691Y-68795136D01*
G37*
%TD.AperFunction*%
%TA.AperFunction,Conductor*%
G36*
X229889454Y-63952245D02*
G01*
X229945388Y-63994116D01*
X229969805Y-64059580D01*
X229969942Y-64061772D01*
X229969998Y-64062820D01*
X229976401Y-64122372D01*
X229976403Y-64122382D01*
X230015299Y-64226668D01*
X230020283Y-64296359D01*
X230015299Y-64313332D01*
X229976403Y-64417617D01*
X229976401Y-64417627D01*
X229970000Y-64477155D01*
X229970000Y-64631451D01*
X229950315Y-64698490D01*
X229897511Y-64744245D01*
X229828353Y-64754189D01*
X229764797Y-64725164D01*
X229758319Y-64719132D01*
X229659141Y-64619954D01*
X229472734Y-64489432D01*
X229472728Y-64489429D01*
X229414725Y-64462382D01*
X229362285Y-64416210D01*
X229343133Y-64349017D01*
X229363348Y-64282135D01*
X229414725Y-64237618D01*
X229472734Y-64210568D01*
X229659139Y-64080047D01*
X229758441Y-63980744D01*
X229819762Y-63947261D01*
X229889454Y-63952245D01*
G37*
%TD.AperFunction*%
%TD*%
M02*
