%TF.GenerationSoftware,KiCad,Pcbnew,8.0.7*%
%TF.CreationDate,2024-12-21T11:08:24+01:00*%
%TF.ProjectId,circuit,63697263-7569-4742-9e6b-696361645f70,rev?*%
%TF.SameCoordinates,Original*%
%TF.FileFunction,Copper,L1,Top*%
%TF.FilePolarity,Positive*%
%FSLAX46Y46*%
G04 Gerber Fmt 4.6, Leading zero omitted, Abs format (unit mm)*
G04 Created by KiCad (PCBNEW 8.0.7) date 2024-12-21 11:08:24*
%MOMM*%
%LPD*%
G01*
G04 APERTURE LIST*
G04 Aperture macros list*
%AMRoundRect*
0 Rectangle with rounded corners*
0 $1 Rounding radius*
0 $2 $3 $4 $5 $6 $7 $8 $9 X,Y pos of 4 corners*
0 Add a 4 corners polygon primitive as box body*
4,1,4,$2,$3,$4,$5,$6,$7,$8,$9,$2,$3,0*
0 Add four circle primitives for the rounded corners*
1,1,$1+$1,$2,$3*
1,1,$1+$1,$4,$5*
1,1,$1+$1,$6,$7*
1,1,$1+$1,$8,$9*
0 Add four rect primitives between the rounded corners*
20,1,$1+$1,$2,$3,$4,$5,0*
20,1,$1+$1,$4,$5,$6,$7,0*
20,1,$1+$1,$6,$7,$8,$9,0*
20,1,$1+$1,$8,$9,$2,$3,0*%
G04 Aperture macros list end*
%TA.AperFunction,ComponentPad*%
%ADD10R,2.000000X2.000000*%
%TD*%
%TA.AperFunction,ComponentPad*%
%ADD11C,2.000000*%
%TD*%
%TA.AperFunction,SMDPad,CuDef*%
%ADD12RoundRect,0.237500X0.237500X-0.300000X0.237500X0.300000X-0.237500X0.300000X-0.237500X-0.300000X0*%
%TD*%
%TA.AperFunction,SMDPad,CuDef*%
%ADD13R,2.510000X1.000000*%
%TD*%
%TA.AperFunction,SMDPad,CuDef*%
%ADD14R,1.000000X2.510000*%
%TD*%
%TA.AperFunction,SMDPad,CuDef*%
%ADD15RoundRect,0.237500X-0.237500X0.300000X-0.237500X-0.300000X0.237500X-0.300000X0.237500X0.300000X0*%
%TD*%
%TA.AperFunction,SMDPad,CuDef*%
%ADD16R,5.000000X0.760000*%
%TD*%
%TA.AperFunction,SMDPad,CuDef*%
%ADD17R,4.500000X8.800000*%
%TD*%
%TA.AperFunction,ComponentPad*%
%ADD18R,1.600000X1.600000*%
%TD*%
%TA.AperFunction,ComponentPad*%
%ADD19O,1.600000X1.600000*%
%TD*%
%TA.AperFunction,SMDPad,CuDef*%
%ADD20R,3.150000X1.000000*%
%TD*%
%TA.AperFunction,ComponentPad*%
%ADD21C,1.500000*%
%TD*%
%TA.AperFunction,SMDPad,CuDef*%
%ADD22R,1.550000X1.300000*%
%TD*%
%TA.AperFunction,ViaPad*%
%ADD23C,0.600000*%
%TD*%
%TA.AperFunction,Conductor*%
%ADD24C,0.300000*%
%TD*%
%TA.AperFunction,Conductor*%
%ADD25C,0.500000*%
%TD*%
%TA.AperFunction,Conductor*%
%ADD26C,0.150000*%
%TD*%
%TA.AperFunction,Conductor*%
%ADD27C,0.200000*%
%TD*%
%TA.AperFunction,Conductor*%
%ADD28C,0.600000*%
%TD*%
G04 APERTURE END LIST*
D10*
%TO.P,J1.1.3,1,Pin_1*%
%TO.N,/L1*%
X246800000Y-92100000D03*
D11*
%TO.P,J1.1.3,2,Pin_2*%
%TO.N,/R2*%
X246800000Y-94640000D03*
%TD*%
D10*
%TO.P,J1.1.1,1,Pin_1*%
%TO.N,/L1*%
X246800000Y-49800000D03*
D11*
%TO.P,J1.1.1,2,Pin_2*%
%TO.N,/R1*%
X246800000Y-52340000D03*
%TD*%
D12*
%TO.P,C2,1*%
%TO.N,/XTAL2*%
X213600000Y-83925000D03*
%TO.P,C2,2*%
%TO.N,GND*%
X213600000Y-82200000D03*
%TD*%
D13*
%TO.P,J1,1,Pin_1*%
%TO.N,/L1*%
X213645000Y-55710000D03*
%TO.P,J1,2,Pin_2*%
%TO.N,/L2*%
X216955000Y-58250000D03*
%TO.P,J1,3,Pin_3*%
%TO.N,/L3*%
X213645000Y-60790000D03*
%TO.P,J1,4,Pin_4*%
%TO.N,/L4*%
X216955000Y-63330000D03*
%TO.P,J1,5,Pin_5*%
%TO.N,/R1*%
X213645000Y-65870000D03*
%TO.P,J1,6,Pin_6*%
%TO.N,/R2*%
X216955000Y-68410000D03*
%TO.P,J1,7,Pin_7*%
%TO.N,/R3*%
X213645000Y-70950000D03*
%TO.P,J1,8,Pin_8*%
%TO.N,/R4*%
X216955000Y-73490000D03*
%TD*%
D10*
%TO.P,J1.1.2,1,Pin_1*%
%TO.N,/L2*%
X207400000Y-49800000D03*
D11*
%TO.P,J1.1.2,2,Pin_2*%
%TO.N,/R1*%
X207400000Y-52340000D03*
%TD*%
D14*
%TO.P,J1.1,1,Pin_1*%
%TO.N,/L1*%
X215280000Y-52055000D03*
%TO.P,J1.1,2,Pin_2*%
%TO.N,/L2*%
X217820000Y-48745000D03*
%TO.P,J1.1,3,Pin_3*%
%TO.N,/R1*%
X220360000Y-52055000D03*
%TO.P,J1.1,4,Pin_4*%
%TO.N,/R2*%
X222900000Y-48745000D03*
%TD*%
D15*
%TO.P,C1,1*%
%TO.N,/XTAL1*%
X213600000Y-78875000D03*
%TO.P,C1,2*%
%TO.N,GND*%
X213600000Y-80600000D03*
%TD*%
D16*
%TO.P,J4,1*%
%TO.N,GND*%
X232970000Y-67445000D03*
%TO.P,J4,2*%
X232970000Y-66175000D03*
%TO.P,J4,3*%
%TO.N,+5V*%
X232970000Y-64905000D03*
%TO.P,J4,4*%
X232970000Y-63635000D03*
%TO.P,J4,5*%
%TO.N,/SDA*%
X232970000Y-62365000D03*
%TO.P,J4,6*%
X232970000Y-61095000D03*
%TO.P,J4,7*%
%TO.N,/SCL*%
X232970000Y-59825000D03*
%TO.P,J4,8*%
X232970000Y-58555000D03*
D17*
%TO.P,J4,L*%
%TO.N,N/C*%
X248900000Y-63000000D03*
%TD*%
D10*
%TO.P,J1.2.2,1,Pin_1*%
%TO.N,/L4*%
X207400000Y-69300000D03*
D11*
%TO.P,J1.2.2,2,Pin_2*%
%TO.N,/R1*%
X207400000Y-71840000D03*
%TD*%
D18*
%TO.P,U1,1,~{RESET}/PC6*%
%TO.N,/RESET*%
X221200000Y-55460000D03*
D19*
%TO.P,U1,2,PD0*%
%TO.N,/L1*%
X221200000Y-58000000D03*
%TO.P,U1,3,PD1*%
%TO.N,/L2*%
X221200000Y-60540000D03*
%TO.P,U1,4,PD2*%
%TO.N,/L3*%
X221200000Y-63080000D03*
%TO.P,U1,5,PD3*%
%TO.N,/L4*%
X221200000Y-65620000D03*
%TO.P,U1,6,PD4*%
%TO.N,/R1*%
X221200000Y-68160000D03*
%TO.P,U1,7,VCC*%
%TO.N,+5V*%
X221200000Y-70700000D03*
%TO.P,U1,8,GND*%
%TO.N,GND*%
X221200000Y-73240000D03*
%TO.P,U1,9,XTAL1/PB6*%
%TO.N,/XTAL1*%
X221200000Y-75780000D03*
%TO.P,U1,10,XTAL2/PB7*%
%TO.N,/XTAL2*%
X221200000Y-78320000D03*
%TO.P,U1,11,PD5*%
%TO.N,/R2*%
X221200000Y-80860000D03*
%TO.P,U1,12,PD6*%
%TO.N,/R3*%
X221200000Y-83400000D03*
%TO.P,U1,13,PD7*%
%TO.N,/R4*%
X221200000Y-85940000D03*
%TO.P,U1,14,PB0*%
%TO.N,unconnected-(U1-PB0-Pad14)*%
X221200000Y-88480000D03*
%TO.P,U1,15,PB1*%
%TO.N,unconnected-(U1-PB1-Pad15)*%
X228820000Y-88480000D03*
%TO.P,U1,16,PB2*%
%TO.N,unconnected-(U1-PB2-Pad16)*%
X228820000Y-85940000D03*
%TO.P,U1,17,PB3*%
%TO.N,/MOSI*%
X228820000Y-83400000D03*
%TO.P,U1,18,PB4*%
%TO.N,/MISO*%
X228820000Y-80860000D03*
%TO.P,U1,19,PB5*%
%TO.N,/SCK*%
X228820000Y-78320000D03*
%TO.P,U1,20,AVCC*%
%TO.N,+5V*%
X228820000Y-75780000D03*
%TO.P,U1,21,AREF*%
%TO.N,unconnected-(U1-AREF-Pad21)*%
X228820000Y-73240000D03*
%TO.P,U1,22,GND*%
%TO.N,GND*%
X228820000Y-70700000D03*
%TO.P,U1,23,PC0*%
%TO.N,unconnected-(U1-PC0-Pad23)*%
X228820000Y-68160000D03*
%TO.P,U1,24,PC1*%
%TO.N,unconnected-(U1-PC1-Pad24)*%
X228820000Y-65620000D03*
%TO.P,U1,25,PC2*%
%TO.N,unconnected-(U1-PC2-Pad25)*%
X228820000Y-63080000D03*
%TO.P,U1,26,PC3*%
%TO.N,unconnected-(U1-PC3-Pad26)*%
X228820000Y-60540000D03*
%TO.P,U1,27,PC4*%
%TO.N,/SDA*%
X228820000Y-58000000D03*
%TO.P,U1,28,PC5*%
%TO.N,/SCL*%
X228820000Y-55460000D03*
%TD*%
D20*
%TO.P,J3,1,MISO*%
%TO.N,/MISO*%
X238400000Y-88200000D03*
%TO.P,J3,2,VCC*%
%TO.N,+5V*%
X233350000Y-88200000D03*
%TO.P,J3,3,SCK*%
%TO.N,/SCK*%
X238400000Y-85660000D03*
%TO.P,J3,4,MOSI*%
%TO.N,/MOSI*%
X233350000Y-85660000D03*
%TO.P,J3,5,~{RST}*%
%TO.N,/RESET*%
X238400000Y-83120000D03*
%TO.P,J3,6,GND*%
%TO.N,GND*%
X233350000Y-83120000D03*
%TD*%
D14*
%TO.P,J1.2,1,Pin_1*%
%TO.N,/L3*%
X227100000Y-52055000D03*
%TO.P,J1.2,2,Pin_2*%
%TO.N,/L4*%
X229640000Y-48745000D03*
%TO.P,J1.2,3,Pin_3*%
%TO.N,/R1*%
X232180000Y-52055000D03*
%TO.P,J1.2,4,Pin_4*%
%TO.N,/R2*%
X234720000Y-48745000D03*
%TD*%
D21*
%TO.P,Y1,1,1*%
%TO.N,/XTAL1*%
X217200000Y-78900000D03*
%TO.P,Y1,2,2*%
%TO.N,/XTAL2*%
X217200000Y-83800000D03*
%TD*%
D10*
%TO.P,J1.2.1,1,Pin_1*%
%TO.N,/L3*%
X246900000Y-83300000D03*
D11*
%TO.P,J1.2.1,2,Pin_2*%
%TO.N,/R1*%
X246900000Y-85840000D03*
%TD*%
D14*
%TO.P,J1.4,1,Pin_1*%
%TO.N,/L3*%
X227100000Y-95210000D03*
%TO.P,J1.4,2,Pin_2*%
%TO.N,/L4*%
X229640000Y-91900000D03*
%TO.P,J1.4,3,Pin_3*%
%TO.N,/R3*%
X232180000Y-95210000D03*
%TO.P,J1.4,4,Pin_4*%
%TO.N,/R4*%
X234720000Y-91900000D03*
%TD*%
D22*
%TO.P,SW1,1,1*%
%TO.N,/RESET*%
X234800000Y-73900000D03*
X242750000Y-73900000D03*
%TO.P,SW1,2,2*%
%TO.N,GND*%
X234800000Y-78400000D03*
X242750000Y-78400000D03*
%TD*%
D10*
%TO.P,J1.1.4,1,Pin_1*%
%TO.N,/L2*%
X207400000Y-92100000D03*
D11*
%TO.P,J1.1.4,2,Pin_2*%
%TO.N,/R2*%
X207400000Y-94640000D03*
%TD*%
D14*
%TO.P,J1.3,1,Pin_1*%
%TO.N,/L1*%
X215280000Y-95210000D03*
%TO.P,J1.3,2,Pin_2*%
%TO.N,/L2*%
X217820000Y-91900000D03*
%TO.P,J1.3,3,Pin_3*%
%TO.N,/R3*%
X220360000Y-95210000D03*
%TO.P,J1.3,4,Pin_4*%
%TO.N,/R4*%
X222900000Y-91900000D03*
%TD*%
D23*
%TO.N,+5V*%
X233350000Y-88200000D03*
X233000000Y-63635000D03*
%TO.N,/RESET*%
X231400000Y-55300000D03*
%TO.N,/L1*%
X215280000Y-95210000D03*
%TO.N,/L2*%
X211350000Y-74700000D03*
%TO.N,/R1*%
X220360000Y-52055000D03*
X214000000Y-64500000D03*
%TO.N,/R2*%
X216955000Y-68410000D03*
X222900000Y-48745000D03*
X219000000Y-93000000D03*
%TO.N,/L4*%
X225400000Y-72300000D03*
%TO.N,GND*%
X213600000Y-80600000D03*
%TD*%
D24*
%TO.N,+5V*%
X232970000Y-64905000D02*
X232970000Y-63635000D01*
D25*
X232970000Y-63665000D02*
X232970000Y-64905000D01*
X233000000Y-63635000D02*
X232970000Y-63665000D01*
D24*
X227430000Y-64470000D02*
X221200000Y-70700000D01*
X232970000Y-63635000D02*
X229891346Y-63635000D01*
X229891346Y-63635000D02*
X229056346Y-64470000D01*
X229056346Y-64470000D02*
X227430000Y-64470000D01*
D25*
%TO.N,/XTAL1*%
X213625000Y-78900000D02*
X213600000Y-78875000D01*
X217200000Y-78900000D02*
X213625000Y-78900000D01*
%TO.N,/XTAL2*%
X213725000Y-83800000D02*
X213600000Y-83925000D01*
X217200000Y-83800000D02*
X213725000Y-83800000D01*
D26*
%TO.N,/MOSI*%
X228820000Y-83400000D02*
X231080000Y-85660000D01*
X231080000Y-85660000D02*
X233350000Y-85660000D01*
%TO.N,/RESET*%
X231400000Y-55300000D02*
X235800000Y-55300000D01*
X242750000Y-62250000D02*
X242750000Y-73900000D01*
D24*
X238400000Y-78250000D02*
X238400000Y-83120000D01*
X234800000Y-73900000D02*
X242750000Y-73900000D01*
D26*
X237120000Y-83120000D02*
X238400000Y-83120000D01*
X235800000Y-55300000D02*
X242750000Y-62250000D01*
D24*
X242750000Y-73900000D02*
X238400000Y-78250000D01*
D26*
%TO.N,/SCK*%
X237740000Y-85000000D02*
X238400000Y-85660000D01*
X231820000Y-78320000D02*
X236500000Y-83000000D01*
X236500000Y-83000000D02*
X236500000Y-85000000D01*
X228820000Y-78320000D02*
X231820000Y-78320000D01*
X236500000Y-85000000D02*
X237740000Y-85000000D01*
%TO.N,/MISO*%
X236000000Y-86500000D02*
X237700000Y-88200000D01*
X236000000Y-83145000D02*
X236000000Y-86500000D01*
X237700000Y-88200000D02*
X238400000Y-88200000D01*
X228820000Y-80860000D02*
X233715000Y-80860000D01*
X233715000Y-80860000D02*
X236000000Y-83145000D01*
D24*
%TO.N,/L3*%
X231207106Y-93505000D02*
X235570000Y-93505000D01*
X231202106Y-93500000D02*
X231207106Y-93505000D01*
X249000000Y-86900000D02*
X249000000Y-85400000D01*
X244600000Y-91300000D02*
X249000000Y-86900000D01*
X235570000Y-93505000D02*
X237775000Y-91300000D01*
X220068630Y-63080000D02*
X217778630Y-60790000D01*
X221200000Y-63080000D02*
X220068630Y-63080000D01*
X237775000Y-91300000D02*
X244600000Y-91300000D01*
X217778630Y-60790000D02*
X213645000Y-60790000D01*
X249000000Y-85400000D02*
X246900000Y-83300000D01*
X229492106Y-95210000D02*
X231202106Y-93500000D01*
X221200000Y-63080000D02*
X221200000Y-62800000D01*
X221200000Y-63080000D02*
X227100000Y-57180000D01*
X227100000Y-95210000D02*
X229492106Y-95210000D01*
X227100000Y-57180000D02*
X227100000Y-52055000D01*
%TO.N,/L1*%
X213645000Y-53690000D02*
X215280000Y-52055000D01*
X218910000Y-55710000D02*
X213645000Y-55710000D01*
X213645000Y-55710000D02*
X213645000Y-53690000D01*
X221200000Y-58000000D02*
X218910000Y-55710000D01*
%TO.N,/L2*%
X217820000Y-91900000D02*
X212500000Y-91900000D01*
X219245000Y-60540000D02*
X216955000Y-58250000D01*
X216255000Y-48745000D02*
X217820000Y-48745000D01*
X207600000Y-91900000D02*
X207400000Y-92100000D01*
X211400811Y-58250000D02*
X206000000Y-52849189D01*
X207400000Y-49800000D02*
X215200000Y-49800000D01*
X206000000Y-52849189D02*
X206000000Y-51200000D01*
X206000000Y-51200000D02*
X207400000Y-49800000D01*
X212500000Y-91900000D02*
X207600000Y-91900000D01*
X221200000Y-60540000D02*
X219245000Y-60540000D01*
X211350000Y-90750000D02*
X212500000Y-91900000D01*
X211350000Y-74700000D02*
X211350000Y-90750000D01*
X215200000Y-49800000D02*
X216255000Y-48745000D01*
X216955000Y-58250000D02*
X211400811Y-58250000D01*
%TO.N,/R4*%
X220670000Y-77170000D02*
X216990000Y-73490000D01*
X222900000Y-91900000D02*
X226900000Y-91900000D01*
X233620000Y-93000000D02*
X234720000Y-91900000D01*
X226900000Y-91900000D02*
X229000000Y-94000000D01*
X229995000Y-94000000D02*
X230995000Y-93000000D01*
X223000000Y-84140000D02*
X223000000Y-78493654D01*
X223000000Y-78493654D02*
X221676346Y-77170000D01*
X221676346Y-77170000D02*
X220670000Y-77170000D01*
X221200000Y-85940000D02*
X223000000Y-84140000D01*
X222900000Y-87640000D02*
X222900000Y-91900000D01*
X221200000Y-85940000D02*
X222900000Y-87640000D01*
X216990000Y-73490000D02*
X216955000Y-73490000D01*
X230995000Y-93000000D02*
X233620000Y-93000000D01*
X229000000Y-94000000D02*
X229995000Y-94000000D01*
%TO.N,/R1*%
X218787893Y-65870000D02*
X213645000Y-65870000D01*
X218955000Y-52055000D02*
X217350000Y-50450000D01*
X221200000Y-68160000D02*
X221200000Y-67300000D01*
X214000000Y-65515000D02*
X213645000Y-65870000D01*
X219037893Y-66120000D02*
X218787893Y-65870000D01*
X232180000Y-52055000D02*
X246515000Y-52055000D01*
X213370000Y-65870000D02*
X207400000Y-71840000D01*
X217350000Y-50450000D02*
X209290000Y-50450000D01*
X232180000Y-48830000D02*
X230350000Y-47000000D01*
X220020000Y-66120000D02*
X219037893Y-66120000D01*
X213645000Y-65870000D02*
X213370000Y-65870000D01*
X230350000Y-47000000D02*
X227100000Y-47000000D01*
X232180000Y-52055000D02*
X232180000Y-48830000D01*
X246515000Y-52055000D02*
X246800000Y-52340000D01*
X214000000Y-64500000D02*
X214000000Y-65515000D01*
X209290000Y-50450000D02*
X207400000Y-52340000D01*
X221200000Y-67300000D02*
X220020000Y-66120000D01*
X222045000Y-52055000D02*
X220360000Y-52055000D01*
X220360000Y-52055000D02*
X218955000Y-52055000D01*
X227100000Y-47000000D02*
X222045000Y-52055000D01*
D27*
%TO.N,/R3*%
X227735000Y-96765000D02*
X228840000Y-95660000D01*
D24*
X217967893Y-95210000D02*
X220360000Y-95210000D01*
D27*
X230128502Y-95210000D02*
X232180000Y-95210000D01*
D24*
X208750000Y-90750000D02*
X206050000Y-90750000D01*
X206050000Y-95199189D02*
X206840811Y-95990000D01*
D27*
X224910000Y-95210000D02*
X226465000Y-96765000D01*
X229678502Y-95660000D02*
X230128502Y-95210000D01*
X220360000Y-95210000D02*
X224910000Y-95210000D01*
D24*
X221200000Y-83400000D02*
X220050000Y-84550000D01*
X213645000Y-70950000D02*
X210500000Y-74095000D01*
X220050000Y-84550000D02*
X220050000Y-94900000D01*
X210500000Y-74095000D02*
X210500000Y-89000000D01*
X206050000Y-90750000D02*
X206050000Y-95199189D01*
X210500000Y-89000000D02*
X208750000Y-90750000D01*
X220050000Y-94900000D02*
X220360000Y-95210000D01*
D27*
X228840000Y-95660000D02*
X229678502Y-95660000D01*
D24*
X206840811Y-95990000D02*
X212045000Y-95990000D01*
X214430000Y-93605000D02*
X216362893Y-93605000D01*
X212045000Y-95990000D02*
X214430000Y-93605000D01*
D27*
X226465000Y-96765000D02*
X227735000Y-96765000D01*
D24*
X216362893Y-93605000D02*
X217967893Y-95210000D01*
%TO.N,/R2*%
X219000000Y-93000000D02*
X219000000Y-93175000D01*
X234720000Y-48745000D02*
X232475000Y-46500000D01*
X216955000Y-68410000D02*
X217000000Y-68455000D01*
X221200000Y-81355635D02*
X221200000Y-80860000D01*
X219500000Y-92500000D02*
X219500000Y-83055635D01*
X219000000Y-93000000D02*
X219500000Y-92500000D01*
X219500000Y-83055635D02*
X221200000Y-81355635D01*
X219000000Y-78660000D02*
X221200000Y-80860000D01*
X218670000Y-93505000D02*
X216970000Y-93505000D01*
X215350000Y-72350000D02*
X215350000Y-74450000D01*
X216970000Y-93505000D02*
X215965000Y-92500000D01*
X215350000Y-74450000D02*
X219000000Y-78100000D01*
X217000000Y-68455000D02*
X217000000Y-70700000D01*
X232475000Y-46500000D02*
X225145000Y-46500000D01*
X209540000Y-92500000D02*
X207400000Y-94640000D01*
X217000000Y-70700000D02*
X215350000Y-72350000D01*
X225145000Y-46500000D02*
X222900000Y-48745000D01*
X219000000Y-78100000D02*
X219000000Y-78660000D01*
X219000000Y-93175000D02*
X218670000Y-93505000D01*
X215965000Y-92500000D02*
X209540000Y-92500000D01*
%TO.N,/L4*%
X227670000Y-59150000D02*
X227670000Y-54983654D01*
X225400000Y-89500000D02*
X227800000Y-91900000D01*
X216955000Y-63330000D02*
X213370000Y-63330000D01*
X221200000Y-65620000D02*
X219245000Y-65620000D01*
X227800000Y-91900000D02*
X229640000Y-91900000D01*
X221200000Y-65620000D02*
X227670000Y-59150000D01*
X213370000Y-63330000D02*
X207400000Y-69300000D01*
X227670000Y-54983654D02*
X229640000Y-53013654D01*
X229640000Y-53013654D02*
X229640000Y-48745000D01*
X225400000Y-72300000D02*
X225400000Y-89500000D01*
X219245000Y-65620000D02*
X216955000Y-63330000D01*
D28*
%TO.N,GND*%
X222460000Y-73240000D02*
X225000000Y-70700000D01*
X225000000Y-70700000D02*
X228820000Y-70700000D01*
X221200000Y-73240000D02*
X222460000Y-73240000D01*
D25*
X233488413Y-82981587D02*
X233350000Y-83120000D01*
D28*
X213600000Y-80600000D02*
X213600000Y-82200000D01*
D25*
X232970000Y-67445000D02*
X232970000Y-66175000D01*
D28*
X230800000Y-70700000D02*
X232970000Y-68530000D01*
X232970000Y-68530000D02*
X232970000Y-67445000D01*
X228820000Y-70700000D02*
X230800000Y-70700000D01*
D26*
%TO.N,/SDA*%
X230195000Y-59375000D02*
X230195000Y-60440000D01*
X232970000Y-61095000D02*
X232970000Y-62365000D01*
X230850000Y-61095000D02*
X232970000Y-61095000D01*
X230195000Y-60440000D02*
X230850000Y-61095000D01*
X228820000Y-58000000D02*
X230195000Y-59375000D01*
%TO.N,/SCL*%
X231915000Y-58555000D02*
X232970000Y-58555000D01*
X232970000Y-58555000D02*
X232970000Y-59825000D01*
X228820000Y-55460000D02*
X231915000Y-58555000D01*
%TD*%
%TA.AperFunction,Conductor*%
%TO.N,GND*%
G36*
X224828934Y-45720185D02*
G01*
X224874689Y-45772989D01*
X224884633Y-45842147D01*
X224855608Y-45905703D01*
X224830786Y-45927602D01*
X224730327Y-45994725D01*
X223725278Y-46999774D01*
X223663955Y-47033259D01*
X223594265Y-47028275D01*
X223507485Y-46995909D01*
X223507483Y-46995908D01*
X223447883Y-46989501D01*
X223447881Y-46989500D01*
X223447873Y-46989500D01*
X223447864Y-46989500D01*
X222352129Y-46989500D01*
X222352123Y-46989501D01*
X222292516Y-46995908D01*
X222157671Y-47046202D01*
X222157664Y-47046206D01*
X222042455Y-47132452D01*
X222042452Y-47132455D01*
X221956206Y-47247664D01*
X221956202Y-47247671D01*
X221905908Y-47382517D01*
X221899501Y-47442116D01*
X221899501Y-47442123D01*
X221899500Y-47442135D01*
X221899500Y-50047870D01*
X221899501Y-50047876D01*
X221905908Y-50107483D01*
X221956202Y-50242328D01*
X221956206Y-50242335D01*
X222042452Y-50357544D01*
X222042455Y-50357547D01*
X222157664Y-50443793D01*
X222157671Y-50443797D01*
X222168825Y-50447957D01*
X222292517Y-50494091D01*
X222352127Y-50500500D01*
X222380190Y-50500499D01*
X222447227Y-50520181D01*
X222492984Y-50572984D01*
X222502929Y-50642142D01*
X222473907Y-50705699D01*
X222467872Y-50712180D01*
X221811873Y-51368181D01*
X221750550Y-51401666D01*
X221724192Y-51404500D01*
X221484499Y-51404500D01*
X221417460Y-51384815D01*
X221371705Y-51332011D01*
X221360499Y-51280500D01*
X221360499Y-50752129D01*
X221360498Y-50752123D01*
X221360497Y-50752116D01*
X221354091Y-50692517D01*
X221342464Y-50661344D01*
X221303797Y-50557671D01*
X221303793Y-50557664D01*
X221217547Y-50442455D01*
X221217544Y-50442452D01*
X221102335Y-50356206D01*
X221102328Y-50356202D01*
X220967482Y-50305908D01*
X220967483Y-50305908D01*
X220907883Y-50299501D01*
X220907881Y-50299500D01*
X220907873Y-50299500D01*
X220907864Y-50299500D01*
X219812129Y-50299500D01*
X219812123Y-50299501D01*
X219752516Y-50305908D01*
X219617671Y-50356202D01*
X219617664Y-50356206D01*
X219502455Y-50442452D01*
X219502452Y-50442455D01*
X219416206Y-50557664D01*
X219416202Y-50557671D01*
X219365908Y-50692517D01*
X219359501Y-50752116D01*
X219359501Y-50752123D01*
X219359500Y-50752135D01*
X219359500Y-51240192D01*
X219339815Y-51307231D01*
X219287011Y-51352986D01*
X219217853Y-51362930D01*
X219154297Y-51333905D01*
X219147819Y-51327873D01*
X218481290Y-50661344D01*
X218447805Y-50600021D01*
X218452789Y-50530329D01*
X218494661Y-50474396D01*
X218525635Y-50457482D01*
X218562331Y-50443796D01*
X218677546Y-50357546D01*
X218763796Y-50242331D01*
X218814091Y-50107483D01*
X218820500Y-50047873D01*
X218820499Y-47442128D01*
X218814091Y-47382517D01*
X218813743Y-47381585D01*
X218763797Y-47247671D01*
X218763793Y-47247664D01*
X218677547Y-47132455D01*
X218677544Y-47132452D01*
X218562335Y-47046206D01*
X218562328Y-47046202D01*
X218427482Y-46995908D01*
X218427483Y-46995908D01*
X218367883Y-46989501D01*
X218367881Y-46989500D01*
X218367873Y-46989500D01*
X218367864Y-46989500D01*
X217272129Y-46989500D01*
X217272123Y-46989501D01*
X217212516Y-46995908D01*
X217077671Y-47046202D01*
X217077664Y-47046206D01*
X216962455Y-47132452D01*
X216962452Y-47132455D01*
X216876206Y-47247664D01*
X216876202Y-47247671D01*
X216825908Y-47382517D01*
X216819501Y-47442116D01*
X216819501Y-47442123D01*
X216819500Y-47442135D01*
X216819500Y-47970500D01*
X216799815Y-48037539D01*
X216747011Y-48083294D01*
X216695500Y-48094500D01*
X216190929Y-48094500D01*
X216065261Y-48119497D01*
X216065255Y-48119499D01*
X215946870Y-48168535D01*
X215840331Y-48239722D01*
X215840324Y-48239728D01*
X214966873Y-49113181D01*
X214905550Y-49146666D01*
X214879192Y-49149500D01*
X209024499Y-49149500D01*
X208957460Y-49129815D01*
X208911705Y-49077011D01*
X208900499Y-49025500D01*
X208900499Y-48752129D01*
X208900498Y-48752123D01*
X208900497Y-48752116D01*
X208894091Y-48692517D01*
X208883621Y-48664446D01*
X208843797Y-48557671D01*
X208843793Y-48557664D01*
X208757547Y-48442455D01*
X208757544Y-48442452D01*
X208642335Y-48356206D01*
X208642328Y-48356202D01*
X208507482Y-48305908D01*
X208507483Y-48305908D01*
X208447883Y-48299501D01*
X208447881Y-48299500D01*
X208447873Y-48299500D01*
X208447864Y-48299500D01*
X206352129Y-48299500D01*
X206352123Y-48299501D01*
X206292516Y-48305908D01*
X206157671Y-48356202D01*
X206157664Y-48356206D01*
X206042455Y-48442452D01*
X206042452Y-48442455D01*
X205956206Y-48557664D01*
X205956202Y-48557671D01*
X205905908Y-48692517D01*
X205899501Y-48752116D01*
X205899501Y-48752123D01*
X205899500Y-48752135D01*
X205899500Y-50329191D01*
X205879815Y-50396230D01*
X205863181Y-50416872D01*
X205494725Y-50785328D01*
X205494719Y-50785336D01*
X205441711Y-50864668D01*
X205441712Y-50864669D01*
X205423534Y-50891874D01*
X205374499Y-51010255D01*
X205374497Y-51010261D01*
X205349500Y-51135928D01*
X205349500Y-51135931D01*
X205349500Y-52913258D01*
X205364865Y-52990499D01*
X205374499Y-53038933D01*
X205423534Y-53157314D01*
X205494726Y-53263862D01*
X205494727Y-53263863D01*
X210895535Y-58664669D01*
X210986142Y-58755276D01*
X210986143Y-58755277D01*
X211092677Y-58826461D01*
X211092683Y-58826464D01*
X211092684Y-58826465D01*
X211211067Y-58875501D01*
X211211071Y-58875501D01*
X211211072Y-58875502D01*
X211336739Y-58900500D01*
X211336742Y-58900500D01*
X215135859Y-58900500D01*
X215202898Y-58920185D01*
X215248653Y-58972989D01*
X215252030Y-58981140D01*
X215256204Y-58992331D01*
X215256205Y-58992332D01*
X215256206Y-58992335D01*
X215342452Y-59107544D01*
X215342455Y-59107547D01*
X215457664Y-59193793D01*
X215457671Y-59193797D01*
X215592517Y-59244091D01*
X215592516Y-59244091D01*
X215599444Y-59244835D01*
X215652127Y-59250500D01*
X216984191Y-59250499D01*
X217051230Y-59270184D01*
X217071872Y-59286818D01*
X217712873Y-59927819D01*
X217746358Y-59989142D01*
X217741374Y-60058834D01*
X217699502Y-60114767D01*
X217634038Y-60139184D01*
X217625192Y-60139500D01*
X215464141Y-60139500D01*
X215397102Y-60119815D01*
X215351347Y-60067011D01*
X215347969Y-60058859D01*
X215343796Y-60047669D01*
X215343793Y-60047665D01*
X215343793Y-60047664D01*
X215257547Y-59932455D01*
X215257544Y-59932452D01*
X215142335Y-59846206D01*
X215142328Y-59846202D01*
X215007482Y-59795908D01*
X215007483Y-59795908D01*
X214947883Y-59789501D01*
X214947881Y-59789500D01*
X214947873Y-59789500D01*
X214947864Y-59789500D01*
X212342129Y-59789500D01*
X212342123Y-59789501D01*
X212282516Y-59795908D01*
X212147671Y-59846202D01*
X212147664Y-59846206D01*
X212032455Y-59932452D01*
X212032452Y-59932455D01*
X211946206Y-60047664D01*
X211946202Y-60047671D01*
X211895908Y-60182517D01*
X211889501Y-60242116D01*
X211889500Y-60242135D01*
X211889500Y-61337870D01*
X211889501Y-61337876D01*
X211895908Y-61397483D01*
X211946202Y-61532328D01*
X211946206Y-61532335D01*
X212032452Y-61647544D01*
X212032455Y-61647547D01*
X212147664Y-61733793D01*
X212147671Y-61733797D01*
X212282517Y-61784091D01*
X212282516Y-61784091D01*
X212289444Y-61784835D01*
X212342127Y-61790500D01*
X214947872Y-61790499D01*
X215007483Y-61784091D01*
X215142331Y-61733796D01*
X215257546Y-61647546D01*
X215343796Y-61532331D01*
X215347960Y-61521165D01*
X215389829Y-61465234D01*
X215455293Y-61440816D01*
X215464141Y-61440500D01*
X217457822Y-61440500D01*
X217524861Y-61460185D01*
X217545503Y-61476819D01*
X218186503Y-62117819D01*
X218219988Y-62179142D01*
X218215004Y-62248834D01*
X218173132Y-62304767D01*
X218107668Y-62329184D01*
X218098822Y-62329500D01*
X215652129Y-62329500D01*
X215652123Y-62329501D01*
X215592516Y-62335908D01*
X215457671Y-62386202D01*
X215457664Y-62386206D01*
X215342455Y-62472452D01*
X215342452Y-62472455D01*
X215256206Y-62587664D01*
X215256204Y-62587668D01*
X215256204Y-62587669D01*
X215252039Y-62598834D01*
X215210171Y-62654766D01*
X215144707Y-62679184D01*
X215135859Y-62679500D01*
X213305929Y-62679500D01*
X213180261Y-62704497D01*
X213180255Y-62704499D01*
X213061874Y-62753534D01*
X212955326Y-62824726D01*
X208016871Y-67763181D01*
X207955548Y-67796666D01*
X207929190Y-67799500D01*
X206352129Y-67799500D01*
X206352123Y-67799501D01*
X206292516Y-67805908D01*
X206157671Y-67856202D01*
X206157664Y-67856206D01*
X206042455Y-67942452D01*
X206042452Y-67942455D01*
X205956206Y-68057664D01*
X205956202Y-68057671D01*
X205905908Y-68192517D01*
X205899501Y-68252116D01*
X205899500Y-68252135D01*
X205899500Y-70347870D01*
X205899501Y-70347876D01*
X205905908Y-70407483D01*
X205956202Y-70542328D01*
X205956206Y-70542335D01*
X206042452Y-70657544D01*
X206042455Y-70657547D01*
X206157664Y-70743793D01*
X206162361Y-70746358D01*
X206211766Y-70795764D01*
X206226617Y-70864037D01*
X206206742Y-70923011D01*
X206075826Y-71123393D01*
X205975936Y-71351118D01*
X205914892Y-71592175D01*
X205914890Y-71592187D01*
X205894357Y-71839994D01*
X205894357Y-71840005D01*
X205914890Y-72087812D01*
X205914892Y-72087824D01*
X205975936Y-72328881D01*
X206075826Y-72556606D01*
X206211833Y-72764782D01*
X206211836Y-72764785D01*
X206380256Y-72947738D01*
X206576491Y-73100474D01*
X206795190Y-73218828D01*
X207030386Y-73299571D01*
X207275665Y-73340500D01*
X207524335Y-73340500D01*
X207769614Y-73299571D01*
X208004810Y-73218828D01*
X208223509Y-73100474D01*
X208419744Y-72947738D01*
X208588164Y-72764785D01*
X208724173Y-72556607D01*
X208824063Y-72328881D01*
X208885108Y-72087821D01*
X208885582Y-72082106D01*
X208905643Y-71840005D01*
X208905643Y-71839994D01*
X208885109Y-71592187D01*
X208885108Y-71592183D01*
X208885108Y-71592179D01*
X208838280Y-71407260D01*
X208840904Y-71337442D01*
X208870802Y-71289142D01*
X213253127Y-66906818D01*
X213314450Y-66873333D01*
X213340808Y-66870499D01*
X214947871Y-66870499D01*
X214947872Y-66870499D01*
X215007483Y-66864091D01*
X215142331Y-66813796D01*
X215257546Y-66727546D01*
X215343796Y-66612331D01*
X215347960Y-66601165D01*
X215389829Y-66545234D01*
X215455293Y-66520816D01*
X215464141Y-66520500D01*
X218467085Y-66520500D01*
X218534124Y-66540185D01*
X218554761Y-66556814D01*
X218597527Y-66599580D01*
X218623223Y-66625276D01*
X218623224Y-66625277D01*
X218729764Y-66696464D01*
X218729763Y-66696464D01*
X218764437Y-66710826D01*
X218848149Y-66745501D01*
X218848153Y-66745501D01*
X218848154Y-66745502D01*
X218973821Y-66770500D01*
X218973824Y-66770500D01*
X219699192Y-66770500D01*
X219766231Y-66790185D01*
X219786873Y-66806819D01*
X220167959Y-67187905D01*
X220201444Y-67249228D01*
X220196460Y-67318920D01*
X220181854Y-67346708D01*
X220069431Y-67507267D01*
X219973261Y-67713502D01*
X219973258Y-67713511D01*
X219914366Y-67933302D01*
X219914364Y-67933313D01*
X219894532Y-68159998D01*
X219894532Y-68160001D01*
X219914364Y-68386686D01*
X219914366Y-68386697D01*
X219973258Y-68606488D01*
X219973261Y-68606497D01*
X220069431Y-68812732D01*
X220069432Y-68812734D01*
X220199954Y-68999141D01*
X220360858Y-69160045D01*
X220360861Y-69160047D01*
X220547266Y-69290568D01*
X220605275Y-69317618D01*
X220657714Y-69363791D01*
X220676866Y-69430984D01*
X220656650Y-69497865D01*
X220605275Y-69542382D01*
X220547267Y-69569431D01*
X220547265Y-69569432D01*
X220360858Y-69699954D01*
X220199954Y-69860858D01*
X220069432Y-70047265D01*
X220069431Y-70047267D01*
X219973261Y-70253502D01*
X219973258Y-70253511D01*
X219914366Y-70473302D01*
X219914364Y-70473313D01*
X219894532Y-70699998D01*
X219894532Y-70700001D01*
X219914364Y-70926686D01*
X219914366Y-70926697D01*
X219973258Y-71146488D01*
X219973261Y-71146497D01*
X220069431Y-71352732D01*
X220069432Y-71352734D01*
X220199954Y-71539141D01*
X220360858Y-71700045D01*
X220360861Y-71700047D01*
X220547266Y-71830568D01*
X220605865Y-71857893D01*
X220658305Y-71904065D01*
X220677457Y-71971258D01*
X220657242Y-72038139D01*
X220605867Y-72082657D01*
X220547515Y-72109867D01*
X220361179Y-72240342D01*
X220200342Y-72401179D01*
X220069865Y-72587517D01*
X219973734Y-72793673D01*
X219973730Y-72793682D01*
X219921127Y-72989999D01*
X219921128Y-72990000D01*
X220884314Y-72990000D01*
X220879920Y-72994394D01*
X220827259Y-73085606D01*
X220800000Y-73187339D01*
X220800000Y-73292661D01*
X220827259Y-73394394D01*
X220879920Y-73485606D01*
X220884314Y-73490000D01*
X219921128Y-73490000D01*
X219973730Y-73686317D01*
X219973734Y-73686326D01*
X220069865Y-73892482D01*
X220200342Y-74078820D01*
X220361179Y-74239657D01*
X220547518Y-74370134D01*
X220547520Y-74370135D01*
X220605865Y-74397342D01*
X220658305Y-74443514D01*
X220677457Y-74510707D01*
X220657242Y-74577589D01*
X220605867Y-74622105D01*
X220547268Y-74649431D01*
X220547264Y-74649433D01*
X220360858Y-74779954D01*
X220199954Y-74940858D01*
X220069432Y-75127265D01*
X220069431Y-75127267D01*
X219978199Y-75322914D01*
X219932026Y-75375353D01*
X219864833Y-75394505D01*
X219797952Y-75374289D01*
X219778136Y-75358190D01*
X218709732Y-74289786D01*
X218676247Y-74228463D01*
X218681230Y-74158774D01*
X218704091Y-74097483D01*
X218710500Y-74037873D01*
X218710499Y-72942128D01*
X218704091Y-72882517D01*
X218688233Y-72840000D01*
X218653797Y-72747671D01*
X218653793Y-72747664D01*
X218567547Y-72632455D01*
X218567544Y-72632452D01*
X218452335Y-72546206D01*
X218452328Y-72546202D01*
X218317482Y-72495908D01*
X218317483Y-72495908D01*
X218257883Y-72489501D01*
X218257881Y-72489500D01*
X218257873Y-72489500D01*
X218257865Y-72489500D01*
X216429807Y-72489500D01*
X216362768Y-72469815D01*
X216317013Y-72417011D01*
X216307069Y-72347853D01*
X216336094Y-72284297D01*
X216342126Y-72277819D01*
X216822208Y-71797738D01*
X217505276Y-71114670D01*
X217540870Y-71061398D01*
X217576464Y-71008129D01*
X217576465Y-71008127D01*
X217625501Y-70889744D01*
X217643253Y-70800499D01*
X217650500Y-70764069D01*
X217650500Y-69534499D01*
X217670185Y-69467460D01*
X217722989Y-69421705D01*
X217774500Y-69410499D01*
X218257871Y-69410499D01*
X218257872Y-69410499D01*
X218317483Y-69404091D01*
X218452331Y-69353796D01*
X218567546Y-69267546D01*
X218653796Y-69152331D01*
X218704091Y-69017483D01*
X218710500Y-68957873D01*
X218710499Y-67862128D01*
X218704091Y-67802517D01*
X218687318Y-67757547D01*
X218653797Y-67667671D01*
X218653793Y-67667664D01*
X218567547Y-67552455D01*
X218567544Y-67552452D01*
X218452335Y-67466206D01*
X218452328Y-67466202D01*
X218317482Y-67415908D01*
X218317483Y-67415908D01*
X218257883Y-67409501D01*
X218257881Y-67409500D01*
X218257873Y-67409500D01*
X218257864Y-67409500D01*
X215652129Y-67409500D01*
X215652123Y-67409501D01*
X215592516Y-67415908D01*
X215457671Y-67466202D01*
X215457664Y-67466206D01*
X215342455Y-67552452D01*
X215342452Y-67552455D01*
X215256206Y-67667664D01*
X215256202Y-67667671D01*
X215205908Y-67802517D01*
X215199501Y-67862116D01*
X215199501Y-67862123D01*
X215199500Y-67862135D01*
X215199500Y-68957870D01*
X215199501Y-68957876D01*
X215205908Y-69017483D01*
X215256202Y-69152328D01*
X215256206Y-69152335D01*
X215342452Y-69267544D01*
X215342455Y-69267547D01*
X215457664Y-69353793D01*
X215457671Y-69353797D01*
X215502618Y-69370561D01*
X215592517Y-69404091D01*
X215652127Y-69410500D01*
X216225500Y-69410499D01*
X216292539Y-69430183D01*
X216338294Y-69482987D01*
X216349500Y-69534499D01*
X216349500Y-70379191D01*
X216329815Y-70446230D01*
X216313181Y-70466872D01*
X215612180Y-71167873D01*
X215550857Y-71201358D01*
X215481165Y-71196374D01*
X215425232Y-71154502D01*
X215400815Y-71089038D01*
X215400499Y-71080192D01*
X215400499Y-70402129D01*
X215400498Y-70402123D01*
X215400497Y-70402116D01*
X215394091Y-70342517D01*
X215383104Y-70313060D01*
X215343797Y-70207671D01*
X215343793Y-70207664D01*
X215257547Y-70092455D01*
X215257544Y-70092452D01*
X215142335Y-70006206D01*
X215142328Y-70006202D01*
X215007482Y-69955908D01*
X215007483Y-69955908D01*
X214947883Y-69949501D01*
X214947881Y-69949500D01*
X214947873Y-69949500D01*
X214947864Y-69949500D01*
X212342129Y-69949500D01*
X212342123Y-69949501D01*
X212282516Y-69955908D01*
X212147671Y-70006202D01*
X212147664Y-70006206D01*
X212032455Y-70092452D01*
X212032452Y-70092455D01*
X211946206Y-70207664D01*
X211946202Y-70207671D01*
X211895908Y-70342517D01*
X211889501Y-70402116D01*
X211889501Y-70402123D01*
X211889500Y-70402135D01*
X211889500Y-71497870D01*
X211889501Y-71497876D01*
X211895909Y-71557485D01*
X211928275Y-71644265D01*
X211933259Y-71713957D01*
X211899774Y-71775278D01*
X209994726Y-73680326D01*
X209923534Y-73786874D01*
X209874499Y-73905255D01*
X209874497Y-73905261D01*
X209849500Y-74030928D01*
X209849500Y-88679192D01*
X209829815Y-88746231D01*
X209813181Y-88766873D01*
X208516873Y-90063181D01*
X208455550Y-90096666D01*
X208429192Y-90099500D01*
X205985929Y-90099500D01*
X205860261Y-90124497D01*
X205860255Y-90124499D01*
X205741875Y-90173533D01*
X205741866Y-90173538D01*
X205635331Y-90244723D01*
X205635327Y-90244726D01*
X205544726Y-90335327D01*
X205544723Y-90335331D01*
X205473538Y-90441866D01*
X205473533Y-90441875D01*
X205424499Y-90560255D01*
X205424497Y-90560261D01*
X205399500Y-90685928D01*
X205399500Y-95263258D01*
X205409727Y-95314668D01*
X205409727Y-95314671D01*
X205424497Y-95388925D01*
X205424499Y-95388933D01*
X205473534Y-95507314D01*
X205544726Y-95613862D01*
X206426136Y-96495272D01*
X206426143Y-96495278D01*
X206482921Y-96533215D01*
X206532685Y-96566466D01*
X206602032Y-96595189D01*
X206651067Y-96615501D01*
X206651070Y-96615501D01*
X206651071Y-96615502D01*
X206776739Y-96640500D01*
X206776742Y-96640500D01*
X212109071Y-96640500D01*
X212193615Y-96623682D01*
X212234744Y-96615501D01*
X212353127Y-96566465D01*
X212402888Y-96533216D01*
X212459669Y-96495277D01*
X214067819Y-94887125D01*
X214129142Y-94853641D01*
X214198833Y-94858625D01*
X214254767Y-94900497D01*
X214279184Y-94965961D01*
X214279500Y-94974807D01*
X214279500Y-96512870D01*
X214279501Y-96512876D01*
X214285908Y-96572483D01*
X214336202Y-96707328D01*
X214336206Y-96707335D01*
X214422452Y-96822544D01*
X214422455Y-96822547D01*
X214537664Y-96908793D01*
X214537671Y-96908797D01*
X214672517Y-96959091D01*
X214672516Y-96959091D01*
X214679444Y-96959835D01*
X214732127Y-96965500D01*
X215827872Y-96965499D01*
X215887483Y-96959091D01*
X216022331Y-96908796D01*
X216137546Y-96822546D01*
X216223796Y-96707331D01*
X216274091Y-96572483D01*
X216280500Y-96512873D01*
X216280499Y-94741913D01*
X216300184Y-94674875D01*
X216352987Y-94629120D01*
X216422146Y-94619176D01*
X216485702Y-94648201D01*
X216492180Y-94654233D01*
X217553218Y-95715272D01*
X217553221Y-95715275D01*
X217634492Y-95769578D01*
X217634491Y-95769578D01*
X217653467Y-95782256D01*
X217659766Y-95786465D01*
X217778149Y-95835501D01*
X217778153Y-95835501D01*
X217778154Y-95835502D01*
X217903821Y-95860500D01*
X217903824Y-95860500D01*
X218031962Y-95860500D01*
X219235501Y-95860500D01*
X219302540Y-95880185D01*
X219348295Y-95932989D01*
X219359501Y-95984500D01*
X219359501Y-96512876D01*
X219365908Y-96572483D01*
X219416202Y-96707328D01*
X219416206Y-96707335D01*
X219502452Y-96822544D01*
X219502455Y-96822547D01*
X219617664Y-96908793D01*
X219617671Y-96908797D01*
X219752517Y-96959091D01*
X219752516Y-96959091D01*
X219759444Y-96959835D01*
X219812127Y-96965500D01*
X220907872Y-96965499D01*
X220967483Y-96959091D01*
X221102331Y-96908796D01*
X221217546Y-96822546D01*
X221303796Y-96707331D01*
X221354091Y-96572483D01*
X221360500Y-96512873D01*
X221360500Y-95934500D01*
X221380185Y-95867461D01*
X221432989Y-95821706D01*
X221484500Y-95810500D01*
X224609903Y-95810500D01*
X224676942Y-95830185D01*
X224697584Y-95846819D01*
X225980139Y-97129374D01*
X225980149Y-97129385D01*
X225984479Y-97133715D01*
X225984480Y-97133716D01*
X226096284Y-97245520D01*
X226183095Y-97295639D01*
X226183097Y-97295641D01*
X226221151Y-97317611D01*
X226233215Y-97324577D01*
X226385943Y-97365500D01*
X227648331Y-97365500D01*
X227648347Y-97365501D01*
X227655943Y-97365501D01*
X227814054Y-97365501D01*
X227814057Y-97365501D01*
X227966785Y-97324577D01*
X228016904Y-97295639D01*
X228103716Y-97245520D01*
X228215520Y-97133716D01*
X228215520Y-97133714D01*
X228225728Y-97123507D01*
X228225729Y-97123504D01*
X229052416Y-96296819D01*
X229113739Y-96263334D01*
X229140097Y-96260500D01*
X229591833Y-96260500D01*
X229591849Y-96260501D01*
X229599445Y-96260501D01*
X229757556Y-96260501D01*
X229757559Y-96260501D01*
X229910287Y-96219577D01*
X229979279Y-96179744D01*
X230047218Y-96140520D01*
X230159022Y-96028716D01*
X230159022Y-96028714D01*
X230169223Y-96018514D01*
X230169226Y-96018509D01*
X230340919Y-95846816D01*
X230402242Y-95813334D01*
X230428599Y-95810500D01*
X231055501Y-95810500D01*
X231122540Y-95830185D01*
X231168295Y-95882989D01*
X231179501Y-95934500D01*
X231179501Y-96512876D01*
X231185908Y-96572483D01*
X231236202Y-96707328D01*
X231236206Y-96707335D01*
X231322452Y-96822544D01*
X231322455Y-96822547D01*
X231437664Y-96908793D01*
X231437671Y-96908797D01*
X231572517Y-96959091D01*
X231572516Y-96959091D01*
X231579444Y-96959835D01*
X231632127Y-96965500D01*
X232727872Y-96965499D01*
X232787483Y-96959091D01*
X232922331Y-96908796D01*
X233037546Y-96822546D01*
X233123796Y-96707331D01*
X233174091Y-96572483D01*
X233180500Y-96512873D01*
X233180499Y-94279499D01*
X233200184Y-94212461D01*
X233252987Y-94166706D01*
X233304499Y-94155500D01*
X235634071Y-94155500D01*
X235724850Y-94137442D01*
X235759744Y-94130501D01*
X235878127Y-94081465D01*
X235904161Y-94064070D01*
X235904162Y-94064070D01*
X235969451Y-94020445D01*
X235984669Y-94010277D01*
X238008127Y-91986819D01*
X238069450Y-91953334D01*
X238095808Y-91950500D01*
X244664071Y-91950500D01*
X244748615Y-91933682D01*
X244789744Y-91925501D01*
X244908127Y-91876465D01*
X244948482Y-91849501D01*
X245014669Y-91805277D01*
X245087819Y-91732126D01*
X245149141Y-91698642D01*
X245218833Y-91703626D01*
X245274767Y-91745497D01*
X245299184Y-91810961D01*
X245299500Y-91819808D01*
X245299500Y-93147870D01*
X245299501Y-93147876D01*
X245305908Y-93207483D01*
X245356202Y-93342328D01*
X245356206Y-93342335D01*
X245442452Y-93457544D01*
X245442455Y-93457547D01*
X245557664Y-93543793D01*
X245562361Y-93546358D01*
X245611766Y-93595764D01*
X245626617Y-93664037D01*
X245606742Y-93723011D01*
X245475826Y-93923393D01*
X245375936Y-94151118D01*
X245314892Y-94392175D01*
X245314890Y-94392187D01*
X245294357Y-94639994D01*
X245294357Y-94640005D01*
X245314890Y-94887812D01*
X245314892Y-94887824D01*
X245375936Y-95128881D01*
X245475826Y-95356606D01*
X245611833Y-95564782D01*
X245611836Y-95564785D01*
X245780256Y-95747738D01*
X245976491Y-95900474D01*
X246195190Y-96018828D01*
X246430386Y-96099571D01*
X246675665Y-96140500D01*
X246924335Y-96140500D01*
X247169614Y-96099571D01*
X247404810Y-96018828D01*
X247623509Y-95900474D01*
X247819744Y-95747738D01*
X247988164Y-95564785D01*
X248124173Y-95356607D01*
X248224063Y-95128881D01*
X248285108Y-94887821D01*
X248285166Y-94887126D01*
X248305643Y-94640005D01*
X248305643Y-94639994D01*
X248285109Y-94392187D01*
X248285107Y-94392175D01*
X248224063Y-94151118D01*
X248140448Y-93960497D01*
X248124173Y-93923393D01*
X247993256Y-93723009D01*
X247973070Y-93656122D01*
X247992250Y-93588936D01*
X248037642Y-93546356D01*
X248042323Y-93543798D01*
X248042331Y-93543796D01*
X248157546Y-93457546D01*
X248243796Y-93342331D01*
X248294091Y-93207483D01*
X248300500Y-93147873D01*
X248300499Y-91052128D01*
X248294091Y-90992517D01*
X248243796Y-90857669D01*
X248243795Y-90857668D01*
X248243793Y-90857664D01*
X248157547Y-90742455D01*
X248157544Y-90742452D01*
X248042335Y-90656206D01*
X248042328Y-90656202D01*
X247907482Y-90605908D01*
X247907483Y-90605908D01*
X247847883Y-90599501D01*
X247847881Y-90599500D01*
X247847873Y-90599500D01*
X247847865Y-90599500D01*
X246519807Y-90599500D01*
X246452768Y-90579815D01*
X246407013Y-90527011D01*
X246397069Y-90457853D01*
X246426094Y-90394297D01*
X246432126Y-90387819D01*
X247762401Y-89057544D01*
X249505277Y-87314669D01*
X249547949Y-87250802D01*
X249547951Y-87250802D01*
X249562255Y-87229392D01*
X249576465Y-87208127D01*
X249625501Y-87089744D01*
X249633682Y-87048615D01*
X249650500Y-86964071D01*
X249650500Y-85335928D01*
X249625502Y-85210261D01*
X249625501Y-85210260D01*
X249625501Y-85210256D01*
X249576465Y-85091873D01*
X249572908Y-85086549D01*
X249565701Y-85075762D01*
X249565701Y-85075761D01*
X249505279Y-84985334D01*
X249505273Y-84985326D01*
X248436818Y-83916871D01*
X248403333Y-83855548D01*
X248400499Y-83829190D01*
X248400499Y-82252129D01*
X248400498Y-82252123D01*
X248400497Y-82252116D01*
X248394091Y-82192517D01*
X248388859Y-82178490D01*
X248343797Y-82057671D01*
X248343793Y-82057664D01*
X248257547Y-81942455D01*
X248257544Y-81942452D01*
X248142335Y-81856206D01*
X248142328Y-81856202D01*
X248007482Y-81805908D01*
X248007483Y-81805908D01*
X247947883Y-81799501D01*
X247947881Y-81799500D01*
X247947873Y-81799500D01*
X247947864Y-81799500D01*
X245852129Y-81799500D01*
X245852123Y-81799501D01*
X245792516Y-81805908D01*
X245657671Y-81856202D01*
X245657664Y-81856206D01*
X245542455Y-81942452D01*
X245542452Y-81942455D01*
X245456206Y-82057664D01*
X245456202Y-82057671D01*
X245405908Y-82192517D01*
X245399501Y-82252116D01*
X245399501Y-82252123D01*
X245399500Y-82252135D01*
X245399500Y-84347870D01*
X245399501Y-84347876D01*
X245405908Y-84407483D01*
X245456202Y-84542328D01*
X245456206Y-84542335D01*
X245542452Y-84657544D01*
X245542455Y-84657547D01*
X245657664Y-84743793D01*
X245662361Y-84746358D01*
X245711766Y-84795764D01*
X245726617Y-84864037D01*
X245706742Y-84923011D01*
X245575826Y-85123393D01*
X245475936Y-85351118D01*
X245414892Y-85592175D01*
X245414890Y-85592187D01*
X245394357Y-85839994D01*
X245394357Y-85840005D01*
X245414890Y-86087812D01*
X245414892Y-86087824D01*
X245475936Y-86328881D01*
X245575826Y-86556606D01*
X245711833Y-86764782D01*
X245744245Y-86799991D01*
X245880256Y-86947738D01*
X246076491Y-87100474D01*
X246131252Y-87130109D01*
X246280695Y-87210984D01*
X246295190Y-87218828D01*
X246530386Y-87299571D01*
X246775665Y-87340500D01*
X247024335Y-87340500D01*
X247269614Y-87299571D01*
X247388332Y-87258814D01*
X247458130Y-87255665D01*
X247518552Y-87290751D01*
X247550412Y-87352933D01*
X247543597Y-87422470D01*
X247516276Y-87463777D01*
X244366873Y-90613181D01*
X244305550Y-90646666D01*
X244279192Y-90649500D01*
X237710929Y-90649500D01*
X237585261Y-90674497D01*
X237585255Y-90674499D01*
X237466874Y-90723534D01*
X237360326Y-90794726D01*
X237360325Y-90794727D01*
X235932180Y-92222873D01*
X235870857Y-92256358D01*
X235801165Y-92251374D01*
X235745232Y-92209502D01*
X235720815Y-92144038D01*
X235720499Y-92135192D01*
X235720499Y-90597129D01*
X235720498Y-90597123D01*
X235720497Y-90597116D01*
X235714091Y-90537517D01*
X235706391Y-90516873D01*
X235663797Y-90402671D01*
X235663793Y-90402664D01*
X235577547Y-90287455D01*
X235577544Y-90287452D01*
X235462335Y-90201206D01*
X235462328Y-90201202D01*
X235327482Y-90150908D01*
X235327483Y-90150908D01*
X235267883Y-90144501D01*
X235267881Y-90144500D01*
X235267873Y-90144500D01*
X235267864Y-90144500D01*
X234172129Y-90144500D01*
X234172123Y-90144501D01*
X234112516Y-90150908D01*
X233977671Y-90201202D01*
X233977664Y-90201206D01*
X233862455Y-90287452D01*
X233862452Y-90287455D01*
X233776206Y-90402664D01*
X233776202Y-90402671D01*
X233725908Y-90537517D01*
X233721361Y-90579815D01*
X233719501Y-90597123D01*
X233719500Y-90597135D01*
X233719500Y-91929191D01*
X233699815Y-91996230D01*
X233683181Y-92016872D01*
X233386873Y-92313181D01*
X233325550Y-92346666D01*
X233299192Y-92349500D01*
X230930929Y-92349500D01*
X230805261Y-92374497D01*
X230800497Y-92375943D01*
X230730630Y-92376568D01*
X230671516Y-92339321D01*
X230641924Y-92276027D01*
X230640499Y-92257283D01*
X230640499Y-90597129D01*
X230640498Y-90597123D01*
X230640497Y-90597116D01*
X230634091Y-90537517D01*
X230626391Y-90516873D01*
X230583797Y-90402671D01*
X230583793Y-90402664D01*
X230497547Y-90287455D01*
X230497544Y-90287452D01*
X230382335Y-90201206D01*
X230382328Y-90201202D01*
X230247482Y-90150908D01*
X230247483Y-90150908D01*
X230187883Y-90144501D01*
X230187881Y-90144500D01*
X230187873Y-90144500D01*
X230187864Y-90144500D01*
X229092129Y-90144500D01*
X229092123Y-90144501D01*
X229032516Y-90150908D01*
X228897671Y-90201202D01*
X228897664Y-90201206D01*
X228782455Y-90287452D01*
X228782452Y-90287455D01*
X228696206Y-90402664D01*
X228696202Y-90402671D01*
X228645908Y-90537517D01*
X228641361Y-90579815D01*
X228639501Y-90597123D01*
X228639500Y-90597135D01*
X228639500Y-91125500D01*
X228619815Y-91192539D01*
X228567011Y-91238294D01*
X228515500Y-91249500D01*
X228120808Y-91249500D01*
X228053769Y-91229815D01*
X228033127Y-91213181D01*
X226086819Y-89266873D01*
X226053334Y-89205550D01*
X226050500Y-89179192D01*
X226050500Y-72805067D01*
X226069507Y-72739094D01*
X226125788Y-72649524D01*
X226131762Y-72632452D01*
X226185368Y-72479255D01*
X226194201Y-72400858D01*
X226205565Y-72300003D01*
X226205565Y-72299996D01*
X226185369Y-72120750D01*
X226185368Y-72120745D01*
X226125788Y-71950476D01*
X226056367Y-71839994D01*
X226029816Y-71797738D01*
X225902262Y-71670184D01*
X225778131Y-71592187D01*
X225749523Y-71574211D01*
X225579254Y-71514631D01*
X225579249Y-71514630D01*
X225400004Y-71494435D01*
X225399996Y-71494435D01*
X225220750Y-71514630D01*
X225220745Y-71514631D01*
X225050476Y-71574211D01*
X224897737Y-71670184D01*
X224770184Y-71797737D01*
X224674211Y-71950476D01*
X224614631Y-72120745D01*
X224614630Y-72120750D01*
X224594435Y-72299996D01*
X224594435Y-72300003D01*
X224614630Y-72479249D01*
X224614631Y-72479254D01*
X224674211Y-72649524D01*
X224730493Y-72739094D01*
X224749500Y-72805067D01*
X224749500Y-89564070D01*
X224755610Y-89594785D01*
X224761720Y-89625501D01*
X224774499Y-89689744D01*
X224823535Y-89808127D01*
X224894723Y-89914669D01*
X224894726Y-89914673D01*
X224894727Y-89914674D01*
X226017873Y-91037819D01*
X226051358Y-91099142D01*
X226046374Y-91168834D01*
X226004502Y-91224767D01*
X225939038Y-91249184D01*
X225930192Y-91249500D01*
X224024499Y-91249500D01*
X223957460Y-91229815D01*
X223911705Y-91177011D01*
X223900499Y-91125500D01*
X223900499Y-90597129D01*
X223900498Y-90597123D01*
X223900497Y-90597116D01*
X223894091Y-90537517D01*
X223886391Y-90516873D01*
X223843797Y-90402671D01*
X223843793Y-90402664D01*
X223757547Y-90287455D01*
X223757544Y-90287452D01*
X223642335Y-90201206D01*
X223642332Y-90201205D01*
X223642331Y-90201204D01*
X223631161Y-90197038D01*
X223575231Y-90155166D01*
X223550816Y-90089701D01*
X223550500Y-90080858D01*
X223550500Y-87575928D01*
X223525502Y-87450261D01*
X223525501Y-87450260D01*
X223525501Y-87450256D01*
X223476465Y-87331873D01*
X223425905Y-87256204D01*
X223405277Y-87225331D01*
X222506884Y-86326938D01*
X222473399Y-86265615D01*
X222474791Y-86207162D01*
X222485633Y-86166699D01*
X222485632Y-86166699D01*
X222485635Y-86166692D01*
X222505468Y-85940000D01*
X222485635Y-85713308D01*
X222474790Y-85672834D01*
X222476453Y-85602984D01*
X222506882Y-85553062D01*
X223505276Y-84554670D01*
X223576465Y-84448127D01*
X223625501Y-84329744D01*
X223636552Y-84274187D01*
X223650500Y-84204071D01*
X223650500Y-78429582D01*
X223625502Y-78303915D01*
X223625501Y-78303914D01*
X223625501Y-78303910D01*
X223576465Y-78185527D01*
X223572629Y-78179786D01*
X223562127Y-78164068D01*
X223562126Y-78164068D01*
X223505276Y-78078984D01*
X223505274Y-78078982D01*
X223505272Y-78078979D01*
X223505271Y-78078978D01*
X222209847Y-76783555D01*
X222176362Y-76722232D01*
X222181346Y-76652540D01*
X222197861Y-76624217D01*
X222196942Y-76623574D01*
X222234586Y-76569810D01*
X222330568Y-76432734D01*
X222426739Y-76226496D01*
X222485635Y-76006692D01*
X222505468Y-75780000D01*
X222485635Y-75553308D01*
X222426739Y-75333504D01*
X222330568Y-75127266D01*
X222200047Y-74940861D01*
X222200045Y-74940858D01*
X222039141Y-74779954D01*
X221852734Y-74649432D01*
X221852732Y-74649431D01*
X221794725Y-74622382D01*
X221794132Y-74622105D01*
X221741694Y-74575934D01*
X221722542Y-74508740D01*
X221742758Y-74441859D01*
X221794134Y-74397341D01*
X221852484Y-74370132D01*
X222038820Y-74239657D01*
X222199657Y-74078820D01*
X222330134Y-73892482D01*
X222426265Y-73686326D01*
X222426269Y-73686317D01*
X222478872Y-73490000D01*
X221515686Y-73490000D01*
X221520080Y-73485606D01*
X221572741Y-73394394D01*
X221600000Y-73292661D01*
X221600000Y-73187339D01*
X221572741Y-73085606D01*
X221520080Y-72994394D01*
X221515686Y-72990000D01*
X222478872Y-72990000D01*
X222478872Y-72989999D01*
X222426269Y-72793682D01*
X222426265Y-72793673D01*
X222330134Y-72587517D01*
X222199657Y-72401179D01*
X222038820Y-72240342D01*
X221852482Y-72109865D01*
X221794133Y-72082657D01*
X221741694Y-72036484D01*
X221722542Y-71969291D01*
X221742758Y-71902410D01*
X221794129Y-71857895D01*
X221852734Y-71830568D01*
X222039139Y-71700047D01*
X222200047Y-71539139D01*
X222330568Y-71352734D01*
X222426739Y-71146496D01*
X222485635Y-70926692D01*
X222505468Y-70700000D01*
X222485635Y-70473308D01*
X222474790Y-70432834D01*
X222476453Y-70362984D01*
X222506882Y-70313062D01*
X227303793Y-65516151D01*
X227365114Y-65482668D01*
X227434806Y-65487652D01*
X227490739Y-65529524D01*
X227515156Y-65594988D01*
X227515001Y-65614634D01*
X227514532Y-65619998D01*
X227514532Y-65620001D01*
X227534364Y-65846686D01*
X227534366Y-65846697D01*
X227593258Y-66066488D01*
X227593261Y-66066497D01*
X227689431Y-66272732D01*
X227689432Y-66272734D01*
X227819954Y-66459141D01*
X227980858Y-66620045D01*
X227980861Y-66620047D01*
X228167266Y-66750568D01*
X228225275Y-66777618D01*
X228277714Y-66823791D01*
X228296866Y-66890984D01*
X228276650Y-66957865D01*
X228225275Y-67002382D01*
X228167267Y-67029431D01*
X228167265Y-67029432D01*
X227980858Y-67159954D01*
X227819954Y-67320858D01*
X227689432Y-67507265D01*
X227689431Y-67507267D01*
X227593261Y-67713502D01*
X227593258Y-67713511D01*
X227534366Y-67933302D01*
X227534364Y-67933313D01*
X227514532Y-68159998D01*
X227514532Y-68160001D01*
X227534364Y-68386686D01*
X227534366Y-68386697D01*
X227593258Y-68606488D01*
X227593261Y-68606497D01*
X227689431Y-68812732D01*
X227689432Y-68812734D01*
X227819954Y-68999141D01*
X227980858Y-69160045D01*
X227980861Y-69160047D01*
X228167266Y-69290568D01*
X228225865Y-69317893D01*
X228278305Y-69364065D01*
X228297457Y-69431258D01*
X228277242Y-69498139D01*
X228225867Y-69542657D01*
X228167515Y-69569867D01*
X227981179Y-69700342D01*
X227820342Y-69861179D01*
X227689865Y-70047517D01*
X227593734Y-70253673D01*
X227593730Y-70253682D01*
X227541127Y-70449999D01*
X227541128Y-70450000D01*
X228504314Y-70450000D01*
X228499920Y-70454394D01*
X228447259Y-70545606D01*
X228420000Y-70647339D01*
X228420000Y-70752661D01*
X228447259Y-70854394D01*
X228499920Y-70945606D01*
X228504314Y-70950000D01*
X227541128Y-70950000D01*
X227593730Y-71146317D01*
X227593734Y-71146326D01*
X227689865Y-71352482D01*
X227820342Y-71538820D01*
X227981179Y-71699657D01*
X228167518Y-71830134D01*
X228167520Y-71830135D01*
X228225865Y-71857342D01*
X228278305Y-71903514D01*
X228297457Y-71970707D01*
X228277242Y-72037589D01*
X228225867Y-72082105D01*
X228204336Y-72092146D01*
X228167264Y-72109433D01*
X227980858Y-72239954D01*
X227819954Y-72400858D01*
X227689432Y-72587265D01*
X227689431Y-72587267D01*
X227593261Y-72793502D01*
X227593258Y-72793511D01*
X227534366Y-73013302D01*
X227534364Y-73013313D01*
X227514532Y-73239998D01*
X227514532Y-73240001D01*
X227534364Y-73466686D01*
X227534366Y-73466697D01*
X227593258Y-73686488D01*
X227593261Y-73686497D01*
X227689431Y-73892732D01*
X227689432Y-73892734D01*
X227819954Y-74079141D01*
X227980858Y-74240045D01*
X227980861Y-74240047D01*
X228167266Y-74370568D01*
X228224681Y-74397341D01*
X228225275Y-74397618D01*
X228277714Y-74443791D01*
X228296866Y-74510984D01*
X228276650Y-74577865D01*
X228225275Y-74622382D01*
X228167267Y-74649431D01*
X228167265Y-74649432D01*
X227980858Y-74779954D01*
X227819954Y-74940858D01*
X227689432Y-75127265D01*
X227689431Y-75127267D01*
X227593261Y-75333502D01*
X227593258Y-75333511D01*
X227534366Y-75553302D01*
X227534364Y-75553313D01*
X227514532Y-75779998D01*
X227514532Y-75780001D01*
X227534364Y-76006686D01*
X227534366Y-76006697D01*
X227593258Y-76226488D01*
X227593261Y-76226497D01*
X227689431Y-76432732D01*
X227689432Y-76432734D01*
X227819954Y-76619141D01*
X227980858Y-76780045D01*
X227983062Y-76781588D01*
X228167266Y-76910568D01*
X228225275Y-76937618D01*
X228277714Y-76983791D01*
X228296866Y-77050984D01*
X228276650Y-77117865D01*
X228225275Y-77162382D01*
X228167267Y-77189431D01*
X228167265Y-77189432D01*
X227980858Y-77319954D01*
X227819954Y-77480858D01*
X227689432Y-77667265D01*
X227689431Y-77667267D01*
X227593261Y-77873502D01*
X227593258Y-77873511D01*
X227534366Y-78093302D01*
X227534364Y-78093313D01*
X227514532Y-78319998D01*
X227514532Y-78320001D01*
X227534364Y-78546686D01*
X227534366Y-78546697D01*
X227593258Y-78766488D01*
X227593261Y-78766497D01*
X227689431Y-78972732D01*
X227689432Y-78972734D01*
X227819954Y-79159141D01*
X227980858Y-79320045D01*
X227988296Y-79325253D01*
X228167266Y-79450568D01*
X228225275Y-79477618D01*
X228277714Y-79523791D01*
X228296866Y-79590984D01*
X228276650Y-79657865D01*
X228225275Y-79702381D01*
X228208272Y-79710310D01*
X228167267Y-79729431D01*
X228167265Y-79729432D01*
X227980858Y-79859954D01*
X227819954Y-80020858D01*
X227689432Y-80207265D01*
X227689431Y-80207267D01*
X227593261Y-80413502D01*
X227593258Y-80413511D01*
X227534366Y-80633302D01*
X227534364Y-80633313D01*
X227514532Y-80859998D01*
X227514532Y-80860001D01*
X227534364Y-81086686D01*
X227534366Y-81086697D01*
X227593258Y-81306488D01*
X227593261Y-81306497D01*
X227689431Y-81512732D01*
X227689432Y-81512734D01*
X227819954Y-81699141D01*
X227980858Y-81860045D01*
X227980861Y-81860047D01*
X228167266Y-81990568D01*
X228225275Y-82017618D01*
X228277714Y-82063791D01*
X228296866Y-82130984D01*
X228276650Y-82197865D01*
X228225275Y-82242382D01*
X228167267Y-82269431D01*
X228167265Y-82269432D01*
X227980858Y-82399954D01*
X227819954Y-82560858D01*
X227689432Y-82747265D01*
X227689431Y-82747267D01*
X227593261Y-82953502D01*
X227593258Y-82953511D01*
X227534366Y-83173302D01*
X227534364Y-83173313D01*
X227514532Y-83399998D01*
X227514532Y-83400001D01*
X227534364Y-83626686D01*
X227534366Y-83626697D01*
X227593258Y-83846488D01*
X227593261Y-83846497D01*
X227689431Y-84052732D01*
X227689432Y-84052734D01*
X227819954Y-84239141D01*
X227980858Y-84400045D01*
X227980861Y-84400047D01*
X228167266Y-84530568D01*
X228225275Y-84557618D01*
X228277714Y-84603791D01*
X228296866Y-84670984D01*
X228276650Y-84737865D01*
X228225275Y-84782382D01*
X228167267Y-84809431D01*
X228167265Y-84809432D01*
X227980858Y-84939954D01*
X227819954Y-85100858D01*
X227689432Y-85287265D01*
X227689431Y-85287267D01*
X227593261Y-85493502D01*
X227593258Y-85493511D01*
X227534366Y-85713302D01*
X227534364Y-85713313D01*
X227514532Y-85939998D01*
X227514532Y-85940001D01*
X227534364Y-86166686D01*
X227534366Y-86166697D01*
X227593258Y-86386488D01*
X227593261Y-86386497D01*
X227689431Y-86592732D01*
X227689432Y-86592734D01*
X227819954Y-86779141D01*
X227980858Y-86940045D01*
X227980861Y-86940047D01*
X228167266Y-87070568D01*
X228208389Y-87089744D01*
X228225275Y-87097618D01*
X228277714Y-87143791D01*
X228296866Y-87210984D01*
X228276650Y-87277865D01*
X228225275Y-87322382D01*
X228167267Y-87349431D01*
X228167265Y-87349432D01*
X227980858Y-87479954D01*
X227819954Y-87640858D01*
X227689432Y-87827265D01*
X227689431Y-87827267D01*
X227593261Y-88033502D01*
X227593258Y-88033511D01*
X227534366Y-88253302D01*
X227534364Y-88253313D01*
X227514532Y-88479998D01*
X227514532Y-88480001D01*
X227534364Y-88706686D01*
X227534366Y-88706697D01*
X227593258Y-88926488D01*
X227593261Y-88926497D01*
X227689431Y-89132732D01*
X227689432Y-89132734D01*
X227819954Y-89319141D01*
X227980858Y-89480045D01*
X228027693Y-89512839D01*
X228167266Y-89610568D01*
X228373504Y-89706739D01*
X228593308Y-89765635D01*
X228755230Y-89779801D01*
X228819998Y-89785468D01*
X228820000Y-89785468D01*
X228820002Y-89785468D01*
X228876673Y-89780509D01*
X229046692Y-89765635D01*
X229266496Y-89706739D01*
X229472734Y-89610568D01*
X229659139Y-89480047D01*
X229820047Y-89319139D01*
X229950568Y-89132734D01*
X230046739Y-88926496D01*
X230105635Y-88706692D01*
X230125468Y-88480000D01*
X230105635Y-88253308D01*
X230046739Y-88033504D01*
X229950568Y-87827266D01*
X229827941Y-87652135D01*
X231274500Y-87652135D01*
X231274500Y-88747870D01*
X231274501Y-88747876D01*
X231280908Y-88807483D01*
X231331202Y-88942328D01*
X231331206Y-88942335D01*
X231417452Y-89057544D01*
X231417455Y-89057547D01*
X231532664Y-89143793D01*
X231532671Y-89143797D01*
X231667517Y-89194091D01*
X231667516Y-89194091D01*
X231674444Y-89194835D01*
X231727127Y-89200500D01*
X234972872Y-89200499D01*
X235032483Y-89194091D01*
X235167331Y-89143796D01*
X235282546Y-89057546D01*
X235368796Y-88942331D01*
X235419091Y-88807483D01*
X235425500Y-88747873D01*
X235425499Y-87652128D01*
X235419091Y-87592517D01*
X235377107Y-87479953D01*
X235368797Y-87457671D01*
X235368793Y-87457664D01*
X235282547Y-87342455D01*
X235282544Y-87342452D01*
X235167335Y-87256206D01*
X235167328Y-87256202D01*
X235032482Y-87205908D01*
X235032483Y-87205908D01*
X234972883Y-87199501D01*
X234972881Y-87199500D01*
X234972873Y-87199500D01*
X234972864Y-87199500D01*
X231727129Y-87199500D01*
X231727123Y-87199501D01*
X231667516Y-87205908D01*
X231532671Y-87256202D01*
X231532664Y-87256206D01*
X231417455Y-87342452D01*
X231417452Y-87342455D01*
X231331206Y-87457664D01*
X231331202Y-87457671D01*
X231280908Y-87592517D01*
X231275711Y-87640861D01*
X231274501Y-87652123D01*
X231274500Y-87652135D01*
X229827941Y-87652135D01*
X229827936Y-87652128D01*
X229820045Y-87640858D01*
X229659141Y-87479954D01*
X229472734Y-87349432D01*
X229472728Y-87349429D01*
X229414725Y-87322382D01*
X229362285Y-87276210D01*
X229343133Y-87209017D01*
X229363348Y-87142135D01*
X229414725Y-87097618D01*
X229472734Y-87070568D01*
X229659139Y-86940047D01*
X229820047Y-86779139D01*
X229950568Y-86592734D01*
X230046739Y-86386496D01*
X230105635Y-86166692D01*
X230125468Y-85940000D01*
X230114830Y-85818407D01*
X230128597Y-85749907D01*
X230177212Y-85699724D01*
X230245240Y-85683791D01*
X230311084Y-85707166D01*
X230326039Y-85719919D01*
X230619485Y-86013365D01*
X230726635Y-86120515D01*
X230857865Y-86196281D01*
X231004234Y-86235500D01*
X231182885Y-86235500D01*
X231249924Y-86255185D01*
X231295679Y-86307989D01*
X231299067Y-86316167D01*
X231331202Y-86402328D01*
X231331206Y-86402335D01*
X231417452Y-86517544D01*
X231417455Y-86517547D01*
X231532664Y-86603793D01*
X231532671Y-86603797D01*
X231667517Y-86654091D01*
X231667516Y-86654091D01*
X231674444Y-86654835D01*
X231727127Y-86660500D01*
X234972872Y-86660499D01*
X235032483Y-86654091D01*
X235167331Y-86603796D01*
X235241123Y-86548555D01*
X235306585Y-86524138D01*
X235374858Y-86538989D01*
X235424264Y-86588394D01*
X235435208Y-86615729D01*
X235463719Y-86722136D01*
X235501602Y-86787750D01*
X235539485Y-86853365D01*
X235539487Y-86853367D01*
X236288181Y-87602061D01*
X236321666Y-87663384D01*
X236324500Y-87689742D01*
X236324500Y-88747870D01*
X236324501Y-88747876D01*
X236330908Y-88807483D01*
X236381202Y-88942328D01*
X236381206Y-88942335D01*
X236467452Y-89057544D01*
X236467455Y-89057547D01*
X236582664Y-89143793D01*
X236582671Y-89143797D01*
X236717517Y-89194091D01*
X236717516Y-89194091D01*
X236724444Y-89194835D01*
X236777127Y-89200500D01*
X240022872Y-89200499D01*
X240082483Y-89194091D01*
X240217331Y-89143796D01*
X240332546Y-89057546D01*
X240418796Y-88942331D01*
X240469091Y-88807483D01*
X240475500Y-88747873D01*
X240475499Y-87652128D01*
X240469091Y-87592517D01*
X240427107Y-87479953D01*
X240418797Y-87457671D01*
X240418793Y-87457664D01*
X240332547Y-87342455D01*
X240332544Y-87342452D01*
X240217335Y-87256206D01*
X240217328Y-87256202D01*
X240082482Y-87205908D01*
X240082483Y-87205908D01*
X240022883Y-87199501D01*
X240022881Y-87199500D01*
X240022873Y-87199500D01*
X240022865Y-87199500D01*
X237564742Y-87199500D01*
X237497703Y-87179815D01*
X237477061Y-87163181D01*
X237186060Y-86872180D01*
X237152575Y-86810857D01*
X237157559Y-86741165D01*
X237199431Y-86685232D01*
X237264895Y-86660815D01*
X237273741Y-86660499D01*
X240022871Y-86660499D01*
X240022872Y-86660499D01*
X240082483Y-86654091D01*
X240217331Y-86603796D01*
X240332546Y-86517546D01*
X240418796Y-86402331D01*
X240469091Y-86267483D01*
X240475500Y-86207873D01*
X240475499Y-85112128D01*
X240469091Y-85052517D01*
X240463007Y-85036206D01*
X240418797Y-84917671D01*
X240418793Y-84917664D01*
X240332547Y-84802455D01*
X240332544Y-84802452D01*
X240217335Y-84716206D01*
X240217328Y-84716202D01*
X240082482Y-84665908D01*
X240082483Y-84665908D01*
X240022883Y-84659501D01*
X240022881Y-84659500D01*
X240022873Y-84659500D01*
X240022865Y-84659500D01*
X238264742Y-84659500D01*
X238197703Y-84639815D01*
X238177061Y-84623181D01*
X238093367Y-84539487D01*
X238093365Y-84539485D01*
X238027750Y-84501602D01*
X237962136Y-84463719D01*
X237888950Y-84444109D01*
X237815766Y-84424500D01*
X237815765Y-84424500D01*
X237199500Y-84424500D01*
X237132461Y-84404815D01*
X237086706Y-84352011D01*
X237075500Y-84300500D01*
X237075500Y-84244499D01*
X237095185Y-84177460D01*
X237147989Y-84131705D01*
X237199500Y-84120499D01*
X240022871Y-84120499D01*
X240022872Y-84120499D01*
X240082483Y-84114091D01*
X240217331Y-84063796D01*
X240332546Y-83977546D01*
X240418796Y-83862331D01*
X240469091Y-83727483D01*
X240475500Y-83667873D01*
X240475499Y-82572128D01*
X240469091Y-82512517D01*
X240463912Y-82498632D01*
X240418797Y-82377671D01*
X240418793Y-82377664D01*
X240332547Y-82262455D01*
X240332544Y-82262452D01*
X240217335Y-82176206D01*
X240217328Y-82176202D01*
X240082482Y-82125908D01*
X240082483Y-82125908D01*
X240022883Y-82119501D01*
X240022881Y-82119500D01*
X240022873Y-82119500D01*
X240022865Y-82119500D01*
X239174500Y-82119500D01*
X239107461Y-82099815D01*
X239061706Y-82047011D01*
X239050500Y-81995500D01*
X239050500Y-79097844D01*
X241475000Y-79097844D01*
X241481401Y-79157372D01*
X241481403Y-79157379D01*
X241531645Y-79292086D01*
X241531649Y-79292093D01*
X241617809Y-79407187D01*
X241617812Y-79407190D01*
X241732906Y-79493350D01*
X241732913Y-79493354D01*
X241867620Y-79543596D01*
X241867627Y-79543598D01*
X241927155Y-79549999D01*
X241927172Y-79550000D01*
X242500000Y-79550000D01*
X243000000Y-79550000D01*
X243572828Y-79550000D01*
X243572844Y-79549999D01*
X243632372Y-79543598D01*
X243632379Y-79543596D01*
X243767086Y-79493354D01*
X243767093Y-79493350D01*
X243882187Y-79407190D01*
X243882190Y-79407187D01*
X243968350Y-79292093D01*
X243968354Y-79292086D01*
X244018596Y-79157379D01*
X244018598Y-79157372D01*
X244024999Y-79097844D01*
X244025000Y-79097827D01*
X244025000Y-78650000D01*
X243000000Y-78650000D01*
X243000000Y-79550000D01*
X242500000Y-79550000D01*
X242500000Y-78650000D01*
X241475000Y-78650000D01*
X241475000Y-79097844D01*
X239050500Y-79097844D01*
X239050500Y-78570807D01*
X239070185Y-78503768D01*
X239086814Y-78483131D01*
X239867790Y-77702155D01*
X241475000Y-77702155D01*
X241475000Y-78150000D01*
X242500000Y-78150000D01*
X243000000Y-78150000D01*
X244025000Y-78150000D01*
X244025000Y-77702172D01*
X244024999Y-77702155D01*
X244018598Y-77642627D01*
X244018596Y-77642620D01*
X243968354Y-77507913D01*
X243968350Y-77507906D01*
X243882190Y-77392812D01*
X243882187Y-77392809D01*
X243767093Y-77306649D01*
X243767086Y-77306645D01*
X243632379Y-77256403D01*
X243632372Y-77256401D01*
X243572844Y-77250000D01*
X243000000Y-77250000D01*
X243000000Y-78150000D01*
X242500000Y-78150000D01*
X242500000Y-77250000D01*
X241927155Y-77250000D01*
X241867627Y-77256401D01*
X241867620Y-77256403D01*
X241732913Y-77306645D01*
X241732906Y-77306649D01*
X241617812Y-77392809D01*
X241617809Y-77392812D01*
X241531649Y-77507906D01*
X241531645Y-77507913D01*
X241481403Y-77642620D01*
X241481401Y-77642627D01*
X241475000Y-77702155D01*
X239867790Y-77702155D01*
X240376232Y-77193713D01*
X247649500Y-77193713D01*
X247649500Y-77406286D01*
X247676310Y-77575562D01*
X247682754Y-77616243D01*
X247746651Y-77812898D01*
X247748444Y-77818414D01*
X247844951Y-78007820D01*
X247969890Y-78179786D01*
X248120213Y-78330109D01*
X248292179Y-78455048D01*
X248292181Y-78455049D01*
X248292184Y-78455051D01*
X248481588Y-78551557D01*
X248683757Y-78617246D01*
X248893713Y-78650500D01*
X248893714Y-78650500D01*
X249106286Y-78650500D01*
X249106287Y-78650500D01*
X249316243Y-78617246D01*
X249518412Y-78551557D01*
X249707816Y-78455051D01*
X249775090Y-78406174D01*
X249879786Y-78330109D01*
X249879788Y-78330106D01*
X249879792Y-78330104D01*
X250030104Y-78179792D01*
X250030106Y-78179788D01*
X250030109Y-78179786D01*
X250155048Y-78007820D01*
X250155047Y-78007820D01*
X250155051Y-78007816D01*
X250251557Y-77818412D01*
X250317246Y-77616243D01*
X250350500Y-77406287D01*
X250350500Y-77193713D01*
X250317246Y-76983757D01*
X250251557Y-76781588D01*
X250155051Y-76592184D01*
X250155049Y-76592181D01*
X250155048Y-76592179D01*
X250030109Y-76420213D01*
X249879786Y-76269890D01*
X249707820Y-76144951D01*
X249518414Y-76048444D01*
X249518413Y-76048443D01*
X249518412Y-76048443D01*
X249316243Y-75982754D01*
X249316241Y-75982753D01*
X249316240Y-75982753D01*
X249154957Y-75957208D01*
X249106287Y-75949500D01*
X248893713Y-75949500D01*
X248845042Y-75957208D01*
X248683760Y-75982753D01*
X248481585Y-76048444D01*
X248292179Y-76144951D01*
X248120213Y-76269890D01*
X247969890Y-76420213D01*
X247844951Y-76592179D01*
X247748444Y-76781585D01*
X247682753Y-76983760D01*
X247649500Y-77193713D01*
X240376232Y-77193713D01*
X242483127Y-75086817D01*
X242544450Y-75053333D01*
X242570808Y-75050499D01*
X243572871Y-75050499D01*
X243572872Y-75050499D01*
X243632483Y-75044091D01*
X243767331Y-74993796D01*
X243882546Y-74907546D01*
X243968796Y-74792331D01*
X244019091Y-74657483D01*
X244025500Y-74597873D01*
X244025499Y-73202128D01*
X244019091Y-73142517D01*
X244003410Y-73100475D01*
X243968797Y-73007671D01*
X243968793Y-73007664D01*
X243882547Y-72892455D01*
X243882544Y-72892452D01*
X243767335Y-72806206D01*
X243767328Y-72806202D01*
X243632482Y-72755908D01*
X243632483Y-72755908D01*
X243572883Y-72749501D01*
X243572881Y-72749500D01*
X243572873Y-72749500D01*
X243572865Y-72749500D01*
X243449500Y-72749500D01*
X243382461Y-72729815D01*
X243336706Y-72677011D01*
X243325500Y-72625500D01*
X243325500Y-62174236D01*
X243325500Y-62174234D01*
X243286281Y-62027865D01*
X243210515Y-61896635D01*
X243103365Y-61789485D01*
X243103364Y-61789484D01*
X243099034Y-61785154D01*
X243099023Y-61785144D01*
X236153367Y-54839487D01*
X236153366Y-54839486D01*
X236153365Y-54839485D01*
X236081056Y-54797737D01*
X236022136Y-54763719D01*
X235948950Y-54744109D01*
X235875766Y-54724500D01*
X235875765Y-54724500D01*
X232007940Y-54724500D01*
X231940901Y-54704815D01*
X231920259Y-54688181D01*
X231902262Y-54670184D01*
X231749523Y-54574211D01*
X231579254Y-54514631D01*
X231579249Y-54514630D01*
X231400004Y-54494435D01*
X231399996Y-54494435D01*
X231220750Y-54514630D01*
X231220745Y-54514631D01*
X231050476Y-54574211D01*
X230897737Y-54670184D01*
X230770184Y-54797737D01*
X230674211Y-54950476D01*
X230614631Y-55120745D01*
X230614630Y-55120750D01*
X230594435Y-55299996D01*
X230594435Y-55300003D01*
X230614630Y-55479249D01*
X230614631Y-55479254D01*
X230674211Y-55649523D01*
X230736367Y-55748443D01*
X230770184Y-55802262D01*
X230897738Y-55929816D01*
X231050478Y-56025789D01*
X231220745Y-56085368D01*
X231220750Y-56085369D01*
X231399996Y-56105565D01*
X231400000Y-56105565D01*
X231400004Y-56105565D01*
X231579249Y-56085369D01*
X231579252Y-56085368D01*
X231579255Y-56085368D01*
X231749522Y-56025789D01*
X231902262Y-55929816D01*
X231920259Y-55911819D01*
X231981582Y-55878334D01*
X232007940Y-55875500D01*
X235510258Y-55875500D01*
X235577297Y-55895185D01*
X235597939Y-55911819D01*
X242138181Y-62452060D01*
X242171666Y-62513383D01*
X242174500Y-62539741D01*
X242174500Y-72625500D01*
X242154815Y-72692539D01*
X242102011Y-72738294D01*
X242050501Y-72749500D01*
X241927130Y-72749500D01*
X241927123Y-72749501D01*
X241867516Y-72755908D01*
X241732671Y-72806202D01*
X241732664Y-72806206D01*
X241617455Y-72892452D01*
X241617452Y-72892455D01*
X241531206Y-73007664D01*
X241531202Y-73007671D01*
X241480908Y-73142517D01*
X241479126Y-73150062D01*
X241476853Y-73149525D01*
X241454571Y-73203312D01*
X241397177Y-73243157D01*
X241358024Y-73249500D01*
X236191977Y-73249500D01*
X236124938Y-73229815D01*
X236079183Y-73177011D01*
X236071733Y-73149865D01*
X236070876Y-73150068D01*
X236069092Y-73142520D01*
X236018797Y-73007671D01*
X236018793Y-73007664D01*
X235932547Y-72892455D01*
X235932544Y-72892452D01*
X235817335Y-72806206D01*
X235817328Y-72806202D01*
X235682482Y-72755908D01*
X235682483Y-72755908D01*
X235622883Y-72749501D01*
X235622881Y-72749500D01*
X235622873Y-72749500D01*
X235622864Y-72749500D01*
X233977129Y-72749500D01*
X233977123Y-72749501D01*
X233917516Y-72755908D01*
X233782671Y-72806202D01*
X233782664Y-72806206D01*
X233667455Y-72892452D01*
X233667452Y-72892455D01*
X233581206Y-73007664D01*
X233581202Y-73007671D01*
X233530908Y-73142517D01*
X233527200Y-73177011D01*
X233524501Y-73202123D01*
X233524500Y-73202135D01*
X233524500Y-74597870D01*
X233524501Y-74597876D01*
X233530908Y-74657483D01*
X233581202Y-74792328D01*
X233581206Y-74792335D01*
X233667452Y-74907544D01*
X233667455Y-74907547D01*
X233782664Y-74993793D01*
X233782671Y-74993797D01*
X233917517Y-75044091D01*
X233917516Y-75044091D01*
X233924444Y-75044835D01*
X233977127Y-75050500D01*
X235622872Y-75050499D01*
X235682483Y-75044091D01*
X235817331Y-74993796D01*
X235932546Y-74907546D01*
X236018796Y-74792331D01*
X236069091Y-74657483D01*
X236069091Y-74657481D01*
X236070874Y-74649938D01*
X236073146Y-74650474D01*
X236095429Y-74596688D01*
X236152823Y-74556843D01*
X236191976Y-74550500D01*
X240880192Y-74550500D01*
X240947231Y-74570185D01*
X240992986Y-74622989D01*
X241002930Y-74692147D01*
X240973905Y-74755703D01*
X240967873Y-74762181D01*
X237894727Y-77835325D01*
X237894721Y-77835332D01*
X237844659Y-77910256D01*
X237844660Y-77910257D01*
X237823534Y-77941874D01*
X237774499Y-78060255D01*
X237774497Y-78060261D01*
X237749500Y-78185928D01*
X237749500Y-81995500D01*
X237729815Y-82062539D01*
X237677011Y-82108294D01*
X237625500Y-82119500D01*
X236777129Y-82119500D01*
X236777123Y-82119501D01*
X236717515Y-82125909D01*
X236589898Y-82173506D01*
X236520206Y-82178490D01*
X236458885Y-82145005D01*
X234075561Y-79761681D01*
X234042076Y-79700358D01*
X234047060Y-79630666D01*
X234088932Y-79574733D01*
X234154396Y-79550316D01*
X234163242Y-79550000D01*
X234550000Y-79550000D01*
X235050000Y-79550000D01*
X235622828Y-79550000D01*
X235622844Y-79549999D01*
X235682372Y-79543598D01*
X235682379Y-79543596D01*
X235817086Y-79493354D01*
X235817093Y-79493350D01*
X235932187Y-79407190D01*
X235932190Y-79407187D01*
X236018350Y-79292093D01*
X236018354Y-79292086D01*
X236068596Y-79157379D01*
X236068598Y-79157372D01*
X236074999Y-79097844D01*
X236075000Y-79097827D01*
X236075000Y-78650000D01*
X235050000Y-78650000D01*
X235050000Y-79550000D01*
X234550000Y-79550000D01*
X234550000Y-78650000D01*
X233525000Y-78650000D01*
X233525000Y-78911758D01*
X233505315Y-78978797D01*
X233452511Y-79024552D01*
X233383353Y-79034496D01*
X233319797Y-79005471D01*
X233313319Y-78999439D01*
X232173367Y-77859487D01*
X232173365Y-77859485D01*
X232092678Y-77812900D01*
X232042136Y-77783719D01*
X231968950Y-77764109D01*
X231895766Y-77744500D01*
X231895765Y-77744500D01*
X230065579Y-77744500D01*
X229998540Y-77724815D01*
X229978747Y-77702155D01*
X233525000Y-77702155D01*
X233525000Y-78150000D01*
X234550000Y-78150000D01*
X235050000Y-78150000D01*
X236075000Y-78150000D01*
X236075000Y-77702172D01*
X236074999Y-77702155D01*
X236068598Y-77642627D01*
X236068596Y-77642620D01*
X236018354Y-77507913D01*
X236018350Y-77507906D01*
X235932190Y-77392812D01*
X235932187Y-77392809D01*
X235817093Y-77306649D01*
X235817086Y-77306645D01*
X235682379Y-77256403D01*
X235682372Y-77256401D01*
X235622844Y-77250000D01*
X235050000Y-77250000D01*
X235050000Y-78150000D01*
X234550000Y-78150000D01*
X234550000Y-77250000D01*
X233977155Y-77250000D01*
X233917627Y-77256401D01*
X233917620Y-77256403D01*
X233782913Y-77306645D01*
X233782906Y-77306649D01*
X233667812Y-77392809D01*
X233667809Y-77392812D01*
X233581649Y-77507906D01*
X233581645Y-77507913D01*
X233531403Y-77642620D01*
X233531401Y-77642627D01*
X233525000Y-77702155D01*
X229978747Y-77702155D01*
X229953197Y-77672904D01*
X229950568Y-77667266D01*
X229837558Y-77505870D01*
X229820045Y-77480858D01*
X229659141Y-77319954D01*
X229472734Y-77189432D01*
X229472728Y-77189429D01*
X229414725Y-77162382D01*
X229362285Y-77116210D01*
X229343133Y-77049017D01*
X229363348Y-76982135D01*
X229414725Y-76937618D01*
X229472734Y-76910568D01*
X229659139Y-76780047D01*
X229820047Y-76619139D01*
X229950568Y-76432734D01*
X230046739Y-76226496D01*
X230105635Y-76006692D01*
X230125468Y-75780000D01*
X230105635Y-75553308D01*
X230046739Y-75333504D01*
X229950568Y-75127266D01*
X229820047Y-74940861D01*
X229820045Y-74940858D01*
X229659141Y-74779954D01*
X229472734Y-74649432D01*
X229472728Y-74649429D01*
X229414725Y-74622382D01*
X229362285Y-74576210D01*
X229343133Y-74509017D01*
X229363348Y-74442135D01*
X229414725Y-74397618D01*
X229415319Y-74397341D01*
X229472734Y-74370568D01*
X229659139Y-74240047D01*
X229820047Y-74079139D01*
X229950568Y-73892734D01*
X230046739Y-73686496D01*
X230105635Y-73466692D01*
X230125468Y-73240000D01*
X230105635Y-73013308D01*
X230059198Y-72840000D01*
X230046741Y-72793511D01*
X230046738Y-72793502D01*
X230033347Y-72764785D01*
X229950568Y-72587266D01*
X229820047Y-72400861D01*
X229820045Y-72400858D01*
X229659141Y-72239954D01*
X229472734Y-72109432D01*
X229472732Y-72109431D01*
X229435664Y-72092146D01*
X229414132Y-72082105D01*
X229361694Y-72035934D01*
X229342542Y-71968740D01*
X229362758Y-71901859D01*
X229414134Y-71857341D01*
X229472484Y-71830132D01*
X229658820Y-71699657D01*
X229819657Y-71538820D01*
X229950134Y-71352482D01*
X230046265Y-71146326D01*
X230046269Y-71146317D01*
X230098872Y-70950000D01*
X229135686Y-70950000D01*
X229140080Y-70945606D01*
X229192741Y-70854394D01*
X229220000Y-70752661D01*
X229220000Y-70647339D01*
X229192741Y-70545606D01*
X229140080Y-70454394D01*
X229135686Y-70450000D01*
X230098872Y-70450000D01*
X230098872Y-70449999D01*
X230046269Y-70253682D01*
X230046265Y-70253673D01*
X229950134Y-70047517D01*
X229819657Y-69861179D01*
X229658820Y-69700342D01*
X229472482Y-69569865D01*
X229414133Y-69542657D01*
X229361694Y-69496484D01*
X229342542Y-69429291D01*
X229362758Y-69362410D01*
X229414129Y-69317895D01*
X229472734Y-69290568D01*
X229659139Y-69160047D01*
X229820047Y-68999139D01*
X229950568Y-68812734D01*
X230046739Y-68606496D01*
X230105635Y-68386692D01*
X230105636Y-68386679D01*
X230106574Y-68381363D01*
X230108658Y-68381730D01*
X230130759Y-68325194D01*
X230187341Y-68284203D01*
X230257102Y-68280309D01*
X230272186Y-68284866D01*
X230362623Y-68318597D01*
X230362627Y-68318598D01*
X230422155Y-68324999D01*
X230422172Y-68325000D01*
X232720000Y-68325000D01*
X233220000Y-68325000D01*
X235517828Y-68325000D01*
X235517844Y-68324999D01*
X235577372Y-68318598D01*
X235577379Y-68318596D01*
X235712086Y-68268354D01*
X235712093Y-68268350D01*
X235827187Y-68182190D01*
X235827190Y-68182187D01*
X235913350Y-68067093D01*
X235913354Y-68067086D01*
X235963596Y-67932379D01*
X235963598Y-67932372D01*
X235969999Y-67872844D01*
X235970000Y-67872827D01*
X235970000Y-67695000D01*
X233220000Y-67695000D01*
X233220000Y-68325000D01*
X232720000Y-68325000D01*
X232720000Y-67195000D01*
X233220000Y-67195000D01*
X235970000Y-67195000D01*
X235970000Y-67017172D01*
X235969999Y-67017155D01*
X235963598Y-66957627D01*
X235963597Y-66957623D01*
X235924699Y-66853334D01*
X235919715Y-66783643D01*
X235924699Y-66766666D01*
X235963597Y-66662376D01*
X235963598Y-66662372D01*
X235969999Y-66602844D01*
X235970000Y-66602827D01*
X235970000Y-66425000D01*
X233220000Y-66425000D01*
X233220000Y-67195000D01*
X232720000Y-67195000D01*
X232720000Y-66299000D01*
X232739685Y-66231961D01*
X232792489Y-66186206D01*
X232844000Y-66175000D01*
X232970000Y-66175000D01*
X232970000Y-66049000D01*
X232989685Y-65981961D01*
X233042489Y-65936206D01*
X233094000Y-65925000D01*
X235970000Y-65925000D01*
X235970000Y-65747172D01*
X235969999Y-65747155D01*
X235963598Y-65687627D01*
X235963597Y-65687623D01*
X235924966Y-65584049D01*
X235919982Y-65514357D01*
X235924966Y-65497382D01*
X235963783Y-65393308D01*
X235964091Y-65392483D01*
X235970500Y-65332873D01*
X235970499Y-64477128D01*
X235964091Y-64417517D01*
X235925231Y-64313329D01*
X235920248Y-64243642D01*
X235925227Y-64226682D01*
X235964091Y-64122483D01*
X235970500Y-64062873D01*
X235970499Y-63207128D01*
X235964091Y-63147517D01*
X235925231Y-63043329D01*
X235920248Y-62973642D01*
X235925227Y-62956682D01*
X235964091Y-62852483D01*
X235970500Y-62792873D01*
X235970499Y-61937128D01*
X235964091Y-61877517D01*
X235925231Y-61773329D01*
X235920248Y-61703642D01*
X235925227Y-61686682D01*
X235964091Y-61582483D01*
X235970500Y-61522873D01*
X235970499Y-60667128D01*
X235964091Y-60607517D01*
X235925231Y-60503329D01*
X235920248Y-60433642D01*
X235925227Y-60416682D01*
X235964091Y-60312483D01*
X235970500Y-60252873D01*
X235970499Y-59397128D01*
X235964091Y-59337517D01*
X235925231Y-59233329D01*
X235920248Y-59163642D01*
X235925227Y-59146682D01*
X235964091Y-59042483D01*
X235970500Y-58982873D01*
X235970499Y-58127128D01*
X235964091Y-58067517D01*
X235913796Y-57932669D01*
X235913795Y-57932668D01*
X235913793Y-57932664D01*
X235827547Y-57817455D01*
X235827544Y-57817452D01*
X235712335Y-57731206D01*
X235712328Y-57731202D01*
X235577482Y-57680908D01*
X235577483Y-57680908D01*
X235517883Y-57674501D01*
X235517881Y-57674500D01*
X235517873Y-57674500D01*
X235517865Y-57674500D01*
X231899742Y-57674500D01*
X231832703Y-57654815D01*
X231812061Y-57638181D01*
X230104470Y-55930590D01*
X230070985Y-55869267D01*
X230072376Y-55810815D01*
X230074668Y-55802262D01*
X230105635Y-55686692D01*
X230123783Y-55479255D01*
X230125468Y-55460001D01*
X230125468Y-55459998D01*
X230105635Y-55233313D01*
X230105635Y-55233308D01*
X230046739Y-55013504D01*
X229950568Y-54807266D01*
X229820047Y-54620861D01*
X229820045Y-54620858D01*
X229659141Y-54459954D01*
X229472734Y-54329432D01*
X229468043Y-54326724D01*
X229469294Y-54324555D01*
X229424781Y-54285203D01*
X229405763Y-54217971D01*
X229426113Y-54151130D01*
X229442070Y-54131528D01*
X230145277Y-53428323D01*
X230216465Y-53321781D01*
X230235705Y-53275331D01*
X230265501Y-53203398D01*
X230290500Y-53077723D01*
X230290500Y-50564141D01*
X230310185Y-50497102D01*
X230362989Y-50451347D01*
X230371149Y-50447966D01*
X230382331Y-50443796D01*
X230384123Y-50442455D01*
X230445871Y-50396230D01*
X230497546Y-50357546D01*
X230583796Y-50242331D01*
X230634091Y-50107483D01*
X230640500Y-50047873D01*
X230640499Y-48509806D01*
X230660184Y-48442768D01*
X230712987Y-48397013D01*
X230782146Y-48387069D01*
X230845702Y-48416094D01*
X230852180Y-48422126D01*
X231493181Y-49063127D01*
X231526666Y-49124450D01*
X231529500Y-49150808D01*
X231529500Y-50235858D01*
X231509815Y-50302897D01*
X231457011Y-50348652D01*
X231448847Y-50352034D01*
X231437669Y-50356204D01*
X231437664Y-50356206D01*
X231322455Y-50442452D01*
X231322452Y-50442455D01*
X231236206Y-50557664D01*
X231236202Y-50557671D01*
X231185908Y-50692517D01*
X231179501Y-50752116D01*
X231179501Y-50752123D01*
X231179500Y-50752135D01*
X231179500Y-53357870D01*
X231179501Y-53357876D01*
X231185908Y-53417483D01*
X231236202Y-53552328D01*
X231236206Y-53552335D01*
X231322452Y-53667544D01*
X231322455Y-53667547D01*
X231437664Y-53753793D01*
X231437671Y-53753797D01*
X231572517Y-53804091D01*
X231572516Y-53804091D01*
X231579444Y-53804835D01*
X231632127Y-53810500D01*
X232727872Y-53810499D01*
X232787483Y-53804091D01*
X232922331Y-53753796D01*
X233037546Y-53667546D01*
X233123796Y-53552331D01*
X233174091Y-53417483D01*
X233180500Y-53357873D01*
X233180500Y-52829500D01*
X233200185Y-52762461D01*
X233252989Y-52716706D01*
X233304500Y-52705500D01*
X245248179Y-52705500D01*
X245315218Y-52725185D01*
X245360973Y-52777989D01*
X245368384Y-52799059D01*
X245375933Y-52828870D01*
X245375936Y-52828878D01*
X245475826Y-53056606D01*
X245611833Y-53264782D01*
X245611836Y-53264785D01*
X245780256Y-53447738D01*
X245976491Y-53600474D01*
X246195190Y-53718828D01*
X246430386Y-53799571D01*
X246675665Y-53840500D01*
X246924335Y-53840500D01*
X247169614Y-53799571D01*
X247404810Y-53718828D01*
X247623509Y-53600474D01*
X247819744Y-53447738D01*
X247988164Y-53264785D01*
X248124173Y-53056607D01*
X248224063Y-52828881D01*
X248285108Y-52587821D01*
X248285109Y-52587812D01*
X248305643Y-52340005D01*
X248305643Y-52339994D01*
X248285109Y-52092187D01*
X248285107Y-52092175D01*
X248224063Y-51851118D01*
X248124174Y-51623396D01*
X248124173Y-51623393D01*
X247993256Y-51423009D01*
X247973070Y-51356122D01*
X247992250Y-51288936D01*
X248037642Y-51246356D01*
X248042323Y-51243798D01*
X248042331Y-51243796D01*
X248157546Y-51157546D01*
X248243796Y-51042331D01*
X248294091Y-50907483D01*
X248300500Y-50847873D01*
X248300499Y-48752128D01*
X248294091Y-48692517D01*
X248283621Y-48664446D01*
X248243797Y-48557671D01*
X248243793Y-48557664D01*
X248157547Y-48442455D01*
X248157544Y-48442452D01*
X248042335Y-48356206D01*
X248042328Y-48356202D01*
X247907482Y-48305908D01*
X247907483Y-48305908D01*
X247847883Y-48299501D01*
X247847881Y-48299500D01*
X247847873Y-48299500D01*
X247847864Y-48299500D01*
X245752129Y-48299500D01*
X245752123Y-48299501D01*
X245692516Y-48305908D01*
X245557671Y-48356202D01*
X245557664Y-48356206D01*
X245442455Y-48442452D01*
X245442452Y-48442455D01*
X245356206Y-48557664D01*
X245356202Y-48557671D01*
X245305908Y-48692517D01*
X245299501Y-48752116D01*
X245299501Y-48752123D01*
X245299500Y-48752135D01*
X245299500Y-50847870D01*
X245299501Y-50847876D01*
X245305908Y-50907483D01*
X245356202Y-51042328D01*
X245356206Y-51042335D01*
X245442452Y-51157544D01*
X245442453Y-51157544D01*
X245442454Y-51157546D01*
X245463083Y-51172989D01*
X245474097Y-51181234D01*
X245515967Y-51237168D01*
X245520951Y-51306860D01*
X245487465Y-51368182D01*
X245426141Y-51401667D01*
X245399785Y-51404500D01*
X233304499Y-51404500D01*
X233237460Y-51384815D01*
X233191705Y-51332011D01*
X233180499Y-51280500D01*
X233180499Y-50752129D01*
X233180498Y-50752123D01*
X233180497Y-50752116D01*
X233174091Y-50692517D01*
X233162464Y-50661344D01*
X233123797Y-50557671D01*
X233123793Y-50557664D01*
X233037547Y-50442455D01*
X233037544Y-50442452D01*
X232922335Y-50356206D01*
X232922332Y-50356205D01*
X232922331Y-50356204D01*
X232911161Y-50352038D01*
X232855231Y-50310166D01*
X232830816Y-50244701D01*
X232830500Y-50235858D01*
X232830500Y-48765928D01*
X232805502Y-48640261D01*
X232805501Y-48640260D01*
X232805501Y-48640256D01*
X232756465Y-48521873D01*
X232685277Y-48415331D01*
X232685275Y-48415329D01*
X232685273Y-48415326D01*
X232685272Y-48415325D01*
X231632127Y-47362181D01*
X231598642Y-47300858D01*
X231603626Y-47231166D01*
X231645498Y-47175233D01*
X231710962Y-47150816D01*
X231719808Y-47150500D01*
X232154192Y-47150500D01*
X232221231Y-47170185D01*
X232241873Y-47186819D01*
X233683181Y-48628127D01*
X233716666Y-48689450D01*
X233719500Y-48715808D01*
X233719500Y-50047870D01*
X233719501Y-50047876D01*
X233725908Y-50107483D01*
X233776202Y-50242328D01*
X233776206Y-50242335D01*
X233862452Y-50357544D01*
X233862455Y-50357547D01*
X233977664Y-50443793D01*
X233977671Y-50443797D01*
X234112517Y-50494091D01*
X234112516Y-50494091D01*
X234119444Y-50494835D01*
X234172127Y-50500500D01*
X235267872Y-50500499D01*
X235327483Y-50494091D01*
X235462331Y-50443796D01*
X235577546Y-50357546D01*
X235663796Y-50242331D01*
X235714091Y-50107483D01*
X235720500Y-50047873D01*
X235720499Y-47793713D01*
X238449500Y-47793713D01*
X238449500Y-48006286D01*
X238481835Y-48210445D01*
X238482754Y-48216243D01*
X238547440Y-48415326D01*
X238548444Y-48418414D01*
X238644951Y-48607820D01*
X238769890Y-48779786D01*
X238920213Y-48930109D01*
X239092179Y-49055048D01*
X239092181Y-49055049D01*
X239092184Y-49055051D01*
X239281588Y-49151557D01*
X239483757Y-49217246D01*
X239693713Y-49250500D01*
X239693714Y-49250500D01*
X239906286Y-49250500D01*
X239906287Y-49250500D01*
X240116243Y-49217246D01*
X240318412Y-49151557D01*
X240507816Y-49055051D01*
X240598676Y-48989038D01*
X240679786Y-48930109D01*
X240679788Y-48930106D01*
X240679792Y-48930104D01*
X240830104Y-48779792D01*
X240830106Y-48779788D01*
X240830109Y-48779786D01*
X240955048Y-48607820D01*
X240955047Y-48607820D01*
X240955051Y-48607816D01*
X241051557Y-48418412D01*
X241117246Y-48216243D01*
X241150500Y-48006287D01*
X241150500Y-47793713D01*
X241117246Y-47583757D01*
X241051557Y-47381588D01*
X240955051Y-47192184D01*
X240955049Y-47192181D01*
X240955048Y-47192179D01*
X240830109Y-47020213D01*
X240679786Y-46869890D01*
X240507820Y-46744951D01*
X240318414Y-46648444D01*
X240318413Y-46648443D01*
X240318412Y-46648443D01*
X240116243Y-46582754D01*
X240116241Y-46582753D01*
X240116240Y-46582753D01*
X239954957Y-46557208D01*
X239906287Y-46549500D01*
X239693713Y-46549500D01*
X239645042Y-46557208D01*
X239483760Y-46582753D01*
X239281585Y-46648444D01*
X239092179Y-46744951D01*
X238920213Y-46869890D01*
X238769890Y-47020213D01*
X238644951Y-47192179D01*
X238548444Y-47381585D01*
X238482753Y-47583760D01*
X238449500Y-47793713D01*
X235720499Y-47793713D01*
X235720499Y-47442128D01*
X235714091Y-47382517D01*
X235713743Y-47381585D01*
X235663797Y-47247671D01*
X235663793Y-47247664D01*
X235577547Y-47132455D01*
X235577544Y-47132452D01*
X235462335Y-47046206D01*
X235462328Y-47046202D01*
X235327482Y-46995908D01*
X235327483Y-46995908D01*
X235267883Y-46989501D01*
X235267881Y-46989500D01*
X235267873Y-46989500D01*
X235267864Y-46989500D01*
X234172129Y-46989500D01*
X234172123Y-46989501D01*
X234112516Y-46995908D01*
X234025735Y-47028276D01*
X233956043Y-47033260D01*
X233894721Y-46999775D01*
X232889674Y-45994727D01*
X232889667Y-45994721D01*
X232789215Y-45927602D01*
X232744409Y-45873990D01*
X232735702Y-45804665D01*
X232765856Y-45741638D01*
X232825299Y-45704918D01*
X232858105Y-45700500D01*
X251125500Y-45700500D01*
X251192539Y-45720185D01*
X251238294Y-45772989D01*
X251249500Y-45824500D01*
X251249500Y-57975500D01*
X251229815Y-58042539D01*
X251177011Y-58088294D01*
X251125500Y-58099500D01*
X246602129Y-58099500D01*
X246602123Y-58099501D01*
X246542516Y-58105908D01*
X246407671Y-58156202D01*
X246407664Y-58156206D01*
X246292455Y-58242452D01*
X246292452Y-58242455D01*
X246206206Y-58357664D01*
X246206202Y-58357671D01*
X246155908Y-58492517D01*
X246149501Y-58552116D01*
X246149500Y-58552135D01*
X246149500Y-67447870D01*
X246149501Y-67447876D01*
X246155908Y-67507483D01*
X246206202Y-67642328D01*
X246206206Y-67642335D01*
X246292452Y-67757544D01*
X246292455Y-67757547D01*
X246407664Y-67843793D01*
X246407671Y-67843797D01*
X246542517Y-67894091D01*
X246542516Y-67894091D01*
X246549444Y-67894835D01*
X246602127Y-67900500D01*
X251125500Y-67900499D01*
X251192539Y-67920184D01*
X251238294Y-67972988D01*
X251249500Y-68024499D01*
X251249500Y-97675500D01*
X251229815Y-97742539D01*
X251177011Y-97788294D01*
X251125500Y-97799500D01*
X202674500Y-97799500D01*
X202607461Y-97779815D01*
X202561706Y-97727011D01*
X202550500Y-97675500D01*
X202550500Y-85993713D01*
X203449500Y-85993713D01*
X203449500Y-86206286D01*
X203480550Y-86402331D01*
X203482754Y-86416243D01*
X203547571Y-86615729D01*
X203548444Y-86618414D01*
X203644951Y-86807820D01*
X203769890Y-86979786D01*
X203920213Y-87130109D01*
X204092179Y-87255048D01*
X204092181Y-87255049D01*
X204092184Y-87255051D01*
X204281588Y-87351557D01*
X204483757Y-87417246D01*
X204693713Y-87450500D01*
X204693714Y-87450500D01*
X204906286Y-87450500D01*
X204906287Y-87450500D01*
X205116243Y-87417246D01*
X205318412Y-87351557D01*
X205507816Y-87255051D01*
X205557673Y-87218828D01*
X205679786Y-87130109D01*
X205679788Y-87130106D01*
X205679792Y-87130104D01*
X205830104Y-86979792D01*
X205830106Y-86979788D01*
X205830109Y-86979786D01*
X205955048Y-86807820D01*
X205955047Y-86807820D01*
X205955051Y-86807816D01*
X206051557Y-86618412D01*
X206117246Y-86416243D01*
X206150500Y-86206287D01*
X206150500Y-85993713D01*
X206117246Y-85783757D01*
X206051557Y-85581588D01*
X205955051Y-85392184D01*
X205955049Y-85392181D01*
X205955048Y-85392179D01*
X205830109Y-85220213D01*
X205679786Y-85069890D01*
X205507820Y-84944951D01*
X205318414Y-84848444D01*
X205318413Y-84848443D01*
X205318412Y-84848443D01*
X205116243Y-84782754D01*
X205116241Y-84782753D01*
X205116240Y-84782753D01*
X204954957Y-84757208D01*
X204906287Y-84749500D01*
X204693713Y-84749500D01*
X204645042Y-84757208D01*
X204483760Y-84782753D01*
X204281585Y-84848444D01*
X204092179Y-84944951D01*
X203920213Y-85069890D01*
X203769890Y-85220213D01*
X203644951Y-85392179D01*
X203548444Y-85581585D01*
X203482753Y-85783760D01*
X203449500Y-85993713D01*
X202550500Y-85993713D01*
X202550500Y-56893713D01*
X203449500Y-56893713D01*
X203449500Y-57106286D01*
X203481163Y-57306202D01*
X203482754Y-57316243D01*
X203544952Y-57507669D01*
X203548444Y-57518414D01*
X203644951Y-57707820D01*
X203769890Y-57879786D01*
X203920213Y-58030109D01*
X204092179Y-58155048D01*
X204092181Y-58155049D01*
X204092184Y-58155051D01*
X204281588Y-58251557D01*
X204483757Y-58317246D01*
X204693713Y-58350500D01*
X204693714Y-58350500D01*
X204906286Y-58350500D01*
X204906287Y-58350500D01*
X205116243Y-58317246D01*
X205318412Y-58251557D01*
X205507816Y-58155051D01*
X205599700Y-58088294D01*
X205679786Y-58030109D01*
X205679788Y-58030106D01*
X205679792Y-58030104D01*
X205830104Y-57879792D01*
X205830106Y-57879788D01*
X205830109Y-57879786D01*
X205955048Y-57707820D01*
X205955047Y-57707820D01*
X205955051Y-57707816D01*
X206051557Y-57518412D01*
X206117246Y-57316243D01*
X206150500Y-57106287D01*
X206150500Y-56893713D01*
X206117246Y-56683757D01*
X206051557Y-56481588D01*
X205955051Y-56292184D01*
X205955049Y-56292181D01*
X205955048Y-56292179D01*
X205830109Y-56120213D01*
X205679786Y-55969890D01*
X205507820Y-55844951D01*
X205318414Y-55748444D01*
X205318413Y-55748443D01*
X205318412Y-55748443D01*
X205116243Y-55682754D01*
X205116241Y-55682753D01*
X205116240Y-55682753D01*
X204954957Y-55657208D01*
X204906287Y-55649500D01*
X204693713Y-55649500D01*
X204645042Y-55657208D01*
X204483760Y-55682753D01*
X204281585Y-55748444D01*
X204092179Y-55844951D01*
X203920213Y-55969890D01*
X203769890Y-56120213D01*
X203644951Y-56292179D01*
X203548444Y-56481585D01*
X203482753Y-56683760D01*
X203449500Y-56893713D01*
X202550500Y-56893713D01*
X202550500Y-45824500D01*
X202570185Y-45757461D01*
X202622989Y-45711706D01*
X202674500Y-45700500D01*
X224761895Y-45700500D01*
X224828934Y-45720185D01*
G37*
%TD.AperFunction*%
%TA.AperFunction,Conductor*%
G36*
X214692843Y-71970184D02*
G01*
X214738598Y-72022988D01*
X214748542Y-72092146D01*
X214740365Y-72121951D01*
X214724500Y-72160251D01*
X214724497Y-72160261D01*
X214699500Y-72285928D01*
X214699500Y-72285931D01*
X214699500Y-74514069D01*
X214716172Y-74597883D01*
X214723738Y-74635914D01*
X214723740Y-74635938D01*
X214723742Y-74635938D01*
X214724499Y-74639744D01*
X214724500Y-74639748D01*
X214773533Y-74758124D01*
X214773534Y-74758126D01*
X214773535Y-74758127D01*
X214788118Y-74779953D01*
X214844726Y-74864673D01*
X214844727Y-74864674D01*
X217424601Y-77444547D01*
X217458086Y-77505870D01*
X217453102Y-77575562D01*
X217411230Y-77631495D01*
X217345766Y-77655912D01*
X217326113Y-77655756D01*
X217200002Y-77644723D01*
X217199998Y-77644723D01*
X217054682Y-77657436D01*
X216982023Y-77663793D01*
X216982020Y-77663793D01*
X216770677Y-77720422D01*
X216770668Y-77720426D01*
X216572361Y-77812898D01*
X216572357Y-77812900D01*
X216393121Y-77938402D01*
X216238404Y-78093119D01*
X216235952Y-78096622D01*
X216181375Y-78140248D01*
X216134376Y-78149500D01*
X214507052Y-78149500D01*
X214440013Y-78129815D01*
X214419371Y-78113181D01*
X214298351Y-77992161D01*
X214298350Y-77992160D01*
X214165563Y-77910256D01*
X214151518Y-77901593D01*
X214151513Y-77901591D01*
X214150069Y-77901112D01*
X213987753Y-77847326D01*
X213987751Y-77847325D01*
X213886678Y-77837000D01*
X213313330Y-77837000D01*
X213313312Y-77837001D01*
X213212247Y-77847325D01*
X213048484Y-77901592D01*
X213048481Y-77901593D01*
X212901648Y-77992161D01*
X212779661Y-78114148D01*
X212689093Y-78260981D01*
X212689091Y-78260986D01*
X212666188Y-78330104D01*
X212634826Y-78424747D01*
X212634826Y-78424748D01*
X212634825Y-78424748D01*
X212624500Y-78525815D01*
X212624500Y-79224169D01*
X212624501Y-79224187D01*
X212634825Y-79325252D01*
X212689092Y-79489015D01*
X212689093Y-79489018D01*
X212709520Y-79522135D01*
X212776462Y-79630666D01*
X212779661Y-79635851D01*
X212793982Y-79650172D01*
X212827467Y-79711495D01*
X212822483Y-79781187D01*
X212793985Y-79825532D01*
X212780052Y-79839465D01*
X212689551Y-79986188D01*
X212689546Y-79986199D01*
X212635319Y-80149847D01*
X212625000Y-80250845D01*
X212625000Y-80350000D01*
X214574999Y-80350000D01*
X214574999Y-80250860D01*
X214574998Y-80250845D01*
X214564680Y-80149847D01*
X214510453Y-79986199D01*
X214510448Y-79986188D01*
X214420029Y-79839597D01*
X214401588Y-79772205D01*
X214422510Y-79705541D01*
X214476152Y-79660772D01*
X214525567Y-79650500D01*
X216134376Y-79650500D01*
X216201415Y-79670185D01*
X216235949Y-79703374D01*
X216238402Y-79706877D01*
X216393123Y-79861598D01*
X216572361Y-79987102D01*
X216770670Y-80079575D01*
X216982023Y-80136207D01*
X217164926Y-80152208D01*
X217199998Y-80155277D01*
X217200000Y-80155277D01*
X217200002Y-80155277D01*
X217228254Y-80152805D01*
X217417977Y-80136207D01*
X217629330Y-80079575D01*
X217827639Y-79987102D01*
X218006877Y-79861598D01*
X218161598Y-79706877D01*
X218287102Y-79527639D01*
X218379575Y-79329330D01*
X218402137Y-79245128D01*
X218438502Y-79185467D01*
X218501349Y-79154938D01*
X218570724Y-79163233D01*
X218609593Y-79189540D01*
X219893115Y-80473061D01*
X219926600Y-80534384D01*
X219925209Y-80592834D01*
X219914367Y-80633299D01*
X219914364Y-80633313D01*
X219894532Y-80859998D01*
X219894532Y-80860001D01*
X219914364Y-81086686D01*
X219914366Y-81086697D01*
X219973258Y-81306488D01*
X219973260Y-81306492D01*
X219973261Y-81306496D01*
X220015793Y-81397705D01*
X220049758Y-81470544D01*
X220060250Y-81539622D01*
X220031730Y-81603406D01*
X220025057Y-81610630D01*
X218994726Y-82640961D01*
X218994723Y-82640966D01*
X218946661Y-82712898D01*
X218939770Y-82723211D01*
X218939769Y-82723212D01*
X218923534Y-82747508D01*
X218874499Y-82865890D01*
X218874497Y-82865896D01*
X218849500Y-82991563D01*
X218849500Y-90168456D01*
X218829815Y-90235495D01*
X218777011Y-90281250D01*
X218707853Y-90291194D01*
X218651189Y-90267723D01*
X218620465Y-90244723D01*
X218562331Y-90201204D01*
X218562329Y-90201203D01*
X218562328Y-90201202D01*
X218427482Y-90150908D01*
X218427483Y-90150908D01*
X218367883Y-90144501D01*
X218367881Y-90144500D01*
X218367873Y-90144500D01*
X218367864Y-90144500D01*
X217272129Y-90144500D01*
X217272123Y-90144501D01*
X217212516Y-90150908D01*
X217077671Y-90201202D01*
X217077664Y-90201206D01*
X216962455Y-90287452D01*
X216962452Y-90287455D01*
X216876206Y-90402664D01*
X216876202Y-90402671D01*
X216825908Y-90537517D01*
X216821361Y-90579815D01*
X216819501Y-90597123D01*
X216819500Y-90597135D01*
X216819500Y-91125500D01*
X216799815Y-91192539D01*
X216747011Y-91238294D01*
X216695500Y-91249500D01*
X212820808Y-91249500D01*
X212753769Y-91229815D01*
X212733127Y-91213181D01*
X212036819Y-90516873D01*
X212003334Y-90455550D01*
X212000500Y-90429192D01*
X212000500Y-83575815D01*
X212624500Y-83575815D01*
X212624500Y-84274169D01*
X212624501Y-84274187D01*
X212634825Y-84375252D01*
X212652185Y-84427639D01*
X212686292Y-84530567D01*
X212689092Y-84539015D01*
X212689093Y-84539018D01*
X212700566Y-84557618D01*
X212779660Y-84685850D01*
X212901650Y-84807840D01*
X213048484Y-84898408D01*
X213212247Y-84952674D01*
X213313323Y-84963000D01*
X213886676Y-84962999D01*
X213886684Y-84962998D01*
X213886687Y-84962998D01*
X213942030Y-84957344D01*
X213987753Y-84952674D01*
X214151516Y-84898408D01*
X214298350Y-84807840D01*
X214420340Y-84685850D01*
X214452416Y-84633847D01*
X214467494Y-84609403D01*
X214519442Y-84562678D01*
X214573032Y-84550500D01*
X216134376Y-84550500D01*
X216201415Y-84570185D01*
X216235949Y-84603374D01*
X216238402Y-84606877D01*
X216393123Y-84761598D01*
X216572361Y-84887102D01*
X216770670Y-84979575D01*
X216982023Y-85036207D01*
X217164926Y-85052208D01*
X217199998Y-85055277D01*
X217200000Y-85055277D01*
X217200002Y-85055277D01*
X217231559Y-85052516D01*
X217417977Y-85036207D01*
X217629330Y-84979575D01*
X217827639Y-84887102D01*
X218006877Y-84761598D01*
X218161598Y-84606877D01*
X218287102Y-84427639D01*
X218379575Y-84229330D01*
X218436207Y-84017977D01*
X218455277Y-83800000D01*
X218436207Y-83582023D01*
X218387434Y-83400000D01*
X218379577Y-83370677D01*
X218379576Y-83370676D01*
X218379575Y-83370670D01*
X218287102Y-83172362D01*
X218287100Y-83172359D01*
X218287099Y-83172357D01*
X218161599Y-82993124D01*
X218120067Y-82951592D01*
X218006877Y-82838402D01*
X217842369Y-82723212D01*
X217827638Y-82712897D01*
X217728484Y-82666661D01*
X217629330Y-82620425D01*
X217629326Y-82620424D01*
X217629322Y-82620422D01*
X217417977Y-82563793D01*
X217200002Y-82544723D01*
X217199998Y-82544723D01*
X217054682Y-82557436D01*
X216982023Y-82563793D01*
X216982020Y-82563793D01*
X216770677Y-82620422D01*
X216770668Y-82620426D01*
X216572361Y-82712898D01*
X216572357Y-82712900D01*
X216393121Y-82838402D01*
X216238404Y-82993119D01*
X216235952Y-82996622D01*
X216181375Y-83040248D01*
X216134376Y-83049500D01*
X214587248Y-83049500D01*
X214520209Y-83029815D01*
X214474454Y-82977011D01*
X214464510Y-82907853D01*
X214481710Y-82860403D01*
X214510448Y-82813811D01*
X214510453Y-82813800D01*
X214564680Y-82650152D01*
X214574999Y-82549154D01*
X214575000Y-82549141D01*
X214575000Y-82450000D01*
X212625001Y-82450000D01*
X212625001Y-82549154D01*
X212635319Y-82650152D01*
X212689546Y-82813800D01*
X212689551Y-82813811D01*
X212780052Y-82960534D01*
X212780055Y-82960538D01*
X212793982Y-82974465D01*
X212827467Y-83035788D01*
X212822483Y-83105480D01*
X212793984Y-83149825D01*
X212779661Y-83164148D01*
X212689093Y-83310981D01*
X212689091Y-83310986D01*
X212665102Y-83383380D01*
X212634826Y-83474747D01*
X212634826Y-83474748D01*
X212634825Y-83474748D01*
X212624500Y-83575815D01*
X212000500Y-83575815D01*
X212000500Y-81850845D01*
X212625000Y-81850845D01*
X212625000Y-81950000D01*
X213350000Y-81950000D01*
X213850000Y-81950000D01*
X214574999Y-81950000D01*
X214574999Y-81850860D01*
X214574998Y-81850845D01*
X214564680Y-81749847D01*
X214510453Y-81586199D01*
X214510450Y-81586192D01*
X214435757Y-81465098D01*
X214417316Y-81397705D01*
X214435757Y-81334902D01*
X214510450Y-81213807D01*
X214510453Y-81213800D01*
X214564680Y-81050152D01*
X214574999Y-80949154D01*
X214575000Y-80949141D01*
X214575000Y-80850000D01*
X213850000Y-80850000D01*
X213850000Y-81950000D01*
X213350000Y-81950000D01*
X213350000Y-80850000D01*
X212625001Y-80850000D01*
X212625001Y-80949154D01*
X212635319Y-81050152D01*
X212689546Y-81213800D01*
X212689548Y-81213805D01*
X212764243Y-81334903D01*
X212782683Y-81402295D01*
X212764243Y-81465097D01*
X212689548Y-81586194D01*
X212689546Y-81586199D01*
X212635319Y-81749847D01*
X212625000Y-81850845D01*
X212000500Y-81850845D01*
X212000500Y-75205067D01*
X212019507Y-75139094D01*
X212075788Y-75049524D01*
X212125468Y-74907547D01*
X212135368Y-74879255D01*
X212137011Y-74864673D01*
X212155565Y-74700003D01*
X212155565Y-74699996D01*
X212135369Y-74520750D01*
X212135368Y-74520745D01*
X212116470Y-74466739D01*
X212075789Y-74350478D01*
X211979816Y-74197738D01*
X211852262Y-74070184D01*
X211733663Y-73995663D01*
X211687373Y-73943329D01*
X211676725Y-73874276D01*
X211705100Y-73810427D01*
X211711943Y-73803001D01*
X213528127Y-71986818D01*
X213589450Y-71953333D01*
X213615808Y-71950499D01*
X214625804Y-71950499D01*
X214692843Y-71970184D01*
G37*
%TD.AperFunction*%
%TA.AperFunction,Conductor*%
G36*
X233492297Y-81455185D02*
G01*
X233512939Y-81471819D01*
X233949439Y-81908319D01*
X233982924Y-81969642D01*
X233977940Y-82039334D01*
X233936068Y-82095267D01*
X233870604Y-82119684D01*
X233861758Y-82120000D01*
X233600000Y-82120000D01*
X233600000Y-84120000D01*
X234972828Y-84120000D01*
X234972844Y-84119999D01*
X235032372Y-84113598D01*
X235032379Y-84113596D01*
X235167086Y-84063354D01*
X235167089Y-84063352D01*
X235226188Y-84019111D01*
X235291652Y-83994693D01*
X235359926Y-84009544D01*
X235409331Y-84058949D01*
X235424500Y-84118377D01*
X235424500Y-84660998D01*
X235404815Y-84728037D01*
X235352011Y-84773792D01*
X235282853Y-84783736D01*
X235226189Y-84760265D01*
X235167331Y-84716204D01*
X235167328Y-84716202D01*
X235032482Y-84665908D01*
X235032483Y-84665908D01*
X234972883Y-84659501D01*
X234972881Y-84659500D01*
X234972873Y-84659500D01*
X234972864Y-84659500D01*
X231727129Y-84659500D01*
X231727123Y-84659501D01*
X231667516Y-84665908D01*
X231532671Y-84716202D01*
X231532664Y-84716206D01*
X231417455Y-84802452D01*
X231340049Y-84905853D01*
X231284115Y-84947723D01*
X231214424Y-84952707D01*
X231153102Y-84919222D01*
X230104470Y-83870590D01*
X230070985Y-83809267D01*
X230072376Y-83750815D01*
X230078658Y-83727372D01*
X230094608Y-83667844D01*
X231275000Y-83667844D01*
X231281401Y-83727372D01*
X231281403Y-83727379D01*
X231331645Y-83862086D01*
X231331649Y-83862093D01*
X231417809Y-83977187D01*
X231417812Y-83977190D01*
X231532906Y-84063350D01*
X231532913Y-84063354D01*
X231667620Y-84113596D01*
X231667627Y-84113598D01*
X231727155Y-84119999D01*
X231727172Y-84120000D01*
X233100000Y-84120000D01*
X233100000Y-83370000D01*
X231275000Y-83370000D01*
X231275000Y-83667844D01*
X230094608Y-83667844D01*
X230105635Y-83626692D01*
X230125468Y-83400000D01*
X230105635Y-83173308D01*
X230053038Y-82977011D01*
X230046741Y-82953511D01*
X230046738Y-82953502D01*
X230025451Y-82907853D01*
X229950568Y-82747266D01*
X229827955Y-82572155D01*
X231275000Y-82572155D01*
X231275000Y-82870000D01*
X233100000Y-82870000D01*
X233100000Y-82120000D01*
X231727155Y-82120000D01*
X231667627Y-82126401D01*
X231667620Y-82126403D01*
X231532913Y-82176645D01*
X231532906Y-82176649D01*
X231417812Y-82262809D01*
X231417809Y-82262812D01*
X231331649Y-82377906D01*
X231331645Y-82377913D01*
X231281403Y-82512620D01*
X231281401Y-82512627D01*
X231275000Y-82572155D01*
X229827955Y-82572155D01*
X229820047Y-82560861D01*
X229820045Y-82560858D01*
X229659141Y-82399954D01*
X229472734Y-82269432D01*
X229472728Y-82269429D01*
X229435626Y-82252128D01*
X229414724Y-82242381D01*
X229362285Y-82196210D01*
X229343133Y-82129017D01*
X229363348Y-82062135D01*
X229414725Y-82017618D01*
X229472734Y-81990568D01*
X229659139Y-81860047D01*
X229820047Y-81699139D01*
X229950568Y-81512734D01*
X229953197Y-81507095D01*
X229999367Y-81454657D01*
X230065579Y-81435500D01*
X233425258Y-81435500D01*
X233492297Y-81455185D01*
G37*
%TD.AperFunction*%
%TD*%
M02*
