%TF.GenerationSoftware,KiCad,Pcbnew,8.0.7*%
%TF.CreationDate,2024-12-21T11:08:24+01:00*%
%TF.ProjectId,circuit,63697263-7569-4742-9e6b-696361645f70,rev?*%
%TF.SameCoordinates,Original*%
%TF.FileFunction,Legend,Top*%
%TF.FilePolarity,Positive*%
%FSLAX46Y46*%
G04 Gerber Fmt 4.6, Leading zero omitted, Abs format (unit mm)*
G04 Created by KiCad (PCBNEW 8.0.7) date 2024-12-21 11:08:24*
%MOMM*%
%LPD*%
G01*
G04 APERTURE LIST*
%ADD10C,0.150000*%
%ADD11C,0.120000*%
G04 APERTURE END LIST*
D10*
X246438095Y-88954819D02*
X246438095Y-89669104D01*
X246438095Y-89669104D02*
X246390476Y-89811961D01*
X246390476Y-89811961D02*
X246295238Y-89907200D01*
X246295238Y-89907200D02*
X246152381Y-89954819D01*
X246152381Y-89954819D02*
X246057143Y-89954819D01*
X247438095Y-89954819D02*
X246866667Y-89954819D01*
X247152381Y-89954819D02*
X247152381Y-88954819D01*
X247152381Y-88954819D02*
X247057143Y-89097676D01*
X247057143Y-89097676D02*
X246961905Y-89192914D01*
X246961905Y-89192914D02*
X246866667Y-89240533D01*
X247866667Y-89859580D02*
X247914286Y-89907200D01*
X247914286Y-89907200D02*
X247866667Y-89954819D01*
X247866667Y-89954819D02*
X247819048Y-89907200D01*
X247819048Y-89907200D02*
X247866667Y-89859580D01*
X247866667Y-89859580D02*
X247866667Y-89954819D01*
X248866666Y-89954819D02*
X248295238Y-89954819D01*
X248580952Y-89954819D02*
X248580952Y-88954819D01*
X248580952Y-88954819D02*
X248485714Y-89097676D01*
X248485714Y-89097676D02*
X248390476Y-89192914D01*
X248390476Y-89192914D02*
X248295238Y-89240533D01*
X249295238Y-89859580D02*
X249342857Y-89907200D01*
X249342857Y-89907200D02*
X249295238Y-89954819D01*
X249295238Y-89954819D02*
X249247619Y-89907200D01*
X249247619Y-89907200D02*
X249295238Y-89859580D01*
X249295238Y-89859580D02*
X249295238Y-89954819D01*
X249676190Y-88954819D02*
X250295237Y-88954819D01*
X250295237Y-88954819D02*
X249961904Y-89335771D01*
X249961904Y-89335771D02*
X250104761Y-89335771D01*
X250104761Y-89335771D02*
X250199999Y-89383390D01*
X250199999Y-89383390D02*
X250247618Y-89431009D01*
X250247618Y-89431009D02*
X250295237Y-89526247D01*
X250295237Y-89526247D02*
X250295237Y-89764342D01*
X250295237Y-89764342D02*
X250247618Y-89859580D01*
X250247618Y-89859580D02*
X250199999Y-89907200D01*
X250199999Y-89907200D02*
X250104761Y-89954819D01*
X250104761Y-89954819D02*
X249819047Y-89954819D01*
X249819047Y-89954819D02*
X249723809Y-89907200D01*
X249723809Y-89907200D02*
X249676190Y-89859580D01*
X250931009Y-96214286D02*
X250978628Y-96071429D01*
X250978628Y-96071429D02*
X251026247Y-96023810D01*
X251026247Y-96023810D02*
X251121485Y-95976191D01*
X251121485Y-95976191D02*
X251264342Y-95976191D01*
X251264342Y-95976191D02*
X251359580Y-96023810D01*
X251359580Y-96023810D02*
X251407200Y-96071429D01*
X251407200Y-96071429D02*
X251454819Y-96166667D01*
X251454819Y-96166667D02*
X251454819Y-96547619D01*
X251454819Y-96547619D02*
X250454819Y-96547619D01*
X250454819Y-96547619D02*
X250454819Y-96214286D01*
X250454819Y-96214286D02*
X250502438Y-96119048D01*
X250502438Y-96119048D02*
X250550057Y-96071429D01*
X250550057Y-96071429D02*
X250645295Y-96023810D01*
X250645295Y-96023810D02*
X250740533Y-96023810D01*
X250740533Y-96023810D02*
X250835771Y-96071429D01*
X250835771Y-96071429D02*
X250883390Y-96119048D01*
X250883390Y-96119048D02*
X250931009Y-96214286D01*
X250931009Y-96214286D02*
X250931009Y-96547619D01*
X250788152Y-95119048D02*
X251454819Y-95119048D01*
X250788152Y-95547619D02*
X251311961Y-95547619D01*
X251311961Y-95547619D02*
X251407200Y-95500000D01*
X251407200Y-95500000D02*
X251454819Y-95404762D01*
X251454819Y-95404762D02*
X251454819Y-95261905D01*
X251454819Y-95261905D02*
X251407200Y-95166667D01*
X251407200Y-95166667D02*
X251359580Y-95119048D01*
X250788152Y-94785714D02*
X250788152Y-94404762D01*
X250454819Y-94642857D02*
X251311961Y-94642857D01*
X251311961Y-94642857D02*
X251407200Y-94595238D01*
X251407200Y-94595238D02*
X251454819Y-94500000D01*
X251454819Y-94500000D02*
X251454819Y-94404762D01*
X250788152Y-94214285D02*
X250788152Y-93833333D01*
X250454819Y-94071428D02*
X251311961Y-94071428D01*
X251311961Y-94071428D02*
X251407200Y-94023809D01*
X251407200Y-94023809D02*
X251454819Y-93928571D01*
X251454819Y-93928571D02*
X251454819Y-93833333D01*
X251454819Y-93357142D02*
X251407200Y-93452380D01*
X251407200Y-93452380D02*
X251359580Y-93499999D01*
X251359580Y-93499999D02*
X251264342Y-93547618D01*
X251264342Y-93547618D02*
X250978628Y-93547618D01*
X250978628Y-93547618D02*
X250883390Y-93499999D01*
X250883390Y-93499999D02*
X250835771Y-93452380D01*
X250835771Y-93452380D02*
X250788152Y-93357142D01*
X250788152Y-93357142D02*
X250788152Y-93214285D01*
X250788152Y-93214285D02*
X250835771Y-93119047D01*
X250835771Y-93119047D02*
X250883390Y-93071428D01*
X250883390Y-93071428D02*
X250978628Y-93023809D01*
X250978628Y-93023809D02*
X251264342Y-93023809D01*
X251264342Y-93023809D02*
X251359580Y-93071428D01*
X251359580Y-93071428D02*
X251407200Y-93119047D01*
X251407200Y-93119047D02*
X251454819Y-93214285D01*
X251454819Y-93214285D02*
X251454819Y-93357142D01*
X250788152Y-92595237D02*
X251454819Y-92595237D01*
X250883390Y-92595237D02*
X250835771Y-92547618D01*
X250835771Y-92547618D02*
X250788152Y-92452380D01*
X250788152Y-92452380D02*
X250788152Y-92309523D01*
X250788152Y-92309523D02*
X250835771Y-92214285D01*
X250835771Y-92214285D02*
X250931009Y-92166666D01*
X250931009Y-92166666D02*
X251454819Y-92166666D01*
X250454819Y-90452380D02*
X250454819Y-90928570D01*
X250454819Y-90928570D02*
X250931009Y-90976189D01*
X250931009Y-90976189D02*
X250883390Y-90928570D01*
X250883390Y-90928570D02*
X250835771Y-90833332D01*
X250835771Y-90833332D02*
X250835771Y-90595237D01*
X250835771Y-90595237D02*
X250883390Y-90499999D01*
X250883390Y-90499999D02*
X250931009Y-90452380D01*
X250931009Y-90452380D02*
X251026247Y-90404761D01*
X251026247Y-90404761D02*
X251264342Y-90404761D01*
X251264342Y-90404761D02*
X251359580Y-90452380D01*
X251359580Y-90452380D02*
X251407200Y-90499999D01*
X251407200Y-90499999D02*
X251454819Y-90595237D01*
X251454819Y-90595237D02*
X251454819Y-90833332D01*
X251454819Y-90833332D02*
X251407200Y-90928570D01*
X251407200Y-90928570D02*
X251359580Y-90976189D01*
X246438095Y-46554819D02*
X246438095Y-47269104D01*
X246438095Y-47269104D02*
X246390476Y-47411961D01*
X246390476Y-47411961D02*
X246295238Y-47507200D01*
X246295238Y-47507200D02*
X246152381Y-47554819D01*
X246152381Y-47554819D02*
X246057143Y-47554819D01*
X247438095Y-47554819D02*
X246866667Y-47554819D01*
X247152381Y-47554819D02*
X247152381Y-46554819D01*
X247152381Y-46554819D02*
X247057143Y-46697676D01*
X247057143Y-46697676D02*
X246961905Y-46792914D01*
X246961905Y-46792914D02*
X246866667Y-46840533D01*
X247866667Y-47459580D02*
X247914286Y-47507200D01*
X247914286Y-47507200D02*
X247866667Y-47554819D01*
X247866667Y-47554819D02*
X247819048Y-47507200D01*
X247819048Y-47507200D02*
X247866667Y-47459580D01*
X247866667Y-47459580D02*
X247866667Y-47554819D01*
X248866666Y-47554819D02*
X248295238Y-47554819D01*
X248580952Y-47554819D02*
X248580952Y-46554819D01*
X248580952Y-46554819D02*
X248485714Y-46697676D01*
X248485714Y-46697676D02*
X248390476Y-46792914D01*
X248390476Y-46792914D02*
X248295238Y-46840533D01*
X249295238Y-47459580D02*
X249342857Y-47507200D01*
X249342857Y-47507200D02*
X249295238Y-47554819D01*
X249295238Y-47554819D02*
X249247619Y-47507200D01*
X249247619Y-47507200D02*
X249295238Y-47459580D01*
X249295238Y-47459580D02*
X249295238Y-47554819D01*
X250295237Y-47554819D02*
X249723809Y-47554819D01*
X250009523Y-47554819D02*
X250009523Y-46554819D01*
X250009523Y-46554819D02*
X249914285Y-46697676D01*
X249914285Y-46697676D02*
X249819047Y-46792914D01*
X249819047Y-46792914D02*
X249723809Y-46840533D01*
X250931009Y-53914286D02*
X250978628Y-53771429D01*
X250978628Y-53771429D02*
X251026247Y-53723810D01*
X251026247Y-53723810D02*
X251121485Y-53676191D01*
X251121485Y-53676191D02*
X251264342Y-53676191D01*
X251264342Y-53676191D02*
X251359580Y-53723810D01*
X251359580Y-53723810D02*
X251407200Y-53771429D01*
X251407200Y-53771429D02*
X251454819Y-53866667D01*
X251454819Y-53866667D02*
X251454819Y-54247619D01*
X251454819Y-54247619D02*
X250454819Y-54247619D01*
X250454819Y-54247619D02*
X250454819Y-53914286D01*
X250454819Y-53914286D02*
X250502438Y-53819048D01*
X250502438Y-53819048D02*
X250550057Y-53771429D01*
X250550057Y-53771429D02*
X250645295Y-53723810D01*
X250645295Y-53723810D02*
X250740533Y-53723810D01*
X250740533Y-53723810D02*
X250835771Y-53771429D01*
X250835771Y-53771429D02*
X250883390Y-53819048D01*
X250883390Y-53819048D02*
X250931009Y-53914286D01*
X250931009Y-53914286D02*
X250931009Y-54247619D01*
X250788152Y-52819048D02*
X251454819Y-52819048D01*
X250788152Y-53247619D02*
X251311961Y-53247619D01*
X251311961Y-53247619D02*
X251407200Y-53200000D01*
X251407200Y-53200000D02*
X251454819Y-53104762D01*
X251454819Y-53104762D02*
X251454819Y-52961905D01*
X251454819Y-52961905D02*
X251407200Y-52866667D01*
X251407200Y-52866667D02*
X251359580Y-52819048D01*
X250788152Y-52485714D02*
X250788152Y-52104762D01*
X250454819Y-52342857D02*
X251311961Y-52342857D01*
X251311961Y-52342857D02*
X251407200Y-52295238D01*
X251407200Y-52295238D02*
X251454819Y-52200000D01*
X251454819Y-52200000D02*
X251454819Y-52104762D01*
X250788152Y-51914285D02*
X250788152Y-51533333D01*
X250454819Y-51771428D02*
X251311961Y-51771428D01*
X251311961Y-51771428D02*
X251407200Y-51723809D01*
X251407200Y-51723809D02*
X251454819Y-51628571D01*
X251454819Y-51628571D02*
X251454819Y-51533333D01*
X251454819Y-51057142D02*
X251407200Y-51152380D01*
X251407200Y-51152380D02*
X251359580Y-51199999D01*
X251359580Y-51199999D02*
X251264342Y-51247618D01*
X251264342Y-51247618D02*
X250978628Y-51247618D01*
X250978628Y-51247618D02*
X250883390Y-51199999D01*
X250883390Y-51199999D02*
X250835771Y-51152380D01*
X250835771Y-51152380D02*
X250788152Y-51057142D01*
X250788152Y-51057142D02*
X250788152Y-50914285D01*
X250788152Y-50914285D02*
X250835771Y-50819047D01*
X250835771Y-50819047D02*
X250883390Y-50771428D01*
X250883390Y-50771428D02*
X250978628Y-50723809D01*
X250978628Y-50723809D02*
X251264342Y-50723809D01*
X251264342Y-50723809D02*
X251359580Y-50771428D01*
X251359580Y-50771428D02*
X251407200Y-50819047D01*
X251407200Y-50819047D02*
X251454819Y-50914285D01*
X251454819Y-50914285D02*
X251454819Y-51057142D01*
X250788152Y-50295237D02*
X251454819Y-50295237D01*
X250883390Y-50295237D02*
X250835771Y-50247618D01*
X250835771Y-50247618D02*
X250788152Y-50152380D01*
X250788152Y-50152380D02*
X250788152Y-50009523D01*
X250788152Y-50009523D02*
X250835771Y-49914285D01*
X250835771Y-49914285D02*
X250931009Y-49866666D01*
X250931009Y-49866666D02*
X251454819Y-49866666D01*
X251454819Y-48104761D02*
X251454819Y-48676189D01*
X251454819Y-48390475D02*
X250454819Y-48390475D01*
X250454819Y-48390475D02*
X250597676Y-48485713D01*
X250597676Y-48485713D02*
X250692914Y-48580951D01*
X250692914Y-48580951D02*
X250740533Y-48676189D01*
X213233333Y-85799580D02*
X213185714Y-85847200D01*
X213185714Y-85847200D02*
X213042857Y-85894819D01*
X213042857Y-85894819D02*
X212947619Y-85894819D01*
X212947619Y-85894819D02*
X212804762Y-85847200D01*
X212804762Y-85847200D02*
X212709524Y-85751961D01*
X212709524Y-85751961D02*
X212661905Y-85656723D01*
X212661905Y-85656723D02*
X212614286Y-85466247D01*
X212614286Y-85466247D02*
X212614286Y-85323390D01*
X212614286Y-85323390D02*
X212661905Y-85132914D01*
X212661905Y-85132914D02*
X212709524Y-85037676D01*
X212709524Y-85037676D02*
X212804762Y-84942438D01*
X212804762Y-84942438D02*
X212947619Y-84894819D01*
X212947619Y-84894819D02*
X213042857Y-84894819D01*
X213042857Y-84894819D02*
X213185714Y-84942438D01*
X213185714Y-84942438D02*
X213233333Y-84990057D01*
X213614286Y-84990057D02*
X213661905Y-84942438D01*
X213661905Y-84942438D02*
X213757143Y-84894819D01*
X213757143Y-84894819D02*
X213995238Y-84894819D01*
X213995238Y-84894819D02*
X214090476Y-84942438D01*
X214090476Y-84942438D02*
X214138095Y-84990057D01*
X214138095Y-84990057D02*
X214185714Y-85085295D01*
X214185714Y-85085295D02*
X214185714Y-85180533D01*
X214185714Y-85180533D02*
X214138095Y-85323390D01*
X214138095Y-85323390D02*
X213566667Y-85894819D01*
X213566667Y-85894819D02*
X214185714Y-85894819D01*
X217166666Y-64454819D02*
X217166666Y-65169104D01*
X217166666Y-65169104D02*
X217119047Y-65311961D01*
X217119047Y-65311961D02*
X217023809Y-65407200D01*
X217023809Y-65407200D02*
X216880952Y-65454819D01*
X216880952Y-65454819D02*
X216785714Y-65454819D01*
X218166666Y-65454819D02*
X217595238Y-65454819D01*
X217880952Y-65454819D02*
X217880952Y-64454819D01*
X217880952Y-64454819D02*
X217785714Y-64597676D01*
X217785714Y-64597676D02*
X217690476Y-64692914D01*
X217690476Y-64692914D02*
X217595238Y-64740533D01*
X203938095Y-46554819D02*
X203938095Y-47269104D01*
X203938095Y-47269104D02*
X203890476Y-47411961D01*
X203890476Y-47411961D02*
X203795238Y-47507200D01*
X203795238Y-47507200D02*
X203652381Y-47554819D01*
X203652381Y-47554819D02*
X203557143Y-47554819D01*
X204938095Y-47554819D02*
X204366667Y-47554819D01*
X204652381Y-47554819D02*
X204652381Y-46554819D01*
X204652381Y-46554819D02*
X204557143Y-46697676D01*
X204557143Y-46697676D02*
X204461905Y-46792914D01*
X204461905Y-46792914D02*
X204366667Y-46840533D01*
X205366667Y-47459580D02*
X205414286Y-47507200D01*
X205414286Y-47507200D02*
X205366667Y-47554819D01*
X205366667Y-47554819D02*
X205319048Y-47507200D01*
X205319048Y-47507200D02*
X205366667Y-47459580D01*
X205366667Y-47459580D02*
X205366667Y-47554819D01*
X206366666Y-47554819D02*
X205795238Y-47554819D01*
X206080952Y-47554819D02*
X206080952Y-46554819D01*
X206080952Y-46554819D02*
X205985714Y-46697676D01*
X205985714Y-46697676D02*
X205890476Y-46792914D01*
X205890476Y-46792914D02*
X205795238Y-46840533D01*
X206795238Y-47459580D02*
X206842857Y-47507200D01*
X206842857Y-47507200D02*
X206795238Y-47554819D01*
X206795238Y-47554819D02*
X206747619Y-47507200D01*
X206747619Y-47507200D02*
X206795238Y-47459580D01*
X206795238Y-47459580D02*
X206795238Y-47554819D01*
X207223809Y-46650057D02*
X207271428Y-46602438D01*
X207271428Y-46602438D02*
X207366666Y-46554819D01*
X207366666Y-46554819D02*
X207604761Y-46554819D01*
X207604761Y-46554819D02*
X207699999Y-46602438D01*
X207699999Y-46602438D02*
X207747618Y-46650057D01*
X207747618Y-46650057D02*
X207795237Y-46745295D01*
X207795237Y-46745295D02*
X207795237Y-46840533D01*
X207795237Y-46840533D02*
X207747618Y-46983390D01*
X207747618Y-46983390D02*
X207176190Y-47554819D01*
X207176190Y-47554819D02*
X207795237Y-47554819D01*
X202831009Y-53914286D02*
X202878628Y-53771429D01*
X202878628Y-53771429D02*
X202926247Y-53723810D01*
X202926247Y-53723810D02*
X203021485Y-53676191D01*
X203021485Y-53676191D02*
X203164342Y-53676191D01*
X203164342Y-53676191D02*
X203259580Y-53723810D01*
X203259580Y-53723810D02*
X203307200Y-53771429D01*
X203307200Y-53771429D02*
X203354819Y-53866667D01*
X203354819Y-53866667D02*
X203354819Y-54247619D01*
X203354819Y-54247619D02*
X202354819Y-54247619D01*
X202354819Y-54247619D02*
X202354819Y-53914286D01*
X202354819Y-53914286D02*
X202402438Y-53819048D01*
X202402438Y-53819048D02*
X202450057Y-53771429D01*
X202450057Y-53771429D02*
X202545295Y-53723810D01*
X202545295Y-53723810D02*
X202640533Y-53723810D01*
X202640533Y-53723810D02*
X202735771Y-53771429D01*
X202735771Y-53771429D02*
X202783390Y-53819048D01*
X202783390Y-53819048D02*
X202831009Y-53914286D01*
X202831009Y-53914286D02*
X202831009Y-54247619D01*
X202688152Y-52819048D02*
X203354819Y-52819048D01*
X202688152Y-53247619D02*
X203211961Y-53247619D01*
X203211961Y-53247619D02*
X203307200Y-53200000D01*
X203307200Y-53200000D02*
X203354819Y-53104762D01*
X203354819Y-53104762D02*
X203354819Y-52961905D01*
X203354819Y-52961905D02*
X203307200Y-52866667D01*
X203307200Y-52866667D02*
X203259580Y-52819048D01*
X202688152Y-52485714D02*
X202688152Y-52104762D01*
X202354819Y-52342857D02*
X203211961Y-52342857D01*
X203211961Y-52342857D02*
X203307200Y-52295238D01*
X203307200Y-52295238D02*
X203354819Y-52200000D01*
X203354819Y-52200000D02*
X203354819Y-52104762D01*
X202688152Y-51914285D02*
X202688152Y-51533333D01*
X202354819Y-51771428D02*
X203211961Y-51771428D01*
X203211961Y-51771428D02*
X203307200Y-51723809D01*
X203307200Y-51723809D02*
X203354819Y-51628571D01*
X203354819Y-51628571D02*
X203354819Y-51533333D01*
X203354819Y-51057142D02*
X203307200Y-51152380D01*
X203307200Y-51152380D02*
X203259580Y-51199999D01*
X203259580Y-51199999D02*
X203164342Y-51247618D01*
X203164342Y-51247618D02*
X202878628Y-51247618D01*
X202878628Y-51247618D02*
X202783390Y-51199999D01*
X202783390Y-51199999D02*
X202735771Y-51152380D01*
X202735771Y-51152380D02*
X202688152Y-51057142D01*
X202688152Y-51057142D02*
X202688152Y-50914285D01*
X202688152Y-50914285D02*
X202735771Y-50819047D01*
X202735771Y-50819047D02*
X202783390Y-50771428D01*
X202783390Y-50771428D02*
X202878628Y-50723809D01*
X202878628Y-50723809D02*
X203164342Y-50723809D01*
X203164342Y-50723809D02*
X203259580Y-50771428D01*
X203259580Y-50771428D02*
X203307200Y-50819047D01*
X203307200Y-50819047D02*
X203354819Y-50914285D01*
X203354819Y-50914285D02*
X203354819Y-51057142D01*
X202688152Y-50295237D02*
X203354819Y-50295237D01*
X202783390Y-50295237D02*
X202735771Y-50247618D01*
X202735771Y-50247618D02*
X202688152Y-50152380D01*
X202688152Y-50152380D02*
X202688152Y-50009523D01*
X202688152Y-50009523D02*
X202735771Y-49914285D01*
X202735771Y-49914285D02*
X202831009Y-49866666D01*
X202831009Y-49866666D02*
X203354819Y-49866666D01*
X202450057Y-48676189D02*
X202402438Y-48628570D01*
X202402438Y-48628570D02*
X202354819Y-48533332D01*
X202354819Y-48533332D02*
X202354819Y-48295237D01*
X202354819Y-48295237D02*
X202402438Y-48199999D01*
X202402438Y-48199999D02*
X202450057Y-48152380D01*
X202450057Y-48152380D02*
X202545295Y-48104761D01*
X202545295Y-48104761D02*
X202640533Y-48104761D01*
X202640533Y-48104761D02*
X202783390Y-48152380D01*
X202783390Y-48152380D02*
X203354819Y-48723808D01*
X203354819Y-48723808D02*
X203354819Y-48104761D01*
X213942381Y-47054819D02*
X213942381Y-47769104D01*
X213942381Y-47769104D02*
X213894762Y-47911961D01*
X213894762Y-47911961D02*
X213799524Y-48007200D01*
X213799524Y-48007200D02*
X213656667Y-48054819D01*
X213656667Y-48054819D02*
X213561429Y-48054819D01*
X214942381Y-48054819D02*
X214370953Y-48054819D01*
X214656667Y-48054819D02*
X214656667Y-47054819D01*
X214656667Y-47054819D02*
X214561429Y-47197676D01*
X214561429Y-47197676D02*
X214466191Y-47292914D01*
X214466191Y-47292914D02*
X214370953Y-47340533D01*
X215370953Y-47959580D02*
X215418572Y-48007200D01*
X215418572Y-48007200D02*
X215370953Y-48054819D01*
X215370953Y-48054819D02*
X215323334Y-48007200D01*
X215323334Y-48007200D02*
X215370953Y-47959580D01*
X215370953Y-47959580D02*
X215370953Y-48054819D01*
X216370952Y-48054819D02*
X215799524Y-48054819D01*
X216085238Y-48054819D02*
X216085238Y-47054819D01*
X216085238Y-47054819D02*
X215990000Y-47197676D01*
X215990000Y-47197676D02*
X215894762Y-47292914D01*
X215894762Y-47292914D02*
X215799524Y-47340533D01*
X214109523Y-45850057D02*
X214157142Y-45802438D01*
X214157142Y-45802438D02*
X214252380Y-45754819D01*
X214252380Y-45754819D02*
X214490475Y-45754819D01*
X214490475Y-45754819D02*
X214585713Y-45802438D01*
X214585713Y-45802438D02*
X214633332Y-45850057D01*
X214633332Y-45850057D02*
X214680951Y-45945295D01*
X214680951Y-45945295D02*
X214680951Y-46040533D01*
X214680951Y-46040533D02*
X214633332Y-46183390D01*
X214633332Y-46183390D02*
X214061904Y-46754819D01*
X214061904Y-46754819D02*
X214680951Y-46754819D01*
X215014285Y-45754819D02*
X215680951Y-46754819D01*
X215680951Y-45754819D02*
X215014285Y-46754819D01*
X216014285Y-45850057D02*
X216061904Y-45802438D01*
X216061904Y-45802438D02*
X216157142Y-45754819D01*
X216157142Y-45754819D02*
X216395237Y-45754819D01*
X216395237Y-45754819D02*
X216490475Y-45802438D01*
X216490475Y-45802438D02*
X216538094Y-45850057D01*
X216538094Y-45850057D02*
X216585713Y-45945295D01*
X216585713Y-45945295D02*
X216585713Y-46040533D01*
X216585713Y-46040533D02*
X216538094Y-46183390D01*
X216538094Y-46183390D02*
X215966666Y-46754819D01*
X215966666Y-46754819D02*
X216585713Y-46754819D01*
X217776190Y-46754819D02*
X217776190Y-45754819D01*
X217776190Y-45754819D02*
X218109523Y-46469104D01*
X218109523Y-46469104D02*
X218442856Y-45754819D01*
X218442856Y-45754819D02*
X218442856Y-46754819D01*
X219347618Y-46754819D02*
X219347618Y-46231009D01*
X219347618Y-46231009D02*
X219299999Y-46135771D01*
X219299999Y-46135771D02*
X219204761Y-46088152D01*
X219204761Y-46088152D02*
X219014285Y-46088152D01*
X219014285Y-46088152D02*
X218919047Y-46135771D01*
X219347618Y-46707200D02*
X219252380Y-46754819D01*
X219252380Y-46754819D02*
X219014285Y-46754819D01*
X219014285Y-46754819D02*
X218919047Y-46707200D01*
X218919047Y-46707200D02*
X218871428Y-46611961D01*
X218871428Y-46611961D02*
X218871428Y-46516723D01*
X218871428Y-46516723D02*
X218919047Y-46421485D01*
X218919047Y-46421485D02*
X219014285Y-46373866D01*
X219014285Y-46373866D02*
X219252380Y-46373866D01*
X219252380Y-46373866D02*
X219347618Y-46326247D01*
X219680952Y-46088152D02*
X220061904Y-46088152D01*
X219823809Y-45754819D02*
X219823809Y-46611961D01*
X219823809Y-46611961D02*
X219871428Y-46707200D01*
X219871428Y-46707200D02*
X219966666Y-46754819D01*
X219966666Y-46754819D02*
X220061904Y-46754819D01*
X220395238Y-46754819D02*
X220395238Y-46088152D01*
X220395238Y-46278628D02*
X220442857Y-46183390D01*
X220442857Y-46183390D02*
X220490476Y-46135771D01*
X220490476Y-46135771D02*
X220585714Y-46088152D01*
X220585714Y-46088152D02*
X220680952Y-46088152D01*
X221014286Y-46754819D02*
X221014286Y-46088152D01*
X221014286Y-45754819D02*
X220966667Y-45802438D01*
X220966667Y-45802438D02*
X221014286Y-45850057D01*
X221014286Y-45850057D02*
X221061905Y-45802438D01*
X221061905Y-45802438D02*
X221014286Y-45754819D01*
X221014286Y-45754819D02*
X221014286Y-45850057D01*
X221395238Y-46754819D02*
X221919047Y-46088152D01*
X221395238Y-46088152D02*
X221919047Y-46754819D01*
X223014286Y-46469104D02*
X223490476Y-46469104D01*
X222919048Y-46754819D02*
X223252381Y-45754819D01*
X223252381Y-45754819D02*
X223585714Y-46754819D01*
X213333333Y-77899580D02*
X213285714Y-77947200D01*
X213285714Y-77947200D02*
X213142857Y-77994819D01*
X213142857Y-77994819D02*
X213047619Y-77994819D01*
X213047619Y-77994819D02*
X212904762Y-77947200D01*
X212904762Y-77947200D02*
X212809524Y-77851961D01*
X212809524Y-77851961D02*
X212761905Y-77756723D01*
X212761905Y-77756723D02*
X212714286Y-77566247D01*
X212714286Y-77566247D02*
X212714286Y-77423390D01*
X212714286Y-77423390D02*
X212761905Y-77232914D01*
X212761905Y-77232914D02*
X212809524Y-77137676D01*
X212809524Y-77137676D02*
X212904762Y-77042438D01*
X212904762Y-77042438D02*
X213047619Y-76994819D01*
X213047619Y-76994819D02*
X213142857Y-76994819D01*
X213142857Y-76994819D02*
X213285714Y-77042438D01*
X213285714Y-77042438D02*
X213333333Y-77090057D01*
X214285714Y-77994819D02*
X213714286Y-77994819D01*
X214000000Y-77994819D02*
X214000000Y-76994819D01*
X214000000Y-76994819D02*
X213904762Y-77137676D01*
X213904762Y-77137676D02*
X213809524Y-77232914D01*
X213809524Y-77232914D02*
X213714286Y-77280533D01*
X239954819Y-63333333D02*
X240669104Y-63333333D01*
X240669104Y-63333333D02*
X240811961Y-63380952D01*
X240811961Y-63380952D02*
X240907200Y-63476190D01*
X240907200Y-63476190D02*
X240954819Y-63619047D01*
X240954819Y-63619047D02*
X240954819Y-63714285D01*
X240288152Y-62428571D02*
X240954819Y-62428571D01*
X239907200Y-62666666D02*
X240621485Y-62904761D01*
X240621485Y-62904761D02*
X240621485Y-62285714D01*
X203938095Y-66154819D02*
X203938095Y-66869104D01*
X203938095Y-66869104D02*
X203890476Y-67011961D01*
X203890476Y-67011961D02*
X203795238Y-67107200D01*
X203795238Y-67107200D02*
X203652381Y-67154819D01*
X203652381Y-67154819D02*
X203557143Y-67154819D01*
X204938095Y-67154819D02*
X204366667Y-67154819D01*
X204652381Y-67154819D02*
X204652381Y-66154819D01*
X204652381Y-66154819D02*
X204557143Y-66297676D01*
X204557143Y-66297676D02*
X204461905Y-66392914D01*
X204461905Y-66392914D02*
X204366667Y-66440533D01*
X205366667Y-67059580D02*
X205414286Y-67107200D01*
X205414286Y-67107200D02*
X205366667Y-67154819D01*
X205366667Y-67154819D02*
X205319048Y-67107200D01*
X205319048Y-67107200D02*
X205366667Y-67059580D01*
X205366667Y-67059580D02*
X205366667Y-67154819D01*
X205795238Y-66250057D02*
X205842857Y-66202438D01*
X205842857Y-66202438D02*
X205938095Y-66154819D01*
X205938095Y-66154819D02*
X206176190Y-66154819D01*
X206176190Y-66154819D02*
X206271428Y-66202438D01*
X206271428Y-66202438D02*
X206319047Y-66250057D01*
X206319047Y-66250057D02*
X206366666Y-66345295D01*
X206366666Y-66345295D02*
X206366666Y-66440533D01*
X206366666Y-66440533D02*
X206319047Y-66583390D01*
X206319047Y-66583390D02*
X205747619Y-67154819D01*
X205747619Y-67154819D02*
X206366666Y-67154819D01*
X206795238Y-67059580D02*
X206842857Y-67107200D01*
X206842857Y-67107200D02*
X206795238Y-67154819D01*
X206795238Y-67154819D02*
X206747619Y-67107200D01*
X206747619Y-67107200D02*
X206795238Y-67059580D01*
X206795238Y-67059580D02*
X206795238Y-67154819D01*
X207223809Y-66250057D02*
X207271428Y-66202438D01*
X207271428Y-66202438D02*
X207366666Y-66154819D01*
X207366666Y-66154819D02*
X207604761Y-66154819D01*
X207604761Y-66154819D02*
X207699999Y-66202438D01*
X207699999Y-66202438D02*
X207747618Y-66250057D01*
X207747618Y-66250057D02*
X207795237Y-66345295D01*
X207795237Y-66345295D02*
X207795237Y-66440533D01*
X207795237Y-66440533D02*
X207747618Y-66583390D01*
X207747618Y-66583390D02*
X207176190Y-67154819D01*
X207176190Y-67154819D02*
X207795237Y-67154819D01*
X202831009Y-73314286D02*
X202878628Y-73171429D01*
X202878628Y-73171429D02*
X202926247Y-73123810D01*
X202926247Y-73123810D02*
X203021485Y-73076191D01*
X203021485Y-73076191D02*
X203164342Y-73076191D01*
X203164342Y-73076191D02*
X203259580Y-73123810D01*
X203259580Y-73123810D02*
X203307200Y-73171429D01*
X203307200Y-73171429D02*
X203354819Y-73266667D01*
X203354819Y-73266667D02*
X203354819Y-73647619D01*
X203354819Y-73647619D02*
X202354819Y-73647619D01*
X202354819Y-73647619D02*
X202354819Y-73314286D01*
X202354819Y-73314286D02*
X202402438Y-73219048D01*
X202402438Y-73219048D02*
X202450057Y-73171429D01*
X202450057Y-73171429D02*
X202545295Y-73123810D01*
X202545295Y-73123810D02*
X202640533Y-73123810D01*
X202640533Y-73123810D02*
X202735771Y-73171429D01*
X202735771Y-73171429D02*
X202783390Y-73219048D01*
X202783390Y-73219048D02*
X202831009Y-73314286D01*
X202831009Y-73314286D02*
X202831009Y-73647619D01*
X202688152Y-72219048D02*
X203354819Y-72219048D01*
X202688152Y-72647619D02*
X203211961Y-72647619D01*
X203211961Y-72647619D02*
X203307200Y-72600000D01*
X203307200Y-72600000D02*
X203354819Y-72504762D01*
X203354819Y-72504762D02*
X203354819Y-72361905D01*
X203354819Y-72361905D02*
X203307200Y-72266667D01*
X203307200Y-72266667D02*
X203259580Y-72219048D01*
X202688152Y-71885714D02*
X202688152Y-71504762D01*
X202354819Y-71742857D02*
X203211961Y-71742857D01*
X203211961Y-71742857D02*
X203307200Y-71695238D01*
X203307200Y-71695238D02*
X203354819Y-71600000D01*
X203354819Y-71600000D02*
X203354819Y-71504762D01*
X202688152Y-71314285D02*
X202688152Y-70933333D01*
X202354819Y-71171428D02*
X203211961Y-71171428D01*
X203211961Y-71171428D02*
X203307200Y-71123809D01*
X203307200Y-71123809D02*
X203354819Y-71028571D01*
X203354819Y-71028571D02*
X203354819Y-70933333D01*
X203354819Y-70457142D02*
X203307200Y-70552380D01*
X203307200Y-70552380D02*
X203259580Y-70599999D01*
X203259580Y-70599999D02*
X203164342Y-70647618D01*
X203164342Y-70647618D02*
X202878628Y-70647618D01*
X202878628Y-70647618D02*
X202783390Y-70599999D01*
X202783390Y-70599999D02*
X202735771Y-70552380D01*
X202735771Y-70552380D02*
X202688152Y-70457142D01*
X202688152Y-70457142D02*
X202688152Y-70314285D01*
X202688152Y-70314285D02*
X202735771Y-70219047D01*
X202735771Y-70219047D02*
X202783390Y-70171428D01*
X202783390Y-70171428D02*
X202878628Y-70123809D01*
X202878628Y-70123809D02*
X203164342Y-70123809D01*
X203164342Y-70123809D02*
X203259580Y-70171428D01*
X203259580Y-70171428D02*
X203307200Y-70219047D01*
X203307200Y-70219047D02*
X203354819Y-70314285D01*
X203354819Y-70314285D02*
X203354819Y-70457142D01*
X202688152Y-69695237D02*
X203354819Y-69695237D01*
X202783390Y-69695237D02*
X202735771Y-69647618D01*
X202735771Y-69647618D02*
X202688152Y-69552380D01*
X202688152Y-69552380D02*
X202688152Y-69409523D01*
X202688152Y-69409523D02*
X202735771Y-69314285D01*
X202735771Y-69314285D02*
X202831009Y-69266666D01*
X202831009Y-69266666D02*
X203354819Y-69266666D01*
X202688152Y-67599999D02*
X203354819Y-67599999D01*
X202307200Y-67838094D02*
X203021485Y-68076189D01*
X203021485Y-68076189D02*
X203021485Y-67457142D01*
X218438095Y-54954819D02*
X218438095Y-55764342D01*
X218438095Y-55764342D02*
X218485714Y-55859580D01*
X218485714Y-55859580D02*
X218533333Y-55907200D01*
X218533333Y-55907200D02*
X218628571Y-55954819D01*
X218628571Y-55954819D02*
X218819047Y-55954819D01*
X218819047Y-55954819D02*
X218914285Y-55907200D01*
X218914285Y-55907200D02*
X218961904Y-55859580D01*
X218961904Y-55859580D02*
X219009523Y-55764342D01*
X219009523Y-55764342D02*
X219009523Y-54954819D01*
X220009523Y-55954819D02*
X219438095Y-55954819D01*
X219723809Y-55954819D02*
X219723809Y-54954819D01*
X219723809Y-54954819D02*
X219628571Y-55097676D01*
X219628571Y-55097676D02*
X219533333Y-55192914D01*
X219533333Y-55192914D02*
X219438095Y-55240533D01*
X240966666Y-87654819D02*
X240966666Y-88369104D01*
X240966666Y-88369104D02*
X240919047Y-88511961D01*
X240919047Y-88511961D02*
X240823809Y-88607200D01*
X240823809Y-88607200D02*
X240680952Y-88654819D01*
X240680952Y-88654819D02*
X240585714Y-88654819D01*
X241347619Y-87654819D02*
X241966666Y-87654819D01*
X241966666Y-87654819D02*
X241633333Y-88035771D01*
X241633333Y-88035771D02*
X241776190Y-88035771D01*
X241776190Y-88035771D02*
X241871428Y-88083390D01*
X241871428Y-88083390D02*
X241919047Y-88131009D01*
X241919047Y-88131009D02*
X241966666Y-88226247D01*
X241966666Y-88226247D02*
X241966666Y-88464342D01*
X241966666Y-88464342D02*
X241919047Y-88559580D01*
X241919047Y-88559580D02*
X241871428Y-88607200D01*
X241871428Y-88607200D02*
X241776190Y-88654819D01*
X241776190Y-88654819D02*
X241490476Y-88654819D01*
X241490476Y-88654819D02*
X241395238Y-88607200D01*
X241395238Y-88607200D02*
X241347619Y-88559580D01*
X231200000Y-80869104D02*
X231676190Y-80869104D01*
X231104762Y-81154819D02*
X231438095Y-80154819D01*
X231438095Y-80154819D02*
X231771428Y-81154819D01*
X231961905Y-80154819D02*
X232295238Y-81154819D01*
X232295238Y-81154819D02*
X232628571Y-80154819D01*
X233533333Y-81154819D02*
X233200000Y-80678628D01*
X232961905Y-81154819D02*
X232961905Y-80154819D01*
X232961905Y-80154819D02*
X233342857Y-80154819D01*
X233342857Y-80154819D02*
X233438095Y-80202438D01*
X233438095Y-80202438D02*
X233485714Y-80250057D01*
X233485714Y-80250057D02*
X233533333Y-80345295D01*
X233533333Y-80345295D02*
X233533333Y-80488152D01*
X233533333Y-80488152D02*
X233485714Y-80583390D01*
X233485714Y-80583390D02*
X233438095Y-80631009D01*
X233438095Y-80631009D02*
X233342857Y-80678628D01*
X233342857Y-80678628D02*
X232961905Y-80678628D01*
X233961905Y-80773866D02*
X234723810Y-80773866D01*
X235200000Y-81154819D02*
X235200000Y-80154819D01*
X235628571Y-81107200D02*
X235771428Y-81154819D01*
X235771428Y-81154819D02*
X236009523Y-81154819D01*
X236009523Y-81154819D02*
X236104761Y-81107200D01*
X236104761Y-81107200D02*
X236152380Y-81059580D01*
X236152380Y-81059580D02*
X236199999Y-80964342D01*
X236199999Y-80964342D02*
X236199999Y-80869104D01*
X236199999Y-80869104D02*
X236152380Y-80773866D01*
X236152380Y-80773866D02*
X236104761Y-80726247D01*
X236104761Y-80726247D02*
X236009523Y-80678628D01*
X236009523Y-80678628D02*
X235819047Y-80631009D01*
X235819047Y-80631009D02*
X235723809Y-80583390D01*
X235723809Y-80583390D02*
X235676190Y-80535771D01*
X235676190Y-80535771D02*
X235628571Y-80440533D01*
X235628571Y-80440533D02*
X235628571Y-80345295D01*
X235628571Y-80345295D02*
X235676190Y-80250057D01*
X235676190Y-80250057D02*
X235723809Y-80202438D01*
X235723809Y-80202438D02*
X235819047Y-80154819D01*
X235819047Y-80154819D02*
X236057142Y-80154819D01*
X236057142Y-80154819D02*
X236199999Y-80202438D01*
X236628571Y-81154819D02*
X236628571Y-80154819D01*
X236628571Y-80154819D02*
X237009523Y-80154819D01*
X237009523Y-80154819D02*
X237104761Y-80202438D01*
X237104761Y-80202438D02*
X237152380Y-80250057D01*
X237152380Y-80250057D02*
X237199999Y-80345295D01*
X237199999Y-80345295D02*
X237199999Y-80488152D01*
X237199999Y-80488152D02*
X237152380Y-80583390D01*
X237152380Y-80583390D02*
X237104761Y-80631009D01*
X237104761Y-80631009D02*
X237009523Y-80678628D01*
X237009523Y-80678628D02*
X236628571Y-80678628D01*
X225752381Y-47354819D02*
X225752381Y-48069104D01*
X225752381Y-48069104D02*
X225704762Y-48211961D01*
X225704762Y-48211961D02*
X225609524Y-48307200D01*
X225609524Y-48307200D02*
X225466667Y-48354819D01*
X225466667Y-48354819D02*
X225371429Y-48354819D01*
X226752381Y-48354819D02*
X226180953Y-48354819D01*
X226466667Y-48354819D02*
X226466667Y-47354819D01*
X226466667Y-47354819D02*
X226371429Y-47497676D01*
X226371429Y-47497676D02*
X226276191Y-47592914D01*
X226276191Y-47592914D02*
X226180953Y-47640533D01*
X227180953Y-48259580D02*
X227228572Y-48307200D01*
X227228572Y-48307200D02*
X227180953Y-48354819D01*
X227180953Y-48354819D02*
X227133334Y-48307200D01*
X227133334Y-48307200D02*
X227180953Y-48259580D01*
X227180953Y-48259580D02*
X227180953Y-48354819D01*
X227609524Y-47450057D02*
X227657143Y-47402438D01*
X227657143Y-47402438D02*
X227752381Y-47354819D01*
X227752381Y-47354819D02*
X227990476Y-47354819D01*
X227990476Y-47354819D02*
X228085714Y-47402438D01*
X228085714Y-47402438D02*
X228133333Y-47450057D01*
X228133333Y-47450057D02*
X228180952Y-47545295D01*
X228180952Y-47545295D02*
X228180952Y-47640533D01*
X228180952Y-47640533D02*
X228133333Y-47783390D01*
X228133333Y-47783390D02*
X227561905Y-48354819D01*
X227561905Y-48354819D02*
X228180952Y-48354819D01*
X226038095Y-45850057D02*
X226085714Y-45802438D01*
X226085714Y-45802438D02*
X226180952Y-45754819D01*
X226180952Y-45754819D02*
X226419047Y-45754819D01*
X226419047Y-45754819D02*
X226514285Y-45802438D01*
X226514285Y-45802438D02*
X226561904Y-45850057D01*
X226561904Y-45850057D02*
X226609523Y-45945295D01*
X226609523Y-45945295D02*
X226609523Y-46040533D01*
X226609523Y-46040533D02*
X226561904Y-46183390D01*
X226561904Y-46183390D02*
X225990476Y-46754819D01*
X225990476Y-46754819D02*
X226609523Y-46754819D01*
X226942857Y-45754819D02*
X227609523Y-46754819D01*
X227609523Y-45754819D02*
X226942857Y-46754819D01*
X227942857Y-45850057D02*
X227990476Y-45802438D01*
X227990476Y-45802438D02*
X228085714Y-45754819D01*
X228085714Y-45754819D02*
X228323809Y-45754819D01*
X228323809Y-45754819D02*
X228419047Y-45802438D01*
X228419047Y-45802438D02*
X228466666Y-45850057D01*
X228466666Y-45850057D02*
X228514285Y-45945295D01*
X228514285Y-45945295D02*
X228514285Y-46040533D01*
X228514285Y-46040533D02*
X228466666Y-46183390D01*
X228466666Y-46183390D02*
X227895238Y-46754819D01*
X227895238Y-46754819D02*
X228514285Y-46754819D01*
X229704762Y-46754819D02*
X229704762Y-45754819D01*
X229704762Y-45754819D02*
X230038095Y-46469104D01*
X230038095Y-46469104D02*
X230371428Y-45754819D01*
X230371428Y-45754819D02*
X230371428Y-46754819D01*
X231276190Y-46754819D02*
X231276190Y-46231009D01*
X231276190Y-46231009D02*
X231228571Y-46135771D01*
X231228571Y-46135771D02*
X231133333Y-46088152D01*
X231133333Y-46088152D02*
X230942857Y-46088152D01*
X230942857Y-46088152D02*
X230847619Y-46135771D01*
X231276190Y-46707200D02*
X231180952Y-46754819D01*
X231180952Y-46754819D02*
X230942857Y-46754819D01*
X230942857Y-46754819D02*
X230847619Y-46707200D01*
X230847619Y-46707200D02*
X230800000Y-46611961D01*
X230800000Y-46611961D02*
X230800000Y-46516723D01*
X230800000Y-46516723D02*
X230847619Y-46421485D01*
X230847619Y-46421485D02*
X230942857Y-46373866D01*
X230942857Y-46373866D02*
X231180952Y-46373866D01*
X231180952Y-46373866D02*
X231276190Y-46326247D01*
X231609524Y-46088152D02*
X231990476Y-46088152D01*
X231752381Y-45754819D02*
X231752381Y-46611961D01*
X231752381Y-46611961D02*
X231800000Y-46707200D01*
X231800000Y-46707200D02*
X231895238Y-46754819D01*
X231895238Y-46754819D02*
X231990476Y-46754819D01*
X232323810Y-46754819D02*
X232323810Y-46088152D01*
X232323810Y-46278628D02*
X232371429Y-46183390D01*
X232371429Y-46183390D02*
X232419048Y-46135771D01*
X232419048Y-46135771D02*
X232514286Y-46088152D01*
X232514286Y-46088152D02*
X232609524Y-46088152D01*
X232942858Y-46754819D02*
X232942858Y-46088152D01*
X232942858Y-45754819D02*
X232895239Y-45802438D01*
X232895239Y-45802438D02*
X232942858Y-45850057D01*
X232942858Y-45850057D02*
X232990477Y-45802438D01*
X232990477Y-45802438D02*
X232942858Y-45754819D01*
X232942858Y-45754819D02*
X232942858Y-45850057D01*
X233323810Y-46754819D02*
X233847619Y-46088152D01*
X233323810Y-46088152D02*
X233847619Y-46754819D01*
X235323810Y-46231009D02*
X235466667Y-46278628D01*
X235466667Y-46278628D02*
X235514286Y-46326247D01*
X235514286Y-46326247D02*
X235561905Y-46421485D01*
X235561905Y-46421485D02*
X235561905Y-46564342D01*
X235561905Y-46564342D02*
X235514286Y-46659580D01*
X235514286Y-46659580D02*
X235466667Y-46707200D01*
X235466667Y-46707200D02*
X235371429Y-46754819D01*
X235371429Y-46754819D02*
X234990477Y-46754819D01*
X234990477Y-46754819D02*
X234990477Y-45754819D01*
X234990477Y-45754819D02*
X235323810Y-45754819D01*
X235323810Y-45754819D02*
X235419048Y-45802438D01*
X235419048Y-45802438D02*
X235466667Y-45850057D01*
X235466667Y-45850057D02*
X235514286Y-45945295D01*
X235514286Y-45945295D02*
X235514286Y-46040533D01*
X235514286Y-46040533D02*
X235466667Y-46135771D01*
X235466667Y-46135771D02*
X235419048Y-46183390D01*
X235419048Y-46183390D02*
X235323810Y-46231009D01*
X235323810Y-46231009D02*
X234990477Y-46231009D01*
X215978628Y-77976190D02*
X216454819Y-77976190D01*
X215454819Y-78309523D02*
X215978628Y-77976190D01*
X215978628Y-77976190D02*
X215454819Y-77642857D01*
X216454819Y-76785714D02*
X216454819Y-77357142D01*
X216454819Y-77071428D02*
X215454819Y-77071428D01*
X215454819Y-77071428D02*
X215597676Y-77166666D01*
X215597676Y-77166666D02*
X215692914Y-77261904D01*
X215692914Y-77261904D02*
X215740533Y-77357142D01*
X246538095Y-80154819D02*
X246538095Y-80869104D01*
X246538095Y-80869104D02*
X246490476Y-81011961D01*
X246490476Y-81011961D02*
X246395238Y-81107200D01*
X246395238Y-81107200D02*
X246252381Y-81154819D01*
X246252381Y-81154819D02*
X246157143Y-81154819D01*
X247538095Y-81154819D02*
X246966667Y-81154819D01*
X247252381Y-81154819D02*
X247252381Y-80154819D01*
X247252381Y-80154819D02*
X247157143Y-80297676D01*
X247157143Y-80297676D02*
X247061905Y-80392914D01*
X247061905Y-80392914D02*
X246966667Y-80440533D01*
X247966667Y-81059580D02*
X248014286Y-81107200D01*
X248014286Y-81107200D02*
X247966667Y-81154819D01*
X247966667Y-81154819D02*
X247919048Y-81107200D01*
X247919048Y-81107200D02*
X247966667Y-81059580D01*
X247966667Y-81059580D02*
X247966667Y-81154819D01*
X248395238Y-80250057D02*
X248442857Y-80202438D01*
X248442857Y-80202438D02*
X248538095Y-80154819D01*
X248538095Y-80154819D02*
X248776190Y-80154819D01*
X248776190Y-80154819D02*
X248871428Y-80202438D01*
X248871428Y-80202438D02*
X248919047Y-80250057D01*
X248919047Y-80250057D02*
X248966666Y-80345295D01*
X248966666Y-80345295D02*
X248966666Y-80440533D01*
X248966666Y-80440533D02*
X248919047Y-80583390D01*
X248919047Y-80583390D02*
X248347619Y-81154819D01*
X248347619Y-81154819D02*
X248966666Y-81154819D01*
X249395238Y-81059580D02*
X249442857Y-81107200D01*
X249442857Y-81107200D02*
X249395238Y-81154819D01*
X249395238Y-81154819D02*
X249347619Y-81107200D01*
X249347619Y-81107200D02*
X249395238Y-81059580D01*
X249395238Y-81059580D02*
X249395238Y-81154819D01*
X250395237Y-81154819D02*
X249823809Y-81154819D01*
X250109523Y-81154819D02*
X250109523Y-80154819D01*
X250109523Y-80154819D02*
X250014285Y-80297676D01*
X250014285Y-80297676D02*
X249919047Y-80392914D01*
X249919047Y-80392914D02*
X249823809Y-80440533D01*
X251031009Y-87414286D02*
X251078628Y-87271429D01*
X251078628Y-87271429D02*
X251126247Y-87223810D01*
X251126247Y-87223810D02*
X251221485Y-87176191D01*
X251221485Y-87176191D02*
X251364342Y-87176191D01*
X251364342Y-87176191D02*
X251459580Y-87223810D01*
X251459580Y-87223810D02*
X251507200Y-87271429D01*
X251507200Y-87271429D02*
X251554819Y-87366667D01*
X251554819Y-87366667D02*
X251554819Y-87747619D01*
X251554819Y-87747619D02*
X250554819Y-87747619D01*
X250554819Y-87747619D02*
X250554819Y-87414286D01*
X250554819Y-87414286D02*
X250602438Y-87319048D01*
X250602438Y-87319048D02*
X250650057Y-87271429D01*
X250650057Y-87271429D02*
X250745295Y-87223810D01*
X250745295Y-87223810D02*
X250840533Y-87223810D01*
X250840533Y-87223810D02*
X250935771Y-87271429D01*
X250935771Y-87271429D02*
X250983390Y-87319048D01*
X250983390Y-87319048D02*
X251031009Y-87414286D01*
X251031009Y-87414286D02*
X251031009Y-87747619D01*
X250888152Y-86319048D02*
X251554819Y-86319048D01*
X250888152Y-86747619D02*
X251411961Y-86747619D01*
X251411961Y-86747619D02*
X251507200Y-86700000D01*
X251507200Y-86700000D02*
X251554819Y-86604762D01*
X251554819Y-86604762D02*
X251554819Y-86461905D01*
X251554819Y-86461905D02*
X251507200Y-86366667D01*
X251507200Y-86366667D02*
X251459580Y-86319048D01*
X250888152Y-85985714D02*
X250888152Y-85604762D01*
X250554819Y-85842857D02*
X251411961Y-85842857D01*
X251411961Y-85842857D02*
X251507200Y-85795238D01*
X251507200Y-85795238D02*
X251554819Y-85700000D01*
X251554819Y-85700000D02*
X251554819Y-85604762D01*
X250888152Y-85414285D02*
X250888152Y-85033333D01*
X250554819Y-85271428D02*
X251411961Y-85271428D01*
X251411961Y-85271428D02*
X251507200Y-85223809D01*
X251507200Y-85223809D02*
X251554819Y-85128571D01*
X251554819Y-85128571D02*
X251554819Y-85033333D01*
X251554819Y-84557142D02*
X251507200Y-84652380D01*
X251507200Y-84652380D02*
X251459580Y-84699999D01*
X251459580Y-84699999D02*
X251364342Y-84747618D01*
X251364342Y-84747618D02*
X251078628Y-84747618D01*
X251078628Y-84747618D02*
X250983390Y-84699999D01*
X250983390Y-84699999D02*
X250935771Y-84652380D01*
X250935771Y-84652380D02*
X250888152Y-84557142D01*
X250888152Y-84557142D02*
X250888152Y-84414285D01*
X250888152Y-84414285D02*
X250935771Y-84319047D01*
X250935771Y-84319047D02*
X250983390Y-84271428D01*
X250983390Y-84271428D02*
X251078628Y-84223809D01*
X251078628Y-84223809D02*
X251364342Y-84223809D01*
X251364342Y-84223809D02*
X251459580Y-84271428D01*
X251459580Y-84271428D02*
X251507200Y-84319047D01*
X251507200Y-84319047D02*
X251554819Y-84414285D01*
X251554819Y-84414285D02*
X251554819Y-84557142D01*
X250888152Y-83795237D02*
X251554819Y-83795237D01*
X250983390Y-83795237D02*
X250935771Y-83747618D01*
X250935771Y-83747618D02*
X250888152Y-83652380D01*
X250888152Y-83652380D02*
X250888152Y-83509523D01*
X250888152Y-83509523D02*
X250935771Y-83414285D01*
X250935771Y-83414285D02*
X251031009Y-83366666D01*
X251031009Y-83366666D02*
X251554819Y-83366666D01*
X250554819Y-82223808D02*
X250554819Y-81604761D01*
X250554819Y-81604761D02*
X250935771Y-81938094D01*
X250935771Y-81938094D02*
X250935771Y-81795237D01*
X250935771Y-81795237D02*
X250983390Y-81699999D01*
X250983390Y-81699999D02*
X251031009Y-81652380D01*
X251031009Y-81652380D02*
X251126247Y-81604761D01*
X251126247Y-81604761D02*
X251364342Y-81604761D01*
X251364342Y-81604761D02*
X251459580Y-81652380D01*
X251459580Y-81652380D02*
X251507200Y-81699999D01*
X251507200Y-81699999D02*
X251554819Y-81795237D01*
X251554819Y-81795237D02*
X251554819Y-82080951D01*
X251554819Y-82080951D02*
X251507200Y-82176189D01*
X251507200Y-82176189D02*
X251459580Y-82223808D01*
X225752381Y-90254819D02*
X225752381Y-90969104D01*
X225752381Y-90969104D02*
X225704762Y-91111961D01*
X225704762Y-91111961D02*
X225609524Y-91207200D01*
X225609524Y-91207200D02*
X225466667Y-91254819D01*
X225466667Y-91254819D02*
X225371429Y-91254819D01*
X226752381Y-91254819D02*
X226180953Y-91254819D01*
X226466667Y-91254819D02*
X226466667Y-90254819D01*
X226466667Y-90254819D02*
X226371429Y-90397676D01*
X226371429Y-90397676D02*
X226276191Y-90492914D01*
X226276191Y-90492914D02*
X226180953Y-90540533D01*
X227180953Y-91159580D02*
X227228572Y-91207200D01*
X227228572Y-91207200D02*
X227180953Y-91254819D01*
X227180953Y-91254819D02*
X227133334Y-91207200D01*
X227133334Y-91207200D02*
X227180953Y-91159580D01*
X227180953Y-91159580D02*
X227180953Y-91254819D01*
X228085714Y-90588152D02*
X228085714Y-91254819D01*
X227847619Y-90207200D02*
X227609524Y-90921485D01*
X227609524Y-90921485D02*
X228228571Y-90921485D01*
X226038095Y-97150057D02*
X226085714Y-97102438D01*
X226085714Y-97102438D02*
X226180952Y-97054819D01*
X226180952Y-97054819D02*
X226419047Y-97054819D01*
X226419047Y-97054819D02*
X226514285Y-97102438D01*
X226514285Y-97102438D02*
X226561904Y-97150057D01*
X226561904Y-97150057D02*
X226609523Y-97245295D01*
X226609523Y-97245295D02*
X226609523Y-97340533D01*
X226609523Y-97340533D02*
X226561904Y-97483390D01*
X226561904Y-97483390D02*
X225990476Y-98054819D01*
X225990476Y-98054819D02*
X226609523Y-98054819D01*
X226942857Y-97054819D02*
X227609523Y-98054819D01*
X227609523Y-97054819D02*
X226942857Y-98054819D01*
X227942857Y-97150057D02*
X227990476Y-97102438D01*
X227990476Y-97102438D02*
X228085714Y-97054819D01*
X228085714Y-97054819D02*
X228323809Y-97054819D01*
X228323809Y-97054819D02*
X228419047Y-97102438D01*
X228419047Y-97102438D02*
X228466666Y-97150057D01*
X228466666Y-97150057D02*
X228514285Y-97245295D01*
X228514285Y-97245295D02*
X228514285Y-97340533D01*
X228514285Y-97340533D02*
X228466666Y-97483390D01*
X228466666Y-97483390D02*
X227895238Y-98054819D01*
X227895238Y-98054819D02*
X228514285Y-98054819D01*
X229704762Y-98054819D02*
X229704762Y-97054819D01*
X229704762Y-97054819D02*
X230038095Y-97769104D01*
X230038095Y-97769104D02*
X230371428Y-97054819D01*
X230371428Y-97054819D02*
X230371428Y-98054819D01*
X231276190Y-98054819D02*
X231276190Y-97531009D01*
X231276190Y-97531009D02*
X231228571Y-97435771D01*
X231228571Y-97435771D02*
X231133333Y-97388152D01*
X231133333Y-97388152D02*
X230942857Y-97388152D01*
X230942857Y-97388152D02*
X230847619Y-97435771D01*
X231276190Y-98007200D02*
X231180952Y-98054819D01*
X231180952Y-98054819D02*
X230942857Y-98054819D01*
X230942857Y-98054819D02*
X230847619Y-98007200D01*
X230847619Y-98007200D02*
X230800000Y-97911961D01*
X230800000Y-97911961D02*
X230800000Y-97816723D01*
X230800000Y-97816723D02*
X230847619Y-97721485D01*
X230847619Y-97721485D02*
X230942857Y-97673866D01*
X230942857Y-97673866D02*
X231180952Y-97673866D01*
X231180952Y-97673866D02*
X231276190Y-97626247D01*
X231609524Y-97388152D02*
X231990476Y-97388152D01*
X231752381Y-97054819D02*
X231752381Y-97911961D01*
X231752381Y-97911961D02*
X231800000Y-98007200D01*
X231800000Y-98007200D02*
X231895238Y-98054819D01*
X231895238Y-98054819D02*
X231990476Y-98054819D01*
X232323810Y-98054819D02*
X232323810Y-97388152D01*
X232323810Y-97578628D02*
X232371429Y-97483390D01*
X232371429Y-97483390D02*
X232419048Y-97435771D01*
X232419048Y-97435771D02*
X232514286Y-97388152D01*
X232514286Y-97388152D02*
X232609524Y-97388152D01*
X232942858Y-98054819D02*
X232942858Y-97388152D01*
X232942858Y-97054819D02*
X232895239Y-97102438D01*
X232895239Y-97102438D02*
X232942858Y-97150057D01*
X232942858Y-97150057D02*
X232990477Y-97102438D01*
X232990477Y-97102438D02*
X232942858Y-97054819D01*
X232942858Y-97054819D02*
X232942858Y-97150057D01*
X233323810Y-98054819D02*
X233847619Y-97388152D01*
X233323810Y-97388152D02*
X233847619Y-98054819D01*
X234990477Y-98054819D02*
X234990477Y-97054819D01*
X234990477Y-97054819D02*
X235228572Y-97054819D01*
X235228572Y-97054819D02*
X235371429Y-97102438D01*
X235371429Y-97102438D02*
X235466667Y-97197676D01*
X235466667Y-97197676D02*
X235514286Y-97292914D01*
X235514286Y-97292914D02*
X235561905Y-97483390D01*
X235561905Y-97483390D02*
X235561905Y-97626247D01*
X235561905Y-97626247D02*
X235514286Y-97816723D01*
X235514286Y-97816723D02*
X235466667Y-97911961D01*
X235466667Y-97911961D02*
X235371429Y-98007200D01*
X235371429Y-98007200D02*
X235228572Y-98054819D01*
X235228572Y-98054819D02*
X234990477Y-98054819D01*
X237441667Y-72507200D02*
X237584524Y-72554819D01*
X237584524Y-72554819D02*
X237822619Y-72554819D01*
X237822619Y-72554819D02*
X237917857Y-72507200D01*
X237917857Y-72507200D02*
X237965476Y-72459580D01*
X237965476Y-72459580D02*
X238013095Y-72364342D01*
X238013095Y-72364342D02*
X238013095Y-72269104D01*
X238013095Y-72269104D02*
X237965476Y-72173866D01*
X237965476Y-72173866D02*
X237917857Y-72126247D01*
X237917857Y-72126247D02*
X237822619Y-72078628D01*
X237822619Y-72078628D02*
X237632143Y-72031009D01*
X237632143Y-72031009D02*
X237536905Y-71983390D01*
X237536905Y-71983390D02*
X237489286Y-71935771D01*
X237489286Y-71935771D02*
X237441667Y-71840533D01*
X237441667Y-71840533D02*
X237441667Y-71745295D01*
X237441667Y-71745295D02*
X237489286Y-71650057D01*
X237489286Y-71650057D02*
X237536905Y-71602438D01*
X237536905Y-71602438D02*
X237632143Y-71554819D01*
X237632143Y-71554819D02*
X237870238Y-71554819D01*
X237870238Y-71554819D02*
X238013095Y-71602438D01*
X238346429Y-71554819D02*
X238584524Y-72554819D01*
X238584524Y-72554819D02*
X238775000Y-71840533D01*
X238775000Y-71840533D02*
X238965476Y-72554819D01*
X238965476Y-72554819D02*
X239203572Y-71554819D01*
X240108333Y-72554819D02*
X239536905Y-72554819D01*
X239822619Y-72554819D02*
X239822619Y-71554819D01*
X239822619Y-71554819D02*
X239727381Y-71697676D01*
X239727381Y-71697676D02*
X239632143Y-71792914D01*
X239632143Y-71792914D02*
X239536905Y-71840533D01*
X204038095Y-88854819D02*
X204038095Y-89569104D01*
X204038095Y-89569104D02*
X203990476Y-89711961D01*
X203990476Y-89711961D02*
X203895238Y-89807200D01*
X203895238Y-89807200D02*
X203752381Y-89854819D01*
X203752381Y-89854819D02*
X203657143Y-89854819D01*
X205038095Y-89854819D02*
X204466667Y-89854819D01*
X204752381Y-89854819D02*
X204752381Y-88854819D01*
X204752381Y-88854819D02*
X204657143Y-88997676D01*
X204657143Y-88997676D02*
X204561905Y-89092914D01*
X204561905Y-89092914D02*
X204466667Y-89140533D01*
X205466667Y-89759580D02*
X205514286Y-89807200D01*
X205514286Y-89807200D02*
X205466667Y-89854819D01*
X205466667Y-89854819D02*
X205419048Y-89807200D01*
X205419048Y-89807200D02*
X205466667Y-89759580D01*
X205466667Y-89759580D02*
X205466667Y-89854819D01*
X206466666Y-89854819D02*
X205895238Y-89854819D01*
X206180952Y-89854819D02*
X206180952Y-88854819D01*
X206180952Y-88854819D02*
X206085714Y-88997676D01*
X206085714Y-88997676D02*
X205990476Y-89092914D01*
X205990476Y-89092914D02*
X205895238Y-89140533D01*
X206895238Y-89759580D02*
X206942857Y-89807200D01*
X206942857Y-89807200D02*
X206895238Y-89854819D01*
X206895238Y-89854819D02*
X206847619Y-89807200D01*
X206847619Y-89807200D02*
X206895238Y-89759580D01*
X206895238Y-89759580D02*
X206895238Y-89854819D01*
X207799999Y-89188152D02*
X207799999Y-89854819D01*
X207561904Y-88807200D02*
X207323809Y-89521485D01*
X207323809Y-89521485D02*
X207942856Y-89521485D01*
X202811009Y-96084286D02*
X202858628Y-95941429D01*
X202858628Y-95941429D02*
X202906247Y-95893810D01*
X202906247Y-95893810D02*
X203001485Y-95846191D01*
X203001485Y-95846191D02*
X203144342Y-95846191D01*
X203144342Y-95846191D02*
X203239580Y-95893810D01*
X203239580Y-95893810D02*
X203287200Y-95941429D01*
X203287200Y-95941429D02*
X203334819Y-96036667D01*
X203334819Y-96036667D02*
X203334819Y-96417619D01*
X203334819Y-96417619D02*
X202334819Y-96417619D01*
X202334819Y-96417619D02*
X202334819Y-96084286D01*
X202334819Y-96084286D02*
X202382438Y-95989048D01*
X202382438Y-95989048D02*
X202430057Y-95941429D01*
X202430057Y-95941429D02*
X202525295Y-95893810D01*
X202525295Y-95893810D02*
X202620533Y-95893810D01*
X202620533Y-95893810D02*
X202715771Y-95941429D01*
X202715771Y-95941429D02*
X202763390Y-95989048D01*
X202763390Y-95989048D02*
X202811009Y-96084286D01*
X202811009Y-96084286D02*
X202811009Y-96417619D01*
X202668152Y-94989048D02*
X203334819Y-94989048D01*
X202668152Y-95417619D02*
X203191961Y-95417619D01*
X203191961Y-95417619D02*
X203287200Y-95370000D01*
X203287200Y-95370000D02*
X203334819Y-95274762D01*
X203334819Y-95274762D02*
X203334819Y-95131905D01*
X203334819Y-95131905D02*
X203287200Y-95036667D01*
X203287200Y-95036667D02*
X203239580Y-94989048D01*
X202668152Y-94655714D02*
X202668152Y-94274762D01*
X202334819Y-94512857D02*
X203191961Y-94512857D01*
X203191961Y-94512857D02*
X203287200Y-94465238D01*
X203287200Y-94465238D02*
X203334819Y-94370000D01*
X203334819Y-94370000D02*
X203334819Y-94274762D01*
X202668152Y-94084285D02*
X202668152Y-93703333D01*
X202334819Y-93941428D02*
X203191961Y-93941428D01*
X203191961Y-93941428D02*
X203287200Y-93893809D01*
X203287200Y-93893809D02*
X203334819Y-93798571D01*
X203334819Y-93798571D02*
X203334819Y-93703333D01*
X203334819Y-93227142D02*
X203287200Y-93322380D01*
X203287200Y-93322380D02*
X203239580Y-93369999D01*
X203239580Y-93369999D02*
X203144342Y-93417618D01*
X203144342Y-93417618D02*
X202858628Y-93417618D01*
X202858628Y-93417618D02*
X202763390Y-93369999D01*
X202763390Y-93369999D02*
X202715771Y-93322380D01*
X202715771Y-93322380D02*
X202668152Y-93227142D01*
X202668152Y-93227142D02*
X202668152Y-93084285D01*
X202668152Y-93084285D02*
X202715771Y-92989047D01*
X202715771Y-92989047D02*
X202763390Y-92941428D01*
X202763390Y-92941428D02*
X202858628Y-92893809D01*
X202858628Y-92893809D02*
X203144342Y-92893809D01*
X203144342Y-92893809D02*
X203239580Y-92941428D01*
X203239580Y-92941428D02*
X203287200Y-92989047D01*
X203287200Y-92989047D02*
X203334819Y-93084285D01*
X203334819Y-93084285D02*
X203334819Y-93227142D01*
X202668152Y-92465237D02*
X203334819Y-92465237D01*
X202763390Y-92465237D02*
X202715771Y-92417618D01*
X202715771Y-92417618D02*
X202668152Y-92322380D01*
X202668152Y-92322380D02*
X202668152Y-92179523D01*
X202668152Y-92179523D02*
X202715771Y-92084285D01*
X202715771Y-92084285D02*
X202811009Y-92036666D01*
X202811009Y-92036666D02*
X203334819Y-92036666D01*
X202334819Y-90369999D02*
X202334819Y-90560475D01*
X202334819Y-90560475D02*
X202382438Y-90655713D01*
X202382438Y-90655713D02*
X202430057Y-90703332D01*
X202430057Y-90703332D02*
X202572914Y-90798570D01*
X202572914Y-90798570D02*
X202763390Y-90846189D01*
X202763390Y-90846189D02*
X203144342Y-90846189D01*
X203144342Y-90846189D02*
X203239580Y-90798570D01*
X203239580Y-90798570D02*
X203287200Y-90750951D01*
X203287200Y-90750951D02*
X203334819Y-90655713D01*
X203334819Y-90655713D02*
X203334819Y-90465237D01*
X203334819Y-90465237D02*
X203287200Y-90369999D01*
X203287200Y-90369999D02*
X203239580Y-90322380D01*
X203239580Y-90322380D02*
X203144342Y-90274761D01*
X203144342Y-90274761D02*
X202906247Y-90274761D01*
X202906247Y-90274761D02*
X202811009Y-90322380D01*
X202811009Y-90322380D02*
X202763390Y-90369999D01*
X202763390Y-90369999D02*
X202715771Y-90465237D01*
X202715771Y-90465237D02*
X202715771Y-90655713D01*
X202715771Y-90655713D02*
X202763390Y-90750951D01*
X202763390Y-90750951D02*
X202811009Y-90798570D01*
X202811009Y-90798570D02*
X202906247Y-90846189D01*
X213952381Y-90254819D02*
X213952381Y-90969104D01*
X213952381Y-90969104D02*
X213904762Y-91111961D01*
X213904762Y-91111961D02*
X213809524Y-91207200D01*
X213809524Y-91207200D02*
X213666667Y-91254819D01*
X213666667Y-91254819D02*
X213571429Y-91254819D01*
X214952381Y-91254819D02*
X214380953Y-91254819D01*
X214666667Y-91254819D02*
X214666667Y-90254819D01*
X214666667Y-90254819D02*
X214571429Y-90397676D01*
X214571429Y-90397676D02*
X214476191Y-90492914D01*
X214476191Y-90492914D02*
X214380953Y-90540533D01*
X215380953Y-91159580D02*
X215428572Y-91207200D01*
X215428572Y-91207200D02*
X215380953Y-91254819D01*
X215380953Y-91254819D02*
X215333334Y-91207200D01*
X215333334Y-91207200D02*
X215380953Y-91159580D01*
X215380953Y-91159580D02*
X215380953Y-91254819D01*
X215761905Y-90254819D02*
X216380952Y-90254819D01*
X216380952Y-90254819D02*
X216047619Y-90635771D01*
X216047619Y-90635771D02*
X216190476Y-90635771D01*
X216190476Y-90635771D02*
X216285714Y-90683390D01*
X216285714Y-90683390D02*
X216333333Y-90731009D01*
X216333333Y-90731009D02*
X216380952Y-90826247D01*
X216380952Y-90826247D02*
X216380952Y-91064342D01*
X216380952Y-91064342D02*
X216333333Y-91159580D01*
X216333333Y-91159580D02*
X216285714Y-91207200D01*
X216285714Y-91207200D02*
X216190476Y-91254819D01*
X216190476Y-91254819D02*
X215904762Y-91254819D01*
X215904762Y-91254819D02*
X215809524Y-91207200D01*
X215809524Y-91207200D02*
X215761905Y-91159580D01*
X214038095Y-97050057D02*
X214085714Y-97002438D01*
X214085714Y-97002438D02*
X214180952Y-96954819D01*
X214180952Y-96954819D02*
X214419047Y-96954819D01*
X214419047Y-96954819D02*
X214514285Y-97002438D01*
X214514285Y-97002438D02*
X214561904Y-97050057D01*
X214561904Y-97050057D02*
X214609523Y-97145295D01*
X214609523Y-97145295D02*
X214609523Y-97240533D01*
X214609523Y-97240533D02*
X214561904Y-97383390D01*
X214561904Y-97383390D02*
X213990476Y-97954819D01*
X213990476Y-97954819D02*
X214609523Y-97954819D01*
X214942857Y-96954819D02*
X215609523Y-97954819D01*
X215609523Y-96954819D02*
X214942857Y-97954819D01*
X215942857Y-97050057D02*
X215990476Y-97002438D01*
X215990476Y-97002438D02*
X216085714Y-96954819D01*
X216085714Y-96954819D02*
X216323809Y-96954819D01*
X216323809Y-96954819D02*
X216419047Y-97002438D01*
X216419047Y-97002438D02*
X216466666Y-97050057D01*
X216466666Y-97050057D02*
X216514285Y-97145295D01*
X216514285Y-97145295D02*
X216514285Y-97240533D01*
X216514285Y-97240533D02*
X216466666Y-97383390D01*
X216466666Y-97383390D02*
X215895238Y-97954819D01*
X215895238Y-97954819D02*
X216514285Y-97954819D01*
X217704762Y-97954819D02*
X217704762Y-96954819D01*
X217704762Y-96954819D02*
X218038095Y-97669104D01*
X218038095Y-97669104D02*
X218371428Y-96954819D01*
X218371428Y-96954819D02*
X218371428Y-97954819D01*
X219276190Y-97954819D02*
X219276190Y-97431009D01*
X219276190Y-97431009D02*
X219228571Y-97335771D01*
X219228571Y-97335771D02*
X219133333Y-97288152D01*
X219133333Y-97288152D02*
X218942857Y-97288152D01*
X218942857Y-97288152D02*
X218847619Y-97335771D01*
X219276190Y-97907200D02*
X219180952Y-97954819D01*
X219180952Y-97954819D02*
X218942857Y-97954819D01*
X218942857Y-97954819D02*
X218847619Y-97907200D01*
X218847619Y-97907200D02*
X218800000Y-97811961D01*
X218800000Y-97811961D02*
X218800000Y-97716723D01*
X218800000Y-97716723D02*
X218847619Y-97621485D01*
X218847619Y-97621485D02*
X218942857Y-97573866D01*
X218942857Y-97573866D02*
X219180952Y-97573866D01*
X219180952Y-97573866D02*
X219276190Y-97526247D01*
X219609524Y-97288152D02*
X219990476Y-97288152D01*
X219752381Y-96954819D02*
X219752381Y-97811961D01*
X219752381Y-97811961D02*
X219800000Y-97907200D01*
X219800000Y-97907200D02*
X219895238Y-97954819D01*
X219895238Y-97954819D02*
X219990476Y-97954819D01*
X220323810Y-97954819D02*
X220323810Y-97288152D01*
X220323810Y-97478628D02*
X220371429Y-97383390D01*
X220371429Y-97383390D02*
X220419048Y-97335771D01*
X220419048Y-97335771D02*
X220514286Y-97288152D01*
X220514286Y-97288152D02*
X220609524Y-97288152D01*
X220942858Y-97954819D02*
X220942858Y-97288152D01*
X220942858Y-96954819D02*
X220895239Y-97002438D01*
X220895239Y-97002438D02*
X220942858Y-97050057D01*
X220942858Y-97050057D02*
X220990477Y-97002438D01*
X220990477Y-97002438D02*
X220942858Y-96954819D01*
X220942858Y-96954819D02*
X220942858Y-97050057D01*
X221323810Y-97954819D02*
X221847619Y-97288152D01*
X221323810Y-97288152D02*
X221847619Y-97954819D01*
X223561905Y-97859580D02*
X223514286Y-97907200D01*
X223514286Y-97907200D02*
X223371429Y-97954819D01*
X223371429Y-97954819D02*
X223276191Y-97954819D01*
X223276191Y-97954819D02*
X223133334Y-97907200D01*
X223133334Y-97907200D02*
X223038096Y-97811961D01*
X223038096Y-97811961D02*
X222990477Y-97716723D01*
X222990477Y-97716723D02*
X222942858Y-97526247D01*
X222942858Y-97526247D02*
X222942858Y-97383390D01*
X222942858Y-97383390D02*
X222990477Y-97192914D01*
X222990477Y-97192914D02*
X223038096Y-97097676D01*
X223038096Y-97097676D02*
X223133334Y-97002438D01*
X223133334Y-97002438D02*
X223276191Y-96954819D01*
X223276191Y-96954819D02*
X223371429Y-96954819D01*
X223371429Y-96954819D02*
X223514286Y-97002438D01*
X223514286Y-97002438D02*
X223561905Y-97050057D01*
D11*
%TO.C,J1.1.3*%
X243040000Y-90220000D02*
X243040000Y-91020000D01*
X243280000Y-90460000D02*
X243280000Y-96280000D01*
X244080000Y-90220000D02*
X243040000Y-90220000D01*
X244200000Y-90460000D02*
X244200000Y-96280000D01*
X245200000Y-90460000D02*
X245200000Y-96280000D01*
X248301000Y-90460000D02*
X248301000Y-96280000D01*
X250020000Y-90460000D02*
X243280000Y-90460000D01*
X250020000Y-90460000D02*
X250020000Y-96280000D01*
X250020000Y-96280000D02*
X243280000Y-96280000D01*
%TO.C,J1.1.1*%
X243040000Y-47920000D02*
X243040000Y-48720000D01*
X243280000Y-48160000D02*
X243280000Y-53980000D01*
X244080000Y-47920000D02*
X243040000Y-47920000D01*
X244200000Y-48160000D02*
X244200000Y-53980000D01*
X245200000Y-48160000D02*
X245200000Y-53980000D01*
X248301000Y-48160000D02*
X248301000Y-53980000D01*
X250020000Y-48160000D02*
X243280000Y-48160000D01*
X250020000Y-48160000D02*
X250020000Y-53980000D01*
X250020000Y-53980000D02*
X243280000Y-53980000D01*
%TO.C,C2*%
X213090000Y-83208767D02*
X213090000Y-82916233D01*
X214110000Y-83208767D02*
X214110000Y-82916233D01*
%TO.C,J1*%
X213970000Y-54380000D02*
X213970000Y-54950000D01*
X213970000Y-54380000D02*
X216630000Y-54380000D01*
X213970000Y-54950000D02*
X212450000Y-54950000D01*
X213970000Y-56470000D02*
X213970000Y-60030000D01*
X213970000Y-61550000D02*
X213970000Y-65110000D01*
X213970000Y-66630000D02*
X213970000Y-70190000D01*
X213970000Y-71710000D02*
X213970000Y-74820000D01*
X213970000Y-74820000D02*
X216630000Y-74820000D01*
X216630000Y-54380000D02*
X216630000Y-57490000D01*
X216630000Y-59010000D02*
X216630000Y-62570000D01*
X216630000Y-64090000D02*
X216630000Y-67650000D01*
X216630000Y-69170000D02*
X216630000Y-72730000D01*
X216630000Y-74250000D02*
X216630000Y-74820000D01*
%TO.C,J1.1.2*%
X203640000Y-47920000D02*
X203640000Y-48720000D01*
X203880000Y-48160000D02*
X203880000Y-53980000D01*
X204680000Y-47920000D02*
X203640000Y-47920000D01*
X204800000Y-48160000D02*
X204800000Y-53980000D01*
X205800000Y-48160000D02*
X205800000Y-53980000D01*
X208901000Y-48160000D02*
X208901000Y-53980000D01*
X210620000Y-48160000D02*
X203880000Y-48160000D01*
X210620000Y-48160000D02*
X210620000Y-53980000D01*
X210620000Y-53980000D02*
X203880000Y-53980000D01*
%TO.C,J1.1*%
X213950000Y-49070000D02*
X217060000Y-49070000D01*
X213950000Y-51730000D02*
X213950000Y-49070000D01*
X213950000Y-51730000D02*
X214520000Y-51730000D01*
X214520000Y-51730000D02*
X214520000Y-53250000D01*
X216040000Y-51730000D02*
X219600000Y-51730000D01*
X218580000Y-49070000D02*
X222140000Y-49070000D01*
X221120000Y-51730000D02*
X224230000Y-51730000D01*
X223660000Y-49070000D02*
X224230000Y-49070000D01*
X224230000Y-51730000D02*
X224230000Y-49070000D01*
%TO.C,C1*%
X213090000Y-79591233D02*
X213090000Y-79883767D01*
X214110000Y-79591233D02*
X214110000Y-79883767D01*
%TO.C,J4*%
X232730000Y-55140000D02*
X232730000Y-57920000D01*
X232730000Y-68065000D02*
X230470000Y-68065000D01*
X232730000Y-70860000D02*
X232730000Y-68065000D01*
X232730000Y-70860000D02*
X248290000Y-70860000D01*
X248290000Y-55140000D02*
X232730000Y-55140000D01*
X248290000Y-58360000D02*
X248290000Y-55140000D01*
X248290000Y-67640000D02*
X251390000Y-67640000D01*
X248290000Y-70860000D02*
X248290000Y-67640000D01*
X251390000Y-58360000D02*
X248290000Y-58360000D01*
X251390000Y-67640000D02*
X251390000Y-58360000D01*
%TO.C,J1.2.2*%
X203640000Y-67420000D02*
X203640000Y-68220000D01*
X203880000Y-67660000D02*
X203880000Y-73480000D01*
X204680000Y-67420000D02*
X203640000Y-67420000D01*
X204800000Y-67660000D02*
X204800000Y-73480000D01*
X205800000Y-67660000D02*
X205800000Y-73480000D01*
X208901000Y-67660000D02*
X208901000Y-73480000D01*
X210620000Y-67660000D02*
X203880000Y-67660000D01*
X210620000Y-67660000D02*
X210620000Y-73480000D01*
X210620000Y-73480000D02*
X203880000Y-73480000D01*
%TO.C,U1*%
X222360000Y-54130000D02*
X222360000Y-89810000D01*
X222360000Y-89810000D02*
X227660000Y-89810000D01*
X224010000Y-54130000D02*
X222360000Y-54130000D01*
X227660000Y-54130000D02*
X226010000Y-54130000D01*
X227660000Y-89810000D02*
X227660000Y-54130000D01*
X226010000Y-54130000D02*
G75*
G02*
X224010000Y-54130000I-1000000J0D01*
G01*
%TO.C,J3*%
X233275000Y-82360000D02*
X233275000Y-81790000D01*
X233275000Y-84900000D02*
X233275000Y-83880000D01*
X233275000Y-87440000D02*
X233275000Y-86420000D01*
X233275000Y-89530000D02*
X233275000Y-88960000D01*
X238475000Y-81790000D02*
X233275000Y-81790000D01*
X238475000Y-82360000D02*
X238475000Y-81790000D01*
X238475000Y-84900000D02*
X238475000Y-83880000D01*
X238475000Y-87440000D02*
X238475000Y-86420000D01*
X238475000Y-89530000D02*
X233275000Y-89530000D01*
X238475000Y-89530000D02*
X238475000Y-88960000D01*
X239915000Y-88960000D02*
X238475000Y-88960000D01*
%TO.C,J1.2*%
X225770000Y-49070000D02*
X228880000Y-49070000D01*
X225770000Y-51730000D02*
X225770000Y-49070000D01*
X225770000Y-51730000D02*
X226340000Y-51730000D01*
X226340000Y-51730000D02*
X226340000Y-53250000D01*
X227860000Y-51730000D02*
X231420000Y-51730000D01*
X230400000Y-49070000D02*
X233960000Y-49070000D01*
X232940000Y-51730000D02*
X236050000Y-51730000D01*
X235480000Y-49070000D02*
X236050000Y-49070000D01*
X236050000Y-51730000D02*
X236050000Y-49070000D01*
%TO.C,Y1*%
X214675000Y-78225000D02*
X214675000Y-84475000D01*
X219725000Y-78225000D02*
X219725000Y-84475000D01*
X214675000Y-78225000D02*
G75*
G02*
X219725000Y-78225000I2525000J0D01*
G01*
X219725000Y-84475000D02*
G75*
G02*
X214675000Y-84475000I-2525000J0D01*
G01*
%TO.C,J1.2.1*%
X243140000Y-81420000D02*
X243140000Y-82220000D01*
X243380000Y-81660000D02*
X243380000Y-87480000D01*
X244180000Y-81420000D02*
X243140000Y-81420000D01*
X244300000Y-81660000D02*
X244300000Y-87480000D01*
X245300000Y-81660000D02*
X245300000Y-87480000D01*
X248401000Y-81660000D02*
X248401000Y-87480000D01*
X250120000Y-81660000D02*
X243380000Y-81660000D01*
X250120000Y-81660000D02*
X250120000Y-87480000D01*
X250120000Y-87480000D02*
X243380000Y-87480000D01*
%TO.C,J1.4*%
X225770000Y-92225000D02*
X228880000Y-92225000D01*
X225770000Y-94885000D02*
X225770000Y-92225000D01*
X225770000Y-94885000D02*
X226340000Y-94885000D01*
X226340000Y-94885000D02*
X226340000Y-96405000D01*
X227860000Y-94885000D02*
X231420000Y-94885000D01*
X230400000Y-92225000D02*
X233960000Y-92225000D01*
X232940000Y-94885000D02*
X236050000Y-94885000D01*
X235480000Y-92225000D02*
X236050000Y-92225000D01*
X236050000Y-94885000D02*
X236050000Y-92225000D01*
%TO.C,SW1*%
X235545000Y-72920000D02*
X242005000Y-72920000D01*
X235545000Y-72950000D02*
X235545000Y-72920000D01*
X235545000Y-74850000D02*
X235545000Y-77450000D01*
X235545000Y-79380000D02*
X235545000Y-79350000D01*
X235545000Y-79380000D02*
X242005000Y-79380000D01*
X242005000Y-72920000D02*
X242005000Y-72950000D01*
X242005000Y-74850000D02*
X242005000Y-77450000D01*
X242005000Y-79380000D02*
X242005000Y-79350000D01*
%TO.C,J1.1.4*%
X203640000Y-90220000D02*
X203640000Y-91020000D01*
X203880000Y-90460000D02*
X203880000Y-96280000D01*
X204680000Y-90220000D02*
X203640000Y-90220000D01*
X204800000Y-90460000D02*
X204800000Y-96280000D01*
X205800000Y-90460000D02*
X205800000Y-96280000D01*
X208901000Y-90460000D02*
X208901000Y-96280000D01*
X210620000Y-90460000D02*
X203880000Y-90460000D01*
X210620000Y-90460000D02*
X210620000Y-96280000D01*
X210620000Y-96280000D02*
X203880000Y-96280000D01*
%TO.C,J1.3*%
X213950000Y-92225000D02*
X217060000Y-92225000D01*
X213950000Y-94885000D02*
X213950000Y-92225000D01*
X213950000Y-94885000D02*
X214520000Y-94885000D01*
X214520000Y-94885000D02*
X214520000Y-96405000D01*
X216040000Y-94885000D02*
X219600000Y-94885000D01*
X218580000Y-92225000D02*
X222140000Y-92225000D01*
X221120000Y-94885000D02*
X224230000Y-94885000D01*
X223660000Y-92225000D02*
X224230000Y-92225000D01*
X224230000Y-94885000D02*
X224230000Y-92225000D01*
%TD*%
M02*
