M48
; DRILL file {KiCad 8.0.7} date 2024-12-21T11:08:42+0100
; FORMAT={-:-/ absolute / metric / decimal}
; #@! TF.CreationDate,2024-12-21T11:08:42+01:00
; #@! TF.GenerationSoftware,Kicad,Pcbnew,8.0.7
; #@! TF.FileFunction,MixedPlating,1,2
FMAT,2
METRIC
; #@! TA.AperFunction,Plated,PTH,ViaDrill
T1C0.300
; #@! TA.AperFunction,Plated,PTH,ComponentDrill
T2C0.800
; #@! TA.AperFunction,Plated,PTH,ComponentDrill
T3C1.200
; #@! TA.AperFunction,NonPlated,NPTH,ComponentDrill
T4C2.200
%
G90
G05
T1
X211.35Y-74.7
X213.6Y-80.6
X214.0Y-64.5
X215.28Y-95.21
X216.955Y-68.41
X219.0Y-93.0
X220.36Y-52.055
X222.9Y-48.745
X225.4Y-72.3
X231.4Y-55.3
X233.0Y-63.635
X233.35Y-88.2
T2
X217.2Y-78.9
X217.2Y-83.8
X221.2Y-55.46
X221.2Y-58.0
X221.2Y-60.54
X221.2Y-63.08
X221.2Y-65.62
X221.2Y-68.16
X221.2Y-70.7
X221.2Y-73.24
X221.2Y-75.78
X221.2Y-78.32
X221.2Y-80.86
X221.2Y-83.4
X221.2Y-85.94
X221.2Y-88.48
X228.82Y-55.46
X228.82Y-58.0
X228.82Y-60.54
X228.82Y-63.08
X228.82Y-65.62
X228.82Y-68.16
X228.82Y-70.7
X228.82Y-73.24
X228.82Y-75.78
X228.82Y-78.32
X228.82Y-80.86
X228.82Y-83.4
X228.82Y-85.94
X228.82Y-88.48
T3
X207.4Y-49.8
X207.4Y-52.34
X207.4Y-69.3
X207.4Y-71.84
X207.4Y-92.1
X207.4Y-94.64
X246.8Y-49.8
X246.8Y-52.34
X246.8Y-92.1
X246.8Y-94.64
X246.9Y-83.3
X246.9Y-85.84
T4
X204.8Y-57.0
X204.8Y-86.1
X239.8Y-47.9
X249.0Y-77.3
M30
