%TF.GenerationSoftware,KiCad,Pcbnew,8.0.7*%
%TF.CreationDate,2024-12-22T15:55:51+01:00*%
%TF.ProjectId,circuit,63697263-7569-4742-9e6b-696361645f70,rev?*%
%TF.SameCoordinates,Original*%
%TF.FileFunction,Legend,Top*%
%TF.FilePolarity,Positive*%
%FSLAX46Y46*%
G04 Gerber Fmt 4.6, Leading zero omitted, Abs format (unit mm)*
G04 Created by KiCad (PCBNEW 8.0.7) date 2024-12-22 15:55:51*
%MOMM*%
%LPD*%
G01*
G04 APERTURE LIST*
%ADD10C,0.175000*%
%ADD11C,0.150000*%
%ADD12C,0.120000*%
G04 APERTURE END LIST*
D10*
X219159661Y-92801535D02*
X219807280Y-92801535D01*
X219807280Y-92801535D02*
X219883471Y-92839630D01*
X219883471Y-92839630D02*
X219921566Y-92877726D01*
X219921566Y-92877726D02*
X219959661Y-92953916D01*
X219959661Y-92953916D02*
X219959661Y-93068202D01*
X219959661Y-93068202D02*
X219921566Y-93144392D01*
X219654900Y-92801535D02*
X219692995Y-92877726D01*
X219692995Y-92877726D02*
X219692995Y-93030107D01*
X219692995Y-93030107D02*
X219654900Y-93106297D01*
X219654900Y-93106297D02*
X219616804Y-93144392D01*
X219616804Y-93144392D02*
X219540614Y-93182488D01*
X219540614Y-93182488D02*
X219312042Y-93182488D01*
X219312042Y-93182488D02*
X219235852Y-93144392D01*
X219235852Y-93144392D02*
X219197757Y-93106297D01*
X219197757Y-93106297D02*
X219159661Y-93030107D01*
X219159661Y-93030107D02*
X219159661Y-92877726D01*
X219159661Y-92877726D02*
X219197757Y-92801535D01*
X219692995Y-92420582D02*
X219159661Y-92420582D01*
X218892995Y-92420582D02*
X218931090Y-92458678D01*
X218931090Y-92458678D02*
X218969185Y-92420582D01*
X218969185Y-92420582D02*
X218931090Y-92382487D01*
X218931090Y-92382487D02*
X218892995Y-92420582D01*
X218892995Y-92420582D02*
X218969185Y-92420582D01*
X219159661Y-92153916D02*
X219159661Y-91849154D01*
X218892995Y-92039630D02*
X219578709Y-92039630D01*
X219578709Y-92039630D02*
X219654900Y-92001535D01*
X219654900Y-92001535D02*
X219692995Y-91925345D01*
X219692995Y-91925345D02*
X219692995Y-91849154D01*
X219692995Y-91582487D02*
X218892995Y-91582487D01*
X219692995Y-91239630D02*
X219273947Y-91239630D01*
X219273947Y-91239630D02*
X219197757Y-91277725D01*
X219197757Y-91277725D02*
X219159661Y-91353916D01*
X219159661Y-91353916D02*
X219159661Y-91468202D01*
X219159661Y-91468202D02*
X219197757Y-91544392D01*
X219197757Y-91544392D02*
X219235852Y-91582487D01*
X219159661Y-90515820D02*
X219692995Y-90515820D01*
X219159661Y-90858677D02*
X219578709Y-90858677D01*
X219578709Y-90858677D02*
X219654900Y-90820582D01*
X219654900Y-90820582D02*
X219692995Y-90744392D01*
X219692995Y-90744392D02*
X219692995Y-90630106D01*
X219692995Y-90630106D02*
X219654900Y-90553915D01*
X219654900Y-90553915D02*
X219616804Y-90515820D01*
X219692995Y-90134867D02*
X218892995Y-90134867D01*
X219197757Y-90134867D02*
X219159661Y-90058677D01*
X219159661Y-90058677D02*
X219159661Y-89906296D01*
X219159661Y-89906296D02*
X219197757Y-89830105D01*
X219197757Y-89830105D02*
X219235852Y-89792010D01*
X219235852Y-89792010D02*
X219312042Y-89753915D01*
X219312042Y-89753915D02*
X219540614Y-89753915D01*
X219540614Y-89753915D02*
X219616804Y-89792010D01*
X219616804Y-89792010D02*
X219654900Y-89830105D01*
X219654900Y-89830105D02*
X219692995Y-89906296D01*
X219692995Y-89906296D02*
X219692995Y-90058677D01*
X219692995Y-90058677D02*
X219654900Y-90134867D01*
X219616804Y-89411057D02*
X219654900Y-89372962D01*
X219654900Y-89372962D02*
X219692995Y-89411057D01*
X219692995Y-89411057D02*
X219654900Y-89449153D01*
X219654900Y-89449153D02*
X219616804Y-89411057D01*
X219616804Y-89411057D02*
X219692995Y-89411057D01*
X219654900Y-88687248D02*
X219692995Y-88763439D01*
X219692995Y-88763439D02*
X219692995Y-88915820D01*
X219692995Y-88915820D02*
X219654900Y-88992010D01*
X219654900Y-88992010D02*
X219616804Y-89030105D01*
X219616804Y-89030105D02*
X219540614Y-89068201D01*
X219540614Y-89068201D02*
X219312042Y-89068201D01*
X219312042Y-89068201D02*
X219235852Y-89030105D01*
X219235852Y-89030105D02*
X219197757Y-88992010D01*
X219197757Y-88992010D02*
X219159661Y-88915820D01*
X219159661Y-88915820D02*
X219159661Y-88763439D01*
X219159661Y-88763439D02*
X219197757Y-88687248D01*
X219692995Y-88230106D02*
X219654900Y-88306296D01*
X219654900Y-88306296D02*
X219616804Y-88344391D01*
X219616804Y-88344391D02*
X219540614Y-88382487D01*
X219540614Y-88382487D02*
X219312042Y-88382487D01*
X219312042Y-88382487D02*
X219235852Y-88344391D01*
X219235852Y-88344391D02*
X219197757Y-88306296D01*
X219197757Y-88306296D02*
X219159661Y-88230106D01*
X219159661Y-88230106D02*
X219159661Y-88115820D01*
X219159661Y-88115820D02*
X219197757Y-88039629D01*
X219197757Y-88039629D02*
X219235852Y-88001534D01*
X219235852Y-88001534D02*
X219312042Y-87963439D01*
X219312042Y-87963439D02*
X219540614Y-87963439D01*
X219540614Y-87963439D02*
X219616804Y-88001534D01*
X219616804Y-88001534D02*
X219654900Y-88039629D01*
X219654900Y-88039629D02*
X219692995Y-88115820D01*
X219692995Y-88115820D02*
X219692995Y-88230106D01*
X219692995Y-87620581D02*
X219159661Y-87620581D01*
X219235852Y-87620581D02*
X219197757Y-87582486D01*
X219197757Y-87582486D02*
X219159661Y-87506296D01*
X219159661Y-87506296D02*
X219159661Y-87392010D01*
X219159661Y-87392010D02*
X219197757Y-87315819D01*
X219197757Y-87315819D02*
X219273947Y-87277724D01*
X219273947Y-87277724D02*
X219692995Y-87277724D01*
X219273947Y-87277724D02*
X219197757Y-87239629D01*
X219197757Y-87239629D02*
X219159661Y-87163438D01*
X219159661Y-87163438D02*
X219159661Y-87049153D01*
X219159661Y-87049153D02*
X219197757Y-86972962D01*
X219197757Y-86972962D02*
X219273947Y-86934867D01*
X219273947Y-86934867D02*
X219692995Y-86934867D01*
X218854900Y-85982486D02*
X219883471Y-86668200D01*
X219692995Y-85601534D02*
X219654900Y-85677724D01*
X219654900Y-85677724D02*
X219578709Y-85715819D01*
X219578709Y-85715819D02*
X218892995Y-85715819D01*
X219159661Y-84953914D02*
X219692995Y-84953914D01*
X219159661Y-85296771D02*
X219578709Y-85296771D01*
X219578709Y-85296771D02*
X219654900Y-85258676D01*
X219654900Y-85258676D02*
X219692995Y-85182486D01*
X219692995Y-85182486D02*
X219692995Y-85068200D01*
X219692995Y-85068200D02*
X219654900Y-84992009D01*
X219654900Y-84992009D02*
X219616804Y-84953914D01*
X219654900Y-84611057D02*
X219692995Y-84534866D01*
X219692995Y-84534866D02*
X219692995Y-84382485D01*
X219692995Y-84382485D02*
X219654900Y-84306295D01*
X219654900Y-84306295D02*
X219578709Y-84268199D01*
X219578709Y-84268199D02*
X219540614Y-84268199D01*
X219540614Y-84268199D02*
X219464423Y-84306295D01*
X219464423Y-84306295D02*
X219426328Y-84382485D01*
X219426328Y-84382485D02*
X219426328Y-84496771D01*
X219426328Y-84496771D02*
X219388233Y-84572961D01*
X219388233Y-84572961D02*
X219312042Y-84611057D01*
X219312042Y-84611057D02*
X219273947Y-84611057D01*
X219273947Y-84611057D02*
X219197757Y-84572961D01*
X219197757Y-84572961D02*
X219159661Y-84496771D01*
X219159661Y-84496771D02*
X219159661Y-84382485D01*
X219159661Y-84382485D02*
X219197757Y-84306295D01*
X219692995Y-83925342D02*
X219159661Y-83925342D01*
X219235852Y-83925342D02*
X219197757Y-83887247D01*
X219197757Y-83887247D02*
X219159661Y-83811057D01*
X219159661Y-83811057D02*
X219159661Y-83696771D01*
X219159661Y-83696771D02*
X219197757Y-83620580D01*
X219197757Y-83620580D02*
X219273947Y-83582485D01*
X219273947Y-83582485D02*
X219692995Y-83582485D01*
X219273947Y-83582485D02*
X219197757Y-83544390D01*
X219197757Y-83544390D02*
X219159661Y-83468199D01*
X219159661Y-83468199D02*
X219159661Y-83353914D01*
X219159661Y-83353914D02*
X219197757Y-83277723D01*
X219197757Y-83277723D02*
X219273947Y-83239628D01*
X219273947Y-83239628D02*
X219692995Y-83239628D01*
X219692995Y-82515818D02*
X218892995Y-82515818D01*
X219654900Y-82515818D02*
X219692995Y-82592009D01*
X219692995Y-82592009D02*
X219692995Y-82744390D01*
X219692995Y-82744390D02*
X219654900Y-82820580D01*
X219654900Y-82820580D02*
X219616804Y-82858675D01*
X219616804Y-82858675D02*
X219540614Y-82896771D01*
X219540614Y-82896771D02*
X219312042Y-82896771D01*
X219312042Y-82896771D02*
X219235852Y-82858675D01*
X219235852Y-82858675D02*
X219197757Y-82820580D01*
X219197757Y-82820580D02*
X219159661Y-82744390D01*
X219159661Y-82744390D02*
X219159661Y-82592009D01*
X219159661Y-82592009D02*
X219197757Y-82515818D01*
X219692995Y-82020580D02*
X219654900Y-82096770D01*
X219654900Y-82096770D02*
X219578709Y-82134865D01*
X219578709Y-82134865D02*
X218892995Y-82134865D01*
X218854900Y-81144389D02*
X219883471Y-81830103D01*
X219692995Y-80877722D02*
X218892995Y-80877722D01*
X218892995Y-80877722D02*
X219464423Y-80611056D01*
X219464423Y-80611056D02*
X218892995Y-80344389D01*
X218892995Y-80344389D02*
X219692995Y-80344389D01*
X219159661Y-80039627D02*
X219692995Y-79849151D01*
X219159661Y-79658674D02*
X219692995Y-79849151D01*
X219692995Y-79849151D02*
X219883471Y-79925341D01*
X219883471Y-79925341D02*
X219921566Y-79963436D01*
X219921566Y-79963436D02*
X219959661Y-80039627D01*
X219654900Y-79392008D02*
X219692995Y-79277722D01*
X219692995Y-79277722D02*
X219692995Y-79087246D01*
X219692995Y-79087246D02*
X219654900Y-79011055D01*
X219654900Y-79011055D02*
X219616804Y-78972960D01*
X219616804Y-78972960D02*
X219540614Y-78934865D01*
X219540614Y-78934865D02*
X219464423Y-78934865D01*
X219464423Y-78934865D02*
X219388233Y-78972960D01*
X219388233Y-78972960D02*
X219350138Y-79011055D01*
X219350138Y-79011055D02*
X219312042Y-79087246D01*
X219312042Y-79087246D02*
X219273947Y-79239627D01*
X219273947Y-79239627D02*
X219235852Y-79315817D01*
X219235852Y-79315817D02*
X219197757Y-79353912D01*
X219197757Y-79353912D02*
X219121566Y-79392008D01*
X219121566Y-79392008D02*
X219045376Y-79392008D01*
X219045376Y-79392008D02*
X218969185Y-79353912D01*
X218969185Y-79353912D02*
X218931090Y-79315817D01*
X218931090Y-79315817D02*
X218892995Y-79239627D01*
X218892995Y-79239627D02*
X218892995Y-79049150D01*
X218892995Y-79049150D02*
X218931090Y-78934865D01*
X219692995Y-78592007D02*
X219159661Y-78592007D01*
X218892995Y-78592007D02*
X218931090Y-78630103D01*
X218931090Y-78630103D02*
X218969185Y-78592007D01*
X218969185Y-78592007D02*
X218931090Y-78553912D01*
X218931090Y-78553912D02*
X218892995Y-78592007D01*
X218892995Y-78592007D02*
X218969185Y-78592007D01*
X219692995Y-78211055D02*
X219159661Y-78211055D01*
X219235852Y-78211055D02*
X219197757Y-78172960D01*
X219197757Y-78172960D02*
X219159661Y-78096770D01*
X219159661Y-78096770D02*
X219159661Y-77982484D01*
X219159661Y-77982484D02*
X219197757Y-77906293D01*
X219197757Y-77906293D02*
X219273947Y-77868198D01*
X219273947Y-77868198D02*
X219692995Y-77868198D01*
X219273947Y-77868198D02*
X219197757Y-77830103D01*
X219197757Y-77830103D02*
X219159661Y-77753912D01*
X219159661Y-77753912D02*
X219159661Y-77639627D01*
X219159661Y-77639627D02*
X219197757Y-77563436D01*
X219197757Y-77563436D02*
X219273947Y-77525341D01*
X219273947Y-77525341D02*
X219692995Y-77525341D01*
X219692995Y-76687245D02*
X219312042Y-76953912D01*
X219692995Y-77144388D02*
X218892995Y-77144388D01*
X218892995Y-77144388D02*
X218892995Y-76839626D01*
X218892995Y-76839626D02*
X218931090Y-76763436D01*
X218931090Y-76763436D02*
X218969185Y-76725341D01*
X218969185Y-76725341D02*
X219045376Y-76687245D01*
X219045376Y-76687245D02*
X219159661Y-76687245D01*
X219159661Y-76687245D02*
X219235852Y-76725341D01*
X219235852Y-76725341D02*
X219273947Y-76763436D01*
X219273947Y-76763436D02*
X219312042Y-76839626D01*
X219312042Y-76839626D02*
X219312042Y-77144388D01*
X219692995Y-76001531D02*
X219273947Y-76001531D01*
X219273947Y-76001531D02*
X219197757Y-76039626D01*
X219197757Y-76039626D02*
X219159661Y-76115817D01*
X219159661Y-76115817D02*
X219159661Y-76268198D01*
X219159661Y-76268198D02*
X219197757Y-76344388D01*
X219654900Y-76001531D02*
X219692995Y-76077722D01*
X219692995Y-76077722D02*
X219692995Y-76268198D01*
X219692995Y-76268198D02*
X219654900Y-76344388D01*
X219654900Y-76344388D02*
X219578709Y-76382484D01*
X219578709Y-76382484D02*
X219502519Y-76382484D01*
X219502519Y-76382484D02*
X219426328Y-76344388D01*
X219426328Y-76344388D02*
X219388233Y-76268198D01*
X219388233Y-76268198D02*
X219388233Y-76077722D01*
X219388233Y-76077722D02*
X219350138Y-76001531D01*
X219654900Y-75277721D02*
X219692995Y-75353912D01*
X219692995Y-75353912D02*
X219692995Y-75506293D01*
X219692995Y-75506293D02*
X219654900Y-75582483D01*
X219654900Y-75582483D02*
X219616804Y-75620578D01*
X219616804Y-75620578D02*
X219540614Y-75658674D01*
X219540614Y-75658674D02*
X219312042Y-75658674D01*
X219312042Y-75658674D02*
X219235852Y-75620578D01*
X219235852Y-75620578D02*
X219197757Y-75582483D01*
X219197757Y-75582483D02*
X219159661Y-75506293D01*
X219159661Y-75506293D02*
X219159661Y-75353912D01*
X219159661Y-75353912D02*
X219197757Y-75277721D01*
X219692995Y-74934864D02*
X219159661Y-74934864D01*
X218892995Y-74934864D02*
X218931090Y-74972960D01*
X218931090Y-74972960D02*
X218969185Y-74934864D01*
X218969185Y-74934864D02*
X218931090Y-74896769D01*
X218931090Y-74896769D02*
X218892995Y-74934864D01*
X218892995Y-74934864D02*
X218969185Y-74934864D01*
X219159661Y-74553912D02*
X219692995Y-74553912D01*
X219235852Y-74553912D02*
X219197757Y-74515817D01*
X219197757Y-74515817D02*
X219159661Y-74439627D01*
X219159661Y-74439627D02*
X219159661Y-74325341D01*
X219159661Y-74325341D02*
X219197757Y-74249150D01*
X219197757Y-74249150D02*
X219273947Y-74211055D01*
X219273947Y-74211055D02*
X219692995Y-74211055D01*
X219159661Y-73487245D02*
X219807280Y-73487245D01*
X219807280Y-73487245D02*
X219883471Y-73525340D01*
X219883471Y-73525340D02*
X219921566Y-73563436D01*
X219921566Y-73563436D02*
X219959661Y-73639626D01*
X219959661Y-73639626D02*
X219959661Y-73753912D01*
X219959661Y-73753912D02*
X219921566Y-73830102D01*
X219654900Y-73487245D02*
X219692995Y-73563436D01*
X219692995Y-73563436D02*
X219692995Y-73715817D01*
X219692995Y-73715817D02*
X219654900Y-73792007D01*
X219654900Y-73792007D02*
X219616804Y-73830102D01*
X219616804Y-73830102D02*
X219540614Y-73868198D01*
X219540614Y-73868198D02*
X219312042Y-73868198D01*
X219312042Y-73868198D02*
X219235852Y-73830102D01*
X219235852Y-73830102D02*
X219197757Y-73792007D01*
X219197757Y-73792007D02*
X219159661Y-73715817D01*
X219159661Y-73715817D02*
X219159661Y-73563436D01*
X219159661Y-73563436D02*
X219197757Y-73487245D01*
X218892995Y-73182483D02*
X219692995Y-72992007D01*
X219692995Y-72992007D02*
X219121566Y-72839626D01*
X219121566Y-72839626D02*
X219692995Y-72687245D01*
X219692995Y-72687245D02*
X218892995Y-72496769D01*
X219692995Y-72192006D02*
X218892995Y-72192006D01*
X219692995Y-71849149D02*
X219273947Y-71849149D01*
X219273947Y-71849149D02*
X219197757Y-71887244D01*
X219197757Y-71887244D02*
X219159661Y-71963435D01*
X219159661Y-71963435D02*
X219159661Y-72077721D01*
X219159661Y-72077721D02*
X219197757Y-72153911D01*
X219197757Y-72153911D02*
X219235852Y-72192006D01*
X219654900Y-71163434D02*
X219692995Y-71239625D01*
X219692995Y-71239625D02*
X219692995Y-71392006D01*
X219692995Y-71392006D02*
X219654900Y-71468196D01*
X219654900Y-71468196D02*
X219578709Y-71506292D01*
X219578709Y-71506292D02*
X219273947Y-71506292D01*
X219273947Y-71506292D02*
X219197757Y-71468196D01*
X219197757Y-71468196D02*
X219159661Y-71392006D01*
X219159661Y-71392006D02*
X219159661Y-71239625D01*
X219159661Y-71239625D02*
X219197757Y-71163434D01*
X219197757Y-71163434D02*
X219273947Y-71125339D01*
X219273947Y-71125339D02*
X219350138Y-71125339D01*
X219350138Y-71125339D02*
X219426328Y-71506292D01*
X219654900Y-70477720D02*
X219692995Y-70553911D01*
X219692995Y-70553911D02*
X219692995Y-70706292D01*
X219692995Y-70706292D02*
X219654900Y-70782482D01*
X219654900Y-70782482D02*
X219578709Y-70820578D01*
X219578709Y-70820578D02*
X219273947Y-70820578D01*
X219273947Y-70820578D02*
X219197757Y-70782482D01*
X219197757Y-70782482D02*
X219159661Y-70706292D01*
X219159661Y-70706292D02*
X219159661Y-70553911D01*
X219159661Y-70553911D02*
X219197757Y-70477720D01*
X219197757Y-70477720D02*
X219273947Y-70439625D01*
X219273947Y-70439625D02*
X219350138Y-70439625D01*
X219350138Y-70439625D02*
X219426328Y-70820578D01*
X219692995Y-69982483D02*
X219654900Y-70058673D01*
X219654900Y-70058673D02*
X219578709Y-70096768D01*
X219578709Y-70096768D02*
X218892995Y-70096768D01*
X219654900Y-69372958D02*
X219692995Y-69449149D01*
X219692995Y-69449149D02*
X219692995Y-69601530D01*
X219692995Y-69601530D02*
X219654900Y-69677720D01*
X219654900Y-69677720D02*
X219578709Y-69715816D01*
X219578709Y-69715816D02*
X219273947Y-69715816D01*
X219273947Y-69715816D02*
X219197757Y-69677720D01*
X219197757Y-69677720D02*
X219159661Y-69601530D01*
X219159661Y-69601530D02*
X219159661Y-69449149D01*
X219159661Y-69449149D02*
X219197757Y-69372958D01*
X219197757Y-69372958D02*
X219273947Y-69334863D01*
X219273947Y-69334863D02*
X219350138Y-69334863D01*
X219350138Y-69334863D02*
X219426328Y-69715816D01*
X219273947Y-68725340D02*
X219312042Y-68611054D01*
X219312042Y-68611054D02*
X219350138Y-68572959D01*
X219350138Y-68572959D02*
X219426328Y-68534863D01*
X219426328Y-68534863D02*
X219540614Y-68534863D01*
X219540614Y-68534863D02*
X219616804Y-68572959D01*
X219616804Y-68572959D02*
X219654900Y-68611054D01*
X219654900Y-68611054D02*
X219692995Y-68687244D01*
X219692995Y-68687244D02*
X219692995Y-68992006D01*
X219692995Y-68992006D02*
X218892995Y-68992006D01*
X218892995Y-68992006D02*
X218892995Y-68725340D01*
X218892995Y-68725340D02*
X218931090Y-68649149D01*
X218931090Y-68649149D02*
X218969185Y-68611054D01*
X218969185Y-68611054D02*
X219045376Y-68572959D01*
X219045376Y-68572959D02*
X219121566Y-68572959D01*
X219121566Y-68572959D02*
X219197757Y-68611054D01*
X219197757Y-68611054D02*
X219235852Y-68649149D01*
X219235852Y-68649149D02*
X219273947Y-68725340D01*
X219273947Y-68725340D02*
X219273947Y-68992006D01*
X219159661Y-67849149D02*
X219692995Y-67849149D01*
X219159661Y-68192006D02*
X219578709Y-68192006D01*
X219578709Y-68192006D02*
X219654900Y-68153911D01*
X219654900Y-68153911D02*
X219692995Y-68077721D01*
X219692995Y-68077721D02*
X219692995Y-67963435D01*
X219692995Y-67963435D02*
X219654900Y-67887244D01*
X219654900Y-67887244D02*
X219616804Y-67849149D01*
X219159661Y-67582482D02*
X219159661Y-67277720D01*
X218892995Y-67468196D02*
X219578709Y-67468196D01*
X219578709Y-67468196D02*
X219654900Y-67430101D01*
X219654900Y-67430101D02*
X219692995Y-67353911D01*
X219692995Y-67353911D02*
X219692995Y-67277720D01*
X219159661Y-67125339D02*
X219159661Y-66820577D01*
X218892995Y-67011053D02*
X219578709Y-67011053D01*
X219578709Y-67011053D02*
X219654900Y-66972958D01*
X219654900Y-66972958D02*
X219692995Y-66896768D01*
X219692995Y-66896768D02*
X219692995Y-66820577D01*
X219692995Y-66439625D02*
X219654900Y-66515815D01*
X219654900Y-66515815D02*
X219616804Y-66553910D01*
X219616804Y-66553910D02*
X219540614Y-66592006D01*
X219540614Y-66592006D02*
X219312042Y-66592006D01*
X219312042Y-66592006D02*
X219235852Y-66553910D01*
X219235852Y-66553910D02*
X219197757Y-66515815D01*
X219197757Y-66515815D02*
X219159661Y-66439625D01*
X219159661Y-66439625D02*
X219159661Y-66325339D01*
X219159661Y-66325339D02*
X219197757Y-66249148D01*
X219197757Y-66249148D02*
X219235852Y-66211053D01*
X219235852Y-66211053D02*
X219312042Y-66172958D01*
X219312042Y-66172958D02*
X219540614Y-66172958D01*
X219540614Y-66172958D02*
X219616804Y-66211053D01*
X219616804Y-66211053D02*
X219654900Y-66249148D01*
X219654900Y-66249148D02*
X219692995Y-66325339D01*
X219692995Y-66325339D02*
X219692995Y-66439625D01*
X219159661Y-65830100D02*
X219692995Y-65830100D01*
X219235852Y-65830100D02*
X219197757Y-65792005D01*
X219197757Y-65792005D02*
X219159661Y-65715815D01*
X219159661Y-65715815D02*
X219159661Y-65601529D01*
X219159661Y-65601529D02*
X219197757Y-65525338D01*
X219197757Y-65525338D02*
X219273947Y-65487243D01*
X219273947Y-65487243D02*
X219692995Y-65487243D01*
X219654900Y-65144386D02*
X219692995Y-65068195D01*
X219692995Y-65068195D02*
X219692995Y-64915814D01*
X219692995Y-64915814D02*
X219654900Y-64839624D01*
X219654900Y-64839624D02*
X219578709Y-64801528D01*
X219578709Y-64801528D02*
X219540614Y-64801528D01*
X219540614Y-64801528D02*
X219464423Y-64839624D01*
X219464423Y-64839624D02*
X219426328Y-64915814D01*
X219426328Y-64915814D02*
X219426328Y-65030100D01*
X219426328Y-65030100D02*
X219388233Y-65106290D01*
X219388233Y-65106290D02*
X219312042Y-65144386D01*
X219312042Y-65144386D02*
X219273947Y-65144386D01*
X219273947Y-65144386D02*
X219197757Y-65106290D01*
X219197757Y-65106290D02*
X219159661Y-65030100D01*
X219159661Y-65030100D02*
X219159661Y-64915814D01*
X219159661Y-64915814D02*
X219197757Y-64839624D01*
D11*
X222159580Y-79016666D02*
X222207200Y-79064285D01*
X222207200Y-79064285D02*
X222254819Y-79207142D01*
X222254819Y-79207142D02*
X222254819Y-79302380D01*
X222254819Y-79302380D02*
X222207200Y-79445237D01*
X222207200Y-79445237D02*
X222111961Y-79540475D01*
X222111961Y-79540475D02*
X222016723Y-79588094D01*
X222016723Y-79588094D02*
X221826247Y-79635713D01*
X221826247Y-79635713D02*
X221683390Y-79635713D01*
X221683390Y-79635713D02*
X221492914Y-79588094D01*
X221492914Y-79588094D02*
X221397676Y-79540475D01*
X221397676Y-79540475D02*
X221302438Y-79445237D01*
X221302438Y-79445237D02*
X221254819Y-79302380D01*
X221254819Y-79302380D02*
X221254819Y-79207142D01*
X221254819Y-79207142D02*
X221302438Y-79064285D01*
X221302438Y-79064285D02*
X221350057Y-79016666D01*
X221350057Y-78635713D02*
X221302438Y-78588094D01*
X221302438Y-78588094D02*
X221254819Y-78492856D01*
X221254819Y-78492856D02*
X221254819Y-78254761D01*
X221254819Y-78254761D02*
X221302438Y-78159523D01*
X221302438Y-78159523D02*
X221350057Y-78111904D01*
X221350057Y-78111904D02*
X221445295Y-78064285D01*
X221445295Y-78064285D02*
X221540533Y-78064285D01*
X221540533Y-78064285D02*
X221683390Y-78111904D01*
X221683390Y-78111904D02*
X222254819Y-78683332D01*
X222254819Y-78683332D02*
X222254819Y-78064285D01*
X222159580Y-70616666D02*
X222207200Y-70664285D01*
X222207200Y-70664285D02*
X222254819Y-70807142D01*
X222254819Y-70807142D02*
X222254819Y-70902380D01*
X222254819Y-70902380D02*
X222207200Y-71045237D01*
X222207200Y-71045237D02*
X222111961Y-71140475D01*
X222111961Y-71140475D02*
X222016723Y-71188094D01*
X222016723Y-71188094D02*
X221826247Y-71235713D01*
X221826247Y-71235713D02*
X221683390Y-71235713D01*
X221683390Y-71235713D02*
X221492914Y-71188094D01*
X221492914Y-71188094D02*
X221397676Y-71140475D01*
X221397676Y-71140475D02*
X221302438Y-71045237D01*
X221302438Y-71045237D02*
X221254819Y-70902380D01*
X221254819Y-70902380D02*
X221254819Y-70807142D01*
X221254819Y-70807142D02*
X221302438Y-70664285D01*
X221302438Y-70664285D02*
X221350057Y-70616666D01*
X222254819Y-69664285D02*
X222254819Y-70235713D01*
X222254819Y-69949999D02*
X221254819Y-69949999D01*
X221254819Y-69949999D02*
X221397676Y-70045237D01*
X221397676Y-70045237D02*
X221492914Y-70140475D01*
X221492914Y-70140475D02*
X221540533Y-70235713D01*
X235952381Y-94054819D02*
X235952381Y-94769104D01*
X235952381Y-94769104D02*
X235904762Y-94911961D01*
X235904762Y-94911961D02*
X235809524Y-95007200D01*
X235809524Y-95007200D02*
X235666667Y-95054819D01*
X235666667Y-95054819D02*
X235571429Y-95054819D01*
X236952381Y-95054819D02*
X236380953Y-95054819D01*
X236666667Y-95054819D02*
X236666667Y-94054819D01*
X236666667Y-94054819D02*
X236571429Y-94197676D01*
X236571429Y-94197676D02*
X236476191Y-94292914D01*
X236476191Y-94292914D02*
X236380953Y-94340533D01*
X237380953Y-94959580D02*
X237428572Y-95007200D01*
X237428572Y-95007200D02*
X237380953Y-95054819D01*
X237380953Y-95054819D02*
X237333334Y-95007200D01*
X237333334Y-95007200D02*
X237380953Y-94959580D01*
X237380953Y-94959580D02*
X237380953Y-95054819D01*
X238285714Y-94388152D02*
X238285714Y-95054819D01*
X238047619Y-94007200D02*
X237809524Y-94721485D01*
X237809524Y-94721485D02*
X238428571Y-94721485D01*
X223952381Y-86854819D02*
X223952381Y-87569104D01*
X223952381Y-87569104D02*
X223904762Y-87711961D01*
X223904762Y-87711961D02*
X223809524Y-87807200D01*
X223809524Y-87807200D02*
X223666667Y-87854819D01*
X223666667Y-87854819D02*
X223571429Y-87854819D01*
X224952381Y-87854819D02*
X224380953Y-87854819D01*
X224666667Y-87854819D02*
X224666667Y-86854819D01*
X224666667Y-86854819D02*
X224571429Y-86997676D01*
X224571429Y-86997676D02*
X224476191Y-87092914D01*
X224476191Y-87092914D02*
X224380953Y-87140533D01*
X225380953Y-87759580D02*
X225428572Y-87807200D01*
X225428572Y-87807200D02*
X225380953Y-87854819D01*
X225380953Y-87854819D02*
X225333334Y-87807200D01*
X225333334Y-87807200D02*
X225380953Y-87759580D01*
X225380953Y-87759580D02*
X225380953Y-87854819D01*
X225761905Y-86854819D02*
X226380952Y-86854819D01*
X226380952Y-86854819D02*
X226047619Y-87235771D01*
X226047619Y-87235771D02*
X226190476Y-87235771D01*
X226190476Y-87235771D02*
X226285714Y-87283390D01*
X226285714Y-87283390D02*
X226333333Y-87331009D01*
X226333333Y-87331009D02*
X226380952Y-87426247D01*
X226380952Y-87426247D02*
X226380952Y-87664342D01*
X226380952Y-87664342D02*
X226333333Y-87759580D01*
X226333333Y-87759580D02*
X226285714Y-87807200D01*
X226285714Y-87807200D02*
X226190476Y-87854819D01*
X226190476Y-87854819D02*
X225904762Y-87854819D01*
X225904762Y-87854819D02*
X225809524Y-87807200D01*
X225809524Y-87807200D02*
X225761905Y-87759580D01*
X223952381Y-43854819D02*
X223952381Y-44569104D01*
X223952381Y-44569104D02*
X223904762Y-44711961D01*
X223904762Y-44711961D02*
X223809524Y-44807200D01*
X223809524Y-44807200D02*
X223666667Y-44854819D01*
X223666667Y-44854819D02*
X223571429Y-44854819D01*
X224952381Y-44854819D02*
X224380953Y-44854819D01*
X224666667Y-44854819D02*
X224666667Y-43854819D01*
X224666667Y-43854819D02*
X224571429Y-43997676D01*
X224571429Y-43997676D02*
X224476191Y-44092914D01*
X224476191Y-44092914D02*
X224380953Y-44140533D01*
X225380953Y-44759580D02*
X225428572Y-44807200D01*
X225428572Y-44807200D02*
X225380953Y-44854819D01*
X225380953Y-44854819D02*
X225333334Y-44807200D01*
X225333334Y-44807200D02*
X225380953Y-44759580D01*
X225380953Y-44759580D02*
X225380953Y-44854819D01*
X226380952Y-44854819D02*
X225809524Y-44854819D01*
X226095238Y-44854819D02*
X226095238Y-43854819D01*
X226095238Y-43854819D02*
X226000000Y-43997676D01*
X226000000Y-43997676D02*
X225904762Y-44092914D01*
X225904762Y-44092914D02*
X225809524Y-44140533D01*
X221741666Y-51884819D02*
X221741666Y-52599104D01*
X221741666Y-52599104D02*
X221694047Y-52741961D01*
X221694047Y-52741961D02*
X221598809Y-52837200D01*
X221598809Y-52837200D02*
X221455952Y-52884819D01*
X221455952Y-52884819D02*
X221360714Y-52884819D01*
X222741666Y-52884819D02*
X222170238Y-52884819D01*
X222455952Y-52884819D02*
X222455952Y-51884819D01*
X222455952Y-51884819D02*
X222360714Y-52027676D01*
X222360714Y-52027676D02*
X222265476Y-52122914D01*
X222265476Y-52122914D02*
X222170238Y-52170533D01*
X254388095Y-86154819D02*
X254388095Y-86869104D01*
X254388095Y-86869104D02*
X254340476Y-87011961D01*
X254340476Y-87011961D02*
X254245238Y-87107200D01*
X254245238Y-87107200D02*
X254102381Y-87154819D01*
X254102381Y-87154819D02*
X254007143Y-87154819D01*
X255388095Y-87154819D02*
X254816667Y-87154819D01*
X255102381Y-87154819D02*
X255102381Y-86154819D01*
X255102381Y-86154819D02*
X255007143Y-86297676D01*
X255007143Y-86297676D02*
X254911905Y-86392914D01*
X254911905Y-86392914D02*
X254816667Y-86440533D01*
X255816667Y-87059580D02*
X255864286Y-87107200D01*
X255864286Y-87107200D02*
X255816667Y-87154819D01*
X255816667Y-87154819D02*
X255769048Y-87107200D01*
X255769048Y-87107200D02*
X255816667Y-87059580D01*
X255816667Y-87059580D02*
X255816667Y-87154819D01*
X256816666Y-87154819D02*
X256245238Y-87154819D01*
X256530952Y-87154819D02*
X256530952Y-86154819D01*
X256530952Y-86154819D02*
X256435714Y-86297676D01*
X256435714Y-86297676D02*
X256340476Y-86392914D01*
X256340476Y-86392914D02*
X256245238Y-86440533D01*
X257245238Y-87059580D02*
X257292857Y-87107200D01*
X257292857Y-87107200D02*
X257245238Y-87154819D01*
X257245238Y-87154819D02*
X257197619Y-87107200D01*
X257197619Y-87107200D02*
X257245238Y-87059580D01*
X257245238Y-87059580D02*
X257245238Y-87154819D01*
X257626190Y-86154819D02*
X258245237Y-86154819D01*
X258245237Y-86154819D02*
X257911904Y-86535771D01*
X257911904Y-86535771D02*
X258054761Y-86535771D01*
X258054761Y-86535771D02*
X258149999Y-86583390D01*
X258149999Y-86583390D02*
X258197618Y-86631009D01*
X258197618Y-86631009D02*
X258245237Y-86726247D01*
X258245237Y-86726247D02*
X258245237Y-86964342D01*
X258245237Y-86964342D02*
X258197618Y-87059580D01*
X258197618Y-87059580D02*
X258149999Y-87107200D01*
X258149999Y-87107200D02*
X258054761Y-87154819D01*
X258054761Y-87154819D02*
X257769047Y-87154819D01*
X257769047Y-87154819D02*
X257673809Y-87107200D01*
X257673809Y-87107200D02*
X257626190Y-87059580D01*
X258881009Y-93414286D02*
X258928628Y-93271429D01*
X258928628Y-93271429D02*
X258976247Y-93223810D01*
X258976247Y-93223810D02*
X259071485Y-93176191D01*
X259071485Y-93176191D02*
X259214342Y-93176191D01*
X259214342Y-93176191D02*
X259309580Y-93223810D01*
X259309580Y-93223810D02*
X259357200Y-93271429D01*
X259357200Y-93271429D02*
X259404819Y-93366667D01*
X259404819Y-93366667D02*
X259404819Y-93747619D01*
X259404819Y-93747619D02*
X258404819Y-93747619D01*
X258404819Y-93747619D02*
X258404819Y-93414286D01*
X258404819Y-93414286D02*
X258452438Y-93319048D01*
X258452438Y-93319048D02*
X258500057Y-93271429D01*
X258500057Y-93271429D02*
X258595295Y-93223810D01*
X258595295Y-93223810D02*
X258690533Y-93223810D01*
X258690533Y-93223810D02*
X258785771Y-93271429D01*
X258785771Y-93271429D02*
X258833390Y-93319048D01*
X258833390Y-93319048D02*
X258881009Y-93414286D01*
X258881009Y-93414286D02*
X258881009Y-93747619D01*
X258738152Y-92319048D02*
X259404819Y-92319048D01*
X258738152Y-92747619D02*
X259261961Y-92747619D01*
X259261961Y-92747619D02*
X259357200Y-92700000D01*
X259357200Y-92700000D02*
X259404819Y-92604762D01*
X259404819Y-92604762D02*
X259404819Y-92461905D01*
X259404819Y-92461905D02*
X259357200Y-92366667D01*
X259357200Y-92366667D02*
X259309580Y-92319048D01*
X258738152Y-91985714D02*
X258738152Y-91604762D01*
X258404819Y-91842857D02*
X259261961Y-91842857D01*
X259261961Y-91842857D02*
X259357200Y-91795238D01*
X259357200Y-91795238D02*
X259404819Y-91700000D01*
X259404819Y-91700000D02*
X259404819Y-91604762D01*
X258738152Y-91414285D02*
X258738152Y-91033333D01*
X258404819Y-91271428D02*
X259261961Y-91271428D01*
X259261961Y-91271428D02*
X259357200Y-91223809D01*
X259357200Y-91223809D02*
X259404819Y-91128571D01*
X259404819Y-91128571D02*
X259404819Y-91033333D01*
X259404819Y-90557142D02*
X259357200Y-90652380D01*
X259357200Y-90652380D02*
X259309580Y-90699999D01*
X259309580Y-90699999D02*
X259214342Y-90747618D01*
X259214342Y-90747618D02*
X258928628Y-90747618D01*
X258928628Y-90747618D02*
X258833390Y-90699999D01*
X258833390Y-90699999D02*
X258785771Y-90652380D01*
X258785771Y-90652380D02*
X258738152Y-90557142D01*
X258738152Y-90557142D02*
X258738152Y-90414285D01*
X258738152Y-90414285D02*
X258785771Y-90319047D01*
X258785771Y-90319047D02*
X258833390Y-90271428D01*
X258833390Y-90271428D02*
X258928628Y-90223809D01*
X258928628Y-90223809D02*
X259214342Y-90223809D01*
X259214342Y-90223809D02*
X259309580Y-90271428D01*
X259309580Y-90271428D02*
X259357200Y-90319047D01*
X259357200Y-90319047D02*
X259404819Y-90414285D01*
X259404819Y-90414285D02*
X259404819Y-90557142D01*
X258738152Y-89795237D02*
X259404819Y-89795237D01*
X258833390Y-89795237D02*
X258785771Y-89747618D01*
X258785771Y-89747618D02*
X258738152Y-89652380D01*
X258738152Y-89652380D02*
X258738152Y-89509523D01*
X258738152Y-89509523D02*
X258785771Y-89414285D01*
X258785771Y-89414285D02*
X258881009Y-89366666D01*
X258881009Y-89366666D02*
X259404819Y-89366666D01*
X258404819Y-87652380D02*
X258404819Y-88128570D01*
X258404819Y-88128570D02*
X258881009Y-88176189D01*
X258881009Y-88176189D02*
X258833390Y-88128570D01*
X258833390Y-88128570D02*
X258785771Y-88033332D01*
X258785771Y-88033332D02*
X258785771Y-87795237D01*
X258785771Y-87795237D02*
X258833390Y-87699999D01*
X258833390Y-87699999D02*
X258881009Y-87652380D01*
X258881009Y-87652380D02*
X258976247Y-87604761D01*
X258976247Y-87604761D02*
X259214342Y-87604761D01*
X259214342Y-87604761D02*
X259309580Y-87652380D01*
X259309580Y-87652380D02*
X259357200Y-87699999D01*
X259357200Y-87699999D02*
X259404819Y-87795237D01*
X259404819Y-87795237D02*
X259404819Y-88033332D01*
X259404819Y-88033332D02*
X259357200Y-88128570D01*
X259357200Y-88128570D02*
X259309580Y-88176189D01*
X254388095Y-43754819D02*
X254388095Y-44469104D01*
X254388095Y-44469104D02*
X254340476Y-44611961D01*
X254340476Y-44611961D02*
X254245238Y-44707200D01*
X254245238Y-44707200D02*
X254102381Y-44754819D01*
X254102381Y-44754819D02*
X254007143Y-44754819D01*
X255388095Y-44754819D02*
X254816667Y-44754819D01*
X255102381Y-44754819D02*
X255102381Y-43754819D01*
X255102381Y-43754819D02*
X255007143Y-43897676D01*
X255007143Y-43897676D02*
X254911905Y-43992914D01*
X254911905Y-43992914D02*
X254816667Y-44040533D01*
X255816667Y-44659580D02*
X255864286Y-44707200D01*
X255864286Y-44707200D02*
X255816667Y-44754819D01*
X255816667Y-44754819D02*
X255769048Y-44707200D01*
X255769048Y-44707200D02*
X255816667Y-44659580D01*
X255816667Y-44659580D02*
X255816667Y-44754819D01*
X256816666Y-44754819D02*
X256245238Y-44754819D01*
X256530952Y-44754819D02*
X256530952Y-43754819D01*
X256530952Y-43754819D02*
X256435714Y-43897676D01*
X256435714Y-43897676D02*
X256340476Y-43992914D01*
X256340476Y-43992914D02*
X256245238Y-44040533D01*
X257245238Y-44659580D02*
X257292857Y-44707200D01*
X257292857Y-44707200D02*
X257245238Y-44754819D01*
X257245238Y-44754819D02*
X257197619Y-44707200D01*
X257197619Y-44707200D02*
X257245238Y-44659580D01*
X257245238Y-44659580D02*
X257245238Y-44754819D01*
X258245237Y-44754819D02*
X257673809Y-44754819D01*
X257959523Y-44754819D02*
X257959523Y-43754819D01*
X257959523Y-43754819D02*
X257864285Y-43897676D01*
X257864285Y-43897676D02*
X257769047Y-43992914D01*
X257769047Y-43992914D02*
X257673809Y-44040533D01*
X258881009Y-51114286D02*
X258928628Y-50971429D01*
X258928628Y-50971429D02*
X258976247Y-50923810D01*
X258976247Y-50923810D02*
X259071485Y-50876191D01*
X259071485Y-50876191D02*
X259214342Y-50876191D01*
X259214342Y-50876191D02*
X259309580Y-50923810D01*
X259309580Y-50923810D02*
X259357200Y-50971429D01*
X259357200Y-50971429D02*
X259404819Y-51066667D01*
X259404819Y-51066667D02*
X259404819Y-51447619D01*
X259404819Y-51447619D02*
X258404819Y-51447619D01*
X258404819Y-51447619D02*
X258404819Y-51114286D01*
X258404819Y-51114286D02*
X258452438Y-51019048D01*
X258452438Y-51019048D02*
X258500057Y-50971429D01*
X258500057Y-50971429D02*
X258595295Y-50923810D01*
X258595295Y-50923810D02*
X258690533Y-50923810D01*
X258690533Y-50923810D02*
X258785771Y-50971429D01*
X258785771Y-50971429D02*
X258833390Y-51019048D01*
X258833390Y-51019048D02*
X258881009Y-51114286D01*
X258881009Y-51114286D02*
X258881009Y-51447619D01*
X258738152Y-50019048D02*
X259404819Y-50019048D01*
X258738152Y-50447619D02*
X259261961Y-50447619D01*
X259261961Y-50447619D02*
X259357200Y-50400000D01*
X259357200Y-50400000D02*
X259404819Y-50304762D01*
X259404819Y-50304762D02*
X259404819Y-50161905D01*
X259404819Y-50161905D02*
X259357200Y-50066667D01*
X259357200Y-50066667D02*
X259309580Y-50019048D01*
X258738152Y-49685714D02*
X258738152Y-49304762D01*
X258404819Y-49542857D02*
X259261961Y-49542857D01*
X259261961Y-49542857D02*
X259357200Y-49495238D01*
X259357200Y-49495238D02*
X259404819Y-49400000D01*
X259404819Y-49400000D02*
X259404819Y-49304762D01*
X258738152Y-49114285D02*
X258738152Y-48733333D01*
X258404819Y-48971428D02*
X259261961Y-48971428D01*
X259261961Y-48971428D02*
X259357200Y-48923809D01*
X259357200Y-48923809D02*
X259404819Y-48828571D01*
X259404819Y-48828571D02*
X259404819Y-48733333D01*
X259404819Y-48257142D02*
X259357200Y-48352380D01*
X259357200Y-48352380D02*
X259309580Y-48399999D01*
X259309580Y-48399999D02*
X259214342Y-48447618D01*
X259214342Y-48447618D02*
X258928628Y-48447618D01*
X258928628Y-48447618D02*
X258833390Y-48399999D01*
X258833390Y-48399999D02*
X258785771Y-48352380D01*
X258785771Y-48352380D02*
X258738152Y-48257142D01*
X258738152Y-48257142D02*
X258738152Y-48114285D01*
X258738152Y-48114285D02*
X258785771Y-48019047D01*
X258785771Y-48019047D02*
X258833390Y-47971428D01*
X258833390Y-47971428D02*
X258928628Y-47923809D01*
X258928628Y-47923809D02*
X259214342Y-47923809D01*
X259214342Y-47923809D02*
X259309580Y-47971428D01*
X259309580Y-47971428D02*
X259357200Y-48019047D01*
X259357200Y-48019047D02*
X259404819Y-48114285D01*
X259404819Y-48114285D02*
X259404819Y-48257142D01*
X258738152Y-47495237D02*
X259404819Y-47495237D01*
X258833390Y-47495237D02*
X258785771Y-47447618D01*
X258785771Y-47447618D02*
X258738152Y-47352380D01*
X258738152Y-47352380D02*
X258738152Y-47209523D01*
X258738152Y-47209523D02*
X258785771Y-47114285D01*
X258785771Y-47114285D02*
X258881009Y-47066666D01*
X258881009Y-47066666D02*
X259404819Y-47066666D01*
X259404819Y-45304761D02*
X259404819Y-45876189D01*
X259404819Y-45590475D02*
X258404819Y-45590475D01*
X258404819Y-45590475D02*
X258547676Y-45685713D01*
X258547676Y-45685713D02*
X258642914Y-45780951D01*
X258642914Y-45780951D02*
X258690533Y-45876189D01*
X211888095Y-43754819D02*
X211888095Y-44469104D01*
X211888095Y-44469104D02*
X211840476Y-44611961D01*
X211840476Y-44611961D02*
X211745238Y-44707200D01*
X211745238Y-44707200D02*
X211602381Y-44754819D01*
X211602381Y-44754819D02*
X211507143Y-44754819D01*
X212888095Y-44754819D02*
X212316667Y-44754819D01*
X212602381Y-44754819D02*
X212602381Y-43754819D01*
X212602381Y-43754819D02*
X212507143Y-43897676D01*
X212507143Y-43897676D02*
X212411905Y-43992914D01*
X212411905Y-43992914D02*
X212316667Y-44040533D01*
X213316667Y-44659580D02*
X213364286Y-44707200D01*
X213364286Y-44707200D02*
X213316667Y-44754819D01*
X213316667Y-44754819D02*
X213269048Y-44707200D01*
X213269048Y-44707200D02*
X213316667Y-44659580D01*
X213316667Y-44659580D02*
X213316667Y-44754819D01*
X214316666Y-44754819D02*
X213745238Y-44754819D01*
X214030952Y-44754819D02*
X214030952Y-43754819D01*
X214030952Y-43754819D02*
X213935714Y-43897676D01*
X213935714Y-43897676D02*
X213840476Y-43992914D01*
X213840476Y-43992914D02*
X213745238Y-44040533D01*
X214745238Y-44659580D02*
X214792857Y-44707200D01*
X214792857Y-44707200D02*
X214745238Y-44754819D01*
X214745238Y-44754819D02*
X214697619Y-44707200D01*
X214697619Y-44707200D02*
X214745238Y-44659580D01*
X214745238Y-44659580D02*
X214745238Y-44754819D01*
X215173809Y-43850057D02*
X215221428Y-43802438D01*
X215221428Y-43802438D02*
X215316666Y-43754819D01*
X215316666Y-43754819D02*
X215554761Y-43754819D01*
X215554761Y-43754819D02*
X215649999Y-43802438D01*
X215649999Y-43802438D02*
X215697618Y-43850057D01*
X215697618Y-43850057D02*
X215745237Y-43945295D01*
X215745237Y-43945295D02*
X215745237Y-44040533D01*
X215745237Y-44040533D02*
X215697618Y-44183390D01*
X215697618Y-44183390D02*
X215126190Y-44754819D01*
X215126190Y-44754819D02*
X215745237Y-44754819D01*
X210781009Y-51114286D02*
X210828628Y-50971429D01*
X210828628Y-50971429D02*
X210876247Y-50923810D01*
X210876247Y-50923810D02*
X210971485Y-50876191D01*
X210971485Y-50876191D02*
X211114342Y-50876191D01*
X211114342Y-50876191D02*
X211209580Y-50923810D01*
X211209580Y-50923810D02*
X211257200Y-50971429D01*
X211257200Y-50971429D02*
X211304819Y-51066667D01*
X211304819Y-51066667D02*
X211304819Y-51447619D01*
X211304819Y-51447619D02*
X210304819Y-51447619D01*
X210304819Y-51447619D02*
X210304819Y-51114286D01*
X210304819Y-51114286D02*
X210352438Y-51019048D01*
X210352438Y-51019048D02*
X210400057Y-50971429D01*
X210400057Y-50971429D02*
X210495295Y-50923810D01*
X210495295Y-50923810D02*
X210590533Y-50923810D01*
X210590533Y-50923810D02*
X210685771Y-50971429D01*
X210685771Y-50971429D02*
X210733390Y-51019048D01*
X210733390Y-51019048D02*
X210781009Y-51114286D01*
X210781009Y-51114286D02*
X210781009Y-51447619D01*
X210638152Y-50019048D02*
X211304819Y-50019048D01*
X210638152Y-50447619D02*
X211161961Y-50447619D01*
X211161961Y-50447619D02*
X211257200Y-50400000D01*
X211257200Y-50400000D02*
X211304819Y-50304762D01*
X211304819Y-50304762D02*
X211304819Y-50161905D01*
X211304819Y-50161905D02*
X211257200Y-50066667D01*
X211257200Y-50066667D02*
X211209580Y-50019048D01*
X210638152Y-49685714D02*
X210638152Y-49304762D01*
X210304819Y-49542857D02*
X211161961Y-49542857D01*
X211161961Y-49542857D02*
X211257200Y-49495238D01*
X211257200Y-49495238D02*
X211304819Y-49400000D01*
X211304819Y-49400000D02*
X211304819Y-49304762D01*
X210638152Y-49114285D02*
X210638152Y-48733333D01*
X210304819Y-48971428D02*
X211161961Y-48971428D01*
X211161961Y-48971428D02*
X211257200Y-48923809D01*
X211257200Y-48923809D02*
X211304819Y-48828571D01*
X211304819Y-48828571D02*
X211304819Y-48733333D01*
X211304819Y-48257142D02*
X211257200Y-48352380D01*
X211257200Y-48352380D02*
X211209580Y-48399999D01*
X211209580Y-48399999D02*
X211114342Y-48447618D01*
X211114342Y-48447618D02*
X210828628Y-48447618D01*
X210828628Y-48447618D02*
X210733390Y-48399999D01*
X210733390Y-48399999D02*
X210685771Y-48352380D01*
X210685771Y-48352380D02*
X210638152Y-48257142D01*
X210638152Y-48257142D02*
X210638152Y-48114285D01*
X210638152Y-48114285D02*
X210685771Y-48019047D01*
X210685771Y-48019047D02*
X210733390Y-47971428D01*
X210733390Y-47971428D02*
X210828628Y-47923809D01*
X210828628Y-47923809D02*
X211114342Y-47923809D01*
X211114342Y-47923809D02*
X211209580Y-47971428D01*
X211209580Y-47971428D02*
X211257200Y-48019047D01*
X211257200Y-48019047D02*
X211304819Y-48114285D01*
X211304819Y-48114285D02*
X211304819Y-48257142D01*
X210638152Y-47495237D02*
X211304819Y-47495237D01*
X210733390Y-47495237D02*
X210685771Y-47447618D01*
X210685771Y-47447618D02*
X210638152Y-47352380D01*
X210638152Y-47352380D02*
X210638152Y-47209523D01*
X210638152Y-47209523D02*
X210685771Y-47114285D01*
X210685771Y-47114285D02*
X210781009Y-47066666D01*
X210781009Y-47066666D02*
X211304819Y-47066666D01*
X210400057Y-45876189D02*
X210352438Y-45828570D01*
X210352438Y-45828570D02*
X210304819Y-45733332D01*
X210304819Y-45733332D02*
X210304819Y-45495237D01*
X210304819Y-45495237D02*
X210352438Y-45399999D01*
X210352438Y-45399999D02*
X210400057Y-45352380D01*
X210400057Y-45352380D02*
X210495295Y-45304761D01*
X210495295Y-45304761D02*
X210590533Y-45304761D01*
X210590533Y-45304761D02*
X210733390Y-45352380D01*
X210733390Y-45352380D02*
X211304819Y-45923808D01*
X211304819Y-45923808D02*
X211304819Y-45304761D01*
X247904819Y-60533333D02*
X248619104Y-60533333D01*
X248619104Y-60533333D02*
X248761961Y-60580952D01*
X248761961Y-60580952D02*
X248857200Y-60676190D01*
X248857200Y-60676190D02*
X248904819Y-60819047D01*
X248904819Y-60819047D02*
X248904819Y-60914285D01*
X248238152Y-59628571D02*
X248904819Y-59628571D01*
X247857200Y-59866666D02*
X248571485Y-60104761D01*
X248571485Y-60104761D02*
X248571485Y-59485714D01*
X211888095Y-63354819D02*
X211888095Y-64069104D01*
X211888095Y-64069104D02*
X211840476Y-64211961D01*
X211840476Y-64211961D02*
X211745238Y-64307200D01*
X211745238Y-64307200D02*
X211602381Y-64354819D01*
X211602381Y-64354819D02*
X211507143Y-64354819D01*
X212888095Y-64354819D02*
X212316667Y-64354819D01*
X212602381Y-64354819D02*
X212602381Y-63354819D01*
X212602381Y-63354819D02*
X212507143Y-63497676D01*
X212507143Y-63497676D02*
X212411905Y-63592914D01*
X212411905Y-63592914D02*
X212316667Y-63640533D01*
X213316667Y-64259580D02*
X213364286Y-64307200D01*
X213364286Y-64307200D02*
X213316667Y-64354819D01*
X213316667Y-64354819D02*
X213269048Y-64307200D01*
X213269048Y-64307200D02*
X213316667Y-64259580D01*
X213316667Y-64259580D02*
X213316667Y-64354819D01*
X213745238Y-63450057D02*
X213792857Y-63402438D01*
X213792857Y-63402438D02*
X213888095Y-63354819D01*
X213888095Y-63354819D02*
X214126190Y-63354819D01*
X214126190Y-63354819D02*
X214221428Y-63402438D01*
X214221428Y-63402438D02*
X214269047Y-63450057D01*
X214269047Y-63450057D02*
X214316666Y-63545295D01*
X214316666Y-63545295D02*
X214316666Y-63640533D01*
X214316666Y-63640533D02*
X214269047Y-63783390D01*
X214269047Y-63783390D02*
X213697619Y-64354819D01*
X213697619Y-64354819D02*
X214316666Y-64354819D01*
X214745238Y-64259580D02*
X214792857Y-64307200D01*
X214792857Y-64307200D02*
X214745238Y-64354819D01*
X214745238Y-64354819D02*
X214697619Y-64307200D01*
X214697619Y-64307200D02*
X214745238Y-64259580D01*
X214745238Y-64259580D02*
X214745238Y-64354819D01*
X215173809Y-63450057D02*
X215221428Y-63402438D01*
X215221428Y-63402438D02*
X215316666Y-63354819D01*
X215316666Y-63354819D02*
X215554761Y-63354819D01*
X215554761Y-63354819D02*
X215649999Y-63402438D01*
X215649999Y-63402438D02*
X215697618Y-63450057D01*
X215697618Y-63450057D02*
X215745237Y-63545295D01*
X215745237Y-63545295D02*
X215745237Y-63640533D01*
X215745237Y-63640533D02*
X215697618Y-63783390D01*
X215697618Y-63783390D02*
X215126190Y-64354819D01*
X215126190Y-64354819D02*
X215745237Y-64354819D01*
X210781009Y-70514286D02*
X210828628Y-70371429D01*
X210828628Y-70371429D02*
X210876247Y-70323810D01*
X210876247Y-70323810D02*
X210971485Y-70276191D01*
X210971485Y-70276191D02*
X211114342Y-70276191D01*
X211114342Y-70276191D02*
X211209580Y-70323810D01*
X211209580Y-70323810D02*
X211257200Y-70371429D01*
X211257200Y-70371429D02*
X211304819Y-70466667D01*
X211304819Y-70466667D02*
X211304819Y-70847619D01*
X211304819Y-70847619D02*
X210304819Y-70847619D01*
X210304819Y-70847619D02*
X210304819Y-70514286D01*
X210304819Y-70514286D02*
X210352438Y-70419048D01*
X210352438Y-70419048D02*
X210400057Y-70371429D01*
X210400057Y-70371429D02*
X210495295Y-70323810D01*
X210495295Y-70323810D02*
X210590533Y-70323810D01*
X210590533Y-70323810D02*
X210685771Y-70371429D01*
X210685771Y-70371429D02*
X210733390Y-70419048D01*
X210733390Y-70419048D02*
X210781009Y-70514286D01*
X210781009Y-70514286D02*
X210781009Y-70847619D01*
X210638152Y-69419048D02*
X211304819Y-69419048D01*
X210638152Y-69847619D02*
X211161961Y-69847619D01*
X211161961Y-69847619D02*
X211257200Y-69800000D01*
X211257200Y-69800000D02*
X211304819Y-69704762D01*
X211304819Y-69704762D02*
X211304819Y-69561905D01*
X211304819Y-69561905D02*
X211257200Y-69466667D01*
X211257200Y-69466667D02*
X211209580Y-69419048D01*
X210638152Y-69085714D02*
X210638152Y-68704762D01*
X210304819Y-68942857D02*
X211161961Y-68942857D01*
X211161961Y-68942857D02*
X211257200Y-68895238D01*
X211257200Y-68895238D02*
X211304819Y-68800000D01*
X211304819Y-68800000D02*
X211304819Y-68704762D01*
X210638152Y-68514285D02*
X210638152Y-68133333D01*
X210304819Y-68371428D02*
X211161961Y-68371428D01*
X211161961Y-68371428D02*
X211257200Y-68323809D01*
X211257200Y-68323809D02*
X211304819Y-68228571D01*
X211304819Y-68228571D02*
X211304819Y-68133333D01*
X211304819Y-67657142D02*
X211257200Y-67752380D01*
X211257200Y-67752380D02*
X211209580Y-67799999D01*
X211209580Y-67799999D02*
X211114342Y-67847618D01*
X211114342Y-67847618D02*
X210828628Y-67847618D01*
X210828628Y-67847618D02*
X210733390Y-67799999D01*
X210733390Y-67799999D02*
X210685771Y-67752380D01*
X210685771Y-67752380D02*
X210638152Y-67657142D01*
X210638152Y-67657142D02*
X210638152Y-67514285D01*
X210638152Y-67514285D02*
X210685771Y-67419047D01*
X210685771Y-67419047D02*
X210733390Y-67371428D01*
X210733390Y-67371428D02*
X210828628Y-67323809D01*
X210828628Y-67323809D02*
X211114342Y-67323809D01*
X211114342Y-67323809D02*
X211209580Y-67371428D01*
X211209580Y-67371428D02*
X211257200Y-67419047D01*
X211257200Y-67419047D02*
X211304819Y-67514285D01*
X211304819Y-67514285D02*
X211304819Y-67657142D01*
X210638152Y-66895237D02*
X211304819Y-66895237D01*
X210733390Y-66895237D02*
X210685771Y-66847618D01*
X210685771Y-66847618D02*
X210638152Y-66752380D01*
X210638152Y-66752380D02*
X210638152Y-66609523D01*
X210638152Y-66609523D02*
X210685771Y-66514285D01*
X210685771Y-66514285D02*
X210781009Y-66466666D01*
X210781009Y-66466666D02*
X211304819Y-66466666D01*
X210638152Y-64799999D02*
X211304819Y-64799999D01*
X210257200Y-65038094D02*
X210971485Y-65276189D01*
X210971485Y-65276189D02*
X210971485Y-64657142D01*
X248916666Y-84854819D02*
X248916666Y-85569104D01*
X248916666Y-85569104D02*
X248869047Y-85711961D01*
X248869047Y-85711961D02*
X248773809Y-85807200D01*
X248773809Y-85807200D02*
X248630952Y-85854819D01*
X248630952Y-85854819D02*
X248535714Y-85854819D01*
X249297619Y-84854819D02*
X249916666Y-84854819D01*
X249916666Y-84854819D02*
X249583333Y-85235771D01*
X249583333Y-85235771D02*
X249726190Y-85235771D01*
X249726190Y-85235771D02*
X249821428Y-85283390D01*
X249821428Y-85283390D02*
X249869047Y-85331009D01*
X249869047Y-85331009D02*
X249916666Y-85426247D01*
X249916666Y-85426247D02*
X249916666Y-85664342D01*
X249916666Y-85664342D02*
X249869047Y-85759580D01*
X249869047Y-85759580D02*
X249821428Y-85807200D01*
X249821428Y-85807200D02*
X249726190Y-85854819D01*
X249726190Y-85854819D02*
X249440476Y-85854819D01*
X249440476Y-85854819D02*
X249345238Y-85807200D01*
X249345238Y-85807200D02*
X249297619Y-85759580D01*
X239150000Y-78069104D02*
X239626190Y-78069104D01*
X239054762Y-78354819D02*
X239388095Y-77354819D01*
X239388095Y-77354819D02*
X239721428Y-78354819D01*
X239911905Y-77354819D02*
X240245238Y-78354819D01*
X240245238Y-78354819D02*
X240578571Y-77354819D01*
X241483333Y-78354819D02*
X241150000Y-77878628D01*
X240911905Y-78354819D02*
X240911905Y-77354819D01*
X240911905Y-77354819D02*
X241292857Y-77354819D01*
X241292857Y-77354819D02*
X241388095Y-77402438D01*
X241388095Y-77402438D02*
X241435714Y-77450057D01*
X241435714Y-77450057D02*
X241483333Y-77545295D01*
X241483333Y-77545295D02*
X241483333Y-77688152D01*
X241483333Y-77688152D02*
X241435714Y-77783390D01*
X241435714Y-77783390D02*
X241388095Y-77831009D01*
X241388095Y-77831009D02*
X241292857Y-77878628D01*
X241292857Y-77878628D02*
X240911905Y-77878628D01*
X241911905Y-77973866D02*
X242673810Y-77973866D01*
X243150000Y-78354819D02*
X243150000Y-77354819D01*
X243578571Y-78307200D02*
X243721428Y-78354819D01*
X243721428Y-78354819D02*
X243959523Y-78354819D01*
X243959523Y-78354819D02*
X244054761Y-78307200D01*
X244054761Y-78307200D02*
X244102380Y-78259580D01*
X244102380Y-78259580D02*
X244149999Y-78164342D01*
X244149999Y-78164342D02*
X244149999Y-78069104D01*
X244149999Y-78069104D02*
X244102380Y-77973866D01*
X244102380Y-77973866D02*
X244054761Y-77926247D01*
X244054761Y-77926247D02*
X243959523Y-77878628D01*
X243959523Y-77878628D02*
X243769047Y-77831009D01*
X243769047Y-77831009D02*
X243673809Y-77783390D01*
X243673809Y-77783390D02*
X243626190Y-77735771D01*
X243626190Y-77735771D02*
X243578571Y-77640533D01*
X243578571Y-77640533D02*
X243578571Y-77545295D01*
X243578571Y-77545295D02*
X243626190Y-77450057D01*
X243626190Y-77450057D02*
X243673809Y-77402438D01*
X243673809Y-77402438D02*
X243769047Y-77354819D01*
X243769047Y-77354819D02*
X244007142Y-77354819D01*
X244007142Y-77354819D02*
X244149999Y-77402438D01*
X244578571Y-78354819D02*
X244578571Y-77354819D01*
X244578571Y-77354819D02*
X244959523Y-77354819D01*
X244959523Y-77354819D02*
X245054761Y-77402438D01*
X245054761Y-77402438D02*
X245102380Y-77450057D01*
X245102380Y-77450057D02*
X245149999Y-77545295D01*
X245149999Y-77545295D02*
X245149999Y-77688152D01*
X245149999Y-77688152D02*
X245102380Y-77783390D01*
X245102380Y-77783390D02*
X245054761Y-77831009D01*
X245054761Y-77831009D02*
X244959523Y-77878628D01*
X244959523Y-77878628D02*
X244578571Y-77878628D01*
X254488095Y-77354819D02*
X254488095Y-78069104D01*
X254488095Y-78069104D02*
X254440476Y-78211961D01*
X254440476Y-78211961D02*
X254345238Y-78307200D01*
X254345238Y-78307200D02*
X254202381Y-78354819D01*
X254202381Y-78354819D02*
X254107143Y-78354819D01*
X255488095Y-78354819D02*
X254916667Y-78354819D01*
X255202381Y-78354819D02*
X255202381Y-77354819D01*
X255202381Y-77354819D02*
X255107143Y-77497676D01*
X255107143Y-77497676D02*
X255011905Y-77592914D01*
X255011905Y-77592914D02*
X254916667Y-77640533D01*
X255916667Y-78259580D02*
X255964286Y-78307200D01*
X255964286Y-78307200D02*
X255916667Y-78354819D01*
X255916667Y-78354819D02*
X255869048Y-78307200D01*
X255869048Y-78307200D02*
X255916667Y-78259580D01*
X255916667Y-78259580D02*
X255916667Y-78354819D01*
X256345238Y-77450057D02*
X256392857Y-77402438D01*
X256392857Y-77402438D02*
X256488095Y-77354819D01*
X256488095Y-77354819D02*
X256726190Y-77354819D01*
X256726190Y-77354819D02*
X256821428Y-77402438D01*
X256821428Y-77402438D02*
X256869047Y-77450057D01*
X256869047Y-77450057D02*
X256916666Y-77545295D01*
X256916666Y-77545295D02*
X256916666Y-77640533D01*
X256916666Y-77640533D02*
X256869047Y-77783390D01*
X256869047Y-77783390D02*
X256297619Y-78354819D01*
X256297619Y-78354819D02*
X256916666Y-78354819D01*
X257345238Y-78259580D02*
X257392857Y-78307200D01*
X257392857Y-78307200D02*
X257345238Y-78354819D01*
X257345238Y-78354819D02*
X257297619Y-78307200D01*
X257297619Y-78307200D02*
X257345238Y-78259580D01*
X257345238Y-78259580D02*
X257345238Y-78354819D01*
X258345237Y-78354819D02*
X257773809Y-78354819D01*
X258059523Y-78354819D02*
X258059523Y-77354819D01*
X258059523Y-77354819D02*
X257964285Y-77497676D01*
X257964285Y-77497676D02*
X257869047Y-77592914D01*
X257869047Y-77592914D02*
X257773809Y-77640533D01*
X258981009Y-84614286D02*
X259028628Y-84471429D01*
X259028628Y-84471429D02*
X259076247Y-84423810D01*
X259076247Y-84423810D02*
X259171485Y-84376191D01*
X259171485Y-84376191D02*
X259314342Y-84376191D01*
X259314342Y-84376191D02*
X259409580Y-84423810D01*
X259409580Y-84423810D02*
X259457200Y-84471429D01*
X259457200Y-84471429D02*
X259504819Y-84566667D01*
X259504819Y-84566667D02*
X259504819Y-84947619D01*
X259504819Y-84947619D02*
X258504819Y-84947619D01*
X258504819Y-84947619D02*
X258504819Y-84614286D01*
X258504819Y-84614286D02*
X258552438Y-84519048D01*
X258552438Y-84519048D02*
X258600057Y-84471429D01*
X258600057Y-84471429D02*
X258695295Y-84423810D01*
X258695295Y-84423810D02*
X258790533Y-84423810D01*
X258790533Y-84423810D02*
X258885771Y-84471429D01*
X258885771Y-84471429D02*
X258933390Y-84519048D01*
X258933390Y-84519048D02*
X258981009Y-84614286D01*
X258981009Y-84614286D02*
X258981009Y-84947619D01*
X258838152Y-83519048D02*
X259504819Y-83519048D01*
X258838152Y-83947619D02*
X259361961Y-83947619D01*
X259361961Y-83947619D02*
X259457200Y-83900000D01*
X259457200Y-83900000D02*
X259504819Y-83804762D01*
X259504819Y-83804762D02*
X259504819Y-83661905D01*
X259504819Y-83661905D02*
X259457200Y-83566667D01*
X259457200Y-83566667D02*
X259409580Y-83519048D01*
X258838152Y-83185714D02*
X258838152Y-82804762D01*
X258504819Y-83042857D02*
X259361961Y-83042857D01*
X259361961Y-83042857D02*
X259457200Y-82995238D01*
X259457200Y-82995238D02*
X259504819Y-82900000D01*
X259504819Y-82900000D02*
X259504819Y-82804762D01*
X258838152Y-82614285D02*
X258838152Y-82233333D01*
X258504819Y-82471428D02*
X259361961Y-82471428D01*
X259361961Y-82471428D02*
X259457200Y-82423809D01*
X259457200Y-82423809D02*
X259504819Y-82328571D01*
X259504819Y-82328571D02*
X259504819Y-82233333D01*
X259504819Y-81757142D02*
X259457200Y-81852380D01*
X259457200Y-81852380D02*
X259409580Y-81899999D01*
X259409580Y-81899999D02*
X259314342Y-81947618D01*
X259314342Y-81947618D02*
X259028628Y-81947618D01*
X259028628Y-81947618D02*
X258933390Y-81899999D01*
X258933390Y-81899999D02*
X258885771Y-81852380D01*
X258885771Y-81852380D02*
X258838152Y-81757142D01*
X258838152Y-81757142D02*
X258838152Y-81614285D01*
X258838152Y-81614285D02*
X258885771Y-81519047D01*
X258885771Y-81519047D02*
X258933390Y-81471428D01*
X258933390Y-81471428D02*
X259028628Y-81423809D01*
X259028628Y-81423809D02*
X259314342Y-81423809D01*
X259314342Y-81423809D02*
X259409580Y-81471428D01*
X259409580Y-81471428D02*
X259457200Y-81519047D01*
X259457200Y-81519047D02*
X259504819Y-81614285D01*
X259504819Y-81614285D02*
X259504819Y-81757142D01*
X258838152Y-80995237D02*
X259504819Y-80995237D01*
X258933390Y-80995237D02*
X258885771Y-80947618D01*
X258885771Y-80947618D02*
X258838152Y-80852380D01*
X258838152Y-80852380D02*
X258838152Y-80709523D01*
X258838152Y-80709523D02*
X258885771Y-80614285D01*
X258885771Y-80614285D02*
X258981009Y-80566666D01*
X258981009Y-80566666D02*
X259504819Y-80566666D01*
X258504819Y-79423808D02*
X258504819Y-78804761D01*
X258504819Y-78804761D02*
X258885771Y-79138094D01*
X258885771Y-79138094D02*
X258885771Y-78995237D01*
X258885771Y-78995237D02*
X258933390Y-78899999D01*
X258933390Y-78899999D02*
X258981009Y-78852380D01*
X258981009Y-78852380D02*
X259076247Y-78804761D01*
X259076247Y-78804761D02*
X259314342Y-78804761D01*
X259314342Y-78804761D02*
X259409580Y-78852380D01*
X259409580Y-78852380D02*
X259457200Y-78899999D01*
X259457200Y-78899999D02*
X259504819Y-78995237D01*
X259504819Y-78995237D02*
X259504819Y-79280951D01*
X259504819Y-79280951D02*
X259457200Y-79376189D01*
X259457200Y-79376189D02*
X259409580Y-79423808D01*
X245391667Y-69707200D02*
X245534524Y-69754819D01*
X245534524Y-69754819D02*
X245772619Y-69754819D01*
X245772619Y-69754819D02*
X245867857Y-69707200D01*
X245867857Y-69707200D02*
X245915476Y-69659580D01*
X245915476Y-69659580D02*
X245963095Y-69564342D01*
X245963095Y-69564342D02*
X245963095Y-69469104D01*
X245963095Y-69469104D02*
X245915476Y-69373866D01*
X245915476Y-69373866D02*
X245867857Y-69326247D01*
X245867857Y-69326247D02*
X245772619Y-69278628D01*
X245772619Y-69278628D02*
X245582143Y-69231009D01*
X245582143Y-69231009D02*
X245486905Y-69183390D01*
X245486905Y-69183390D02*
X245439286Y-69135771D01*
X245439286Y-69135771D02*
X245391667Y-69040533D01*
X245391667Y-69040533D02*
X245391667Y-68945295D01*
X245391667Y-68945295D02*
X245439286Y-68850057D01*
X245439286Y-68850057D02*
X245486905Y-68802438D01*
X245486905Y-68802438D02*
X245582143Y-68754819D01*
X245582143Y-68754819D02*
X245820238Y-68754819D01*
X245820238Y-68754819D02*
X245963095Y-68802438D01*
X246296429Y-68754819D02*
X246534524Y-69754819D01*
X246534524Y-69754819D02*
X246725000Y-69040533D01*
X246725000Y-69040533D02*
X246915476Y-69754819D01*
X246915476Y-69754819D02*
X247153572Y-68754819D01*
X248058333Y-69754819D02*
X247486905Y-69754819D01*
X247772619Y-69754819D02*
X247772619Y-68754819D01*
X247772619Y-68754819D02*
X247677381Y-68897676D01*
X247677381Y-68897676D02*
X247582143Y-68992914D01*
X247582143Y-68992914D02*
X247486905Y-69040533D01*
X225128628Y-68176190D02*
X225604819Y-68176190D01*
X224604819Y-68509523D02*
X225128628Y-68176190D01*
X225128628Y-68176190D02*
X224604819Y-67842857D01*
X225604819Y-66985714D02*
X225604819Y-67557142D01*
X225604819Y-67271428D02*
X224604819Y-67271428D01*
X224604819Y-67271428D02*
X224747676Y-67366666D01*
X224747676Y-67366666D02*
X224842914Y-67461904D01*
X224842914Y-67461904D02*
X224890533Y-67557142D01*
X226368095Y-52234819D02*
X226368095Y-53044342D01*
X226368095Y-53044342D02*
X226415714Y-53139580D01*
X226415714Y-53139580D02*
X226463333Y-53187200D01*
X226463333Y-53187200D02*
X226558571Y-53234819D01*
X226558571Y-53234819D02*
X226749047Y-53234819D01*
X226749047Y-53234819D02*
X226844285Y-53187200D01*
X226844285Y-53187200D02*
X226891904Y-53139580D01*
X226891904Y-53139580D02*
X226939523Y-53044342D01*
X226939523Y-53044342D02*
X226939523Y-52234819D01*
X227939523Y-53234819D02*
X227368095Y-53234819D01*
X227653809Y-53234819D02*
X227653809Y-52234819D01*
X227653809Y-52234819D02*
X227558571Y-52377676D01*
X227558571Y-52377676D02*
X227463333Y-52472914D01*
X227463333Y-52472914D02*
X227368095Y-52520533D01*
X211988095Y-86054819D02*
X211988095Y-86769104D01*
X211988095Y-86769104D02*
X211940476Y-86911961D01*
X211940476Y-86911961D02*
X211845238Y-87007200D01*
X211845238Y-87007200D02*
X211702381Y-87054819D01*
X211702381Y-87054819D02*
X211607143Y-87054819D01*
X212988095Y-87054819D02*
X212416667Y-87054819D01*
X212702381Y-87054819D02*
X212702381Y-86054819D01*
X212702381Y-86054819D02*
X212607143Y-86197676D01*
X212607143Y-86197676D02*
X212511905Y-86292914D01*
X212511905Y-86292914D02*
X212416667Y-86340533D01*
X213416667Y-86959580D02*
X213464286Y-87007200D01*
X213464286Y-87007200D02*
X213416667Y-87054819D01*
X213416667Y-87054819D02*
X213369048Y-87007200D01*
X213369048Y-87007200D02*
X213416667Y-86959580D01*
X213416667Y-86959580D02*
X213416667Y-87054819D01*
X214416666Y-87054819D02*
X213845238Y-87054819D01*
X214130952Y-87054819D02*
X214130952Y-86054819D01*
X214130952Y-86054819D02*
X214035714Y-86197676D01*
X214035714Y-86197676D02*
X213940476Y-86292914D01*
X213940476Y-86292914D02*
X213845238Y-86340533D01*
X214845238Y-86959580D02*
X214892857Y-87007200D01*
X214892857Y-87007200D02*
X214845238Y-87054819D01*
X214845238Y-87054819D02*
X214797619Y-87007200D01*
X214797619Y-87007200D02*
X214845238Y-86959580D01*
X214845238Y-86959580D02*
X214845238Y-87054819D01*
X215749999Y-86388152D02*
X215749999Y-87054819D01*
X215511904Y-86007200D02*
X215273809Y-86721485D01*
X215273809Y-86721485D02*
X215892856Y-86721485D01*
X210761009Y-93284286D02*
X210808628Y-93141429D01*
X210808628Y-93141429D02*
X210856247Y-93093810D01*
X210856247Y-93093810D02*
X210951485Y-93046191D01*
X210951485Y-93046191D02*
X211094342Y-93046191D01*
X211094342Y-93046191D02*
X211189580Y-93093810D01*
X211189580Y-93093810D02*
X211237200Y-93141429D01*
X211237200Y-93141429D02*
X211284819Y-93236667D01*
X211284819Y-93236667D02*
X211284819Y-93617619D01*
X211284819Y-93617619D02*
X210284819Y-93617619D01*
X210284819Y-93617619D02*
X210284819Y-93284286D01*
X210284819Y-93284286D02*
X210332438Y-93189048D01*
X210332438Y-93189048D02*
X210380057Y-93141429D01*
X210380057Y-93141429D02*
X210475295Y-93093810D01*
X210475295Y-93093810D02*
X210570533Y-93093810D01*
X210570533Y-93093810D02*
X210665771Y-93141429D01*
X210665771Y-93141429D02*
X210713390Y-93189048D01*
X210713390Y-93189048D02*
X210761009Y-93284286D01*
X210761009Y-93284286D02*
X210761009Y-93617619D01*
X210618152Y-92189048D02*
X211284819Y-92189048D01*
X210618152Y-92617619D02*
X211141961Y-92617619D01*
X211141961Y-92617619D02*
X211237200Y-92570000D01*
X211237200Y-92570000D02*
X211284819Y-92474762D01*
X211284819Y-92474762D02*
X211284819Y-92331905D01*
X211284819Y-92331905D02*
X211237200Y-92236667D01*
X211237200Y-92236667D02*
X211189580Y-92189048D01*
X210618152Y-91855714D02*
X210618152Y-91474762D01*
X210284819Y-91712857D02*
X211141961Y-91712857D01*
X211141961Y-91712857D02*
X211237200Y-91665238D01*
X211237200Y-91665238D02*
X211284819Y-91570000D01*
X211284819Y-91570000D02*
X211284819Y-91474762D01*
X210618152Y-91284285D02*
X210618152Y-90903333D01*
X210284819Y-91141428D02*
X211141961Y-91141428D01*
X211141961Y-91141428D02*
X211237200Y-91093809D01*
X211237200Y-91093809D02*
X211284819Y-90998571D01*
X211284819Y-90998571D02*
X211284819Y-90903333D01*
X211284819Y-90427142D02*
X211237200Y-90522380D01*
X211237200Y-90522380D02*
X211189580Y-90569999D01*
X211189580Y-90569999D02*
X211094342Y-90617618D01*
X211094342Y-90617618D02*
X210808628Y-90617618D01*
X210808628Y-90617618D02*
X210713390Y-90569999D01*
X210713390Y-90569999D02*
X210665771Y-90522380D01*
X210665771Y-90522380D02*
X210618152Y-90427142D01*
X210618152Y-90427142D02*
X210618152Y-90284285D01*
X210618152Y-90284285D02*
X210665771Y-90189047D01*
X210665771Y-90189047D02*
X210713390Y-90141428D01*
X210713390Y-90141428D02*
X210808628Y-90093809D01*
X210808628Y-90093809D02*
X211094342Y-90093809D01*
X211094342Y-90093809D02*
X211189580Y-90141428D01*
X211189580Y-90141428D02*
X211237200Y-90189047D01*
X211237200Y-90189047D02*
X211284819Y-90284285D01*
X211284819Y-90284285D02*
X211284819Y-90427142D01*
X210618152Y-89665237D02*
X211284819Y-89665237D01*
X210713390Y-89665237D02*
X210665771Y-89617618D01*
X210665771Y-89617618D02*
X210618152Y-89522380D01*
X210618152Y-89522380D02*
X210618152Y-89379523D01*
X210618152Y-89379523D02*
X210665771Y-89284285D01*
X210665771Y-89284285D02*
X210761009Y-89236666D01*
X210761009Y-89236666D02*
X211284819Y-89236666D01*
X210284819Y-87569999D02*
X210284819Y-87760475D01*
X210284819Y-87760475D02*
X210332438Y-87855713D01*
X210332438Y-87855713D02*
X210380057Y-87903332D01*
X210380057Y-87903332D02*
X210522914Y-87998570D01*
X210522914Y-87998570D02*
X210713390Y-88046189D01*
X210713390Y-88046189D02*
X211094342Y-88046189D01*
X211094342Y-88046189D02*
X211189580Y-87998570D01*
X211189580Y-87998570D02*
X211237200Y-87950951D01*
X211237200Y-87950951D02*
X211284819Y-87855713D01*
X211284819Y-87855713D02*
X211284819Y-87665237D01*
X211284819Y-87665237D02*
X211237200Y-87569999D01*
X211237200Y-87569999D02*
X211189580Y-87522380D01*
X211189580Y-87522380D02*
X211094342Y-87474761D01*
X211094342Y-87474761D02*
X210856247Y-87474761D01*
X210856247Y-87474761D02*
X210761009Y-87522380D01*
X210761009Y-87522380D02*
X210713390Y-87569999D01*
X210713390Y-87569999D02*
X210665771Y-87665237D01*
X210665771Y-87665237D02*
X210665771Y-87855713D01*
X210665771Y-87855713D02*
X210713390Y-87950951D01*
X210713390Y-87950951D02*
X210761009Y-87998570D01*
X210761009Y-87998570D02*
X210856247Y-88046189D01*
X235952381Y-43854819D02*
X235952381Y-44569104D01*
X235952381Y-44569104D02*
X235904762Y-44711961D01*
X235904762Y-44711961D02*
X235809524Y-44807200D01*
X235809524Y-44807200D02*
X235666667Y-44854819D01*
X235666667Y-44854819D02*
X235571429Y-44854819D01*
X236952381Y-44854819D02*
X236380953Y-44854819D01*
X236666667Y-44854819D02*
X236666667Y-43854819D01*
X236666667Y-43854819D02*
X236571429Y-43997676D01*
X236571429Y-43997676D02*
X236476191Y-44092914D01*
X236476191Y-44092914D02*
X236380953Y-44140533D01*
X237380953Y-44759580D02*
X237428572Y-44807200D01*
X237428572Y-44807200D02*
X237380953Y-44854819D01*
X237380953Y-44854819D02*
X237333334Y-44807200D01*
X237333334Y-44807200D02*
X237380953Y-44759580D01*
X237380953Y-44759580D02*
X237380953Y-44854819D01*
X237809524Y-43950057D02*
X237857143Y-43902438D01*
X237857143Y-43902438D02*
X237952381Y-43854819D01*
X237952381Y-43854819D02*
X238190476Y-43854819D01*
X238190476Y-43854819D02*
X238285714Y-43902438D01*
X238285714Y-43902438D02*
X238333333Y-43950057D01*
X238333333Y-43950057D02*
X238380952Y-44045295D01*
X238380952Y-44045295D02*
X238380952Y-44140533D01*
X238380952Y-44140533D02*
X238333333Y-44283390D01*
X238333333Y-44283390D02*
X237761905Y-44854819D01*
X237761905Y-44854819D02*
X238380952Y-44854819D01*
D12*
%TO.C,C2*%
X221440000Y-76807836D02*
X221440000Y-76592164D01*
X222160000Y-76807836D02*
X222160000Y-76592164D01*
%TO.C,C1*%
X222160000Y-72522164D02*
X222160000Y-72737836D01*
X221440000Y-72522164D02*
X221440000Y-72737836D01*
%TO.C,J1.4*%
X241040000Y-93030000D02*
X239600000Y-93030000D01*
X239600000Y-93600000D02*
X239600000Y-93030000D01*
X239600000Y-93600000D02*
X234400000Y-93600000D01*
X239600000Y-91510000D02*
X239600000Y-90490000D01*
X239600000Y-88970000D02*
X239600000Y-88400000D01*
X239600000Y-88400000D02*
X234400000Y-88400000D01*
X234400000Y-93600000D02*
X234400000Y-93030000D01*
X234400000Y-91510000D02*
X234400000Y-90490000D01*
X234400000Y-88970000D02*
X234400000Y-88400000D01*
%TO.C,J1.3*%
X220960000Y-88970000D02*
X222400000Y-88970000D01*
X222400000Y-88400000D02*
X222400000Y-88970000D01*
X222400000Y-88400000D02*
X227600000Y-88400000D01*
X222400000Y-90490000D02*
X222400000Y-91510000D01*
X222400000Y-93030000D02*
X222400000Y-93600000D01*
X222400000Y-93600000D02*
X227600000Y-93600000D01*
X227600000Y-88400000D02*
X227600000Y-88970000D01*
X227600000Y-90490000D02*
X227600000Y-91510000D01*
X227600000Y-93030000D02*
X227600000Y-93600000D01*
%TO.C,J1.1*%
X220960000Y-45970000D02*
X222400000Y-45970000D01*
X222400000Y-45400000D02*
X222400000Y-45970000D01*
X222400000Y-45400000D02*
X227600000Y-45400000D01*
X222400000Y-47490000D02*
X222400000Y-48510000D01*
X222400000Y-50030000D02*
X222400000Y-50600000D01*
X222400000Y-50600000D02*
X227600000Y-50600000D01*
X227600000Y-45400000D02*
X227600000Y-45970000D01*
X227600000Y-47490000D02*
X227600000Y-48510000D01*
X227600000Y-50030000D02*
X227600000Y-50600000D01*
%TO.C,J1*%
X218035000Y-54000000D02*
X219475000Y-54000000D01*
X219475000Y-53430000D02*
X219475000Y-54000000D01*
X219475000Y-53430000D02*
X224675000Y-53430000D01*
X219475000Y-55520000D02*
X219475000Y-56540000D01*
X219475000Y-58060000D02*
X219475000Y-59080000D01*
X219475000Y-60600000D02*
X219475000Y-61620000D01*
X219475000Y-63140000D02*
X219475000Y-63710000D01*
X219475000Y-63710000D02*
X224675000Y-63710000D01*
X224675000Y-53430000D02*
X224675000Y-54000000D01*
X224675000Y-55520000D02*
X224675000Y-56540000D01*
X224675000Y-58060000D02*
X224675000Y-59080000D01*
X224675000Y-60600000D02*
X224675000Y-61620000D01*
X224675000Y-63140000D02*
X224675000Y-63710000D01*
%TO.C,J1.1.3*%
X257970000Y-93480000D02*
X251230000Y-93480000D01*
X257970000Y-87660000D02*
X257970000Y-93480000D01*
X257970000Y-87660000D02*
X251230000Y-87660000D01*
X256251000Y-87660000D02*
X256251000Y-93480000D01*
X253150000Y-87660000D02*
X253150000Y-93480000D01*
X252150000Y-87660000D02*
X252150000Y-93480000D01*
X252030000Y-87420000D02*
X250990000Y-87420000D01*
X251230000Y-87660000D02*
X251230000Y-93480000D01*
X250990000Y-87420000D02*
X250990000Y-88220000D01*
%TO.C,J1.1.1*%
X250990000Y-45120000D02*
X250990000Y-45920000D01*
X251230000Y-45360000D02*
X251230000Y-51180000D01*
X252030000Y-45120000D02*
X250990000Y-45120000D01*
X252150000Y-45360000D02*
X252150000Y-51180000D01*
X253150000Y-45360000D02*
X253150000Y-51180000D01*
X256251000Y-45360000D02*
X256251000Y-51180000D01*
X257970000Y-45360000D02*
X251230000Y-45360000D01*
X257970000Y-45360000D02*
X257970000Y-51180000D01*
X257970000Y-51180000D02*
X251230000Y-51180000D01*
%TO.C,J1.1.2*%
X218570000Y-51180000D02*
X211830000Y-51180000D01*
X218570000Y-45360000D02*
X218570000Y-51180000D01*
X218570000Y-45360000D02*
X211830000Y-45360000D01*
X216851000Y-45360000D02*
X216851000Y-51180000D01*
X213750000Y-45360000D02*
X213750000Y-51180000D01*
X212750000Y-45360000D02*
X212750000Y-51180000D01*
X212630000Y-45120000D02*
X211590000Y-45120000D01*
X211830000Y-45360000D02*
X211830000Y-51180000D01*
X211590000Y-45120000D02*
X211590000Y-45920000D01*
%TO.C,J4*%
X240680000Y-52340000D02*
X240680000Y-55120000D01*
X240680000Y-65265000D02*
X238420000Y-65265000D01*
X240680000Y-68060000D02*
X240680000Y-65265000D01*
X240680000Y-68060000D02*
X256240000Y-68060000D01*
X256240000Y-52340000D02*
X240680000Y-52340000D01*
X256240000Y-55560000D02*
X256240000Y-52340000D01*
X256240000Y-64840000D02*
X259340000Y-64840000D01*
X256240000Y-68060000D02*
X256240000Y-64840000D01*
X259340000Y-55560000D02*
X256240000Y-55560000D01*
X259340000Y-64840000D02*
X259340000Y-55560000D01*
%TO.C,J1.2.2*%
X218570000Y-70680000D02*
X211830000Y-70680000D01*
X218570000Y-64860000D02*
X218570000Y-70680000D01*
X218570000Y-64860000D02*
X211830000Y-64860000D01*
X216851000Y-64860000D02*
X216851000Y-70680000D01*
X213750000Y-64860000D02*
X213750000Y-70680000D01*
X212750000Y-64860000D02*
X212750000Y-70680000D01*
X212630000Y-64620000D02*
X211590000Y-64620000D01*
X211830000Y-64860000D02*
X211830000Y-70680000D01*
X211590000Y-64620000D02*
X211590000Y-65420000D01*
%TO.C,J3*%
X247865000Y-86160000D02*
X246425000Y-86160000D01*
X246425000Y-86730000D02*
X246425000Y-86160000D01*
X246425000Y-86730000D02*
X241225000Y-86730000D01*
X246425000Y-84640000D02*
X246425000Y-83620000D01*
X246425000Y-82100000D02*
X246425000Y-81080000D01*
X246425000Y-79560000D02*
X246425000Y-78990000D01*
X246425000Y-78990000D02*
X241225000Y-78990000D01*
X241225000Y-86730000D02*
X241225000Y-86160000D01*
X241225000Y-84640000D02*
X241225000Y-83620000D01*
X241225000Y-82100000D02*
X241225000Y-81080000D01*
X241225000Y-79560000D02*
X241225000Y-78990000D01*
%TO.C,J1.2.1*%
X258070000Y-84680000D02*
X251330000Y-84680000D01*
X258070000Y-78860000D02*
X258070000Y-84680000D01*
X258070000Y-78860000D02*
X251330000Y-78860000D01*
X256351000Y-78860000D02*
X256351000Y-84680000D01*
X253250000Y-78860000D02*
X253250000Y-84680000D01*
X252250000Y-78860000D02*
X252250000Y-84680000D01*
X252130000Y-78620000D02*
X251090000Y-78620000D01*
X251330000Y-78860000D02*
X251330000Y-84680000D01*
X251090000Y-78620000D02*
X251090000Y-79420000D01*
%TO.C,SW1*%
X249955000Y-76580000D02*
X249955000Y-76550000D01*
X249955000Y-72050000D02*
X249955000Y-74650000D01*
X249955000Y-70120000D02*
X249955000Y-70150000D01*
X243495000Y-76580000D02*
X249955000Y-76580000D01*
X243495000Y-76580000D02*
X243495000Y-76550000D01*
X243495000Y-72050000D02*
X243495000Y-74650000D01*
X243495000Y-70150000D02*
X243495000Y-70120000D01*
X243495000Y-70120000D02*
X249955000Y-70120000D01*
%TO.C,Y1*%
X227675000Y-77700000D02*
G75*
G02*
X222625000Y-77700000I-2525000J0D01*
G01*
X222625000Y-71450000D02*
G75*
G02*
X227675000Y-71450000I2525000J0D01*
G01*
X227675000Y-71450000D02*
X227675000Y-77700000D01*
X222625000Y-71450000D02*
X222625000Y-77700000D01*
%TO.C,U1*%
X233940000Y-51410000D02*
G75*
G02*
X231940000Y-51410000I-1000000J0D01*
G01*
X235590000Y-87090000D02*
X235590000Y-51410000D01*
X235590000Y-51410000D02*
X233940000Y-51410000D01*
X231940000Y-51410000D02*
X230290000Y-51410000D01*
X230290000Y-87090000D02*
X235590000Y-87090000D01*
X230290000Y-51410000D02*
X230290000Y-87090000D01*
%TO.C,J1.1.4*%
X218570000Y-93480000D02*
X211830000Y-93480000D01*
X218570000Y-87660000D02*
X218570000Y-93480000D01*
X218570000Y-87660000D02*
X211830000Y-87660000D01*
X216851000Y-87660000D02*
X216851000Y-93480000D01*
X213750000Y-87660000D02*
X213750000Y-93480000D01*
X212750000Y-87660000D02*
X212750000Y-93480000D01*
X212630000Y-87420000D02*
X211590000Y-87420000D01*
X211830000Y-87660000D02*
X211830000Y-93480000D01*
X211590000Y-87420000D02*
X211590000Y-88220000D01*
%TO.C,J1.2*%
X232960000Y-45970000D02*
X234400000Y-45970000D01*
X234400000Y-45400000D02*
X234400000Y-45970000D01*
X234400000Y-45400000D02*
X239600000Y-45400000D01*
X234400000Y-47490000D02*
X234400000Y-48510000D01*
X234400000Y-50030000D02*
X234400000Y-50600000D01*
X234400000Y-50600000D02*
X239600000Y-50600000D01*
X239600000Y-45400000D02*
X239600000Y-45970000D01*
X239600000Y-47490000D02*
X239600000Y-48510000D01*
X239600000Y-50030000D02*
X239600000Y-50600000D01*
%TD*%
M02*
