M48
; DRILL file {KiCad 8.0.7} date 2025-01-13T22:24:14+0100
; FORMAT={-:-/ absolute / metric / decimal}
; #@! TF.CreationDate,2025-01-13T22:24:14+01:00
; #@! TF.GenerationSoftware,Kicad,Pcbnew,8.0.7
; #@! TF.FileFunction,MixedPlating,1,2
FMAT,2
METRIC
; #@! TA.AperFunction,Plated,PTH,ViaDrill
T1C0.300
; #@! TA.AperFunction,Plated,PTH,ComponentDrill
T2C0.800
; #@! TA.AperFunction,Plated,PTH,ComponentDrill
T3C1.200
; #@! TA.AperFunction,NonPlated,NPTH,ComponentDrill
T4C2.200
%
G90
G05
T1
X219.51Y-85.26
X224.56Y-82.72
X224.56Y-85.26
X232.4Y-50.25
X232.6Y-66.4
X240.92Y-55.755
X240.92Y-58.295
X240.92Y-62.105
X241.3Y-85.4
X243.35Y-75.48
X248.4Y-70.4
X248.4Y-72.94
T2
X225.15Y-72.125
X225.15Y-77.025
X229.13Y-52.74
X229.13Y-55.28
X229.13Y-57.82
X229.13Y-60.36
X229.13Y-62.9
X229.13Y-65.44
X229.13Y-67.98
X229.13Y-70.52
X229.13Y-73.06
X229.13Y-75.6
X229.13Y-78.14
X229.13Y-80.68
X229.13Y-83.22
X229.13Y-85.76
X236.75Y-52.74
X236.75Y-55.28
X236.75Y-57.82
X236.75Y-60.36
X236.75Y-62.9
X236.75Y-65.44
X236.75Y-67.98
X236.75Y-70.52
X236.75Y-73.06
X236.75Y-75.6
X236.75Y-78.14
X236.75Y-80.68
X236.75Y-83.22
X236.75Y-85.76
T3
X215.35Y-47.0
X215.35Y-49.54
X215.35Y-66.5
X215.35Y-69.04
X215.35Y-89.3
X215.35Y-91.84
X254.75Y-47.0
X254.75Y-49.54
X254.75Y-89.3
X254.75Y-91.84
X254.85Y-80.5
X254.85Y-83.04
T4
X212.75Y-54.2
X212.75Y-83.3
X247.75Y-45.1
X256.95Y-74.5
M30
