%TF.GenerationSoftware,KiCad,Pcbnew,8.0.7*%
%TF.CreationDate,2025-01-13T22:24:01+01:00*%
%TF.ProjectId,circuit,63697263-7569-4742-9e6b-696361645f70,v1.1.0*%
%TF.SameCoordinates,Original*%
%TF.FileFunction,Copper,L1,Top*%
%TF.FilePolarity,Positive*%
%FSLAX46Y46*%
G04 Gerber Fmt 4.6, Leading zero omitted, Abs format (unit mm)*
G04 Created by KiCad (PCBNEW 8.0.7) date 2025-01-13 22:24:01*
%MOMM*%
%LPD*%
G01*
G04 APERTURE LIST*
G04 Aperture macros list*
%AMRoundRect*
0 Rectangle with rounded corners*
0 $1 Rounding radius*
0 $2 $3 $4 $5 $6 $7 $8 $9 X,Y pos of 4 corners*
0 Add a 4 corners polygon primitive as box body*
4,1,4,$2,$3,$4,$5,$6,$7,$8,$9,$2,$3,0*
0 Add four circle primitives for the rounded corners*
1,1,$1+$1,$2,$3*
1,1,$1+$1,$4,$5*
1,1,$1+$1,$6,$7*
1,1,$1+$1,$8,$9*
0 Add four rect primitives between the rounded corners*
20,1,$1+$1,$2,$3,$4,$5,0*
20,1,$1+$1,$4,$5,$6,$7,0*
20,1,$1+$1,$6,$7,$8,$9,0*
20,1,$1+$1,$8,$9,$2,$3,0*%
G04 Aperture macros list end*
%TA.AperFunction,ComponentPad*%
%ADD10R,2.000000X2.000000*%
%TD*%
%TA.AperFunction,ComponentPad*%
%ADD11C,2.000000*%
%TD*%
%TA.AperFunction,SMDPad,CuDef*%
%ADD12R,3.150000X1.000000*%
%TD*%
%TA.AperFunction,SMDPad,CuDef*%
%ADD13RoundRect,0.140000X0.170000X-0.140000X0.170000X0.140000X-0.170000X0.140000X-0.170000X-0.140000X0*%
%TD*%
%TA.AperFunction,SMDPad,CuDef*%
%ADD14RoundRect,0.140000X-0.170000X0.140000X-0.170000X-0.140000X0.170000X-0.140000X0.170000X0.140000X0*%
%TD*%
%TA.AperFunction,SMDPad,CuDef*%
%ADD15R,5.000000X0.760000*%
%TD*%
%TA.AperFunction,SMDPad,CuDef*%
%ADD16R,4.500000X8.800000*%
%TD*%
%TA.AperFunction,ComponentPad*%
%ADD17R,1.600000X1.600000*%
%TD*%
%TA.AperFunction,ComponentPad*%
%ADD18O,1.600000X1.600000*%
%TD*%
%TA.AperFunction,ComponentPad*%
%ADD19C,1.500000*%
%TD*%
%TA.AperFunction,SMDPad,CuDef*%
%ADD20RoundRect,0.250000X-0.325000X-0.650000X0.325000X-0.650000X0.325000X0.650000X-0.325000X0.650000X0*%
%TD*%
%TA.AperFunction,ViaPad*%
%ADD21C,0.600000*%
%TD*%
%TA.AperFunction,Conductor*%
%ADD22C,0.200000*%
%TD*%
G04 APERTURE END LIST*
D10*
%TO.P,J1.1.3,1,Pin_1*%
%TO.N,/L1*%
X254750000Y-89300000D03*
D11*
%TO.P,J1.1.3,2,Pin_2*%
%TO.N,/R2*%
X254750000Y-91840000D03*
%TD*%
D10*
%TO.P,J1.1.1,1,Pin_1*%
%TO.N,/L1*%
X254750000Y-47000000D03*
D11*
%TO.P,J1.1.1,2,Pin_2*%
%TO.N,/R1*%
X254750000Y-49540000D03*
%TD*%
D12*
%TO.P,J1.3,1,Pin_1*%
%TO.N,/L1*%
X222475000Y-89730000D03*
%TO.P,J1.3,2,Pin_2*%
%TO.N,/L2*%
X227525000Y-89730000D03*
%TO.P,J1.3,3,Pin_3*%
%TO.N,/R3*%
X222475000Y-92270000D03*
%TO.P,J1.3,4,Pin_4*%
%TO.N,/R4*%
X227525000Y-92270000D03*
%TD*%
D13*
%TO.P,C2,1*%
%TO.N,/XTAL2*%
X221830000Y-77180000D03*
%TO.P,C2,2*%
%TO.N,GND*%
X221830000Y-76220000D03*
%TD*%
D12*
%TO.P,J3,1,Pin_1*%
%TO.N,GND*%
X219510000Y-82720000D03*
%TO.P,J3,2,Pin_2*%
%TO.N,+5V*%
X224560000Y-82720000D03*
%TO.P,J3,3,Pin_3*%
%TO.N,/SDA*%
X219510000Y-85260000D03*
%TO.P,J3,4,Pin_4*%
%TO.N,/SCL*%
X224560000Y-85260000D03*
%TD*%
%TO.P,J5,1,Pin_1*%
%TO.N,GND*%
X243350000Y-70400000D03*
%TO.P,J5,2,Pin_2*%
%TO.N,+5V*%
X248400000Y-70400000D03*
%TO.P,J5,3,Pin_3*%
%TO.N,/RX*%
X243350000Y-72940000D03*
%TO.P,J5,4,Pin_4*%
%TO.N,/RY*%
X248400000Y-72940000D03*
%TO.P,J5,5,Pin_5*%
%TO.N,/Switch*%
X243350000Y-75480000D03*
%TO.P,J5,6*%
%TO.N,N/C*%
X248400000Y-75480000D03*
%TD*%
D10*
%TO.P,J1.1.2,1,Pin_1*%
%TO.N,/L2*%
X215350000Y-47000000D03*
D11*
%TO.P,J1.1.2,2,Pin_2*%
%TO.N,/R1*%
X215350000Y-49540000D03*
%TD*%
D14*
%TO.P,C1,1*%
%TO.N,/XTAL1*%
X221820000Y-72150000D03*
%TO.P,C1,2*%
%TO.N,GND*%
X221820000Y-73110000D03*
%TD*%
D15*
%TO.P,J4,1*%
%TO.N,GND*%
X240920000Y-64645000D03*
%TO.P,J4,2*%
X240920000Y-63375000D03*
%TO.P,J4,3*%
%TO.N,+5V*%
X240920000Y-62105000D03*
%TO.P,J4,4*%
%TO.N,/RX*%
X240920000Y-60835000D03*
%TO.P,J4,5*%
%TO.N,/SDA*%
X240920000Y-59565000D03*
%TO.P,J4,6*%
%TO.N,/RY*%
X240920000Y-58295000D03*
%TO.P,J4,7*%
%TO.N,/SCL*%
X240920000Y-57025000D03*
%TO.P,J4,8*%
%TO.N,/Switch*%
X240920000Y-55755000D03*
D16*
%TO.P,J4,L*%
%TO.N,N/C*%
X256850000Y-60200000D03*
%TD*%
D10*
%TO.P,J1.2.2,1,Pin_1*%
%TO.N,/L4*%
X215350000Y-66500000D03*
D11*
%TO.P,J1.2.2,2,Pin_2*%
%TO.N,/R1*%
X215350000Y-69040000D03*
%TD*%
D17*
%TO.P,U1,1,~{RESET}/PC6*%
%TO.N,/RESET*%
X229130000Y-52740000D03*
D18*
%TO.P,U1,2,PD0*%
%TO.N,/L1*%
X229130000Y-55280000D03*
%TO.P,U1,3,PD1*%
%TO.N,/L2*%
X229130000Y-57820000D03*
%TO.P,U1,4,PD2*%
%TO.N,/L3*%
X229130000Y-60360000D03*
%TO.P,U1,5,PD3*%
%TO.N,/L4*%
X229130000Y-62900000D03*
%TO.P,U1,6,PD4*%
%TO.N,/R1*%
X229130000Y-65440000D03*
%TO.P,U1,7,VCC*%
%TO.N,+5V*%
X229130000Y-67980000D03*
%TO.P,U1,8,GND*%
%TO.N,GND*%
X229130000Y-70520000D03*
%TO.P,U1,9,XTAL1/PB6*%
%TO.N,/XTAL1*%
X229130000Y-73060000D03*
%TO.P,U1,10,XTAL2/PB7*%
%TO.N,/XTAL2*%
X229130000Y-75600000D03*
%TO.P,U1,11,PD5*%
%TO.N,/R2*%
X229130000Y-78140000D03*
%TO.P,U1,12,PD6*%
%TO.N,/R3*%
X229130000Y-80680000D03*
%TO.P,U1,13,PD7*%
%TO.N,/R4*%
X229130000Y-83220000D03*
%TO.P,U1,14,PB0*%
%TO.N,unconnected-(U1-PB0-Pad14)*%
X229130000Y-85760000D03*
%TO.P,U1,15,PB1*%
%TO.N,unconnected-(U1-PB1-Pad15)*%
X236750000Y-85760000D03*
%TO.P,U1,16,PB2*%
%TO.N,unconnected-(U1-PB2-Pad16)*%
X236750000Y-83220000D03*
%TO.P,U1,17,PB3*%
%TO.N,/MOSI*%
X236750000Y-80680000D03*
%TO.P,U1,18,PB4*%
%TO.N,/MISO*%
X236750000Y-78140000D03*
%TO.P,U1,19,PB5*%
%TO.N,/SCK*%
X236750000Y-75600000D03*
%TO.P,U1,20,AVCC*%
%TO.N,+5V*%
X236750000Y-73060000D03*
%TO.P,U1,21,AREF*%
%TO.N,unconnected-(U1-AREF-Pad21)*%
X236750000Y-70520000D03*
%TO.P,U1,22,GND*%
%TO.N,GND*%
X236750000Y-67980000D03*
%TO.P,U1,23,PC0*%
%TO.N,unconnected-(U1-PC0-Pad23)*%
X236750000Y-65440000D03*
%TO.P,U1,24,PC1*%
%TO.N,unconnected-(U1-PC1-Pad24)*%
X236750000Y-62900000D03*
%TO.P,U1,25,PC2*%
%TO.N,unconnected-(U1-PC2-Pad25)*%
X236750000Y-60360000D03*
%TO.P,U1,26,PC3*%
%TO.N,unconnected-(U1-PC3-Pad26)*%
X236750000Y-57820000D03*
%TO.P,U1,27,PC4*%
%TO.N,/SDA*%
X236750000Y-55280000D03*
%TO.P,U1,28,PC5*%
%TO.N,/SCL*%
X236750000Y-52740000D03*
%TD*%
D12*
%TO.P,J2,1,MISO*%
%TO.N,/MISO*%
X246350000Y-85400000D03*
%TO.P,J2,2,VCC*%
%TO.N,+5V*%
X241300000Y-85400000D03*
%TO.P,J2,3,SCK*%
%TO.N,/SCK*%
X246350000Y-82860000D03*
%TO.P,J2,4,MOSI*%
%TO.N,/MOSI*%
X241300000Y-82860000D03*
%TO.P,J2,5,~{RST}*%
%TO.N,/RESET*%
X246350000Y-80320000D03*
%TO.P,J2,6,GND*%
%TO.N,GND*%
X241300000Y-80320000D03*
%TD*%
%TO.P,J1.2,1,Pin_1*%
%TO.N,/L3*%
X234475000Y-46730000D03*
%TO.P,J1.2,2,Pin_2*%
%TO.N,/L4*%
X239525000Y-46730000D03*
%TO.P,J1.2,3,Pin_3*%
%TO.N,/R1*%
X234475000Y-49270000D03*
%TO.P,J1.2,4,Pin_4*%
%TO.N,/R2*%
X239525000Y-49270000D03*
%TD*%
D19*
%TO.P,Y1,1,1*%
%TO.N,/XTAL1*%
X225150000Y-72125000D03*
%TO.P,Y1,2,2*%
%TO.N,/XTAL2*%
X225150000Y-77025000D03*
%TD*%
D10*
%TO.P,J1.2.1,1,Pin_1*%
%TO.N,/L3*%
X254850000Y-80500000D03*
D11*
%TO.P,J1.2.1,2,Pin_2*%
%TO.N,/R1*%
X254850000Y-83040000D03*
%TD*%
D12*
%TO.P,J1.4,1,Pin_1*%
%TO.N,/L3*%
X239525000Y-92270000D03*
%TO.P,J1.4,2,Pin_2*%
%TO.N,/L4*%
X234475000Y-92270000D03*
%TO.P,J1.4,3,Pin_3*%
%TO.N,/R3*%
X239525000Y-89730000D03*
%TO.P,J1.4,4,Pin_4*%
%TO.N,/R4*%
X234475000Y-89730000D03*
%TD*%
%TO.P,J1,1,Pin_1*%
%TO.N,/L1*%
X219550000Y-53535000D03*
%TO.P,J1,2,Pin_2*%
%TO.N,/L2*%
X224600000Y-53535000D03*
%TO.P,J1,3,Pin_3*%
%TO.N,/L3*%
X219550000Y-56075000D03*
%TO.P,J1,4,Pin_4*%
%TO.N,/L4*%
X224600000Y-56075000D03*
%TO.P,J1,5,Pin_5*%
%TO.N,/R1*%
X219550000Y-58615000D03*
%TO.P,J1,6,Pin_6*%
%TO.N,/R2*%
X224600000Y-58615000D03*
%TO.P,J1,7,Pin_7*%
%TO.N,/R3*%
X219550000Y-61155000D03*
%TO.P,J1,8,Pin_8*%
%TO.N,/R4*%
X224600000Y-61155000D03*
%TD*%
D10*
%TO.P,J1.1.4,1,Pin_1*%
%TO.N,/L2*%
X215350000Y-89300000D03*
D11*
%TO.P,J1.1.4,2,Pin_2*%
%TO.N,/R2*%
X215350000Y-91840000D03*
%TD*%
D20*
%TO.P,C3,1*%
%TO.N,GND*%
X223850000Y-67300000D03*
%TO.P,C3,2*%
%TO.N,+5V*%
X226800000Y-67300000D03*
%TD*%
D12*
%TO.P,J1.1,1,Pin_1*%
%TO.N,/L1*%
X222475000Y-46730000D03*
%TO.P,J1.1,2,Pin_2*%
%TO.N,/L2*%
X227525000Y-46730000D03*
%TO.P,J1.1,3,Pin_3*%
%TO.N,/R1*%
X222475000Y-49270000D03*
%TO.P,J1.1,4,Pin_4*%
%TO.N,/R2*%
X227525000Y-49270000D03*
%TD*%
D21*
%TO.N,+5V*%
X240920000Y-62105000D03*
X248400000Y-70400000D03*
X224560000Y-82720000D03*
X241300000Y-85400000D03*
%TO.N,/RESET*%
X232400000Y-50250000D03*
%TO.N,/L4*%
X232600000Y-66400000D03*
%TO.N,/SDA*%
X219510000Y-85260000D03*
%TO.N,/SCL*%
X224560000Y-85260000D03*
%TO.N,/Switch*%
X240920000Y-55755000D03*
X243350000Y-75480000D03*
%TO.N,/RY*%
X240920000Y-58295000D03*
X248400000Y-72940000D03*
%TD*%
D22*
%TO.N,+5V*%
X228280000Y-67980000D02*
X229130000Y-67980000D01*
X227600000Y-67300000D02*
X228280000Y-67980000D01*
X226800000Y-67300000D02*
X227600000Y-67300000D01*
%TO.N,/XTAL1*%
X221820000Y-72150000D02*
X225125000Y-72150000D01*
X225125000Y-72150000D02*
X225150000Y-72125000D01*
%TO.N,/XTAL2*%
X224995000Y-77180000D02*
X225150000Y-77025000D01*
X221830000Y-77180000D02*
X224995000Y-77180000D01*
%TO.N,/MOSI*%
X238930000Y-82860000D02*
X236750000Y-80680000D01*
X241300000Y-82860000D02*
X238930000Y-82860000D01*
%TO.N,/RESET*%
X246350000Y-80320000D02*
X246370000Y-80300000D01*
X250400000Y-80300000D02*
X253700000Y-77000000D01*
X253700000Y-77000000D02*
X253700000Y-59950000D01*
X246370000Y-80300000D02*
X250400000Y-80300000D01*
X244000000Y-50250000D02*
X232400000Y-50250000D01*
X253700000Y-59950000D02*
X244000000Y-50250000D01*
%TO.N,/SCK*%
X244560000Y-82860000D02*
X243350000Y-81650000D01*
X238450000Y-77300000D02*
X236750000Y-75600000D01*
X246350000Y-82860000D02*
X244560000Y-82860000D01*
X243350000Y-81650000D02*
X238865686Y-81650000D01*
X238865686Y-81650000D02*
X238450000Y-81234314D01*
X238450000Y-81234314D02*
X238450000Y-77300000D01*
%TO.N,/MISO*%
X244300000Y-85400000D02*
X244200000Y-85300000D01*
X243160000Y-82060000D02*
X238710000Y-82060000D01*
X238050000Y-81400000D02*
X238050000Y-79440000D01*
X244200000Y-83100000D02*
X243160000Y-82060000D01*
X246350000Y-85400000D02*
X244300000Y-85400000D01*
X238050000Y-79440000D02*
X236750000Y-78140000D01*
X238710000Y-82060000D02*
X238050000Y-81400000D01*
X244200000Y-85300000D02*
X244200000Y-83100000D01*
%TO.N,/L3*%
X219550000Y-55425000D02*
X219550000Y-56075000D01*
X229130000Y-60360000D02*
X227300000Y-58530000D01*
X239525000Y-92270000D02*
X246830000Y-92270000D01*
X226550000Y-55225000D02*
X219750000Y-55225000D01*
X231200000Y-47300000D02*
X231200000Y-58290000D01*
X231200000Y-58290000D02*
X229130000Y-60360000D01*
X227230000Y-55905000D02*
X226550000Y-55225000D01*
X231770000Y-46730000D02*
X231200000Y-47300000D01*
X252200000Y-86900000D02*
X252200000Y-83150000D01*
X219750000Y-55225000D02*
X219550000Y-55425000D01*
X234475000Y-46730000D02*
X231770000Y-46730000D01*
X246830000Y-92270000D02*
X252200000Y-86900000D01*
X227230000Y-57051372D02*
X227230000Y-55905000D01*
X227300000Y-57121372D02*
X227230000Y-57051372D01*
X252200000Y-83150000D02*
X254850000Y-80500000D01*
X227300000Y-58530000D02*
X227300000Y-57121372D01*
%TO.N,/L1*%
X228664314Y-55280000D02*
X229130000Y-55280000D01*
X215300000Y-85400000D02*
X219630000Y-89730000D01*
X220055000Y-52325000D02*
X226350000Y-52325000D01*
X227100000Y-53715686D02*
X228664314Y-55280000D01*
X219550000Y-53535000D02*
X219550000Y-52830000D01*
X222475000Y-46730000D02*
X224280000Y-46730000D01*
X224700000Y-50675000D02*
X224700000Y-47150000D01*
X215300000Y-72900000D02*
X215300000Y-85400000D01*
X213100000Y-70700000D02*
X215300000Y-72900000D01*
X213100000Y-57575000D02*
X213100000Y-70700000D01*
X219550000Y-52830000D02*
X220055000Y-52325000D01*
X226350000Y-52325000D02*
X227100000Y-53075000D01*
X217140000Y-53535000D02*
X213100000Y-57575000D01*
X227100000Y-53075000D02*
X227100000Y-53715686D01*
X219550000Y-53535000D02*
X217140000Y-53535000D01*
X219630000Y-89730000D02*
X222475000Y-89730000D01*
X224700000Y-50675000D02*
X226350000Y-52325000D01*
X224280000Y-46730000D02*
X224700000Y-47150000D01*
%TO.N,/L2*%
X213560000Y-58915000D02*
X213560000Y-70560000D01*
X219630000Y-88930000D02*
X224230000Y-88930000D01*
X218100000Y-54375000D02*
X213560000Y-58915000D01*
X215800000Y-72800000D02*
X215800000Y-85100000D01*
X227525000Y-89730000D02*
X225120000Y-89730000D01*
X225030000Y-89730000D02*
X224010000Y-90750000D01*
X227525000Y-45825000D02*
X226800000Y-45100000D01*
X228030000Y-56720000D02*
X229130000Y-57820000D01*
X228030000Y-55230000D02*
X228030000Y-56720000D01*
X217250000Y-45100000D02*
X215350000Y-47000000D01*
X215800000Y-85100000D02*
X219630000Y-88930000D01*
X227525000Y-46730000D02*
X227525000Y-45825000D01*
X226800000Y-45100000D02*
X217250000Y-45100000D01*
X225120000Y-89730000D02*
X225030000Y-89730000D01*
X224010000Y-90750000D02*
X216800000Y-90750000D01*
X224600000Y-53535000D02*
X222340000Y-53535000D01*
X226335000Y-53535000D02*
X228030000Y-55230000D01*
X222340000Y-53535000D02*
X221500000Y-54375000D01*
X224600000Y-53535000D02*
X226335000Y-53535000D01*
X224230000Y-88930000D02*
X225030000Y-89730000D01*
X213560000Y-70560000D02*
X215800000Y-72800000D01*
X221500000Y-54375000D02*
X218100000Y-54375000D01*
X216800000Y-90750000D02*
X215350000Y-89300000D01*
%TO.N,/R4*%
X224600000Y-61155000D02*
X224600000Y-63100000D01*
X234475000Y-89730000D02*
X232170000Y-89730000D01*
X228000000Y-76900000D02*
X230050000Y-76900000D01*
X230050000Y-76900000D02*
X230500000Y-77350000D01*
X224600000Y-63100000D02*
X217800000Y-69900000D01*
X217800000Y-69900000D02*
X217800000Y-72500000D01*
X230500000Y-81850000D02*
X229130000Y-83220000D01*
X230500000Y-77350000D02*
X230500000Y-81850000D01*
X217800000Y-72500000D02*
X217000000Y-73300000D01*
X232170000Y-89730000D02*
X232170000Y-86260000D01*
X226034314Y-84000000D02*
X226700000Y-83334314D01*
X226700000Y-78200000D02*
X228000000Y-76900000D01*
X217000000Y-83434314D02*
X217565686Y-84000000D01*
X232170000Y-89730000D02*
X229630000Y-92270000D01*
X226700000Y-83334314D02*
X226700000Y-78200000D01*
X232170000Y-86260000D02*
X229130000Y-83220000D01*
X217565686Y-84000000D02*
X226034314Y-84000000D01*
X217000000Y-73300000D02*
X217000000Y-83434314D01*
X229630000Y-92270000D02*
X227525000Y-92270000D01*
%TO.N,/R1*%
X222475000Y-49270000D02*
X220670000Y-49270000D01*
X227350000Y-59815686D02*
X227350000Y-63660000D01*
X237550000Y-48200000D02*
X236480000Y-49270000D01*
X227350000Y-63660000D02*
X229130000Y-65440000D01*
X219550000Y-57825000D02*
X220000000Y-57375000D01*
X236480000Y-49270000D02*
X234475000Y-49270000D01*
X226475000Y-58940686D02*
X227350000Y-59815686D01*
X220800000Y-45750000D02*
X224700000Y-45750000D01*
X220670000Y-49270000D02*
X220400000Y-49000000D01*
X225850000Y-48150000D02*
X229650000Y-48150000D01*
X245040000Y-49540000D02*
X243700000Y-48200000D01*
X225250000Y-47550000D02*
X225850000Y-48150000D01*
X226134314Y-57375000D02*
X226475000Y-57715686D01*
X219550000Y-58615000D02*
X219550000Y-57825000D01*
X243670000Y-48200000D02*
X243700000Y-48200000D01*
X225250000Y-46300000D02*
X225250000Y-47550000D01*
X220400000Y-46150000D02*
X220800000Y-45750000D01*
X226475000Y-57715686D02*
X226475000Y-58940686D01*
X220400000Y-49000000D02*
X220400000Y-46150000D01*
X240670000Y-45200000D02*
X243670000Y-48200000D01*
X224700000Y-45750000D02*
X225250000Y-46300000D01*
X254750000Y-49540000D02*
X245040000Y-49540000D01*
X229650000Y-48150000D02*
X232600000Y-45200000D01*
X222475000Y-49270000D02*
X215620000Y-49270000D01*
X243700000Y-48200000D02*
X237550000Y-48200000D01*
X220000000Y-57375000D02*
X226134314Y-57375000D01*
X215620000Y-49270000D02*
X215350000Y-49540000D01*
X232600000Y-45200000D02*
X240670000Y-45200000D01*
%TO.N,/R3*%
X225830000Y-93250000D02*
X224850000Y-92270000D01*
X237350000Y-92150000D02*
X236250000Y-93250000D01*
X227850000Y-81960000D02*
X229130000Y-80680000D01*
X224850000Y-92270000D02*
X226120000Y-91000000D01*
X219550000Y-61155000D02*
X219550000Y-63350000D01*
X216200000Y-72900000D02*
X216200000Y-84934314D01*
X222475000Y-92270000D02*
X224850000Y-92270000D01*
X219550000Y-63350000D02*
X217000000Y-65900000D01*
X239525000Y-90525000D02*
X239050000Y-91000000D01*
X237350000Y-91550000D02*
X237350000Y-92150000D01*
X237900000Y-91000000D02*
X237350000Y-91550000D01*
X217000000Y-65900000D02*
X217000000Y-72100000D01*
X227850000Y-86400000D02*
X227850000Y-81960000D01*
X236250000Y-93250000D02*
X225830000Y-93250000D01*
X239050000Y-91000000D02*
X237900000Y-91000000D01*
X229550000Y-90450000D02*
X229550000Y-88100000D01*
X229550000Y-88100000D02*
X227850000Y-86400000D01*
X216200000Y-84934314D02*
X217665686Y-86400000D01*
X229000000Y-91000000D02*
X229550000Y-90450000D01*
X239525000Y-89730000D02*
X239525000Y-90525000D01*
X217000000Y-72100000D02*
X216200000Y-72900000D01*
X217665686Y-86400000D02*
X227850000Y-86400000D01*
X226120000Y-91000000D02*
X229000000Y-91000000D01*
%TO.N,/R2*%
X217400000Y-84400000D02*
X226200000Y-84400000D01*
X230000000Y-54150000D02*
X228100000Y-54150000D01*
X218350000Y-54775000D02*
X226750000Y-54775000D01*
X226750000Y-54775000D02*
X227630000Y-55655000D01*
X221600000Y-59825000D02*
X218085000Y-59825000D01*
X254200000Y-75300000D02*
X254200000Y-59450000D01*
X229930000Y-58920000D02*
X230400000Y-58450000D01*
X228100000Y-54150000D02*
X227525000Y-53575000D01*
X216600000Y-73065686D02*
X216600000Y-83600000D01*
X222810000Y-58615000D02*
X224600000Y-58615000D01*
X254750000Y-91840000D02*
X257100000Y-89490000D01*
X227630000Y-56885686D02*
X227700000Y-56955686D01*
X226200000Y-84400000D02*
X227100000Y-83500000D01*
X228320000Y-58920000D02*
X229930000Y-58920000D01*
X216600000Y-83600000D02*
X217400000Y-84400000D01*
X221600000Y-63000000D02*
X217400000Y-67200000D01*
X230400000Y-58450000D02*
X230400000Y-54550000D01*
X254200000Y-59450000D02*
X244020000Y-49270000D01*
X217400000Y-72265686D02*
X216600000Y-73065686D01*
X227525000Y-53575000D02*
X227525000Y-49270000D01*
X227630000Y-55655000D02*
X227630000Y-56885686D01*
X227100000Y-78800000D02*
X227760000Y-78140000D01*
X217100000Y-58840000D02*
X217100000Y-56025000D01*
X257100000Y-89490000D02*
X257100000Y-78200000D01*
X222810000Y-58615000D02*
X221600000Y-59825000D01*
X227760000Y-78140000D02*
X229130000Y-78140000D01*
X217400000Y-67200000D02*
X217400000Y-72265686D01*
X221600000Y-59825000D02*
X221600000Y-63000000D01*
X244020000Y-49270000D02*
X239525000Y-49270000D01*
X230400000Y-54550000D02*
X230000000Y-54150000D01*
X227100000Y-83500000D02*
X227100000Y-78800000D01*
X227700000Y-56955686D02*
X227700000Y-58300000D01*
X227700000Y-58300000D02*
X228320000Y-58920000D01*
X218085000Y-59825000D02*
X217100000Y-58840000D01*
X217100000Y-56025000D02*
X218350000Y-54775000D01*
X257100000Y-78200000D02*
X254200000Y-75300000D01*
%TO.N,/L4*%
X239525000Y-46730000D02*
X237370000Y-46730000D01*
X236350000Y-47750000D02*
X233320000Y-47750000D01*
X226900000Y-58695686D02*
X226900000Y-57300000D01*
X231650000Y-49420000D02*
X231650000Y-60380000D01*
X232600000Y-66400000D02*
X233600000Y-67400000D01*
X226830000Y-56330000D02*
X226575000Y-56075000D01*
X236330000Y-92270000D02*
X234475000Y-92270000D01*
X227900000Y-61670000D02*
X227900000Y-59695686D01*
X226830000Y-57230000D02*
X226830000Y-56330000D01*
X233600000Y-86050000D02*
X236800000Y-89250000D01*
X226575000Y-56075000D02*
X224600000Y-56075000D01*
X236800000Y-91800000D02*
X236330000Y-92270000D01*
X233600000Y-67400000D02*
X233600000Y-86050000D01*
X237370000Y-46730000D02*
X236350000Y-47750000D01*
X233320000Y-47750000D02*
X231650000Y-49420000D01*
X226900000Y-57300000D02*
X226830000Y-57230000D01*
X227900000Y-59695686D02*
X226900000Y-58695686D01*
X229130000Y-62900000D02*
X227900000Y-61670000D01*
X231650000Y-60380000D02*
X229130000Y-62900000D01*
X236800000Y-89250000D02*
X236800000Y-91800000D01*
%TO.N,/SDA*%
X238315000Y-59565000D02*
X240920000Y-59565000D01*
X237850000Y-59100000D02*
X238315000Y-59565000D01*
X236750000Y-55280000D02*
X236750000Y-56250000D01*
X237850000Y-57350000D02*
X237850000Y-59100000D01*
X236750000Y-56250000D02*
X237850000Y-57350000D01*
%TO.N,/SCL*%
X238710000Y-57025000D02*
X238000000Y-56315000D01*
X238000000Y-53990000D02*
X236750000Y-52740000D01*
X240920000Y-57025000D02*
X238710000Y-57025000D01*
X238000000Y-56315000D02*
X238000000Y-53990000D01*
%TO.N,/RX*%
X240800000Y-72150000D02*
X241590000Y-72940000D01*
X238000000Y-66200000D02*
X240800000Y-69000000D01*
X240920000Y-60835000D02*
X238265000Y-60835000D01*
X241590000Y-72940000D02*
X243350000Y-72940000D01*
X240800000Y-69000000D02*
X240800000Y-72150000D01*
X238265000Y-60835000D02*
X238000000Y-61100000D01*
X238000000Y-61100000D02*
X238000000Y-66200000D01*
%TD*%
%TA.AperFunction,Conductor*%
%TO.N,GND*%
G36*
X243766942Y-50870185D02*
G01*
X243787584Y-50886819D01*
X253063181Y-60162416D01*
X253096666Y-60223739D01*
X253099500Y-60250097D01*
X253099500Y-76699902D01*
X253079815Y-76766941D01*
X253063181Y-76787583D01*
X250187584Y-79663181D01*
X250126261Y-79696666D01*
X250099903Y-79699500D01*
X248500331Y-79699500D01*
X248433292Y-79679815D01*
X248387537Y-79627011D01*
X248384149Y-79618832D01*
X248368798Y-79577673D01*
X248368793Y-79577664D01*
X248282547Y-79462455D01*
X248282544Y-79462452D01*
X248167335Y-79376206D01*
X248167328Y-79376202D01*
X248032482Y-79325908D01*
X248032483Y-79325908D01*
X247972883Y-79319501D01*
X247972881Y-79319500D01*
X247972873Y-79319500D01*
X247972864Y-79319500D01*
X244727129Y-79319500D01*
X244727123Y-79319501D01*
X244667516Y-79325908D01*
X244532671Y-79376202D01*
X244532664Y-79376206D01*
X244417455Y-79462452D01*
X244417452Y-79462455D01*
X244331206Y-79577664D01*
X244331202Y-79577671D01*
X244280908Y-79712517D01*
X244274501Y-79772116D01*
X244274500Y-79772135D01*
X244274500Y-80867870D01*
X244274501Y-80867876D01*
X244280908Y-80927483D01*
X244331202Y-81062328D01*
X244331206Y-81062335D01*
X244417452Y-81177544D01*
X244417455Y-81177547D01*
X244532664Y-81263793D01*
X244532671Y-81263797D01*
X244667517Y-81314091D01*
X244667516Y-81314091D01*
X244674444Y-81314835D01*
X244727127Y-81320500D01*
X247972872Y-81320499D01*
X248032483Y-81314091D01*
X248167331Y-81263796D01*
X248282546Y-81177546D01*
X248368796Y-81062331D01*
X248373582Y-81049499D01*
X248399068Y-80981168D01*
X248440939Y-80925234D01*
X248506403Y-80900816D01*
X248515250Y-80900500D01*
X250313331Y-80900500D01*
X250313347Y-80900501D01*
X250320943Y-80900501D01*
X250479054Y-80900501D01*
X250479057Y-80900501D01*
X250631785Y-80859577D01*
X250681904Y-80830639D01*
X250768716Y-80780520D01*
X250880520Y-80668716D01*
X250880520Y-80668714D01*
X250890728Y-80658507D01*
X250890729Y-80658504D01*
X254180520Y-77368716D01*
X254259577Y-77231784D01*
X254300501Y-77079057D01*
X254300501Y-76920942D01*
X254300501Y-76913347D01*
X254300500Y-76913329D01*
X254300500Y-76549097D01*
X254320185Y-76482058D01*
X254372989Y-76436303D01*
X254442147Y-76426359D01*
X254505703Y-76455384D01*
X254512181Y-76461416D01*
X256463181Y-78412416D01*
X256496666Y-78473739D01*
X256499500Y-78500097D01*
X256499500Y-79159897D01*
X256479815Y-79226936D01*
X256427011Y-79272691D01*
X256357853Y-79282635D01*
X256294297Y-79253610D01*
X256276234Y-79234208D01*
X256207547Y-79142455D01*
X256207544Y-79142452D01*
X256092335Y-79056206D01*
X256092328Y-79056202D01*
X255957482Y-79005908D01*
X255957483Y-79005908D01*
X255897883Y-78999501D01*
X255897881Y-78999500D01*
X255897873Y-78999500D01*
X255897864Y-78999500D01*
X253802129Y-78999500D01*
X253802123Y-78999501D01*
X253742516Y-79005908D01*
X253607671Y-79056202D01*
X253607664Y-79056206D01*
X253492455Y-79142452D01*
X253492452Y-79142455D01*
X253406206Y-79257664D01*
X253406202Y-79257671D01*
X253355908Y-79392517D01*
X253349501Y-79452116D01*
X253349500Y-79452135D01*
X253349500Y-81099902D01*
X253329815Y-81166941D01*
X253313181Y-81187583D01*
X251719481Y-82781282D01*
X251719479Y-82781284D01*
X251698163Y-82818206D01*
X251689153Y-82833813D01*
X251640423Y-82918215D01*
X251599499Y-83070943D01*
X251599499Y-83070945D01*
X251599499Y-83239046D01*
X251599500Y-83239059D01*
X251599500Y-86599903D01*
X251579815Y-86666942D01*
X251563181Y-86687584D01*
X246617584Y-91633181D01*
X246556261Y-91666666D01*
X246529903Y-91669500D01*
X241682791Y-91669500D01*
X241615752Y-91649815D01*
X241569997Y-91597011D01*
X241566609Y-91588833D01*
X241543797Y-91527671D01*
X241543793Y-91527664D01*
X241457547Y-91412455D01*
X241457544Y-91412452D01*
X241342335Y-91326206D01*
X241342328Y-91326202D01*
X241207482Y-91275908D01*
X241207483Y-91275908D01*
X241147883Y-91269501D01*
X241147881Y-91269500D01*
X241147873Y-91269500D01*
X241147865Y-91269500D01*
X239929096Y-91269500D01*
X239862057Y-91249815D01*
X239816302Y-91197011D01*
X239806358Y-91127853D01*
X239835383Y-91064297D01*
X239841414Y-91057820D01*
X239883505Y-91015729D01*
X239883510Y-91015725D01*
X239893714Y-91005520D01*
X239893716Y-91005520D01*
X240005520Y-90893716D01*
X240048821Y-90818716D01*
X240063958Y-90792499D01*
X240114525Y-90744283D01*
X240171345Y-90730499D01*
X241147871Y-90730499D01*
X241147872Y-90730499D01*
X241207483Y-90724091D01*
X241342331Y-90673796D01*
X241457546Y-90587546D01*
X241543796Y-90472331D01*
X241594091Y-90337483D01*
X241600500Y-90277873D01*
X241600499Y-89182128D01*
X241594091Y-89122517D01*
X241589353Y-89109815D01*
X241543797Y-88987671D01*
X241543793Y-88987664D01*
X241457547Y-88872455D01*
X241457544Y-88872452D01*
X241342335Y-88786206D01*
X241342328Y-88786202D01*
X241207482Y-88735908D01*
X241207483Y-88735908D01*
X241147883Y-88729501D01*
X241147881Y-88729500D01*
X241147873Y-88729500D01*
X241147864Y-88729500D01*
X237902129Y-88729500D01*
X237902123Y-88729501D01*
X237842516Y-88735908D01*
X237707671Y-88786202D01*
X237707664Y-88786206D01*
X237592455Y-88872452D01*
X237526123Y-88961060D01*
X237470189Y-89002930D01*
X237400497Y-89007914D01*
X237339175Y-88974428D01*
X237319469Y-88948747D01*
X237280521Y-88881286D01*
X237280520Y-88881284D01*
X237168716Y-88769480D01*
X237168715Y-88769479D01*
X237164385Y-88765149D01*
X237164374Y-88765139D01*
X234236819Y-85837584D01*
X234203334Y-85776261D01*
X234200500Y-85749903D01*
X234200500Y-67489060D01*
X234200501Y-67489047D01*
X234200501Y-67320944D01*
X234174049Y-67222226D01*
X234159577Y-67168216D01*
X234091326Y-67050000D01*
X234080524Y-67031290D01*
X234080518Y-67031282D01*
X233758253Y-66709017D01*
X233430699Y-66381464D01*
X233397215Y-66320142D01*
X233395163Y-66307686D01*
X233385368Y-66220745D01*
X233325789Y-66050478D01*
X233229816Y-65897738D01*
X233102262Y-65770184D01*
X232949523Y-65674211D01*
X232779254Y-65614631D01*
X232779249Y-65614630D01*
X232600004Y-65594435D01*
X232599996Y-65594435D01*
X232420750Y-65614630D01*
X232420745Y-65614631D01*
X232250476Y-65674211D01*
X232097737Y-65770184D01*
X231970184Y-65897737D01*
X231874211Y-66050476D01*
X231814631Y-66220745D01*
X231814630Y-66220750D01*
X231794435Y-66399996D01*
X231794435Y-66400003D01*
X231814630Y-66579249D01*
X231814631Y-66579254D01*
X231874211Y-66749523D01*
X231937262Y-66849867D01*
X231970184Y-66902262D01*
X232097738Y-67029816D01*
X232250478Y-67125789D01*
X232420745Y-67185368D01*
X232507669Y-67195161D01*
X232572080Y-67222226D01*
X232581465Y-67230700D01*
X232963181Y-67612416D01*
X232996666Y-67673739D01*
X232999500Y-67700097D01*
X232999500Y-85963330D01*
X232999499Y-85963348D01*
X232999499Y-86093705D01*
X232986216Y-86138938D01*
X233013477Y-86181357D01*
X233014258Y-86184137D01*
X233022874Y-86216292D01*
X233040424Y-86281789D01*
X233040425Y-86281790D01*
X233063030Y-86320942D01*
X233063031Y-86320944D01*
X233119475Y-86418709D01*
X233119481Y-86418717D01*
X233238349Y-86537585D01*
X233238355Y-86537590D01*
X235218584Y-88517819D01*
X235252069Y-88579142D01*
X235247085Y-88648834D01*
X235205213Y-88704767D01*
X235139749Y-88729184D01*
X235130903Y-88729500D01*
X232894500Y-88729500D01*
X232827461Y-88709815D01*
X232781706Y-88657011D01*
X232770500Y-88605500D01*
X232770500Y-86216292D01*
X232783782Y-86171058D01*
X232756522Y-86128640D01*
X232755724Y-86125798D01*
X232729577Y-86028215D01*
X232729577Y-86028214D01*
X232696511Y-85970943D01*
X232650522Y-85891287D01*
X232650521Y-85891286D01*
X232650520Y-85891284D01*
X232538716Y-85779480D01*
X232538715Y-85779479D01*
X232534385Y-85775149D01*
X232534374Y-85775139D01*
X230421941Y-83662706D01*
X230388456Y-83601383D01*
X230389847Y-83542931D01*
X230390320Y-83541167D01*
X230415635Y-83446692D01*
X230435468Y-83220000D01*
X230415635Y-82993308D01*
X230389847Y-82897066D01*
X230391510Y-82827217D01*
X230421939Y-82777294D01*
X230980520Y-82218716D01*
X231059577Y-82081784D01*
X231100501Y-81929057D01*
X231100501Y-81770942D01*
X231100501Y-81763347D01*
X231100500Y-81763329D01*
X231100500Y-77270946D01*
X231100499Y-77270939D01*
X231087103Y-77220943D01*
X231059577Y-77118215D01*
X231005759Y-77025000D01*
X230980520Y-76981284D01*
X230868716Y-76869480D01*
X230868715Y-76869479D01*
X230864385Y-76865149D01*
X230864374Y-76865139D01*
X230537590Y-76538355D01*
X230537588Y-76538352D01*
X230418717Y-76419481D01*
X230418716Y-76419480D01*
X230331904Y-76369360D01*
X230331909Y-76369350D01*
X230331866Y-76369338D01*
X230331215Y-76368962D01*
X230283018Y-76318379D01*
X230269819Y-76249767D01*
X230280869Y-76209197D01*
X230356739Y-76046496D01*
X230415635Y-75826692D01*
X230435468Y-75600000D01*
X230415635Y-75373308D01*
X230356739Y-75153504D01*
X230260568Y-74947266D01*
X230130047Y-74760861D01*
X230130045Y-74760858D01*
X229969141Y-74599954D01*
X229782734Y-74469432D01*
X229782728Y-74469429D01*
X229724725Y-74442382D01*
X229672285Y-74396210D01*
X229653133Y-74329017D01*
X229673348Y-74262135D01*
X229724725Y-74217618D01*
X229782734Y-74190568D01*
X229969139Y-74060047D01*
X230130047Y-73899139D01*
X230260568Y-73712734D01*
X230356739Y-73506496D01*
X230415635Y-73286692D01*
X230435468Y-73060000D01*
X230415635Y-72833308D01*
X230363193Y-72637590D01*
X230356741Y-72613511D01*
X230356738Y-72613502D01*
X230340676Y-72579057D01*
X230260568Y-72407266D01*
X230130047Y-72220861D01*
X230130045Y-72220858D01*
X229969141Y-72059954D01*
X229782734Y-71929432D01*
X229782732Y-71929431D01*
X229771275Y-71924088D01*
X229724132Y-71902105D01*
X229671694Y-71855934D01*
X229652542Y-71788740D01*
X229672758Y-71721859D01*
X229724134Y-71677341D01*
X229782484Y-71650132D01*
X229968820Y-71519657D01*
X230129657Y-71358820D01*
X230260134Y-71172482D01*
X230356265Y-70966326D01*
X230356269Y-70966317D01*
X230408872Y-70770000D01*
X229445686Y-70770000D01*
X229450080Y-70765606D01*
X229502741Y-70674394D01*
X229530000Y-70572661D01*
X229530000Y-70467339D01*
X229502741Y-70365606D01*
X229450080Y-70274394D01*
X229445686Y-70270000D01*
X230408872Y-70270000D01*
X230408872Y-70269999D01*
X230356269Y-70073682D01*
X230356265Y-70073673D01*
X230260134Y-69867517D01*
X230129657Y-69681179D01*
X229968820Y-69520342D01*
X229782482Y-69389865D01*
X229724133Y-69362657D01*
X229671694Y-69316484D01*
X229652542Y-69249291D01*
X229672758Y-69182410D01*
X229724129Y-69137895D01*
X229782734Y-69110568D01*
X229969139Y-68980047D01*
X230130047Y-68819139D01*
X230260568Y-68632734D01*
X230356739Y-68426496D01*
X230415635Y-68206692D01*
X230435468Y-67980000D01*
X230434024Y-67963500D01*
X230415635Y-67753313D01*
X230415635Y-67753308D01*
X230356739Y-67533504D01*
X230260568Y-67327266D01*
X230130047Y-67140861D01*
X230130045Y-67140858D01*
X229969141Y-66979954D01*
X229782734Y-66849432D01*
X229782728Y-66849429D01*
X229724725Y-66822382D01*
X229672285Y-66776210D01*
X229653133Y-66709017D01*
X229673348Y-66642135D01*
X229724725Y-66597618D01*
X229782734Y-66570568D01*
X229969139Y-66440047D01*
X230130047Y-66279139D01*
X230260568Y-66092734D01*
X230356739Y-65886496D01*
X230415635Y-65666692D01*
X230435468Y-65440000D01*
X230415635Y-65213308D01*
X230356739Y-64993504D01*
X230260568Y-64787266D01*
X230130047Y-64600861D01*
X230130045Y-64600858D01*
X229969141Y-64439954D01*
X229782734Y-64309432D01*
X229782728Y-64309429D01*
X229724725Y-64282382D01*
X229672285Y-64236210D01*
X229653133Y-64169017D01*
X229673348Y-64102135D01*
X229724725Y-64057618D01*
X229733912Y-64053334D01*
X229782734Y-64030568D01*
X229969139Y-63900047D01*
X230130047Y-63739139D01*
X230260568Y-63552734D01*
X230356739Y-63346496D01*
X230415635Y-63126692D01*
X230435468Y-62900000D01*
X230415635Y-62673308D01*
X230389847Y-62577066D01*
X230391510Y-62507217D01*
X230421939Y-62457294D01*
X232018713Y-60860521D01*
X232018716Y-60860520D01*
X232130520Y-60748716D01*
X232180639Y-60661904D01*
X232209577Y-60611785D01*
X232250500Y-60459057D01*
X232250500Y-60300943D01*
X232250500Y-52739998D01*
X235444532Y-52739998D01*
X235444532Y-52740001D01*
X235464364Y-52966686D01*
X235464366Y-52966697D01*
X235523258Y-53186488D01*
X235523261Y-53186497D01*
X235619431Y-53392732D01*
X235619432Y-53392734D01*
X235749954Y-53579141D01*
X235910858Y-53740045D01*
X235910861Y-53740047D01*
X236097266Y-53870568D01*
X236155275Y-53897618D01*
X236207714Y-53943791D01*
X236226866Y-54010984D01*
X236206650Y-54077865D01*
X236155275Y-54122382D01*
X236097267Y-54149431D01*
X236097265Y-54149432D01*
X235910858Y-54279954D01*
X235749954Y-54440858D01*
X235619432Y-54627265D01*
X235619431Y-54627267D01*
X235523261Y-54833502D01*
X235523258Y-54833511D01*
X235464366Y-55053302D01*
X235464364Y-55053313D01*
X235444532Y-55279998D01*
X235444532Y-55280001D01*
X235464364Y-55506686D01*
X235464366Y-55506697D01*
X235523258Y-55726488D01*
X235523261Y-55726497D01*
X235619431Y-55932732D01*
X235619432Y-55932734D01*
X235749954Y-56119141D01*
X235910858Y-56280045D01*
X235910861Y-56280047D01*
X236097266Y-56410568D01*
X236133043Y-56427251D01*
X236185481Y-56473421D01*
X236188024Y-56477630D01*
X236197456Y-56493966D01*
X236213930Y-56561866D01*
X236191079Y-56627893D01*
X236142476Y-56668350D01*
X236097266Y-56689431D01*
X235910858Y-56819954D01*
X235749954Y-56980858D01*
X235619432Y-57167265D01*
X235619431Y-57167267D01*
X235523261Y-57373502D01*
X235523258Y-57373511D01*
X235464366Y-57593302D01*
X235464364Y-57593313D01*
X235444532Y-57819998D01*
X235444532Y-57820001D01*
X235464364Y-58046686D01*
X235464366Y-58046697D01*
X235523258Y-58266488D01*
X235523261Y-58266497D01*
X235619431Y-58472732D01*
X235619432Y-58472734D01*
X235749954Y-58659141D01*
X235910858Y-58820045D01*
X235910861Y-58820047D01*
X236097266Y-58950568D01*
X236146088Y-58973334D01*
X236155275Y-58977618D01*
X236207714Y-59023791D01*
X236226866Y-59090984D01*
X236206650Y-59157865D01*
X236155275Y-59202382D01*
X236097267Y-59229431D01*
X236097265Y-59229432D01*
X235910858Y-59359954D01*
X235749954Y-59520858D01*
X235619432Y-59707265D01*
X235619431Y-59707267D01*
X235523261Y-59913502D01*
X235523258Y-59913511D01*
X235464366Y-60133302D01*
X235464364Y-60133313D01*
X235444532Y-60359998D01*
X235444532Y-60360001D01*
X235464364Y-60586686D01*
X235464366Y-60586697D01*
X235523258Y-60806488D01*
X235523261Y-60806497D01*
X235619431Y-61012732D01*
X235619432Y-61012734D01*
X235749954Y-61199141D01*
X235910858Y-61360045D01*
X235910861Y-61360047D01*
X236097266Y-61490568D01*
X236146088Y-61513334D01*
X236155275Y-61517618D01*
X236207714Y-61563791D01*
X236226866Y-61630984D01*
X236206650Y-61697865D01*
X236155275Y-61742382D01*
X236097267Y-61769431D01*
X236097265Y-61769432D01*
X235910858Y-61899954D01*
X235749954Y-62060858D01*
X235619432Y-62247265D01*
X235619431Y-62247267D01*
X235523261Y-62453502D01*
X235523258Y-62453511D01*
X235464366Y-62673302D01*
X235464364Y-62673313D01*
X235444532Y-62899998D01*
X235444532Y-62900001D01*
X235464364Y-63126686D01*
X235464366Y-63126697D01*
X235523258Y-63346488D01*
X235523261Y-63346497D01*
X235619431Y-63552732D01*
X235619432Y-63552734D01*
X235749954Y-63739141D01*
X235910858Y-63900045D01*
X235910861Y-63900047D01*
X236097266Y-64030568D01*
X236146088Y-64053334D01*
X236155275Y-64057618D01*
X236207714Y-64103791D01*
X236226866Y-64170984D01*
X236206650Y-64237865D01*
X236155275Y-64282382D01*
X236097267Y-64309431D01*
X236097265Y-64309432D01*
X235910858Y-64439954D01*
X235749954Y-64600858D01*
X235619432Y-64787265D01*
X235619431Y-64787267D01*
X235523261Y-64993502D01*
X235523258Y-64993511D01*
X235464366Y-65213302D01*
X235464364Y-65213313D01*
X235444532Y-65439998D01*
X235444532Y-65440001D01*
X235464364Y-65666686D01*
X235464366Y-65666697D01*
X235523258Y-65886488D01*
X235523261Y-65886497D01*
X235619431Y-66092732D01*
X235619432Y-66092734D01*
X235749954Y-66279141D01*
X235910858Y-66440045D01*
X235910861Y-66440047D01*
X236097266Y-66570568D01*
X236155865Y-66597893D01*
X236208305Y-66644065D01*
X236227457Y-66711258D01*
X236207242Y-66778139D01*
X236155867Y-66822657D01*
X236097515Y-66849867D01*
X235911179Y-66980342D01*
X235750342Y-67141179D01*
X235619865Y-67327517D01*
X235523734Y-67533673D01*
X235523730Y-67533682D01*
X235471127Y-67729999D01*
X235471128Y-67730000D01*
X236434314Y-67730000D01*
X236429920Y-67734394D01*
X236377259Y-67825606D01*
X236350000Y-67927339D01*
X236350000Y-68032661D01*
X236377259Y-68134394D01*
X236429920Y-68225606D01*
X236434314Y-68230000D01*
X235471128Y-68230000D01*
X235523730Y-68426317D01*
X235523734Y-68426326D01*
X235619865Y-68632482D01*
X235750342Y-68818820D01*
X235911179Y-68979657D01*
X236097518Y-69110134D01*
X236097520Y-69110135D01*
X236155865Y-69137342D01*
X236208305Y-69183514D01*
X236227457Y-69250707D01*
X236207242Y-69317589D01*
X236155867Y-69362105D01*
X236154685Y-69362657D01*
X236097264Y-69389433D01*
X235910858Y-69519954D01*
X235749954Y-69680858D01*
X235619432Y-69867265D01*
X235619431Y-69867267D01*
X235523261Y-70073502D01*
X235523258Y-70073511D01*
X235464366Y-70293302D01*
X235464364Y-70293313D01*
X235444532Y-70519998D01*
X235444532Y-70520001D01*
X235464364Y-70746686D01*
X235464366Y-70746697D01*
X235523258Y-70966488D01*
X235523261Y-70966497D01*
X235619431Y-71172732D01*
X235619432Y-71172734D01*
X235749954Y-71359141D01*
X235910858Y-71520045D01*
X235910861Y-71520047D01*
X236097266Y-71650568D01*
X236154681Y-71677341D01*
X236155275Y-71677618D01*
X236207714Y-71723791D01*
X236226866Y-71790984D01*
X236206650Y-71857865D01*
X236155275Y-71902381D01*
X236145322Y-71907023D01*
X236097267Y-71929431D01*
X236097265Y-71929432D01*
X235910858Y-72059954D01*
X235749954Y-72220858D01*
X235619432Y-72407265D01*
X235619431Y-72407267D01*
X235523261Y-72613502D01*
X235523258Y-72613511D01*
X235464366Y-72833302D01*
X235464364Y-72833313D01*
X235444532Y-73059998D01*
X235444532Y-73060001D01*
X235464364Y-73286686D01*
X235464366Y-73286697D01*
X235523258Y-73506488D01*
X235523261Y-73506497D01*
X235619431Y-73712732D01*
X235619432Y-73712734D01*
X235749954Y-73899141D01*
X235910858Y-74060045D01*
X235910861Y-74060047D01*
X236097266Y-74190568D01*
X236155275Y-74217618D01*
X236207714Y-74263791D01*
X236226866Y-74330984D01*
X236206650Y-74397865D01*
X236155275Y-74442382D01*
X236097267Y-74469431D01*
X236097265Y-74469432D01*
X235910858Y-74599954D01*
X235749954Y-74760858D01*
X235619432Y-74947265D01*
X235619431Y-74947267D01*
X235523261Y-75153502D01*
X235523258Y-75153511D01*
X235464366Y-75373302D01*
X235464364Y-75373313D01*
X235444532Y-75599998D01*
X235444532Y-75600001D01*
X235464364Y-75826686D01*
X235464366Y-75826697D01*
X235523258Y-76046488D01*
X235523261Y-76046497D01*
X235619431Y-76252732D01*
X235619432Y-76252734D01*
X235749954Y-76439141D01*
X235910858Y-76600045D01*
X235957693Y-76632839D01*
X236097266Y-76730568D01*
X236155275Y-76757618D01*
X236207714Y-76803791D01*
X236226866Y-76870984D01*
X236206650Y-76937865D01*
X236155275Y-76982382D01*
X236097267Y-77009431D01*
X236097265Y-77009432D01*
X235910858Y-77139954D01*
X235749954Y-77300858D01*
X235619432Y-77487265D01*
X235619431Y-77487267D01*
X235523261Y-77693502D01*
X235523258Y-77693511D01*
X235464366Y-77913302D01*
X235464364Y-77913313D01*
X235444532Y-78139998D01*
X235444532Y-78140001D01*
X235464364Y-78366686D01*
X235464366Y-78366697D01*
X235523258Y-78586488D01*
X235523261Y-78586497D01*
X235619431Y-78792732D01*
X235619432Y-78792734D01*
X235749954Y-78979141D01*
X235910858Y-79140045D01*
X235914300Y-79142455D01*
X236097266Y-79270568D01*
X236123144Y-79282635D01*
X236155275Y-79297618D01*
X236207714Y-79343791D01*
X236226866Y-79410984D01*
X236206650Y-79477865D01*
X236155275Y-79522382D01*
X236097267Y-79549431D01*
X236097265Y-79549432D01*
X235910858Y-79679954D01*
X235749954Y-79840858D01*
X235619432Y-80027265D01*
X235619431Y-80027267D01*
X235523261Y-80233502D01*
X235523258Y-80233511D01*
X235464366Y-80453302D01*
X235464364Y-80453313D01*
X235444532Y-80679998D01*
X235444532Y-80680001D01*
X235464364Y-80906686D01*
X235464366Y-80906697D01*
X235523258Y-81126488D01*
X235523261Y-81126497D01*
X235619431Y-81332732D01*
X235619432Y-81332734D01*
X235749954Y-81519141D01*
X235910858Y-81680045D01*
X235910861Y-81680047D01*
X236097266Y-81810568D01*
X236155275Y-81837618D01*
X236207714Y-81883791D01*
X236226866Y-81950984D01*
X236206650Y-82017865D01*
X236155275Y-82062382D01*
X236097267Y-82089431D01*
X236097265Y-82089432D01*
X235910858Y-82219954D01*
X235749954Y-82380858D01*
X235619432Y-82567265D01*
X235619431Y-82567267D01*
X235523261Y-82773502D01*
X235523258Y-82773511D01*
X235464366Y-82993302D01*
X235464364Y-82993313D01*
X235444532Y-83219998D01*
X235444532Y-83220001D01*
X235464364Y-83446686D01*
X235464366Y-83446697D01*
X235523258Y-83666488D01*
X235523261Y-83666497D01*
X235619431Y-83872732D01*
X235619432Y-83872734D01*
X235749954Y-84059141D01*
X235910858Y-84220045D01*
X235910861Y-84220047D01*
X236097266Y-84350568D01*
X236155275Y-84377618D01*
X236207714Y-84423791D01*
X236226866Y-84490984D01*
X236206650Y-84557865D01*
X236155275Y-84602382D01*
X236097267Y-84629431D01*
X236097265Y-84629432D01*
X235910858Y-84759954D01*
X235749954Y-84920858D01*
X235619432Y-85107265D01*
X235619431Y-85107267D01*
X235523261Y-85313502D01*
X235523258Y-85313511D01*
X235464366Y-85533302D01*
X235464364Y-85533313D01*
X235444532Y-85759998D01*
X235444532Y-85760001D01*
X235464364Y-85986686D01*
X235464366Y-85986697D01*
X235523258Y-86206488D01*
X235523261Y-86206497D01*
X235619431Y-86412732D01*
X235619432Y-86412734D01*
X235749954Y-86599141D01*
X235910858Y-86760045D01*
X235910861Y-86760047D01*
X236097266Y-86890568D01*
X236303504Y-86986739D01*
X236523308Y-87045635D01*
X236685230Y-87059801D01*
X236749998Y-87065468D01*
X236750000Y-87065468D01*
X236750002Y-87065468D01*
X236806673Y-87060509D01*
X236976692Y-87045635D01*
X237196496Y-86986739D01*
X237402734Y-86890568D01*
X237589139Y-86760047D01*
X237750047Y-86599139D01*
X237880568Y-86412734D01*
X237976739Y-86206496D01*
X238035635Y-85986692D01*
X238054705Y-85768717D01*
X238055468Y-85760001D01*
X238055468Y-85759998D01*
X238047481Y-85668709D01*
X238035635Y-85533308D01*
X237976739Y-85313504D01*
X237880568Y-85107266D01*
X237750047Y-84920861D01*
X237750045Y-84920858D01*
X237589141Y-84759954D01*
X237402734Y-84629432D01*
X237402728Y-84629429D01*
X237344725Y-84602382D01*
X237292285Y-84556210D01*
X237273133Y-84489017D01*
X237293348Y-84422135D01*
X237344725Y-84377618D01*
X237402734Y-84350568D01*
X237589139Y-84220047D01*
X237750047Y-84059139D01*
X237880568Y-83872734D01*
X237976739Y-83666496D01*
X238035635Y-83446692D01*
X238055468Y-83220000D01*
X238048219Y-83137150D01*
X238061985Y-83068653D01*
X238110600Y-83018470D01*
X238178628Y-83002536D01*
X238244472Y-83025911D01*
X238259428Y-83038664D01*
X238561284Y-83340520D01*
X238561286Y-83340521D01*
X238561290Y-83340524D01*
X238638974Y-83385374D01*
X238698216Y-83419577D01*
X238850943Y-83460501D01*
X238850945Y-83460501D01*
X239016654Y-83460501D01*
X239016670Y-83460500D01*
X239142209Y-83460500D01*
X239209248Y-83480185D01*
X239255003Y-83532989D01*
X239258391Y-83541167D01*
X239281202Y-83602328D01*
X239281206Y-83602335D01*
X239367452Y-83717544D01*
X239367455Y-83717547D01*
X239482664Y-83803793D01*
X239482671Y-83803797D01*
X239617517Y-83854091D01*
X239617516Y-83854091D01*
X239624444Y-83854835D01*
X239677127Y-83860500D01*
X242922872Y-83860499D01*
X242982483Y-83854091D01*
X243117331Y-83803796D01*
X243232546Y-83717546D01*
X243318796Y-83602331D01*
X243346191Y-83528881D01*
X243359318Y-83493686D01*
X243401189Y-83437752D01*
X243466653Y-83413335D01*
X243534926Y-83428186D01*
X243584332Y-83477591D01*
X243599500Y-83537019D01*
X243599500Y-84722980D01*
X243579815Y-84790019D01*
X243527011Y-84835774D01*
X243457853Y-84845718D01*
X243394297Y-84816693D01*
X243359318Y-84766313D01*
X243318797Y-84657671D01*
X243318793Y-84657664D01*
X243232547Y-84542455D01*
X243232544Y-84542452D01*
X243117335Y-84456206D01*
X243117328Y-84456202D01*
X242982482Y-84405908D01*
X242982483Y-84405908D01*
X242922883Y-84399501D01*
X242922881Y-84399500D01*
X242922873Y-84399500D01*
X242922864Y-84399500D01*
X239677129Y-84399500D01*
X239677123Y-84399501D01*
X239617516Y-84405908D01*
X239482671Y-84456202D01*
X239482664Y-84456206D01*
X239367455Y-84542452D01*
X239367452Y-84542455D01*
X239281206Y-84657664D01*
X239281202Y-84657671D01*
X239230908Y-84792517D01*
X239226258Y-84835774D01*
X239224501Y-84852123D01*
X239224500Y-84852135D01*
X239224500Y-85947870D01*
X239224501Y-85947876D01*
X239230908Y-86007483D01*
X239281202Y-86142328D01*
X239281206Y-86142335D01*
X239367452Y-86257544D01*
X239367455Y-86257547D01*
X239482664Y-86343793D01*
X239482671Y-86343797D01*
X239617517Y-86394091D01*
X239617516Y-86394091D01*
X239624444Y-86394835D01*
X239677127Y-86400500D01*
X242922872Y-86400499D01*
X242982483Y-86394091D01*
X243117331Y-86343796D01*
X243232546Y-86257546D01*
X243318796Y-86142331D01*
X243369091Y-86007483D01*
X243375500Y-85947873D01*
X243375499Y-85484948D01*
X243395183Y-85417911D01*
X243447987Y-85372156D01*
X243517146Y-85362212D01*
X243580702Y-85391237D01*
X243618476Y-85450015D01*
X243619267Y-85452832D01*
X243636346Y-85516571D01*
X243640424Y-85531789D01*
X243640425Y-85531790D01*
X243662186Y-85569480D01*
X243662187Y-85569482D01*
X243719475Y-85668709D01*
X243719479Y-85668714D01*
X243719480Y-85668716D01*
X243819480Y-85768716D01*
X243931284Y-85880520D01*
X243931286Y-85880521D01*
X243931290Y-85880524D01*
X244047942Y-85947872D01*
X244068216Y-85959577D01*
X244166041Y-85985789D01*
X244220942Y-86000500D01*
X244220943Y-86000500D01*
X244222925Y-86001031D01*
X244282585Y-86037396D01*
X244307013Y-86077473D01*
X244331202Y-86142328D01*
X244331206Y-86142335D01*
X244417452Y-86257544D01*
X244417455Y-86257547D01*
X244532664Y-86343793D01*
X244532671Y-86343797D01*
X244667517Y-86394091D01*
X244667516Y-86394091D01*
X244674444Y-86394835D01*
X244727127Y-86400500D01*
X247972872Y-86400499D01*
X248032483Y-86394091D01*
X248167331Y-86343796D01*
X248282546Y-86257546D01*
X248368796Y-86142331D01*
X248419091Y-86007483D01*
X248425500Y-85947873D01*
X248425499Y-84852128D01*
X248419091Y-84792517D01*
X248418159Y-84790019D01*
X248368797Y-84657671D01*
X248368793Y-84657664D01*
X248282547Y-84542455D01*
X248282544Y-84542452D01*
X248167335Y-84456206D01*
X248167328Y-84456202D01*
X248032482Y-84405908D01*
X248032483Y-84405908D01*
X247972883Y-84399501D01*
X247972881Y-84399500D01*
X247972873Y-84399500D01*
X247972865Y-84399500D01*
X244924500Y-84399500D01*
X244857461Y-84379815D01*
X244811706Y-84327011D01*
X244800500Y-84275500D01*
X244800500Y-83984499D01*
X244820185Y-83917460D01*
X244872989Y-83871705D01*
X244924500Y-83860499D01*
X247972871Y-83860499D01*
X247972872Y-83860499D01*
X248032483Y-83854091D01*
X248167331Y-83803796D01*
X248282546Y-83717546D01*
X248368796Y-83602331D01*
X248419091Y-83467483D01*
X248425500Y-83407873D01*
X248425499Y-82312128D01*
X248419091Y-82252517D01*
X248406945Y-82219953D01*
X248368797Y-82117671D01*
X248368793Y-82117664D01*
X248282547Y-82002455D01*
X248282544Y-82002452D01*
X248167335Y-81916206D01*
X248167328Y-81916202D01*
X248032482Y-81865908D01*
X248032483Y-81865908D01*
X247972883Y-81859501D01*
X247972881Y-81859500D01*
X247972873Y-81859500D01*
X247972864Y-81859500D01*
X244727129Y-81859500D01*
X244727123Y-81859501D01*
X244667514Y-81865909D01*
X244558365Y-81906618D01*
X244488673Y-81911602D01*
X244427352Y-81878117D01*
X243837590Y-81288355D01*
X243837588Y-81288352D01*
X243718717Y-81169481D01*
X243718716Y-81169480D01*
X243609712Y-81106547D01*
X243609711Y-81106546D01*
X243581783Y-81090422D01*
X243513340Y-81072083D01*
X243460070Y-81057809D01*
X243400412Y-81021445D01*
X243369883Y-80958598D01*
X243368877Y-80924778D01*
X243374999Y-80867841D01*
X243375000Y-80867827D01*
X243375000Y-80570000D01*
X241424000Y-80570000D01*
X241356961Y-80550315D01*
X241311206Y-80497511D01*
X241300000Y-80446000D01*
X241300000Y-80320000D01*
X241174000Y-80320000D01*
X241106961Y-80300315D01*
X241061206Y-80247511D01*
X241050000Y-80196000D01*
X241050000Y-80070000D01*
X241550000Y-80070000D01*
X243375000Y-80070000D01*
X243375000Y-79772172D01*
X243374999Y-79772155D01*
X243368598Y-79712627D01*
X243368596Y-79712620D01*
X243318354Y-79577913D01*
X243318350Y-79577906D01*
X243232190Y-79462812D01*
X243232187Y-79462809D01*
X243117093Y-79376649D01*
X243117086Y-79376645D01*
X242982379Y-79326403D01*
X242982372Y-79326401D01*
X242922844Y-79320000D01*
X241550000Y-79320000D01*
X241550000Y-80070000D01*
X241050000Y-80070000D01*
X241050000Y-79320000D01*
X239677155Y-79320000D01*
X239617627Y-79326401D01*
X239617620Y-79326403D01*
X239482913Y-79376645D01*
X239482906Y-79376649D01*
X239367812Y-79462809D01*
X239367809Y-79462812D01*
X239276331Y-79585011D01*
X239274509Y-79583647D01*
X239233923Y-79624232D01*
X239165649Y-79639081D01*
X239100186Y-79614661D01*
X239058317Y-79558726D01*
X239050500Y-79515397D01*
X239050500Y-77220944D01*
X239050499Y-77220941D01*
X239026610Y-77131785D01*
X239022974Y-77118215D01*
X239009577Y-77068215D01*
X238959387Y-76981284D01*
X238930520Y-76931284D01*
X238818716Y-76819480D01*
X238818715Y-76819479D01*
X238814385Y-76815149D01*
X238814374Y-76815139D01*
X238041941Y-76042706D01*
X238008456Y-75981383D01*
X238009847Y-75922931D01*
X238035635Y-75826692D01*
X238055468Y-75600000D01*
X238035635Y-75373308D01*
X237976739Y-75153504D01*
X237880568Y-74947266D01*
X237869973Y-74932135D01*
X241274500Y-74932135D01*
X241274500Y-76027870D01*
X241274501Y-76027876D01*
X241280908Y-76087483D01*
X241331202Y-76222328D01*
X241331206Y-76222335D01*
X241417452Y-76337544D01*
X241417455Y-76337547D01*
X241532664Y-76423793D01*
X241532671Y-76423797D01*
X241667517Y-76474091D01*
X241667516Y-76474091D01*
X241674444Y-76474835D01*
X241727127Y-76480500D01*
X244972872Y-76480499D01*
X245032483Y-76474091D01*
X245167331Y-76423796D01*
X245282546Y-76337546D01*
X245368796Y-76222331D01*
X245419091Y-76087483D01*
X245425500Y-76027873D01*
X245425499Y-74932135D01*
X246324500Y-74932135D01*
X246324500Y-76027870D01*
X246324501Y-76027876D01*
X246330908Y-76087483D01*
X246381202Y-76222328D01*
X246381206Y-76222335D01*
X246467452Y-76337544D01*
X246467455Y-76337547D01*
X246582664Y-76423793D01*
X246582671Y-76423797D01*
X246717517Y-76474091D01*
X246717516Y-76474091D01*
X246724444Y-76474835D01*
X246777127Y-76480500D01*
X250022872Y-76480499D01*
X250082483Y-76474091D01*
X250217331Y-76423796D01*
X250332546Y-76337546D01*
X250418796Y-76222331D01*
X250469091Y-76087483D01*
X250475500Y-76027873D01*
X250475499Y-74932128D01*
X250469091Y-74872517D01*
X250448102Y-74816243D01*
X250418797Y-74737671D01*
X250418793Y-74737664D01*
X250332547Y-74622455D01*
X250332544Y-74622452D01*
X250217335Y-74536206D01*
X250217328Y-74536202D01*
X250082482Y-74485908D01*
X250082483Y-74485908D01*
X250022883Y-74479501D01*
X250022881Y-74479500D01*
X250022873Y-74479500D01*
X250022864Y-74479500D01*
X246777129Y-74479500D01*
X246777123Y-74479501D01*
X246717516Y-74485908D01*
X246582671Y-74536202D01*
X246582664Y-74536206D01*
X246467455Y-74622452D01*
X246467452Y-74622455D01*
X246381206Y-74737664D01*
X246381202Y-74737671D01*
X246330908Y-74872517D01*
X246324501Y-74932116D01*
X246324501Y-74932123D01*
X246324500Y-74932135D01*
X245425499Y-74932135D01*
X245425499Y-74932128D01*
X245419091Y-74872517D01*
X245398102Y-74816243D01*
X245368797Y-74737671D01*
X245368793Y-74737664D01*
X245282547Y-74622455D01*
X245282544Y-74622452D01*
X245167335Y-74536206D01*
X245167328Y-74536202D01*
X245032482Y-74485908D01*
X245032483Y-74485908D01*
X244972883Y-74479501D01*
X244972881Y-74479500D01*
X244972873Y-74479500D01*
X244972864Y-74479500D01*
X241727129Y-74479500D01*
X241727123Y-74479501D01*
X241667516Y-74485908D01*
X241532671Y-74536202D01*
X241532664Y-74536206D01*
X241417455Y-74622452D01*
X241417452Y-74622455D01*
X241331206Y-74737664D01*
X241331202Y-74737671D01*
X241280908Y-74872517D01*
X241274501Y-74932116D01*
X241274501Y-74932123D01*
X241274500Y-74932135D01*
X237869973Y-74932135D01*
X237750047Y-74760861D01*
X237750045Y-74760858D01*
X237589141Y-74599954D01*
X237402734Y-74469432D01*
X237402728Y-74469429D01*
X237344725Y-74442382D01*
X237292285Y-74396210D01*
X237273133Y-74329017D01*
X237293348Y-74262135D01*
X237344725Y-74217618D01*
X237402734Y-74190568D01*
X237589139Y-74060047D01*
X237750047Y-73899139D01*
X237880568Y-73712734D01*
X237976739Y-73506496D01*
X238035635Y-73286692D01*
X238055468Y-73060000D01*
X238035635Y-72833308D01*
X237983193Y-72637590D01*
X237976741Y-72613511D01*
X237976738Y-72613502D01*
X237960676Y-72579057D01*
X237880568Y-72407266D01*
X237750047Y-72220861D01*
X237750045Y-72220858D01*
X237589141Y-72059954D01*
X237402734Y-71929432D01*
X237402728Y-71929429D01*
X237358935Y-71909008D01*
X237344724Y-71902381D01*
X237292285Y-71856210D01*
X237273133Y-71789017D01*
X237293348Y-71722135D01*
X237344725Y-71677618D01*
X237345319Y-71677341D01*
X237402734Y-71650568D01*
X237589139Y-71520047D01*
X237750047Y-71359139D01*
X237880568Y-71172734D01*
X237976739Y-70966496D01*
X238035635Y-70746692D01*
X238052634Y-70552384D01*
X238055468Y-70520001D01*
X238055468Y-70519998D01*
X238046617Y-70418830D01*
X238035635Y-70293308D01*
X237976739Y-70073504D01*
X237880568Y-69867266D01*
X237750047Y-69680861D01*
X237750045Y-69680858D01*
X237589141Y-69519954D01*
X237402734Y-69389432D01*
X237402732Y-69389431D01*
X237345315Y-69362657D01*
X237344132Y-69362105D01*
X237291694Y-69315934D01*
X237272542Y-69248740D01*
X237292758Y-69181859D01*
X237344134Y-69137341D01*
X237402484Y-69110132D01*
X237588820Y-68979657D01*
X237749657Y-68818820D01*
X237880134Y-68632482D01*
X237976265Y-68426326D01*
X237976269Y-68426317D01*
X238028872Y-68230000D01*
X237065686Y-68230000D01*
X237070080Y-68225606D01*
X237122741Y-68134394D01*
X237150000Y-68032661D01*
X237150000Y-67927339D01*
X237122741Y-67825606D01*
X237070080Y-67734394D01*
X237065686Y-67730000D01*
X238028872Y-67730000D01*
X238028872Y-67729999D01*
X237976269Y-67533682D01*
X237976265Y-67533673D01*
X237880134Y-67327517D01*
X237763144Y-67160440D01*
X237740817Y-67094234D01*
X237757827Y-67026466D01*
X237808775Y-66978653D01*
X237877484Y-66965975D01*
X237942141Y-66992456D01*
X237952400Y-67001635D01*
X240163181Y-69212416D01*
X240196666Y-69273739D01*
X240199500Y-69300097D01*
X240199500Y-72063330D01*
X240199499Y-72063348D01*
X240199499Y-72229054D01*
X240199498Y-72229054D01*
X240240424Y-72381789D01*
X240240425Y-72381790D01*
X240263030Y-72420942D01*
X240263031Y-72420944D01*
X240319475Y-72518709D01*
X240319481Y-72518717D01*
X240438349Y-72637585D01*
X240438354Y-72637589D01*
X241221284Y-73420520D01*
X241221286Y-73420521D01*
X241227735Y-73425470D01*
X241225852Y-73427922D01*
X241263961Y-73467889D01*
X241277036Y-73511456D01*
X241280909Y-73547483D01*
X241331202Y-73682328D01*
X241331206Y-73682335D01*
X241417452Y-73797544D01*
X241417455Y-73797547D01*
X241532664Y-73883793D01*
X241532671Y-73883797D01*
X241667517Y-73934091D01*
X241667516Y-73934091D01*
X241674444Y-73934835D01*
X241727127Y-73940500D01*
X244972872Y-73940499D01*
X245032483Y-73934091D01*
X245167331Y-73883796D01*
X245282546Y-73797546D01*
X245368796Y-73682331D01*
X245419091Y-73547483D01*
X245425500Y-73487873D01*
X245425499Y-72392135D01*
X246324500Y-72392135D01*
X246324500Y-73487870D01*
X246324501Y-73487876D01*
X246330908Y-73547483D01*
X246381202Y-73682328D01*
X246381206Y-73682335D01*
X246467452Y-73797544D01*
X246467455Y-73797547D01*
X246582664Y-73883793D01*
X246582671Y-73883797D01*
X246717517Y-73934091D01*
X246717516Y-73934091D01*
X246724444Y-73934835D01*
X246777127Y-73940500D01*
X250022872Y-73940499D01*
X250082483Y-73934091D01*
X250217331Y-73883796D01*
X250332546Y-73797546D01*
X250418796Y-73682331D01*
X250469091Y-73547483D01*
X250475500Y-73487873D01*
X250475499Y-72392128D01*
X250469091Y-72332517D01*
X250418796Y-72197669D01*
X250418795Y-72197668D01*
X250418793Y-72197664D01*
X250332547Y-72082455D01*
X250332544Y-72082452D01*
X250217335Y-71996206D01*
X250217328Y-71996202D01*
X250082482Y-71945908D01*
X250082483Y-71945908D01*
X250022883Y-71939501D01*
X250022881Y-71939500D01*
X250022873Y-71939500D01*
X250022864Y-71939500D01*
X246777129Y-71939500D01*
X246777123Y-71939501D01*
X246717516Y-71945908D01*
X246582671Y-71996202D01*
X246582664Y-71996206D01*
X246467455Y-72082452D01*
X246467452Y-72082455D01*
X246381206Y-72197664D01*
X246381202Y-72197671D01*
X246330908Y-72332517D01*
X246328524Y-72354697D01*
X246324501Y-72392123D01*
X246324500Y-72392135D01*
X245425499Y-72392135D01*
X245425499Y-72392128D01*
X245419091Y-72332517D01*
X245368796Y-72197669D01*
X245368795Y-72197668D01*
X245368793Y-72197664D01*
X245282547Y-72082455D01*
X245282544Y-72082452D01*
X245167335Y-71996206D01*
X245167328Y-71996202D01*
X245032482Y-71945908D01*
X245032483Y-71945908D01*
X244972883Y-71939501D01*
X244972881Y-71939500D01*
X244972873Y-71939500D01*
X244972864Y-71939500D01*
X241727129Y-71939500D01*
X241727123Y-71939501D01*
X241667516Y-71945908D01*
X241580218Y-71978469D01*
X241510526Y-71983453D01*
X241449204Y-71949968D01*
X241436815Y-71937579D01*
X241403333Y-71876254D01*
X241400500Y-71849901D01*
X241400500Y-71472560D01*
X241420185Y-71405521D01*
X241472989Y-71359766D01*
X241542147Y-71349822D01*
X241567834Y-71356378D01*
X241667623Y-71393597D01*
X241667627Y-71393598D01*
X241727155Y-71399999D01*
X241727172Y-71400000D01*
X243100000Y-71400000D01*
X243600000Y-71400000D01*
X244972828Y-71400000D01*
X244972844Y-71399999D01*
X245032372Y-71393598D01*
X245032379Y-71393596D01*
X245167086Y-71343354D01*
X245167093Y-71343350D01*
X245282187Y-71257190D01*
X245282190Y-71257187D01*
X245368350Y-71142093D01*
X245368354Y-71142086D01*
X245418596Y-71007379D01*
X245418598Y-71007372D01*
X245424999Y-70947844D01*
X245425000Y-70947827D01*
X245425000Y-70650000D01*
X243600000Y-70650000D01*
X243600000Y-71400000D01*
X243100000Y-71400000D01*
X243100000Y-70150000D01*
X243600000Y-70150000D01*
X245425000Y-70150000D01*
X245425000Y-69852172D01*
X245424999Y-69852155D01*
X245424997Y-69852135D01*
X246324500Y-69852135D01*
X246324500Y-70947870D01*
X246324501Y-70947876D01*
X246330908Y-71007483D01*
X246381202Y-71142328D01*
X246381206Y-71142335D01*
X246467452Y-71257544D01*
X246467455Y-71257547D01*
X246582664Y-71343793D01*
X246582671Y-71343797D01*
X246717517Y-71394091D01*
X246717516Y-71394091D01*
X246724444Y-71394835D01*
X246777127Y-71400500D01*
X250022872Y-71400499D01*
X250082483Y-71394091D01*
X250217331Y-71343796D01*
X250332546Y-71257546D01*
X250418796Y-71142331D01*
X250469091Y-71007483D01*
X250475500Y-70947873D01*
X250475499Y-69852128D01*
X250469091Y-69792517D01*
X250418884Y-69657906D01*
X250418797Y-69657671D01*
X250418793Y-69657664D01*
X250332547Y-69542455D01*
X250332544Y-69542452D01*
X250217335Y-69456206D01*
X250217328Y-69456202D01*
X250082482Y-69405908D01*
X250082483Y-69405908D01*
X250022883Y-69399501D01*
X250022881Y-69399500D01*
X250022873Y-69399500D01*
X250022864Y-69399500D01*
X246777129Y-69399500D01*
X246777123Y-69399501D01*
X246717516Y-69405908D01*
X246582671Y-69456202D01*
X246582664Y-69456206D01*
X246467455Y-69542452D01*
X246467452Y-69542455D01*
X246381206Y-69657664D01*
X246381202Y-69657671D01*
X246330908Y-69792517D01*
X246324501Y-69852116D01*
X246324501Y-69852123D01*
X246324500Y-69852135D01*
X245424997Y-69852135D01*
X245418598Y-69792627D01*
X245418596Y-69792620D01*
X245368354Y-69657913D01*
X245368350Y-69657906D01*
X245282190Y-69542812D01*
X245282187Y-69542809D01*
X245167093Y-69456649D01*
X245167086Y-69456645D01*
X245032379Y-69406403D01*
X245032372Y-69406401D01*
X244972844Y-69400000D01*
X243600000Y-69400000D01*
X243600000Y-70150000D01*
X243100000Y-70150000D01*
X243100000Y-69400000D01*
X241727155Y-69400000D01*
X241667627Y-69406401D01*
X241667619Y-69406403D01*
X241567833Y-69443621D01*
X241498141Y-69448605D01*
X241436818Y-69415120D01*
X241403334Y-69353796D01*
X241400500Y-69327439D01*
X241400500Y-69089059D01*
X241400501Y-69089046D01*
X241400501Y-68920945D01*
X241400501Y-68920943D01*
X241359577Y-68768215D01*
X241330639Y-68718095D01*
X241280520Y-68631284D01*
X241168716Y-68519480D01*
X241168715Y-68519479D01*
X241164385Y-68515149D01*
X241164374Y-68515139D01*
X238636819Y-65987584D01*
X238603334Y-65926261D01*
X238600500Y-65899903D01*
X238600500Y-65649000D01*
X238620185Y-65581961D01*
X238672989Y-65536206D01*
X238724500Y-65525000D01*
X240670000Y-65525000D01*
X241170000Y-65525000D01*
X243467828Y-65525000D01*
X243467844Y-65524999D01*
X243527372Y-65518598D01*
X243527379Y-65518596D01*
X243662086Y-65468354D01*
X243662093Y-65468350D01*
X243777187Y-65382190D01*
X243777190Y-65382187D01*
X243863350Y-65267093D01*
X243863354Y-65267086D01*
X243913596Y-65132379D01*
X243913598Y-65132372D01*
X243919999Y-65072844D01*
X243920000Y-65072827D01*
X243920000Y-64895000D01*
X241170000Y-64895000D01*
X241170000Y-65525000D01*
X240670000Y-65525000D01*
X240670000Y-64395000D01*
X241170000Y-64395000D01*
X243920000Y-64395000D01*
X243920000Y-64217172D01*
X243919999Y-64217155D01*
X243913598Y-64157627D01*
X243913597Y-64157623D01*
X243874699Y-64053334D01*
X243869715Y-63983643D01*
X243874699Y-63966666D01*
X243913597Y-63862376D01*
X243913598Y-63862372D01*
X243919999Y-63802844D01*
X243920000Y-63802827D01*
X243920000Y-63625000D01*
X241170000Y-63625000D01*
X241170000Y-64395000D01*
X240670000Y-64395000D01*
X240670000Y-63499000D01*
X240689685Y-63431961D01*
X240742489Y-63386206D01*
X240794000Y-63375000D01*
X240920000Y-63375000D01*
X240920000Y-63249000D01*
X240939685Y-63181961D01*
X240992489Y-63136206D01*
X241044000Y-63125000D01*
X243920000Y-63125000D01*
X243920000Y-62947172D01*
X243919999Y-62947155D01*
X243913598Y-62887627D01*
X243913597Y-62887623D01*
X243874966Y-62784049D01*
X243869982Y-62714357D01*
X243874966Y-62697382D01*
X243914091Y-62592482D01*
X243920500Y-62532873D01*
X243920499Y-61677128D01*
X243914091Y-61617517D01*
X243875231Y-61513329D01*
X243870248Y-61443642D01*
X243875227Y-61426682D01*
X243914091Y-61322483D01*
X243920500Y-61262873D01*
X243920499Y-60407128D01*
X243914091Y-60347517D01*
X243875231Y-60243329D01*
X243870248Y-60173642D01*
X243875227Y-60156682D01*
X243914091Y-60052483D01*
X243920500Y-59992873D01*
X243920499Y-59137128D01*
X243914091Y-59077517D01*
X243875231Y-58973329D01*
X243870248Y-58903642D01*
X243875227Y-58886682D01*
X243914091Y-58782483D01*
X243920500Y-58722873D01*
X243920499Y-57867128D01*
X243914091Y-57807517D01*
X243875231Y-57703329D01*
X243870248Y-57633642D01*
X243875227Y-57616682D01*
X243914091Y-57512483D01*
X243920500Y-57452873D01*
X243920499Y-56597128D01*
X243914091Y-56537517D01*
X243875231Y-56433329D01*
X243870248Y-56363642D01*
X243875227Y-56346682D01*
X243914091Y-56242483D01*
X243920500Y-56182873D01*
X243920499Y-55327128D01*
X243914091Y-55267517D01*
X243863796Y-55132669D01*
X243863795Y-55132668D01*
X243863793Y-55132664D01*
X243777547Y-55017455D01*
X243777544Y-55017452D01*
X243662335Y-54931206D01*
X243662328Y-54931202D01*
X243527482Y-54880908D01*
X243527483Y-54880908D01*
X243467883Y-54874501D01*
X243467881Y-54874500D01*
X243467873Y-54874500D01*
X243467865Y-54874500D01*
X238724500Y-54874500D01*
X238657461Y-54854815D01*
X238611706Y-54802011D01*
X238600500Y-54750500D01*
X238600500Y-54079059D01*
X238600501Y-54079046D01*
X238600501Y-53910945D01*
X238600501Y-53910943D01*
X238559577Y-53758215D01*
X238508346Y-53669481D01*
X238480520Y-53621284D01*
X238368716Y-53509480D01*
X238368715Y-53509479D01*
X238364385Y-53505149D01*
X238364374Y-53505139D01*
X238041941Y-53182706D01*
X238008456Y-53121383D01*
X238009847Y-53062931D01*
X238012111Y-53054482D01*
X238035635Y-52966692D01*
X238055468Y-52740000D01*
X238035635Y-52513308D01*
X237976739Y-52293504D01*
X237880568Y-52087266D01*
X237750047Y-51900861D01*
X237750045Y-51900858D01*
X237589141Y-51739954D01*
X237402734Y-51609432D01*
X237402732Y-51609431D01*
X237196497Y-51513261D01*
X237196488Y-51513258D01*
X236976697Y-51454366D01*
X236976693Y-51454365D01*
X236976692Y-51454365D01*
X236976691Y-51454364D01*
X236976686Y-51454364D01*
X236750002Y-51434532D01*
X236749998Y-51434532D01*
X236523313Y-51454364D01*
X236523302Y-51454366D01*
X236303511Y-51513258D01*
X236303502Y-51513261D01*
X236097267Y-51609431D01*
X236097265Y-51609432D01*
X235910858Y-51739954D01*
X235749954Y-51900858D01*
X235619432Y-52087265D01*
X235619431Y-52087267D01*
X235523261Y-52293502D01*
X235523258Y-52293511D01*
X235464366Y-52513302D01*
X235464364Y-52513313D01*
X235444532Y-52739998D01*
X232250500Y-52739998D01*
X232250500Y-51177476D01*
X232270185Y-51110437D01*
X232322989Y-51064682D01*
X232388385Y-51054256D01*
X232400000Y-51055565D01*
X232400001Y-51055564D01*
X232400002Y-51055565D01*
X232400004Y-51055565D01*
X232579249Y-51035369D01*
X232579252Y-51035368D01*
X232579255Y-51035368D01*
X232749522Y-50975789D01*
X232902262Y-50879816D01*
X232902267Y-50879810D01*
X232905097Y-50877555D01*
X232907275Y-50876665D01*
X232908158Y-50876111D01*
X232908255Y-50876265D01*
X232969783Y-50851145D01*
X232982412Y-50850500D01*
X243699903Y-50850500D01*
X243766942Y-50870185D01*
G37*
%TD.AperFunction*%
%TA.AperFunction,Conductor*%
G36*
X226668834Y-61978772D02*
G01*
X226724767Y-62020644D01*
X226749184Y-62086108D01*
X226749500Y-62094954D01*
X226749500Y-63573330D01*
X226749499Y-63573348D01*
X226749499Y-63739054D01*
X226749498Y-63739054D01*
X226790423Y-63891785D01*
X226819358Y-63941900D01*
X226819359Y-63941904D01*
X226819360Y-63941904D01*
X226869479Y-64028714D01*
X226869481Y-64028717D01*
X226988349Y-64147585D01*
X226988355Y-64147590D01*
X227838058Y-64997293D01*
X227871543Y-65058616D01*
X227870152Y-65117067D01*
X227844366Y-65213302D01*
X227844364Y-65213313D01*
X227824532Y-65439998D01*
X227824532Y-65440001D01*
X227844364Y-65666686D01*
X227844366Y-65666697D01*
X227903258Y-65886488D01*
X227903261Y-65886497D01*
X227999431Y-66092732D01*
X227999432Y-66092734D01*
X228129954Y-66279141D01*
X228290858Y-66440045D01*
X228290861Y-66440047D01*
X228477266Y-66570568D01*
X228535275Y-66597618D01*
X228587714Y-66643791D01*
X228606866Y-66710984D01*
X228586650Y-66777865D01*
X228535275Y-66822382D01*
X228477267Y-66849431D01*
X228477265Y-66849432D01*
X228290861Y-66979952D01*
X228289993Y-66980681D01*
X228289533Y-66980882D01*
X228286426Y-66983058D01*
X228285988Y-66982433D01*
X228225984Y-67008694D01*
X228156992Y-66997653D01*
X228122607Y-66973372D01*
X228087590Y-66938355D01*
X228087588Y-66938352D01*
X227968718Y-66819482D01*
X227968716Y-66819480D01*
X227958698Y-66813696D01*
X227937497Y-66801455D01*
X227889282Y-66750887D01*
X227875499Y-66694069D01*
X227875499Y-66599998D01*
X227875498Y-66599981D01*
X227864999Y-66497203D01*
X227864998Y-66497200D01*
X227846059Y-66440047D01*
X227809814Y-66330666D01*
X227717712Y-66181344D01*
X227593656Y-66057288D01*
X227444334Y-65965186D01*
X227277797Y-65910001D01*
X227277795Y-65910000D01*
X227175010Y-65899500D01*
X226424998Y-65899500D01*
X226424980Y-65899501D01*
X226322203Y-65910000D01*
X226322200Y-65910001D01*
X226155668Y-65965185D01*
X226155663Y-65965187D01*
X226006342Y-66057289D01*
X225882289Y-66181342D01*
X225790187Y-66330663D01*
X225790185Y-66330668D01*
X225773353Y-66381465D01*
X225735001Y-66497203D01*
X225735001Y-66497204D01*
X225735000Y-66497204D01*
X225724500Y-66599983D01*
X225724500Y-68000001D01*
X225724501Y-68000018D01*
X225735000Y-68102796D01*
X225735001Y-68102799D01*
X225739793Y-68117259D01*
X225790186Y-68269334D01*
X225882288Y-68418656D01*
X226006344Y-68542712D01*
X226155666Y-68634814D01*
X226322203Y-68689999D01*
X226424991Y-68700500D01*
X227175008Y-68700499D01*
X227175016Y-68700498D01*
X227175019Y-68700498D01*
X227231302Y-68694748D01*
X227277797Y-68689999D01*
X227444334Y-68634814D01*
X227593656Y-68542712D01*
X227705887Y-68430480D01*
X227767206Y-68396998D01*
X227836898Y-68401982D01*
X227881245Y-68430481D01*
X227910519Y-68459755D01*
X227935219Y-68495030D01*
X227999431Y-68632732D01*
X227999432Y-68632734D01*
X228129954Y-68819141D01*
X228290858Y-68980045D01*
X228290861Y-68980047D01*
X228477266Y-69110568D01*
X228535865Y-69137893D01*
X228588305Y-69184065D01*
X228607457Y-69251258D01*
X228587242Y-69318139D01*
X228535867Y-69362657D01*
X228477515Y-69389867D01*
X228291179Y-69520342D01*
X228130342Y-69681179D01*
X227999865Y-69867517D01*
X227903734Y-70073673D01*
X227903730Y-70073682D01*
X227851127Y-70269999D01*
X227851128Y-70270000D01*
X228814314Y-70270000D01*
X228809920Y-70274394D01*
X228757259Y-70365606D01*
X228730000Y-70467339D01*
X228730000Y-70572661D01*
X228757259Y-70674394D01*
X228809920Y-70765606D01*
X228814314Y-70770000D01*
X227851128Y-70770000D01*
X227903730Y-70966317D01*
X227903734Y-70966326D01*
X227999865Y-71172482D01*
X228130342Y-71358820D01*
X228291179Y-71519657D01*
X228477518Y-71650134D01*
X228477520Y-71650135D01*
X228535865Y-71677342D01*
X228588305Y-71723514D01*
X228607457Y-71790707D01*
X228587242Y-71857589D01*
X228535867Y-71902105D01*
X228477268Y-71929431D01*
X228477264Y-71929433D01*
X228290858Y-72059954D01*
X228129954Y-72220858D01*
X227999432Y-72407265D01*
X227999431Y-72407267D01*
X227903261Y-72613502D01*
X227903258Y-72613511D01*
X227844366Y-72833302D01*
X227844364Y-72833313D01*
X227824532Y-73059998D01*
X227824532Y-73060001D01*
X227844364Y-73286686D01*
X227844366Y-73286697D01*
X227903258Y-73506488D01*
X227903261Y-73506497D01*
X227999431Y-73712732D01*
X227999432Y-73712734D01*
X228129954Y-73899141D01*
X228290858Y-74060045D01*
X228290861Y-74060047D01*
X228477266Y-74190568D01*
X228535275Y-74217618D01*
X228587714Y-74263791D01*
X228606866Y-74330984D01*
X228586650Y-74397865D01*
X228535275Y-74442382D01*
X228477267Y-74469431D01*
X228477265Y-74469432D01*
X228290858Y-74599954D01*
X228129954Y-74760858D01*
X227999432Y-74947265D01*
X227999431Y-74947267D01*
X227903261Y-75153502D01*
X227903258Y-75153511D01*
X227844366Y-75373302D01*
X227844364Y-75373313D01*
X227824532Y-75599998D01*
X227824532Y-75600001D01*
X227844364Y-75826686D01*
X227844366Y-75826697D01*
X227903258Y-76046488D01*
X227903263Y-76046502D01*
X227947645Y-76141679D01*
X227958137Y-76210756D01*
X227929617Y-76274540D01*
X227871140Y-76312779D01*
X227867377Y-76313852D01*
X227837784Y-76321782D01*
X227768214Y-76340423D01*
X227768209Y-76340426D01*
X227631290Y-76419475D01*
X227631282Y-76419481D01*
X226559128Y-77491635D01*
X226497805Y-77525120D01*
X226428113Y-77520136D01*
X226372180Y-77478264D01*
X226347763Y-77412800D01*
X226351671Y-77371864D01*
X226386207Y-77242977D01*
X226405277Y-77025000D01*
X226386207Y-76807023D01*
X226329575Y-76595670D01*
X226237102Y-76397362D01*
X226237100Y-76397359D01*
X226237099Y-76397357D01*
X226111599Y-76218124D01*
X226035154Y-76141679D01*
X225956877Y-76063402D01*
X225777639Y-75937898D01*
X225777640Y-75937898D01*
X225777638Y-75937897D01*
X225678484Y-75891661D01*
X225579330Y-75845425D01*
X225579326Y-75845424D01*
X225579322Y-75845422D01*
X225367977Y-75788793D01*
X225150002Y-75769723D01*
X225149998Y-75769723D01*
X225004682Y-75782436D01*
X224932023Y-75788793D01*
X224932020Y-75788793D01*
X224720677Y-75845422D01*
X224720668Y-75845426D01*
X224522361Y-75937898D01*
X224522357Y-75937900D01*
X224343121Y-76063402D01*
X224188402Y-76218121D01*
X224062898Y-76397360D01*
X224062897Y-76397362D01*
X224011350Y-76507905D01*
X223965177Y-76560344D01*
X223898968Y-76579500D01*
X222767844Y-76579500D01*
X222700805Y-76559815D01*
X222655050Y-76507011D01*
X222653334Y-76495078D01*
X222634505Y-76470000D01*
X222328352Y-76470000D01*
X222265233Y-76452732D01*
X222256395Y-76447506D01*
X222256393Y-76447505D01*
X222256389Y-76447503D01*
X222100997Y-76402357D01*
X222100991Y-76402356D01*
X222064697Y-76399500D01*
X222064690Y-76399500D01*
X221595310Y-76399500D01*
X221595302Y-76399500D01*
X221559008Y-76402356D01*
X221559002Y-76402357D01*
X221403610Y-76447503D01*
X221403605Y-76447506D01*
X221394766Y-76452732D01*
X221331648Y-76470000D01*
X221025496Y-76470000D01*
X221067968Y-76616194D01*
X221079911Y-76636389D01*
X221097092Y-76704113D01*
X221079911Y-76762628D01*
X221067506Y-76783604D01*
X221067504Y-76783609D01*
X221022357Y-76939002D01*
X221022356Y-76939008D01*
X221019500Y-76975302D01*
X221019500Y-77384697D01*
X221022356Y-77420991D01*
X221022357Y-77420997D01*
X221067504Y-77576390D01*
X221067505Y-77576393D01*
X221149881Y-77715684D01*
X221149887Y-77715692D01*
X221264307Y-77830112D01*
X221264311Y-77830115D01*
X221264313Y-77830117D01*
X221403605Y-77912494D01*
X221444587Y-77924400D01*
X221559002Y-77957642D01*
X221559005Y-77957642D01*
X221559007Y-77957643D01*
X221595310Y-77960500D01*
X221595318Y-77960500D01*
X222064682Y-77960500D01*
X222064690Y-77960500D01*
X222100993Y-77957643D01*
X222100995Y-77957642D01*
X222100997Y-77957642D01*
X222141975Y-77945736D01*
X222256395Y-77912494D01*
X222395687Y-77830117D01*
X222398077Y-77827727D01*
X222408986Y-77816819D01*
X222470309Y-77783334D01*
X222496667Y-77780500D01*
X224087877Y-77780500D01*
X224154916Y-77800185D01*
X224184202Y-77828329D01*
X224184920Y-77827727D01*
X224188399Y-77831873D01*
X224188402Y-77831877D01*
X224343123Y-77986598D01*
X224522361Y-78112102D01*
X224720670Y-78204575D01*
X224932023Y-78261207D01*
X225114926Y-78277208D01*
X225149998Y-78280277D01*
X225150000Y-78280277D01*
X225150002Y-78280277D01*
X225178254Y-78277805D01*
X225367977Y-78261207D01*
X225579330Y-78204575D01*
X225777639Y-78112102D01*
X225904375Y-78023359D01*
X225970581Y-78001032D01*
X226038348Y-78018042D01*
X226086162Y-78068989D01*
X226099499Y-78124934D01*
X226099499Y-78289046D01*
X226099500Y-78289059D01*
X226099500Y-81595500D01*
X226079815Y-81662539D01*
X226027011Y-81708294D01*
X225975500Y-81719500D01*
X222937129Y-81719500D01*
X222937123Y-81719501D01*
X222877516Y-81725908D01*
X222742671Y-81776202D01*
X222742664Y-81776206D01*
X222627455Y-81862452D01*
X222627452Y-81862455D01*
X222541206Y-81977664D01*
X222541202Y-81977671D01*
X222490908Y-82112517D01*
X222484501Y-82172116D01*
X222484500Y-82172135D01*
X222484500Y-83267870D01*
X222484554Y-83268859D01*
X222484500Y-83269083D01*
X222484501Y-83271193D01*
X222484003Y-83271193D01*
X222468488Y-83336856D01*
X222418210Y-83385374D01*
X222360732Y-83399500D01*
X221708767Y-83399500D01*
X221641728Y-83379815D01*
X221595973Y-83327011D01*
X221585376Y-83271149D01*
X221585000Y-83271149D01*
X221585000Y-83269164D01*
X221584944Y-83268869D01*
X221585000Y-83267823D01*
X221585000Y-82970000D01*
X219634000Y-82970000D01*
X219566961Y-82950315D01*
X219521206Y-82897511D01*
X219510000Y-82846000D01*
X219510000Y-82720000D01*
X219384000Y-82720000D01*
X219316961Y-82700315D01*
X219271206Y-82647511D01*
X219260000Y-82596000D01*
X219260000Y-82470000D01*
X219760000Y-82470000D01*
X221585000Y-82470000D01*
X221585000Y-82172172D01*
X221584999Y-82172155D01*
X221578598Y-82112627D01*
X221578596Y-82112620D01*
X221528354Y-81977913D01*
X221528350Y-81977906D01*
X221442190Y-81862812D01*
X221442187Y-81862809D01*
X221327093Y-81776649D01*
X221327086Y-81776645D01*
X221192379Y-81726403D01*
X221192372Y-81726401D01*
X221132844Y-81720000D01*
X219760000Y-81720000D01*
X219760000Y-82470000D01*
X219260000Y-82470000D01*
X219260000Y-81720000D01*
X217887155Y-81720000D01*
X217827627Y-81726401D01*
X217827617Y-81726403D01*
X217767832Y-81748702D01*
X217698141Y-81753686D01*
X217636818Y-81720200D01*
X217603334Y-81658877D01*
X217600500Y-81632520D01*
X217600500Y-75970000D01*
X221025496Y-75970000D01*
X221580000Y-75970000D01*
X222080000Y-75970000D01*
X222634504Y-75970000D01*
X222592031Y-75823804D01*
X222509721Y-75684625D01*
X222509714Y-75684616D01*
X222395383Y-75570285D01*
X222395374Y-75570278D01*
X222256195Y-75487968D01*
X222256190Y-75487966D01*
X222100918Y-75442855D01*
X222100912Y-75442854D01*
X222080000Y-75441209D01*
X222080000Y-75970000D01*
X221580000Y-75970000D01*
X221580000Y-75441210D01*
X221579999Y-75441209D01*
X221559087Y-75442854D01*
X221559081Y-75442855D01*
X221403809Y-75487966D01*
X221403804Y-75487968D01*
X221264625Y-75570278D01*
X221264616Y-75570285D01*
X221150285Y-75684616D01*
X221150278Y-75684625D01*
X221067968Y-75823804D01*
X221025496Y-75970000D01*
X217600500Y-75970000D01*
X217600500Y-73600096D01*
X217620185Y-73533057D01*
X217636815Y-73512419D01*
X217789234Y-73360000D01*
X221015496Y-73360000D01*
X221057968Y-73506195D01*
X221140278Y-73645374D01*
X221140285Y-73645383D01*
X221254616Y-73759714D01*
X221254625Y-73759721D01*
X221393804Y-73842031D01*
X221549089Y-73887145D01*
X221570000Y-73888789D01*
X222070000Y-73888789D01*
X222090910Y-73887145D01*
X222246195Y-73842031D01*
X222385374Y-73759721D01*
X222385383Y-73759714D01*
X222499714Y-73645383D01*
X222499721Y-73645374D01*
X222582031Y-73506195D01*
X222624504Y-73360000D01*
X222070000Y-73360000D01*
X222070000Y-73888789D01*
X221570000Y-73888789D01*
X221570000Y-73360000D01*
X221015496Y-73360000D01*
X217789234Y-73360000D01*
X218158506Y-72990727D01*
X218158511Y-72990724D01*
X218168714Y-72980520D01*
X218168716Y-72980520D01*
X218280520Y-72868716D01*
X218342857Y-72760745D01*
X218359577Y-72731785D01*
X218400501Y-72579057D01*
X218400501Y-72420943D01*
X218400501Y-72420942D01*
X218400501Y-72413348D01*
X218400500Y-72413330D01*
X218400500Y-71945302D01*
X221009500Y-71945302D01*
X221009500Y-72354697D01*
X221012356Y-72390991D01*
X221012357Y-72390997D01*
X221057504Y-72546390D01*
X221057507Y-72546397D01*
X221069910Y-72567370D01*
X221087093Y-72635094D01*
X221069912Y-72693608D01*
X221057968Y-72713804D01*
X221015496Y-72860000D01*
X221321648Y-72860000D01*
X221384766Y-72877267D01*
X221393605Y-72882494D01*
X221393608Y-72882494D01*
X221393610Y-72882496D01*
X221549002Y-72927642D01*
X221549005Y-72927642D01*
X221549007Y-72927643D01*
X221585310Y-72930500D01*
X221585318Y-72930500D01*
X222054682Y-72930500D01*
X222054690Y-72930500D01*
X222090993Y-72927643D01*
X222090995Y-72927642D01*
X222090997Y-72927642D01*
X222246389Y-72882496D01*
X222246389Y-72882495D01*
X222246395Y-72882494D01*
X222255233Y-72877267D01*
X222318352Y-72860000D01*
X222624505Y-72860000D01*
X222638962Y-72840744D01*
X222638967Y-72839226D01*
X222676909Y-72780556D01*
X222740547Y-72751712D01*
X222757844Y-72750500D01*
X223996851Y-72750500D01*
X224063890Y-72770185D01*
X224098423Y-72803374D01*
X224188402Y-72931877D01*
X224343123Y-73086598D01*
X224522361Y-73212102D01*
X224720670Y-73304575D01*
X224932023Y-73361207D01*
X225114926Y-73377208D01*
X225149998Y-73380277D01*
X225150000Y-73380277D01*
X225150002Y-73380277D01*
X225178254Y-73377805D01*
X225367977Y-73361207D01*
X225579330Y-73304575D01*
X225777639Y-73212102D01*
X225956877Y-73086598D01*
X226111598Y-72931877D01*
X226237102Y-72752639D01*
X226329575Y-72554330D01*
X226386207Y-72342977D01*
X226405277Y-72125000D01*
X226386207Y-71907023D01*
X226329575Y-71695670D01*
X226237102Y-71497362D01*
X226237100Y-71497359D01*
X226237099Y-71497357D01*
X226111599Y-71318124D01*
X226050662Y-71257187D01*
X225956877Y-71163402D01*
X225777639Y-71037898D01*
X225777640Y-71037898D01*
X225777638Y-71037897D01*
X225678484Y-70991661D01*
X225579330Y-70945425D01*
X225579326Y-70945424D01*
X225579322Y-70945422D01*
X225367977Y-70888793D01*
X225150002Y-70869723D01*
X225149998Y-70869723D01*
X225004682Y-70882436D01*
X224932023Y-70888793D01*
X224932020Y-70888793D01*
X224720677Y-70945422D01*
X224720670Y-70945424D01*
X224720670Y-70945425D01*
X224715420Y-70947873D01*
X224522361Y-71037898D01*
X224522357Y-71037900D01*
X224343121Y-71163402D01*
X224188403Y-71318120D01*
X224104996Y-71437238D01*
X224063414Y-71496623D01*
X224008840Y-71540248D01*
X223961841Y-71549500D01*
X222486667Y-71549500D01*
X222419628Y-71529815D01*
X222398986Y-71513181D01*
X222385692Y-71499887D01*
X222385684Y-71499881D01*
X222246393Y-71417505D01*
X222246390Y-71417504D01*
X222090997Y-71372357D01*
X222090991Y-71372356D01*
X222054697Y-71369500D01*
X222054690Y-71369500D01*
X221585310Y-71369500D01*
X221585302Y-71369500D01*
X221549008Y-71372356D01*
X221549002Y-71372357D01*
X221393609Y-71417504D01*
X221393606Y-71417505D01*
X221254315Y-71499881D01*
X221254307Y-71499887D01*
X221139887Y-71614307D01*
X221139881Y-71614315D01*
X221057505Y-71753606D01*
X221057504Y-71753609D01*
X221012357Y-71909002D01*
X221012356Y-71909008D01*
X221009500Y-71945302D01*
X218400500Y-71945302D01*
X218400500Y-70200096D01*
X218420185Y-70133057D01*
X218436814Y-70112420D01*
X220549247Y-67999986D01*
X222775001Y-67999986D01*
X222785494Y-68102697D01*
X222840641Y-68269119D01*
X222840643Y-68269124D01*
X222932684Y-68418345D01*
X223056654Y-68542315D01*
X223205875Y-68634356D01*
X223205880Y-68634358D01*
X223372302Y-68689505D01*
X223372309Y-68689506D01*
X223475019Y-68699999D01*
X223599999Y-68699999D01*
X224100000Y-68699999D01*
X224224972Y-68699999D01*
X224224986Y-68699998D01*
X224327697Y-68689505D01*
X224494119Y-68634358D01*
X224494124Y-68634356D01*
X224643345Y-68542315D01*
X224767315Y-68418345D01*
X224859356Y-68269124D01*
X224859358Y-68269119D01*
X224914505Y-68102697D01*
X224914506Y-68102690D01*
X224924999Y-67999986D01*
X224925000Y-67999973D01*
X224925000Y-67550000D01*
X224100000Y-67550000D01*
X224100000Y-68699999D01*
X223599999Y-68699999D01*
X223600000Y-68699998D01*
X223600000Y-67550000D01*
X222775001Y-67550000D01*
X222775001Y-67999986D01*
X220549247Y-67999986D01*
X221949220Y-66600013D01*
X222775000Y-66600013D01*
X222775000Y-67050000D01*
X223600000Y-67050000D01*
X224100000Y-67050000D01*
X224924999Y-67050000D01*
X224924999Y-66600028D01*
X224924998Y-66600013D01*
X224914505Y-66497302D01*
X224859358Y-66330880D01*
X224859356Y-66330875D01*
X224767315Y-66181654D01*
X224643345Y-66057684D01*
X224494124Y-65965643D01*
X224494119Y-65965641D01*
X224327697Y-65910494D01*
X224327690Y-65910493D01*
X224224986Y-65900000D01*
X224100000Y-65900000D01*
X224100000Y-67050000D01*
X223600000Y-67050000D01*
X223600000Y-65900000D01*
X223475027Y-65900000D01*
X223475012Y-65900001D01*
X223372302Y-65910494D01*
X223205880Y-65965641D01*
X223205875Y-65965643D01*
X223056654Y-66057684D01*
X222932684Y-66181654D01*
X222840643Y-66330875D01*
X222840641Y-66330880D01*
X222785494Y-66497302D01*
X222785493Y-66497309D01*
X222775000Y-66600013D01*
X221949220Y-66600013D01*
X224958506Y-63590727D01*
X224958511Y-63590724D01*
X224968714Y-63580520D01*
X224968716Y-63580520D01*
X225080520Y-63468716D01*
X225131440Y-63380519D01*
X225159577Y-63331785D01*
X225200500Y-63179058D01*
X225200500Y-63020943D01*
X225200500Y-62279499D01*
X225220185Y-62212460D01*
X225272989Y-62166705D01*
X225324500Y-62155499D01*
X226222871Y-62155499D01*
X226222872Y-62155499D01*
X226282483Y-62149091D01*
X226417331Y-62098796D01*
X226532546Y-62012546D01*
X226532548Y-62012542D01*
X226537819Y-62007273D01*
X226599142Y-61973788D01*
X226668834Y-61978772D01*
G37*
%TD.AperFunction*%
%TD*%
M02*
