%TF.GenerationSoftware,KiCad,Pcbnew,8.0.7*%
%TF.CreationDate,2024-12-25T17:19:13+01:00*%
%TF.ProjectId,circuit,63697263-7569-4742-9e6b-696361645f70,v1.1.0*%
%TF.SameCoordinates,Original*%
%TF.FileFunction,Copper,L2,Bot*%
%TF.FilePolarity,Positive*%
%FSLAX46Y46*%
G04 Gerber Fmt 4.6, Leading zero omitted, Abs format (unit mm)*
G04 Created by KiCad (PCBNEW 8.0.7) date 2024-12-25 17:19:13*
%MOMM*%
%LPD*%
G01*
G04 APERTURE LIST*
%TA.AperFunction,ComponentPad*%
%ADD10R,2.000000X2.000000*%
%TD*%
%TA.AperFunction,ComponentPad*%
%ADD11C,2.000000*%
%TD*%
%TA.AperFunction,ComponentPad*%
%ADD12R,1.600000X1.600000*%
%TD*%
%TA.AperFunction,ComponentPad*%
%ADD13O,1.600000X1.600000*%
%TD*%
%TA.AperFunction,ComponentPad*%
%ADD14C,1.500000*%
%TD*%
%TA.AperFunction,ViaPad*%
%ADD15C,0.600000*%
%TD*%
%TA.AperFunction,Conductor*%
%ADD16C,0.200000*%
%TD*%
%TA.AperFunction,Conductor*%
%ADD17C,0.600000*%
%TD*%
G04 APERTURE END LIST*
D10*
%TO.P,J1.1.3,1,Pin_1*%
%TO.N,/L1*%
X254750000Y-89300000D03*
D11*
%TO.P,J1.1.3,2,Pin_2*%
%TO.N,/R2*%
X254750000Y-91840000D03*
%TD*%
D10*
%TO.P,J1.1.1,1,Pin_1*%
%TO.N,/L1*%
X254750000Y-47000000D03*
D11*
%TO.P,J1.1.1,2,Pin_2*%
%TO.N,/R1*%
X254750000Y-49540000D03*
%TD*%
D10*
%TO.P,J1.1.2,1,Pin_1*%
%TO.N,/L2*%
X215350000Y-47000000D03*
D11*
%TO.P,J1.1.2,2,Pin_2*%
%TO.N,/R1*%
X215350000Y-49540000D03*
%TD*%
D10*
%TO.P,J1.2.2,1,Pin_1*%
%TO.N,/L4*%
X215350000Y-66500000D03*
D11*
%TO.P,J1.2.2,2,Pin_2*%
%TO.N,/R1*%
X215350000Y-69040000D03*
%TD*%
D12*
%TO.P,U1,1,~{RESET}/PC6*%
%TO.N,/RESET*%
X229130000Y-52740000D03*
D13*
%TO.P,U1,2,PD0*%
%TO.N,/L1*%
X229130000Y-55280000D03*
%TO.P,U1,3,PD1*%
%TO.N,/L2*%
X229130000Y-57820000D03*
%TO.P,U1,4,PD2*%
%TO.N,/L3*%
X229130000Y-60360000D03*
%TO.P,U1,5,PD3*%
%TO.N,/L4*%
X229130000Y-62900000D03*
%TO.P,U1,6,PD4*%
%TO.N,/R1*%
X229130000Y-65440000D03*
%TO.P,U1,7,VCC*%
%TO.N,+5V*%
X229130000Y-67980000D03*
%TO.P,U1,8,GND*%
%TO.N,GND*%
X229130000Y-70520000D03*
%TO.P,U1,9,XTAL1/PB6*%
%TO.N,/XTAL1*%
X229130000Y-73060000D03*
%TO.P,U1,10,XTAL2/PB7*%
%TO.N,/XTAL2*%
X229130000Y-75600000D03*
%TO.P,U1,11,PD5*%
%TO.N,/R2*%
X229130000Y-78140000D03*
%TO.P,U1,12,PD6*%
%TO.N,/R3*%
X229130000Y-80680000D03*
%TO.P,U1,13,PD7*%
%TO.N,/R4*%
X229130000Y-83220000D03*
%TO.P,U1,14,PB0*%
%TO.N,unconnected-(U1-PB0-Pad14)*%
X229130000Y-85760000D03*
%TO.P,U1,15,PB1*%
%TO.N,unconnected-(U1-PB1-Pad15)*%
X236750000Y-85760000D03*
%TO.P,U1,16,PB2*%
%TO.N,unconnected-(U1-PB2-Pad16)*%
X236750000Y-83220000D03*
%TO.P,U1,17,PB3*%
%TO.N,/MOSI*%
X236750000Y-80680000D03*
%TO.P,U1,18,PB4*%
%TO.N,/MISO*%
X236750000Y-78140000D03*
%TO.P,U1,19,PB5*%
%TO.N,/SCK*%
X236750000Y-75600000D03*
%TO.P,U1,20,AVCC*%
%TO.N,+5V*%
X236750000Y-73060000D03*
%TO.P,U1,21,AREF*%
%TO.N,unconnected-(U1-AREF-Pad21)*%
X236750000Y-70520000D03*
%TO.P,U1,22,GND*%
%TO.N,GND*%
X236750000Y-67980000D03*
%TO.P,U1,23,PC0*%
%TO.N,unconnected-(U1-PC0-Pad23)*%
X236750000Y-65440000D03*
%TO.P,U1,24,PC1*%
%TO.N,unconnected-(U1-PC1-Pad24)*%
X236750000Y-62900000D03*
%TO.P,U1,25,PC2*%
%TO.N,unconnected-(U1-PC2-Pad25)*%
X236750000Y-60360000D03*
%TO.P,U1,26,PC3*%
%TO.N,unconnected-(U1-PC3-Pad26)*%
X236750000Y-57820000D03*
%TO.P,U1,27,PC4*%
%TO.N,/SDA*%
X236750000Y-55280000D03*
%TO.P,U1,28,PC5*%
%TO.N,/SCL*%
X236750000Y-52740000D03*
%TD*%
D14*
%TO.P,Y1,2,2*%
%TO.N,/XTAL2*%
X225150000Y-77025000D03*
%TO.P,Y1,1,1*%
%TO.N,/XTAL1*%
X225150000Y-72125000D03*
%TD*%
D10*
%TO.P,J1.2.1,1,Pin_1*%
%TO.N,/L3*%
X254850000Y-80500000D03*
D11*
%TO.P,J1.2.1,2,Pin_2*%
%TO.N,/R1*%
X254850000Y-83040000D03*
%TD*%
D10*
%TO.P,J1.1.4,1,Pin_1*%
%TO.N,/L2*%
X215350000Y-89300000D03*
D11*
%TO.P,J1.1.4,2,Pin_2*%
%TO.N,/R2*%
X215350000Y-91840000D03*
%TD*%
D15*
%TO.N,/SCL*%
X224560000Y-85260000D03*
%TO.N,/SDA*%
X219510000Y-85260000D03*
%TO.N,+5V*%
X224560000Y-82720000D03*
X240920000Y-60900000D03*
X241300000Y-85400000D03*
%TO.N,/RESET*%
X232400000Y-50250000D03*
%TO.N,/L4*%
X232600000Y-66400000D03*
%TD*%
D16*
%TO.N,/L2*%
X226170000Y-57820000D02*
X229130000Y-57820000D01*
X215350000Y-47000000D02*
X226170000Y-57820000D01*
%TO.N,/L4*%
X227130000Y-64900000D02*
X229130000Y-62900000D01*
X216950000Y-64900000D02*
X227130000Y-64900000D01*
X215350000Y-66500000D02*
X216950000Y-64900000D01*
%TO.N,/R1*%
X229090000Y-65400000D02*
X229130000Y-65440000D01*
X218990000Y-65400000D02*
X229090000Y-65400000D01*
X215350000Y-69040000D02*
X218990000Y-65400000D01*
%TO.N,/SDA*%
X237850000Y-54180000D02*
X236750000Y-55280000D01*
X237850000Y-48484314D02*
X237850000Y-54180000D01*
X234365686Y-45000000D02*
X237850000Y-48484314D01*
X213300000Y-50300000D02*
X213300000Y-45700000D01*
X213000000Y-64900000D02*
X215700000Y-62200000D01*
X214000000Y-45000000D02*
X234365686Y-45000000D01*
X215700000Y-62200000D02*
X215700000Y-52700000D01*
X213000000Y-73700000D02*
X213000000Y-64900000D01*
X215700000Y-52700000D02*
X213300000Y-50300000D01*
X213300000Y-45700000D02*
X214000000Y-45000000D01*
%TO.N,/SCL*%
X213500000Y-74200000D02*
X224560000Y-85260000D01*
X213500000Y-65100000D02*
X213500000Y-74200000D01*
X216200000Y-62400000D02*
X213500000Y-65100000D01*
X216200000Y-52500000D02*
X216200000Y-62400000D01*
X213800000Y-50100000D02*
X216200000Y-52500000D01*
X214200000Y-45500000D02*
X213800000Y-45900000D01*
X234300000Y-45500000D02*
X214200000Y-45500000D01*
X236750000Y-47950000D02*
X234300000Y-45500000D01*
X213800000Y-45900000D02*
X213800000Y-50100000D01*
X236750000Y-52740000D02*
X236750000Y-47950000D01*
%TO.N,/R1*%
X216700000Y-62500000D02*
X213900000Y-65300000D01*
X213900000Y-65300000D02*
X213900000Y-68000000D01*
X214940000Y-69040000D02*
X215350000Y-69040000D01*
X216700000Y-50890000D02*
X216700000Y-62500000D01*
X215350000Y-49540000D02*
X216700000Y-50890000D01*
X213900000Y-68000000D02*
X214940000Y-69040000D01*
%TO.N,/SDA*%
X213000000Y-73700000D02*
X213000000Y-73600000D01*
X213000000Y-78750000D02*
X213000000Y-73700000D01*
X219510000Y-85260000D02*
X213000000Y-78750000D01*
%TO.N,/L1*%
X252200000Y-49550000D02*
X254750000Y-47000000D01*
X252200000Y-73500000D02*
X252200000Y-49550000D01*
X251400000Y-74300000D02*
X252200000Y-73500000D01*
X233900000Y-72700000D02*
X233900000Y-71000000D01*
X233900000Y-72700000D02*
X233900000Y-60050000D01*
X233900000Y-72800000D02*
X233900000Y-72700000D01*
%TO.N,/R2*%
X229500000Y-91800000D02*
X233000000Y-88300000D01*
X224700000Y-91800000D02*
X229500000Y-91800000D01*
X222500000Y-94000000D02*
X224700000Y-91800000D01*
X215350000Y-91840000D02*
X217510000Y-94000000D01*
X217510000Y-94000000D02*
X222500000Y-94000000D01*
D17*
%TO.N,/XTAL1*%
X226085000Y-73060000D02*
X225150000Y-72125000D01*
X229130000Y-73060000D02*
X226085000Y-73060000D01*
%TO.N,/XTAL2*%
X229130000Y-75600000D02*
X226575000Y-75600000D01*
X226575000Y-75600000D02*
X225150000Y-77025000D01*
D16*
%TO.N,/RESET*%
X232400000Y-50250000D02*
X231620000Y-50250000D01*
X231620000Y-50250000D02*
X229130000Y-52740000D01*
%TO.N,/L3*%
X236200000Y-76900000D02*
X251250000Y-76900000D01*
X229130000Y-60360000D02*
X233300000Y-64530000D01*
X251250000Y-76900000D02*
X254850000Y-80500000D01*
X233300000Y-64530000D02*
X233300000Y-74000000D01*
X233300000Y-74000000D02*
X236200000Y-76900000D01*
%TO.N,/L1*%
X233900000Y-60050000D02*
X229130000Y-55280000D01*
X235400000Y-74300000D02*
X233900000Y-72800000D01*
X256800000Y-87250000D02*
X256800000Y-79700000D01*
X254750000Y-89300000D02*
X256800000Y-87250000D01*
X251400000Y-74300000D02*
X235400000Y-74300000D01*
X256800000Y-79700000D02*
X251400000Y-74300000D01*
%TO.N,/R1*%
X232700000Y-76800000D02*
X232700000Y-69010000D01*
X254850000Y-83040000D02*
X251540000Y-83040000D01*
X248000000Y-79500000D02*
X235400000Y-79500000D01*
X251540000Y-83040000D02*
X248000000Y-79500000D01*
X232700000Y-69010000D02*
X229130000Y-65440000D01*
X235400000Y-79500000D02*
X232700000Y-76800000D01*
%TO.N,/R2*%
X254750000Y-91840000D02*
X236540000Y-91840000D01*
X236540000Y-91840000D02*
X233000000Y-88300000D01*
X233000000Y-88300000D02*
X233000000Y-82010000D01*
X233000000Y-82010000D02*
X229130000Y-78140000D01*
%TO.N,/L4*%
X232600000Y-66370000D02*
X229130000Y-62900000D01*
X232600000Y-66400000D02*
X232600000Y-66370000D01*
%TD*%
%TA.AperFunction,Conductor*%
%TO.N,+5V*%
G36*
X230579143Y-67738378D02*
G01*
X232063181Y-69222416D01*
X232096666Y-69283739D01*
X232099500Y-69310097D01*
X232099500Y-76713330D01*
X232099499Y-76713348D01*
X232099499Y-76879054D01*
X232099498Y-76879054D01*
X232140423Y-77031785D01*
X232169358Y-77081900D01*
X232169359Y-77081904D01*
X232169360Y-77081904D01*
X232219479Y-77168714D01*
X232219481Y-77168717D01*
X232338349Y-77287585D01*
X232338354Y-77287589D01*
X235031284Y-79980520D01*
X235031286Y-79980521D01*
X235031290Y-79980524D01*
X235112249Y-80027265D01*
X235168216Y-80059577D01*
X235320943Y-80100501D01*
X235320945Y-80100501D01*
X235397299Y-80100501D01*
X235464338Y-80120186D01*
X235510093Y-80172990D01*
X235520037Y-80242148D01*
X235517074Y-80256594D01*
X235464366Y-80453302D01*
X235464364Y-80453313D01*
X235444532Y-80679998D01*
X235444532Y-80680001D01*
X235464364Y-80906686D01*
X235464366Y-80906697D01*
X235523258Y-81126488D01*
X235523261Y-81126497D01*
X235619431Y-81332732D01*
X235619432Y-81332734D01*
X235749954Y-81519141D01*
X235910858Y-81680045D01*
X235910861Y-81680047D01*
X236097266Y-81810568D01*
X236155275Y-81837618D01*
X236207714Y-81883791D01*
X236226866Y-81950984D01*
X236206650Y-82017865D01*
X236155275Y-82062381D01*
X236138272Y-82070310D01*
X236097267Y-82089431D01*
X236097265Y-82089432D01*
X235910858Y-82219954D01*
X235749954Y-82380858D01*
X235619432Y-82567265D01*
X235619431Y-82567267D01*
X235523261Y-82773502D01*
X235523258Y-82773511D01*
X235464366Y-82993302D01*
X235464364Y-82993313D01*
X235444532Y-83219998D01*
X235444532Y-83220001D01*
X235464364Y-83446686D01*
X235464366Y-83446697D01*
X235523258Y-83666488D01*
X235523261Y-83666497D01*
X235619431Y-83872732D01*
X235619432Y-83872734D01*
X235749954Y-84059141D01*
X235910858Y-84220045D01*
X235910861Y-84220047D01*
X236097266Y-84350568D01*
X236155275Y-84377618D01*
X236207714Y-84423791D01*
X236226866Y-84490984D01*
X236206650Y-84557865D01*
X236155275Y-84602382D01*
X236097267Y-84629431D01*
X236097265Y-84629432D01*
X235910858Y-84759954D01*
X235749954Y-84920858D01*
X235619432Y-85107265D01*
X235619431Y-85107267D01*
X235523261Y-85313502D01*
X235523258Y-85313511D01*
X235464366Y-85533302D01*
X235464364Y-85533313D01*
X235444532Y-85759998D01*
X235444532Y-85760001D01*
X235464364Y-85986686D01*
X235464366Y-85986697D01*
X235523258Y-86206488D01*
X235523261Y-86206497D01*
X235619431Y-86412732D01*
X235619432Y-86412734D01*
X235749954Y-86599141D01*
X235910858Y-86760045D01*
X235910861Y-86760047D01*
X236097266Y-86890568D01*
X236303504Y-86986739D01*
X236523308Y-87045635D01*
X236685230Y-87059801D01*
X236749998Y-87065468D01*
X236750000Y-87065468D01*
X236750002Y-87065468D01*
X236806673Y-87060509D01*
X236976692Y-87045635D01*
X237196496Y-86986739D01*
X237402734Y-86890568D01*
X237589139Y-86760047D01*
X237750047Y-86599139D01*
X237880568Y-86412734D01*
X237976739Y-86206496D01*
X238035635Y-85986692D01*
X238055468Y-85760000D01*
X238035635Y-85533308D01*
X237976739Y-85313504D01*
X237880568Y-85107266D01*
X237750047Y-84920861D01*
X237750045Y-84920858D01*
X237589141Y-84759954D01*
X237402734Y-84629432D01*
X237402728Y-84629429D01*
X237344725Y-84602382D01*
X237292285Y-84556210D01*
X237273133Y-84489017D01*
X237293348Y-84422135D01*
X237344725Y-84377618D01*
X237402734Y-84350568D01*
X237589139Y-84220047D01*
X237750047Y-84059139D01*
X237880568Y-83872734D01*
X237976739Y-83666496D01*
X238035635Y-83446692D01*
X238055468Y-83220000D01*
X238035635Y-82993308D01*
X237976739Y-82773504D01*
X237880568Y-82567266D01*
X237776609Y-82418796D01*
X237750045Y-82380858D01*
X237589141Y-82219954D01*
X237402734Y-82089432D01*
X237402728Y-82089429D01*
X237375038Y-82076517D01*
X237344724Y-82062381D01*
X237292285Y-82016210D01*
X237273133Y-81949017D01*
X237293348Y-81882135D01*
X237344725Y-81837618D01*
X237402734Y-81810568D01*
X237589139Y-81680047D01*
X237750047Y-81519139D01*
X237880568Y-81332734D01*
X237976739Y-81126496D01*
X238035635Y-80906692D01*
X238055468Y-80680000D01*
X238035635Y-80453308D01*
X237982926Y-80256593D01*
X237984589Y-80186743D01*
X238023752Y-80128881D01*
X238087980Y-80101377D01*
X238102701Y-80100500D01*
X247699903Y-80100500D01*
X247766942Y-80120185D01*
X247787584Y-80136819D01*
X251055139Y-83404374D01*
X251055149Y-83404385D01*
X251059479Y-83408715D01*
X251059480Y-83408716D01*
X251171284Y-83520520D01*
X251258095Y-83570639D01*
X251258097Y-83570641D01*
X251296151Y-83592611D01*
X251308215Y-83599577D01*
X251460943Y-83640501D01*
X251460946Y-83640501D01*
X251626653Y-83640501D01*
X251626669Y-83640500D01*
X253393884Y-83640500D01*
X253460923Y-83660185D01*
X253506678Y-83712989D01*
X253507440Y-83714689D01*
X253525827Y-83756608D01*
X253661833Y-83964782D01*
X253661836Y-83964785D01*
X253830256Y-84147738D01*
X254026491Y-84300474D01*
X254245190Y-84418828D01*
X254480386Y-84499571D01*
X254725665Y-84540500D01*
X254974335Y-84540500D01*
X255219614Y-84499571D01*
X255454810Y-84418828D01*
X255673509Y-84300474D01*
X255869744Y-84147738D01*
X255984271Y-84023328D01*
X256044157Y-83987339D01*
X256113995Y-83989439D01*
X256171611Y-84028963D01*
X256198713Y-84093362D01*
X256199500Y-84107312D01*
X256199500Y-86949902D01*
X256179815Y-87016941D01*
X256163181Y-87037583D01*
X255437582Y-87763181D01*
X255376259Y-87796666D01*
X255349901Y-87799500D01*
X253702129Y-87799500D01*
X253702123Y-87799501D01*
X253642516Y-87805908D01*
X253507671Y-87856202D01*
X253507664Y-87856206D01*
X253392455Y-87942452D01*
X253392452Y-87942455D01*
X253306206Y-88057664D01*
X253306202Y-88057671D01*
X253255908Y-88192517D01*
X253249501Y-88252116D01*
X253249501Y-88252123D01*
X253249500Y-88252135D01*
X253249500Y-90347870D01*
X253249501Y-90347876D01*
X253255908Y-90407483D01*
X253306202Y-90542328D01*
X253306206Y-90542335D01*
X253392452Y-90657544D01*
X253392455Y-90657547D01*
X253507664Y-90743793D01*
X253512361Y-90746358D01*
X253561766Y-90795764D01*
X253576617Y-90864037D01*
X253556742Y-90923011D01*
X253425827Y-91123391D01*
X253407440Y-91165311D01*
X253362483Y-91218796D01*
X253295747Y-91239486D01*
X253293884Y-91239500D01*
X236840097Y-91239500D01*
X236773058Y-91219815D01*
X236752416Y-91203181D01*
X233636819Y-88087584D01*
X233603334Y-88026261D01*
X233600500Y-87999903D01*
X233600500Y-81930945D01*
X233600500Y-81930943D01*
X233559577Y-81778216D01*
X233502900Y-81680047D01*
X233480524Y-81641290D01*
X233480521Y-81641286D01*
X233480520Y-81641284D01*
X233368716Y-81529480D01*
X233368715Y-81529479D01*
X233364385Y-81525149D01*
X233364374Y-81525139D01*
X230421941Y-78582706D01*
X230388456Y-78521383D01*
X230389847Y-78462931D01*
X230407872Y-78395662D01*
X230415635Y-78366692D01*
X230435468Y-78140000D01*
X230415635Y-77913308D01*
X230356739Y-77693504D01*
X230260568Y-77487266D01*
X230130047Y-77300861D01*
X230130045Y-77300858D01*
X229969141Y-77139954D01*
X229782734Y-77009432D01*
X229782728Y-77009429D01*
X229724725Y-76982382D01*
X229672285Y-76936210D01*
X229653133Y-76869017D01*
X229673348Y-76802135D01*
X229724725Y-76757618D01*
X229782734Y-76730568D01*
X229969139Y-76600047D01*
X230130047Y-76439139D01*
X230260568Y-76252734D01*
X230356739Y-76046496D01*
X230415635Y-75826692D01*
X230435468Y-75600000D01*
X230415635Y-75373308D01*
X230356739Y-75153504D01*
X230260568Y-74947266D01*
X230143812Y-74780520D01*
X230130045Y-74760858D01*
X229969141Y-74599954D01*
X229782734Y-74469432D01*
X229782728Y-74469429D01*
X229724725Y-74442382D01*
X229672285Y-74396210D01*
X229653133Y-74329017D01*
X229673348Y-74262135D01*
X229724725Y-74217618D01*
X229736091Y-74212318D01*
X229782734Y-74190568D01*
X229969139Y-74060047D01*
X230130047Y-73899139D01*
X230260568Y-73712734D01*
X230356739Y-73506496D01*
X230415635Y-73286692D01*
X230435468Y-73060000D01*
X230415635Y-72833308D01*
X230356739Y-72613504D01*
X230260568Y-72407266D01*
X230142249Y-72238287D01*
X230130045Y-72220858D01*
X229969141Y-72059954D01*
X229782734Y-71929432D01*
X229782728Y-71929429D01*
X229734678Y-71907023D01*
X229724724Y-71902381D01*
X229672285Y-71856210D01*
X229653133Y-71789017D01*
X229673348Y-71722135D01*
X229724725Y-71677618D01*
X229782734Y-71650568D01*
X229969139Y-71520047D01*
X230130047Y-71359139D01*
X230260568Y-71172734D01*
X230356739Y-70966496D01*
X230415635Y-70746692D01*
X230432634Y-70552384D01*
X230435468Y-70520001D01*
X230435468Y-70519998D01*
X230426617Y-70418830D01*
X230415635Y-70293308D01*
X230356739Y-70073504D01*
X230260568Y-69867266D01*
X230130047Y-69680861D01*
X230130045Y-69680858D01*
X229969141Y-69519954D01*
X229782734Y-69389432D01*
X229782732Y-69389431D01*
X229724725Y-69362382D01*
X229724132Y-69362105D01*
X229671694Y-69315934D01*
X229652542Y-69248740D01*
X229672758Y-69181859D01*
X229724134Y-69137341D01*
X229782484Y-69110132D01*
X229968820Y-68979657D01*
X230129657Y-68818820D01*
X230260134Y-68632482D01*
X230356265Y-68426326D01*
X230356269Y-68426317D01*
X230408872Y-68230000D01*
X229445686Y-68230000D01*
X229450080Y-68225606D01*
X229502741Y-68134394D01*
X229530000Y-68032661D01*
X229530000Y-67927339D01*
X229502741Y-67825606D01*
X229450080Y-67734394D01*
X229445686Y-67730000D01*
X230421260Y-67730000D01*
X230449514Y-67709370D01*
X230519260Y-67705215D01*
X230579143Y-67738378D01*
G37*
%TD.AperFunction*%
%TA.AperFunction,Conductor*%
G36*
X234066942Y-46120185D02*
G01*
X234087584Y-46136819D01*
X236113181Y-48162416D01*
X236146666Y-48223739D01*
X236149500Y-48250097D01*
X236149500Y-51508306D01*
X236129815Y-51575345D01*
X236096623Y-51609881D01*
X235910859Y-51739953D01*
X235749954Y-51900858D01*
X235619432Y-52087265D01*
X235619431Y-52087267D01*
X235523261Y-52293502D01*
X235523258Y-52293511D01*
X235464366Y-52513302D01*
X235464364Y-52513313D01*
X235444532Y-52739998D01*
X235444532Y-52740001D01*
X235464364Y-52966686D01*
X235464366Y-52966697D01*
X235523258Y-53186488D01*
X235523261Y-53186497D01*
X235619431Y-53392732D01*
X235619432Y-53392734D01*
X235749954Y-53579141D01*
X235910858Y-53740045D01*
X235910861Y-53740047D01*
X236097266Y-53870568D01*
X236155275Y-53897618D01*
X236207714Y-53943791D01*
X236226866Y-54010984D01*
X236206650Y-54077865D01*
X236155275Y-54122382D01*
X236097267Y-54149431D01*
X236097265Y-54149432D01*
X235910858Y-54279954D01*
X235749954Y-54440858D01*
X235619432Y-54627265D01*
X235619431Y-54627267D01*
X235523261Y-54833502D01*
X235523258Y-54833511D01*
X235464366Y-55053302D01*
X235464364Y-55053313D01*
X235444532Y-55279998D01*
X235444532Y-55280001D01*
X235464364Y-55506686D01*
X235464366Y-55506697D01*
X235523258Y-55726488D01*
X235523261Y-55726497D01*
X235619431Y-55932732D01*
X235619432Y-55932734D01*
X235749954Y-56119141D01*
X235910858Y-56280045D01*
X235910861Y-56280047D01*
X236097266Y-56410568D01*
X236155275Y-56437618D01*
X236207714Y-56483791D01*
X236226866Y-56550984D01*
X236206650Y-56617865D01*
X236155275Y-56662382D01*
X236097267Y-56689431D01*
X236097265Y-56689432D01*
X235910858Y-56819954D01*
X235749954Y-56980858D01*
X235619432Y-57167265D01*
X235619431Y-57167267D01*
X235523261Y-57373502D01*
X235523258Y-57373511D01*
X235464366Y-57593302D01*
X235464364Y-57593313D01*
X235444532Y-57819998D01*
X235444532Y-57820001D01*
X235464364Y-58046686D01*
X235464366Y-58046697D01*
X235523258Y-58266488D01*
X235523261Y-58266497D01*
X235619431Y-58472732D01*
X235619432Y-58472734D01*
X235749954Y-58659141D01*
X235910858Y-58820045D01*
X235910861Y-58820047D01*
X236097266Y-58950568D01*
X236155275Y-58977618D01*
X236207714Y-59023791D01*
X236226866Y-59090984D01*
X236206650Y-59157865D01*
X236155275Y-59202382D01*
X236097267Y-59229431D01*
X236097265Y-59229432D01*
X235910858Y-59359954D01*
X235749954Y-59520858D01*
X235619432Y-59707265D01*
X235619431Y-59707267D01*
X235523261Y-59913502D01*
X235523258Y-59913511D01*
X235464366Y-60133302D01*
X235464364Y-60133313D01*
X235444532Y-60359998D01*
X235444532Y-60360001D01*
X235464364Y-60586686D01*
X235464366Y-60586697D01*
X235523258Y-60806488D01*
X235523261Y-60806497D01*
X235619431Y-61012732D01*
X235619432Y-61012734D01*
X235749954Y-61199141D01*
X235910858Y-61360045D01*
X235910861Y-61360047D01*
X236097266Y-61490568D01*
X236155275Y-61517618D01*
X236207714Y-61563791D01*
X236226866Y-61630984D01*
X236206650Y-61697865D01*
X236155275Y-61742382D01*
X236097267Y-61769431D01*
X236097265Y-61769432D01*
X235910858Y-61899954D01*
X235749954Y-62060858D01*
X235619432Y-62247265D01*
X235619431Y-62247267D01*
X235523261Y-62453502D01*
X235523258Y-62453511D01*
X235464366Y-62673302D01*
X235464364Y-62673313D01*
X235444532Y-62899998D01*
X235444532Y-62900001D01*
X235464364Y-63126686D01*
X235464366Y-63126697D01*
X235523258Y-63346488D01*
X235523261Y-63346497D01*
X235619431Y-63552732D01*
X235619432Y-63552734D01*
X235749954Y-63739141D01*
X235910858Y-63900045D01*
X235910861Y-63900047D01*
X236097266Y-64030568D01*
X236155275Y-64057618D01*
X236207714Y-64103791D01*
X236226866Y-64170984D01*
X236206650Y-64237865D01*
X236155275Y-64282382D01*
X236097267Y-64309431D01*
X236097265Y-64309432D01*
X235910858Y-64439954D01*
X235749954Y-64600858D01*
X235619432Y-64787265D01*
X235619431Y-64787267D01*
X235523261Y-64993502D01*
X235523258Y-64993511D01*
X235464366Y-65213302D01*
X235464364Y-65213313D01*
X235444532Y-65439998D01*
X235444532Y-65440001D01*
X235464364Y-65666686D01*
X235464366Y-65666697D01*
X235523258Y-65886488D01*
X235523261Y-65886497D01*
X235619431Y-66092732D01*
X235619432Y-66092734D01*
X235749954Y-66279141D01*
X235910858Y-66440045D01*
X235937243Y-66458520D01*
X236097266Y-66570568D01*
X236155275Y-66597618D01*
X236207714Y-66643791D01*
X236226866Y-66710984D01*
X236206650Y-66777865D01*
X236155275Y-66822382D01*
X236097267Y-66849431D01*
X236097265Y-66849432D01*
X235910858Y-66979954D01*
X235749954Y-67140858D01*
X235619432Y-67327265D01*
X235619431Y-67327267D01*
X235523261Y-67533502D01*
X235523258Y-67533511D01*
X235464366Y-67753302D01*
X235464364Y-67753313D01*
X235444532Y-67979998D01*
X235444532Y-67980001D01*
X235464364Y-68206686D01*
X235464366Y-68206697D01*
X235523258Y-68426488D01*
X235523261Y-68426497D01*
X235619431Y-68632732D01*
X235619432Y-68632734D01*
X235749954Y-68819141D01*
X235910858Y-68980045D01*
X235910861Y-68980047D01*
X236097266Y-69110568D01*
X236154681Y-69137341D01*
X236155275Y-69137618D01*
X236207714Y-69183791D01*
X236226866Y-69250984D01*
X236206650Y-69317865D01*
X236155275Y-69362382D01*
X236097267Y-69389431D01*
X236097265Y-69389432D01*
X235910858Y-69519954D01*
X235749954Y-69680858D01*
X235619432Y-69867265D01*
X235619431Y-69867267D01*
X235523261Y-70073502D01*
X235523258Y-70073511D01*
X235464366Y-70293302D01*
X235464364Y-70293313D01*
X235444532Y-70519998D01*
X235444532Y-70520001D01*
X235464364Y-70746686D01*
X235464366Y-70746697D01*
X235523258Y-70966488D01*
X235523261Y-70966497D01*
X235619431Y-71172732D01*
X235619432Y-71172734D01*
X235749954Y-71359141D01*
X235910858Y-71520045D01*
X235910861Y-71520047D01*
X236097266Y-71650568D01*
X236155865Y-71677893D01*
X236208305Y-71724065D01*
X236227457Y-71791258D01*
X236207242Y-71858139D01*
X236155867Y-71902657D01*
X236097515Y-71929867D01*
X235911179Y-72060342D01*
X235750342Y-72221179D01*
X235619865Y-72407517D01*
X235523734Y-72613673D01*
X235523730Y-72613682D01*
X235471127Y-72809999D01*
X235471128Y-72810000D01*
X236434314Y-72810000D01*
X236429920Y-72814394D01*
X236377259Y-72905606D01*
X236350000Y-73007339D01*
X236350000Y-73112661D01*
X236377259Y-73214394D01*
X236429920Y-73305606D01*
X236434314Y-73310000D01*
X235471127Y-73310000D01*
X235465204Y-73317719D01*
X235408776Y-73358922D01*
X235339030Y-73363076D01*
X235279148Y-73329913D01*
X234536819Y-72587584D01*
X234503334Y-72526261D01*
X234500500Y-72499903D01*
X234500500Y-60139060D01*
X234500501Y-60139047D01*
X234500501Y-59970944D01*
X234500501Y-59970943D01*
X234459577Y-59818216D01*
X234459573Y-59818209D01*
X234380524Y-59681290D01*
X234380518Y-59681282D01*
X230421941Y-55722706D01*
X230388456Y-55661383D01*
X230389847Y-55602931D01*
X230415635Y-55506692D01*
X230435468Y-55280000D01*
X230415635Y-55053308D01*
X230356739Y-54833504D01*
X230260568Y-54627266D01*
X230130047Y-54440861D01*
X230130046Y-54440860D01*
X230130045Y-54440858D01*
X229969143Y-54279956D01*
X229944536Y-54262726D01*
X229900912Y-54208149D01*
X229893719Y-54138650D01*
X229925241Y-54076296D01*
X229985471Y-54040882D01*
X230002404Y-54037861D01*
X230037483Y-54034091D01*
X230172331Y-53983796D01*
X230287546Y-53897546D01*
X230373796Y-53782331D01*
X230424091Y-53647483D01*
X230430500Y-53587873D01*
X230430499Y-52340096D01*
X230450184Y-52273058D01*
X230466813Y-52252421D01*
X231792000Y-50927233D01*
X231853321Y-50893750D01*
X231923013Y-50898734D01*
X231945651Y-50909922D01*
X231990416Y-50938050D01*
X232050478Y-50975789D01*
X232188249Y-51023997D01*
X232220745Y-51035368D01*
X232220750Y-51035369D01*
X232399996Y-51055565D01*
X232400000Y-51055565D01*
X232400004Y-51055565D01*
X232579249Y-51035369D01*
X232579252Y-51035368D01*
X232579255Y-51035368D01*
X232749522Y-50975789D01*
X232902262Y-50879816D01*
X233029816Y-50752262D01*
X233125789Y-50599522D01*
X233185368Y-50429255D01*
X233187596Y-50409480D01*
X233205565Y-50250003D01*
X233205565Y-50249996D01*
X233185369Y-50070750D01*
X233185368Y-50070745D01*
X233125788Y-49900476D01*
X233086582Y-49838080D01*
X233029816Y-49747738D01*
X232902262Y-49620184D01*
X232749523Y-49524211D01*
X232579254Y-49464631D01*
X232579249Y-49464630D01*
X232400004Y-49444435D01*
X232399996Y-49444435D01*
X232220750Y-49464630D01*
X232220745Y-49464631D01*
X232050476Y-49524211D01*
X231897736Y-49620185D01*
X231894903Y-49622445D01*
X231892724Y-49623334D01*
X231891842Y-49623889D01*
X231891744Y-49623734D01*
X231830217Y-49648855D01*
X231817588Y-49649500D01*
X231706670Y-49649500D01*
X231706654Y-49649499D01*
X231699058Y-49649499D01*
X231540943Y-49649499D01*
X231464579Y-49669961D01*
X231388214Y-49690423D01*
X231388209Y-49690426D01*
X231251290Y-49769475D01*
X231251282Y-49769481D01*
X229617582Y-51403181D01*
X229556259Y-51436666D01*
X229529901Y-51439500D01*
X228282129Y-51439500D01*
X228282123Y-51439501D01*
X228222516Y-51445908D01*
X228087671Y-51496202D01*
X228087664Y-51496206D01*
X227972455Y-51582452D01*
X227972452Y-51582455D01*
X227886206Y-51697664D01*
X227886202Y-51697671D01*
X227835908Y-51832517D01*
X227829501Y-51892116D01*
X227829500Y-51892135D01*
X227829500Y-53587870D01*
X227829501Y-53587876D01*
X227835908Y-53647483D01*
X227886202Y-53782328D01*
X227886206Y-53782335D01*
X227972452Y-53897544D01*
X227972455Y-53897547D01*
X228087664Y-53983793D01*
X228087671Y-53983797D01*
X228132618Y-54000561D01*
X228222517Y-54034091D01*
X228257596Y-54037862D01*
X228322144Y-54064599D01*
X228361993Y-54121991D01*
X228364488Y-54191816D01*
X228328836Y-54251905D01*
X228315464Y-54262725D01*
X228290858Y-54279954D01*
X228129954Y-54440858D01*
X227999432Y-54627265D01*
X227999431Y-54627267D01*
X227903261Y-54833502D01*
X227903258Y-54833511D01*
X227844366Y-55053302D01*
X227844364Y-55053313D01*
X227824532Y-55279998D01*
X227824532Y-55280001D01*
X227844364Y-55506686D01*
X227844366Y-55506697D01*
X227903258Y-55726488D01*
X227903261Y-55726497D01*
X227999431Y-55932732D01*
X227999432Y-55932734D01*
X228129954Y-56119141D01*
X228290858Y-56280045D01*
X228290861Y-56280047D01*
X228477266Y-56410568D01*
X228535275Y-56437618D01*
X228587714Y-56483791D01*
X228606866Y-56550984D01*
X228586650Y-56617865D01*
X228535275Y-56662382D01*
X228477267Y-56689431D01*
X228477265Y-56689432D01*
X228290858Y-56819954D01*
X228129954Y-56980858D01*
X228053450Y-57090118D01*
X227999881Y-57166624D01*
X227945307Y-57210248D01*
X227898308Y-57219500D01*
X226470098Y-57219500D01*
X226403059Y-57199815D01*
X226382417Y-57183181D01*
X216886818Y-47687582D01*
X216853333Y-47626259D01*
X216850499Y-47599901D01*
X216850499Y-46224500D01*
X216870184Y-46157461D01*
X216922988Y-46111706D01*
X216974499Y-46100500D01*
X233999903Y-46100500D01*
X234066942Y-46120185D01*
G37*
%TD.AperFunction*%
%TA.AperFunction,Conductor*%
G36*
X259142539Y-42920185D02*
G01*
X259188294Y-42972989D01*
X259199500Y-43024500D01*
X259199500Y-94875500D01*
X259179815Y-94942539D01*
X259127011Y-94988294D01*
X259075500Y-94999500D01*
X210624500Y-94999500D01*
X210557461Y-94979815D01*
X210511706Y-94927011D01*
X210500500Y-94875500D01*
X210500500Y-83193713D01*
X211399500Y-83193713D01*
X211399500Y-83406287D01*
X211432754Y-83616243D01*
X211478361Y-83756607D01*
X211498444Y-83818414D01*
X211594951Y-84007820D01*
X211719890Y-84179786D01*
X211870213Y-84330109D01*
X212042179Y-84455048D01*
X212042181Y-84455049D01*
X212042184Y-84455051D01*
X212231588Y-84551557D01*
X212433757Y-84617246D01*
X212643713Y-84650500D01*
X212643714Y-84650500D01*
X212856286Y-84650500D01*
X212856287Y-84650500D01*
X213066243Y-84617246D01*
X213268412Y-84551557D01*
X213457816Y-84455051D01*
X213507673Y-84418828D01*
X213629786Y-84330109D01*
X213629788Y-84330106D01*
X213629792Y-84330104D01*
X213780104Y-84179792D01*
X213780106Y-84179788D01*
X213780109Y-84179786D01*
X213905048Y-84007820D01*
X213905047Y-84007820D01*
X213905051Y-84007816D01*
X214001557Y-83818412D01*
X214067246Y-83616243D01*
X214100500Y-83406287D01*
X214100500Y-83193713D01*
X214067246Y-82983757D01*
X214001557Y-82781588D01*
X213905051Y-82592184D01*
X213905049Y-82592181D01*
X213905048Y-82592179D01*
X213780109Y-82420213D01*
X213629786Y-82269890D01*
X213457820Y-82144951D01*
X213268414Y-82048444D01*
X213268413Y-82048443D01*
X213268412Y-82048443D01*
X213066243Y-81982754D01*
X213066241Y-81982753D01*
X213066240Y-81982753D01*
X212904957Y-81957208D01*
X212856287Y-81949500D01*
X212643713Y-81949500D01*
X212595042Y-81957208D01*
X212433760Y-81982753D01*
X212231585Y-82048444D01*
X212042179Y-82144951D01*
X211870213Y-82269890D01*
X211719890Y-82420213D01*
X211594951Y-82592179D01*
X211498444Y-82781585D01*
X211432753Y-82983760D01*
X211431242Y-82993302D01*
X211399500Y-83193713D01*
X210500500Y-83193713D01*
X210500500Y-78829054D01*
X212399498Y-78829054D01*
X212440424Y-78981789D01*
X212440425Y-78981790D01*
X212462186Y-79019480D01*
X212462187Y-79019482D01*
X212519475Y-79118709D01*
X212519481Y-79118717D01*
X212638349Y-79237585D01*
X212638355Y-79237590D01*
X218679298Y-85278533D01*
X218712783Y-85339856D01*
X218714837Y-85352330D01*
X218724630Y-85439249D01*
X218784210Y-85609521D01*
X218878761Y-85759998D01*
X218880184Y-85762262D01*
X219007738Y-85889816D01*
X219160478Y-85985789D01*
X219330745Y-86045368D01*
X219330750Y-86045369D01*
X219509996Y-86065565D01*
X219510000Y-86065565D01*
X219510004Y-86065565D01*
X219689249Y-86045369D01*
X219689252Y-86045368D01*
X219689255Y-86045368D01*
X219859522Y-85985789D01*
X220012262Y-85889816D01*
X220139816Y-85762262D01*
X220235789Y-85609522D01*
X220295368Y-85439255D01*
X220305162Y-85352330D01*
X220315565Y-85260003D01*
X220315565Y-85259996D01*
X220295369Y-85080750D01*
X220295368Y-85080745D01*
X220235788Y-84910476D01*
X220141208Y-84759954D01*
X220139816Y-84757738D01*
X220012262Y-84630184D01*
X219991671Y-84617246D01*
X219859521Y-84534210D01*
X219689249Y-84474630D01*
X219602330Y-84464837D01*
X219537916Y-84437770D01*
X219528533Y-84429298D01*
X213636819Y-78537584D01*
X213603334Y-78476261D01*
X213600500Y-78449903D01*
X213600500Y-75449097D01*
X213620185Y-75382058D01*
X213672989Y-75336303D01*
X213742147Y-75326359D01*
X213805703Y-75355384D01*
X213812181Y-75361416D01*
X223729298Y-85278533D01*
X223762783Y-85339856D01*
X223764837Y-85352330D01*
X223774630Y-85439249D01*
X223834210Y-85609521D01*
X223928761Y-85759998D01*
X223930184Y-85762262D01*
X224057738Y-85889816D01*
X224210478Y-85985789D01*
X224380745Y-86045368D01*
X224380750Y-86045369D01*
X224559996Y-86065565D01*
X224560000Y-86065565D01*
X224560004Y-86065565D01*
X224739249Y-86045369D01*
X224739252Y-86045368D01*
X224739255Y-86045368D01*
X224909522Y-85985789D01*
X225062262Y-85889816D01*
X225189816Y-85762262D01*
X225285789Y-85609522D01*
X225345368Y-85439255D01*
X225355162Y-85352330D01*
X225365565Y-85260003D01*
X225365565Y-85259996D01*
X225345369Y-85080750D01*
X225345368Y-85080745D01*
X225285788Y-84910476D01*
X225191208Y-84759954D01*
X225189816Y-84757738D01*
X225062262Y-84630184D01*
X225041671Y-84617246D01*
X224909521Y-84534210D01*
X224739249Y-84474630D01*
X224652330Y-84464837D01*
X224587916Y-84437770D01*
X224578533Y-84429298D01*
X214136819Y-73987584D01*
X214103334Y-73926261D01*
X214100500Y-73899903D01*
X214100500Y-70215940D01*
X214120185Y-70148901D01*
X214172989Y-70103146D01*
X214242147Y-70093202D01*
X214305703Y-70122227D01*
X214315725Y-70131953D01*
X214330256Y-70147738D01*
X214526491Y-70300474D01*
X214745190Y-70418828D01*
X214980386Y-70499571D01*
X215225665Y-70540500D01*
X215474335Y-70540500D01*
X215719614Y-70499571D01*
X215954810Y-70418828D01*
X216173509Y-70300474D01*
X216369744Y-70147738D01*
X216538164Y-69964785D01*
X216674173Y-69756607D01*
X216774063Y-69528881D01*
X216835108Y-69287821D01*
X216835109Y-69287812D01*
X216855643Y-69040005D01*
X216855643Y-69039994D01*
X216835109Y-68792187D01*
X216835108Y-68792183D01*
X216835108Y-68792179D01*
X216774063Y-68551119D01*
X216774062Y-68551118D01*
X216773992Y-68550839D01*
X216776616Y-68481018D01*
X216806514Y-68432719D01*
X219202416Y-66036819D01*
X219263739Y-66003334D01*
X219290097Y-66000500D01*
X227877426Y-66000500D01*
X227944465Y-66020185D01*
X227989807Y-66072094D01*
X227999431Y-66092732D01*
X227999432Y-66092734D01*
X228129954Y-66279141D01*
X228290858Y-66440045D01*
X228317243Y-66458520D01*
X228477266Y-66570568D01*
X228535865Y-66597893D01*
X228588305Y-66644065D01*
X228607457Y-66711258D01*
X228587242Y-66778139D01*
X228535867Y-66822657D01*
X228477515Y-66849867D01*
X228291179Y-66980342D01*
X228130342Y-67141179D01*
X227999865Y-67327517D01*
X227903734Y-67533673D01*
X227903730Y-67533682D01*
X227851127Y-67729999D01*
X227851128Y-67730000D01*
X228814314Y-67730000D01*
X228809920Y-67734394D01*
X228757259Y-67825606D01*
X228730000Y-67927339D01*
X228730000Y-68032661D01*
X228757259Y-68134394D01*
X228809920Y-68225606D01*
X228814314Y-68230000D01*
X227851128Y-68230000D01*
X227903730Y-68426317D01*
X227903734Y-68426326D01*
X227999865Y-68632482D01*
X228130342Y-68818820D01*
X228291179Y-68979657D01*
X228477518Y-69110134D01*
X228477520Y-69110135D01*
X228535865Y-69137342D01*
X228588305Y-69183514D01*
X228607457Y-69250707D01*
X228587242Y-69317589D01*
X228535867Y-69362105D01*
X228477268Y-69389431D01*
X228477264Y-69389433D01*
X228290858Y-69519954D01*
X228129954Y-69680858D01*
X227999432Y-69867265D01*
X227999431Y-69867267D01*
X227903261Y-70073502D01*
X227903258Y-70073511D01*
X227844366Y-70293302D01*
X227844364Y-70293313D01*
X227824532Y-70519998D01*
X227824532Y-70520001D01*
X227844364Y-70746686D01*
X227844366Y-70746697D01*
X227903258Y-70966488D01*
X227903261Y-70966497D01*
X227999431Y-71172732D01*
X227999432Y-71172734D01*
X228129954Y-71359141D01*
X228290858Y-71520045D01*
X228290861Y-71520047D01*
X228477266Y-71650568D01*
X228535275Y-71677618D01*
X228587714Y-71723791D01*
X228606866Y-71790984D01*
X228586650Y-71857865D01*
X228535275Y-71902381D01*
X228525322Y-71907023D01*
X228477267Y-71929431D01*
X228477265Y-71929432D01*
X228290858Y-72059954D01*
X228127632Y-72223181D01*
X228066309Y-72256666D01*
X228039951Y-72259500D01*
X226528832Y-72259500D01*
X226461793Y-72239815D01*
X226416038Y-72187011D01*
X226406290Y-72130415D01*
X226405277Y-72130415D01*
X226405277Y-72124997D01*
X226399586Y-72059953D01*
X226386207Y-71907023D01*
X226343259Y-71746739D01*
X226329577Y-71695677D01*
X226329576Y-71695676D01*
X226329575Y-71695670D01*
X226237102Y-71497362D01*
X226237100Y-71497359D01*
X226237099Y-71497357D01*
X226111599Y-71318124D01*
X226111596Y-71318121D01*
X225956877Y-71163402D01*
X225777639Y-71037898D01*
X225777640Y-71037898D01*
X225777638Y-71037897D01*
X225678484Y-70991661D01*
X225579330Y-70945425D01*
X225579326Y-70945424D01*
X225579322Y-70945422D01*
X225367977Y-70888793D01*
X225150002Y-70869723D01*
X225149998Y-70869723D01*
X225004682Y-70882436D01*
X224932023Y-70888793D01*
X224932020Y-70888793D01*
X224720677Y-70945422D01*
X224720668Y-70945426D01*
X224522361Y-71037898D01*
X224522357Y-71037900D01*
X224343121Y-71163402D01*
X224188402Y-71318121D01*
X224062900Y-71497357D01*
X224062898Y-71497361D01*
X223970426Y-71695668D01*
X223970422Y-71695677D01*
X223913793Y-71907020D01*
X223913793Y-71907023D01*
X223909025Y-71961517D01*
X223894723Y-72124997D01*
X223894723Y-72125002D01*
X223913793Y-72342975D01*
X223913793Y-72342979D01*
X223970422Y-72554322D01*
X223970424Y-72554326D01*
X223970425Y-72554330D01*
X224016661Y-72653484D01*
X224062897Y-72752638D01*
X224062898Y-72752639D01*
X224188402Y-72931877D01*
X224343123Y-73086598D01*
X224522361Y-73212102D01*
X224720670Y-73304575D01*
X224720676Y-73304576D01*
X224720677Y-73304577D01*
X224740916Y-73310000D01*
X224932023Y-73361207D01*
X225114926Y-73377208D01*
X225149998Y-73380277D01*
X225149999Y-73380277D01*
X225149999Y-73380276D01*
X225150000Y-73380277D01*
X225205685Y-73375404D01*
X225274182Y-73389169D01*
X225304173Y-73411251D01*
X225574707Y-73681786D01*
X225574711Y-73681789D01*
X225705814Y-73769390D01*
X225705818Y-73769392D01*
X225705821Y-73769394D01*
X225851503Y-73829738D01*
X226006153Y-73860499D01*
X226006157Y-73860500D01*
X226006158Y-73860500D01*
X228039951Y-73860500D01*
X228106990Y-73880185D01*
X228127632Y-73896819D01*
X228290858Y-74060045D01*
X228290861Y-74060047D01*
X228477266Y-74190568D01*
X228523909Y-74212318D01*
X228535275Y-74217618D01*
X228587714Y-74263791D01*
X228606866Y-74330984D01*
X228586650Y-74397865D01*
X228535275Y-74442382D01*
X228477267Y-74469431D01*
X228477265Y-74469432D01*
X228290858Y-74599954D01*
X228127632Y-74763181D01*
X228066309Y-74796666D01*
X228039951Y-74799500D01*
X226496155Y-74799500D01*
X226341508Y-74830261D01*
X226341498Y-74830264D01*
X226195827Y-74890602D01*
X226195814Y-74890609D01*
X226064712Y-74978209D01*
X226035095Y-75007827D01*
X225953211Y-75089711D01*
X225953209Y-75089713D01*
X225304174Y-75738747D01*
X225242851Y-75772232D01*
X225205687Y-75774594D01*
X225150004Y-75769723D01*
X225149998Y-75769723D01*
X225004682Y-75782436D01*
X224932023Y-75788793D01*
X224932020Y-75788793D01*
X224720677Y-75845422D01*
X224720668Y-75845426D01*
X224522361Y-75937898D01*
X224522357Y-75937900D01*
X224343121Y-76063402D01*
X224188402Y-76218121D01*
X224062900Y-76397357D01*
X224062898Y-76397361D01*
X223970426Y-76595668D01*
X223970422Y-76595677D01*
X223913793Y-76807020D01*
X223913793Y-76807024D01*
X223894723Y-77024997D01*
X223894723Y-77025002D01*
X223913793Y-77242975D01*
X223913793Y-77242979D01*
X223970422Y-77454322D01*
X223970424Y-77454326D01*
X223970425Y-77454330D01*
X224001134Y-77520185D01*
X224062897Y-77652638D01*
X224062898Y-77652639D01*
X224188402Y-77831877D01*
X224343123Y-77986598D01*
X224522361Y-78112102D01*
X224720670Y-78204575D01*
X224932023Y-78261207D01*
X225114926Y-78277208D01*
X225149998Y-78280277D01*
X225150000Y-78280277D01*
X225150002Y-78280277D01*
X225178254Y-78277805D01*
X225367977Y-78261207D01*
X225579330Y-78204575D01*
X225777639Y-78112102D01*
X225956877Y-77986598D01*
X226111598Y-77831877D01*
X226237102Y-77652639D01*
X226329575Y-77454330D01*
X226386207Y-77242977D01*
X226402805Y-77053254D01*
X226405277Y-77025002D01*
X226403915Y-77009432D01*
X226400404Y-76969311D01*
X226414170Y-76900814D01*
X226436247Y-76870828D01*
X226870258Y-76436819D01*
X226931581Y-76403334D01*
X226957939Y-76400500D01*
X228039951Y-76400500D01*
X228106990Y-76420185D01*
X228127632Y-76436819D01*
X228290858Y-76600045D01*
X228290861Y-76600047D01*
X228477266Y-76730568D01*
X228535275Y-76757618D01*
X228587714Y-76803791D01*
X228606866Y-76870984D01*
X228586650Y-76937865D01*
X228535275Y-76982382D01*
X228477267Y-77009431D01*
X228477265Y-77009432D01*
X228290858Y-77139954D01*
X228129954Y-77300858D01*
X227999432Y-77487265D01*
X227999431Y-77487267D01*
X227903261Y-77693502D01*
X227903258Y-77693511D01*
X227844366Y-77913302D01*
X227844364Y-77913313D01*
X227824532Y-78139998D01*
X227824532Y-78140001D01*
X227844364Y-78366686D01*
X227844366Y-78366697D01*
X227903258Y-78586488D01*
X227903261Y-78586497D01*
X227999431Y-78792732D01*
X227999432Y-78792734D01*
X228129954Y-78979141D01*
X228290858Y-79140045D01*
X228290861Y-79140047D01*
X228477266Y-79270568D01*
X228535275Y-79297618D01*
X228587714Y-79343791D01*
X228606866Y-79410984D01*
X228586650Y-79477865D01*
X228535275Y-79522382D01*
X228477267Y-79549431D01*
X228477265Y-79549432D01*
X228290858Y-79679954D01*
X228129954Y-79840858D01*
X227999432Y-80027265D01*
X227999431Y-80027267D01*
X227903261Y-80233502D01*
X227903258Y-80233511D01*
X227844366Y-80453302D01*
X227844364Y-80453313D01*
X227824532Y-80679998D01*
X227824532Y-80680001D01*
X227844364Y-80906686D01*
X227844366Y-80906697D01*
X227903258Y-81126488D01*
X227903261Y-81126497D01*
X227999431Y-81332732D01*
X227999432Y-81332734D01*
X228129954Y-81519141D01*
X228290858Y-81680045D01*
X228290861Y-81680047D01*
X228477266Y-81810568D01*
X228535275Y-81837618D01*
X228587714Y-81883791D01*
X228606866Y-81950984D01*
X228586650Y-82017865D01*
X228535275Y-82062381D01*
X228518272Y-82070310D01*
X228477267Y-82089431D01*
X228477265Y-82089432D01*
X228290858Y-82219954D01*
X228129954Y-82380858D01*
X227999432Y-82567265D01*
X227999431Y-82567267D01*
X227903261Y-82773502D01*
X227903258Y-82773511D01*
X227844366Y-82993302D01*
X227844364Y-82993313D01*
X227824532Y-83219998D01*
X227824532Y-83220001D01*
X227844364Y-83446686D01*
X227844366Y-83446697D01*
X227903258Y-83666488D01*
X227903261Y-83666497D01*
X227999431Y-83872732D01*
X227999432Y-83872734D01*
X228129954Y-84059141D01*
X228290858Y-84220045D01*
X228290861Y-84220047D01*
X228477266Y-84350568D01*
X228535275Y-84377618D01*
X228587714Y-84423791D01*
X228606866Y-84490984D01*
X228586650Y-84557865D01*
X228535275Y-84602382D01*
X228477267Y-84629431D01*
X228477265Y-84629432D01*
X228290858Y-84759954D01*
X228129954Y-84920858D01*
X227999432Y-85107265D01*
X227999431Y-85107267D01*
X227903261Y-85313502D01*
X227903258Y-85313511D01*
X227844366Y-85533302D01*
X227844364Y-85533313D01*
X227824532Y-85759998D01*
X227824532Y-85760001D01*
X227844364Y-85986686D01*
X227844366Y-85986697D01*
X227903258Y-86206488D01*
X227903261Y-86206497D01*
X227999431Y-86412732D01*
X227999432Y-86412734D01*
X228129954Y-86599141D01*
X228290858Y-86760045D01*
X228290861Y-86760047D01*
X228477266Y-86890568D01*
X228683504Y-86986739D01*
X228903308Y-87045635D01*
X229065230Y-87059801D01*
X229129998Y-87065468D01*
X229130000Y-87065468D01*
X229130002Y-87065468D01*
X229186673Y-87060509D01*
X229356692Y-87045635D01*
X229576496Y-86986739D01*
X229782734Y-86890568D01*
X229969139Y-86760047D01*
X230130047Y-86599139D01*
X230260568Y-86412734D01*
X230356739Y-86206496D01*
X230415635Y-85986692D01*
X230435468Y-85760000D01*
X230415635Y-85533308D01*
X230356739Y-85313504D01*
X230260568Y-85107266D01*
X230130047Y-84920861D01*
X230130045Y-84920858D01*
X229969141Y-84759954D01*
X229782734Y-84629432D01*
X229782728Y-84629429D01*
X229724725Y-84602382D01*
X229672285Y-84556210D01*
X229653133Y-84489017D01*
X229673348Y-84422135D01*
X229724725Y-84377618D01*
X229782734Y-84350568D01*
X229969139Y-84220047D01*
X230130047Y-84059139D01*
X230260568Y-83872734D01*
X230356739Y-83666496D01*
X230415635Y-83446692D01*
X230435468Y-83220000D01*
X230415635Y-82993308D01*
X230356739Y-82773504D01*
X230260568Y-82567266D01*
X230156609Y-82418796D01*
X230130045Y-82380858D01*
X229969141Y-82219954D01*
X229782734Y-82089432D01*
X229782728Y-82089429D01*
X229755038Y-82076517D01*
X229724724Y-82062381D01*
X229672285Y-82016210D01*
X229653133Y-81949017D01*
X229673348Y-81882135D01*
X229724725Y-81837618D01*
X229782734Y-81810568D01*
X229969139Y-81680047D01*
X230130047Y-81519139D01*
X230260568Y-81332734D01*
X230356739Y-81126496D01*
X230415635Y-80906692D01*
X230435468Y-80680000D01*
X230428219Y-80597149D01*
X230441985Y-80528652D01*
X230490600Y-80478469D01*
X230558628Y-80462535D01*
X230624472Y-80485910D01*
X230639428Y-80498663D01*
X232363181Y-82222416D01*
X232396666Y-82283739D01*
X232399500Y-82310097D01*
X232399500Y-87999903D01*
X232379815Y-88066942D01*
X232363181Y-88087584D01*
X229287584Y-91163181D01*
X229226261Y-91196666D01*
X229199903Y-91199500D01*
X224786669Y-91199500D01*
X224786653Y-91199499D01*
X224779057Y-91199499D01*
X224620943Y-91199499D01*
X224548927Y-91218796D01*
X224468216Y-91240422D01*
X224428742Y-91263213D01*
X224428741Y-91263212D01*
X224331287Y-91319477D01*
X224331282Y-91319481D01*
X224219480Y-91431284D01*
X224219478Y-91431286D01*
X223247431Y-92403334D01*
X222287584Y-93363181D01*
X222226261Y-93396666D01*
X222199903Y-93399500D01*
X217810097Y-93399500D01*
X217743058Y-93379815D01*
X217722416Y-93363181D01*
X216806516Y-92447281D01*
X216773031Y-92385958D01*
X216773992Y-92329159D01*
X216774061Y-92328884D01*
X216774063Y-92328881D01*
X216835108Y-92087821D01*
X216855643Y-91840000D01*
X216835108Y-91592179D01*
X216774063Y-91351119D01*
X216760185Y-91319481D01*
X216707556Y-91199499D01*
X216674173Y-91123393D01*
X216543256Y-90923009D01*
X216523070Y-90856122D01*
X216542250Y-90788936D01*
X216587642Y-90746356D01*
X216592323Y-90743798D01*
X216592331Y-90743796D01*
X216707546Y-90657546D01*
X216793796Y-90542331D01*
X216844091Y-90407483D01*
X216850500Y-90347873D01*
X216850499Y-88252128D01*
X216844091Y-88192517D01*
X216793796Y-88057669D01*
X216793795Y-88057668D01*
X216793793Y-88057664D01*
X216707547Y-87942455D01*
X216707544Y-87942452D01*
X216592335Y-87856206D01*
X216592328Y-87856202D01*
X216457482Y-87805908D01*
X216457483Y-87805908D01*
X216397883Y-87799501D01*
X216397881Y-87799500D01*
X216397873Y-87799500D01*
X216397864Y-87799500D01*
X214302129Y-87799500D01*
X214302123Y-87799501D01*
X214242516Y-87805908D01*
X214107671Y-87856202D01*
X214107664Y-87856206D01*
X213992455Y-87942452D01*
X213992452Y-87942455D01*
X213906206Y-88057664D01*
X213906202Y-88057671D01*
X213855908Y-88192517D01*
X213849501Y-88252116D01*
X213849501Y-88252123D01*
X213849500Y-88252135D01*
X213849500Y-90347870D01*
X213849501Y-90347876D01*
X213855908Y-90407483D01*
X213906202Y-90542328D01*
X213906206Y-90542335D01*
X213992452Y-90657544D01*
X213992455Y-90657547D01*
X214107664Y-90743793D01*
X214112361Y-90746358D01*
X214161766Y-90795764D01*
X214176617Y-90864037D01*
X214156742Y-90923011D01*
X214025826Y-91123393D01*
X213925936Y-91351118D01*
X213864892Y-91592175D01*
X213864890Y-91592187D01*
X213844357Y-91839994D01*
X213844357Y-91840005D01*
X213864890Y-92087812D01*
X213864892Y-92087824D01*
X213925936Y-92328881D01*
X214025826Y-92556606D01*
X214161833Y-92764782D01*
X214161836Y-92764785D01*
X214330256Y-92947738D01*
X214526491Y-93100474D01*
X214745190Y-93218828D01*
X214980386Y-93299571D01*
X215225665Y-93340500D01*
X215474335Y-93340500D01*
X215719608Y-93299572D01*
X215719607Y-93299572D01*
X215719614Y-93299571D01*
X215825607Y-93263182D01*
X215895402Y-93260033D01*
X215953548Y-93292783D01*
X217025139Y-94364374D01*
X217025149Y-94364385D01*
X217029479Y-94368715D01*
X217029480Y-94368716D01*
X217141284Y-94480520D01*
X217228095Y-94530639D01*
X217228097Y-94530641D01*
X217278213Y-94559576D01*
X217278215Y-94559577D01*
X217430942Y-94600500D01*
X217430943Y-94600500D01*
X222413331Y-94600500D01*
X222413347Y-94600501D01*
X222420943Y-94600501D01*
X222579054Y-94600501D01*
X222579057Y-94600501D01*
X222731785Y-94559577D01*
X222781904Y-94530639D01*
X222868716Y-94480520D01*
X222980520Y-94368716D01*
X222980520Y-94368714D01*
X222990728Y-94358507D01*
X222990729Y-94358504D01*
X224912416Y-92436819D01*
X224973739Y-92403334D01*
X225000097Y-92400500D01*
X229413331Y-92400500D01*
X229413347Y-92400501D01*
X229420943Y-92400501D01*
X229579054Y-92400501D01*
X229579057Y-92400501D01*
X229731785Y-92359577D01*
X229781904Y-92330639D01*
X229868716Y-92280520D01*
X229980520Y-92168716D01*
X229980520Y-92168714D01*
X229990728Y-92158507D01*
X229990729Y-92158504D01*
X232912322Y-89236912D01*
X232973641Y-89203430D01*
X233043333Y-89208414D01*
X233087680Y-89236915D01*
X236055139Y-92204374D01*
X236055149Y-92204385D01*
X236059479Y-92208715D01*
X236059480Y-92208716D01*
X236171284Y-92320520D01*
X236238933Y-92359576D01*
X236258095Y-92370639D01*
X236258097Y-92370641D01*
X236284627Y-92385958D01*
X236308215Y-92399577D01*
X236460943Y-92440501D01*
X236460946Y-92440501D01*
X236626653Y-92440501D01*
X236626669Y-92440500D01*
X253293884Y-92440500D01*
X253360923Y-92460185D01*
X253406678Y-92512989D01*
X253407440Y-92514689D01*
X253425827Y-92556608D01*
X253561833Y-92764782D01*
X253561836Y-92764785D01*
X253730256Y-92947738D01*
X253926491Y-93100474D01*
X254145190Y-93218828D01*
X254380386Y-93299571D01*
X254625665Y-93340500D01*
X254874335Y-93340500D01*
X255119614Y-93299571D01*
X255354810Y-93218828D01*
X255573509Y-93100474D01*
X255769744Y-92947738D01*
X255938164Y-92764785D01*
X256074173Y-92556607D01*
X256174063Y-92328881D01*
X256235108Y-92087821D01*
X256255643Y-91840000D01*
X256235108Y-91592179D01*
X256174063Y-91351119D01*
X256160185Y-91319481D01*
X256107556Y-91199499D01*
X256074173Y-91123393D01*
X255943256Y-90923009D01*
X255923070Y-90856122D01*
X255942250Y-90788936D01*
X255987642Y-90746356D01*
X255992323Y-90743798D01*
X255992331Y-90743796D01*
X256107546Y-90657546D01*
X256193796Y-90542331D01*
X256244091Y-90407483D01*
X256250500Y-90347873D01*
X256250499Y-88700097D01*
X256270184Y-88633059D01*
X256286818Y-88612417D01*
X256706719Y-88192516D01*
X257280520Y-87618716D01*
X257359577Y-87481785D01*
X257400501Y-87329057D01*
X257400501Y-87170942D01*
X257400501Y-87163347D01*
X257400500Y-87163329D01*
X257400500Y-79620943D01*
X257400499Y-79620939D01*
X257383841Y-79558769D01*
X257374091Y-79522382D01*
X257359577Y-79468215D01*
X257316939Y-79394365D01*
X257309406Y-79381318D01*
X257280521Y-79331286D01*
X257280520Y-79331284D01*
X257168716Y-79219480D01*
X257168715Y-79219479D01*
X257164385Y-79215149D01*
X257164374Y-79215139D01*
X252342948Y-74393713D01*
X255599500Y-74393713D01*
X255599500Y-74606287D01*
X255632754Y-74816243D01*
X255685380Y-74978209D01*
X255698444Y-75018414D01*
X255794951Y-75207820D01*
X255919890Y-75379786D01*
X256070213Y-75530109D01*
X256242179Y-75655048D01*
X256242181Y-75655049D01*
X256242184Y-75655051D01*
X256431588Y-75751557D01*
X256633757Y-75817246D01*
X256843713Y-75850500D01*
X256843714Y-75850500D01*
X257056286Y-75850500D01*
X257056287Y-75850500D01*
X257266243Y-75817246D01*
X257468412Y-75751557D01*
X257657816Y-75655051D01*
X257679789Y-75639086D01*
X257829786Y-75530109D01*
X257829788Y-75530106D01*
X257829792Y-75530104D01*
X257980104Y-75379792D01*
X257980106Y-75379788D01*
X257980109Y-75379786D01*
X258105048Y-75207820D01*
X258105047Y-75207820D01*
X258105051Y-75207816D01*
X258201557Y-75018412D01*
X258267246Y-74816243D01*
X258300500Y-74606287D01*
X258300500Y-74393713D01*
X258267246Y-74183757D01*
X258201557Y-73981588D01*
X258105051Y-73792184D01*
X258105049Y-73792181D01*
X258105048Y-73792179D01*
X257980109Y-73620213D01*
X257829786Y-73469890D01*
X257657820Y-73344951D01*
X257468414Y-73248444D01*
X257468413Y-73248443D01*
X257468412Y-73248443D01*
X257266243Y-73182754D01*
X257266241Y-73182753D01*
X257266240Y-73182753D01*
X257104957Y-73157208D01*
X257056287Y-73149500D01*
X256843713Y-73149500D01*
X256795042Y-73157208D01*
X256633760Y-73182753D01*
X256431585Y-73248444D01*
X256242179Y-73344951D01*
X256070213Y-73469890D01*
X255919890Y-73620213D01*
X255794951Y-73792179D01*
X255698444Y-73981585D01*
X255632753Y-74183760D01*
X255616443Y-74286739D01*
X255599500Y-74393713D01*
X252342948Y-74393713D01*
X252336915Y-74387680D01*
X252303430Y-74326357D01*
X252308414Y-74256665D01*
X252336911Y-74212322D01*
X252558506Y-73990727D01*
X252558511Y-73990724D01*
X252568714Y-73980520D01*
X252568716Y-73980520D01*
X252680520Y-73868716D01*
X252743594Y-73759466D01*
X252743596Y-73759465D01*
X252750081Y-73748231D01*
X252759577Y-73731785D01*
X252800501Y-73579057D01*
X252800501Y-73420943D01*
X252800501Y-73413348D01*
X252800500Y-73413330D01*
X252800500Y-49850096D01*
X252820185Y-49783057D01*
X252836815Y-49762419D01*
X253041026Y-49558208D01*
X253102348Y-49524724D01*
X253172040Y-49529708D01*
X253227973Y-49571580D01*
X253252282Y-49635650D01*
X253264890Y-49787812D01*
X253264892Y-49787824D01*
X253325936Y-50028881D01*
X253425826Y-50256606D01*
X253561833Y-50464782D01*
X253561836Y-50464785D01*
X253730256Y-50647738D01*
X253926491Y-50800474D01*
X253926493Y-50800475D01*
X254108059Y-50898734D01*
X254145190Y-50918828D01*
X254380386Y-50999571D01*
X254625665Y-51040500D01*
X254874335Y-51040500D01*
X255119614Y-50999571D01*
X255354810Y-50918828D01*
X255573509Y-50800474D01*
X255769744Y-50647738D01*
X255938164Y-50464785D01*
X256074173Y-50256607D01*
X256174063Y-50028881D01*
X256235108Y-49787821D01*
X256237213Y-49762415D01*
X256255643Y-49540005D01*
X256255643Y-49539994D01*
X256235109Y-49292187D01*
X256235107Y-49292175D01*
X256174063Y-49051118D01*
X256074174Y-48823396D01*
X256074173Y-48823393D01*
X255943256Y-48623009D01*
X255923070Y-48556122D01*
X255942250Y-48488936D01*
X255987642Y-48446356D01*
X255992323Y-48443798D01*
X255992331Y-48443796D01*
X256107546Y-48357546D01*
X256193796Y-48242331D01*
X256244091Y-48107483D01*
X256250500Y-48047873D01*
X256250499Y-45952128D01*
X256244091Y-45892517D01*
X256201774Y-45779060D01*
X256193797Y-45757671D01*
X256193793Y-45757664D01*
X256107547Y-45642455D01*
X256107544Y-45642452D01*
X255992335Y-45556206D01*
X255992328Y-45556202D01*
X255857482Y-45505908D01*
X255857483Y-45505908D01*
X255797883Y-45499501D01*
X255797881Y-45499500D01*
X255797873Y-45499500D01*
X255797864Y-45499500D01*
X253702129Y-45499500D01*
X253702123Y-45499501D01*
X253642516Y-45505908D01*
X253507671Y-45556202D01*
X253507664Y-45556206D01*
X253392455Y-45642452D01*
X253392452Y-45642455D01*
X253306206Y-45757664D01*
X253306202Y-45757671D01*
X253255908Y-45892517D01*
X253249501Y-45952116D01*
X253249501Y-45952123D01*
X253249500Y-45952135D01*
X253249500Y-47599901D01*
X253229815Y-47666940D01*
X253213181Y-47687582D01*
X251831286Y-49069478D01*
X251719481Y-49181282D01*
X251719479Y-49181285D01*
X251669361Y-49268094D01*
X251669359Y-49268096D01*
X251640425Y-49318209D01*
X251640424Y-49318210D01*
X251640423Y-49318215D01*
X251599499Y-49470943D01*
X251599499Y-49470945D01*
X251599499Y-49639046D01*
X251599500Y-49639059D01*
X251599500Y-73199903D01*
X251579815Y-73266942D01*
X251563181Y-73287584D01*
X251187584Y-73663181D01*
X251126261Y-73696666D01*
X251099903Y-73699500D01*
X238080829Y-73699500D01*
X238013790Y-73679815D01*
X237968035Y-73627011D01*
X237958091Y-73557853D01*
X237968447Y-73523096D01*
X237976264Y-73506331D01*
X237976269Y-73506317D01*
X238028872Y-73310000D01*
X237065686Y-73310000D01*
X237070080Y-73305606D01*
X237122741Y-73214394D01*
X237150000Y-73112661D01*
X237150000Y-73007339D01*
X237122741Y-72905606D01*
X237070080Y-72814394D01*
X237065686Y-72810000D01*
X238028872Y-72810000D01*
X238028872Y-72809999D01*
X237976269Y-72613682D01*
X237976265Y-72613673D01*
X237880134Y-72407517D01*
X237749657Y-72221179D01*
X237588820Y-72060342D01*
X237402482Y-71929865D01*
X237344133Y-71902657D01*
X237291694Y-71856484D01*
X237272542Y-71789291D01*
X237292758Y-71722410D01*
X237344129Y-71677895D01*
X237402734Y-71650568D01*
X237589139Y-71520047D01*
X237750047Y-71359139D01*
X237880568Y-71172734D01*
X237976739Y-70966496D01*
X238035635Y-70746692D01*
X238052634Y-70552384D01*
X238055468Y-70520001D01*
X238055468Y-70519998D01*
X238046617Y-70418830D01*
X238035635Y-70293308D01*
X237976739Y-70073504D01*
X237880568Y-69867266D01*
X237750047Y-69680861D01*
X237750045Y-69680858D01*
X237589141Y-69519954D01*
X237402734Y-69389432D01*
X237402728Y-69389429D01*
X237344725Y-69362382D01*
X237292285Y-69316210D01*
X237273133Y-69249017D01*
X237293348Y-69182135D01*
X237344725Y-69137618D01*
X237345319Y-69137341D01*
X237402734Y-69110568D01*
X237589139Y-68980047D01*
X237750047Y-68819139D01*
X237880568Y-68632734D01*
X237976739Y-68426496D01*
X238035635Y-68206692D01*
X238052634Y-68012384D01*
X238055468Y-67980001D01*
X238055468Y-67979998D01*
X238035635Y-67753313D01*
X238035635Y-67753308D01*
X237976739Y-67533504D01*
X237880568Y-67327266D01*
X237750047Y-67140861D01*
X237750045Y-67140858D01*
X237589141Y-66979954D01*
X237402734Y-66849432D01*
X237402728Y-66849429D01*
X237344725Y-66822382D01*
X237292285Y-66776210D01*
X237273133Y-66709017D01*
X237293348Y-66642135D01*
X237344725Y-66597618D01*
X237402734Y-66570568D01*
X237589139Y-66440047D01*
X237750047Y-66279139D01*
X237880568Y-66092734D01*
X237976739Y-65886496D01*
X238035635Y-65666692D01*
X238052634Y-65472384D01*
X238055468Y-65440001D01*
X238055468Y-65439998D01*
X238035635Y-65213313D01*
X238035635Y-65213308D01*
X237976739Y-64993504D01*
X237880568Y-64787266D01*
X237750047Y-64600861D01*
X237750045Y-64600858D01*
X237589141Y-64439954D01*
X237402734Y-64309432D01*
X237402728Y-64309429D01*
X237344725Y-64282382D01*
X237292285Y-64236210D01*
X237273133Y-64169017D01*
X237293348Y-64102135D01*
X237344725Y-64057618D01*
X237402734Y-64030568D01*
X237589139Y-63900047D01*
X237750047Y-63739139D01*
X237880568Y-63552734D01*
X237976739Y-63346496D01*
X238035635Y-63126692D01*
X238055468Y-62900000D01*
X238035635Y-62673308D01*
X237976739Y-62453504D01*
X237880568Y-62247266D01*
X237750047Y-62060861D01*
X237750045Y-62060858D01*
X237589141Y-61899954D01*
X237402734Y-61769432D01*
X237402728Y-61769429D01*
X237344725Y-61742382D01*
X237292285Y-61696210D01*
X237273133Y-61629017D01*
X237293348Y-61562135D01*
X237344725Y-61517618D01*
X237402734Y-61490568D01*
X237589139Y-61360047D01*
X237750047Y-61199139D01*
X237880568Y-61012734D01*
X237976739Y-60806496D01*
X238035635Y-60586692D01*
X238055468Y-60360000D01*
X238035635Y-60133308D01*
X237976739Y-59913504D01*
X237880568Y-59707266D01*
X237750047Y-59520861D01*
X237750045Y-59520858D01*
X237589141Y-59359954D01*
X237402734Y-59229432D01*
X237402728Y-59229429D01*
X237344725Y-59202382D01*
X237292285Y-59156210D01*
X237273133Y-59089017D01*
X237293348Y-59022135D01*
X237344725Y-58977618D01*
X237402734Y-58950568D01*
X237589139Y-58820047D01*
X237750047Y-58659139D01*
X237880568Y-58472734D01*
X237976739Y-58266496D01*
X238035635Y-58046692D01*
X238055468Y-57820000D01*
X238035635Y-57593308D01*
X237976739Y-57373504D01*
X237880568Y-57167266D01*
X237750047Y-56980861D01*
X237750045Y-56980858D01*
X237589141Y-56819954D01*
X237402734Y-56689432D01*
X237402728Y-56689429D01*
X237344725Y-56662382D01*
X237292285Y-56616210D01*
X237273133Y-56549017D01*
X237293348Y-56482135D01*
X237344725Y-56437618D01*
X237402734Y-56410568D01*
X237589139Y-56280047D01*
X237750047Y-56119139D01*
X237880568Y-55932734D01*
X237976739Y-55726496D01*
X238035635Y-55506692D01*
X238055468Y-55280000D01*
X238035635Y-55053308D01*
X238009847Y-54957066D01*
X238011510Y-54887217D01*
X238041939Y-54837294D01*
X238208506Y-54670728D01*
X238208511Y-54670724D01*
X238218714Y-54660520D01*
X238218716Y-54660520D01*
X238330520Y-54548716D01*
X238392790Y-54440861D01*
X238409577Y-54411785D01*
X238450501Y-54259057D01*
X238450501Y-54100943D01*
X238450501Y-54093348D01*
X238450500Y-54093330D01*
X238450500Y-48405259D01*
X238450500Y-48405257D01*
X238437716Y-48357546D01*
X238409577Y-48252529D01*
X238368732Y-48181784D01*
X238330520Y-48115598D01*
X238218716Y-48003794D01*
X238214385Y-47999463D01*
X238214374Y-47999453D01*
X235208634Y-44993713D01*
X246399500Y-44993713D01*
X246399500Y-45206286D01*
X246425226Y-45368717D01*
X246432754Y-45416243D01*
X246478230Y-45556204D01*
X246498444Y-45618414D01*
X246594951Y-45807820D01*
X246719890Y-45979786D01*
X246870213Y-46130109D01*
X247042179Y-46255048D01*
X247042181Y-46255049D01*
X247042184Y-46255051D01*
X247231588Y-46351557D01*
X247433757Y-46417246D01*
X247643713Y-46450500D01*
X247643714Y-46450500D01*
X247856286Y-46450500D01*
X247856287Y-46450500D01*
X248066243Y-46417246D01*
X248268412Y-46351557D01*
X248457816Y-46255051D01*
X248499866Y-46224500D01*
X248629786Y-46130109D01*
X248629788Y-46130106D01*
X248629792Y-46130104D01*
X248780104Y-45979792D01*
X248780106Y-45979788D01*
X248780109Y-45979786D01*
X248905048Y-45807820D01*
X248905047Y-45807820D01*
X248905051Y-45807816D01*
X249001557Y-45618412D01*
X249067246Y-45416243D01*
X249100500Y-45206287D01*
X249100500Y-44993713D01*
X249067246Y-44783757D01*
X249001557Y-44581588D01*
X248905051Y-44392184D01*
X248905049Y-44392181D01*
X248905048Y-44392179D01*
X248780109Y-44220213D01*
X248629786Y-44069890D01*
X248457820Y-43944951D01*
X248268414Y-43848444D01*
X248268413Y-43848443D01*
X248268412Y-43848443D01*
X248066243Y-43782754D01*
X248066241Y-43782753D01*
X248066240Y-43782753D01*
X247904957Y-43757208D01*
X247856287Y-43749500D01*
X247643713Y-43749500D01*
X247595042Y-43757208D01*
X247433760Y-43782753D01*
X247231585Y-43848444D01*
X247042179Y-43944951D01*
X246870213Y-44069890D01*
X246719890Y-44220213D01*
X246594951Y-44392179D01*
X246498444Y-44581585D01*
X246432753Y-44783760D01*
X246399500Y-44993713D01*
X235208634Y-44993713D01*
X234853276Y-44638355D01*
X234853274Y-44638352D01*
X234734403Y-44519481D01*
X234734402Y-44519480D01*
X234647590Y-44469360D01*
X234647590Y-44469359D01*
X234647586Y-44469358D01*
X234597471Y-44440423D01*
X234444743Y-44399499D01*
X234286629Y-44399499D01*
X234279033Y-44399499D01*
X234279017Y-44399500D01*
X213920940Y-44399500D01*
X213880019Y-44410464D01*
X213880019Y-44410465D01*
X213842751Y-44420451D01*
X213768214Y-44440423D01*
X213768209Y-44440426D01*
X213631290Y-44519475D01*
X213631282Y-44519481D01*
X212819479Y-45331284D01*
X212804289Y-45357594D01*
X212797869Y-45368716D01*
X212740423Y-45468215D01*
X212699499Y-45620943D01*
X212699499Y-45620945D01*
X212699499Y-45789046D01*
X212699500Y-45789059D01*
X212699500Y-50213330D01*
X212699499Y-50213348D01*
X212699499Y-50379054D01*
X212699498Y-50379054D01*
X212740423Y-50531785D01*
X212753551Y-50554523D01*
X212819477Y-50668712D01*
X212819481Y-50668717D01*
X212938349Y-50787585D01*
X212938355Y-50787590D01*
X215063181Y-52912416D01*
X215096666Y-52973739D01*
X215099500Y-53000097D01*
X215099500Y-61899902D01*
X215079815Y-61966941D01*
X215063181Y-61987583D01*
X212519481Y-64531282D01*
X212519479Y-64531284D01*
X212502102Y-64561383D01*
X212494757Y-64574106D01*
X212440423Y-64668215D01*
X212399499Y-64820943D01*
X212399499Y-64820945D01*
X212399499Y-64989046D01*
X212399500Y-64989059D01*
X212399500Y-78663330D01*
X212399499Y-78663348D01*
X212399499Y-78829054D01*
X212399498Y-78829054D01*
X210500500Y-78829054D01*
X210500500Y-54093713D01*
X211399500Y-54093713D01*
X211399500Y-54306286D01*
X211420814Y-54440861D01*
X211432754Y-54516243D01*
X211468827Y-54627265D01*
X211498444Y-54718414D01*
X211594951Y-54907820D01*
X211719890Y-55079786D01*
X211870213Y-55230109D01*
X212042179Y-55355048D01*
X212042181Y-55355049D01*
X212042184Y-55355051D01*
X212231588Y-55451557D01*
X212433757Y-55517246D01*
X212643713Y-55550500D01*
X212643714Y-55550500D01*
X212856286Y-55550500D01*
X212856287Y-55550500D01*
X213066243Y-55517246D01*
X213268412Y-55451557D01*
X213457816Y-55355051D01*
X213479789Y-55339086D01*
X213629786Y-55230109D01*
X213629788Y-55230106D01*
X213629792Y-55230104D01*
X213780104Y-55079792D01*
X213780106Y-55079788D01*
X213780109Y-55079786D01*
X213905048Y-54907820D01*
X213905047Y-54907820D01*
X213905051Y-54907816D01*
X214001557Y-54718412D01*
X214067246Y-54516243D01*
X214100500Y-54306287D01*
X214100500Y-54093713D01*
X214067246Y-53883757D01*
X214001557Y-53681588D01*
X213905051Y-53492184D01*
X213905049Y-53492181D01*
X213905048Y-53492179D01*
X213780109Y-53320213D01*
X213629786Y-53169890D01*
X213457820Y-53044951D01*
X213268414Y-52948444D01*
X213268413Y-52948443D01*
X213268412Y-52948443D01*
X213066243Y-52882754D01*
X213066241Y-52882753D01*
X213066240Y-52882753D01*
X212904957Y-52857208D01*
X212856287Y-52849500D01*
X212643713Y-52849500D01*
X212595042Y-52857208D01*
X212433760Y-52882753D01*
X212231585Y-52948444D01*
X212042179Y-53044951D01*
X211870213Y-53169890D01*
X211719890Y-53320213D01*
X211594951Y-53492179D01*
X211498444Y-53681585D01*
X211432753Y-53883760D01*
X211399500Y-54093713D01*
X210500500Y-54093713D01*
X210500500Y-43024500D01*
X210520185Y-42957461D01*
X210572989Y-42911706D01*
X210624500Y-42900500D01*
X259075500Y-42900500D01*
X259142539Y-42920185D01*
G37*
%TD.AperFunction*%
%TD*%
M02*
