%TF.GenerationSoftware,KiCad,Pcbnew,8.0.7*%
%TF.CreationDate,2024-12-25T17:19:13+01:00*%
%TF.ProjectId,circuit,63697263-7569-4742-9e6b-696361645f70,v1.1.0*%
%TF.SameCoordinates,Original*%
%TF.FileFunction,Paste,Top*%
%TF.FilePolarity,Positive*%
%FSLAX46Y46*%
G04 Gerber Fmt 4.6, Leading zero omitted, Abs format (unit mm)*
G04 Created by KiCad (PCBNEW 8.0.7) date 2024-12-25 17:19:13*
%MOMM*%
%LPD*%
G01*
G04 APERTURE LIST*
G04 Aperture macros list*
%AMRoundRect*
0 Rectangle with rounded corners*
0 $1 Rounding radius*
0 $2 $3 $4 $5 $6 $7 $8 $9 X,Y pos of 4 corners*
0 Add a 4 corners polygon primitive as box body*
4,1,4,$2,$3,$4,$5,$6,$7,$8,$9,$2,$3,0*
0 Add four circle primitives for the rounded corners*
1,1,$1+$1,$2,$3*
1,1,$1+$1,$4,$5*
1,1,$1+$1,$6,$7*
1,1,$1+$1,$8,$9*
0 Add four rect primitives between the rounded corners*
20,1,$1+$1,$2,$3,$4,$5,0*
20,1,$1+$1,$4,$5,$6,$7,0*
20,1,$1+$1,$6,$7,$8,$9,0*
20,1,$1+$1,$8,$9,$2,$3,0*%
G04 Aperture macros list end*
%ADD10R,3.150000X1.000000*%
%ADD11RoundRect,0.140000X0.170000X-0.140000X0.170000X0.140000X-0.170000X0.140000X-0.170000X-0.140000X0*%
%ADD12RoundRect,0.140000X-0.170000X0.140000X-0.170000X-0.140000X0.170000X-0.140000X0.170000X0.140000X0*%
%ADD13R,5.000000X0.760000*%
%ADD14R,4.500000X8.800000*%
%ADD15R,1.550000X1.300000*%
G04 APERTURE END LIST*
D10*
%TO.C,J3*%
X219510000Y-82720000D03*
X224560000Y-82720000D03*
X219510000Y-85260000D03*
X224560000Y-85260000D03*
%TD*%
%TO.C,J1.3*%
X222475000Y-89730000D03*
X227525000Y-89730000D03*
X222475000Y-92270000D03*
X227525000Y-92270000D03*
%TD*%
D11*
%TO.C,C2*%
X221830000Y-77180000D03*
X221830000Y-76220000D03*
%TD*%
D12*
%TO.C,C1*%
X221820000Y-73110000D03*
X221820000Y-72150000D03*
%TD*%
D13*
%TO.C,J4*%
X240920000Y-64645000D03*
X240920000Y-63375000D03*
X240920000Y-62105000D03*
X240920000Y-60835000D03*
X240920000Y-59565000D03*
X240920000Y-58295000D03*
X240920000Y-57025000D03*
X240920000Y-55755000D03*
D14*
X256850000Y-60200000D03*
%TD*%
D10*
%TO.C,J2*%
X246350000Y-85400000D03*
X241300000Y-85400000D03*
X246350000Y-82860000D03*
X241300000Y-82860000D03*
X246350000Y-80320000D03*
X241300000Y-80320000D03*
%TD*%
D12*
%TO.C,C3*%
X238800000Y-72040000D03*
X238800000Y-73000000D03*
%TD*%
D10*
%TO.C,J1.4*%
X239525000Y-92270000D03*
X234475000Y-92270000D03*
X239525000Y-89730000D03*
X234475000Y-89730000D03*
%TD*%
D15*
%TO.C,SW1*%
X242750000Y-71100000D03*
X250700000Y-71100000D03*
X242750000Y-75600000D03*
X250700000Y-75600000D03*
%TD*%
D10*
%TO.C,J1*%
X219550000Y-54760000D03*
X224600000Y-54760000D03*
X219550000Y-57300000D03*
X224600000Y-57300000D03*
X219550000Y-59840000D03*
X224600000Y-59840000D03*
X219550000Y-62380000D03*
X224600000Y-62380000D03*
%TD*%
%TO.C,J1.1*%
X222475000Y-46730000D03*
X227525000Y-46730000D03*
X222475000Y-49270000D03*
X227525000Y-49270000D03*
%TD*%
%TO.C,J1.2*%
X234475000Y-46730000D03*
X239525000Y-46730000D03*
X234475000Y-49270000D03*
X239525000Y-49270000D03*
%TD*%
M02*
