%TF.GenerationSoftware,KiCad,Pcbnew,8.0.7*%
%TF.CreationDate,2024-12-25T17:19:13+01:00*%
%TF.ProjectId,circuit,63697263-7569-4742-9e6b-696361645f70,v1.1.0*%
%TF.SameCoordinates,Original*%
%TF.FileFunction,Copper,L1,Top*%
%TF.FilePolarity,Positive*%
%FSLAX46Y46*%
G04 Gerber Fmt 4.6, Leading zero omitted, Abs format (unit mm)*
G04 Created by KiCad (PCBNEW 8.0.7) date 2024-12-25 17:19:13*
%MOMM*%
%LPD*%
G01*
G04 APERTURE LIST*
G04 Aperture macros list*
%AMRoundRect*
0 Rectangle with rounded corners*
0 $1 Rounding radius*
0 $2 $3 $4 $5 $6 $7 $8 $9 X,Y pos of 4 corners*
0 Add a 4 corners polygon primitive as box body*
4,1,4,$2,$3,$4,$5,$6,$7,$8,$9,$2,$3,0*
0 Add four circle primitives for the rounded corners*
1,1,$1+$1,$2,$3*
1,1,$1+$1,$4,$5*
1,1,$1+$1,$6,$7*
1,1,$1+$1,$8,$9*
0 Add four rect primitives between the rounded corners*
20,1,$1+$1,$2,$3,$4,$5,0*
20,1,$1+$1,$4,$5,$6,$7,0*
20,1,$1+$1,$6,$7,$8,$9,0*
20,1,$1+$1,$8,$9,$2,$3,0*%
G04 Aperture macros list end*
%TA.AperFunction,SMDPad,CuDef*%
%ADD10R,3.150000X1.000000*%
%TD*%
%TA.AperFunction,ComponentPad*%
%ADD11R,2.000000X2.000000*%
%TD*%
%TA.AperFunction,ComponentPad*%
%ADD12C,2.000000*%
%TD*%
%TA.AperFunction,SMDPad,CuDef*%
%ADD13RoundRect,0.140000X0.170000X-0.140000X0.170000X0.140000X-0.170000X0.140000X-0.170000X-0.140000X0*%
%TD*%
%TA.AperFunction,SMDPad,CuDef*%
%ADD14RoundRect,0.140000X-0.170000X0.140000X-0.170000X-0.140000X0.170000X-0.140000X0.170000X0.140000X0*%
%TD*%
%TA.AperFunction,SMDPad,CuDef*%
%ADD15R,5.000000X0.760000*%
%TD*%
%TA.AperFunction,SMDPad,CuDef*%
%ADD16R,4.500000X8.800000*%
%TD*%
%TA.AperFunction,ComponentPad*%
%ADD17R,1.600000X1.600000*%
%TD*%
%TA.AperFunction,ComponentPad*%
%ADD18O,1.600000X1.600000*%
%TD*%
%TA.AperFunction,ComponentPad*%
%ADD19C,1.500000*%
%TD*%
%TA.AperFunction,SMDPad,CuDef*%
%ADD20R,1.550000X1.300000*%
%TD*%
%TA.AperFunction,ViaPad*%
%ADD21C,0.600000*%
%TD*%
%TA.AperFunction,Conductor*%
%ADD22C,0.200000*%
%TD*%
%TA.AperFunction,Conductor*%
%ADD23C,0.400000*%
%TD*%
G04 APERTURE END LIST*
D10*
%TO.P,J3,1,Pin_1*%
%TO.N,GND*%
X219510000Y-82720000D03*
%TO.P,J3,2,Pin_2*%
%TO.N,+5V*%
X224560000Y-82720000D03*
%TO.P,J3,3,Pin_3*%
%TO.N,/SDA*%
X219510000Y-85260000D03*
%TO.P,J3,4,Pin_4*%
%TO.N,/SCL*%
X224560000Y-85260000D03*
%TD*%
D11*
%TO.P,J1.1.3,1,Pin_1*%
%TO.N,/L1*%
X254750000Y-89300000D03*
D12*
%TO.P,J1.1.3,2,Pin_2*%
%TO.N,/R2*%
X254750000Y-91840000D03*
%TD*%
D11*
%TO.P,J1.1.1,1,Pin_1*%
%TO.N,/L1*%
X254750000Y-47000000D03*
D12*
%TO.P,J1.1.1,2,Pin_2*%
%TO.N,/R1*%
X254750000Y-49540000D03*
%TD*%
D10*
%TO.P,J1.3,1,Pin_1*%
%TO.N,/L1*%
X222475000Y-89730000D03*
%TO.P,J1.3,2,Pin_2*%
%TO.N,/L2*%
X227525000Y-89730000D03*
%TO.P,J1.3,3,Pin_3*%
%TO.N,/R3*%
X222475000Y-92270000D03*
%TO.P,J1.3,4,Pin_4*%
%TO.N,/R4*%
X227525000Y-92270000D03*
%TD*%
D13*
%TO.P,C2,1*%
%TO.N,/XTAL2*%
X221830000Y-77180000D03*
%TO.P,C2,2*%
%TO.N,GND*%
X221830000Y-76220000D03*
%TD*%
D11*
%TO.P,J1.1.2,1,Pin_1*%
%TO.N,/L2*%
X215350000Y-47000000D03*
D12*
%TO.P,J1.1.2,2,Pin_2*%
%TO.N,/R1*%
X215350000Y-49540000D03*
%TD*%
D14*
%TO.P,C1,2*%
%TO.N,GND*%
X221820000Y-73110000D03*
%TO.P,C1,1*%
%TO.N,/XTAL1*%
X221820000Y-72150000D03*
%TD*%
D15*
%TO.P,J4,1*%
%TO.N,GND*%
X240920000Y-64645000D03*
%TO.P,J4,2*%
X240920000Y-63375000D03*
%TO.P,J4,3*%
%TO.N,+5V*%
X240920000Y-62105000D03*
%TO.P,J4,4*%
X240920000Y-60835000D03*
%TO.P,J4,5*%
%TO.N,/SDA*%
X240920000Y-59565000D03*
%TO.P,J4,6*%
X240920000Y-58295000D03*
%TO.P,J4,7*%
%TO.N,/SCL*%
X240920000Y-57025000D03*
%TO.P,J4,8*%
X240920000Y-55755000D03*
D16*
%TO.P,J4,L*%
%TO.N,N/C*%
X256850000Y-60200000D03*
%TD*%
D11*
%TO.P,J1.2.2,1,Pin_1*%
%TO.N,/L4*%
X215350000Y-66500000D03*
D12*
%TO.P,J1.2.2,2,Pin_2*%
%TO.N,/R1*%
X215350000Y-69040000D03*
%TD*%
D17*
%TO.P,U1,1,~{RESET}/PC6*%
%TO.N,/RESET*%
X229130000Y-52740000D03*
D18*
%TO.P,U1,2,PD0*%
%TO.N,/L1*%
X229130000Y-55280000D03*
%TO.P,U1,3,PD1*%
%TO.N,/L2*%
X229130000Y-57820000D03*
%TO.P,U1,4,PD2*%
%TO.N,/L3*%
X229130000Y-60360000D03*
%TO.P,U1,5,PD3*%
%TO.N,/L4*%
X229130000Y-62900000D03*
%TO.P,U1,6,PD4*%
%TO.N,/R1*%
X229130000Y-65440000D03*
%TO.P,U1,7,VCC*%
%TO.N,+5V*%
X229130000Y-67980000D03*
%TO.P,U1,8,GND*%
%TO.N,GND*%
X229130000Y-70520000D03*
%TO.P,U1,9,XTAL1/PB6*%
%TO.N,/XTAL1*%
X229130000Y-73060000D03*
%TO.P,U1,10,XTAL2/PB7*%
%TO.N,/XTAL2*%
X229130000Y-75600000D03*
%TO.P,U1,11,PD5*%
%TO.N,/R2*%
X229130000Y-78140000D03*
%TO.P,U1,12,PD6*%
%TO.N,/R3*%
X229130000Y-80680000D03*
%TO.P,U1,13,PD7*%
%TO.N,/R4*%
X229130000Y-83220000D03*
%TO.P,U1,14,PB0*%
%TO.N,unconnected-(U1-PB0-Pad14)*%
X229130000Y-85760000D03*
%TO.P,U1,15,PB1*%
%TO.N,unconnected-(U1-PB1-Pad15)*%
X236750000Y-85760000D03*
%TO.P,U1,16,PB2*%
%TO.N,unconnected-(U1-PB2-Pad16)*%
X236750000Y-83220000D03*
%TO.P,U1,17,PB3*%
%TO.N,/MOSI*%
X236750000Y-80680000D03*
%TO.P,U1,18,PB4*%
%TO.N,/MISO*%
X236750000Y-78140000D03*
%TO.P,U1,19,PB5*%
%TO.N,/SCK*%
X236750000Y-75600000D03*
%TO.P,U1,20,AVCC*%
%TO.N,+5V*%
X236750000Y-73060000D03*
%TO.P,U1,21,AREF*%
%TO.N,unconnected-(U1-AREF-Pad21)*%
X236750000Y-70520000D03*
%TO.P,U1,22,GND*%
%TO.N,GND*%
X236750000Y-67980000D03*
%TO.P,U1,23,PC0*%
%TO.N,unconnected-(U1-PC0-Pad23)*%
X236750000Y-65440000D03*
%TO.P,U1,24,PC1*%
%TO.N,unconnected-(U1-PC1-Pad24)*%
X236750000Y-62900000D03*
%TO.P,U1,25,PC2*%
%TO.N,unconnected-(U1-PC2-Pad25)*%
X236750000Y-60360000D03*
%TO.P,U1,26,PC3*%
%TO.N,unconnected-(U1-PC3-Pad26)*%
X236750000Y-57820000D03*
%TO.P,U1,27,PC4*%
%TO.N,/SDA*%
X236750000Y-55280000D03*
%TO.P,U1,28,PC5*%
%TO.N,/SCL*%
X236750000Y-52740000D03*
%TD*%
D10*
%TO.P,J2,1,MISO*%
%TO.N,/MISO*%
X246350000Y-85400000D03*
%TO.P,J2,2,VCC*%
%TO.N,+5V*%
X241300000Y-85400000D03*
%TO.P,J2,3,SCK*%
%TO.N,/SCK*%
X246350000Y-82860000D03*
%TO.P,J2,4,MOSI*%
%TO.N,/MOSI*%
X241300000Y-82860000D03*
%TO.P,J2,5,~{RST}*%
%TO.N,/RESET*%
X246350000Y-80320000D03*
%TO.P,J2,6,GND*%
%TO.N,GND*%
X241300000Y-80320000D03*
%TD*%
D19*
%TO.P,Y1,2,2*%
%TO.N,/XTAL2*%
X225150000Y-77025000D03*
%TO.P,Y1,1,1*%
%TO.N,/XTAL1*%
X225150000Y-72125000D03*
%TD*%
D14*
%TO.P,C3,1*%
%TO.N,GND*%
X238800000Y-72040000D03*
%TO.P,C3,2*%
%TO.N,+5V*%
X238800000Y-73000000D03*
%TD*%
D11*
%TO.P,J1.2.1,1,Pin_1*%
%TO.N,/L3*%
X254850000Y-80500000D03*
D12*
%TO.P,J1.2.1,2,Pin_2*%
%TO.N,/R1*%
X254850000Y-83040000D03*
%TD*%
D10*
%TO.P,J1.4,1,Pin_1*%
%TO.N,/L3*%
X239525000Y-92270000D03*
%TO.P,J1.4,2,Pin_2*%
%TO.N,/L4*%
X234475000Y-92270000D03*
%TO.P,J1.4,3,Pin_3*%
%TO.N,/R3*%
X239525000Y-89730000D03*
%TO.P,J1.4,4,Pin_4*%
%TO.N,/R4*%
X234475000Y-89730000D03*
%TD*%
D20*
%TO.P,SW1,1,1*%
%TO.N,/RESET*%
X242750000Y-71100000D03*
X250700000Y-71100000D03*
%TO.P,SW1,2,2*%
%TO.N,GND*%
X242750000Y-75600000D03*
X250700000Y-75600000D03*
%TD*%
D10*
%TO.P,J1,1,Pin_1*%
%TO.N,/L1*%
X219550000Y-54760000D03*
%TO.P,J1,2,Pin_2*%
%TO.N,/L2*%
X224600000Y-54760000D03*
%TO.P,J1,3,Pin_3*%
%TO.N,/L3*%
X219550000Y-57300000D03*
%TO.P,J1,4,Pin_4*%
%TO.N,/L4*%
X224600000Y-57300000D03*
%TO.P,J1,5,Pin_5*%
%TO.N,/R1*%
X219550000Y-59840000D03*
%TO.P,J1,6,Pin_6*%
%TO.N,/R2*%
X224600000Y-59840000D03*
%TO.P,J1,7,Pin_7*%
%TO.N,/R3*%
X219550000Y-62380000D03*
%TO.P,J1,8,Pin_8*%
%TO.N,/R4*%
X224600000Y-62380000D03*
%TD*%
D11*
%TO.P,J1.1.4,1,Pin_1*%
%TO.N,/L2*%
X215350000Y-89300000D03*
D12*
%TO.P,J1.1.4,2,Pin_2*%
%TO.N,/R2*%
X215350000Y-91840000D03*
%TD*%
D10*
%TO.P,J1.1,1,Pin_1*%
%TO.N,/L1*%
X222475000Y-46730000D03*
%TO.P,J1.1,2,Pin_2*%
%TO.N,/L2*%
X227525000Y-46730000D03*
%TO.P,J1.1,3,Pin_3*%
%TO.N,/R1*%
X222475000Y-49270000D03*
%TO.P,J1.1,4,Pin_4*%
%TO.N,/R2*%
X227525000Y-49270000D03*
%TD*%
%TO.P,J1.2,1,Pin_1*%
%TO.N,/L3*%
X234475000Y-46730000D03*
%TO.P,J1.2,2,Pin_2*%
%TO.N,/L4*%
X239525000Y-46730000D03*
%TO.P,J1.2,3,Pin_3*%
%TO.N,/R1*%
X234475000Y-49270000D03*
%TO.P,J1.2,4,Pin_4*%
%TO.N,/R2*%
X239525000Y-49270000D03*
%TD*%
D21*
%TO.N,/SCL*%
X224560000Y-85260000D03*
%TO.N,/SDA*%
X219510000Y-85260000D03*
%TO.N,+5V*%
X224560000Y-82720000D03*
X240920000Y-60900000D03*
X241300000Y-85400000D03*
%TO.N,/RESET*%
X232400000Y-50250000D03*
%TO.N,/L4*%
X232600000Y-66400000D03*
%TD*%
D22*
%TO.N,/R4*%
X224600000Y-63100000D02*
X224600000Y-62380000D01*
X217800000Y-69900000D02*
X224600000Y-63100000D01*
X217800000Y-72500000D02*
X217800000Y-69900000D01*
X217000000Y-83434314D02*
X217000000Y-73300000D01*
X217565686Y-84000000D02*
X217000000Y-83434314D01*
X217000000Y-73300000D02*
X217800000Y-72500000D01*
X228000000Y-76900000D02*
X226700000Y-78200000D01*
X226700000Y-83334314D02*
X226034314Y-84000000D01*
X226700000Y-78200000D02*
X226700000Y-83334314D01*
X230050000Y-76900000D02*
X228000000Y-76900000D01*
X230500000Y-77350000D02*
X230050000Y-76900000D01*
X230500000Y-81850000D02*
X230500000Y-77350000D01*
X226034314Y-84000000D02*
X217565686Y-84000000D01*
X229130000Y-83220000D02*
X230500000Y-81850000D01*
%TO.N,/R2*%
X221600000Y-63000000D02*
X221600000Y-61050000D01*
X217400000Y-67200000D02*
X221600000Y-63000000D01*
X217400000Y-72265686D02*
X217400000Y-67200000D01*
X216600000Y-73065686D02*
X217400000Y-72265686D01*
X216600000Y-83600000D02*
X216600000Y-73065686D01*
X217400000Y-84400000D02*
X216600000Y-83600000D01*
X226200000Y-84400000D02*
X217400000Y-84400000D01*
X227100000Y-83500000D02*
X226200000Y-84400000D01*
X227100000Y-78800000D02*
X227100000Y-83500000D01*
X227760000Y-78140000D02*
X227100000Y-78800000D01*
X229130000Y-78140000D02*
X227760000Y-78140000D01*
%TO.N,/R3*%
X219550000Y-63350000D02*
X219550000Y-62380000D01*
X217000000Y-65900000D02*
X219550000Y-63350000D01*
X217000000Y-72100000D02*
X217000000Y-65900000D01*
X216200000Y-72900000D02*
X217000000Y-72100000D01*
X217665686Y-86400000D02*
X216200000Y-84934314D01*
X227850000Y-86400000D02*
X217665686Y-86400000D01*
X216200000Y-84934314D02*
X216200000Y-72900000D01*
%TO.N,/R2*%
X257100000Y-89490000D02*
X254750000Y-91840000D01*
X257100000Y-79600000D02*
X257100000Y-89490000D01*
X256300000Y-78800000D02*
X257100000Y-79600000D01*
X252000000Y-77500000D02*
X253300000Y-78800000D01*
X251200000Y-69625000D02*
X252000000Y-70425000D01*
X253300000Y-78800000D02*
X256300000Y-78800000D01*
X252000000Y-70425000D02*
X252000000Y-77500000D01*
X244020000Y-49270000D02*
X251200000Y-56450000D01*
X239525000Y-49270000D02*
X244020000Y-49270000D01*
X251200000Y-56450000D02*
X251200000Y-69625000D01*
%TO.N,+5V*%
X236810000Y-73000000D02*
X236750000Y-73060000D01*
X238800000Y-73000000D02*
X236810000Y-73000000D01*
%TO.N,/L1*%
X215300000Y-72900000D02*
X215300000Y-85400000D01*
X215300000Y-85400000D02*
X219630000Y-89730000D01*
X213100000Y-70700000D02*
X215300000Y-72900000D01*
X219630000Y-89730000D02*
X222475000Y-89730000D01*
X219550000Y-54760000D02*
X217140000Y-54760000D01*
X217140000Y-54760000D02*
X213100000Y-58800000D01*
X213100000Y-58800000D02*
X213100000Y-70700000D01*
%TO.N,/L2*%
X222340000Y-54760000D02*
X224600000Y-54760000D01*
X221500000Y-55600000D02*
X222340000Y-54760000D01*
X213560000Y-60140000D02*
X218100000Y-55600000D01*
X218100000Y-55600000D02*
X221500000Y-55600000D01*
X215800000Y-72800000D02*
X213560000Y-70560000D01*
X215800000Y-85100000D02*
X215800000Y-72800000D01*
X213560000Y-70560000D02*
X213560000Y-60140000D01*
X219630000Y-88930000D02*
X215800000Y-85100000D01*
X224230000Y-88930000D02*
X219630000Y-88930000D01*
X225030000Y-89730000D02*
X224230000Y-88930000D01*
%TO.N,/XTAL1*%
X225125000Y-72150000D02*
X225150000Y-72125000D01*
X221820000Y-72150000D02*
X225125000Y-72150000D01*
%TO.N,/XTAL2*%
X224995000Y-77180000D02*
X225150000Y-77025000D01*
X221830000Y-77180000D02*
X224995000Y-77180000D01*
D23*
%TO.N,+5V*%
X240920000Y-60900000D02*
X240920000Y-60835000D01*
X240920000Y-62105000D02*
X240920000Y-60900000D01*
D22*
%TO.N,/MOSI*%
X238930000Y-82860000D02*
X236750000Y-80680000D01*
X241300000Y-82860000D02*
X238930000Y-82860000D01*
%TO.N,/RESET*%
X246350000Y-74700000D02*
X246350000Y-73450000D01*
X250700000Y-56950000D02*
X250700000Y-71100000D01*
X244000000Y-50250000D02*
X250700000Y-56950000D01*
X246350000Y-74700000D02*
X246350000Y-73550000D01*
X246350000Y-73450000D02*
X244000000Y-71100000D01*
X246350000Y-80320000D02*
X246350000Y-74700000D01*
X248800000Y-71100000D02*
X250700000Y-71100000D01*
X246350000Y-73550000D02*
X248800000Y-71100000D01*
X232400000Y-50250000D02*
X244000000Y-50250000D01*
X244000000Y-71100000D02*
X242750000Y-71100000D01*
%TO.N,/SCK*%
X244560000Y-82860000D02*
X243350000Y-81650000D01*
X238450000Y-77300000D02*
X236750000Y-75600000D01*
X246350000Y-82860000D02*
X244560000Y-82860000D01*
X243350000Y-81650000D02*
X238865686Y-81650000D01*
X238865686Y-81650000D02*
X238450000Y-81234314D01*
X238450000Y-81234314D02*
X238450000Y-77300000D01*
%TO.N,/MISO*%
X244300000Y-85400000D02*
X244200000Y-85300000D01*
X243160000Y-82060000D02*
X238710000Y-82060000D01*
X238050000Y-81400000D02*
X238050000Y-79440000D01*
X244200000Y-83100000D02*
X243160000Y-82060000D01*
X246350000Y-85400000D02*
X244300000Y-85400000D01*
X238050000Y-79440000D02*
X236750000Y-78140000D01*
X238710000Y-82060000D02*
X238050000Y-81400000D01*
X244200000Y-85300000D02*
X244200000Y-83100000D01*
%TO.N,/L3*%
X227150000Y-58380000D02*
X229130000Y-60360000D01*
X239525000Y-92270000D02*
X246830000Y-92270000D01*
X231200000Y-47300000D02*
X231200000Y-58290000D01*
X231200000Y-58290000D02*
X229130000Y-60360000D01*
X231770000Y-46730000D02*
X231200000Y-47300000D01*
X252200000Y-86900000D02*
X252200000Y-83150000D01*
X226550000Y-56450000D02*
X227150000Y-57050000D01*
X234475000Y-46730000D02*
X231770000Y-46730000D01*
X219750000Y-56450000D02*
X226550000Y-56450000D01*
X246830000Y-92270000D02*
X252200000Y-86900000D01*
X219550000Y-56650000D02*
X219750000Y-56450000D01*
X227150000Y-57050000D02*
X227150000Y-58380000D01*
X219550000Y-57300000D02*
X219550000Y-56650000D01*
X252200000Y-83150000D02*
X254850000Y-80500000D01*
%TO.N,/L1*%
X220055000Y-53550000D02*
X226350000Y-53550000D01*
X219550000Y-54760000D02*
X219550000Y-54055000D01*
X222475000Y-46730000D02*
X224280000Y-46730000D01*
X228080000Y-55280000D02*
X229130000Y-55280000D01*
X226350000Y-53550000D02*
X228080000Y-55280000D01*
X224700000Y-47150000D02*
X224700000Y-51900000D01*
X219550000Y-54055000D02*
X220055000Y-53550000D01*
X224700000Y-51900000D02*
X226350000Y-53550000D01*
X224280000Y-46730000D02*
X224700000Y-47150000D01*
%TO.N,/L2*%
X229130000Y-57530000D02*
X229130000Y-57820000D01*
X227525000Y-89730000D02*
X225120000Y-89730000D01*
X225030000Y-89730000D02*
X224010000Y-90750000D01*
X227525000Y-45825000D02*
X226800000Y-45100000D01*
X224600000Y-54760000D02*
X226360000Y-54760000D01*
X226360000Y-54760000D02*
X229130000Y-57530000D01*
X217250000Y-45100000D02*
X215350000Y-47000000D01*
X227525000Y-46730000D02*
X227525000Y-45825000D01*
X226800000Y-45100000D02*
X217250000Y-45100000D01*
X225120000Y-89730000D02*
X225030000Y-89730000D01*
X224010000Y-90750000D02*
X216800000Y-90750000D01*
X216800000Y-90750000D02*
X215350000Y-89300000D01*
%TO.N,/R4*%
X234475000Y-89730000D02*
X232170000Y-89730000D01*
X232170000Y-89730000D02*
X232170000Y-86260000D01*
X232170000Y-89730000D02*
X229630000Y-92270000D01*
X232170000Y-86260000D02*
X229130000Y-83220000D01*
X229630000Y-92270000D02*
X227525000Y-92270000D01*
%TO.N,/R1*%
X222475000Y-49270000D02*
X220670000Y-49270000D01*
X227350000Y-59815686D02*
X227350000Y-63660000D01*
X237550000Y-48200000D02*
X236480000Y-49270000D01*
X227350000Y-63660000D02*
X229130000Y-65440000D01*
X219550000Y-59050000D02*
X220000000Y-58600000D01*
X236480000Y-49270000D02*
X234475000Y-49270000D01*
X220800000Y-45750000D02*
X224700000Y-45750000D01*
X220670000Y-49270000D02*
X220400000Y-49000000D01*
X225850000Y-48150000D02*
X229650000Y-48150000D01*
X245040000Y-49540000D02*
X243700000Y-48200000D01*
X225250000Y-47550000D02*
X225850000Y-48150000D01*
X219550000Y-59840000D02*
X219550000Y-59050000D01*
X243670000Y-48200000D02*
X243700000Y-48200000D01*
X225250000Y-46300000D02*
X225250000Y-47550000D01*
X220400000Y-46150000D02*
X220800000Y-45750000D01*
X220400000Y-49000000D02*
X220400000Y-46150000D01*
X240670000Y-45200000D02*
X243670000Y-48200000D01*
X224700000Y-45750000D02*
X225250000Y-46300000D01*
X254750000Y-49540000D02*
X245040000Y-49540000D01*
X226134314Y-58600000D02*
X227350000Y-59815686D01*
X229650000Y-48150000D02*
X232600000Y-45200000D01*
X222475000Y-49270000D02*
X215620000Y-49270000D01*
X243700000Y-48200000D02*
X237550000Y-48200000D01*
X220000000Y-58600000D02*
X226134314Y-58600000D01*
X215620000Y-49270000D02*
X215350000Y-49540000D01*
X232600000Y-45200000D02*
X240670000Y-45200000D01*
%TO.N,/R3*%
X225830000Y-93250000D02*
X224850000Y-92270000D01*
X237350000Y-92150000D02*
X236250000Y-93250000D01*
X227850000Y-81960000D02*
X229130000Y-80680000D01*
X224850000Y-92270000D02*
X226120000Y-91000000D01*
X222475000Y-92270000D02*
X224850000Y-92270000D01*
X239525000Y-90525000D02*
X239050000Y-91000000D01*
X237350000Y-91550000D02*
X237350000Y-92150000D01*
X237900000Y-91000000D02*
X237350000Y-91550000D01*
X227850000Y-86400000D02*
X227850000Y-81960000D01*
X236250000Y-93250000D02*
X225830000Y-93250000D01*
X239050000Y-91000000D02*
X237900000Y-91000000D01*
X229550000Y-90450000D02*
X229550000Y-88100000D01*
X229550000Y-88100000D02*
X227850000Y-86400000D01*
X229000000Y-91000000D02*
X229550000Y-90450000D01*
X239525000Y-89730000D02*
X239525000Y-90525000D01*
X226120000Y-91000000D02*
X229000000Y-91000000D01*
%TO.N,/R2*%
X217100000Y-60065000D02*
X217100000Y-57250000D01*
X218350000Y-56000000D02*
X226750000Y-56000000D01*
X229750000Y-59100000D02*
X230750000Y-58100000D01*
X227600000Y-58200000D02*
X228500000Y-59100000D01*
X230000000Y-54150000D02*
X228100000Y-54150000D01*
X227525000Y-53575000D02*
X227525000Y-49270000D01*
X222810000Y-59840000D02*
X224600000Y-59840000D01*
X218085000Y-61050000D02*
X217100000Y-60065000D01*
X217100000Y-57250000D02*
X218350000Y-56000000D01*
X230750000Y-58100000D02*
X230750000Y-54900000D01*
X228500000Y-59100000D02*
X229750000Y-59100000D01*
X226750000Y-56000000D02*
X227600000Y-56850000D01*
X222810000Y-59840000D02*
X221600000Y-61050000D01*
X221600000Y-61050000D02*
X218085000Y-61050000D01*
X228100000Y-54150000D02*
X227525000Y-53575000D01*
X230750000Y-54900000D02*
X230000000Y-54150000D01*
X227600000Y-56850000D02*
X227600000Y-58200000D01*
%TO.N,/L4*%
X239525000Y-46730000D02*
X237370000Y-46730000D01*
X236350000Y-47750000D02*
X233320000Y-47750000D01*
X231650000Y-49420000D02*
X231650000Y-60380000D01*
X227800000Y-59700000D02*
X227800000Y-61570000D01*
X232600000Y-66400000D02*
X233600000Y-67400000D01*
X236330000Y-92270000D02*
X234475000Y-92270000D01*
X233600000Y-86050000D02*
X236800000Y-89250000D01*
X224600000Y-57950000D02*
X224850000Y-58200000D01*
X236800000Y-91800000D02*
X236330000Y-92270000D01*
X233600000Y-67400000D02*
X233600000Y-86050000D01*
X237370000Y-46730000D02*
X236350000Y-47750000D01*
X233320000Y-47750000D02*
X231650000Y-49420000D01*
X224600000Y-57300000D02*
X224600000Y-57950000D01*
X226300000Y-58200000D02*
X227800000Y-59700000D01*
X231650000Y-60380000D02*
X229130000Y-62900000D01*
X224850000Y-58200000D02*
X226300000Y-58200000D01*
X236800000Y-89250000D02*
X236800000Y-91800000D01*
X227800000Y-61570000D02*
X229130000Y-62900000D01*
%TO.N,/SDA*%
X237900000Y-58000000D02*
X237900000Y-56950000D01*
X236750000Y-55800000D02*
X236750000Y-55280000D01*
X237900000Y-56950000D02*
X236750000Y-55800000D01*
D23*
X240920000Y-58295000D02*
X240920000Y-59565000D01*
D22*
X240920000Y-58295000D02*
X238195000Y-58295000D01*
X238195000Y-58295000D02*
X237900000Y-58000000D01*
%TO.N,/SCL*%
X240920000Y-55755000D02*
X240920000Y-54970000D01*
X240920000Y-54970000D02*
X238690000Y-52740000D01*
D23*
X240920000Y-55755000D02*
X240920000Y-57025000D01*
D22*
X238690000Y-52740000D02*
X236750000Y-52740000D01*
%TD*%
%TA.AperFunction,Conductor*%
%TO.N,GND*%
G36*
X243766942Y-50870185D02*
G01*
X243787584Y-50886819D01*
X250063181Y-57162416D01*
X250096666Y-57223739D01*
X250099500Y-57250097D01*
X250099500Y-69825500D01*
X250079815Y-69892539D01*
X250027011Y-69938294D01*
X249975501Y-69949500D01*
X249877130Y-69949500D01*
X249877123Y-69949501D01*
X249817516Y-69955908D01*
X249682671Y-70006202D01*
X249682664Y-70006206D01*
X249567455Y-70092452D01*
X249567452Y-70092455D01*
X249481206Y-70207664D01*
X249481202Y-70207671D01*
X249430910Y-70342513D01*
X249430909Y-70342517D01*
X249425937Y-70388757D01*
X249399201Y-70453306D01*
X249341809Y-70493154D01*
X249302649Y-70499500D01*
X248879057Y-70499500D01*
X248720942Y-70499500D01*
X248568215Y-70540423D01*
X248568214Y-70540423D01*
X248568212Y-70540424D01*
X248568209Y-70540425D01*
X248518096Y-70569359D01*
X248518095Y-70569360D01*
X248474689Y-70594420D01*
X248431285Y-70619479D01*
X248431282Y-70619481D01*
X248319478Y-70731286D01*
X246487680Y-72563083D01*
X246426357Y-72596568D01*
X246356665Y-72591584D01*
X246312318Y-72563083D01*
X244487590Y-70738355D01*
X244487588Y-70738352D01*
X244368717Y-70619481D01*
X244368716Y-70619480D01*
X244281904Y-70569360D01*
X244281904Y-70569359D01*
X244281900Y-70569358D01*
X244231785Y-70540423D01*
X244116797Y-70509611D01*
X244057138Y-70473246D01*
X244026609Y-70410399D01*
X244025602Y-70403089D01*
X244025497Y-70402116D01*
X244020789Y-70358318D01*
X244019091Y-70342516D01*
X243968797Y-70207671D01*
X243968793Y-70207664D01*
X243882547Y-70092455D01*
X243882544Y-70092452D01*
X243767335Y-70006206D01*
X243767328Y-70006202D01*
X243632482Y-69955908D01*
X243632483Y-69955908D01*
X243572883Y-69949501D01*
X243572881Y-69949500D01*
X243572873Y-69949500D01*
X243572864Y-69949500D01*
X241927129Y-69949500D01*
X241927123Y-69949501D01*
X241867516Y-69955908D01*
X241732671Y-70006202D01*
X241732664Y-70006206D01*
X241617455Y-70092452D01*
X241617452Y-70092455D01*
X241531206Y-70207664D01*
X241531202Y-70207671D01*
X241480908Y-70342517D01*
X241474501Y-70402116D01*
X241474500Y-70402135D01*
X241474500Y-71797870D01*
X241474501Y-71797876D01*
X241480908Y-71857483D01*
X241531202Y-71992328D01*
X241531206Y-71992335D01*
X241617452Y-72107544D01*
X241617455Y-72107547D01*
X241732664Y-72193793D01*
X241732671Y-72193797D01*
X241867517Y-72244091D01*
X241867516Y-72244091D01*
X241874444Y-72244835D01*
X241927127Y-72250500D01*
X243572872Y-72250499D01*
X243632483Y-72244091D01*
X243767331Y-72193796D01*
X243882546Y-72107546D01*
X243914848Y-72064395D01*
X243970778Y-72022527D01*
X244040469Y-72017543D01*
X244101790Y-72051025D01*
X244101793Y-72051028D01*
X245713181Y-73662416D01*
X245746666Y-73723739D01*
X245749500Y-73750097D01*
X245749500Y-79195500D01*
X245729815Y-79262539D01*
X245677011Y-79308294D01*
X245625500Y-79319500D01*
X244727129Y-79319500D01*
X244727123Y-79319501D01*
X244667516Y-79325908D01*
X244532671Y-79376202D01*
X244532664Y-79376206D01*
X244417455Y-79462452D01*
X244417452Y-79462455D01*
X244331206Y-79577664D01*
X244331202Y-79577671D01*
X244280908Y-79712517D01*
X244274501Y-79772116D01*
X244274501Y-79772123D01*
X244274500Y-79772135D01*
X244274500Y-80867870D01*
X244274501Y-80867876D01*
X244280908Y-80927483D01*
X244331202Y-81062328D01*
X244331206Y-81062335D01*
X244417452Y-81177544D01*
X244417455Y-81177547D01*
X244532664Y-81263793D01*
X244532671Y-81263797D01*
X244667517Y-81314091D01*
X244667516Y-81314091D01*
X244674444Y-81314835D01*
X244727127Y-81320500D01*
X247972872Y-81320499D01*
X248032483Y-81314091D01*
X248167331Y-81263796D01*
X248282546Y-81177546D01*
X248368796Y-81062331D01*
X248419091Y-80927483D01*
X248425500Y-80867873D01*
X248425499Y-79772128D01*
X248419091Y-79712517D01*
X248414323Y-79699734D01*
X248368797Y-79577671D01*
X248368793Y-79577664D01*
X248282547Y-79462455D01*
X248282544Y-79462452D01*
X248167335Y-79376206D01*
X248167328Y-79376202D01*
X248032482Y-79325908D01*
X248032483Y-79325908D01*
X247972883Y-79319501D01*
X247972881Y-79319500D01*
X247972873Y-79319500D01*
X247972865Y-79319500D01*
X247074500Y-79319500D01*
X247007461Y-79299815D01*
X246961706Y-79247011D01*
X246950500Y-79195500D01*
X246950500Y-76297844D01*
X249425000Y-76297844D01*
X249431401Y-76357372D01*
X249431403Y-76357379D01*
X249481645Y-76492086D01*
X249481649Y-76492093D01*
X249567809Y-76607187D01*
X249567812Y-76607190D01*
X249682906Y-76693350D01*
X249682913Y-76693354D01*
X249817620Y-76743596D01*
X249817627Y-76743598D01*
X249877155Y-76749999D01*
X249877172Y-76750000D01*
X250450000Y-76750000D01*
X250450000Y-75850000D01*
X249425000Y-75850000D01*
X249425000Y-76297844D01*
X246950500Y-76297844D01*
X246950500Y-74902155D01*
X249425000Y-74902155D01*
X249425000Y-75350000D01*
X250450000Y-75350000D01*
X250450000Y-74450000D01*
X249877155Y-74450000D01*
X249817627Y-74456401D01*
X249817620Y-74456403D01*
X249682913Y-74506645D01*
X249682906Y-74506649D01*
X249567812Y-74592809D01*
X249567809Y-74592812D01*
X249481649Y-74707906D01*
X249481645Y-74707913D01*
X249431403Y-74842620D01*
X249431401Y-74842627D01*
X249425000Y-74902155D01*
X246950500Y-74902155D01*
X246950500Y-73850097D01*
X246970185Y-73783058D01*
X246986819Y-73762416D01*
X249012416Y-71736819D01*
X249073739Y-71703334D01*
X249100097Y-71700500D01*
X249302649Y-71700500D01*
X249369688Y-71720185D01*
X249415443Y-71772989D01*
X249425939Y-71811248D01*
X249430908Y-71857483D01*
X249481202Y-71992328D01*
X249481206Y-71992335D01*
X249567452Y-72107544D01*
X249567455Y-72107547D01*
X249682664Y-72193793D01*
X249682671Y-72193797D01*
X249817517Y-72244091D01*
X249817516Y-72244091D01*
X249824444Y-72244835D01*
X249877127Y-72250500D01*
X251275500Y-72250499D01*
X251342539Y-72270184D01*
X251388294Y-72322987D01*
X251399500Y-72374499D01*
X251399500Y-74326000D01*
X251379815Y-74393039D01*
X251327011Y-74438794D01*
X251275500Y-74450000D01*
X250950000Y-74450000D01*
X250950000Y-76750000D01*
X251275500Y-76750000D01*
X251342539Y-76769685D01*
X251388294Y-76822489D01*
X251399500Y-76874000D01*
X251399500Y-77413330D01*
X251399499Y-77413348D01*
X251399499Y-77579054D01*
X251399498Y-77579054D01*
X251430165Y-77693502D01*
X251440423Y-77731785D01*
X251468560Y-77780519D01*
X251496163Y-77828329D01*
X251519479Y-77868714D01*
X251519481Y-77868717D01*
X251638349Y-77987585D01*
X251638354Y-77987589D01*
X252931284Y-79280520D01*
X252931286Y-79280521D01*
X252931290Y-79280524D01*
X253068209Y-79359573D01*
X253068216Y-79359577D01*
X253220943Y-79400501D01*
X253225500Y-79400501D01*
X253292539Y-79420186D01*
X253338294Y-79472990D01*
X253349500Y-79524501D01*
X253349500Y-81099902D01*
X253329815Y-81166941D01*
X253313181Y-81187583D01*
X251719481Y-82781282D01*
X251719479Y-82781284D01*
X251698163Y-82818206D01*
X251689153Y-82833813D01*
X251640423Y-82918215D01*
X251599499Y-83070943D01*
X251599499Y-83070945D01*
X251599499Y-83239046D01*
X251599500Y-83239059D01*
X251599500Y-86599903D01*
X251579815Y-86666942D01*
X251563181Y-86687584D01*
X246617584Y-91633181D01*
X246556261Y-91666666D01*
X246529903Y-91669500D01*
X241682791Y-91669500D01*
X241615752Y-91649815D01*
X241569997Y-91597011D01*
X241566609Y-91588833D01*
X241543797Y-91527671D01*
X241543793Y-91527664D01*
X241457547Y-91412455D01*
X241457544Y-91412452D01*
X241342335Y-91326206D01*
X241342328Y-91326202D01*
X241207482Y-91275908D01*
X241207483Y-91275908D01*
X241147883Y-91269501D01*
X241147881Y-91269500D01*
X241147873Y-91269500D01*
X241147865Y-91269500D01*
X239929096Y-91269500D01*
X239862057Y-91249815D01*
X239816302Y-91197011D01*
X239806358Y-91127853D01*
X239835383Y-91064297D01*
X239841414Y-91057820D01*
X239883505Y-91015729D01*
X239883510Y-91015725D01*
X239893714Y-91005520D01*
X239893716Y-91005520D01*
X240005520Y-90893716D01*
X240048821Y-90818716D01*
X240063958Y-90792499D01*
X240114525Y-90744283D01*
X240171345Y-90730499D01*
X241147871Y-90730499D01*
X241147872Y-90730499D01*
X241207483Y-90724091D01*
X241342331Y-90673796D01*
X241457546Y-90587546D01*
X241543796Y-90472331D01*
X241594091Y-90337483D01*
X241600500Y-90277873D01*
X241600499Y-89182128D01*
X241594091Y-89122517D01*
X241589353Y-89109815D01*
X241543797Y-88987671D01*
X241543793Y-88987664D01*
X241457547Y-88872455D01*
X241457544Y-88872452D01*
X241342335Y-88786206D01*
X241342328Y-88786202D01*
X241207482Y-88735908D01*
X241207483Y-88735908D01*
X241147883Y-88729501D01*
X241147881Y-88729500D01*
X241147873Y-88729500D01*
X241147864Y-88729500D01*
X237902129Y-88729500D01*
X237902123Y-88729501D01*
X237842516Y-88735908D01*
X237707671Y-88786202D01*
X237707664Y-88786206D01*
X237592455Y-88872452D01*
X237526123Y-88961060D01*
X237470189Y-89002930D01*
X237400497Y-89007914D01*
X237339175Y-88974428D01*
X237319469Y-88948747D01*
X237280521Y-88881286D01*
X237280520Y-88881284D01*
X237168716Y-88769480D01*
X237168715Y-88769479D01*
X237164385Y-88765149D01*
X237164374Y-88765139D01*
X234236819Y-85837584D01*
X234203334Y-85776261D01*
X234200500Y-85749903D01*
X234200500Y-67489060D01*
X234200501Y-67489047D01*
X234200501Y-67320944D01*
X234174049Y-67222226D01*
X234159577Y-67168216D01*
X234135082Y-67125789D01*
X234080524Y-67031290D01*
X234080518Y-67031282D01*
X233430700Y-66381465D01*
X233397215Y-66320142D01*
X233395163Y-66307686D01*
X233385368Y-66220745D01*
X233325789Y-66050478D01*
X233229816Y-65897738D01*
X233102262Y-65770184D01*
X232949523Y-65674211D01*
X232779254Y-65614631D01*
X232779249Y-65614630D01*
X232600004Y-65594435D01*
X232599996Y-65594435D01*
X232420750Y-65614630D01*
X232420745Y-65614631D01*
X232250476Y-65674211D01*
X232097737Y-65770184D01*
X231970184Y-65897737D01*
X231874211Y-66050476D01*
X231814631Y-66220745D01*
X231814630Y-66220750D01*
X231794435Y-66399996D01*
X231794435Y-66400003D01*
X231814630Y-66579249D01*
X231814631Y-66579254D01*
X231874211Y-66749523D01*
X231937261Y-66849865D01*
X231970184Y-66902262D01*
X232097738Y-67029816D01*
X232250478Y-67125789D01*
X232420745Y-67185368D01*
X232507669Y-67195161D01*
X232572080Y-67222226D01*
X232581465Y-67230700D01*
X232963181Y-67612416D01*
X232996666Y-67673739D01*
X232999500Y-67700097D01*
X232999500Y-85963330D01*
X232999499Y-85963348D01*
X232999499Y-86093705D01*
X232986216Y-86138938D01*
X233013477Y-86181357D01*
X233014258Y-86184137D01*
X233022874Y-86216292D01*
X233040424Y-86281789D01*
X233040425Y-86281790D01*
X233063030Y-86320942D01*
X233063031Y-86320944D01*
X233119475Y-86418709D01*
X233119481Y-86418717D01*
X233238349Y-86537585D01*
X233238355Y-86537590D01*
X235218584Y-88517819D01*
X235252069Y-88579142D01*
X235247085Y-88648834D01*
X235205213Y-88704767D01*
X235139749Y-88729184D01*
X235130903Y-88729500D01*
X232894500Y-88729500D01*
X232827461Y-88709815D01*
X232781706Y-88657011D01*
X232770500Y-88605500D01*
X232770500Y-86216292D01*
X232783782Y-86171058D01*
X232756522Y-86128640D01*
X232755724Y-86125798D01*
X232729577Y-86028215D01*
X232729577Y-86028214D01*
X232696511Y-85970943D01*
X232650522Y-85891287D01*
X232650521Y-85891286D01*
X232650520Y-85891284D01*
X232538716Y-85779480D01*
X232538715Y-85779479D01*
X232534385Y-85775149D01*
X232534374Y-85775139D01*
X230421941Y-83662706D01*
X230388456Y-83601383D01*
X230389847Y-83542931D01*
X230390320Y-83541167D01*
X230415635Y-83446692D01*
X230435468Y-83220000D01*
X230415635Y-82993308D01*
X230389847Y-82897066D01*
X230391510Y-82827217D01*
X230421939Y-82777294D01*
X230980520Y-82218716D01*
X231059577Y-82081784D01*
X231100501Y-81929057D01*
X231100501Y-81770942D01*
X231100501Y-81763347D01*
X231100500Y-81763329D01*
X231100500Y-77270946D01*
X231100499Y-77270939D01*
X231087103Y-77220943D01*
X231059577Y-77118215D01*
X231005759Y-77025000D01*
X230980520Y-76981284D01*
X230868716Y-76869480D01*
X230868715Y-76869479D01*
X230864385Y-76865149D01*
X230864374Y-76865139D01*
X230537590Y-76538355D01*
X230537588Y-76538352D01*
X230418717Y-76419481D01*
X230418716Y-76419480D01*
X230331904Y-76369360D01*
X230331909Y-76369350D01*
X230331866Y-76369338D01*
X230331215Y-76368962D01*
X230283018Y-76318379D01*
X230269819Y-76249767D01*
X230280869Y-76209197D01*
X230356739Y-76046496D01*
X230415635Y-75826692D01*
X230435468Y-75600000D01*
X230415635Y-75373308D01*
X230356739Y-75153504D01*
X230260568Y-74947266D01*
X230130047Y-74760861D01*
X230130045Y-74760858D01*
X229969141Y-74599954D01*
X229782734Y-74469432D01*
X229782728Y-74469429D01*
X229724725Y-74442382D01*
X229672285Y-74396210D01*
X229653133Y-74329017D01*
X229673348Y-74262135D01*
X229724725Y-74217618D01*
X229782734Y-74190568D01*
X229969139Y-74060047D01*
X230130047Y-73899139D01*
X230260568Y-73712734D01*
X230356739Y-73506496D01*
X230415635Y-73286692D01*
X230435468Y-73060000D01*
X230415635Y-72833308D01*
X230356739Y-72613504D01*
X230260568Y-72407266D01*
X230130047Y-72220861D01*
X230130045Y-72220858D01*
X229969141Y-72059954D01*
X229782734Y-71929432D01*
X229782732Y-71929431D01*
X229771275Y-71924088D01*
X229724132Y-71902105D01*
X229671694Y-71855934D01*
X229652542Y-71788740D01*
X229672758Y-71721859D01*
X229724134Y-71677341D01*
X229782484Y-71650132D01*
X229968820Y-71519657D01*
X230129657Y-71358820D01*
X230260134Y-71172482D01*
X230356265Y-70966326D01*
X230356269Y-70966317D01*
X230408872Y-70770000D01*
X229445686Y-70770000D01*
X229450080Y-70765606D01*
X229502741Y-70674394D01*
X229530000Y-70572661D01*
X229530000Y-70467339D01*
X229502741Y-70365606D01*
X229450080Y-70274394D01*
X229445686Y-70270000D01*
X230408872Y-70270000D01*
X230408872Y-70269999D01*
X230356269Y-70073682D01*
X230356265Y-70073673D01*
X230260134Y-69867517D01*
X230129657Y-69681179D01*
X229968820Y-69520342D01*
X229782482Y-69389865D01*
X229724133Y-69362657D01*
X229671694Y-69316484D01*
X229652542Y-69249291D01*
X229672758Y-69182410D01*
X229724129Y-69137895D01*
X229782734Y-69110568D01*
X229969139Y-68980047D01*
X230130047Y-68819139D01*
X230260568Y-68632734D01*
X230356739Y-68426496D01*
X230415635Y-68206692D01*
X230435468Y-67980000D01*
X230434024Y-67963500D01*
X230415635Y-67753313D01*
X230415635Y-67753308D01*
X230356739Y-67533504D01*
X230260568Y-67327266D01*
X230130047Y-67140861D01*
X230130045Y-67140858D01*
X229969141Y-66979954D01*
X229782734Y-66849432D01*
X229782728Y-66849429D01*
X229724725Y-66822382D01*
X229672285Y-66776210D01*
X229653133Y-66709017D01*
X229673348Y-66642135D01*
X229724725Y-66597618D01*
X229782734Y-66570568D01*
X229969139Y-66440047D01*
X230130047Y-66279139D01*
X230260568Y-66092734D01*
X230356739Y-65886496D01*
X230415635Y-65666692D01*
X230435468Y-65440000D01*
X230415635Y-65213308D01*
X230356739Y-64993504D01*
X230260568Y-64787266D01*
X230130047Y-64600861D01*
X230130045Y-64600858D01*
X229969141Y-64439954D01*
X229782734Y-64309432D01*
X229782728Y-64309429D01*
X229724725Y-64282382D01*
X229672285Y-64236210D01*
X229653133Y-64169017D01*
X229673348Y-64102135D01*
X229724725Y-64057618D01*
X229733912Y-64053334D01*
X229782734Y-64030568D01*
X229969139Y-63900047D01*
X230130047Y-63739139D01*
X230260568Y-63552734D01*
X230356739Y-63346496D01*
X230415635Y-63126692D01*
X230435468Y-62900000D01*
X230415635Y-62673308D01*
X230389847Y-62577066D01*
X230391510Y-62507217D01*
X230421939Y-62457294D01*
X232008506Y-60870728D01*
X232008511Y-60870724D01*
X232018714Y-60860520D01*
X232018716Y-60860520D01*
X232130520Y-60748716D01*
X232202191Y-60624577D01*
X232209577Y-60611785D01*
X232250500Y-60459057D01*
X232250500Y-60300943D01*
X232250500Y-52739998D01*
X235444532Y-52739998D01*
X235444532Y-52740001D01*
X235464364Y-52966686D01*
X235464366Y-52966697D01*
X235523258Y-53186488D01*
X235523261Y-53186497D01*
X235619431Y-53392732D01*
X235619432Y-53392734D01*
X235749954Y-53579141D01*
X235910858Y-53740045D01*
X235910861Y-53740047D01*
X236097266Y-53870568D01*
X236155275Y-53897618D01*
X236207714Y-53943791D01*
X236226866Y-54010984D01*
X236206650Y-54077865D01*
X236155275Y-54122382D01*
X236097267Y-54149431D01*
X236097265Y-54149432D01*
X235910858Y-54279954D01*
X235749954Y-54440858D01*
X235619432Y-54627265D01*
X235619431Y-54627267D01*
X235523261Y-54833502D01*
X235523258Y-54833511D01*
X235464366Y-55053302D01*
X235464364Y-55053313D01*
X235444532Y-55279998D01*
X235444532Y-55280001D01*
X235464364Y-55506686D01*
X235464366Y-55506697D01*
X235523258Y-55726488D01*
X235523261Y-55726497D01*
X235619431Y-55932732D01*
X235619432Y-55932734D01*
X235749954Y-56119141D01*
X235910858Y-56280045D01*
X235918029Y-56285066D01*
X236097266Y-56410568D01*
X236146088Y-56433334D01*
X236155275Y-56437618D01*
X236207714Y-56483791D01*
X236226866Y-56550984D01*
X236206650Y-56617865D01*
X236155275Y-56662382D01*
X236097267Y-56689431D01*
X236097265Y-56689432D01*
X235910858Y-56819954D01*
X235749954Y-56980858D01*
X235619432Y-57167265D01*
X235619431Y-57167267D01*
X235523261Y-57373502D01*
X235523258Y-57373511D01*
X235464366Y-57593302D01*
X235464364Y-57593313D01*
X235444532Y-57819998D01*
X235444532Y-57820001D01*
X235464364Y-58046686D01*
X235464366Y-58046697D01*
X235523258Y-58266488D01*
X235523261Y-58266497D01*
X235619431Y-58472732D01*
X235619432Y-58472734D01*
X235749954Y-58659141D01*
X235910858Y-58820045D01*
X235954740Y-58850771D01*
X236097266Y-58950568D01*
X236146088Y-58973334D01*
X236155275Y-58977618D01*
X236207714Y-59023791D01*
X236226866Y-59090984D01*
X236206650Y-59157865D01*
X236155275Y-59202382D01*
X236097267Y-59229431D01*
X236097265Y-59229432D01*
X235910858Y-59359954D01*
X235749954Y-59520858D01*
X235619432Y-59707265D01*
X235619431Y-59707267D01*
X235523261Y-59913502D01*
X235523258Y-59913511D01*
X235464366Y-60133302D01*
X235464364Y-60133313D01*
X235444532Y-60359998D01*
X235444532Y-60360001D01*
X235464364Y-60586686D01*
X235464366Y-60586697D01*
X235523258Y-60806488D01*
X235523261Y-60806497D01*
X235619431Y-61012732D01*
X235619432Y-61012734D01*
X235749954Y-61199141D01*
X235910858Y-61360045D01*
X235910861Y-61360047D01*
X236097266Y-61490568D01*
X236146088Y-61513334D01*
X236155275Y-61517618D01*
X236207714Y-61563791D01*
X236226866Y-61630984D01*
X236206650Y-61697865D01*
X236155275Y-61742382D01*
X236097267Y-61769431D01*
X236097265Y-61769432D01*
X235910858Y-61899954D01*
X235749954Y-62060858D01*
X235619432Y-62247265D01*
X235619431Y-62247267D01*
X235523261Y-62453502D01*
X235523258Y-62453511D01*
X235464366Y-62673302D01*
X235464364Y-62673313D01*
X235444532Y-62899998D01*
X235444532Y-62900001D01*
X235464364Y-63126686D01*
X235464366Y-63126697D01*
X235523258Y-63346488D01*
X235523261Y-63346497D01*
X235619431Y-63552732D01*
X235619432Y-63552734D01*
X235749954Y-63739141D01*
X235910858Y-63900045D01*
X235910861Y-63900047D01*
X236097266Y-64030568D01*
X236146088Y-64053334D01*
X236155275Y-64057618D01*
X236207714Y-64103791D01*
X236226866Y-64170984D01*
X236206650Y-64237865D01*
X236155275Y-64282382D01*
X236097267Y-64309431D01*
X236097265Y-64309432D01*
X235910858Y-64439954D01*
X235749954Y-64600858D01*
X235619432Y-64787265D01*
X235619431Y-64787267D01*
X235523261Y-64993502D01*
X235523258Y-64993511D01*
X235464366Y-65213302D01*
X235464364Y-65213313D01*
X235444532Y-65439998D01*
X235444532Y-65440001D01*
X235464364Y-65666686D01*
X235464366Y-65666697D01*
X235523258Y-65886488D01*
X235523261Y-65886497D01*
X235619431Y-66092732D01*
X235619432Y-66092734D01*
X235749954Y-66279141D01*
X235910858Y-66440045D01*
X235910861Y-66440047D01*
X236097266Y-66570568D01*
X236155865Y-66597893D01*
X236208305Y-66644065D01*
X236227457Y-66711258D01*
X236207242Y-66778139D01*
X236155867Y-66822657D01*
X236097515Y-66849867D01*
X235911179Y-66980342D01*
X235750342Y-67141179D01*
X235619865Y-67327517D01*
X235523734Y-67533673D01*
X235523730Y-67533682D01*
X235471127Y-67729999D01*
X235471128Y-67730000D01*
X236434314Y-67730000D01*
X236429920Y-67734394D01*
X236377259Y-67825606D01*
X236350000Y-67927339D01*
X236350000Y-68032661D01*
X236377259Y-68134394D01*
X236429920Y-68225606D01*
X236434314Y-68230000D01*
X235471128Y-68230000D01*
X235523730Y-68426317D01*
X235523734Y-68426326D01*
X235619865Y-68632482D01*
X235750342Y-68818820D01*
X235911179Y-68979657D01*
X236097518Y-69110134D01*
X236097520Y-69110135D01*
X236155865Y-69137342D01*
X236208305Y-69183514D01*
X236227457Y-69250707D01*
X236207242Y-69317589D01*
X236155867Y-69362105D01*
X236154685Y-69362657D01*
X236097264Y-69389433D01*
X235910858Y-69519954D01*
X235749954Y-69680858D01*
X235619432Y-69867265D01*
X235619431Y-69867267D01*
X235523261Y-70073502D01*
X235523258Y-70073511D01*
X235464366Y-70293302D01*
X235464364Y-70293313D01*
X235444532Y-70519998D01*
X235444532Y-70520001D01*
X235464364Y-70746686D01*
X235464366Y-70746697D01*
X235523258Y-70966488D01*
X235523261Y-70966497D01*
X235619431Y-71172732D01*
X235619432Y-71172734D01*
X235749954Y-71359141D01*
X235910858Y-71520045D01*
X235910861Y-71520047D01*
X236097266Y-71650568D01*
X236154681Y-71677341D01*
X236155275Y-71677618D01*
X236207714Y-71723791D01*
X236226866Y-71790984D01*
X236206650Y-71857865D01*
X236155275Y-71902381D01*
X236145322Y-71907023D01*
X236097267Y-71929431D01*
X236097265Y-71929432D01*
X235910858Y-72059954D01*
X235749954Y-72220858D01*
X235619432Y-72407265D01*
X235619431Y-72407267D01*
X235523261Y-72613502D01*
X235523258Y-72613511D01*
X235464366Y-72833302D01*
X235464364Y-72833313D01*
X235444532Y-73059998D01*
X235444532Y-73060001D01*
X235464364Y-73286686D01*
X235464366Y-73286697D01*
X235523258Y-73506488D01*
X235523261Y-73506497D01*
X235619431Y-73712732D01*
X235619432Y-73712734D01*
X235749954Y-73899141D01*
X235910858Y-74060045D01*
X235910861Y-74060047D01*
X236097266Y-74190568D01*
X236155275Y-74217618D01*
X236207714Y-74263791D01*
X236226866Y-74330984D01*
X236206650Y-74397865D01*
X236155275Y-74442382D01*
X236097267Y-74469431D01*
X236097265Y-74469432D01*
X235910858Y-74599954D01*
X235749954Y-74760858D01*
X235619432Y-74947265D01*
X235619431Y-74947267D01*
X235523261Y-75153502D01*
X235523258Y-75153511D01*
X235464366Y-75373302D01*
X235464364Y-75373313D01*
X235444532Y-75599998D01*
X235444532Y-75600001D01*
X235464364Y-75826686D01*
X235464366Y-75826697D01*
X235523258Y-76046488D01*
X235523261Y-76046497D01*
X235619431Y-76252732D01*
X235619432Y-76252734D01*
X235749954Y-76439141D01*
X235910858Y-76600045D01*
X235957693Y-76632839D01*
X236097266Y-76730568D01*
X236125209Y-76743598D01*
X236155275Y-76757618D01*
X236207714Y-76803791D01*
X236226866Y-76870984D01*
X236206650Y-76937865D01*
X236155275Y-76982382D01*
X236097267Y-77009431D01*
X236097265Y-77009432D01*
X235910858Y-77139954D01*
X235749954Y-77300858D01*
X235619432Y-77487265D01*
X235619431Y-77487267D01*
X235523261Y-77693502D01*
X235523258Y-77693511D01*
X235464366Y-77913302D01*
X235464364Y-77913313D01*
X235444532Y-78139998D01*
X235444532Y-78140001D01*
X235464364Y-78366686D01*
X235464366Y-78366697D01*
X235523258Y-78586488D01*
X235523261Y-78586497D01*
X235619431Y-78792732D01*
X235619432Y-78792734D01*
X235749954Y-78979141D01*
X235910858Y-79140045D01*
X235910861Y-79140047D01*
X236097266Y-79270568D01*
X236118617Y-79280524D01*
X236155275Y-79297618D01*
X236207714Y-79343791D01*
X236226866Y-79410984D01*
X236206650Y-79477865D01*
X236155275Y-79522381D01*
X236138272Y-79530310D01*
X236097267Y-79549431D01*
X236097265Y-79549432D01*
X235910858Y-79679954D01*
X235749954Y-79840858D01*
X235619432Y-80027265D01*
X235619431Y-80027267D01*
X235523261Y-80233502D01*
X235523258Y-80233511D01*
X235464366Y-80453302D01*
X235464364Y-80453313D01*
X235444532Y-80679998D01*
X235444532Y-80680001D01*
X235464364Y-80906686D01*
X235464366Y-80906697D01*
X235523258Y-81126488D01*
X235523261Y-81126497D01*
X235619431Y-81332732D01*
X235619432Y-81332734D01*
X235749954Y-81519141D01*
X235910858Y-81680045D01*
X235910861Y-81680047D01*
X236097266Y-81810568D01*
X236155275Y-81837618D01*
X236207714Y-81883791D01*
X236226866Y-81950984D01*
X236206650Y-82017865D01*
X236155275Y-82062382D01*
X236097267Y-82089431D01*
X236097265Y-82089432D01*
X235910858Y-82219954D01*
X235749954Y-82380858D01*
X235619432Y-82567265D01*
X235619431Y-82567267D01*
X235523261Y-82773502D01*
X235523258Y-82773511D01*
X235464366Y-82993302D01*
X235464364Y-82993313D01*
X235444532Y-83219998D01*
X235444532Y-83220001D01*
X235464364Y-83446686D01*
X235464366Y-83446697D01*
X235523258Y-83666488D01*
X235523261Y-83666497D01*
X235619431Y-83872732D01*
X235619432Y-83872734D01*
X235749954Y-84059141D01*
X235910858Y-84220045D01*
X235910861Y-84220047D01*
X236097266Y-84350568D01*
X236155275Y-84377618D01*
X236207714Y-84423791D01*
X236226866Y-84490984D01*
X236206650Y-84557865D01*
X236155275Y-84602382D01*
X236097267Y-84629431D01*
X236097265Y-84629432D01*
X235910858Y-84759954D01*
X235749954Y-84920858D01*
X235619432Y-85107265D01*
X235619431Y-85107267D01*
X235523261Y-85313502D01*
X235523258Y-85313511D01*
X235464366Y-85533302D01*
X235464364Y-85533313D01*
X235444532Y-85759998D01*
X235444532Y-85760001D01*
X235464364Y-85986686D01*
X235464366Y-85986697D01*
X235523258Y-86206488D01*
X235523261Y-86206497D01*
X235619431Y-86412732D01*
X235619432Y-86412734D01*
X235749954Y-86599141D01*
X235910858Y-86760045D01*
X235910861Y-86760047D01*
X236097266Y-86890568D01*
X236303504Y-86986739D01*
X236523308Y-87045635D01*
X236685230Y-87059801D01*
X236749998Y-87065468D01*
X236750000Y-87065468D01*
X236750002Y-87065468D01*
X236806673Y-87060509D01*
X236976692Y-87045635D01*
X237196496Y-86986739D01*
X237402734Y-86890568D01*
X237589139Y-86760047D01*
X237750047Y-86599139D01*
X237880568Y-86412734D01*
X237976739Y-86206496D01*
X238035635Y-85986692D01*
X238054705Y-85768717D01*
X238055468Y-85760001D01*
X238055468Y-85759998D01*
X238047481Y-85668709D01*
X238035635Y-85533308D01*
X237976739Y-85313504D01*
X237880568Y-85107266D01*
X237750047Y-84920861D01*
X237750045Y-84920858D01*
X237589141Y-84759954D01*
X237402734Y-84629432D01*
X237402728Y-84629429D01*
X237344725Y-84602382D01*
X237292285Y-84556210D01*
X237273133Y-84489017D01*
X237293348Y-84422135D01*
X237344725Y-84377618D01*
X237402734Y-84350568D01*
X237589139Y-84220047D01*
X237750047Y-84059139D01*
X237880568Y-83872734D01*
X237976739Y-83666496D01*
X238035635Y-83446692D01*
X238055468Y-83220000D01*
X238048219Y-83137150D01*
X238061985Y-83068653D01*
X238110600Y-83018470D01*
X238178628Y-83002536D01*
X238244472Y-83025911D01*
X238259428Y-83038664D01*
X238561284Y-83340520D01*
X238561286Y-83340521D01*
X238561290Y-83340524D01*
X238638974Y-83385374D01*
X238698216Y-83419577D01*
X238850943Y-83460501D01*
X238850945Y-83460501D01*
X239016654Y-83460501D01*
X239016670Y-83460500D01*
X239142209Y-83460500D01*
X239209248Y-83480185D01*
X239255003Y-83532989D01*
X239258391Y-83541167D01*
X239281202Y-83602328D01*
X239281206Y-83602335D01*
X239367452Y-83717544D01*
X239367455Y-83717547D01*
X239482664Y-83803793D01*
X239482671Y-83803797D01*
X239617517Y-83854091D01*
X239617516Y-83854091D01*
X239624444Y-83854835D01*
X239677127Y-83860500D01*
X242922872Y-83860499D01*
X242982483Y-83854091D01*
X243117331Y-83803796D01*
X243232546Y-83717546D01*
X243318796Y-83602331D01*
X243346191Y-83528881D01*
X243359318Y-83493686D01*
X243401189Y-83437752D01*
X243466653Y-83413335D01*
X243534926Y-83428186D01*
X243584332Y-83477591D01*
X243599500Y-83537019D01*
X243599500Y-84722980D01*
X243579815Y-84790019D01*
X243527011Y-84835774D01*
X243457853Y-84845718D01*
X243394297Y-84816693D01*
X243359318Y-84766313D01*
X243318797Y-84657671D01*
X243318793Y-84657664D01*
X243232547Y-84542455D01*
X243232544Y-84542452D01*
X243117335Y-84456206D01*
X243117328Y-84456202D01*
X242982482Y-84405908D01*
X242982483Y-84405908D01*
X242922883Y-84399501D01*
X242922881Y-84399500D01*
X242922873Y-84399500D01*
X242922864Y-84399500D01*
X239677129Y-84399500D01*
X239677123Y-84399501D01*
X239617516Y-84405908D01*
X239482671Y-84456202D01*
X239482664Y-84456206D01*
X239367455Y-84542452D01*
X239367452Y-84542455D01*
X239281206Y-84657664D01*
X239281202Y-84657671D01*
X239230908Y-84792517D01*
X239226258Y-84835774D01*
X239224501Y-84852123D01*
X239224500Y-84852135D01*
X239224500Y-85947870D01*
X239224501Y-85947876D01*
X239230908Y-86007483D01*
X239281202Y-86142328D01*
X239281206Y-86142335D01*
X239367452Y-86257544D01*
X239367455Y-86257547D01*
X239482664Y-86343793D01*
X239482671Y-86343797D01*
X239617517Y-86394091D01*
X239617516Y-86394091D01*
X239624444Y-86394835D01*
X239677127Y-86400500D01*
X242922872Y-86400499D01*
X242982483Y-86394091D01*
X243117331Y-86343796D01*
X243232546Y-86257546D01*
X243318796Y-86142331D01*
X243369091Y-86007483D01*
X243375500Y-85947873D01*
X243375499Y-85484948D01*
X243395183Y-85417911D01*
X243447987Y-85372156D01*
X243517146Y-85362212D01*
X243580702Y-85391237D01*
X243618476Y-85450015D01*
X243619267Y-85452832D01*
X243636346Y-85516571D01*
X243640424Y-85531789D01*
X243640425Y-85531790D01*
X243662186Y-85569480D01*
X243662187Y-85569482D01*
X243719475Y-85668709D01*
X243719479Y-85668714D01*
X243719480Y-85668716D01*
X243819480Y-85768716D01*
X243931284Y-85880520D01*
X243931286Y-85880521D01*
X243931290Y-85880524D01*
X244047942Y-85947872D01*
X244068216Y-85959577D01*
X244166041Y-85985789D01*
X244220942Y-86000500D01*
X244220943Y-86000500D01*
X244222925Y-86001031D01*
X244282585Y-86037396D01*
X244307013Y-86077473D01*
X244331202Y-86142328D01*
X244331206Y-86142335D01*
X244417452Y-86257544D01*
X244417455Y-86257547D01*
X244532664Y-86343793D01*
X244532671Y-86343797D01*
X244667517Y-86394091D01*
X244667516Y-86394091D01*
X244674444Y-86394835D01*
X244727127Y-86400500D01*
X247972872Y-86400499D01*
X248032483Y-86394091D01*
X248167331Y-86343796D01*
X248282546Y-86257546D01*
X248368796Y-86142331D01*
X248419091Y-86007483D01*
X248425500Y-85947873D01*
X248425499Y-84852128D01*
X248419091Y-84792517D01*
X248418159Y-84790019D01*
X248368797Y-84657671D01*
X248368793Y-84657664D01*
X248282547Y-84542455D01*
X248282544Y-84542452D01*
X248167335Y-84456206D01*
X248167328Y-84456202D01*
X248032482Y-84405908D01*
X248032483Y-84405908D01*
X247972883Y-84399501D01*
X247972881Y-84399500D01*
X247972873Y-84399500D01*
X247972865Y-84399500D01*
X244924500Y-84399500D01*
X244857461Y-84379815D01*
X244811706Y-84327011D01*
X244800500Y-84275500D01*
X244800500Y-83984499D01*
X244820185Y-83917460D01*
X244872989Y-83871705D01*
X244924500Y-83860499D01*
X247972871Y-83860499D01*
X247972872Y-83860499D01*
X248032483Y-83854091D01*
X248167331Y-83803796D01*
X248282546Y-83717546D01*
X248368796Y-83602331D01*
X248419091Y-83467483D01*
X248425500Y-83407873D01*
X248425499Y-82312128D01*
X248419091Y-82252517D01*
X248406945Y-82219953D01*
X248368797Y-82117671D01*
X248368793Y-82117664D01*
X248282547Y-82002455D01*
X248282544Y-82002452D01*
X248167335Y-81916206D01*
X248167328Y-81916202D01*
X248032482Y-81865908D01*
X248032483Y-81865908D01*
X247972883Y-81859501D01*
X247972881Y-81859500D01*
X247972873Y-81859500D01*
X247972864Y-81859500D01*
X244727129Y-81859500D01*
X244727123Y-81859501D01*
X244667514Y-81865909D01*
X244558365Y-81906618D01*
X244488673Y-81911602D01*
X244427352Y-81878117D01*
X243837590Y-81288355D01*
X243837588Y-81288352D01*
X243718717Y-81169481D01*
X243718716Y-81169480D01*
X243609712Y-81106547D01*
X243609711Y-81106546D01*
X243581783Y-81090422D01*
X243513340Y-81072083D01*
X243460070Y-81057809D01*
X243400412Y-81021445D01*
X243369883Y-80958598D01*
X243368877Y-80924778D01*
X243374999Y-80867841D01*
X243375000Y-80867827D01*
X243375000Y-80570000D01*
X241424000Y-80570000D01*
X241356961Y-80550315D01*
X241311206Y-80497511D01*
X241300000Y-80446000D01*
X241300000Y-80320000D01*
X241174000Y-80320000D01*
X241106961Y-80300315D01*
X241061206Y-80247511D01*
X241050000Y-80196000D01*
X241050000Y-80070000D01*
X241550000Y-80070000D01*
X243375000Y-80070000D01*
X243375000Y-79772172D01*
X243374999Y-79772155D01*
X243368598Y-79712627D01*
X243368596Y-79712620D01*
X243318354Y-79577913D01*
X243318350Y-79577906D01*
X243232190Y-79462812D01*
X243232187Y-79462809D01*
X243117093Y-79376649D01*
X243117086Y-79376645D01*
X242982379Y-79326403D01*
X242982372Y-79326401D01*
X242922844Y-79320000D01*
X241550000Y-79320000D01*
X241550000Y-80070000D01*
X241050000Y-80070000D01*
X241050000Y-79320000D01*
X239677155Y-79320000D01*
X239617627Y-79326401D01*
X239617620Y-79326403D01*
X239482913Y-79376645D01*
X239482906Y-79376649D01*
X239367812Y-79462809D01*
X239367809Y-79462812D01*
X239276331Y-79585011D01*
X239274509Y-79583647D01*
X239233923Y-79624232D01*
X239165649Y-79639081D01*
X239100186Y-79614661D01*
X239058317Y-79558726D01*
X239050500Y-79515397D01*
X239050500Y-77220944D01*
X239050499Y-77220941D01*
X239026476Y-77131285D01*
X239022974Y-77118215D01*
X239009577Y-77068215D01*
X238959387Y-76981284D01*
X238930520Y-76931284D01*
X238818716Y-76819480D01*
X238818715Y-76819479D01*
X238814385Y-76815149D01*
X238814374Y-76815139D01*
X238297079Y-76297844D01*
X241475000Y-76297844D01*
X241481401Y-76357372D01*
X241481403Y-76357379D01*
X241531645Y-76492086D01*
X241531649Y-76492093D01*
X241617809Y-76607187D01*
X241617812Y-76607190D01*
X241732906Y-76693350D01*
X241732913Y-76693354D01*
X241867620Y-76743596D01*
X241867627Y-76743598D01*
X241927155Y-76749999D01*
X241927172Y-76750000D01*
X242500000Y-76750000D01*
X243000000Y-76750000D01*
X243572828Y-76750000D01*
X243572844Y-76749999D01*
X243632372Y-76743598D01*
X243632379Y-76743596D01*
X243767086Y-76693354D01*
X243767093Y-76693350D01*
X243882187Y-76607190D01*
X243882190Y-76607187D01*
X243968350Y-76492093D01*
X243968354Y-76492086D01*
X244018596Y-76357379D01*
X244018598Y-76357372D01*
X244024999Y-76297844D01*
X244025000Y-76297827D01*
X244025000Y-75850000D01*
X243000000Y-75850000D01*
X243000000Y-76750000D01*
X242500000Y-76750000D01*
X242500000Y-75850000D01*
X241475000Y-75850000D01*
X241475000Y-76297844D01*
X238297079Y-76297844D01*
X238041941Y-76042706D01*
X238008456Y-75981383D01*
X238009847Y-75922931D01*
X238035635Y-75826692D01*
X238055468Y-75600000D01*
X238035635Y-75373308D01*
X237976739Y-75153504D01*
X237880568Y-74947266D01*
X237848981Y-74902155D01*
X241475000Y-74902155D01*
X241475000Y-75350000D01*
X242500000Y-75350000D01*
X243000000Y-75350000D01*
X244025000Y-75350000D01*
X244025000Y-74902172D01*
X244024999Y-74902155D01*
X244018598Y-74842627D01*
X244018596Y-74842620D01*
X243968354Y-74707913D01*
X243968350Y-74707906D01*
X243882190Y-74592812D01*
X243882187Y-74592809D01*
X243767093Y-74506649D01*
X243767086Y-74506645D01*
X243632379Y-74456403D01*
X243632372Y-74456401D01*
X243572844Y-74450000D01*
X243000000Y-74450000D01*
X243000000Y-75350000D01*
X242500000Y-75350000D01*
X242500000Y-74450000D01*
X241927155Y-74450000D01*
X241867627Y-74456401D01*
X241867620Y-74456403D01*
X241732913Y-74506645D01*
X241732906Y-74506649D01*
X241617812Y-74592809D01*
X241617809Y-74592812D01*
X241531649Y-74707906D01*
X241531645Y-74707913D01*
X241481403Y-74842620D01*
X241481401Y-74842627D01*
X241475000Y-74902155D01*
X237848981Y-74902155D01*
X237750047Y-74760861D01*
X237750045Y-74760858D01*
X237589141Y-74599954D01*
X237402734Y-74469432D01*
X237402728Y-74469429D01*
X237344725Y-74442382D01*
X237292285Y-74396210D01*
X237273133Y-74329017D01*
X237293348Y-74262135D01*
X237344725Y-74217618D01*
X237402734Y-74190568D01*
X237589139Y-74060047D01*
X237750047Y-73899139D01*
X237880568Y-73712734D01*
X237899519Y-73672094D01*
X237945692Y-73619655D01*
X238011901Y-73600500D01*
X238133333Y-73600500D01*
X238200372Y-73620185D01*
X238221014Y-73636819D01*
X238234307Y-73650112D01*
X238234311Y-73650115D01*
X238234313Y-73650117D01*
X238373605Y-73732494D01*
X238414587Y-73744400D01*
X238529002Y-73777642D01*
X238529005Y-73777642D01*
X238529007Y-73777643D01*
X238565310Y-73780500D01*
X238565318Y-73780500D01*
X239034682Y-73780500D01*
X239034690Y-73780500D01*
X239070993Y-73777643D01*
X239070995Y-73777642D01*
X239070997Y-73777642D01*
X239132704Y-73759714D01*
X239226395Y-73732494D01*
X239365687Y-73650117D01*
X239480117Y-73535687D01*
X239562494Y-73396395D01*
X239607643Y-73240993D01*
X239610500Y-73204690D01*
X239610500Y-72795310D01*
X239607643Y-72759007D01*
X239605171Y-72750500D01*
X239574400Y-72644587D01*
X239562494Y-72603605D01*
X239550089Y-72582630D01*
X239532906Y-72514909D01*
X239550091Y-72456384D01*
X239562032Y-72436194D01*
X239604504Y-72290000D01*
X239298352Y-72290000D01*
X239235233Y-72272732D01*
X239226395Y-72267506D01*
X239226393Y-72267505D01*
X239226389Y-72267503D01*
X239070997Y-72222357D01*
X239070991Y-72222356D01*
X239034697Y-72219500D01*
X239034690Y-72219500D01*
X238565310Y-72219500D01*
X238565302Y-72219500D01*
X238529008Y-72222356D01*
X238529002Y-72222357D01*
X238373610Y-72267503D01*
X238373605Y-72267506D01*
X238364766Y-72272732D01*
X238301648Y-72290000D01*
X237994941Y-72290000D01*
X237940209Y-72330849D01*
X237870510Y-72335733D01*
X237809235Y-72302161D01*
X237795467Y-72285728D01*
X237750045Y-72220858D01*
X237589141Y-72059954D01*
X237402734Y-71929432D01*
X237402728Y-71929429D01*
X237358935Y-71909008D01*
X237344724Y-71902381D01*
X237292285Y-71856210D01*
X237273413Y-71790000D01*
X237995496Y-71790000D01*
X238550000Y-71790000D01*
X239050000Y-71790000D01*
X239604504Y-71790000D01*
X239562031Y-71643804D01*
X239479721Y-71504625D01*
X239479714Y-71504616D01*
X239365383Y-71390285D01*
X239365374Y-71390278D01*
X239226195Y-71307968D01*
X239226190Y-71307966D01*
X239070918Y-71262855D01*
X239070912Y-71262854D01*
X239050000Y-71261209D01*
X239050000Y-71790000D01*
X238550000Y-71790000D01*
X238550000Y-71261210D01*
X238549999Y-71261209D01*
X238529087Y-71262854D01*
X238529081Y-71262855D01*
X238373809Y-71307966D01*
X238373804Y-71307968D01*
X238234625Y-71390278D01*
X238234616Y-71390285D01*
X238120285Y-71504616D01*
X238120278Y-71504625D01*
X238037968Y-71643804D01*
X237995496Y-71790000D01*
X237273413Y-71790000D01*
X237273133Y-71789017D01*
X237293348Y-71722135D01*
X237344725Y-71677618D01*
X237345319Y-71677341D01*
X237402734Y-71650568D01*
X237589139Y-71520047D01*
X237750047Y-71359139D01*
X237880568Y-71172734D01*
X237976739Y-70966496D01*
X238035635Y-70746692D01*
X238052634Y-70552384D01*
X238055468Y-70520001D01*
X238055468Y-70519998D01*
X238046617Y-70418830D01*
X238035635Y-70293308D01*
X237976739Y-70073504D01*
X237880568Y-69867266D01*
X237750047Y-69680861D01*
X237750045Y-69680858D01*
X237589141Y-69519954D01*
X237402734Y-69389432D01*
X237402732Y-69389431D01*
X237345315Y-69362657D01*
X237344132Y-69362105D01*
X237291694Y-69315934D01*
X237272542Y-69248740D01*
X237292758Y-69181859D01*
X237344134Y-69137341D01*
X237402484Y-69110132D01*
X237588820Y-68979657D01*
X237749657Y-68818820D01*
X237880134Y-68632482D01*
X237976265Y-68426326D01*
X237976269Y-68426317D01*
X238028872Y-68230000D01*
X237065686Y-68230000D01*
X237070080Y-68225606D01*
X237122741Y-68134394D01*
X237150000Y-68032661D01*
X237150000Y-67927339D01*
X237122741Y-67825606D01*
X237070080Y-67734394D01*
X237065686Y-67730000D01*
X238028872Y-67730000D01*
X238028872Y-67729999D01*
X237976269Y-67533682D01*
X237976265Y-67533673D01*
X237880134Y-67327517D01*
X237749657Y-67141179D01*
X237588820Y-66980342D01*
X237402482Y-66849865D01*
X237344133Y-66822657D01*
X237291694Y-66776484D01*
X237272542Y-66709291D01*
X237292758Y-66642410D01*
X237344129Y-66597895D01*
X237402734Y-66570568D01*
X237589139Y-66440047D01*
X237750047Y-66279139D01*
X237880568Y-66092734D01*
X237976739Y-65886496D01*
X238035635Y-65666692D01*
X238042734Y-65585543D01*
X238068186Y-65520476D01*
X238124777Y-65479497D01*
X238194539Y-65475619D01*
X238209596Y-65480170D01*
X238312623Y-65518597D01*
X238312627Y-65518598D01*
X238372155Y-65524999D01*
X238372172Y-65525000D01*
X240670000Y-65525000D01*
X241170000Y-65525000D01*
X243467828Y-65525000D01*
X243467844Y-65524999D01*
X243527372Y-65518598D01*
X243527379Y-65518596D01*
X243662086Y-65468354D01*
X243662093Y-65468350D01*
X243777187Y-65382190D01*
X243777190Y-65382187D01*
X243863350Y-65267093D01*
X243863354Y-65267086D01*
X243913596Y-65132379D01*
X243913598Y-65132372D01*
X243919999Y-65072844D01*
X243920000Y-65072827D01*
X243920000Y-64895000D01*
X241170000Y-64895000D01*
X241170000Y-65525000D01*
X240670000Y-65525000D01*
X240670000Y-64395000D01*
X241170000Y-64395000D01*
X243920000Y-64395000D01*
X243920000Y-64217172D01*
X243919999Y-64217155D01*
X243913598Y-64157627D01*
X243913597Y-64157623D01*
X243874699Y-64053334D01*
X243869715Y-63983643D01*
X243874699Y-63966666D01*
X243913597Y-63862376D01*
X243913598Y-63862372D01*
X243919999Y-63802844D01*
X243920000Y-63802827D01*
X243920000Y-63625000D01*
X241170000Y-63625000D01*
X241170000Y-64395000D01*
X240670000Y-64395000D01*
X240670000Y-63499000D01*
X240689685Y-63431961D01*
X240742489Y-63386206D01*
X240794000Y-63375000D01*
X240920000Y-63375000D01*
X240920000Y-63249000D01*
X240939685Y-63181961D01*
X240992489Y-63136206D01*
X241044000Y-63125000D01*
X243920000Y-63125000D01*
X243920000Y-62947172D01*
X243919999Y-62947155D01*
X243913598Y-62887627D01*
X243913597Y-62887623D01*
X243874966Y-62784049D01*
X243869982Y-62714357D01*
X243874966Y-62697382D01*
X243914091Y-62592482D01*
X243920500Y-62532873D01*
X243920499Y-61677128D01*
X243914091Y-61617517D01*
X243875231Y-61513329D01*
X243870248Y-61443642D01*
X243875227Y-61426682D01*
X243914091Y-61322483D01*
X243920500Y-61262873D01*
X243920499Y-60407128D01*
X243914091Y-60347517D01*
X243875231Y-60243329D01*
X243870248Y-60173642D01*
X243875227Y-60156682D01*
X243914091Y-60052483D01*
X243920500Y-59992873D01*
X243920499Y-59137128D01*
X243914091Y-59077517D01*
X243875231Y-58973329D01*
X243870248Y-58903642D01*
X243875227Y-58886682D01*
X243914091Y-58782483D01*
X243920500Y-58722873D01*
X243920499Y-57867128D01*
X243914091Y-57807517D01*
X243875231Y-57703329D01*
X243870248Y-57633642D01*
X243875227Y-57616682D01*
X243914091Y-57512483D01*
X243920500Y-57452873D01*
X243920499Y-56597128D01*
X243914091Y-56537517D01*
X243875231Y-56433329D01*
X243870248Y-56363642D01*
X243875227Y-56346682D01*
X243914091Y-56242483D01*
X243920500Y-56182873D01*
X243920499Y-55327128D01*
X243914091Y-55267517D01*
X243863796Y-55132669D01*
X243863795Y-55132668D01*
X243863793Y-55132664D01*
X243777547Y-55017455D01*
X243777544Y-55017452D01*
X243662335Y-54931206D01*
X243662328Y-54931202D01*
X243527482Y-54880908D01*
X243527483Y-54880908D01*
X243467883Y-54874501D01*
X243467881Y-54874500D01*
X243467873Y-54874500D01*
X243467865Y-54874500D01*
X241611243Y-54874500D01*
X241544204Y-54854815D01*
X241498449Y-54802011D01*
X241491468Y-54782594D01*
X241479577Y-54738215D01*
X241417399Y-54630520D01*
X241415521Y-54627267D01*
X241400522Y-54601287D01*
X241400521Y-54601286D01*
X241400520Y-54601284D01*
X241288716Y-54489480D01*
X241288715Y-54489479D01*
X241284385Y-54485149D01*
X241284374Y-54485139D01*
X239177590Y-52378355D01*
X239177588Y-52378352D01*
X239058717Y-52259481D01*
X239058716Y-52259480D01*
X238971904Y-52209360D01*
X238971904Y-52209359D01*
X238971900Y-52209358D01*
X238921785Y-52180423D01*
X238769057Y-52139499D01*
X238610943Y-52139499D01*
X238603347Y-52139499D01*
X238603331Y-52139500D01*
X237981692Y-52139500D01*
X237914653Y-52119815D01*
X237880119Y-52086625D01*
X237750047Y-51900861D01*
X237750045Y-51900858D01*
X237589141Y-51739954D01*
X237402734Y-51609432D01*
X237402732Y-51609431D01*
X237196497Y-51513261D01*
X237196488Y-51513258D01*
X236976697Y-51454366D01*
X236976693Y-51454365D01*
X236976692Y-51454365D01*
X236976691Y-51454364D01*
X236976686Y-51454364D01*
X236750002Y-51434532D01*
X236749998Y-51434532D01*
X236523313Y-51454364D01*
X236523302Y-51454366D01*
X236303511Y-51513258D01*
X236303502Y-51513261D01*
X236097267Y-51609431D01*
X236097265Y-51609432D01*
X235910858Y-51739954D01*
X235749954Y-51900858D01*
X235619432Y-52087265D01*
X235619431Y-52087267D01*
X235523261Y-52293502D01*
X235523258Y-52293511D01*
X235464366Y-52513302D01*
X235464364Y-52513313D01*
X235444532Y-52739998D01*
X232250500Y-52739998D01*
X232250500Y-51177476D01*
X232270185Y-51110437D01*
X232322989Y-51064682D01*
X232388385Y-51054256D01*
X232400000Y-51055565D01*
X232400001Y-51055564D01*
X232400002Y-51055565D01*
X232400004Y-51055565D01*
X232579249Y-51035369D01*
X232579252Y-51035368D01*
X232579255Y-51035368D01*
X232749522Y-50975789D01*
X232902262Y-50879816D01*
X232902267Y-50879810D01*
X232905097Y-50877555D01*
X232907275Y-50876665D01*
X232908158Y-50876111D01*
X232908255Y-50876265D01*
X232969783Y-50851145D01*
X232982412Y-50850500D01*
X243699903Y-50850500D01*
X243766942Y-50870185D01*
G37*
%TD.AperFunction*%
%TA.AperFunction,Conductor*%
G36*
X226668834Y-63203772D02*
G01*
X226724767Y-63245644D01*
X226749184Y-63311108D01*
X226749500Y-63319954D01*
X226749500Y-63573330D01*
X226749499Y-63573348D01*
X226749499Y-63739054D01*
X226749498Y-63739054D01*
X226790423Y-63891785D01*
X226819358Y-63941900D01*
X226819359Y-63941904D01*
X226819360Y-63941904D01*
X226869479Y-64028714D01*
X226869481Y-64028717D01*
X226988349Y-64147585D01*
X226988355Y-64147590D01*
X227838058Y-64997293D01*
X227871543Y-65058616D01*
X227870152Y-65117067D01*
X227844366Y-65213302D01*
X227844364Y-65213313D01*
X227824532Y-65439998D01*
X227824532Y-65440001D01*
X227844364Y-65666686D01*
X227844366Y-65666697D01*
X227903258Y-65886488D01*
X227903261Y-65886497D01*
X227999431Y-66092732D01*
X227999432Y-66092734D01*
X228129954Y-66279141D01*
X228290858Y-66440045D01*
X228290861Y-66440047D01*
X228477266Y-66570568D01*
X228535275Y-66597618D01*
X228587714Y-66643791D01*
X228606866Y-66710984D01*
X228586650Y-66777865D01*
X228535275Y-66822382D01*
X228477267Y-66849431D01*
X228477265Y-66849432D01*
X228290858Y-66979954D01*
X228129954Y-67140858D01*
X227999432Y-67327265D01*
X227999431Y-67327267D01*
X227903261Y-67533502D01*
X227903258Y-67533511D01*
X227844366Y-67753302D01*
X227844364Y-67753313D01*
X227824532Y-67979998D01*
X227824532Y-67980001D01*
X227844364Y-68206686D01*
X227844366Y-68206697D01*
X227903258Y-68426488D01*
X227903261Y-68426497D01*
X227999431Y-68632732D01*
X227999432Y-68632734D01*
X228129954Y-68819141D01*
X228290858Y-68980045D01*
X228290861Y-68980047D01*
X228477266Y-69110568D01*
X228535865Y-69137893D01*
X228588305Y-69184065D01*
X228607457Y-69251258D01*
X228587242Y-69318139D01*
X228535867Y-69362657D01*
X228477515Y-69389867D01*
X228291179Y-69520342D01*
X228130342Y-69681179D01*
X227999865Y-69867517D01*
X227903734Y-70073673D01*
X227903730Y-70073682D01*
X227851127Y-70269999D01*
X227851128Y-70270000D01*
X228814314Y-70270000D01*
X228809920Y-70274394D01*
X228757259Y-70365606D01*
X228730000Y-70467339D01*
X228730000Y-70572661D01*
X228757259Y-70674394D01*
X228809920Y-70765606D01*
X228814314Y-70770000D01*
X227851128Y-70770000D01*
X227903730Y-70966317D01*
X227903734Y-70966326D01*
X227999865Y-71172482D01*
X228130342Y-71358820D01*
X228291179Y-71519657D01*
X228477518Y-71650134D01*
X228477520Y-71650135D01*
X228535865Y-71677342D01*
X228588305Y-71723514D01*
X228607457Y-71790707D01*
X228587242Y-71857589D01*
X228535867Y-71902105D01*
X228477268Y-71929431D01*
X228477264Y-71929433D01*
X228290858Y-72059954D01*
X228129954Y-72220858D01*
X227999432Y-72407265D01*
X227999431Y-72407267D01*
X227903261Y-72613502D01*
X227903258Y-72613511D01*
X227844366Y-72833302D01*
X227844364Y-72833313D01*
X227824532Y-73059998D01*
X227824532Y-73060001D01*
X227844364Y-73286686D01*
X227844366Y-73286697D01*
X227903258Y-73506488D01*
X227903261Y-73506497D01*
X227999431Y-73712732D01*
X227999432Y-73712734D01*
X228129954Y-73899141D01*
X228290858Y-74060045D01*
X228290861Y-74060047D01*
X228477266Y-74190568D01*
X228535275Y-74217618D01*
X228587714Y-74263791D01*
X228606866Y-74330984D01*
X228586650Y-74397865D01*
X228535275Y-74442382D01*
X228477267Y-74469431D01*
X228477265Y-74469432D01*
X228290858Y-74599954D01*
X228129954Y-74760858D01*
X227999432Y-74947265D01*
X227999431Y-74947267D01*
X227903261Y-75153502D01*
X227903258Y-75153511D01*
X227844366Y-75373302D01*
X227844364Y-75373313D01*
X227824532Y-75599998D01*
X227824532Y-75600001D01*
X227844364Y-75826686D01*
X227844366Y-75826697D01*
X227903258Y-76046488D01*
X227903263Y-76046502D01*
X227947645Y-76141679D01*
X227958137Y-76210756D01*
X227929617Y-76274540D01*
X227871140Y-76312779D01*
X227867377Y-76313852D01*
X227837784Y-76321782D01*
X227768214Y-76340423D01*
X227768209Y-76340426D01*
X227631290Y-76419475D01*
X227631282Y-76419481D01*
X226559128Y-77491635D01*
X226497805Y-77525120D01*
X226428113Y-77520136D01*
X226372180Y-77478264D01*
X226347763Y-77412800D01*
X226351671Y-77371864D01*
X226386207Y-77242977D01*
X226405277Y-77025000D01*
X226386207Y-76807023D01*
X226329575Y-76595670D01*
X226237102Y-76397362D01*
X226237100Y-76397359D01*
X226237099Y-76397357D01*
X226111599Y-76218124D01*
X226035154Y-76141679D01*
X225956877Y-76063402D01*
X225777639Y-75937898D01*
X225777640Y-75937898D01*
X225777638Y-75937897D01*
X225678484Y-75891661D01*
X225579330Y-75845425D01*
X225579326Y-75845424D01*
X225579322Y-75845422D01*
X225367977Y-75788793D01*
X225150002Y-75769723D01*
X225149998Y-75769723D01*
X225004682Y-75782436D01*
X224932023Y-75788793D01*
X224932020Y-75788793D01*
X224720677Y-75845422D01*
X224720668Y-75845426D01*
X224522361Y-75937898D01*
X224522357Y-75937900D01*
X224343121Y-76063402D01*
X224188402Y-76218121D01*
X224062898Y-76397360D01*
X224062897Y-76397362D01*
X224011350Y-76507905D01*
X223965177Y-76560344D01*
X223898968Y-76579500D01*
X222767844Y-76579500D01*
X222700805Y-76559815D01*
X222655050Y-76507011D01*
X222653334Y-76495078D01*
X222634505Y-76470000D01*
X222328352Y-76470000D01*
X222265233Y-76452732D01*
X222256395Y-76447506D01*
X222256393Y-76447505D01*
X222256389Y-76447503D01*
X222100997Y-76402357D01*
X222100991Y-76402356D01*
X222064697Y-76399500D01*
X222064690Y-76399500D01*
X221595310Y-76399500D01*
X221595302Y-76399500D01*
X221559008Y-76402356D01*
X221559002Y-76402357D01*
X221403610Y-76447503D01*
X221403605Y-76447506D01*
X221394766Y-76452732D01*
X221331648Y-76470000D01*
X221025496Y-76470000D01*
X221067968Y-76616194D01*
X221079911Y-76636389D01*
X221097092Y-76704113D01*
X221079911Y-76762628D01*
X221067506Y-76783604D01*
X221067504Y-76783609D01*
X221022357Y-76939002D01*
X221022356Y-76939008D01*
X221019500Y-76975302D01*
X221019500Y-77384697D01*
X221022356Y-77420991D01*
X221022357Y-77420997D01*
X221067504Y-77576390D01*
X221067505Y-77576393D01*
X221149881Y-77715684D01*
X221149887Y-77715692D01*
X221264307Y-77830112D01*
X221264311Y-77830115D01*
X221264313Y-77830117D01*
X221403605Y-77912494D01*
X221444587Y-77924400D01*
X221559002Y-77957642D01*
X221559005Y-77957642D01*
X221559007Y-77957643D01*
X221595310Y-77960500D01*
X221595318Y-77960500D01*
X222064682Y-77960500D01*
X222064690Y-77960500D01*
X222100993Y-77957643D01*
X222100995Y-77957642D01*
X222100997Y-77957642D01*
X222141975Y-77945736D01*
X222256395Y-77912494D01*
X222395687Y-77830117D01*
X222398077Y-77827727D01*
X222408986Y-77816819D01*
X222470309Y-77783334D01*
X222496667Y-77780500D01*
X224087877Y-77780500D01*
X224154916Y-77800185D01*
X224184202Y-77828329D01*
X224184920Y-77827727D01*
X224188399Y-77831873D01*
X224188402Y-77831877D01*
X224343123Y-77986598D01*
X224522361Y-78112102D01*
X224720670Y-78204575D01*
X224932023Y-78261207D01*
X225114926Y-78277208D01*
X225149998Y-78280277D01*
X225150000Y-78280277D01*
X225150002Y-78280277D01*
X225178254Y-78277805D01*
X225367977Y-78261207D01*
X225579330Y-78204575D01*
X225777639Y-78112102D01*
X225904375Y-78023359D01*
X225970581Y-78001032D01*
X226038348Y-78018042D01*
X226086162Y-78068989D01*
X226099499Y-78124934D01*
X226099499Y-78289046D01*
X226099500Y-78289059D01*
X226099500Y-81595500D01*
X226079815Y-81662539D01*
X226027011Y-81708294D01*
X225975500Y-81719500D01*
X222937129Y-81719500D01*
X222937123Y-81719501D01*
X222877516Y-81725908D01*
X222742671Y-81776202D01*
X222742664Y-81776206D01*
X222627455Y-81862452D01*
X222627452Y-81862455D01*
X222541206Y-81977664D01*
X222541202Y-81977671D01*
X222490908Y-82112517D01*
X222484501Y-82172116D01*
X222484500Y-82172135D01*
X222484500Y-83267870D01*
X222484554Y-83268859D01*
X222484500Y-83269083D01*
X222484501Y-83271193D01*
X222484003Y-83271193D01*
X222468488Y-83336856D01*
X222418210Y-83385374D01*
X222360732Y-83399500D01*
X221708767Y-83399500D01*
X221641728Y-83379815D01*
X221595973Y-83327011D01*
X221585376Y-83271149D01*
X221585000Y-83271149D01*
X221585000Y-83269164D01*
X221584944Y-83268869D01*
X221585000Y-83267823D01*
X221585000Y-82970000D01*
X219634000Y-82970000D01*
X219566961Y-82950315D01*
X219521206Y-82897511D01*
X219510000Y-82846000D01*
X219510000Y-82720000D01*
X219384000Y-82720000D01*
X219316961Y-82700315D01*
X219271206Y-82647511D01*
X219260000Y-82596000D01*
X219260000Y-82470000D01*
X219760000Y-82470000D01*
X221585000Y-82470000D01*
X221585000Y-82172172D01*
X221584999Y-82172155D01*
X221578598Y-82112627D01*
X221578596Y-82112620D01*
X221528354Y-81977913D01*
X221528350Y-81977906D01*
X221442190Y-81862812D01*
X221442187Y-81862809D01*
X221327093Y-81776649D01*
X221327086Y-81776645D01*
X221192379Y-81726403D01*
X221192372Y-81726401D01*
X221132844Y-81720000D01*
X219760000Y-81720000D01*
X219760000Y-82470000D01*
X219260000Y-82470000D01*
X219260000Y-81720000D01*
X217887155Y-81720000D01*
X217827627Y-81726401D01*
X217827617Y-81726403D01*
X217767832Y-81748702D01*
X217698141Y-81753686D01*
X217636818Y-81720200D01*
X217603334Y-81658877D01*
X217600500Y-81632520D01*
X217600500Y-75970000D01*
X221025496Y-75970000D01*
X221580000Y-75970000D01*
X222080000Y-75970000D01*
X222634504Y-75970000D01*
X222592031Y-75823804D01*
X222509721Y-75684625D01*
X222509714Y-75684616D01*
X222395383Y-75570285D01*
X222395374Y-75570278D01*
X222256195Y-75487968D01*
X222256190Y-75487966D01*
X222100918Y-75442855D01*
X222100912Y-75442854D01*
X222080000Y-75441209D01*
X222080000Y-75970000D01*
X221580000Y-75970000D01*
X221580000Y-75441210D01*
X221579999Y-75441209D01*
X221559087Y-75442854D01*
X221559081Y-75442855D01*
X221403809Y-75487966D01*
X221403804Y-75487968D01*
X221264625Y-75570278D01*
X221264616Y-75570285D01*
X221150285Y-75684616D01*
X221150278Y-75684625D01*
X221067968Y-75823804D01*
X221025496Y-75970000D01*
X217600500Y-75970000D01*
X217600500Y-73600096D01*
X217620185Y-73533057D01*
X217636815Y-73512419D01*
X217789234Y-73360000D01*
X221015496Y-73360000D01*
X221057968Y-73506195D01*
X221140278Y-73645374D01*
X221140285Y-73645383D01*
X221254616Y-73759714D01*
X221254625Y-73759721D01*
X221393804Y-73842031D01*
X221549089Y-73887145D01*
X221570000Y-73888789D01*
X222070000Y-73888789D01*
X222090910Y-73887145D01*
X222246195Y-73842031D01*
X222385374Y-73759721D01*
X222385383Y-73759714D01*
X222499714Y-73645383D01*
X222499721Y-73645374D01*
X222582031Y-73506195D01*
X222624504Y-73360000D01*
X222070000Y-73360000D01*
X222070000Y-73888789D01*
X221570000Y-73888789D01*
X221570000Y-73360000D01*
X221015496Y-73360000D01*
X217789234Y-73360000D01*
X218158506Y-72990727D01*
X218158511Y-72990724D01*
X218168714Y-72980520D01*
X218168716Y-72980520D01*
X218280520Y-72868716D01*
X218343860Y-72759007D01*
X218359577Y-72731785D01*
X218400501Y-72579057D01*
X218400501Y-72420943D01*
X218400501Y-72413348D01*
X218400500Y-72413330D01*
X218400500Y-71945302D01*
X221009500Y-71945302D01*
X221009500Y-72354697D01*
X221012356Y-72390991D01*
X221012357Y-72390997D01*
X221057504Y-72546390D01*
X221057507Y-72546397D01*
X221069910Y-72567370D01*
X221087093Y-72635094D01*
X221069912Y-72693608D01*
X221057968Y-72713804D01*
X221015496Y-72860000D01*
X221321648Y-72860000D01*
X221384766Y-72877267D01*
X221393605Y-72882494D01*
X221393608Y-72882494D01*
X221393610Y-72882496D01*
X221549002Y-72927642D01*
X221549005Y-72927642D01*
X221549007Y-72927643D01*
X221585310Y-72930500D01*
X221585318Y-72930500D01*
X222054682Y-72930500D01*
X222054690Y-72930500D01*
X222090993Y-72927643D01*
X222090995Y-72927642D01*
X222090997Y-72927642D01*
X222246389Y-72882496D01*
X222246389Y-72882495D01*
X222246395Y-72882494D01*
X222255233Y-72877267D01*
X222318352Y-72860000D01*
X222624505Y-72860000D01*
X222638962Y-72840744D01*
X222638967Y-72839226D01*
X222676909Y-72780556D01*
X222740547Y-72751712D01*
X222757844Y-72750500D01*
X223996851Y-72750500D01*
X224063890Y-72770185D01*
X224098423Y-72803374D01*
X224188402Y-72931877D01*
X224343123Y-73086598D01*
X224522361Y-73212102D01*
X224720670Y-73304575D01*
X224932023Y-73361207D01*
X225114926Y-73377208D01*
X225149998Y-73380277D01*
X225150000Y-73380277D01*
X225150002Y-73380277D01*
X225178254Y-73377805D01*
X225367977Y-73361207D01*
X225579330Y-73304575D01*
X225777639Y-73212102D01*
X225956877Y-73086598D01*
X226111598Y-72931877D01*
X226237102Y-72752639D01*
X226329575Y-72554330D01*
X226386207Y-72342977D01*
X226405277Y-72125000D01*
X226386207Y-71907023D01*
X226329575Y-71695670D01*
X226237102Y-71497362D01*
X226237100Y-71497359D01*
X226237099Y-71497357D01*
X226111599Y-71318124D01*
X226054684Y-71261209D01*
X225956877Y-71163402D01*
X225777639Y-71037898D01*
X225777640Y-71037898D01*
X225777638Y-71037897D01*
X225678484Y-70991661D01*
X225579330Y-70945425D01*
X225579326Y-70945424D01*
X225579322Y-70945422D01*
X225367977Y-70888793D01*
X225150002Y-70869723D01*
X225149998Y-70869723D01*
X225004682Y-70882436D01*
X224932023Y-70888793D01*
X224932020Y-70888793D01*
X224720677Y-70945422D01*
X224720668Y-70945426D01*
X224522361Y-71037898D01*
X224522357Y-71037900D01*
X224343121Y-71163402D01*
X224188403Y-71318120D01*
X224104996Y-71437238D01*
X224063414Y-71496623D01*
X224008840Y-71540248D01*
X223961841Y-71549500D01*
X222486667Y-71549500D01*
X222419628Y-71529815D01*
X222398986Y-71513181D01*
X222385692Y-71499887D01*
X222385684Y-71499881D01*
X222246393Y-71417505D01*
X222246390Y-71417504D01*
X222090997Y-71372357D01*
X222090991Y-71372356D01*
X222054697Y-71369500D01*
X222054690Y-71369500D01*
X221585310Y-71369500D01*
X221585302Y-71369500D01*
X221549008Y-71372356D01*
X221549002Y-71372357D01*
X221393609Y-71417504D01*
X221393606Y-71417505D01*
X221254315Y-71499881D01*
X221254307Y-71499887D01*
X221139887Y-71614307D01*
X221139881Y-71614315D01*
X221057505Y-71753606D01*
X221057504Y-71753609D01*
X221012357Y-71909002D01*
X221012356Y-71909008D01*
X221009500Y-71945302D01*
X218400500Y-71945302D01*
X218400500Y-70200096D01*
X218420185Y-70133057D01*
X218436814Y-70112420D01*
X224958506Y-63590727D01*
X224958511Y-63590724D01*
X224968714Y-63580520D01*
X224968716Y-63580520D01*
X225080520Y-63468716D01*
X225095655Y-63442501D01*
X225146221Y-63394284D01*
X225203043Y-63380499D01*
X226222871Y-63380499D01*
X226222872Y-63380499D01*
X226282483Y-63374091D01*
X226417331Y-63323796D01*
X226532546Y-63237546D01*
X226532548Y-63237542D01*
X226537819Y-63232273D01*
X226599142Y-63198788D01*
X226668834Y-63203772D01*
G37*
%TD.AperFunction*%
%TD*%
M02*
