%TF.GenerationSoftware,KiCad,Pcbnew,8.0.7*%
%TF.CreationDate,2024-12-23T09:54:04+01:00*%
%TF.ProjectId,circuit,63697263-7569-4742-9e6b-696361645f70,rev?*%
%TF.SameCoordinates,Original*%
%TF.FileFunction,Legend,Top*%
%TF.FilePolarity,Positive*%
%FSLAX46Y46*%
G04 Gerber Fmt 4.6, Leading zero omitted, Abs format (unit mm)*
G04 Created by KiCad (PCBNEW 8.0.7) date 2024-12-23 09:54:04*
%MOMM*%
%LPD*%
G01*
G04 APERTURE LIST*
%ADD10C,0.175000*%
%ADD11C,0.150000*%
%ADD12C,0.120000*%
G04 APERTURE END LIST*
D10*
X219659661Y-90351535D02*
X220307280Y-90351535D01*
X220307280Y-90351535D02*
X220383471Y-90389630D01*
X220383471Y-90389630D02*
X220421566Y-90427726D01*
X220421566Y-90427726D02*
X220459661Y-90503916D01*
X220459661Y-90503916D02*
X220459661Y-90618202D01*
X220459661Y-90618202D02*
X220421566Y-90694392D01*
X220154900Y-90351535D02*
X220192995Y-90427726D01*
X220192995Y-90427726D02*
X220192995Y-90580107D01*
X220192995Y-90580107D02*
X220154900Y-90656297D01*
X220154900Y-90656297D02*
X220116804Y-90694392D01*
X220116804Y-90694392D02*
X220040614Y-90732488D01*
X220040614Y-90732488D02*
X219812042Y-90732488D01*
X219812042Y-90732488D02*
X219735852Y-90694392D01*
X219735852Y-90694392D02*
X219697757Y-90656297D01*
X219697757Y-90656297D02*
X219659661Y-90580107D01*
X219659661Y-90580107D02*
X219659661Y-90427726D01*
X219659661Y-90427726D02*
X219697757Y-90351535D01*
X220192995Y-89970582D02*
X219659661Y-89970582D01*
X219392995Y-89970582D02*
X219431090Y-90008678D01*
X219431090Y-90008678D02*
X219469185Y-89970582D01*
X219469185Y-89970582D02*
X219431090Y-89932487D01*
X219431090Y-89932487D02*
X219392995Y-89970582D01*
X219392995Y-89970582D02*
X219469185Y-89970582D01*
X219659661Y-89703916D02*
X219659661Y-89399154D01*
X219392995Y-89589630D02*
X220078709Y-89589630D01*
X220078709Y-89589630D02*
X220154900Y-89551535D01*
X220154900Y-89551535D02*
X220192995Y-89475345D01*
X220192995Y-89475345D02*
X220192995Y-89399154D01*
X220192995Y-89132487D02*
X219392995Y-89132487D01*
X220192995Y-88789630D02*
X219773947Y-88789630D01*
X219773947Y-88789630D02*
X219697757Y-88827725D01*
X219697757Y-88827725D02*
X219659661Y-88903916D01*
X219659661Y-88903916D02*
X219659661Y-89018202D01*
X219659661Y-89018202D02*
X219697757Y-89094392D01*
X219697757Y-89094392D02*
X219735852Y-89132487D01*
X219659661Y-88065820D02*
X220192995Y-88065820D01*
X219659661Y-88408677D02*
X220078709Y-88408677D01*
X220078709Y-88408677D02*
X220154900Y-88370582D01*
X220154900Y-88370582D02*
X220192995Y-88294392D01*
X220192995Y-88294392D02*
X220192995Y-88180106D01*
X220192995Y-88180106D02*
X220154900Y-88103915D01*
X220154900Y-88103915D02*
X220116804Y-88065820D01*
X220192995Y-87684867D02*
X219392995Y-87684867D01*
X219697757Y-87684867D02*
X219659661Y-87608677D01*
X219659661Y-87608677D02*
X219659661Y-87456296D01*
X219659661Y-87456296D02*
X219697757Y-87380105D01*
X219697757Y-87380105D02*
X219735852Y-87342010D01*
X219735852Y-87342010D02*
X219812042Y-87303915D01*
X219812042Y-87303915D02*
X220040614Y-87303915D01*
X220040614Y-87303915D02*
X220116804Y-87342010D01*
X220116804Y-87342010D02*
X220154900Y-87380105D01*
X220154900Y-87380105D02*
X220192995Y-87456296D01*
X220192995Y-87456296D02*
X220192995Y-87608677D01*
X220192995Y-87608677D02*
X220154900Y-87684867D01*
X220116804Y-86961057D02*
X220154900Y-86922962D01*
X220154900Y-86922962D02*
X220192995Y-86961057D01*
X220192995Y-86961057D02*
X220154900Y-86999153D01*
X220154900Y-86999153D02*
X220116804Y-86961057D01*
X220116804Y-86961057D02*
X220192995Y-86961057D01*
X220154900Y-86237248D02*
X220192995Y-86313439D01*
X220192995Y-86313439D02*
X220192995Y-86465820D01*
X220192995Y-86465820D02*
X220154900Y-86542010D01*
X220154900Y-86542010D02*
X220116804Y-86580105D01*
X220116804Y-86580105D02*
X220040614Y-86618201D01*
X220040614Y-86618201D02*
X219812042Y-86618201D01*
X219812042Y-86618201D02*
X219735852Y-86580105D01*
X219735852Y-86580105D02*
X219697757Y-86542010D01*
X219697757Y-86542010D02*
X219659661Y-86465820D01*
X219659661Y-86465820D02*
X219659661Y-86313439D01*
X219659661Y-86313439D02*
X219697757Y-86237248D01*
X220192995Y-85780106D02*
X220154900Y-85856296D01*
X220154900Y-85856296D02*
X220116804Y-85894391D01*
X220116804Y-85894391D02*
X220040614Y-85932487D01*
X220040614Y-85932487D02*
X219812042Y-85932487D01*
X219812042Y-85932487D02*
X219735852Y-85894391D01*
X219735852Y-85894391D02*
X219697757Y-85856296D01*
X219697757Y-85856296D02*
X219659661Y-85780106D01*
X219659661Y-85780106D02*
X219659661Y-85665820D01*
X219659661Y-85665820D02*
X219697757Y-85589629D01*
X219697757Y-85589629D02*
X219735852Y-85551534D01*
X219735852Y-85551534D02*
X219812042Y-85513439D01*
X219812042Y-85513439D02*
X220040614Y-85513439D01*
X220040614Y-85513439D02*
X220116804Y-85551534D01*
X220116804Y-85551534D02*
X220154900Y-85589629D01*
X220154900Y-85589629D02*
X220192995Y-85665820D01*
X220192995Y-85665820D02*
X220192995Y-85780106D01*
X220192995Y-85170581D02*
X219659661Y-85170581D01*
X219735852Y-85170581D02*
X219697757Y-85132486D01*
X219697757Y-85132486D02*
X219659661Y-85056296D01*
X219659661Y-85056296D02*
X219659661Y-84942010D01*
X219659661Y-84942010D02*
X219697757Y-84865819D01*
X219697757Y-84865819D02*
X219773947Y-84827724D01*
X219773947Y-84827724D02*
X220192995Y-84827724D01*
X219773947Y-84827724D02*
X219697757Y-84789629D01*
X219697757Y-84789629D02*
X219659661Y-84713438D01*
X219659661Y-84713438D02*
X219659661Y-84599153D01*
X219659661Y-84599153D02*
X219697757Y-84522962D01*
X219697757Y-84522962D02*
X219773947Y-84484867D01*
X219773947Y-84484867D02*
X220192995Y-84484867D01*
X219354900Y-83532486D02*
X220383471Y-84218200D01*
X220192995Y-83151534D02*
X220154900Y-83227724D01*
X220154900Y-83227724D02*
X220078709Y-83265819D01*
X220078709Y-83265819D02*
X219392995Y-83265819D01*
X219659661Y-82503914D02*
X220192995Y-82503914D01*
X219659661Y-82846771D02*
X220078709Y-82846771D01*
X220078709Y-82846771D02*
X220154900Y-82808676D01*
X220154900Y-82808676D02*
X220192995Y-82732486D01*
X220192995Y-82732486D02*
X220192995Y-82618200D01*
X220192995Y-82618200D02*
X220154900Y-82542009D01*
X220154900Y-82542009D02*
X220116804Y-82503914D01*
X220154900Y-82161057D02*
X220192995Y-82084866D01*
X220192995Y-82084866D02*
X220192995Y-81932485D01*
X220192995Y-81932485D02*
X220154900Y-81856295D01*
X220154900Y-81856295D02*
X220078709Y-81818199D01*
X220078709Y-81818199D02*
X220040614Y-81818199D01*
X220040614Y-81818199D02*
X219964423Y-81856295D01*
X219964423Y-81856295D02*
X219926328Y-81932485D01*
X219926328Y-81932485D02*
X219926328Y-82046771D01*
X219926328Y-82046771D02*
X219888233Y-82122961D01*
X219888233Y-82122961D02*
X219812042Y-82161057D01*
X219812042Y-82161057D02*
X219773947Y-82161057D01*
X219773947Y-82161057D02*
X219697757Y-82122961D01*
X219697757Y-82122961D02*
X219659661Y-82046771D01*
X219659661Y-82046771D02*
X219659661Y-81932485D01*
X219659661Y-81932485D02*
X219697757Y-81856295D01*
X220192995Y-81475342D02*
X219659661Y-81475342D01*
X219735852Y-81475342D02*
X219697757Y-81437247D01*
X219697757Y-81437247D02*
X219659661Y-81361057D01*
X219659661Y-81361057D02*
X219659661Y-81246771D01*
X219659661Y-81246771D02*
X219697757Y-81170580D01*
X219697757Y-81170580D02*
X219773947Y-81132485D01*
X219773947Y-81132485D02*
X220192995Y-81132485D01*
X219773947Y-81132485D02*
X219697757Y-81094390D01*
X219697757Y-81094390D02*
X219659661Y-81018199D01*
X219659661Y-81018199D02*
X219659661Y-80903914D01*
X219659661Y-80903914D02*
X219697757Y-80827723D01*
X219697757Y-80827723D02*
X219773947Y-80789628D01*
X219773947Y-80789628D02*
X220192995Y-80789628D01*
X220192995Y-80065818D02*
X219392995Y-80065818D01*
X220154900Y-80065818D02*
X220192995Y-80142009D01*
X220192995Y-80142009D02*
X220192995Y-80294390D01*
X220192995Y-80294390D02*
X220154900Y-80370580D01*
X220154900Y-80370580D02*
X220116804Y-80408675D01*
X220116804Y-80408675D02*
X220040614Y-80446771D01*
X220040614Y-80446771D02*
X219812042Y-80446771D01*
X219812042Y-80446771D02*
X219735852Y-80408675D01*
X219735852Y-80408675D02*
X219697757Y-80370580D01*
X219697757Y-80370580D02*
X219659661Y-80294390D01*
X219659661Y-80294390D02*
X219659661Y-80142009D01*
X219659661Y-80142009D02*
X219697757Y-80065818D01*
X220192995Y-79570580D02*
X220154900Y-79646770D01*
X220154900Y-79646770D02*
X220078709Y-79684865D01*
X220078709Y-79684865D02*
X219392995Y-79684865D01*
X219354900Y-78694389D02*
X220383471Y-79380103D01*
X220192995Y-78427722D02*
X219392995Y-78427722D01*
X219392995Y-78427722D02*
X219964423Y-78161056D01*
X219964423Y-78161056D02*
X219392995Y-77894389D01*
X219392995Y-77894389D02*
X220192995Y-77894389D01*
X219659661Y-77589627D02*
X220192995Y-77399151D01*
X219659661Y-77208674D02*
X220192995Y-77399151D01*
X220192995Y-77399151D02*
X220383471Y-77475341D01*
X220383471Y-77475341D02*
X220421566Y-77513436D01*
X220421566Y-77513436D02*
X220459661Y-77589627D01*
X220154900Y-76942008D02*
X220192995Y-76827722D01*
X220192995Y-76827722D02*
X220192995Y-76637246D01*
X220192995Y-76637246D02*
X220154900Y-76561055D01*
X220154900Y-76561055D02*
X220116804Y-76522960D01*
X220116804Y-76522960D02*
X220040614Y-76484865D01*
X220040614Y-76484865D02*
X219964423Y-76484865D01*
X219964423Y-76484865D02*
X219888233Y-76522960D01*
X219888233Y-76522960D02*
X219850138Y-76561055D01*
X219850138Y-76561055D02*
X219812042Y-76637246D01*
X219812042Y-76637246D02*
X219773947Y-76789627D01*
X219773947Y-76789627D02*
X219735852Y-76865817D01*
X219735852Y-76865817D02*
X219697757Y-76903912D01*
X219697757Y-76903912D02*
X219621566Y-76942008D01*
X219621566Y-76942008D02*
X219545376Y-76942008D01*
X219545376Y-76942008D02*
X219469185Y-76903912D01*
X219469185Y-76903912D02*
X219431090Y-76865817D01*
X219431090Y-76865817D02*
X219392995Y-76789627D01*
X219392995Y-76789627D02*
X219392995Y-76599150D01*
X219392995Y-76599150D02*
X219431090Y-76484865D01*
X220192995Y-76142007D02*
X219659661Y-76142007D01*
X219392995Y-76142007D02*
X219431090Y-76180103D01*
X219431090Y-76180103D02*
X219469185Y-76142007D01*
X219469185Y-76142007D02*
X219431090Y-76103912D01*
X219431090Y-76103912D02*
X219392995Y-76142007D01*
X219392995Y-76142007D02*
X219469185Y-76142007D01*
X220192995Y-75761055D02*
X219659661Y-75761055D01*
X219735852Y-75761055D02*
X219697757Y-75722960D01*
X219697757Y-75722960D02*
X219659661Y-75646770D01*
X219659661Y-75646770D02*
X219659661Y-75532484D01*
X219659661Y-75532484D02*
X219697757Y-75456293D01*
X219697757Y-75456293D02*
X219773947Y-75418198D01*
X219773947Y-75418198D02*
X220192995Y-75418198D01*
X219773947Y-75418198D02*
X219697757Y-75380103D01*
X219697757Y-75380103D02*
X219659661Y-75303912D01*
X219659661Y-75303912D02*
X219659661Y-75189627D01*
X219659661Y-75189627D02*
X219697757Y-75113436D01*
X219697757Y-75113436D02*
X219773947Y-75075341D01*
X219773947Y-75075341D02*
X220192995Y-75075341D01*
X220192995Y-74237245D02*
X219812042Y-74503912D01*
X220192995Y-74694388D02*
X219392995Y-74694388D01*
X219392995Y-74694388D02*
X219392995Y-74389626D01*
X219392995Y-74389626D02*
X219431090Y-74313436D01*
X219431090Y-74313436D02*
X219469185Y-74275341D01*
X219469185Y-74275341D02*
X219545376Y-74237245D01*
X219545376Y-74237245D02*
X219659661Y-74237245D01*
X219659661Y-74237245D02*
X219735852Y-74275341D01*
X219735852Y-74275341D02*
X219773947Y-74313436D01*
X219773947Y-74313436D02*
X219812042Y-74389626D01*
X219812042Y-74389626D02*
X219812042Y-74694388D01*
X220192995Y-73551531D02*
X219773947Y-73551531D01*
X219773947Y-73551531D02*
X219697757Y-73589626D01*
X219697757Y-73589626D02*
X219659661Y-73665817D01*
X219659661Y-73665817D02*
X219659661Y-73818198D01*
X219659661Y-73818198D02*
X219697757Y-73894388D01*
X220154900Y-73551531D02*
X220192995Y-73627722D01*
X220192995Y-73627722D02*
X220192995Y-73818198D01*
X220192995Y-73818198D02*
X220154900Y-73894388D01*
X220154900Y-73894388D02*
X220078709Y-73932484D01*
X220078709Y-73932484D02*
X220002519Y-73932484D01*
X220002519Y-73932484D02*
X219926328Y-73894388D01*
X219926328Y-73894388D02*
X219888233Y-73818198D01*
X219888233Y-73818198D02*
X219888233Y-73627722D01*
X219888233Y-73627722D02*
X219850138Y-73551531D01*
X220154900Y-72827721D02*
X220192995Y-72903912D01*
X220192995Y-72903912D02*
X220192995Y-73056293D01*
X220192995Y-73056293D02*
X220154900Y-73132483D01*
X220154900Y-73132483D02*
X220116804Y-73170578D01*
X220116804Y-73170578D02*
X220040614Y-73208674D01*
X220040614Y-73208674D02*
X219812042Y-73208674D01*
X219812042Y-73208674D02*
X219735852Y-73170578D01*
X219735852Y-73170578D02*
X219697757Y-73132483D01*
X219697757Y-73132483D02*
X219659661Y-73056293D01*
X219659661Y-73056293D02*
X219659661Y-72903912D01*
X219659661Y-72903912D02*
X219697757Y-72827721D01*
X220192995Y-72484864D02*
X219659661Y-72484864D01*
X219392995Y-72484864D02*
X219431090Y-72522960D01*
X219431090Y-72522960D02*
X219469185Y-72484864D01*
X219469185Y-72484864D02*
X219431090Y-72446769D01*
X219431090Y-72446769D02*
X219392995Y-72484864D01*
X219392995Y-72484864D02*
X219469185Y-72484864D01*
X219659661Y-72103912D02*
X220192995Y-72103912D01*
X219735852Y-72103912D02*
X219697757Y-72065817D01*
X219697757Y-72065817D02*
X219659661Y-71989627D01*
X219659661Y-71989627D02*
X219659661Y-71875341D01*
X219659661Y-71875341D02*
X219697757Y-71799150D01*
X219697757Y-71799150D02*
X219773947Y-71761055D01*
X219773947Y-71761055D02*
X220192995Y-71761055D01*
X219659661Y-71037245D02*
X220307280Y-71037245D01*
X220307280Y-71037245D02*
X220383471Y-71075340D01*
X220383471Y-71075340D02*
X220421566Y-71113436D01*
X220421566Y-71113436D02*
X220459661Y-71189626D01*
X220459661Y-71189626D02*
X220459661Y-71303912D01*
X220459661Y-71303912D02*
X220421566Y-71380102D01*
X220154900Y-71037245D02*
X220192995Y-71113436D01*
X220192995Y-71113436D02*
X220192995Y-71265817D01*
X220192995Y-71265817D02*
X220154900Y-71342007D01*
X220154900Y-71342007D02*
X220116804Y-71380102D01*
X220116804Y-71380102D02*
X220040614Y-71418198D01*
X220040614Y-71418198D02*
X219812042Y-71418198D01*
X219812042Y-71418198D02*
X219735852Y-71380102D01*
X219735852Y-71380102D02*
X219697757Y-71342007D01*
X219697757Y-71342007D02*
X219659661Y-71265817D01*
X219659661Y-71265817D02*
X219659661Y-71113436D01*
X219659661Y-71113436D02*
X219697757Y-71037245D01*
X219773947Y-70389626D02*
X219812042Y-70275340D01*
X219812042Y-70275340D02*
X219850138Y-70237245D01*
X219850138Y-70237245D02*
X219926328Y-70199149D01*
X219926328Y-70199149D02*
X220040614Y-70199149D01*
X220040614Y-70199149D02*
X220116804Y-70237245D01*
X220116804Y-70237245D02*
X220154900Y-70275340D01*
X220154900Y-70275340D02*
X220192995Y-70351530D01*
X220192995Y-70351530D02*
X220192995Y-70656292D01*
X220192995Y-70656292D02*
X219392995Y-70656292D01*
X219392995Y-70656292D02*
X219392995Y-70389626D01*
X219392995Y-70389626D02*
X219431090Y-70313435D01*
X219431090Y-70313435D02*
X219469185Y-70275340D01*
X219469185Y-70275340D02*
X219545376Y-70237245D01*
X219545376Y-70237245D02*
X219621566Y-70237245D01*
X219621566Y-70237245D02*
X219697757Y-70275340D01*
X219697757Y-70275340D02*
X219735852Y-70313435D01*
X219735852Y-70313435D02*
X219773947Y-70389626D01*
X219773947Y-70389626D02*
X219773947Y-70656292D01*
X219659661Y-69513435D02*
X220192995Y-69513435D01*
X219659661Y-69856292D02*
X220078709Y-69856292D01*
X220078709Y-69856292D02*
X220154900Y-69818197D01*
X220154900Y-69818197D02*
X220192995Y-69742007D01*
X220192995Y-69742007D02*
X220192995Y-69627721D01*
X220192995Y-69627721D02*
X220154900Y-69551530D01*
X220154900Y-69551530D02*
X220116804Y-69513435D01*
X219659661Y-69246768D02*
X219659661Y-68942006D01*
X219392995Y-69132482D02*
X220078709Y-69132482D01*
X220078709Y-69132482D02*
X220154900Y-69094387D01*
X220154900Y-69094387D02*
X220192995Y-69018197D01*
X220192995Y-69018197D02*
X220192995Y-68942006D01*
X219659661Y-68789625D02*
X219659661Y-68484863D01*
X219392995Y-68675339D02*
X220078709Y-68675339D01*
X220078709Y-68675339D02*
X220154900Y-68637244D01*
X220154900Y-68637244D02*
X220192995Y-68561054D01*
X220192995Y-68561054D02*
X220192995Y-68484863D01*
X220192995Y-68103911D02*
X220154900Y-68180101D01*
X220154900Y-68180101D02*
X220116804Y-68218196D01*
X220116804Y-68218196D02*
X220040614Y-68256292D01*
X220040614Y-68256292D02*
X219812042Y-68256292D01*
X219812042Y-68256292D02*
X219735852Y-68218196D01*
X219735852Y-68218196D02*
X219697757Y-68180101D01*
X219697757Y-68180101D02*
X219659661Y-68103911D01*
X219659661Y-68103911D02*
X219659661Y-67989625D01*
X219659661Y-67989625D02*
X219697757Y-67913434D01*
X219697757Y-67913434D02*
X219735852Y-67875339D01*
X219735852Y-67875339D02*
X219812042Y-67837244D01*
X219812042Y-67837244D02*
X220040614Y-67837244D01*
X220040614Y-67837244D02*
X220116804Y-67875339D01*
X220116804Y-67875339D02*
X220154900Y-67913434D01*
X220154900Y-67913434D02*
X220192995Y-67989625D01*
X220192995Y-67989625D02*
X220192995Y-68103911D01*
X219659661Y-67494386D02*
X220192995Y-67494386D01*
X219735852Y-67494386D02*
X219697757Y-67456291D01*
X219697757Y-67456291D02*
X219659661Y-67380101D01*
X219659661Y-67380101D02*
X219659661Y-67265815D01*
X219659661Y-67265815D02*
X219697757Y-67189624D01*
X219697757Y-67189624D02*
X219773947Y-67151529D01*
X219773947Y-67151529D02*
X220192995Y-67151529D01*
X219773947Y-66503910D02*
X219812042Y-66389624D01*
X219812042Y-66389624D02*
X219850138Y-66351529D01*
X219850138Y-66351529D02*
X219926328Y-66313433D01*
X219926328Y-66313433D02*
X220040614Y-66313433D01*
X220040614Y-66313433D02*
X220116804Y-66351529D01*
X220116804Y-66351529D02*
X220154900Y-66389624D01*
X220154900Y-66389624D02*
X220192995Y-66465814D01*
X220192995Y-66465814D02*
X220192995Y-66770576D01*
X220192995Y-66770576D02*
X219392995Y-66770576D01*
X219392995Y-66770576D02*
X219392995Y-66503910D01*
X219392995Y-66503910D02*
X219431090Y-66427719D01*
X219431090Y-66427719D02*
X219469185Y-66389624D01*
X219469185Y-66389624D02*
X219545376Y-66351529D01*
X219545376Y-66351529D02*
X219621566Y-66351529D01*
X219621566Y-66351529D02*
X219697757Y-66389624D01*
X219697757Y-66389624D02*
X219735852Y-66427719D01*
X219735852Y-66427719D02*
X219773947Y-66503910D01*
X219773947Y-66503910D02*
X219773947Y-66770576D01*
X220192995Y-65856291D02*
X220154900Y-65932481D01*
X220154900Y-65932481D02*
X220116804Y-65970576D01*
X220116804Y-65970576D02*
X220040614Y-66008672D01*
X220040614Y-66008672D02*
X219812042Y-66008672D01*
X219812042Y-66008672D02*
X219735852Y-65970576D01*
X219735852Y-65970576D02*
X219697757Y-65932481D01*
X219697757Y-65932481D02*
X219659661Y-65856291D01*
X219659661Y-65856291D02*
X219659661Y-65742005D01*
X219659661Y-65742005D02*
X219697757Y-65665814D01*
X219697757Y-65665814D02*
X219735852Y-65627719D01*
X219735852Y-65627719D02*
X219812042Y-65589624D01*
X219812042Y-65589624D02*
X220040614Y-65589624D01*
X220040614Y-65589624D02*
X220116804Y-65627719D01*
X220116804Y-65627719D02*
X220154900Y-65665814D01*
X220154900Y-65665814D02*
X220192995Y-65742005D01*
X220192995Y-65742005D02*
X220192995Y-65856291D01*
X220192995Y-65322957D02*
X219659661Y-64903909D01*
X219659661Y-65322957D02*
X220192995Y-64903909D01*
D11*
X239066667Y-69506104D02*
X239028571Y-69544200D01*
X239028571Y-69544200D02*
X238914286Y-69582295D01*
X238914286Y-69582295D02*
X238838095Y-69582295D01*
X238838095Y-69582295D02*
X238723809Y-69544200D01*
X238723809Y-69544200D02*
X238647619Y-69468009D01*
X238647619Y-69468009D02*
X238609524Y-69391819D01*
X238609524Y-69391819D02*
X238571428Y-69239438D01*
X238571428Y-69239438D02*
X238571428Y-69125152D01*
X238571428Y-69125152D02*
X238609524Y-68972771D01*
X238609524Y-68972771D02*
X238647619Y-68896580D01*
X238647619Y-68896580D02*
X238723809Y-68820390D01*
X238723809Y-68820390D02*
X238838095Y-68782295D01*
X238838095Y-68782295D02*
X238914286Y-68782295D01*
X238914286Y-68782295D02*
X239028571Y-68820390D01*
X239028571Y-68820390D02*
X239066667Y-68858485D01*
X239333333Y-68782295D02*
X239828571Y-68782295D01*
X239828571Y-68782295D02*
X239561905Y-69087057D01*
X239561905Y-69087057D02*
X239676190Y-69087057D01*
X239676190Y-69087057D02*
X239752381Y-69125152D01*
X239752381Y-69125152D02*
X239790476Y-69163247D01*
X239790476Y-69163247D02*
X239828571Y-69239438D01*
X239828571Y-69239438D02*
X239828571Y-69429914D01*
X239828571Y-69429914D02*
X239790476Y-69506104D01*
X239790476Y-69506104D02*
X239752381Y-69544200D01*
X239752381Y-69544200D02*
X239676190Y-69582295D01*
X239676190Y-69582295D02*
X239447619Y-69582295D01*
X239447619Y-69582295D02*
X239371428Y-69544200D01*
X239371428Y-69544200D02*
X239333333Y-69506104D01*
X253988095Y-86054819D02*
X253988095Y-86769104D01*
X253988095Y-86769104D02*
X253940476Y-86911961D01*
X253940476Y-86911961D02*
X253845238Y-87007200D01*
X253845238Y-87007200D02*
X253702381Y-87054819D01*
X253702381Y-87054819D02*
X253607143Y-87054819D01*
X254988095Y-87054819D02*
X254416667Y-87054819D01*
X254702381Y-87054819D02*
X254702381Y-86054819D01*
X254702381Y-86054819D02*
X254607143Y-86197676D01*
X254607143Y-86197676D02*
X254511905Y-86292914D01*
X254511905Y-86292914D02*
X254416667Y-86340533D01*
X255416667Y-86959580D02*
X255464286Y-87007200D01*
X255464286Y-87007200D02*
X255416667Y-87054819D01*
X255416667Y-87054819D02*
X255369048Y-87007200D01*
X255369048Y-87007200D02*
X255416667Y-86959580D01*
X255416667Y-86959580D02*
X255416667Y-87054819D01*
X256416666Y-87054819D02*
X255845238Y-87054819D01*
X256130952Y-87054819D02*
X256130952Y-86054819D01*
X256130952Y-86054819D02*
X256035714Y-86197676D01*
X256035714Y-86197676D02*
X255940476Y-86292914D01*
X255940476Y-86292914D02*
X255845238Y-86340533D01*
X256845238Y-86959580D02*
X256892857Y-87007200D01*
X256892857Y-87007200D02*
X256845238Y-87054819D01*
X256845238Y-87054819D02*
X256797619Y-87007200D01*
X256797619Y-87007200D02*
X256845238Y-86959580D01*
X256845238Y-86959580D02*
X256845238Y-87054819D01*
X257226190Y-86054819D02*
X257845237Y-86054819D01*
X257845237Y-86054819D02*
X257511904Y-86435771D01*
X257511904Y-86435771D02*
X257654761Y-86435771D01*
X257654761Y-86435771D02*
X257749999Y-86483390D01*
X257749999Y-86483390D02*
X257797618Y-86531009D01*
X257797618Y-86531009D02*
X257845237Y-86626247D01*
X257845237Y-86626247D02*
X257845237Y-86864342D01*
X257845237Y-86864342D02*
X257797618Y-86959580D01*
X257797618Y-86959580D02*
X257749999Y-87007200D01*
X257749999Y-87007200D02*
X257654761Y-87054819D01*
X257654761Y-87054819D02*
X257369047Y-87054819D01*
X257369047Y-87054819D02*
X257273809Y-87007200D01*
X257273809Y-87007200D02*
X257226190Y-86959580D01*
X258993247Y-91471429D02*
X259031342Y-91357143D01*
X259031342Y-91357143D02*
X259069438Y-91319048D01*
X259069438Y-91319048D02*
X259145628Y-91280952D01*
X259145628Y-91280952D02*
X259259914Y-91280952D01*
X259259914Y-91280952D02*
X259336104Y-91319048D01*
X259336104Y-91319048D02*
X259374200Y-91357143D01*
X259374200Y-91357143D02*
X259412295Y-91433333D01*
X259412295Y-91433333D02*
X259412295Y-91738095D01*
X259412295Y-91738095D02*
X258612295Y-91738095D01*
X258612295Y-91738095D02*
X258612295Y-91471429D01*
X258612295Y-91471429D02*
X258650390Y-91395238D01*
X258650390Y-91395238D02*
X258688485Y-91357143D01*
X258688485Y-91357143D02*
X258764676Y-91319048D01*
X258764676Y-91319048D02*
X258840866Y-91319048D01*
X258840866Y-91319048D02*
X258917057Y-91357143D01*
X258917057Y-91357143D02*
X258955152Y-91395238D01*
X258955152Y-91395238D02*
X258993247Y-91471429D01*
X258993247Y-91471429D02*
X258993247Y-91738095D01*
X258878961Y-90595238D02*
X259412295Y-90595238D01*
X258878961Y-90938095D02*
X259298009Y-90938095D01*
X259298009Y-90938095D02*
X259374200Y-90900000D01*
X259374200Y-90900000D02*
X259412295Y-90823810D01*
X259412295Y-90823810D02*
X259412295Y-90709524D01*
X259412295Y-90709524D02*
X259374200Y-90633333D01*
X259374200Y-90633333D02*
X259336104Y-90595238D01*
X258878961Y-90328571D02*
X258878961Y-90023809D01*
X258612295Y-90214285D02*
X259298009Y-90214285D01*
X259298009Y-90214285D02*
X259374200Y-90176190D01*
X259374200Y-90176190D02*
X259412295Y-90100000D01*
X259412295Y-90100000D02*
X259412295Y-90023809D01*
X258878961Y-89871428D02*
X258878961Y-89566666D01*
X258612295Y-89757142D02*
X259298009Y-89757142D01*
X259298009Y-89757142D02*
X259374200Y-89719047D01*
X259374200Y-89719047D02*
X259412295Y-89642857D01*
X259412295Y-89642857D02*
X259412295Y-89566666D01*
X259412295Y-89185714D02*
X259374200Y-89261904D01*
X259374200Y-89261904D02*
X259336104Y-89299999D01*
X259336104Y-89299999D02*
X259259914Y-89338095D01*
X259259914Y-89338095D02*
X259031342Y-89338095D01*
X259031342Y-89338095D02*
X258955152Y-89299999D01*
X258955152Y-89299999D02*
X258917057Y-89261904D01*
X258917057Y-89261904D02*
X258878961Y-89185714D01*
X258878961Y-89185714D02*
X258878961Y-89071428D01*
X258878961Y-89071428D02*
X258917057Y-88995237D01*
X258917057Y-88995237D02*
X258955152Y-88957142D01*
X258955152Y-88957142D02*
X259031342Y-88919047D01*
X259031342Y-88919047D02*
X259259914Y-88919047D01*
X259259914Y-88919047D02*
X259336104Y-88957142D01*
X259336104Y-88957142D02*
X259374200Y-88995237D01*
X259374200Y-88995237D02*
X259412295Y-89071428D01*
X259412295Y-89071428D02*
X259412295Y-89185714D01*
X258878961Y-88576189D02*
X259412295Y-88576189D01*
X258955152Y-88576189D02*
X258917057Y-88538094D01*
X258917057Y-88538094D02*
X258878961Y-88461904D01*
X258878961Y-88461904D02*
X258878961Y-88347618D01*
X258878961Y-88347618D02*
X258917057Y-88271427D01*
X258917057Y-88271427D02*
X258993247Y-88233332D01*
X258993247Y-88233332D02*
X259412295Y-88233332D01*
X258612295Y-86861903D02*
X258612295Y-87242855D01*
X258612295Y-87242855D02*
X258993247Y-87280951D01*
X258993247Y-87280951D02*
X258955152Y-87242855D01*
X258955152Y-87242855D02*
X258917057Y-87166665D01*
X258917057Y-87166665D02*
X258917057Y-86976189D01*
X258917057Y-86976189D02*
X258955152Y-86899998D01*
X258955152Y-86899998D02*
X258993247Y-86861903D01*
X258993247Y-86861903D02*
X259069438Y-86823808D01*
X259069438Y-86823808D02*
X259259914Y-86823808D01*
X259259914Y-86823808D02*
X259336104Y-86861903D01*
X259336104Y-86861903D02*
X259374200Y-86899998D01*
X259374200Y-86899998D02*
X259412295Y-86976189D01*
X259412295Y-86976189D02*
X259412295Y-87166665D01*
X259412295Y-87166665D02*
X259374200Y-87242855D01*
X259374200Y-87242855D02*
X259336104Y-87280951D01*
X253988095Y-43754819D02*
X253988095Y-44469104D01*
X253988095Y-44469104D02*
X253940476Y-44611961D01*
X253940476Y-44611961D02*
X253845238Y-44707200D01*
X253845238Y-44707200D02*
X253702381Y-44754819D01*
X253702381Y-44754819D02*
X253607143Y-44754819D01*
X254988095Y-44754819D02*
X254416667Y-44754819D01*
X254702381Y-44754819D02*
X254702381Y-43754819D01*
X254702381Y-43754819D02*
X254607143Y-43897676D01*
X254607143Y-43897676D02*
X254511905Y-43992914D01*
X254511905Y-43992914D02*
X254416667Y-44040533D01*
X255416667Y-44659580D02*
X255464286Y-44707200D01*
X255464286Y-44707200D02*
X255416667Y-44754819D01*
X255416667Y-44754819D02*
X255369048Y-44707200D01*
X255369048Y-44707200D02*
X255416667Y-44659580D01*
X255416667Y-44659580D02*
X255416667Y-44754819D01*
X256416666Y-44754819D02*
X255845238Y-44754819D01*
X256130952Y-44754819D02*
X256130952Y-43754819D01*
X256130952Y-43754819D02*
X256035714Y-43897676D01*
X256035714Y-43897676D02*
X255940476Y-43992914D01*
X255940476Y-43992914D02*
X255845238Y-44040533D01*
X256845238Y-44659580D02*
X256892857Y-44707200D01*
X256892857Y-44707200D02*
X256845238Y-44754819D01*
X256845238Y-44754819D02*
X256797619Y-44707200D01*
X256797619Y-44707200D02*
X256845238Y-44659580D01*
X256845238Y-44659580D02*
X256845238Y-44754819D01*
X257845237Y-44754819D02*
X257273809Y-44754819D01*
X257559523Y-44754819D02*
X257559523Y-43754819D01*
X257559523Y-43754819D02*
X257464285Y-43897676D01*
X257464285Y-43897676D02*
X257369047Y-43992914D01*
X257369047Y-43992914D02*
X257273809Y-44040533D01*
X258993247Y-49171429D02*
X259031342Y-49057143D01*
X259031342Y-49057143D02*
X259069438Y-49019048D01*
X259069438Y-49019048D02*
X259145628Y-48980952D01*
X259145628Y-48980952D02*
X259259914Y-48980952D01*
X259259914Y-48980952D02*
X259336104Y-49019048D01*
X259336104Y-49019048D02*
X259374200Y-49057143D01*
X259374200Y-49057143D02*
X259412295Y-49133333D01*
X259412295Y-49133333D02*
X259412295Y-49438095D01*
X259412295Y-49438095D02*
X258612295Y-49438095D01*
X258612295Y-49438095D02*
X258612295Y-49171429D01*
X258612295Y-49171429D02*
X258650390Y-49095238D01*
X258650390Y-49095238D02*
X258688485Y-49057143D01*
X258688485Y-49057143D02*
X258764676Y-49019048D01*
X258764676Y-49019048D02*
X258840866Y-49019048D01*
X258840866Y-49019048D02*
X258917057Y-49057143D01*
X258917057Y-49057143D02*
X258955152Y-49095238D01*
X258955152Y-49095238D02*
X258993247Y-49171429D01*
X258993247Y-49171429D02*
X258993247Y-49438095D01*
X258878961Y-48295238D02*
X259412295Y-48295238D01*
X258878961Y-48638095D02*
X259298009Y-48638095D01*
X259298009Y-48638095D02*
X259374200Y-48600000D01*
X259374200Y-48600000D02*
X259412295Y-48523810D01*
X259412295Y-48523810D02*
X259412295Y-48409524D01*
X259412295Y-48409524D02*
X259374200Y-48333333D01*
X259374200Y-48333333D02*
X259336104Y-48295238D01*
X258878961Y-48028571D02*
X258878961Y-47723809D01*
X258612295Y-47914285D02*
X259298009Y-47914285D01*
X259298009Y-47914285D02*
X259374200Y-47876190D01*
X259374200Y-47876190D02*
X259412295Y-47800000D01*
X259412295Y-47800000D02*
X259412295Y-47723809D01*
X258878961Y-47571428D02*
X258878961Y-47266666D01*
X258612295Y-47457142D02*
X259298009Y-47457142D01*
X259298009Y-47457142D02*
X259374200Y-47419047D01*
X259374200Y-47419047D02*
X259412295Y-47342857D01*
X259412295Y-47342857D02*
X259412295Y-47266666D01*
X259412295Y-46885714D02*
X259374200Y-46961904D01*
X259374200Y-46961904D02*
X259336104Y-46999999D01*
X259336104Y-46999999D02*
X259259914Y-47038095D01*
X259259914Y-47038095D02*
X259031342Y-47038095D01*
X259031342Y-47038095D02*
X258955152Y-46999999D01*
X258955152Y-46999999D02*
X258917057Y-46961904D01*
X258917057Y-46961904D02*
X258878961Y-46885714D01*
X258878961Y-46885714D02*
X258878961Y-46771428D01*
X258878961Y-46771428D02*
X258917057Y-46695237D01*
X258917057Y-46695237D02*
X258955152Y-46657142D01*
X258955152Y-46657142D02*
X259031342Y-46619047D01*
X259031342Y-46619047D02*
X259259914Y-46619047D01*
X259259914Y-46619047D02*
X259336104Y-46657142D01*
X259336104Y-46657142D02*
X259374200Y-46695237D01*
X259374200Y-46695237D02*
X259412295Y-46771428D01*
X259412295Y-46771428D02*
X259412295Y-46885714D01*
X258878961Y-46276189D02*
X259412295Y-46276189D01*
X258955152Y-46276189D02*
X258917057Y-46238094D01*
X258917057Y-46238094D02*
X258878961Y-46161904D01*
X258878961Y-46161904D02*
X258878961Y-46047618D01*
X258878961Y-46047618D02*
X258917057Y-45971427D01*
X258917057Y-45971427D02*
X258993247Y-45933332D01*
X258993247Y-45933332D02*
X259412295Y-45933332D01*
X259412295Y-44523808D02*
X259412295Y-44980951D01*
X259412295Y-44752379D02*
X258612295Y-44752379D01*
X258612295Y-44752379D02*
X258726580Y-44828570D01*
X258726580Y-44828570D02*
X258802771Y-44904760D01*
X258802771Y-44904760D02*
X258840866Y-44980951D01*
X228352381Y-87554819D02*
X228352381Y-88269104D01*
X228352381Y-88269104D02*
X228304762Y-88411961D01*
X228304762Y-88411961D02*
X228209524Y-88507200D01*
X228209524Y-88507200D02*
X228066667Y-88554819D01*
X228066667Y-88554819D02*
X227971429Y-88554819D01*
X229352381Y-88554819D02*
X228780953Y-88554819D01*
X229066667Y-88554819D02*
X229066667Y-87554819D01*
X229066667Y-87554819D02*
X228971429Y-87697676D01*
X228971429Y-87697676D02*
X228876191Y-87792914D01*
X228876191Y-87792914D02*
X228780953Y-87840533D01*
X229780953Y-88459580D02*
X229828572Y-88507200D01*
X229828572Y-88507200D02*
X229780953Y-88554819D01*
X229780953Y-88554819D02*
X229733334Y-88507200D01*
X229733334Y-88507200D02*
X229780953Y-88459580D01*
X229780953Y-88459580D02*
X229780953Y-88554819D01*
X230161905Y-87554819D02*
X230780952Y-87554819D01*
X230780952Y-87554819D02*
X230447619Y-87935771D01*
X230447619Y-87935771D02*
X230590476Y-87935771D01*
X230590476Y-87935771D02*
X230685714Y-87983390D01*
X230685714Y-87983390D02*
X230733333Y-88031009D01*
X230733333Y-88031009D02*
X230780952Y-88126247D01*
X230780952Y-88126247D02*
X230780952Y-88364342D01*
X230780952Y-88364342D02*
X230733333Y-88459580D01*
X230733333Y-88459580D02*
X230685714Y-88507200D01*
X230685714Y-88507200D02*
X230590476Y-88554819D01*
X230590476Y-88554819D02*
X230304762Y-88554819D01*
X230304762Y-88554819D02*
X230209524Y-88507200D01*
X230209524Y-88507200D02*
X230161905Y-88459580D01*
X221190475Y-94238485D02*
X221228571Y-94200390D01*
X221228571Y-94200390D02*
X221304761Y-94162295D01*
X221304761Y-94162295D02*
X221495237Y-94162295D01*
X221495237Y-94162295D02*
X221571428Y-94200390D01*
X221571428Y-94200390D02*
X221609523Y-94238485D01*
X221609523Y-94238485D02*
X221647618Y-94314676D01*
X221647618Y-94314676D02*
X221647618Y-94390866D01*
X221647618Y-94390866D02*
X221609523Y-94505152D01*
X221609523Y-94505152D02*
X221152380Y-94962295D01*
X221152380Y-94962295D02*
X221647618Y-94962295D01*
X221914285Y-94162295D02*
X222447619Y-94962295D01*
X222447619Y-94162295D02*
X221914285Y-94962295D01*
X222714285Y-94238485D02*
X222752381Y-94200390D01*
X222752381Y-94200390D02*
X222828571Y-94162295D01*
X222828571Y-94162295D02*
X223019047Y-94162295D01*
X223019047Y-94162295D02*
X223095238Y-94200390D01*
X223095238Y-94200390D02*
X223133333Y-94238485D01*
X223133333Y-94238485D02*
X223171428Y-94314676D01*
X223171428Y-94314676D02*
X223171428Y-94390866D01*
X223171428Y-94390866D02*
X223133333Y-94505152D01*
X223133333Y-94505152D02*
X222676190Y-94962295D01*
X222676190Y-94962295D02*
X223171428Y-94962295D01*
X224123810Y-94962295D02*
X224123810Y-94162295D01*
X224123810Y-94162295D02*
X224390476Y-94733723D01*
X224390476Y-94733723D02*
X224657143Y-94162295D01*
X224657143Y-94162295D02*
X224657143Y-94962295D01*
X225380953Y-94962295D02*
X225380953Y-94543247D01*
X225380953Y-94543247D02*
X225342858Y-94467057D01*
X225342858Y-94467057D02*
X225266667Y-94428961D01*
X225266667Y-94428961D02*
X225114286Y-94428961D01*
X225114286Y-94428961D02*
X225038096Y-94467057D01*
X225380953Y-94924200D02*
X225304762Y-94962295D01*
X225304762Y-94962295D02*
X225114286Y-94962295D01*
X225114286Y-94962295D02*
X225038096Y-94924200D01*
X225038096Y-94924200D02*
X225000000Y-94848009D01*
X225000000Y-94848009D02*
X225000000Y-94771819D01*
X225000000Y-94771819D02*
X225038096Y-94695628D01*
X225038096Y-94695628D02*
X225114286Y-94657533D01*
X225114286Y-94657533D02*
X225304762Y-94657533D01*
X225304762Y-94657533D02*
X225380953Y-94619438D01*
X225647620Y-94428961D02*
X225952382Y-94428961D01*
X225761906Y-94162295D02*
X225761906Y-94848009D01*
X225761906Y-94848009D02*
X225800001Y-94924200D01*
X225800001Y-94924200D02*
X225876191Y-94962295D01*
X225876191Y-94962295D02*
X225952382Y-94962295D01*
X226219049Y-94962295D02*
X226219049Y-94428961D01*
X226219049Y-94581342D02*
X226257144Y-94505152D01*
X226257144Y-94505152D02*
X226295239Y-94467057D01*
X226295239Y-94467057D02*
X226371430Y-94428961D01*
X226371430Y-94428961D02*
X226447620Y-94428961D01*
X226714287Y-94962295D02*
X226714287Y-94428961D01*
X226714287Y-94162295D02*
X226676191Y-94200390D01*
X226676191Y-94200390D02*
X226714287Y-94238485D01*
X226714287Y-94238485D02*
X226752382Y-94200390D01*
X226752382Y-94200390D02*
X226714287Y-94162295D01*
X226714287Y-94162295D02*
X226714287Y-94238485D01*
X227019048Y-94962295D02*
X227438096Y-94428961D01*
X227019048Y-94428961D02*
X227438096Y-94962295D01*
X228809525Y-94886104D02*
X228771429Y-94924200D01*
X228771429Y-94924200D02*
X228657144Y-94962295D01*
X228657144Y-94962295D02*
X228580953Y-94962295D01*
X228580953Y-94962295D02*
X228466667Y-94924200D01*
X228466667Y-94924200D02*
X228390477Y-94848009D01*
X228390477Y-94848009D02*
X228352382Y-94771819D01*
X228352382Y-94771819D02*
X228314286Y-94619438D01*
X228314286Y-94619438D02*
X228314286Y-94505152D01*
X228314286Y-94505152D02*
X228352382Y-94352771D01*
X228352382Y-94352771D02*
X228390477Y-94276580D01*
X228390477Y-94276580D02*
X228466667Y-94200390D01*
X228466667Y-94200390D02*
X228580953Y-94162295D01*
X228580953Y-94162295D02*
X228657144Y-94162295D01*
X228657144Y-94162295D02*
X228771429Y-94200390D01*
X228771429Y-94200390D02*
X228809525Y-94238485D01*
X221466667Y-78386104D02*
X221428571Y-78424200D01*
X221428571Y-78424200D02*
X221314286Y-78462295D01*
X221314286Y-78462295D02*
X221238095Y-78462295D01*
X221238095Y-78462295D02*
X221123809Y-78424200D01*
X221123809Y-78424200D02*
X221047619Y-78348009D01*
X221047619Y-78348009D02*
X221009524Y-78271819D01*
X221009524Y-78271819D02*
X220971428Y-78119438D01*
X220971428Y-78119438D02*
X220971428Y-78005152D01*
X220971428Y-78005152D02*
X221009524Y-77852771D01*
X221009524Y-77852771D02*
X221047619Y-77776580D01*
X221047619Y-77776580D02*
X221123809Y-77700390D01*
X221123809Y-77700390D02*
X221238095Y-77662295D01*
X221238095Y-77662295D02*
X221314286Y-77662295D01*
X221314286Y-77662295D02*
X221428571Y-77700390D01*
X221428571Y-77700390D02*
X221466667Y-77738485D01*
X221771428Y-77738485D02*
X221809524Y-77700390D01*
X221809524Y-77700390D02*
X221885714Y-77662295D01*
X221885714Y-77662295D02*
X222076190Y-77662295D01*
X222076190Y-77662295D02*
X222152381Y-77700390D01*
X222152381Y-77700390D02*
X222190476Y-77738485D01*
X222190476Y-77738485D02*
X222228571Y-77814676D01*
X222228571Y-77814676D02*
X222228571Y-77890866D01*
X222228571Y-77890866D02*
X222190476Y-78005152D01*
X222190476Y-78005152D02*
X221733333Y-78462295D01*
X221733333Y-78462295D02*
X222228571Y-78462295D01*
X212588095Y-43754819D02*
X212588095Y-44469104D01*
X212588095Y-44469104D02*
X212540476Y-44611961D01*
X212540476Y-44611961D02*
X212445238Y-44707200D01*
X212445238Y-44707200D02*
X212302381Y-44754819D01*
X212302381Y-44754819D02*
X212207143Y-44754819D01*
X213588095Y-44754819D02*
X213016667Y-44754819D01*
X213302381Y-44754819D02*
X213302381Y-43754819D01*
X213302381Y-43754819D02*
X213207143Y-43897676D01*
X213207143Y-43897676D02*
X213111905Y-43992914D01*
X213111905Y-43992914D02*
X213016667Y-44040533D01*
X214016667Y-44659580D02*
X214064286Y-44707200D01*
X214064286Y-44707200D02*
X214016667Y-44754819D01*
X214016667Y-44754819D02*
X213969048Y-44707200D01*
X213969048Y-44707200D02*
X214016667Y-44659580D01*
X214016667Y-44659580D02*
X214016667Y-44754819D01*
X215016666Y-44754819D02*
X214445238Y-44754819D01*
X214730952Y-44754819D02*
X214730952Y-43754819D01*
X214730952Y-43754819D02*
X214635714Y-43897676D01*
X214635714Y-43897676D02*
X214540476Y-43992914D01*
X214540476Y-43992914D02*
X214445238Y-44040533D01*
X215445238Y-44659580D02*
X215492857Y-44707200D01*
X215492857Y-44707200D02*
X215445238Y-44754819D01*
X215445238Y-44754819D02*
X215397619Y-44707200D01*
X215397619Y-44707200D02*
X215445238Y-44659580D01*
X215445238Y-44659580D02*
X215445238Y-44754819D01*
X215873809Y-43850057D02*
X215921428Y-43802438D01*
X215921428Y-43802438D02*
X216016666Y-43754819D01*
X216016666Y-43754819D02*
X216254761Y-43754819D01*
X216254761Y-43754819D02*
X216349999Y-43802438D01*
X216349999Y-43802438D02*
X216397618Y-43850057D01*
X216397618Y-43850057D02*
X216445237Y-43945295D01*
X216445237Y-43945295D02*
X216445237Y-44040533D01*
X216445237Y-44040533D02*
X216397618Y-44183390D01*
X216397618Y-44183390D02*
X215826190Y-44754819D01*
X215826190Y-44754819D02*
X216445237Y-44754819D01*
X210793247Y-49171429D02*
X210831342Y-49057143D01*
X210831342Y-49057143D02*
X210869438Y-49019048D01*
X210869438Y-49019048D02*
X210945628Y-48980952D01*
X210945628Y-48980952D02*
X211059914Y-48980952D01*
X211059914Y-48980952D02*
X211136104Y-49019048D01*
X211136104Y-49019048D02*
X211174200Y-49057143D01*
X211174200Y-49057143D02*
X211212295Y-49133333D01*
X211212295Y-49133333D02*
X211212295Y-49438095D01*
X211212295Y-49438095D02*
X210412295Y-49438095D01*
X210412295Y-49438095D02*
X210412295Y-49171429D01*
X210412295Y-49171429D02*
X210450390Y-49095238D01*
X210450390Y-49095238D02*
X210488485Y-49057143D01*
X210488485Y-49057143D02*
X210564676Y-49019048D01*
X210564676Y-49019048D02*
X210640866Y-49019048D01*
X210640866Y-49019048D02*
X210717057Y-49057143D01*
X210717057Y-49057143D02*
X210755152Y-49095238D01*
X210755152Y-49095238D02*
X210793247Y-49171429D01*
X210793247Y-49171429D02*
X210793247Y-49438095D01*
X210678961Y-48295238D02*
X211212295Y-48295238D01*
X210678961Y-48638095D02*
X211098009Y-48638095D01*
X211098009Y-48638095D02*
X211174200Y-48600000D01*
X211174200Y-48600000D02*
X211212295Y-48523810D01*
X211212295Y-48523810D02*
X211212295Y-48409524D01*
X211212295Y-48409524D02*
X211174200Y-48333333D01*
X211174200Y-48333333D02*
X211136104Y-48295238D01*
X210678961Y-48028571D02*
X210678961Y-47723809D01*
X210412295Y-47914285D02*
X211098009Y-47914285D01*
X211098009Y-47914285D02*
X211174200Y-47876190D01*
X211174200Y-47876190D02*
X211212295Y-47800000D01*
X211212295Y-47800000D02*
X211212295Y-47723809D01*
X210678961Y-47571428D02*
X210678961Y-47266666D01*
X210412295Y-47457142D02*
X211098009Y-47457142D01*
X211098009Y-47457142D02*
X211174200Y-47419047D01*
X211174200Y-47419047D02*
X211212295Y-47342857D01*
X211212295Y-47342857D02*
X211212295Y-47266666D01*
X211212295Y-46885714D02*
X211174200Y-46961904D01*
X211174200Y-46961904D02*
X211136104Y-46999999D01*
X211136104Y-46999999D02*
X211059914Y-47038095D01*
X211059914Y-47038095D02*
X210831342Y-47038095D01*
X210831342Y-47038095D02*
X210755152Y-46999999D01*
X210755152Y-46999999D02*
X210717057Y-46961904D01*
X210717057Y-46961904D02*
X210678961Y-46885714D01*
X210678961Y-46885714D02*
X210678961Y-46771428D01*
X210678961Y-46771428D02*
X210717057Y-46695237D01*
X210717057Y-46695237D02*
X210755152Y-46657142D01*
X210755152Y-46657142D02*
X210831342Y-46619047D01*
X210831342Y-46619047D02*
X211059914Y-46619047D01*
X211059914Y-46619047D02*
X211136104Y-46657142D01*
X211136104Y-46657142D02*
X211174200Y-46695237D01*
X211174200Y-46695237D02*
X211212295Y-46771428D01*
X211212295Y-46771428D02*
X211212295Y-46885714D01*
X210678961Y-46276189D02*
X211212295Y-46276189D01*
X210755152Y-46276189D02*
X210717057Y-46238094D01*
X210717057Y-46238094D02*
X210678961Y-46161904D01*
X210678961Y-46161904D02*
X210678961Y-46047618D01*
X210678961Y-46047618D02*
X210717057Y-45971427D01*
X210717057Y-45971427D02*
X210793247Y-45933332D01*
X210793247Y-45933332D02*
X211212295Y-45933332D01*
X210488485Y-44980951D02*
X210450390Y-44942855D01*
X210450390Y-44942855D02*
X210412295Y-44866665D01*
X210412295Y-44866665D02*
X210412295Y-44676189D01*
X210412295Y-44676189D02*
X210450390Y-44599998D01*
X210450390Y-44599998D02*
X210488485Y-44561903D01*
X210488485Y-44561903D02*
X210564676Y-44523808D01*
X210564676Y-44523808D02*
X210640866Y-44523808D01*
X210640866Y-44523808D02*
X210755152Y-44561903D01*
X210755152Y-44561903D02*
X211212295Y-45019046D01*
X211212295Y-45019046D02*
X211212295Y-44523808D01*
X221466667Y-71516104D02*
X221428571Y-71554200D01*
X221428571Y-71554200D02*
X221314286Y-71592295D01*
X221314286Y-71592295D02*
X221238095Y-71592295D01*
X221238095Y-71592295D02*
X221123809Y-71554200D01*
X221123809Y-71554200D02*
X221047619Y-71478009D01*
X221047619Y-71478009D02*
X221009524Y-71401819D01*
X221009524Y-71401819D02*
X220971428Y-71249438D01*
X220971428Y-71249438D02*
X220971428Y-71135152D01*
X220971428Y-71135152D02*
X221009524Y-70982771D01*
X221009524Y-70982771D02*
X221047619Y-70906580D01*
X221047619Y-70906580D02*
X221123809Y-70830390D01*
X221123809Y-70830390D02*
X221238095Y-70792295D01*
X221238095Y-70792295D02*
X221314286Y-70792295D01*
X221314286Y-70792295D02*
X221428571Y-70830390D01*
X221428571Y-70830390D02*
X221466667Y-70868485D01*
X222228571Y-71592295D02*
X221771428Y-71592295D01*
X222000000Y-71592295D02*
X222000000Y-70792295D01*
X222000000Y-70792295D02*
X221923809Y-70906580D01*
X221923809Y-70906580D02*
X221847619Y-70982771D01*
X221847619Y-70982771D02*
X221771428Y-71020866D01*
X248426666Y-50654819D02*
X248426666Y-51369104D01*
X248426666Y-51369104D02*
X248379047Y-51511961D01*
X248379047Y-51511961D02*
X248283809Y-51607200D01*
X248283809Y-51607200D02*
X248140952Y-51654819D01*
X248140952Y-51654819D02*
X248045714Y-51654819D01*
X249331428Y-50988152D02*
X249331428Y-51654819D01*
X249093333Y-50607200D02*
X248855238Y-51321485D01*
X248855238Y-51321485D02*
X249474285Y-51321485D01*
X257180952Y-66262295D02*
X256914285Y-65881342D01*
X256723809Y-66262295D02*
X256723809Y-65462295D01*
X256723809Y-65462295D02*
X257028571Y-65462295D01*
X257028571Y-65462295D02*
X257104761Y-65500390D01*
X257104761Y-65500390D02*
X257142856Y-65538485D01*
X257142856Y-65538485D02*
X257180952Y-65614676D01*
X257180952Y-65614676D02*
X257180952Y-65728961D01*
X257180952Y-65728961D02*
X257142856Y-65805152D01*
X257142856Y-65805152D02*
X257104761Y-65843247D01*
X257104761Y-65843247D02*
X257028571Y-65881342D01*
X257028571Y-65881342D02*
X256723809Y-65881342D01*
X257752380Y-65462295D02*
X257752380Y-66033723D01*
X257752380Y-66033723D02*
X257714285Y-66148009D01*
X257714285Y-66148009D02*
X257638094Y-66224200D01*
X257638094Y-66224200D02*
X257523809Y-66262295D01*
X257523809Y-66262295D02*
X257447618Y-66262295D01*
X258476190Y-65728961D02*
X258476190Y-66262295D01*
X258285714Y-65424200D02*
X258095237Y-65995628D01*
X258095237Y-65995628D02*
X258590476Y-65995628D01*
X259276190Y-65462295D02*
X258895238Y-65462295D01*
X258895238Y-65462295D02*
X258857142Y-65843247D01*
X258857142Y-65843247D02*
X258895238Y-65805152D01*
X258895238Y-65805152D02*
X258971428Y-65767057D01*
X258971428Y-65767057D02*
X259161904Y-65767057D01*
X259161904Y-65767057D02*
X259238095Y-65805152D01*
X259238095Y-65805152D02*
X259276190Y-65843247D01*
X259276190Y-65843247D02*
X259314285Y-65919438D01*
X259314285Y-65919438D02*
X259314285Y-66109914D01*
X259314285Y-66109914D02*
X259276190Y-66186104D01*
X259276190Y-66186104D02*
X259238095Y-66224200D01*
X259238095Y-66224200D02*
X259161904Y-66262295D01*
X259161904Y-66262295D02*
X258971428Y-66262295D01*
X258971428Y-66262295D02*
X258895238Y-66224200D01*
X258895238Y-66224200D02*
X258857142Y-66186104D01*
X212588095Y-63254819D02*
X212588095Y-63969104D01*
X212588095Y-63969104D02*
X212540476Y-64111961D01*
X212540476Y-64111961D02*
X212445238Y-64207200D01*
X212445238Y-64207200D02*
X212302381Y-64254819D01*
X212302381Y-64254819D02*
X212207143Y-64254819D01*
X213588095Y-64254819D02*
X213016667Y-64254819D01*
X213302381Y-64254819D02*
X213302381Y-63254819D01*
X213302381Y-63254819D02*
X213207143Y-63397676D01*
X213207143Y-63397676D02*
X213111905Y-63492914D01*
X213111905Y-63492914D02*
X213016667Y-63540533D01*
X214016667Y-64159580D02*
X214064286Y-64207200D01*
X214064286Y-64207200D02*
X214016667Y-64254819D01*
X214016667Y-64254819D02*
X213969048Y-64207200D01*
X213969048Y-64207200D02*
X214016667Y-64159580D01*
X214016667Y-64159580D02*
X214016667Y-64254819D01*
X214445238Y-63350057D02*
X214492857Y-63302438D01*
X214492857Y-63302438D02*
X214588095Y-63254819D01*
X214588095Y-63254819D02*
X214826190Y-63254819D01*
X214826190Y-63254819D02*
X214921428Y-63302438D01*
X214921428Y-63302438D02*
X214969047Y-63350057D01*
X214969047Y-63350057D02*
X215016666Y-63445295D01*
X215016666Y-63445295D02*
X215016666Y-63540533D01*
X215016666Y-63540533D02*
X214969047Y-63683390D01*
X214969047Y-63683390D02*
X214397619Y-64254819D01*
X214397619Y-64254819D02*
X215016666Y-64254819D01*
X215445238Y-64159580D02*
X215492857Y-64207200D01*
X215492857Y-64207200D02*
X215445238Y-64254819D01*
X215445238Y-64254819D02*
X215397619Y-64207200D01*
X215397619Y-64207200D02*
X215445238Y-64159580D01*
X215445238Y-64159580D02*
X215445238Y-64254819D01*
X215873809Y-63350057D02*
X215921428Y-63302438D01*
X215921428Y-63302438D02*
X216016666Y-63254819D01*
X216016666Y-63254819D02*
X216254761Y-63254819D01*
X216254761Y-63254819D02*
X216349999Y-63302438D01*
X216349999Y-63302438D02*
X216397618Y-63350057D01*
X216397618Y-63350057D02*
X216445237Y-63445295D01*
X216445237Y-63445295D02*
X216445237Y-63540533D01*
X216445237Y-63540533D02*
X216397618Y-63683390D01*
X216397618Y-63683390D02*
X215826190Y-64254819D01*
X215826190Y-64254819D02*
X216445237Y-64254819D01*
X210793247Y-68671429D02*
X210831342Y-68557143D01*
X210831342Y-68557143D02*
X210869438Y-68519048D01*
X210869438Y-68519048D02*
X210945628Y-68480952D01*
X210945628Y-68480952D02*
X211059914Y-68480952D01*
X211059914Y-68480952D02*
X211136104Y-68519048D01*
X211136104Y-68519048D02*
X211174200Y-68557143D01*
X211174200Y-68557143D02*
X211212295Y-68633333D01*
X211212295Y-68633333D02*
X211212295Y-68938095D01*
X211212295Y-68938095D02*
X210412295Y-68938095D01*
X210412295Y-68938095D02*
X210412295Y-68671429D01*
X210412295Y-68671429D02*
X210450390Y-68595238D01*
X210450390Y-68595238D02*
X210488485Y-68557143D01*
X210488485Y-68557143D02*
X210564676Y-68519048D01*
X210564676Y-68519048D02*
X210640866Y-68519048D01*
X210640866Y-68519048D02*
X210717057Y-68557143D01*
X210717057Y-68557143D02*
X210755152Y-68595238D01*
X210755152Y-68595238D02*
X210793247Y-68671429D01*
X210793247Y-68671429D02*
X210793247Y-68938095D01*
X210678961Y-67795238D02*
X211212295Y-67795238D01*
X210678961Y-68138095D02*
X211098009Y-68138095D01*
X211098009Y-68138095D02*
X211174200Y-68100000D01*
X211174200Y-68100000D02*
X211212295Y-68023810D01*
X211212295Y-68023810D02*
X211212295Y-67909524D01*
X211212295Y-67909524D02*
X211174200Y-67833333D01*
X211174200Y-67833333D02*
X211136104Y-67795238D01*
X210678961Y-67528571D02*
X210678961Y-67223809D01*
X210412295Y-67414285D02*
X211098009Y-67414285D01*
X211098009Y-67414285D02*
X211174200Y-67376190D01*
X211174200Y-67376190D02*
X211212295Y-67300000D01*
X211212295Y-67300000D02*
X211212295Y-67223809D01*
X210678961Y-67071428D02*
X210678961Y-66766666D01*
X210412295Y-66957142D02*
X211098009Y-66957142D01*
X211098009Y-66957142D02*
X211174200Y-66919047D01*
X211174200Y-66919047D02*
X211212295Y-66842857D01*
X211212295Y-66842857D02*
X211212295Y-66766666D01*
X211212295Y-66385714D02*
X211174200Y-66461904D01*
X211174200Y-66461904D02*
X211136104Y-66499999D01*
X211136104Y-66499999D02*
X211059914Y-66538095D01*
X211059914Y-66538095D02*
X210831342Y-66538095D01*
X210831342Y-66538095D02*
X210755152Y-66499999D01*
X210755152Y-66499999D02*
X210717057Y-66461904D01*
X210717057Y-66461904D02*
X210678961Y-66385714D01*
X210678961Y-66385714D02*
X210678961Y-66271428D01*
X210678961Y-66271428D02*
X210717057Y-66195237D01*
X210717057Y-66195237D02*
X210755152Y-66157142D01*
X210755152Y-66157142D02*
X210831342Y-66119047D01*
X210831342Y-66119047D02*
X211059914Y-66119047D01*
X211059914Y-66119047D02*
X211136104Y-66157142D01*
X211136104Y-66157142D02*
X211174200Y-66195237D01*
X211174200Y-66195237D02*
X211212295Y-66271428D01*
X211212295Y-66271428D02*
X211212295Y-66385714D01*
X210678961Y-65776189D02*
X211212295Y-65776189D01*
X210755152Y-65776189D02*
X210717057Y-65738094D01*
X210717057Y-65738094D02*
X210678961Y-65661904D01*
X210678961Y-65661904D02*
X210678961Y-65547618D01*
X210678961Y-65547618D02*
X210717057Y-65471427D01*
X210717057Y-65471427D02*
X210793247Y-65433332D01*
X210793247Y-65433332D02*
X211212295Y-65433332D01*
X210678961Y-64099998D02*
X211212295Y-64099998D01*
X210374200Y-64290474D02*
X210945628Y-64480951D01*
X210945628Y-64480951D02*
X210945628Y-63985712D01*
X226368095Y-52234819D02*
X226368095Y-53044342D01*
X226368095Y-53044342D02*
X226415714Y-53139580D01*
X226415714Y-53139580D02*
X226463333Y-53187200D01*
X226463333Y-53187200D02*
X226558571Y-53234819D01*
X226558571Y-53234819D02*
X226749047Y-53234819D01*
X226749047Y-53234819D02*
X226844285Y-53187200D01*
X226844285Y-53187200D02*
X226891904Y-53139580D01*
X226891904Y-53139580D02*
X226939523Y-53044342D01*
X226939523Y-53044342D02*
X226939523Y-52234819D01*
X227939523Y-53234819D02*
X227368095Y-53234819D01*
X227653809Y-53234819D02*
X227653809Y-52234819D01*
X227653809Y-52234819D02*
X227558571Y-52377676D01*
X227558571Y-52377676D02*
X227463333Y-52472914D01*
X227463333Y-52472914D02*
X227368095Y-52520533D01*
X227533723Y-68033334D02*
X227533723Y-67652381D01*
X227762295Y-68109524D02*
X226962295Y-67842857D01*
X226962295Y-67842857D02*
X227762295Y-67576191D01*
X226962295Y-67423810D02*
X226962295Y-66966667D01*
X227762295Y-67195239D02*
X226962295Y-67195239D01*
X227762295Y-66700000D02*
X227228961Y-66700000D01*
X227305152Y-66700000D02*
X227267057Y-66661905D01*
X227267057Y-66661905D02*
X227228961Y-66585715D01*
X227228961Y-66585715D02*
X227228961Y-66471429D01*
X227228961Y-66471429D02*
X227267057Y-66395238D01*
X227267057Y-66395238D02*
X227343247Y-66357143D01*
X227343247Y-66357143D02*
X227762295Y-66357143D01*
X227343247Y-66357143D02*
X227267057Y-66319048D01*
X227267057Y-66319048D02*
X227228961Y-66242857D01*
X227228961Y-66242857D02*
X227228961Y-66128572D01*
X227228961Y-66128572D02*
X227267057Y-66052381D01*
X227267057Y-66052381D02*
X227343247Y-66014286D01*
X227343247Y-66014286D02*
X227762295Y-66014286D01*
X227724200Y-65328571D02*
X227762295Y-65404762D01*
X227762295Y-65404762D02*
X227762295Y-65557143D01*
X227762295Y-65557143D02*
X227724200Y-65633333D01*
X227724200Y-65633333D02*
X227648009Y-65671429D01*
X227648009Y-65671429D02*
X227343247Y-65671429D01*
X227343247Y-65671429D02*
X227267057Y-65633333D01*
X227267057Y-65633333D02*
X227228961Y-65557143D01*
X227228961Y-65557143D02*
X227228961Y-65404762D01*
X227228961Y-65404762D02*
X227267057Y-65328571D01*
X227267057Y-65328571D02*
X227343247Y-65290476D01*
X227343247Y-65290476D02*
X227419438Y-65290476D01*
X227419438Y-65290476D02*
X227495628Y-65671429D01*
X227228961Y-64604762D02*
X227876580Y-64604762D01*
X227876580Y-64604762D02*
X227952771Y-64642857D01*
X227952771Y-64642857D02*
X227990866Y-64680953D01*
X227990866Y-64680953D02*
X228028961Y-64757143D01*
X228028961Y-64757143D02*
X228028961Y-64871429D01*
X228028961Y-64871429D02*
X227990866Y-64947619D01*
X227724200Y-64604762D02*
X227762295Y-64680953D01*
X227762295Y-64680953D02*
X227762295Y-64833334D01*
X227762295Y-64833334D02*
X227724200Y-64909524D01*
X227724200Y-64909524D02*
X227686104Y-64947619D01*
X227686104Y-64947619D02*
X227609914Y-64985715D01*
X227609914Y-64985715D02*
X227381342Y-64985715D01*
X227381342Y-64985715D02*
X227305152Y-64947619D01*
X227305152Y-64947619D02*
X227267057Y-64909524D01*
X227267057Y-64909524D02*
X227228961Y-64833334D01*
X227228961Y-64833334D02*
X227228961Y-64680953D01*
X227228961Y-64680953D02*
X227267057Y-64604762D01*
X227762295Y-63880952D02*
X227343247Y-63880952D01*
X227343247Y-63880952D02*
X227267057Y-63919047D01*
X227267057Y-63919047D02*
X227228961Y-63995238D01*
X227228961Y-63995238D02*
X227228961Y-64147619D01*
X227228961Y-64147619D02*
X227267057Y-64223809D01*
X227724200Y-63880952D02*
X227762295Y-63957143D01*
X227762295Y-63957143D02*
X227762295Y-64147619D01*
X227762295Y-64147619D02*
X227724200Y-64223809D01*
X227724200Y-64223809D02*
X227648009Y-64261905D01*
X227648009Y-64261905D02*
X227571819Y-64261905D01*
X227571819Y-64261905D02*
X227495628Y-64223809D01*
X227495628Y-64223809D02*
X227457533Y-64147619D01*
X227457533Y-64147619D02*
X227457533Y-63957143D01*
X227457533Y-63957143D02*
X227419438Y-63880952D01*
X226962295Y-63576190D02*
X226962295Y-63080952D01*
X226962295Y-63080952D02*
X227267057Y-63347618D01*
X227267057Y-63347618D02*
X227267057Y-63233333D01*
X227267057Y-63233333D02*
X227305152Y-63157142D01*
X227305152Y-63157142D02*
X227343247Y-63119047D01*
X227343247Y-63119047D02*
X227419438Y-63080952D01*
X227419438Y-63080952D02*
X227609914Y-63080952D01*
X227609914Y-63080952D02*
X227686104Y-63119047D01*
X227686104Y-63119047D02*
X227724200Y-63157142D01*
X227724200Y-63157142D02*
X227762295Y-63233333D01*
X227762295Y-63233333D02*
X227762295Y-63461904D01*
X227762295Y-63461904D02*
X227724200Y-63538095D01*
X227724200Y-63538095D02*
X227686104Y-63576190D01*
X227038485Y-62776190D02*
X227000390Y-62738094D01*
X227000390Y-62738094D02*
X226962295Y-62661904D01*
X226962295Y-62661904D02*
X226962295Y-62471428D01*
X226962295Y-62471428D02*
X227000390Y-62395237D01*
X227000390Y-62395237D02*
X227038485Y-62357142D01*
X227038485Y-62357142D02*
X227114676Y-62319047D01*
X227114676Y-62319047D02*
X227190866Y-62319047D01*
X227190866Y-62319047D02*
X227305152Y-62357142D01*
X227305152Y-62357142D02*
X227762295Y-62814285D01*
X227762295Y-62814285D02*
X227762295Y-62319047D01*
X227305152Y-61861904D02*
X227267057Y-61938094D01*
X227267057Y-61938094D02*
X227228961Y-61976189D01*
X227228961Y-61976189D02*
X227152771Y-62014285D01*
X227152771Y-62014285D02*
X227114676Y-62014285D01*
X227114676Y-62014285D02*
X227038485Y-61976189D01*
X227038485Y-61976189D02*
X227000390Y-61938094D01*
X227000390Y-61938094D02*
X226962295Y-61861904D01*
X226962295Y-61861904D02*
X226962295Y-61709523D01*
X226962295Y-61709523D02*
X227000390Y-61633332D01*
X227000390Y-61633332D02*
X227038485Y-61595237D01*
X227038485Y-61595237D02*
X227114676Y-61557142D01*
X227114676Y-61557142D02*
X227152771Y-61557142D01*
X227152771Y-61557142D02*
X227228961Y-61595237D01*
X227228961Y-61595237D02*
X227267057Y-61633332D01*
X227267057Y-61633332D02*
X227305152Y-61709523D01*
X227305152Y-61709523D02*
X227305152Y-61861904D01*
X227305152Y-61861904D02*
X227343247Y-61938094D01*
X227343247Y-61938094D02*
X227381342Y-61976189D01*
X227381342Y-61976189D02*
X227457533Y-62014285D01*
X227457533Y-62014285D02*
X227609914Y-62014285D01*
X227609914Y-62014285D02*
X227686104Y-61976189D01*
X227686104Y-61976189D02*
X227724200Y-61938094D01*
X227724200Y-61938094D02*
X227762295Y-61861904D01*
X227762295Y-61861904D02*
X227762295Y-61709523D01*
X227762295Y-61709523D02*
X227724200Y-61633332D01*
X227724200Y-61633332D02*
X227686104Y-61595237D01*
X227686104Y-61595237D02*
X227609914Y-61557142D01*
X227609914Y-61557142D02*
X227457533Y-61557142D01*
X227457533Y-61557142D02*
X227381342Y-61595237D01*
X227381342Y-61595237D02*
X227343247Y-61633332D01*
X227343247Y-61633332D02*
X227305152Y-61709523D01*
X227762295Y-61214284D02*
X226962295Y-61214284D01*
X226962295Y-61214284D02*
X226962295Y-60909522D01*
X226962295Y-60909522D02*
X227000390Y-60833332D01*
X227000390Y-60833332D02*
X227038485Y-60795237D01*
X227038485Y-60795237D02*
X227114676Y-60757141D01*
X227114676Y-60757141D02*
X227228961Y-60757141D01*
X227228961Y-60757141D02*
X227305152Y-60795237D01*
X227305152Y-60795237D02*
X227343247Y-60833332D01*
X227343247Y-60833332D02*
X227381342Y-60909522D01*
X227381342Y-60909522D02*
X227381342Y-61214284D01*
X227457533Y-60414284D02*
X227457533Y-59804761D01*
X227762295Y-59423808D02*
X226962295Y-59423808D01*
X226962295Y-59423808D02*
X226962295Y-59119046D01*
X226962295Y-59119046D02*
X227000390Y-59042856D01*
X227000390Y-59042856D02*
X227038485Y-59004761D01*
X227038485Y-59004761D02*
X227114676Y-58966665D01*
X227114676Y-58966665D02*
X227228961Y-58966665D01*
X227228961Y-58966665D02*
X227305152Y-59004761D01*
X227305152Y-59004761D02*
X227343247Y-59042856D01*
X227343247Y-59042856D02*
X227381342Y-59119046D01*
X227381342Y-59119046D02*
X227381342Y-59423808D01*
X246866666Y-86554819D02*
X246866666Y-87269104D01*
X246866666Y-87269104D02*
X246819047Y-87411961D01*
X246819047Y-87411961D02*
X246723809Y-87507200D01*
X246723809Y-87507200D02*
X246580952Y-87554819D01*
X246580952Y-87554819D02*
X246485714Y-87554819D01*
X247247619Y-86554819D02*
X247866666Y-86554819D01*
X247866666Y-86554819D02*
X247533333Y-86935771D01*
X247533333Y-86935771D02*
X247676190Y-86935771D01*
X247676190Y-86935771D02*
X247771428Y-86983390D01*
X247771428Y-86983390D02*
X247819047Y-87031009D01*
X247819047Y-87031009D02*
X247866666Y-87126247D01*
X247866666Y-87126247D02*
X247866666Y-87364342D01*
X247866666Y-87364342D02*
X247819047Y-87459580D01*
X247819047Y-87459580D02*
X247771428Y-87507200D01*
X247771428Y-87507200D02*
X247676190Y-87554819D01*
X247676190Y-87554819D02*
X247390476Y-87554819D01*
X247390476Y-87554819D02*
X247295238Y-87507200D01*
X247295238Y-87507200D02*
X247247619Y-87459580D01*
X241425000Y-77993723D02*
X241805953Y-77993723D01*
X241348810Y-78222295D02*
X241615477Y-77422295D01*
X241615477Y-77422295D02*
X241882143Y-78222295D01*
X242034524Y-77422295D02*
X242301191Y-78222295D01*
X242301191Y-78222295D02*
X242567857Y-77422295D01*
X243291667Y-78222295D02*
X243025000Y-77841342D01*
X242834524Y-78222295D02*
X242834524Y-77422295D01*
X242834524Y-77422295D02*
X243139286Y-77422295D01*
X243139286Y-77422295D02*
X243215476Y-77460390D01*
X243215476Y-77460390D02*
X243253571Y-77498485D01*
X243253571Y-77498485D02*
X243291667Y-77574676D01*
X243291667Y-77574676D02*
X243291667Y-77688961D01*
X243291667Y-77688961D02*
X243253571Y-77765152D01*
X243253571Y-77765152D02*
X243215476Y-77803247D01*
X243215476Y-77803247D02*
X243139286Y-77841342D01*
X243139286Y-77841342D02*
X242834524Y-77841342D01*
X243634524Y-77917533D02*
X244244048Y-77917533D01*
X244625000Y-78222295D02*
X244625000Y-77422295D01*
X244967856Y-78184200D02*
X245082142Y-78222295D01*
X245082142Y-78222295D02*
X245272618Y-78222295D01*
X245272618Y-78222295D02*
X245348809Y-78184200D01*
X245348809Y-78184200D02*
X245386904Y-78146104D01*
X245386904Y-78146104D02*
X245424999Y-78069914D01*
X245424999Y-78069914D02*
X245424999Y-77993723D01*
X245424999Y-77993723D02*
X245386904Y-77917533D01*
X245386904Y-77917533D02*
X245348809Y-77879438D01*
X245348809Y-77879438D02*
X245272618Y-77841342D01*
X245272618Y-77841342D02*
X245120237Y-77803247D01*
X245120237Y-77803247D02*
X245044047Y-77765152D01*
X245044047Y-77765152D02*
X245005952Y-77727057D01*
X245005952Y-77727057D02*
X244967856Y-77650866D01*
X244967856Y-77650866D02*
X244967856Y-77574676D01*
X244967856Y-77574676D02*
X245005952Y-77498485D01*
X245005952Y-77498485D02*
X245044047Y-77460390D01*
X245044047Y-77460390D02*
X245120237Y-77422295D01*
X245120237Y-77422295D02*
X245310714Y-77422295D01*
X245310714Y-77422295D02*
X245424999Y-77460390D01*
X245767857Y-78222295D02*
X245767857Y-77422295D01*
X245767857Y-77422295D02*
X246072619Y-77422295D01*
X246072619Y-77422295D02*
X246148809Y-77460390D01*
X246148809Y-77460390D02*
X246186904Y-77498485D01*
X246186904Y-77498485D02*
X246225000Y-77574676D01*
X246225000Y-77574676D02*
X246225000Y-77688961D01*
X246225000Y-77688961D02*
X246186904Y-77765152D01*
X246186904Y-77765152D02*
X246148809Y-77803247D01*
X246148809Y-77803247D02*
X246072619Y-77841342D01*
X246072619Y-77841342D02*
X245767857Y-77841342D01*
X231552381Y-44554819D02*
X231552381Y-45269104D01*
X231552381Y-45269104D02*
X231504762Y-45411961D01*
X231504762Y-45411961D02*
X231409524Y-45507200D01*
X231409524Y-45507200D02*
X231266667Y-45554819D01*
X231266667Y-45554819D02*
X231171429Y-45554819D01*
X232552381Y-45554819D02*
X231980953Y-45554819D01*
X232266667Y-45554819D02*
X232266667Y-44554819D01*
X232266667Y-44554819D02*
X232171429Y-44697676D01*
X232171429Y-44697676D02*
X232076191Y-44792914D01*
X232076191Y-44792914D02*
X231980953Y-44840533D01*
X232980953Y-45459580D02*
X233028572Y-45507200D01*
X233028572Y-45507200D02*
X232980953Y-45554819D01*
X232980953Y-45554819D02*
X232933334Y-45507200D01*
X232933334Y-45507200D02*
X232980953Y-45459580D01*
X232980953Y-45459580D02*
X232980953Y-45554819D01*
X233409524Y-44650057D02*
X233457143Y-44602438D01*
X233457143Y-44602438D02*
X233552381Y-44554819D01*
X233552381Y-44554819D02*
X233790476Y-44554819D01*
X233790476Y-44554819D02*
X233885714Y-44602438D01*
X233885714Y-44602438D02*
X233933333Y-44650057D01*
X233933333Y-44650057D02*
X233980952Y-44745295D01*
X233980952Y-44745295D02*
X233980952Y-44840533D01*
X233980952Y-44840533D02*
X233933333Y-44983390D01*
X233933333Y-44983390D02*
X233361905Y-45554819D01*
X233361905Y-45554819D02*
X233980952Y-45554819D01*
X233190475Y-43438485D02*
X233228571Y-43400390D01*
X233228571Y-43400390D02*
X233304761Y-43362295D01*
X233304761Y-43362295D02*
X233495237Y-43362295D01*
X233495237Y-43362295D02*
X233571428Y-43400390D01*
X233571428Y-43400390D02*
X233609523Y-43438485D01*
X233609523Y-43438485D02*
X233647618Y-43514676D01*
X233647618Y-43514676D02*
X233647618Y-43590866D01*
X233647618Y-43590866D02*
X233609523Y-43705152D01*
X233609523Y-43705152D02*
X233152380Y-44162295D01*
X233152380Y-44162295D02*
X233647618Y-44162295D01*
X233914285Y-43362295D02*
X234447619Y-44162295D01*
X234447619Y-43362295D02*
X233914285Y-44162295D01*
X234714285Y-43438485D02*
X234752381Y-43400390D01*
X234752381Y-43400390D02*
X234828571Y-43362295D01*
X234828571Y-43362295D02*
X235019047Y-43362295D01*
X235019047Y-43362295D02*
X235095238Y-43400390D01*
X235095238Y-43400390D02*
X235133333Y-43438485D01*
X235133333Y-43438485D02*
X235171428Y-43514676D01*
X235171428Y-43514676D02*
X235171428Y-43590866D01*
X235171428Y-43590866D02*
X235133333Y-43705152D01*
X235133333Y-43705152D02*
X234676190Y-44162295D01*
X234676190Y-44162295D02*
X235171428Y-44162295D01*
X236123810Y-44162295D02*
X236123810Y-43362295D01*
X236123810Y-43362295D02*
X236390476Y-43933723D01*
X236390476Y-43933723D02*
X236657143Y-43362295D01*
X236657143Y-43362295D02*
X236657143Y-44162295D01*
X237380953Y-44162295D02*
X237380953Y-43743247D01*
X237380953Y-43743247D02*
X237342858Y-43667057D01*
X237342858Y-43667057D02*
X237266667Y-43628961D01*
X237266667Y-43628961D02*
X237114286Y-43628961D01*
X237114286Y-43628961D02*
X237038096Y-43667057D01*
X237380953Y-44124200D02*
X237304762Y-44162295D01*
X237304762Y-44162295D02*
X237114286Y-44162295D01*
X237114286Y-44162295D02*
X237038096Y-44124200D01*
X237038096Y-44124200D02*
X237000000Y-44048009D01*
X237000000Y-44048009D02*
X237000000Y-43971819D01*
X237000000Y-43971819D02*
X237038096Y-43895628D01*
X237038096Y-43895628D02*
X237114286Y-43857533D01*
X237114286Y-43857533D02*
X237304762Y-43857533D01*
X237304762Y-43857533D02*
X237380953Y-43819438D01*
X237647620Y-43628961D02*
X237952382Y-43628961D01*
X237761906Y-43362295D02*
X237761906Y-44048009D01*
X237761906Y-44048009D02*
X237800001Y-44124200D01*
X237800001Y-44124200D02*
X237876191Y-44162295D01*
X237876191Y-44162295D02*
X237952382Y-44162295D01*
X238219049Y-44162295D02*
X238219049Y-43628961D01*
X238219049Y-43781342D02*
X238257144Y-43705152D01*
X238257144Y-43705152D02*
X238295239Y-43667057D01*
X238295239Y-43667057D02*
X238371430Y-43628961D01*
X238371430Y-43628961D02*
X238447620Y-43628961D01*
X238714287Y-44162295D02*
X238714287Y-43628961D01*
X238714287Y-43362295D02*
X238676191Y-43400390D01*
X238676191Y-43400390D02*
X238714287Y-43438485D01*
X238714287Y-43438485D02*
X238752382Y-43400390D01*
X238752382Y-43400390D02*
X238714287Y-43362295D01*
X238714287Y-43362295D02*
X238714287Y-43438485D01*
X239019048Y-44162295D02*
X239438096Y-43628961D01*
X239019048Y-43628961D02*
X239438096Y-44162295D01*
X240619048Y-43743247D02*
X240733334Y-43781342D01*
X240733334Y-43781342D02*
X240771429Y-43819438D01*
X240771429Y-43819438D02*
X240809525Y-43895628D01*
X240809525Y-43895628D02*
X240809525Y-44009914D01*
X240809525Y-44009914D02*
X240771429Y-44086104D01*
X240771429Y-44086104D02*
X240733334Y-44124200D01*
X240733334Y-44124200D02*
X240657144Y-44162295D01*
X240657144Y-44162295D02*
X240352382Y-44162295D01*
X240352382Y-44162295D02*
X240352382Y-43362295D01*
X240352382Y-43362295D02*
X240619048Y-43362295D01*
X240619048Y-43362295D02*
X240695239Y-43400390D01*
X240695239Y-43400390D02*
X240733334Y-43438485D01*
X240733334Y-43438485D02*
X240771429Y-43514676D01*
X240771429Y-43514676D02*
X240771429Y-43590866D01*
X240771429Y-43590866D02*
X240733334Y-43667057D01*
X240733334Y-43667057D02*
X240695239Y-43705152D01*
X240695239Y-43705152D02*
X240619048Y-43743247D01*
X240619048Y-43743247D02*
X240352382Y-43743247D01*
X224673809Y-67678628D02*
X224673809Y-68154819D01*
X224340476Y-67154819D02*
X224673809Y-67678628D01*
X224673809Y-67678628D02*
X225007142Y-67154819D01*
X225864285Y-68154819D02*
X225292857Y-68154819D01*
X225578571Y-68154819D02*
X225578571Y-67154819D01*
X225578571Y-67154819D02*
X225483333Y-67297676D01*
X225483333Y-67297676D02*
X225388095Y-67392914D01*
X225388095Y-67392914D02*
X225292857Y-67440533D01*
X223721428Y-81511104D02*
X223683332Y-81549200D01*
X223683332Y-81549200D02*
X223569047Y-81587295D01*
X223569047Y-81587295D02*
X223492856Y-81587295D01*
X223492856Y-81587295D02*
X223378570Y-81549200D01*
X223378570Y-81549200D02*
X223302380Y-81473009D01*
X223302380Y-81473009D02*
X223264285Y-81396819D01*
X223264285Y-81396819D02*
X223226189Y-81244438D01*
X223226189Y-81244438D02*
X223226189Y-81130152D01*
X223226189Y-81130152D02*
X223264285Y-80977771D01*
X223264285Y-80977771D02*
X223302380Y-80901580D01*
X223302380Y-80901580D02*
X223378570Y-80825390D01*
X223378570Y-80825390D02*
X223492856Y-80787295D01*
X223492856Y-80787295D02*
X223569047Y-80787295D01*
X223569047Y-80787295D02*
X223683332Y-80825390D01*
X223683332Y-80825390D02*
X223721428Y-80863485D01*
X224064285Y-81587295D02*
X224064285Y-81053961D01*
X224064285Y-81206342D02*
X224102380Y-81130152D01*
X224102380Y-81130152D02*
X224140475Y-81092057D01*
X224140475Y-81092057D02*
X224216666Y-81053961D01*
X224216666Y-81053961D02*
X224292856Y-81053961D01*
X224483332Y-81053961D02*
X224673808Y-81587295D01*
X224864285Y-81053961D02*
X224673808Y-81587295D01*
X224673808Y-81587295D02*
X224597618Y-81777771D01*
X224597618Y-81777771D02*
X224559523Y-81815866D01*
X224559523Y-81815866D02*
X224483332Y-81853961D01*
X225130951Y-81549200D02*
X225207142Y-81587295D01*
X225207142Y-81587295D02*
X225359523Y-81587295D01*
X225359523Y-81587295D02*
X225435713Y-81549200D01*
X225435713Y-81549200D02*
X225473809Y-81473009D01*
X225473809Y-81473009D02*
X225473809Y-81434914D01*
X225473809Y-81434914D02*
X225435713Y-81358723D01*
X225435713Y-81358723D02*
X225359523Y-81320628D01*
X225359523Y-81320628D02*
X225245237Y-81320628D01*
X225245237Y-81320628D02*
X225169047Y-81282533D01*
X225169047Y-81282533D02*
X225130951Y-81206342D01*
X225130951Y-81206342D02*
X225130951Y-81168247D01*
X225130951Y-81168247D02*
X225169047Y-81092057D01*
X225169047Y-81092057D02*
X225245237Y-81053961D01*
X225245237Y-81053961D02*
X225359523Y-81053961D01*
X225359523Y-81053961D02*
X225435713Y-81092057D01*
X225702380Y-81053961D02*
X226007142Y-81053961D01*
X225816666Y-80787295D02*
X225816666Y-81473009D01*
X225816666Y-81473009D02*
X225854761Y-81549200D01*
X225854761Y-81549200D02*
X225930951Y-81587295D01*
X225930951Y-81587295D02*
X226007142Y-81587295D01*
X226616666Y-81587295D02*
X226616666Y-81168247D01*
X226616666Y-81168247D02*
X226578571Y-81092057D01*
X226578571Y-81092057D02*
X226502380Y-81053961D01*
X226502380Y-81053961D02*
X226349999Y-81053961D01*
X226349999Y-81053961D02*
X226273809Y-81092057D01*
X226616666Y-81549200D02*
X226540475Y-81587295D01*
X226540475Y-81587295D02*
X226349999Y-81587295D01*
X226349999Y-81587295D02*
X226273809Y-81549200D01*
X226273809Y-81549200D02*
X226235713Y-81473009D01*
X226235713Y-81473009D02*
X226235713Y-81396819D01*
X226235713Y-81396819D02*
X226273809Y-81320628D01*
X226273809Y-81320628D02*
X226349999Y-81282533D01*
X226349999Y-81282533D02*
X226540475Y-81282533D01*
X226540475Y-81282533D02*
X226616666Y-81244438D01*
X227111904Y-81587295D02*
X227035714Y-81549200D01*
X227035714Y-81549200D02*
X226997619Y-81473009D01*
X226997619Y-81473009D02*
X226997619Y-80787295D01*
X254088095Y-77254819D02*
X254088095Y-77969104D01*
X254088095Y-77969104D02*
X254040476Y-78111961D01*
X254040476Y-78111961D02*
X253945238Y-78207200D01*
X253945238Y-78207200D02*
X253802381Y-78254819D01*
X253802381Y-78254819D02*
X253707143Y-78254819D01*
X255088095Y-78254819D02*
X254516667Y-78254819D01*
X254802381Y-78254819D02*
X254802381Y-77254819D01*
X254802381Y-77254819D02*
X254707143Y-77397676D01*
X254707143Y-77397676D02*
X254611905Y-77492914D01*
X254611905Y-77492914D02*
X254516667Y-77540533D01*
X255516667Y-78159580D02*
X255564286Y-78207200D01*
X255564286Y-78207200D02*
X255516667Y-78254819D01*
X255516667Y-78254819D02*
X255469048Y-78207200D01*
X255469048Y-78207200D02*
X255516667Y-78159580D01*
X255516667Y-78159580D02*
X255516667Y-78254819D01*
X255945238Y-77350057D02*
X255992857Y-77302438D01*
X255992857Y-77302438D02*
X256088095Y-77254819D01*
X256088095Y-77254819D02*
X256326190Y-77254819D01*
X256326190Y-77254819D02*
X256421428Y-77302438D01*
X256421428Y-77302438D02*
X256469047Y-77350057D01*
X256469047Y-77350057D02*
X256516666Y-77445295D01*
X256516666Y-77445295D02*
X256516666Y-77540533D01*
X256516666Y-77540533D02*
X256469047Y-77683390D01*
X256469047Y-77683390D02*
X255897619Y-78254819D01*
X255897619Y-78254819D02*
X256516666Y-78254819D01*
X256945238Y-78159580D02*
X256992857Y-78207200D01*
X256992857Y-78207200D02*
X256945238Y-78254819D01*
X256945238Y-78254819D02*
X256897619Y-78207200D01*
X256897619Y-78207200D02*
X256945238Y-78159580D01*
X256945238Y-78159580D02*
X256945238Y-78254819D01*
X257945237Y-78254819D02*
X257373809Y-78254819D01*
X257659523Y-78254819D02*
X257659523Y-77254819D01*
X257659523Y-77254819D02*
X257564285Y-77397676D01*
X257564285Y-77397676D02*
X257469047Y-77492914D01*
X257469047Y-77492914D02*
X257373809Y-77540533D01*
X259093247Y-82671429D02*
X259131342Y-82557143D01*
X259131342Y-82557143D02*
X259169438Y-82519048D01*
X259169438Y-82519048D02*
X259245628Y-82480952D01*
X259245628Y-82480952D02*
X259359914Y-82480952D01*
X259359914Y-82480952D02*
X259436104Y-82519048D01*
X259436104Y-82519048D02*
X259474200Y-82557143D01*
X259474200Y-82557143D02*
X259512295Y-82633333D01*
X259512295Y-82633333D02*
X259512295Y-82938095D01*
X259512295Y-82938095D02*
X258712295Y-82938095D01*
X258712295Y-82938095D02*
X258712295Y-82671429D01*
X258712295Y-82671429D02*
X258750390Y-82595238D01*
X258750390Y-82595238D02*
X258788485Y-82557143D01*
X258788485Y-82557143D02*
X258864676Y-82519048D01*
X258864676Y-82519048D02*
X258940866Y-82519048D01*
X258940866Y-82519048D02*
X259017057Y-82557143D01*
X259017057Y-82557143D02*
X259055152Y-82595238D01*
X259055152Y-82595238D02*
X259093247Y-82671429D01*
X259093247Y-82671429D02*
X259093247Y-82938095D01*
X258978961Y-81795238D02*
X259512295Y-81795238D01*
X258978961Y-82138095D02*
X259398009Y-82138095D01*
X259398009Y-82138095D02*
X259474200Y-82100000D01*
X259474200Y-82100000D02*
X259512295Y-82023810D01*
X259512295Y-82023810D02*
X259512295Y-81909524D01*
X259512295Y-81909524D02*
X259474200Y-81833333D01*
X259474200Y-81833333D02*
X259436104Y-81795238D01*
X258978961Y-81528571D02*
X258978961Y-81223809D01*
X258712295Y-81414285D02*
X259398009Y-81414285D01*
X259398009Y-81414285D02*
X259474200Y-81376190D01*
X259474200Y-81376190D02*
X259512295Y-81300000D01*
X259512295Y-81300000D02*
X259512295Y-81223809D01*
X258978961Y-81071428D02*
X258978961Y-80766666D01*
X258712295Y-80957142D02*
X259398009Y-80957142D01*
X259398009Y-80957142D02*
X259474200Y-80919047D01*
X259474200Y-80919047D02*
X259512295Y-80842857D01*
X259512295Y-80842857D02*
X259512295Y-80766666D01*
X259512295Y-80385714D02*
X259474200Y-80461904D01*
X259474200Y-80461904D02*
X259436104Y-80499999D01*
X259436104Y-80499999D02*
X259359914Y-80538095D01*
X259359914Y-80538095D02*
X259131342Y-80538095D01*
X259131342Y-80538095D02*
X259055152Y-80499999D01*
X259055152Y-80499999D02*
X259017057Y-80461904D01*
X259017057Y-80461904D02*
X258978961Y-80385714D01*
X258978961Y-80385714D02*
X258978961Y-80271428D01*
X258978961Y-80271428D02*
X259017057Y-80195237D01*
X259017057Y-80195237D02*
X259055152Y-80157142D01*
X259055152Y-80157142D02*
X259131342Y-80119047D01*
X259131342Y-80119047D02*
X259359914Y-80119047D01*
X259359914Y-80119047D02*
X259436104Y-80157142D01*
X259436104Y-80157142D02*
X259474200Y-80195237D01*
X259474200Y-80195237D02*
X259512295Y-80271428D01*
X259512295Y-80271428D02*
X259512295Y-80385714D01*
X258978961Y-79776189D02*
X259512295Y-79776189D01*
X259055152Y-79776189D02*
X259017057Y-79738094D01*
X259017057Y-79738094D02*
X258978961Y-79661904D01*
X258978961Y-79661904D02*
X258978961Y-79547618D01*
X258978961Y-79547618D02*
X259017057Y-79471427D01*
X259017057Y-79471427D02*
X259093247Y-79433332D01*
X259093247Y-79433332D02*
X259512295Y-79433332D01*
X258712295Y-78519046D02*
X258712295Y-78023808D01*
X258712295Y-78023808D02*
X259017057Y-78290474D01*
X259017057Y-78290474D02*
X259017057Y-78176189D01*
X259017057Y-78176189D02*
X259055152Y-78099998D01*
X259055152Y-78099998D02*
X259093247Y-78061903D01*
X259093247Y-78061903D02*
X259169438Y-78023808D01*
X259169438Y-78023808D02*
X259359914Y-78023808D01*
X259359914Y-78023808D02*
X259436104Y-78061903D01*
X259436104Y-78061903D02*
X259474200Y-78099998D01*
X259474200Y-78099998D02*
X259512295Y-78176189D01*
X259512295Y-78176189D02*
X259512295Y-78404760D01*
X259512295Y-78404760D02*
X259474200Y-78480951D01*
X259474200Y-78480951D02*
X259436104Y-78519046D01*
X240352381Y-87554819D02*
X240352381Y-88269104D01*
X240352381Y-88269104D02*
X240304762Y-88411961D01*
X240304762Y-88411961D02*
X240209524Y-88507200D01*
X240209524Y-88507200D02*
X240066667Y-88554819D01*
X240066667Y-88554819D02*
X239971429Y-88554819D01*
X241352381Y-88554819D02*
X240780953Y-88554819D01*
X241066667Y-88554819D02*
X241066667Y-87554819D01*
X241066667Y-87554819D02*
X240971429Y-87697676D01*
X240971429Y-87697676D02*
X240876191Y-87792914D01*
X240876191Y-87792914D02*
X240780953Y-87840533D01*
X241780953Y-88459580D02*
X241828572Y-88507200D01*
X241828572Y-88507200D02*
X241780953Y-88554819D01*
X241780953Y-88554819D02*
X241733334Y-88507200D01*
X241733334Y-88507200D02*
X241780953Y-88459580D01*
X241780953Y-88459580D02*
X241780953Y-88554819D01*
X242685714Y-87888152D02*
X242685714Y-88554819D01*
X242447619Y-87507200D02*
X242209524Y-88221485D01*
X242209524Y-88221485D02*
X242828571Y-88221485D01*
X233190475Y-94238485D02*
X233228571Y-94200390D01*
X233228571Y-94200390D02*
X233304761Y-94162295D01*
X233304761Y-94162295D02*
X233495237Y-94162295D01*
X233495237Y-94162295D02*
X233571428Y-94200390D01*
X233571428Y-94200390D02*
X233609523Y-94238485D01*
X233609523Y-94238485D02*
X233647618Y-94314676D01*
X233647618Y-94314676D02*
X233647618Y-94390866D01*
X233647618Y-94390866D02*
X233609523Y-94505152D01*
X233609523Y-94505152D02*
X233152380Y-94962295D01*
X233152380Y-94962295D02*
X233647618Y-94962295D01*
X233914285Y-94162295D02*
X234447619Y-94962295D01*
X234447619Y-94162295D02*
X233914285Y-94962295D01*
X234714285Y-94238485D02*
X234752381Y-94200390D01*
X234752381Y-94200390D02*
X234828571Y-94162295D01*
X234828571Y-94162295D02*
X235019047Y-94162295D01*
X235019047Y-94162295D02*
X235095238Y-94200390D01*
X235095238Y-94200390D02*
X235133333Y-94238485D01*
X235133333Y-94238485D02*
X235171428Y-94314676D01*
X235171428Y-94314676D02*
X235171428Y-94390866D01*
X235171428Y-94390866D02*
X235133333Y-94505152D01*
X235133333Y-94505152D02*
X234676190Y-94962295D01*
X234676190Y-94962295D02*
X235171428Y-94962295D01*
X236123810Y-94962295D02*
X236123810Y-94162295D01*
X236123810Y-94162295D02*
X236390476Y-94733723D01*
X236390476Y-94733723D02*
X236657143Y-94162295D01*
X236657143Y-94162295D02*
X236657143Y-94962295D01*
X237380953Y-94962295D02*
X237380953Y-94543247D01*
X237380953Y-94543247D02*
X237342858Y-94467057D01*
X237342858Y-94467057D02*
X237266667Y-94428961D01*
X237266667Y-94428961D02*
X237114286Y-94428961D01*
X237114286Y-94428961D02*
X237038096Y-94467057D01*
X237380953Y-94924200D02*
X237304762Y-94962295D01*
X237304762Y-94962295D02*
X237114286Y-94962295D01*
X237114286Y-94962295D02*
X237038096Y-94924200D01*
X237038096Y-94924200D02*
X237000000Y-94848009D01*
X237000000Y-94848009D02*
X237000000Y-94771819D01*
X237000000Y-94771819D02*
X237038096Y-94695628D01*
X237038096Y-94695628D02*
X237114286Y-94657533D01*
X237114286Y-94657533D02*
X237304762Y-94657533D01*
X237304762Y-94657533D02*
X237380953Y-94619438D01*
X237647620Y-94428961D02*
X237952382Y-94428961D01*
X237761906Y-94162295D02*
X237761906Y-94848009D01*
X237761906Y-94848009D02*
X237800001Y-94924200D01*
X237800001Y-94924200D02*
X237876191Y-94962295D01*
X237876191Y-94962295D02*
X237952382Y-94962295D01*
X238219049Y-94962295D02*
X238219049Y-94428961D01*
X238219049Y-94581342D02*
X238257144Y-94505152D01*
X238257144Y-94505152D02*
X238295239Y-94467057D01*
X238295239Y-94467057D02*
X238371430Y-94428961D01*
X238371430Y-94428961D02*
X238447620Y-94428961D01*
X238714287Y-94962295D02*
X238714287Y-94428961D01*
X238714287Y-94162295D02*
X238676191Y-94200390D01*
X238676191Y-94200390D02*
X238714287Y-94238485D01*
X238714287Y-94238485D02*
X238752382Y-94200390D01*
X238752382Y-94200390D02*
X238714287Y-94162295D01*
X238714287Y-94162295D02*
X238714287Y-94238485D01*
X239019048Y-94962295D02*
X239438096Y-94428961D01*
X239019048Y-94428961D02*
X239438096Y-94962295D01*
X240352382Y-94962295D02*
X240352382Y-94162295D01*
X240352382Y-94162295D02*
X240542858Y-94162295D01*
X240542858Y-94162295D02*
X240657144Y-94200390D01*
X240657144Y-94200390D02*
X240733334Y-94276580D01*
X240733334Y-94276580D02*
X240771429Y-94352771D01*
X240771429Y-94352771D02*
X240809525Y-94505152D01*
X240809525Y-94505152D02*
X240809525Y-94619438D01*
X240809525Y-94619438D02*
X240771429Y-94771819D01*
X240771429Y-94771819D02*
X240733334Y-94848009D01*
X240733334Y-94848009D02*
X240657144Y-94924200D01*
X240657144Y-94924200D02*
X240542858Y-94962295D01*
X240542858Y-94962295D02*
X240352382Y-94962295D01*
X245391667Y-69707200D02*
X245534524Y-69754819D01*
X245534524Y-69754819D02*
X245772619Y-69754819D01*
X245772619Y-69754819D02*
X245867857Y-69707200D01*
X245867857Y-69707200D02*
X245915476Y-69659580D01*
X245915476Y-69659580D02*
X245963095Y-69564342D01*
X245963095Y-69564342D02*
X245963095Y-69469104D01*
X245963095Y-69469104D02*
X245915476Y-69373866D01*
X245915476Y-69373866D02*
X245867857Y-69326247D01*
X245867857Y-69326247D02*
X245772619Y-69278628D01*
X245772619Y-69278628D02*
X245582143Y-69231009D01*
X245582143Y-69231009D02*
X245486905Y-69183390D01*
X245486905Y-69183390D02*
X245439286Y-69135771D01*
X245439286Y-69135771D02*
X245391667Y-69040533D01*
X245391667Y-69040533D02*
X245391667Y-68945295D01*
X245391667Y-68945295D02*
X245439286Y-68850057D01*
X245439286Y-68850057D02*
X245486905Y-68802438D01*
X245486905Y-68802438D02*
X245582143Y-68754819D01*
X245582143Y-68754819D02*
X245820238Y-68754819D01*
X245820238Y-68754819D02*
X245963095Y-68802438D01*
X246296429Y-68754819D02*
X246534524Y-69754819D01*
X246534524Y-69754819D02*
X246725000Y-69040533D01*
X246725000Y-69040533D02*
X246915476Y-69754819D01*
X246915476Y-69754819D02*
X247153572Y-68754819D01*
X248058333Y-69754819D02*
X247486905Y-69754819D01*
X247772619Y-69754819D02*
X247772619Y-68754819D01*
X247772619Y-68754819D02*
X247677381Y-68897676D01*
X247677381Y-68897676D02*
X247582143Y-68992914D01*
X247582143Y-68992914D02*
X247486905Y-69040533D01*
X251234524Y-73712295D02*
X250967857Y-73331342D01*
X250777381Y-73712295D02*
X250777381Y-72912295D01*
X250777381Y-72912295D02*
X251082143Y-72912295D01*
X251082143Y-72912295D02*
X251158333Y-72950390D01*
X251158333Y-72950390D02*
X251196428Y-72988485D01*
X251196428Y-72988485D02*
X251234524Y-73064676D01*
X251234524Y-73064676D02*
X251234524Y-73178961D01*
X251234524Y-73178961D02*
X251196428Y-73255152D01*
X251196428Y-73255152D02*
X251158333Y-73293247D01*
X251158333Y-73293247D02*
X251082143Y-73331342D01*
X251082143Y-73331342D02*
X250777381Y-73331342D01*
X251882143Y-73674200D02*
X251805952Y-73712295D01*
X251805952Y-73712295D02*
X251653571Y-73712295D01*
X251653571Y-73712295D02*
X251577381Y-73674200D01*
X251577381Y-73674200D02*
X251539285Y-73598009D01*
X251539285Y-73598009D02*
X251539285Y-73293247D01*
X251539285Y-73293247D02*
X251577381Y-73217057D01*
X251577381Y-73217057D02*
X251653571Y-73178961D01*
X251653571Y-73178961D02*
X251805952Y-73178961D01*
X251805952Y-73178961D02*
X251882143Y-73217057D01*
X251882143Y-73217057D02*
X251920238Y-73293247D01*
X251920238Y-73293247D02*
X251920238Y-73369438D01*
X251920238Y-73369438D02*
X251539285Y-73445628D01*
X252224999Y-73674200D02*
X252301190Y-73712295D01*
X252301190Y-73712295D02*
X252453571Y-73712295D01*
X252453571Y-73712295D02*
X252529761Y-73674200D01*
X252529761Y-73674200D02*
X252567857Y-73598009D01*
X252567857Y-73598009D02*
X252567857Y-73559914D01*
X252567857Y-73559914D02*
X252529761Y-73483723D01*
X252529761Y-73483723D02*
X252453571Y-73445628D01*
X252453571Y-73445628D02*
X252339285Y-73445628D01*
X252339285Y-73445628D02*
X252263095Y-73407533D01*
X252263095Y-73407533D02*
X252224999Y-73331342D01*
X252224999Y-73331342D02*
X252224999Y-73293247D01*
X252224999Y-73293247D02*
X252263095Y-73217057D01*
X252263095Y-73217057D02*
X252339285Y-73178961D01*
X252339285Y-73178961D02*
X252453571Y-73178961D01*
X252453571Y-73178961D02*
X252529761Y-73217057D01*
X253215476Y-73674200D02*
X253139285Y-73712295D01*
X253139285Y-73712295D02*
X252986904Y-73712295D01*
X252986904Y-73712295D02*
X252910714Y-73674200D01*
X252910714Y-73674200D02*
X252872618Y-73598009D01*
X252872618Y-73598009D02*
X252872618Y-73293247D01*
X252872618Y-73293247D02*
X252910714Y-73217057D01*
X252910714Y-73217057D02*
X252986904Y-73178961D01*
X252986904Y-73178961D02*
X253139285Y-73178961D01*
X253139285Y-73178961D02*
X253215476Y-73217057D01*
X253215476Y-73217057D02*
X253253571Y-73293247D01*
X253253571Y-73293247D02*
X253253571Y-73369438D01*
X253253571Y-73369438D02*
X252872618Y-73445628D01*
X253482142Y-73178961D02*
X253786904Y-73178961D01*
X253596428Y-72912295D02*
X253596428Y-73598009D01*
X253596428Y-73598009D02*
X253634523Y-73674200D01*
X253634523Y-73674200D02*
X253710713Y-73712295D01*
X253710713Y-73712295D02*
X253786904Y-73712295D01*
X221741666Y-51884819D02*
X221741666Y-52599104D01*
X221741666Y-52599104D02*
X221694047Y-52741961D01*
X221694047Y-52741961D02*
X221598809Y-52837200D01*
X221598809Y-52837200D02*
X221455952Y-52884819D01*
X221455952Y-52884819D02*
X221360714Y-52884819D01*
X222741666Y-52884819D02*
X222170238Y-52884819D01*
X222455952Y-52884819D02*
X222455952Y-51884819D01*
X222455952Y-51884819D02*
X222360714Y-52027676D01*
X222360714Y-52027676D02*
X222265476Y-52122914D01*
X222265476Y-52122914D02*
X222170238Y-52170533D01*
X216588152Y-61974762D02*
X217254819Y-61974762D01*
X216207200Y-62212857D02*
X216921485Y-62450952D01*
X216921485Y-62450952D02*
X216921485Y-61831905D01*
X216254819Y-61546190D02*
X217254819Y-60879524D01*
X216254819Y-60879524D02*
X217254819Y-61546190D01*
X216588152Y-60070000D02*
X217254819Y-60070000D01*
X216207200Y-60308095D02*
X216921485Y-60546190D01*
X216921485Y-60546190D02*
X216921485Y-59927143D01*
X217254819Y-58784285D02*
X216254819Y-58784285D01*
X216254819Y-58784285D02*
X216969104Y-58450952D01*
X216969104Y-58450952D02*
X216254819Y-58117619D01*
X216254819Y-58117619D02*
X217254819Y-58117619D01*
X217254819Y-57212857D02*
X216731009Y-57212857D01*
X216731009Y-57212857D02*
X216635771Y-57260476D01*
X216635771Y-57260476D02*
X216588152Y-57355714D01*
X216588152Y-57355714D02*
X216588152Y-57546190D01*
X216588152Y-57546190D02*
X216635771Y-57641428D01*
X217207200Y-57212857D02*
X217254819Y-57308095D01*
X217254819Y-57308095D02*
X217254819Y-57546190D01*
X217254819Y-57546190D02*
X217207200Y-57641428D01*
X217207200Y-57641428D02*
X217111961Y-57689047D01*
X217111961Y-57689047D02*
X217016723Y-57689047D01*
X217016723Y-57689047D02*
X216921485Y-57641428D01*
X216921485Y-57641428D02*
X216873866Y-57546190D01*
X216873866Y-57546190D02*
X216873866Y-57308095D01*
X216873866Y-57308095D02*
X216826247Y-57212857D01*
X216588152Y-56879523D02*
X216588152Y-56498571D01*
X216254819Y-56736666D02*
X217111961Y-56736666D01*
X217111961Y-56736666D02*
X217207200Y-56689047D01*
X217207200Y-56689047D02*
X217254819Y-56593809D01*
X217254819Y-56593809D02*
X217254819Y-56498571D01*
X217254819Y-56165237D02*
X216588152Y-56165237D01*
X216778628Y-56165237D02*
X216683390Y-56117618D01*
X216683390Y-56117618D02*
X216635771Y-56069999D01*
X216635771Y-56069999D02*
X216588152Y-55974761D01*
X216588152Y-55974761D02*
X216588152Y-55879523D01*
X217254819Y-55546189D02*
X216588152Y-55546189D01*
X216254819Y-55546189D02*
X216302438Y-55593808D01*
X216302438Y-55593808D02*
X216350057Y-55546189D01*
X216350057Y-55546189D02*
X216302438Y-55498570D01*
X216302438Y-55498570D02*
X216254819Y-55546189D01*
X216254819Y-55546189D02*
X216350057Y-55546189D01*
X217254819Y-55165237D02*
X216588152Y-54641428D01*
X216588152Y-55165237D02*
X217254819Y-54641428D01*
X212588095Y-86054819D02*
X212588095Y-86769104D01*
X212588095Y-86769104D02*
X212540476Y-86911961D01*
X212540476Y-86911961D02*
X212445238Y-87007200D01*
X212445238Y-87007200D02*
X212302381Y-87054819D01*
X212302381Y-87054819D02*
X212207143Y-87054819D01*
X213588095Y-87054819D02*
X213016667Y-87054819D01*
X213302381Y-87054819D02*
X213302381Y-86054819D01*
X213302381Y-86054819D02*
X213207143Y-86197676D01*
X213207143Y-86197676D02*
X213111905Y-86292914D01*
X213111905Y-86292914D02*
X213016667Y-86340533D01*
X214016667Y-86959580D02*
X214064286Y-87007200D01*
X214064286Y-87007200D02*
X214016667Y-87054819D01*
X214016667Y-87054819D02*
X213969048Y-87007200D01*
X213969048Y-87007200D02*
X214016667Y-86959580D01*
X214016667Y-86959580D02*
X214016667Y-87054819D01*
X215016666Y-87054819D02*
X214445238Y-87054819D01*
X214730952Y-87054819D02*
X214730952Y-86054819D01*
X214730952Y-86054819D02*
X214635714Y-86197676D01*
X214635714Y-86197676D02*
X214540476Y-86292914D01*
X214540476Y-86292914D02*
X214445238Y-86340533D01*
X215445238Y-86959580D02*
X215492857Y-87007200D01*
X215492857Y-87007200D02*
X215445238Y-87054819D01*
X215445238Y-87054819D02*
X215397619Y-87007200D01*
X215397619Y-87007200D02*
X215445238Y-86959580D01*
X215445238Y-86959580D02*
X215445238Y-87054819D01*
X216349999Y-86388152D02*
X216349999Y-87054819D01*
X216111904Y-86007200D02*
X215873809Y-86721485D01*
X215873809Y-86721485D02*
X216492856Y-86721485D01*
X210793247Y-91471429D02*
X210831342Y-91357143D01*
X210831342Y-91357143D02*
X210869438Y-91319048D01*
X210869438Y-91319048D02*
X210945628Y-91280952D01*
X210945628Y-91280952D02*
X211059914Y-91280952D01*
X211059914Y-91280952D02*
X211136104Y-91319048D01*
X211136104Y-91319048D02*
X211174200Y-91357143D01*
X211174200Y-91357143D02*
X211212295Y-91433333D01*
X211212295Y-91433333D02*
X211212295Y-91738095D01*
X211212295Y-91738095D02*
X210412295Y-91738095D01*
X210412295Y-91738095D02*
X210412295Y-91471429D01*
X210412295Y-91471429D02*
X210450390Y-91395238D01*
X210450390Y-91395238D02*
X210488485Y-91357143D01*
X210488485Y-91357143D02*
X210564676Y-91319048D01*
X210564676Y-91319048D02*
X210640866Y-91319048D01*
X210640866Y-91319048D02*
X210717057Y-91357143D01*
X210717057Y-91357143D02*
X210755152Y-91395238D01*
X210755152Y-91395238D02*
X210793247Y-91471429D01*
X210793247Y-91471429D02*
X210793247Y-91738095D01*
X210678961Y-90595238D02*
X211212295Y-90595238D01*
X210678961Y-90938095D02*
X211098009Y-90938095D01*
X211098009Y-90938095D02*
X211174200Y-90900000D01*
X211174200Y-90900000D02*
X211212295Y-90823810D01*
X211212295Y-90823810D02*
X211212295Y-90709524D01*
X211212295Y-90709524D02*
X211174200Y-90633333D01*
X211174200Y-90633333D02*
X211136104Y-90595238D01*
X210678961Y-90328571D02*
X210678961Y-90023809D01*
X210412295Y-90214285D02*
X211098009Y-90214285D01*
X211098009Y-90214285D02*
X211174200Y-90176190D01*
X211174200Y-90176190D02*
X211212295Y-90100000D01*
X211212295Y-90100000D02*
X211212295Y-90023809D01*
X210678961Y-89871428D02*
X210678961Y-89566666D01*
X210412295Y-89757142D02*
X211098009Y-89757142D01*
X211098009Y-89757142D02*
X211174200Y-89719047D01*
X211174200Y-89719047D02*
X211212295Y-89642857D01*
X211212295Y-89642857D02*
X211212295Y-89566666D01*
X211212295Y-89185714D02*
X211174200Y-89261904D01*
X211174200Y-89261904D02*
X211136104Y-89299999D01*
X211136104Y-89299999D02*
X211059914Y-89338095D01*
X211059914Y-89338095D02*
X210831342Y-89338095D01*
X210831342Y-89338095D02*
X210755152Y-89299999D01*
X210755152Y-89299999D02*
X210717057Y-89261904D01*
X210717057Y-89261904D02*
X210678961Y-89185714D01*
X210678961Y-89185714D02*
X210678961Y-89071428D01*
X210678961Y-89071428D02*
X210717057Y-88995237D01*
X210717057Y-88995237D02*
X210755152Y-88957142D01*
X210755152Y-88957142D02*
X210831342Y-88919047D01*
X210831342Y-88919047D02*
X211059914Y-88919047D01*
X211059914Y-88919047D02*
X211136104Y-88957142D01*
X211136104Y-88957142D02*
X211174200Y-88995237D01*
X211174200Y-88995237D02*
X211212295Y-89071428D01*
X211212295Y-89071428D02*
X211212295Y-89185714D01*
X210678961Y-88576189D02*
X211212295Y-88576189D01*
X210755152Y-88576189D02*
X210717057Y-88538094D01*
X210717057Y-88538094D02*
X210678961Y-88461904D01*
X210678961Y-88461904D02*
X210678961Y-88347618D01*
X210678961Y-88347618D02*
X210717057Y-88271427D01*
X210717057Y-88271427D02*
X210793247Y-88233332D01*
X210793247Y-88233332D02*
X211212295Y-88233332D01*
X210412295Y-86899998D02*
X210412295Y-87052379D01*
X210412295Y-87052379D02*
X210450390Y-87128570D01*
X210450390Y-87128570D02*
X210488485Y-87166665D01*
X210488485Y-87166665D02*
X210602771Y-87242855D01*
X210602771Y-87242855D02*
X210755152Y-87280951D01*
X210755152Y-87280951D02*
X211059914Y-87280951D01*
X211059914Y-87280951D02*
X211136104Y-87242855D01*
X211136104Y-87242855D02*
X211174200Y-87204760D01*
X211174200Y-87204760D02*
X211212295Y-87128570D01*
X211212295Y-87128570D02*
X211212295Y-86976189D01*
X211212295Y-86976189D02*
X211174200Y-86899998D01*
X211174200Y-86899998D02*
X211136104Y-86861903D01*
X211136104Y-86861903D02*
X211059914Y-86823808D01*
X211059914Y-86823808D02*
X210869438Y-86823808D01*
X210869438Y-86823808D02*
X210793247Y-86861903D01*
X210793247Y-86861903D02*
X210755152Y-86899998D01*
X210755152Y-86899998D02*
X210717057Y-86976189D01*
X210717057Y-86976189D02*
X210717057Y-87128570D01*
X210717057Y-87128570D02*
X210755152Y-87204760D01*
X210755152Y-87204760D02*
X210793247Y-87242855D01*
X210793247Y-87242855D02*
X210869438Y-87280951D01*
X219552381Y-44554819D02*
X219552381Y-45269104D01*
X219552381Y-45269104D02*
X219504762Y-45411961D01*
X219504762Y-45411961D02*
X219409524Y-45507200D01*
X219409524Y-45507200D02*
X219266667Y-45554819D01*
X219266667Y-45554819D02*
X219171429Y-45554819D01*
X220552381Y-45554819D02*
X219980953Y-45554819D01*
X220266667Y-45554819D02*
X220266667Y-44554819D01*
X220266667Y-44554819D02*
X220171429Y-44697676D01*
X220171429Y-44697676D02*
X220076191Y-44792914D01*
X220076191Y-44792914D02*
X219980953Y-44840533D01*
X220980953Y-45459580D02*
X221028572Y-45507200D01*
X221028572Y-45507200D02*
X220980953Y-45554819D01*
X220980953Y-45554819D02*
X220933334Y-45507200D01*
X220933334Y-45507200D02*
X220980953Y-45459580D01*
X220980953Y-45459580D02*
X220980953Y-45554819D01*
X221980952Y-45554819D02*
X221409524Y-45554819D01*
X221695238Y-45554819D02*
X221695238Y-44554819D01*
X221695238Y-44554819D02*
X221600000Y-44697676D01*
X221600000Y-44697676D02*
X221504762Y-44792914D01*
X221504762Y-44792914D02*
X221409524Y-44840533D01*
X221247618Y-43438485D02*
X221285714Y-43400390D01*
X221285714Y-43400390D02*
X221361904Y-43362295D01*
X221361904Y-43362295D02*
X221552380Y-43362295D01*
X221552380Y-43362295D02*
X221628571Y-43400390D01*
X221628571Y-43400390D02*
X221666666Y-43438485D01*
X221666666Y-43438485D02*
X221704761Y-43514676D01*
X221704761Y-43514676D02*
X221704761Y-43590866D01*
X221704761Y-43590866D02*
X221666666Y-43705152D01*
X221666666Y-43705152D02*
X221209523Y-44162295D01*
X221209523Y-44162295D02*
X221704761Y-44162295D01*
X221971428Y-43362295D02*
X222504762Y-44162295D01*
X222504762Y-43362295D02*
X221971428Y-44162295D01*
X222771428Y-43438485D02*
X222809524Y-43400390D01*
X222809524Y-43400390D02*
X222885714Y-43362295D01*
X222885714Y-43362295D02*
X223076190Y-43362295D01*
X223076190Y-43362295D02*
X223152381Y-43400390D01*
X223152381Y-43400390D02*
X223190476Y-43438485D01*
X223190476Y-43438485D02*
X223228571Y-43514676D01*
X223228571Y-43514676D02*
X223228571Y-43590866D01*
X223228571Y-43590866D02*
X223190476Y-43705152D01*
X223190476Y-43705152D02*
X222733333Y-44162295D01*
X222733333Y-44162295D02*
X223228571Y-44162295D01*
X224180953Y-44162295D02*
X224180953Y-43362295D01*
X224180953Y-43362295D02*
X224447619Y-43933723D01*
X224447619Y-43933723D02*
X224714286Y-43362295D01*
X224714286Y-43362295D02*
X224714286Y-44162295D01*
X225438096Y-44162295D02*
X225438096Y-43743247D01*
X225438096Y-43743247D02*
X225400001Y-43667057D01*
X225400001Y-43667057D02*
X225323810Y-43628961D01*
X225323810Y-43628961D02*
X225171429Y-43628961D01*
X225171429Y-43628961D02*
X225095239Y-43667057D01*
X225438096Y-44124200D02*
X225361905Y-44162295D01*
X225361905Y-44162295D02*
X225171429Y-44162295D01*
X225171429Y-44162295D02*
X225095239Y-44124200D01*
X225095239Y-44124200D02*
X225057143Y-44048009D01*
X225057143Y-44048009D02*
X225057143Y-43971819D01*
X225057143Y-43971819D02*
X225095239Y-43895628D01*
X225095239Y-43895628D02*
X225171429Y-43857533D01*
X225171429Y-43857533D02*
X225361905Y-43857533D01*
X225361905Y-43857533D02*
X225438096Y-43819438D01*
X225704763Y-43628961D02*
X226009525Y-43628961D01*
X225819049Y-43362295D02*
X225819049Y-44048009D01*
X225819049Y-44048009D02*
X225857144Y-44124200D01*
X225857144Y-44124200D02*
X225933334Y-44162295D01*
X225933334Y-44162295D02*
X226009525Y-44162295D01*
X226276192Y-44162295D02*
X226276192Y-43628961D01*
X226276192Y-43781342D02*
X226314287Y-43705152D01*
X226314287Y-43705152D02*
X226352382Y-43667057D01*
X226352382Y-43667057D02*
X226428573Y-43628961D01*
X226428573Y-43628961D02*
X226504763Y-43628961D01*
X226771430Y-44162295D02*
X226771430Y-43628961D01*
X226771430Y-43362295D02*
X226733334Y-43400390D01*
X226733334Y-43400390D02*
X226771430Y-43438485D01*
X226771430Y-43438485D02*
X226809525Y-43400390D01*
X226809525Y-43400390D02*
X226771430Y-43362295D01*
X226771430Y-43362295D02*
X226771430Y-43438485D01*
X227076191Y-44162295D02*
X227495239Y-43628961D01*
X227076191Y-43628961D02*
X227495239Y-44162295D01*
X228371429Y-43933723D02*
X228752382Y-43933723D01*
X228295239Y-44162295D02*
X228561906Y-43362295D01*
X228561906Y-43362295D02*
X228828572Y-44162295D01*
D12*
%TO.C,C3*%
X239560000Y-70512164D02*
X239560000Y-70727836D01*
X238840000Y-70512164D02*
X238840000Y-70727836D01*
%TO.C,J1.1.3*%
X250990000Y-87420000D02*
X250990000Y-88220000D01*
X251230000Y-87660000D02*
X251230000Y-93480000D01*
X252030000Y-87420000D02*
X250990000Y-87420000D01*
X252150000Y-87660000D02*
X252150000Y-93480000D01*
X253150000Y-87660000D02*
X253150000Y-93480000D01*
X256251000Y-87660000D02*
X256251000Y-93480000D01*
X257970000Y-87660000D02*
X251230000Y-87660000D01*
X257970000Y-87660000D02*
X257970000Y-93480000D01*
X257970000Y-93480000D02*
X251230000Y-93480000D01*
%TO.C,J1.1.1*%
X250990000Y-45120000D02*
X250990000Y-45920000D01*
X251230000Y-45360000D02*
X251230000Y-51180000D01*
X252030000Y-45120000D02*
X250990000Y-45120000D01*
X252150000Y-45360000D02*
X252150000Y-51180000D01*
X253150000Y-45360000D02*
X253150000Y-51180000D01*
X256251000Y-45360000D02*
X256251000Y-51180000D01*
X257970000Y-45360000D02*
X251230000Y-45360000D01*
X257970000Y-45360000D02*
X257970000Y-51180000D01*
X257970000Y-51180000D02*
X251230000Y-51180000D01*
%TO.C,J1.3*%
X220960000Y-88970000D02*
X222400000Y-88970000D01*
X222400000Y-88400000D02*
X222400000Y-88970000D01*
X222400000Y-88400000D02*
X227600000Y-88400000D01*
X222400000Y-90490000D02*
X222400000Y-91510000D01*
X222400000Y-93030000D02*
X222400000Y-93600000D01*
X222400000Y-93600000D02*
X227600000Y-93600000D01*
X227600000Y-88400000D02*
X227600000Y-88970000D01*
X227600000Y-90490000D02*
X227600000Y-91510000D01*
X227600000Y-93030000D02*
X227600000Y-93600000D01*
%TO.C,C2*%
X221440000Y-76807836D02*
X221440000Y-76592164D01*
X222160000Y-76807836D02*
X222160000Y-76592164D01*
%TO.C,J1.1.2*%
X211590000Y-45120000D02*
X211590000Y-45920000D01*
X211830000Y-45360000D02*
X211830000Y-51180000D01*
X212630000Y-45120000D02*
X211590000Y-45120000D01*
X212750000Y-45360000D02*
X212750000Y-51180000D01*
X213750000Y-45360000D02*
X213750000Y-51180000D01*
X216851000Y-45360000D02*
X216851000Y-51180000D01*
X218570000Y-45360000D02*
X211830000Y-45360000D01*
X218570000Y-45360000D02*
X218570000Y-51180000D01*
X218570000Y-51180000D02*
X211830000Y-51180000D01*
%TO.C,C1*%
X221440000Y-72522164D02*
X221440000Y-72737836D01*
X222160000Y-72522164D02*
X222160000Y-72737836D01*
%TO.C,J4*%
X240680000Y-52340000D02*
X240680000Y-55120000D01*
X240680000Y-65265000D02*
X238420000Y-65265000D01*
X240680000Y-68060000D02*
X240680000Y-65265000D01*
X240680000Y-68060000D02*
X256240000Y-68060000D01*
X256240000Y-52340000D02*
X240680000Y-52340000D01*
X256240000Y-55560000D02*
X256240000Y-52340000D01*
X256240000Y-64840000D02*
X259340000Y-64840000D01*
X256240000Y-68060000D02*
X256240000Y-64840000D01*
X259340000Y-55560000D02*
X256240000Y-55560000D01*
X259340000Y-64840000D02*
X259340000Y-55560000D01*
%TO.C,J1.2.2*%
X211590000Y-64620000D02*
X211590000Y-65420000D01*
X211830000Y-64860000D02*
X211830000Y-70680000D01*
X212630000Y-64620000D02*
X211590000Y-64620000D01*
X212750000Y-64860000D02*
X212750000Y-70680000D01*
X213750000Y-64860000D02*
X213750000Y-70680000D01*
X216851000Y-64860000D02*
X216851000Y-70680000D01*
X218570000Y-64860000D02*
X211830000Y-64860000D01*
X218570000Y-64860000D02*
X218570000Y-70680000D01*
X218570000Y-70680000D02*
X211830000Y-70680000D01*
%TO.C,U1*%
X230290000Y-51410000D02*
X230290000Y-87090000D01*
X230290000Y-87090000D02*
X235590000Y-87090000D01*
X231940000Y-51410000D02*
X230290000Y-51410000D01*
X235590000Y-51410000D02*
X233940000Y-51410000D01*
X235590000Y-87090000D02*
X235590000Y-51410000D01*
X233940000Y-51410000D02*
G75*
G02*
X231940000Y-51410000I-1000000J0D01*
G01*
%TO.C,J3*%
X241225000Y-79560000D02*
X241225000Y-78990000D01*
X241225000Y-82100000D02*
X241225000Y-81080000D01*
X241225000Y-84640000D02*
X241225000Y-83620000D01*
X241225000Y-86730000D02*
X241225000Y-86160000D01*
X246425000Y-78990000D02*
X241225000Y-78990000D01*
X246425000Y-79560000D02*
X246425000Y-78990000D01*
X246425000Y-82100000D02*
X246425000Y-81080000D01*
X246425000Y-84640000D02*
X246425000Y-83620000D01*
X246425000Y-86730000D02*
X241225000Y-86730000D01*
X246425000Y-86730000D02*
X246425000Y-86160000D01*
X247865000Y-86160000D02*
X246425000Y-86160000D01*
%TO.C,J1.2*%
X232960000Y-45970000D02*
X234400000Y-45970000D01*
X234400000Y-45400000D02*
X234400000Y-45970000D01*
X234400000Y-45400000D02*
X239600000Y-45400000D01*
X234400000Y-47490000D02*
X234400000Y-48510000D01*
X234400000Y-50030000D02*
X234400000Y-50600000D01*
X234400000Y-50600000D02*
X239600000Y-50600000D01*
X239600000Y-45400000D02*
X239600000Y-45970000D01*
X239600000Y-47490000D02*
X239600000Y-48510000D01*
X239600000Y-50030000D02*
X239600000Y-50600000D01*
%TO.C,Y1*%
X222625000Y-71450000D02*
X222625000Y-77700000D01*
X227675000Y-71450000D02*
X227675000Y-77700000D01*
X222625000Y-71450000D02*
G75*
G02*
X227675000Y-71450000I2525000J0D01*
G01*
X227675000Y-77700000D02*
G75*
G02*
X222625000Y-77700000I-2525000J0D01*
G01*
%TO.C,J1.2.1*%
X251090000Y-78620000D02*
X251090000Y-79420000D01*
X251330000Y-78860000D02*
X251330000Y-84680000D01*
X252130000Y-78620000D02*
X251090000Y-78620000D01*
X252250000Y-78860000D02*
X252250000Y-84680000D01*
X253250000Y-78860000D02*
X253250000Y-84680000D01*
X256351000Y-78860000D02*
X256351000Y-84680000D01*
X258070000Y-78860000D02*
X251330000Y-78860000D01*
X258070000Y-78860000D02*
X258070000Y-84680000D01*
X258070000Y-84680000D02*
X251330000Y-84680000D01*
%TO.C,J1.4*%
X234400000Y-88970000D02*
X234400000Y-88400000D01*
X234400000Y-91510000D02*
X234400000Y-90490000D01*
X234400000Y-93600000D02*
X234400000Y-93030000D01*
X239600000Y-88400000D02*
X234400000Y-88400000D01*
X239600000Y-88970000D02*
X239600000Y-88400000D01*
X239600000Y-91510000D02*
X239600000Y-90490000D01*
X239600000Y-93600000D02*
X234400000Y-93600000D01*
X239600000Y-93600000D02*
X239600000Y-93030000D01*
X241040000Y-93030000D02*
X239600000Y-93030000D01*
%TO.C,SW1*%
X243495000Y-70120000D02*
X249955000Y-70120000D01*
X243495000Y-70150000D02*
X243495000Y-70120000D01*
X243495000Y-72050000D02*
X243495000Y-74650000D01*
X243495000Y-76580000D02*
X243495000Y-76550000D01*
X243495000Y-76580000D02*
X249955000Y-76580000D01*
X249955000Y-70120000D02*
X249955000Y-70150000D01*
X249955000Y-72050000D02*
X249955000Y-74650000D01*
X249955000Y-76580000D02*
X249955000Y-76550000D01*
%TO.C,J1*%
X218035000Y-54000000D02*
X219475000Y-54000000D01*
X219475000Y-53430000D02*
X219475000Y-54000000D01*
X219475000Y-53430000D02*
X224675000Y-53430000D01*
X219475000Y-55520000D02*
X219475000Y-56540000D01*
X219475000Y-58060000D02*
X219475000Y-59080000D01*
X219475000Y-60600000D02*
X219475000Y-61620000D01*
X219475000Y-63140000D02*
X219475000Y-63710000D01*
X219475000Y-63710000D02*
X224675000Y-63710000D01*
X224675000Y-53430000D02*
X224675000Y-54000000D01*
X224675000Y-55520000D02*
X224675000Y-56540000D01*
X224675000Y-58060000D02*
X224675000Y-59080000D01*
X224675000Y-60600000D02*
X224675000Y-61620000D01*
X224675000Y-63140000D02*
X224675000Y-63710000D01*
%TO.C,J1.1.4*%
X211590000Y-87420000D02*
X211590000Y-88220000D01*
X211830000Y-87660000D02*
X211830000Y-93480000D01*
X212630000Y-87420000D02*
X211590000Y-87420000D01*
X212750000Y-87660000D02*
X212750000Y-93480000D01*
X213750000Y-87660000D02*
X213750000Y-93480000D01*
X216851000Y-87660000D02*
X216851000Y-93480000D01*
X218570000Y-87660000D02*
X211830000Y-87660000D01*
X218570000Y-87660000D02*
X218570000Y-93480000D01*
X218570000Y-93480000D02*
X211830000Y-93480000D01*
%TO.C,J1.1*%
X220960000Y-45970000D02*
X222400000Y-45970000D01*
X222400000Y-45400000D02*
X222400000Y-45970000D01*
X222400000Y-45400000D02*
X227600000Y-45400000D01*
X222400000Y-47490000D02*
X222400000Y-48510000D01*
X222400000Y-50030000D02*
X222400000Y-50600000D01*
X222400000Y-50600000D02*
X227600000Y-50600000D01*
X227600000Y-45400000D02*
X227600000Y-45970000D01*
X227600000Y-47490000D02*
X227600000Y-48510000D01*
X227600000Y-50030000D02*
X227600000Y-50600000D01*
%TD*%
M02*
