%TF.GenerationSoftware,KiCad,Pcbnew,8.0.7*%
%TF.CreationDate,2024-12-25T17:19:13+01:00*%
%TF.ProjectId,circuit,63697263-7569-4742-9e6b-696361645f70,v1.1.0*%
%TF.SameCoordinates,Original*%
%TF.FileFunction,Legend,Top*%
%TF.FilePolarity,Positive*%
%FSLAX46Y46*%
G04 Gerber Fmt 4.6, Leading zero omitted, Abs format (unit mm)*
G04 Created by KiCad (PCBNEW 8.0.7) date 2024-12-25 17:19:13*
%MOMM*%
%LPD*%
G01*
G04 APERTURE LIST*
%ADD10C,0.175000*%
%ADD11C,0.150000*%
%ADD12C,0.120000*%
G04 APERTURE END LIST*
D10*
X234389661Y-77161535D02*
X235037280Y-77161535D01*
X235037280Y-77161535D02*
X235113471Y-77199630D01*
X235113471Y-77199630D02*
X235151566Y-77237726D01*
X235151566Y-77237726D02*
X235189661Y-77313916D01*
X235189661Y-77313916D02*
X235189661Y-77428202D01*
X235189661Y-77428202D02*
X235151566Y-77504392D01*
X234884900Y-77161535D02*
X234922995Y-77237726D01*
X234922995Y-77237726D02*
X234922995Y-77390107D01*
X234922995Y-77390107D02*
X234884900Y-77466297D01*
X234884900Y-77466297D02*
X234846804Y-77504392D01*
X234846804Y-77504392D02*
X234770614Y-77542488D01*
X234770614Y-77542488D02*
X234542042Y-77542488D01*
X234542042Y-77542488D02*
X234465852Y-77504392D01*
X234465852Y-77504392D02*
X234427757Y-77466297D01*
X234427757Y-77466297D02*
X234389661Y-77390107D01*
X234389661Y-77390107D02*
X234389661Y-77237726D01*
X234389661Y-77237726D02*
X234427757Y-77161535D01*
X234922995Y-76780582D02*
X234389661Y-76780582D01*
X234122995Y-76780582D02*
X234161090Y-76818678D01*
X234161090Y-76818678D02*
X234199185Y-76780582D01*
X234199185Y-76780582D02*
X234161090Y-76742487D01*
X234161090Y-76742487D02*
X234122995Y-76780582D01*
X234122995Y-76780582D02*
X234199185Y-76780582D01*
X234389661Y-76513916D02*
X234389661Y-76209154D01*
X234122995Y-76399630D02*
X234808709Y-76399630D01*
X234808709Y-76399630D02*
X234884900Y-76361535D01*
X234884900Y-76361535D02*
X234922995Y-76285345D01*
X234922995Y-76285345D02*
X234922995Y-76209154D01*
X234922995Y-75942487D02*
X234122995Y-75942487D01*
X234922995Y-75599630D02*
X234503947Y-75599630D01*
X234503947Y-75599630D02*
X234427757Y-75637725D01*
X234427757Y-75637725D02*
X234389661Y-75713916D01*
X234389661Y-75713916D02*
X234389661Y-75828202D01*
X234389661Y-75828202D02*
X234427757Y-75904392D01*
X234427757Y-75904392D02*
X234465852Y-75942487D01*
X234389661Y-74875820D02*
X234922995Y-74875820D01*
X234389661Y-75218677D02*
X234808709Y-75218677D01*
X234808709Y-75218677D02*
X234884900Y-75180582D01*
X234884900Y-75180582D02*
X234922995Y-75104392D01*
X234922995Y-75104392D02*
X234922995Y-74990106D01*
X234922995Y-74990106D02*
X234884900Y-74913915D01*
X234884900Y-74913915D02*
X234846804Y-74875820D01*
X234922995Y-74494867D02*
X234122995Y-74494867D01*
X234427757Y-74494867D02*
X234389661Y-74418677D01*
X234389661Y-74418677D02*
X234389661Y-74266296D01*
X234389661Y-74266296D02*
X234427757Y-74190105D01*
X234427757Y-74190105D02*
X234465852Y-74152010D01*
X234465852Y-74152010D02*
X234542042Y-74113915D01*
X234542042Y-74113915D02*
X234770614Y-74113915D01*
X234770614Y-74113915D02*
X234846804Y-74152010D01*
X234846804Y-74152010D02*
X234884900Y-74190105D01*
X234884900Y-74190105D02*
X234922995Y-74266296D01*
X234922995Y-74266296D02*
X234922995Y-74418677D01*
X234922995Y-74418677D02*
X234884900Y-74494867D01*
X234846804Y-73771057D02*
X234884900Y-73732962D01*
X234884900Y-73732962D02*
X234922995Y-73771057D01*
X234922995Y-73771057D02*
X234884900Y-73809153D01*
X234884900Y-73809153D02*
X234846804Y-73771057D01*
X234846804Y-73771057D02*
X234922995Y-73771057D01*
X234884900Y-73047248D02*
X234922995Y-73123439D01*
X234922995Y-73123439D02*
X234922995Y-73275820D01*
X234922995Y-73275820D02*
X234884900Y-73352010D01*
X234884900Y-73352010D02*
X234846804Y-73390105D01*
X234846804Y-73390105D02*
X234770614Y-73428201D01*
X234770614Y-73428201D02*
X234542042Y-73428201D01*
X234542042Y-73428201D02*
X234465852Y-73390105D01*
X234465852Y-73390105D02*
X234427757Y-73352010D01*
X234427757Y-73352010D02*
X234389661Y-73275820D01*
X234389661Y-73275820D02*
X234389661Y-73123439D01*
X234389661Y-73123439D02*
X234427757Y-73047248D01*
X234922995Y-72590106D02*
X234884900Y-72666296D01*
X234884900Y-72666296D02*
X234846804Y-72704391D01*
X234846804Y-72704391D02*
X234770614Y-72742487D01*
X234770614Y-72742487D02*
X234542042Y-72742487D01*
X234542042Y-72742487D02*
X234465852Y-72704391D01*
X234465852Y-72704391D02*
X234427757Y-72666296D01*
X234427757Y-72666296D02*
X234389661Y-72590106D01*
X234389661Y-72590106D02*
X234389661Y-72475820D01*
X234389661Y-72475820D02*
X234427757Y-72399629D01*
X234427757Y-72399629D02*
X234465852Y-72361534D01*
X234465852Y-72361534D02*
X234542042Y-72323439D01*
X234542042Y-72323439D02*
X234770614Y-72323439D01*
X234770614Y-72323439D02*
X234846804Y-72361534D01*
X234846804Y-72361534D02*
X234884900Y-72399629D01*
X234884900Y-72399629D02*
X234922995Y-72475820D01*
X234922995Y-72475820D02*
X234922995Y-72590106D01*
X234922995Y-71980581D02*
X234389661Y-71980581D01*
X234465852Y-71980581D02*
X234427757Y-71942486D01*
X234427757Y-71942486D02*
X234389661Y-71866296D01*
X234389661Y-71866296D02*
X234389661Y-71752010D01*
X234389661Y-71752010D02*
X234427757Y-71675819D01*
X234427757Y-71675819D02*
X234503947Y-71637724D01*
X234503947Y-71637724D02*
X234922995Y-71637724D01*
X234503947Y-71637724D02*
X234427757Y-71599629D01*
X234427757Y-71599629D02*
X234389661Y-71523438D01*
X234389661Y-71523438D02*
X234389661Y-71409153D01*
X234389661Y-71409153D02*
X234427757Y-71332962D01*
X234427757Y-71332962D02*
X234503947Y-71294867D01*
X234503947Y-71294867D02*
X234922995Y-71294867D01*
X234084900Y-70342486D02*
X235113471Y-71028200D01*
X234922995Y-69961534D02*
X234884900Y-70037724D01*
X234884900Y-70037724D02*
X234808709Y-70075819D01*
X234808709Y-70075819D02*
X234122995Y-70075819D01*
X234389661Y-69313914D02*
X234922995Y-69313914D01*
X234389661Y-69656771D02*
X234808709Y-69656771D01*
X234808709Y-69656771D02*
X234884900Y-69618676D01*
X234884900Y-69618676D02*
X234922995Y-69542486D01*
X234922995Y-69542486D02*
X234922995Y-69428200D01*
X234922995Y-69428200D02*
X234884900Y-69352009D01*
X234884900Y-69352009D02*
X234846804Y-69313914D01*
X234884900Y-68971057D02*
X234922995Y-68894866D01*
X234922995Y-68894866D02*
X234922995Y-68742485D01*
X234922995Y-68742485D02*
X234884900Y-68666295D01*
X234884900Y-68666295D02*
X234808709Y-68628199D01*
X234808709Y-68628199D02*
X234770614Y-68628199D01*
X234770614Y-68628199D02*
X234694423Y-68666295D01*
X234694423Y-68666295D02*
X234656328Y-68742485D01*
X234656328Y-68742485D02*
X234656328Y-68856771D01*
X234656328Y-68856771D02*
X234618233Y-68932961D01*
X234618233Y-68932961D02*
X234542042Y-68971057D01*
X234542042Y-68971057D02*
X234503947Y-68971057D01*
X234503947Y-68971057D02*
X234427757Y-68932961D01*
X234427757Y-68932961D02*
X234389661Y-68856771D01*
X234389661Y-68856771D02*
X234389661Y-68742485D01*
X234389661Y-68742485D02*
X234427757Y-68666295D01*
X234922995Y-68285342D02*
X234389661Y-68285342D01*
X234465852Y-68285342D02*
X234427757Y-68247247D01*
X234427757Y-68247247D02*
X234389661Y-68171057D01*
X234389661Y-68171057D02*
X234389661Y-68056771D01*
X234389661Y-68056771D02*
X234427757Y-67980580D01*
X234427757Y-67980580D02*
X234503947Y-67942485D01*
X234503947Y-67942485D02*
X234922995Y-67942485D01*
X234503947Y-67942485D02*
X234427757Y-67904390D01*
X234427757Y-67904390D02*
X234389661Y-67828199D01*
X234389661Y-67828199D02*
X234389661Y-67713914D01*
X234389661Y-67713914D02*
X234427757Y-67637723D01*
X234427757Y-67637723D02*
X234503947Y-67599628D01*
X234503947Y-67599628D02*
X234922995Y-67599628D01*
X234922995Y-66875818D02*
X234122995Y-66875818D01*
X234884900Y-66875818D02*
X234922995Y-66952009D01*
X234922995Y-66952009D02*
X234922995Y-67104390D01*
X234922995Y-67104390D02*
X234884900Y-67180580D01*
X234884900Y-67180580D02*
X234846804Y-67218675D01*
X234846804Y-67218675D02*
X234770614Y-67256771D01*
X234770614Y-67256771D02*
X234542042Y-67256771D01*
X234542042Y-67256771D02*
X234465852Y-67218675D01*
X234465852Y-67218675D02*
X234427757Y-67180580D01*
X234427757Y-67180580D02*
X234389661Y-67104390D01*
X234389661Y-67104390D02*
X234389661Y-66952009D01*
X234389661Y-66952009D02*
X234427757Y-66875818D01*
X234922995Y-66380580D02*
X234884900Y-66456770D01*
X234884900Y-66456770D02*
X234808709Y-66494865D01*
X234808709Y-66494865D02*
X234122995Y-66494865D01*
X234084900Y-65504389D02*
X235113471Y-66190103D01*
X234922995Y-65237722D02*
X234122995Y-65237722D01*
X234122995Y-65237722D02*
X234694423Y-64971056D01*
X234694423Y-64971056D02*
X234122995Y-64704389D01*
X234122995Y-64704389D02*
X234922995Y-64704389D01*
X234389661Y-64399627D02*
X234922995Y-64209151D01*
X234389661Y-64018674D02*
X234922995Y-64209151D01*
X234922995Y-64209151D02*
X235113471Y-64285341D01*
X235113471Y-64285341D02*
X235151566Y-64323436D01*
X235151566Y-64323436D02*
X235189661Y-64399627D01*
X234884900Y-63752008D02*
X234922995Y-63637722D01*
X234922995Y-63637722D02*
X234922995Y-63447246D01*
X234922995Y-63447246D02*
X234884900Y-63371055D01*
X234884900Y-63371055D02*
X234846804Y-63332960D01*
X234846804Y-63332960D02*
X234770614Y-63294865D01*
X234770614Y-63294865D02*
X234694423Y-63294865D01*
X234694423Y-63294865D02*
X234618233Y-63332960D01*
X234618233Y-63332960D02*
X234580138Y-63371055D01*
X234580138Y-63371055D02*
X234542042Y-63447246D01*
X234542042Y-63447246D02*
X234503947Y-63599627D01*
X234503947Y-63599627D02*
X234465852Y-63675817D01*
X234465852Y-63675817D02*
X234427757Y-63713912D01*
X234427757Y-63713912D02*
X234351566Y-63752008D01*
X234351566Y-63752008D02*
X234275376Y-63752008D01*
X234275376Y-63752008D02*
X234199185Y-63713912D01*
X234199185Y-63713912D02*
X234161090Y-63675817D01*
X234161090Y-63675817D02*
X234122995Y-63599627D01*
X234122995Y-63599627D02*
X234122995Y-63409150D01*
X234122995Y-63409150D02*
X234161090Y-63294865D01*
X234922995Y-62952007D02*
X234389661Y-62952007D01*
X234122995Y-62952007D02*
X234161090Y-62990103D01*
X234161090Y-62990103D02*
X234199185Y-62952007D01*
X234199185Y-62952007D02*
X234161090Y-62913912D01*
X234161090Y-62913912D02*
X234122995Y-62952007D01*
X234122995Y-62952007D02*
X234199185Y-62952007D01*
X234922995Y-62571055D02*
X234389661Y-62571055D01*
X234465852Y-62571055D02*
X234427757Y-62532960D01*
X234427757Y-62532960D02*
X234389661Y-62456770D01*
X234389661Y-62456770D02*
X234389661Y-62342484D01*
X234389661Y-62342484D02*
X234427757Y-62266293D01*
X234427757Y-62266293D02*
X234503947Y-62228198D01*
X234503947Y-62228198D02*
X234922995Y-62228198D01*
X234503947Y-62228198D02*
X234427757Y-62190103D01*
X234427757Y-62190103D02*
X234389661Y-62113912D01*
X234389661Y-62113912D02*
X234389661Y-61999627D01*
X234389661Y-61999627D02*
X234427757Y-61923436D01*
X234427757Y-61923436D02*
X234503947Y-61885341D01*
X234503947Y-61885341D02*
X234922995Y-61885341D01*
X234922995Y-61047245D02*
X234542042Y-61313912D01*
X234922995Y-61504388D02*
X234122995Y-61504388D01*
X234122995Y-61504388D02*
X234122995Y-61199626D01*
X234122995Y-61199626D02*
X234161090Y-61123436D01*
X234161090Y-61123436D02*
X234199185Y-61085341D01*
X234199185Y-61085341D02*
X234275376Y-61047245D01*
X234275376Y-61047245D02*
X234389661Y-61047245D01*
X234389661Y-61047245D02*
X234465852Y-61085341D01*
X234465852Y-61085341D02*
X234503947Y-61123436D01*
X234503947Y-61123436D02*
X234542042Y-61199626D01*
X234542042Y-61199626D02*
X234542042Y-61504388D01*
X234922995Y-60361531D02*
X234503947Y-60361531D01*
X234503947Y-60361531D02*
X234427757Y-60399626D01*
X234427757Y-60399626D02*
X234389661Y-60475817D01*
X234389661Y-60475817D02*
X234389661Y-60628198D01*
X234389661Y-60628198D02*
X234427757Y-60704388D01*
X234884900Y-60361531D02*
X234922995Y-60437722D01*
X234922995Y-60437722D02*
X234922995Y-60628198D01*
X234922995Y-60628198D02*
X234884900Y-60704388D01*
X234884900Y-60704388D02*
X234808709Y-60742484D01*
X234808709Y-60742484D02*
X234732519Y-60742484D01*
X234732519Y-60742484D02*
X234656328Y-60704388D01*
X234656328Y-60704388D02*
X234618233Y-60628198D01*
X234618233Y-60628198D02*
X234618233Y-60437722D01*
X234618233Y-60437722D02*
X234580138Y-60361531D01*
X234884900Y-59637721D02*
X234922995Y-59713912D01*
X234922995Y-59713912D02*
X234922995Y-59866293D01*
X234922995Y-59866293D02*
X234884900Y-59942483D01*
X234884900Y-59942483D02*
X234846804Y-59980578D01*
X234846804Y-59980578D02*
X234770614Y-60018674D01*
X234770614Y-60018674D02*
X234542042Y-60018674D01*
X234542042Y-60018674D02*
X234465852Y-59980578D01*
X234465852Y-59980578D02*
X234427757Y-59942483D01*
X234427757Y-59942483D02*
X234389661Y-59866293D01*
X234389661Y-59866293D02*
X234389661Y-59713912D01*
X234389661Y-59713912D02*
X234427757Y-59637721D01*
X234922995Y-59294864D02*
X234389661Y-59294864D01*
X234122995Y-59294864D02*
X234161090Y-59332960D01*
X234161090Y-59332960D02*
X234199185Y-59294864D01*
X234199185Y-59294864D02*
X234161090Y-59256769D01*
X234161090Y-59256769D02*
X234122995Y-59294864D01*
X234122995Y-59294864D02*
X234199185Y-59294864D01*
X234389661Y-58913912D02*
X234922995Y-58913912D01*
X234465852Y-58913912D02*
X234427757Y-58875817D01*
X234427757Y-58875817D02*
X234389661Y-58799627D01*
X234389661Y-58799627D02*
X234389661Y-58685341D01*
X234389661Y-58685341D02*
X234427757Y-58609150D01*
X234427757Y-58609150D02*
X234503947Y-58571055D01*
X234503947Y-58571055D02*
X234922995Y-58571055D01*
X234389661Y-57847245D02*
X235037280Y-57847245D01*
X235037280Y-57847245D02*
X235113471Y-57885340D01*
X235113471Y-57885340D02*
X235151566Y-57923436D01*
X235151566Y-57923436D02*
X235189661Y-57999626D01*
X235189661Y-57999626D02*
X235189661Y-58113912D01*
X235189661Y-58113912D02*
X235151566Y-58190102D01*
X234884900Y-57847245D02*
X234922995Y-57923436D01*
X234922995Y-57923436D02*
X234922995Y-58075817D01*
X234922995Y-58075817D02*
X234884900Y-58152007D01*
X234884900Y-58152007D02*
X234846804Y-58190102D01*
X234846804Y-58190102D02*
X234770614Y-58228198D01*
X234770614Y-58228198D02*
X234542042Y-58228198D01*
X234542042Y-58228198D02*
X234465852Y-58190102D01*
X234465852Y-58190102D02*
X234427757Y-58152007D01*
X234427757Y-58152007D02*
X234389661Y-58075817D01*
X234389661Y-58075817D02*
X234389661Y-57923436D01*
X234389661Y-57923436D02*
X234427757Y-57847245D01*
X234503947Y-57199626D02*
X234542042Y-57085340D01*
X234542042Y-57085340D02*
X234580138Y-57047245D01*
X234580138Y-57047245D02*
X234656328Y-57009149D01*
X234656328Y-57009149D02*
X234770614Y-57009149D01*
X234770614Y-57009149D02*
X234846804Y-57047245D01*
X234846804Y-57047245D02*
X234884900Y-57085340D01*
X234884900Y-57085340D02*
X234922995Y-57161530D01*
X234922995Y-57161530D02*
X234922995Y-57466292D01*
X234922995Y-57466292D02*
X234122995Y-57466292D01*
X234122995Y-57466292D02*
X234122995Y-57199626D01*
X234122995Y-57199626D02*
X234161090Y-57123435D01*
X234161090Y-57123435D02*
X234199185Y-57085340D01*
X234199185Y-57085340D02*
X234275376Y-57047245D01*
X234275376Y-57047245D02*
X234351566Y-57047245D01*
X234351566Y-57047245D02*
X234427757Y-57085340D01*
X234427757Y-57085340D02*
X234465852Y-57123435D01*
X234465852Y-57123435D02*
X234503947Y-57199626D01*
X234503947Y-57199626D02*
X234503947Y-57466292D01*
X234389661Y-56323435D02*
X234922995Y-56323435D01*
X234389661Y-56666292D02*
X234808709Y-56666292D01*
X234808709Y-56666292D02*
X234884900Y-56628197D01*
X234884900Y-56628197D02*
X234922995Y-56552007D01*
X234922995Y-56552007D02*
X234922995Y-56437721D01*
X234922995Y-56437721D02*
X234884900Y-56361530D01*
X234884900Y-56361530D02*
X234846804Y-56323435D01*
X234389661Y-56056768D02*
X234389661Y-55752006D01*
X234122995Y-55942482D02*
X234808709Y-55942482D01*
X234808709Y-55942482D02*
X234884900Y-55904387D01*
X234884900Y-55904387D02*
X234922995Y-55828197D01*
X234922995Y-55828197D02*
X234922995Y-55752006D01*
X234389661Y-55599625D02*
X234389661Y-55294863D01*
X234122995Y-55485339D02*
X234808709Y-55485339D01*
X234808709Y-55485339D02*
X234884900Y-55447244D01*
X234884900Y-55447244D02*
X234922995Y-55371054D01*
X234922995Y-55371054D02*
X234922995Y-55294863D01*
X234922995Y-54913911D02*
X234884900Y-54990101D01*
X234884900Y-54990101D02*
X234846804Y-55028196D01*
X234846804Y-55028196D02*
X234770614Y-55066292D01*
X234770614Y-55066292D02*
X234542042Y-55066292D01*
X234542042Y-55066292D02*
X234465852Y-55028196D01*
X234465852Y-55028196D02*
X234427757Y-54990101D01*
X234427757Y-54990101D02*
X234389661Y-54913911D01*
X234389661Y-54913911D02*
X234389661Y-54799625D01*
X234389661Y-54799625D02*
X234427757Y-54723434D01*
X234427757Y-54723434D02*
X234465852Y-54685339D01*
X234465852Y-54685339D02*
X234542042Y-54647244D01*
X234542042Y-54647244D02*
X234770614Y-54647244D01*
X234770614Y-54647244D02*
X234846804Y-54685339D01*
X234846804Y-54685339D02*
X234884900Y-54723434D01*
X234884900Y-54723434D02*
X234922995Y-54799625D01*
X234922995Y-54799625D02*
X234922995Y-54913911D01*
X234389661Y-54304386D02*
X234922995Y-54304386D01*
X234465852Y-54304386D02*
X234427757Y-54266291D01*
X234427757Y-54266291D02*
X234389661Y-54190101D01*
X234389661Y-54190101D02*
X234389661Y-54075815D01*
X234389661Y-54075815D02*
X234427757Y-53999624D01*
X234427757Y-53999624D02*
X234503947Y-53961529D01*
X234503947Y-53961529D02*
X234922995Y-53961529D01*
X234503947Y-53313910D02*
X234542042Y-53199624D01*
X234542042Y-53199624D02*
X234580138Y-53161529D01*
X234580138Y-53161529D02*
X234656328Y-53123433D01*
X234656328Y-53123433D02*
X234770614Y-53123433D01*
X234770614Y-53123433D02*
X234846804Y-53161529D01*
X234846804Y-53161529D02*
X234884900Y-53199624D01*
X234884900Y-53199624D02*
X234922995Y-53275814D01*
X234922995Y-53275814D02*
X234922995Y-53580576D01*
X234922995Y-53580576D02*
X234122995Y-53580576D01*
X234122995Y-53580576D02*
X234122995Y-53313910D01*
X234122995Y-53313910D02*
X234161090Y-53237719D01*
X234161090Y-53237719D02*
X234199185Y-53199624D01*
X234199185Y-53199624D02*
X234275376Y-53161529D01*
X234275376Y-53161529D02*
X234351566Y-53161529D01*
X234351566Y-53161529D02*
X234427757Y-53199624D01*
X234427757Y-53199624D02*
X234465852Y-53237719D01*
X234465852Y-53237719D02*
X234503947Y-53313910D01*
X234503947Y-53313910D02*
X234503947Y-53580576D01*
X234922995Y-52666291D02*
X234884900Y-52742481D01*
X234884900Y-52742481D02*
X234846804Y-52780576D01*
X234846804Y-52780576D02*
X234770614Y-52818672D01*
X234770614Y-52818672D02*
X234542042Y-52818672D01*
X234542042Y-52818672D02*
X234465852Y-52780576D01*
X234465852Y-52780576D02*
X234427757Y-52742481D01*
X234427757Y-52742481D02*
X234389661Y-52666291D01*
X234389661Y-52666291D02*
X234389661Y-52552005D01*
X234389661Y-52552005D02*
X234427757Y-52475814D01*
X234427757Y-52475814D02*
X234465852Y-52437719D01*
X234465852Y-52437719D02*
X234542042Y-52399624D01*
X234542042Y-52399624D02*
X234770614Y-52399624D01*
X234770614Y-52399624D02*
X234846804Y-52437719D01*
X234846804Y-52437719D02*
X234884900Y-52475814D01*
X234884900Y-52475814D02*
X234922995Y-52552005D01*
X234922995Y-52552005D02*
X234922995Y-52666291D01*
X234922995Y-52132957D02*
X234389661Y-51713909D01*
X234389661Y-52132957D02*
X234922995Y-51713909D01*
D11*
X218166666Y-80554819D02*
X218166666Y-81269104D01*
X218166666Y-81269104D02*
X218119047Y-81411961D01*
X218119047Y-81411961D02*
X218023809Y-81507200D01*
X218023809Y-81507200D02*
X217880952Y-81554819D01*
X217880952Y-81554819D02*
X217785714Y-81554819D01*
X218547619Y-80554819D02*
X219166666Y-80554819D01*
X219166666Y-80554819D02*
X218833333Y-80935771D01*
X218833333Y-80935771D02*
X218976190Y-80935771D01*
X218976190Y-80935771D02*
X219071428Y-80983390D01*
X219071428Y-80983390D02*
X219119047Y-81031009D01*
X219119047Y-81031009D02*
X219166666Y-81126247D01*
X219166666Y-81126247D02*
X219166666Y-81364342D01*
X219166666Y-81364342D02*
X219119047Y-81459580D01*
X219119047Y-81459580D02*
X219071428Y-81507200D01*
X219071428Y-81507200D02*
X218976190Y-81554819D01*
X218976190Y-81554819D02*
X218690476Y-81554819D01*
X218690476Y-81554819D02*
X218595238Y-81507200D01*
X218595238Y-81507200D02*
X218547619Y-81459580D01*
X221344523Y-80944819D02*
X220868333Y-80944819D01*
X220868333Y-80944819D02*
X220868333Y-79944819D01*
X222249285Y-80849580D02*
X222201666Y-80897200D01*
X222201666Y-80897200D02*
X222058809Y-80944819D01*
X222058809Y-80944819D02*
X221963571Y-80944819D01*
X221963571Y-80944819D02*
X221820714Y-80897200D01*
X221820714Y-80897200D02*
X221725476Y-80801961D01*
X221725476Y-80801961D02*
X221677857Y-80706723D01*
X221677857Y-80706723D02*
X221630238Y-80516247D01*
X221630238Y-80516247D02*
X221630238Y-80373390D01*
X221630238Y-80373390D02*
X221677857Y-80182914D01*
X221677857Y-80182914D02*
X221725476Y-80087676D01*
X221725476Y-80087676D02*
X221820714Y-79992438D01*
X221820714Y-79992438D02*
X221963571Y-79944819D01*
X221963571Y-79944819D02*
X222058809Y-79944819D01*
X222058809Y-79944819D02*
X222201666Y-79992438D01*
X222201666Y-79992438D02*
X222249285Y-80040057D01*
X222677857Y-80944819D02*
X222677857Y-79944819D01*
X222677857Y-79944819D02*
X222915952Y-79944819D01*
X222915952Y-79944819D02*
X223058809Y-79992438D01*
X223058809Y-79992438D02*
X223154047Y-80087676D01*
X223154047Y-80087676D02*
X223201666Y-80182914D01*
X223201666Y-80182914D02*
X223249285Y-80373390D01*
X223249285Y-80373390D02*
X223249285Y-80516247D01*
X223249285Y-80516247D02*
X223201666Y-80706723D01*
X223201666Y-80706723D02*
X223154047Y-80801961D01*
X223154047Y-80801961D02*
X223058809Y-80897200D01*
X223058809Y-80897200D02*
X222915952Y-80944819D01*
X222915952Y-80944819D02*
X222677857Y-80944819D01*
X253988095Y-86054819D02*
X253988095Y-86769104D01*
X253988095Y-86769104D02*
X253940476Y-86911961D01*
X253940476Y-86911961D02*
X253845238Y-87007200D01*
X253845238Y-87007200D02*
X253702381Y-87054819D01*
X253702381Y-87054819D02*
X253607143Y-87054819D01*
X254988095Y-87054819D02*
X254416667Y-87054819D01*
X254702381Y-87054819D02*
X254702381Y-86054819D01*
X254702381Y-86054819D02*
X254607143Y-86197676D01*
X254607143Y-86197676D02*
X254511905Y-86292914D01*
X254511905Y-86292914D02*
X254416667Y-86340533D01*
X255416667Y-86959580D02*
X255464286Y-87007200D01*
X255464286Y-87007200D02*
X255416667Y-87054819D01*
X255416667Y-87054819D02*
X255369048Y-87007200D01*
X255369048Y-87007200D02*
X255416667Y-86959580D01*
X255416667Y-86959580D02*
X255416667Y-87054819D01*
X256416666Y-87054819D02*
X255845238Y-87054819D01*
X256130952Y-87054819D02*
X256130952Y-86054819D01*
X256130952Y-86054819D02*
X256035714Y-86197676D01*
X256035714Y-86197676D02*
X255940476Y-86292914D01*
X255940476Y-86292914D02*
X255845238Y-86340533D01*
X256845238Y-86959580D02*
X256892857Y-87007200D01*
X256892857Y-87007200D02*
X256845238Y-87054819D01*
X256845238Y-87054819D02*
X256797619Y-87007200D01*
X256797619Y-87007200D02*
X256845238Y-86959580D01*
X256845238Y-86959580D02*
X256845238Y-87054819D01*
X257226190Y-86054819D02*
X257845237Y-86054819D01*
X257845237Y-86054819D02*
X257511904Y-86435771D01*
X257511904Y-86435771D02*
X257654761Y-86435771D01*
X257654761Y-86435771D02*
X257749999Y-86483390D01*
X257749999Y-86483390D02*
X257797618Y-86531009D01*
X257797618Y-86531009D02*
X257845237Y-86626247D01*
X257845237Y-86626247D02*
X257845237Y-86864342D01*
X257845237Y-86864342D02*
X257797618Y-86959580D01*
X257797618Y-86959580D02*
X257749999Y-87007200D01*
X257749999Y-87007200D02*
X257654761Y-87054819D01*
X257654761Y-87054819D02*
X257369047Y-87054819D01*
X257369047Y-87054819D02*
X257273809Y-87007200D01*
X257273809Y-87007200D02*
X257226190Y-86959580D01*
X258993247Y-91471429D02*
X259031342Y-91357143D01*
X259031342Y-91357143D02*
X259069438Y-91319048D01*
X259069438Y-91319048D02*
X259145628Y-91280952D01*
X259145628Y-91280952D02*
X259259914Y-91280952D01*
X259259914Y-91280952D02*
X259336104Y-91319048D01*
X259336104Y-91319048D02*
X259374200Y-91357143D01*
X259374200Y-91357143D02*
X259412295Y-91433333D01*
X259412295Y-91433333D02*
X259412295Y-91738095D01*
X259412295Y-91738095D02*
X258612295Y-91738095D01*
X258612295Y-91738095D02*
X258612295Y-91471429D01*
X258612295Y-91471429D02*
X258650390Y-91395238D01*
X258650390Y-91395238D02*
X258688485Y-91357143D01*
X258688485Y-91357143D02*
X258764676Y-91319048D01*
X258764676Y-91319048D02*
X258840866Y-91319048D01*
X258840866Y-91319048D02*
X258917057Y-91357143D01*
X258917057Y-91357143D02*
X258955152Y-91395238D01*
X258955152Y-91395238D02*
X258993247Y-91471429D01*
X258993247Y-91471429D02*
X258993247Y-91738095D01*
X258878961Y-90595238D02*
X259412295Y-90595238D01*
X258878961Y-90938095D02*
X259298009Y-90938095D01*
X259298009Y-90938095D02*
X259374200Y-90900000D01*
X259374200Y-90900000D02*
X259412295Y-90823810D01*
X259412295Y-90823810D02*
X259412295Y-90709524D01*
X259412295Y-90709524D02*
X259374200Y-90633333D01*
X259374200Y-90633333D02*
X259336104Y-90595238D01*
X258878961Y-90328571D02*
X258878961Y-90023809D01*
X258612295Y-90214285D02*
X259298009Y-90214285D01*
X259298009Y-90214285D02*
X259374200Y-90176190D01*
X259374200Y-90176190D02*
X259412295Y-90100000D01*
X259412295Y-90100000D02*
X259412295Y-90023809D01*
X258878961Y-89871428D02*
X258878961Y-89566666D01*
X258612295Y-89757142D02*
X259298009Y-89757142D01*
X259298009Y-89757142D02*
X259374200Y-89719047D01*
X259374200Y-89719047D02*
X259412295Y-89642857D01*
X259412295Y-89642857D02*
X259412295Y-89566666D01*
X259412295Y-89185714D02*
X259374200Y-89261904D01*
X259374200Y-89261904D02*
X259336104Y-89299999D01*
X259336104Y-89299999D02*
X259259914Y-89338095D01*
X259259914Y-89338095D02*
X259031342Y-89338095D01*
X259031342Y-89338095D02*
X258955152Y-89299999D01*
X258955152Y-89299999D02*
X258917057Y-89261904D01*
X258917057Y-89261904D02*
X258878961Y-89185714D01*
X258878961Y-89185714D02*
X258878961Y-89071428D01*
X258878961Y-89071428D02*
X258917057Y-88995237D01*
X258917057Y-88995237D02*
X258955152Y-88957142D01*
X258955152Y-88957142D02*
X259031342Y-88919047D01*
X259031342Y-88919047D02*
X259259914Y-88919047D01*
X259259914Y-88919047D02*
X259336104Y-88957142D01*
X259336104Y-88957142D02*
X259374200Y-88995237D01*
X259374200Y-88995237D02*
X259412295Y-89071428D01*
X259412295Y-89071428D02*
X259412295Y-89185714D01*
X258878961Y-88576189D02*
X259412295Y-88576189D01*
X258955152Y-88576189D02*
X258917057Y-88538094D01*
X258917057Y-88538094D02*
X258878961Y-88461904D01*
X258878961Y-88461904D02*
X258878961Y-88347618D01*
X258878961Y-88347618D02*
X258917057Y-88271427D01*
X258917057Y-88271427D02*
X258993247Y-88233332D01*
X258993247Y-88233332D02*
X259412295Y-88233332D01*
X258612295Y-86861903D02*
X258612295Y-87242855D01*
X258612295Y-87242855D02*
X258993247Y-87280951D01*
X258993247Y-87280951D02*
X258955152Y-87242855D01*
X258955152Y-87242855D02*
X258917057Y-87166665D01*
X258917057Y-87166665D02*
X258917057Y-86976189D01*
X258917057Y-86976189D02*
X258955152Y-86899998D01*
X258955152Y-86899998D02*
X258993247Y-86861903D01*
X258993247Y-86861903D02*
X259069438Y-86823808D01*
X259069438Y-86823808D02*
X259259914Y-86823808D01*
X259259914Y-86823808D02*
X259336104Y-86861903D01*
X259336104Y-86861903D02*
X259374200Y-86899998D01*
X259374200Y-86899998D02*
X259412295Y-86976189D01*
X259412295Y-86976189D02*
X259412295Y-87166665D01*
X259412295Y-87166665D02*
X259374200Y-87242855D01*
X259374200Y-87242855D02*
X259336104Y-87280951D01*
X253988095Y-43754819D02*
X253988095Y-44469104D01*
X253988095Y-44469104D02*
X253940476Y-44611961D01*
X253940476Y-44611961D02*
X253845238Y-44707200D01*
X253845238Y-44707200D02*
X253702381Y-44754819D01*
X253702381Y-44754819D02*
X253607143Y-44754819D01*
X254988095Y-44754819D02*
X254416667Y-44754819D01*
X254702381Y-44754819D02*
X254702381Y-43754819D01*
X254702381Y-43754819D02*
X254607143Y-43897676D01*
X254607143Y-43897676D02*
X254511905Y-43992914D01*
X254511905Y-43992914D02*
X254416667Y-44040533D01*
X255416667Y-44659580D02*
X255464286Y-44707200D01*
X255464286Y-44707200D02*
X255416667Y-44754819D01*
X255416667Y-44754819D02*
X255369048Y-44707200D01*
X255369048Y-44707200D02*
X255416667Y-44659580D01*
X255416667Y-44659580D02*
X255416667Y-44754819D01*
X256416666Y-44754819D02*
X255845238Y-44754819D01*
X256130952Y-44754819D02*
X256130952Y-43754819D01*
X256130952Y-43754819D02*
X256035714Y-43897676D01*
X256035714Y-43897676D02*
X255940476Y-43992914D01*
X255940476Y-43992914D02*
X255845238Y-44040533D01*
X256845238Y-44659580D02*
X256892857Y-44707200D01*
X256892857Y-44707200D02*
X256845238Y-44754819D01*
X256845238Y-44754819D02*
X256797619Y-44707200D01*
X256797619Y-44707200D02*
X256845238Y-44659580D01*
X256845238Y-44659580D02*
X256845238Y-44754819D01*
X257845237Y-44754819D02*
X257273809Y-44754819D01*
X257559523Y-44754819D02*
X257559523Y-43754819D01*
X257559523Y-43754819D02*
X257464285Y-43897676D01*
X257464285Y-43897676D02*
X257369047Y-43992914D01*
X257369047Y-43992914D02*
X257273809Y-44040533D01*
X258993247Y-49171429D02*
X259031342Y-49057143D01*
X259031342Y-49057143D02*
X259069438Y-49019048D01*
X259069438Y-49019048D02*
X259145628Y-48980952D01*
X259145628Y-48980952D02*
X259259914Y-48980952D01*
X259259914Y-48980952D02*
X259336104Y-49019048D01*
X259336104Y-49019048D02*
X259374200Y-49057143D01*
X259374200Y-49057143D02*
X259412295Y-49133333D01*
X259412295Y-49133333D02*
X259412295Y-49438095D01*
X259412295Y-49438095D02*
X258612295Y-49438095D01*
X258612295Y-49438095D02*
X258612295Y-49171429D01*
X258612295Y-49171429D02*
X258650390Y-49095238D01*
X258650390Y-49095238D02*
X258688485Y-49057143D01*
X258688485Y-49057143D02*
X258764676Y-49019048D01*
X258764676Y-49019048D02*
X258840866Y-49019048D01*
X258840866Y-49019048D02*
X258917057Y-49057143D01*
X258917057Y-49057143D02*
X258955152Y-49095238D01*
X258955152Y-49095238D02*
X258993247Y-49171429D01*
X258993247Y-49171429D02*
X258993247Y-49438095D01*
X258878961Y-48295238D02*
X259412295Y-48295238D01*
X258878961Y-48638095D02*
X259298009Y-48638095D01*
X259298009Y-48638095D02*
X259374200Y-48600000D01*
X259374200Y-48600000D02*
X259412295Y-48523810D01*
X259412295Y-48523810D02*
X259412295Y-48409524D01*
X259412295Y-48409524D02*
X259374200Y-48333333D01*
X259374200Y-48333333D02*
X259336104Y-48295238D01*
X258878961Y-48028571D02*
X258878961Y-47723809D01*
X258612295Y-47914285D02*
X259298009Y-47914285D01*
X259298009Y-47914285D02*
X259374200Y-47876190D01*
X259374200Y-47876190D02*
X259412295Y-47800000D01*
X259412295Y-47800000D02*
X259412295Y-47723809D01*
X258878961Y-47571428D02*
X258878961Y-47266666D01*
X258612295Y-47457142D02*
X259298009Y-47457142D01*
X259298009Y-47457142D02*
X259374200Y-47419047D01*
X259374200Y-47419047D02*
X259412295Y-47342857D01*
X259412295Y-47342857D02*
X259412295Y-47266666D01*
X259412295Y-46885714D02*
X259374200Y-46961904D01*
X259374200Y-46961904D02*
X259336104Y-46999999D01*
X259336104Y-46999999D02*
X259259914Y-47038095D01*
X259259914Y-47038095D02*
X259031342Y-47038095D01*
X259031342Y-47038095D02*
X258955152Y-46999999D01*
X258955152Y-46999999D02*
X258917057Y-46961904D01*
X258917057Y-46961904D02*
X258878961Y-46885714D01*
X258878961Y-46885714D02*
X258878961Y-46771428D01*
X258878961Y-46771428D02*
X258917057Y-46695237D01*
X258917057Y-46695237D02*
X258955152Y-46657142D01*
X258955152Y-46657142D02*
X259031342Y-46619047D01*
X259031342Y-46619047D02*
X259259914Y-46619047D01*
X259259914Y-46619047D02*
X259336104Y-46657142D01*
X259336104Y-46657142D02*
X259374200Y-46695237D01*
X259374200Y-46695237D02*
X259412295Y-46771428D01*
X259412295Y-46771428D02*
X259412295Y-46885714D01*
X258878961Y-46276189D02*
X259412295Y-46276189D01*
X258955152Y-46276189D02*
X258917057Y-46238094D01*
X258917057Y-46238094D02*
X258878961Y-46161904D01*
X258878961Y-46161904D02*
X258878961Y-46047618D01*
X258878961Y-46047618D02*
X258917057Y-45971427D01*
X258917057Y-45971427D02*
X258993247Y-45933332D01*
X258993247Y-45933332D02*
X259412295Y-45933332D01*
X259412295Y-44523808D02*
X259412295Y-44980951D01*
X259412295Y-44752379D02*
X258612295Y-44752379D01*
X258612295Y-44752379D02*
X258726580Y-44828570D01*
X258726580Y-44828570D02*
X258802771Y-44904760D01*
X258802771Y-44904760D02*
X258840866Y-44980951D01*
X228352381Y-87554819D02*
X228352381Y-88269104D01*
X228352381Y-88269104D02*
X228304762Y-88411961D01*
X228304762Y-88411961D02*
X228209524Y-88507200D01*
X228209524Y-88507200D02*
X228066667Y-88554819D01*
X228066667Y-88554819D02*
X227971429Y-88554819D01*
X229352381Y-88554819D02*
X228780953Y-88554819D01*
X229066667Y-88554819D02*
X229066667Y-87554819D01*
X229066667Y-87554819D02*
X228971429Y-87697676D01*
X228971429Y-87697676D02*
X228876191Y-87792914D01*
X228876191Y-87792914D02*
X228780953Y-87840533D01*
X229780953Y-88459580D02*
X229828572Y-88507200D01*
X229828572Y-88507200D02*
X229780953Y-88554819D01*
X229780953Y-88554819D02*
X229733334Y-88507200D01*
X229733334Y-88507200D02*
X229780953Y-88459580D01*
X229780953Y-88459580D02*
X229780953Y-88554819D01*
X230161905Y-87554819D02*
X230780952Y-87554819D01*
X230780952Y-87554819D02*
X230447619Y-87935771D01*
X230447619Y-87935771D02*
X230590476Y-87935771D01*
X230590476Y-87935771D02*
X230685714Y-87983390D01*
X230685714Y-87983390D02*
X230733333Y-88031009D01*
X230733333Y-88031009D02*
X230780952Y-88126247D01*
X230780952Y-88126247D02*
X230780952Y-88364342D01*
X230780952Y-88364342D02*
X230733333Y-88459580D01*
X230733333Y-88459580D02*
X230685714Y-88507200D01*
X230685714Y-88507200D02*
X230590476Y-88554819D01*
X230590476Y-88554819D02*
X230304762Y-88554819D01*
X230304762Y-88554819D02*
X230209524Y-88507200D01*
X230209524Y-88507200D02*
X230161905Y-88459580D01*
X221190475Y-94238485D02*
X221228571Y-94200390D01*
X221228571Y-94200390D02*
X221304761Y-94162295D01*
X221304761Y-94162295D02*
X221495237Y-94162295D01*
X221495237Y-94162295D02*
X221571428Y-94200390D01*
X221571428Y-94200390D02*
X221609523Y-94238485D01*
X221609523Y-94238485D02*
X221647618Y-94314676D01*
X221647618Y-94314676D02*
X221647618Y-94390866D01*
X221647618Y-94390866D02*
X221609523Y-94505152D01*
X221609523Y-94505152D02*
X221152380Y-94962295D01*
X221152380Y-94962295D02*
X221647618Y-94962295D01*
X221914285Y-94162295D02*
X222447619Y-94962295D01*
X222447619Y-94162295D02*
X221914285Y-94962295D01*
X222714285Y-94238485D02*
X222752381Y-94200390D01*
X222752381Y-94200390D02*
X222828571Y-94162295D01*
X222828571Y-94162295D02*
X223019047Y-94162295D01*
X223019047Y-94162295D02*
X223095238Y-94200390D01*
X223095238Y-94200390D02*
X223133333Y-94238485D01*
X223133333Y-94238485D02*
X223171428Y-94314676D01*
X223171428Y-94314676D02*
X223171428Y-94390866D01*
X223171428Y-94390866D02*
X223133333Y-94505152D01*
X223133333Y-94505152D02*
X222676190Y-94962295D01*
X222676190Y-94962295D02*
X223171428Y-94962295D01*
X224123810Y-94962295D02*
X224123810Y-94162295D01*
X224123810Y-94162295D02*
X224390476Y-94733723D01*
X224390476Y-94733723D02*
X224657143Y-94162295D01*
X224657143Y-94162295D02*
X224657143Y-94962295D01*
X225380953Y-94962295D02*
X225380953Y-94543247D01*
X225380953Y-94543247D02*
X225342858Y-94467057D01*
X225342858Y-94467057D02*
X225266667Y-94428961D01*
X225266667Y-94428961D02*
X225114286Y-94428961D01*
X225114286Y-94428961D02*
X225038096Y-94467057D01*
X225380953Y-94924200D02*
X225304762Y-94962295D01*
X225304762Y-94962295D02*
X225114286Y-94962295D01*
X225114286Y-94962295D02*
X225038096Y-94924200D01*
X225038096Y-94924200D02*
X225000000Y-94848009D01*
X225000000Y-94848009D02*
X225000000Y-94771819D01*
X225000000Y-94771819D02*
X225038096Y-94695628D01*
X225038096Y-94695628D02*
X225114286Y-94657533D01*
X225114286Y-94657533D02*
X225304762Y-94657533D01*
X225304762Y-94657533D02*
X225380953Y-94619438D01*
X225647620Y-94428961D02*
X225952382Y-94428961D01*
X225761906Y-94162295D02*
X225761906Y-94848009D01*
X225761906Y-94848009D02*
X225800001Y-94924200D01*
X225800001Y-94924200D02*
X225876191Y-94962295D01*
X225876191Y-94962295D02*
X225952382Y-94962295D01*
X226219049Y-94962295D02*
X226219049Y-94428961D01*
X226219049Y-94581342D02*
X226257144Y-94505152D01*
X226257144Y-94505152D02*
X226295239Y-94467057D01*
X226295239Y-94467057D02*
X226371430Y-94428961D01*
X226371430Y-94428961D02*
X226447620Y-94428961D01*
X226714287Y-94962295D02*
X226714287Y-94428961D01*
X226714287Y-94162295D02*
X226676191Y-94200390D01*
X226676191Y-94200390D02*
X226714287Y-94238485D01*
X226714287Y-94238485D02*
X226752382Y-94200390D01*
X226752382Y-94200390D02*
X226714287Y-94162295D01*
X226714287Y-94162295D02*
X226714287Y-94238485D01*
X227019048Y-94962295D02*
X227438096Y-94428961D01*
X227019048Y-94428961D02*
X227438096Y-94962295D01*
X228809525Y-94886104D02*
X228771429Y-94924200D01*
X228771429Y-94924200D02*
X228657144Y-94962295D01*
X228657144Y-94962295D02*
X228580953Y-94962295D01*
X228580953Y-94962295D02*
X228466667Y-94924200D01*
X228466667Y-94924200D02*
X228390477Y-94848009D01*
X228390477Y-94848009D02*
X228352382Y-94771819D01*
X228352382Y-94771819D02*
X228314286Y-94619438D01*
X228314286Y-94619438D02*
X228314286Y-94505152D01*
X228314286Y-94505152D02*
X228352382Y-94352771D01*
X228352382Y-94352771D02*
X228390477Y-94276580D01*
X228390477Y-94276580D02*
X228466667Y-94200390D01*
X228466667Y-94200390D02*
X228580953Y-94162295D01*
X228580953Y-94162295D02*
X228657144Y-94162295D01*
X228657144Y-94162295D02*
X228771429Y-94200390D01*
X228771429Y-94200390D02*
X228809525Y-94238485D01*
X221496667Y-78386104D02*
X221458571Y-78424200D01*
X221458571Y-78424200D02*
X221344286Y-78462295D01*
X221344286Y-78462295D02*
X221268095Y-78462295D01*
X221268095Y-78462295D02*
X221153809Y-78424200D01*
X221153809Y-78424200D02*
X221077619Y-78348009D01*
X221077619Y-78348009D02*
X221039524Y-78271819D01*
X221039524Y-78271819D02*
X221001428Y-78119438D01*
X221001428Y-78119438D02*
X221001428Y-78005152D01*
X221001428Y-78005152D02*
X221039524Y-77852771D01*
X221039524Y-77852771D02*
X221077619Y-77776580D01*
X221077619Y-77776580D02*
X221153809Y-77700390D01*
X221153809Y-77700390D02*
X221268095Y-77662295D01*
X221268095Y-77662295D02*
X221344286Y-77662295D01*
X221344286Y-77662295D02*
X221458571Y-77700390D01*
X221458571Y-77700390D02*
X221496667Y-77738485D01*
X221801428Y-77738485D02*
X221839524Y-77700390D01*
X221839524Y-77700390D02*
X221915714Y-77662295D01*
X221915714Y-77662295D02*
X222106190Y-77662295D01*
X222106190Y-77662295D02*
X222182381Y-77700390D01*
X222182381Y-77700390D02*
X222220476Y-77738485D01*
X222220476Y-77738485D02*
X222258571Y-77814676D01*
X222258571Y-77814676D02*
X222258571Y-77890866D01*
X222258571Y-77890866D02*
X222220476Y-78005152D01*
X222220476Y-78005152D02*
X221763333Y-78462295D01*
X221763333Y-78462295D02*
X222258571Y-78462295D01*
X212588095Y-43754819D02*
X212588095Y-44469104D01*
X212588095Y-44469104D02*
X212540476Y-44611961D01*
X212540476Y-44611961D02*
X212445238Y-44707200D01*
X212445238Y-44707200D02*
X212302381Y-44754819D01*
X212302381Y-44754819D02*
X212207143Y-44754819D01*
X213588095Y-44754819D02*
X213016667Y-44754819D01*
X213302381Y-44754819D02*
X213302381Y-43754819D01*
X213302381Y-43754819D02*
X213207143Y-43897676D01*
X213207143Y-43897676D02*
X213111905Y-43992914D01*
X213111905Y-43992914D02*
X213016667Y-44040533D01*
X214016667Y-44659580D02*
X214064286Y-44707200D01*
X214064286Y-44707200D02*
X214016667Y-44754819D01*
X214016667Y-44754819D02*
X213969048Y-44707200D01*
X213969048Y-44707200D02*
X214016667Y-44659580D01*
X214016667Y-44659580D02*
X214016667Y-44754819D01*
X215016666Y-44754819D02*
X214445238Y-44754819D01*
X214730952Y-44754819D02*
X214730952Y-43754819D01*
X214730952Y-43754819D02*
X214635714Y-43897676D01*
X214635714Y-43897676D02*
X214540476Y-43992914D01*
X214540476Y-43992914D02*
X214445238Y-44040533D01*
X215445238Y-44659580D02*
X215492857Y-44707200D01*
X215492857Y-44707200D02*
X215445238Y-44754819D01*
X215445238Y-44754819D02*
X215397619Y-44707200D01*
X215397619Y-44707200D02*
X215445238Y-44659580D01*
X215445238Y-44659580D02*
X215445238Y-44754819D01*
X215873809Y-43850057D02*
X215921428Y-43802438D01*
X215921428Y-43802438D02*
X216016666Y-43754819D01*
X216016666Y-43754819D02*
X216254761Y-43754819D01*
X216254761Y-43754819D02*
X216349999Y-43802438D01*
X216349999Y-43802438D02*
X216397618Y-43850057D01*
X216397618Y-43850057D02*
X216445237Y-43945295D01*
X216445237Y-43945295D02*
X216445237Y-44040533D01*
X216445237Y-44040533D02*
X216397618Y-44183390D01*
X216397618Y-44183390D02*
X215826190Y-44754819D01*
X215826190Y-44754819D02*
X216445237Y-44754819D01*
X210793247Y-49171429D02*
X210831342Y-49057143D01*
X210831342Y-49057143D02*
X210869438Y-49019048D01*
X210869438Y-49019048D02*
X210945628Y-48980952D01*
X210945628Y-48980952D02*
X211059914Y-48980952D01*
X211059914Y-48980952D02*
X211136104Y-49019048D01*
X211136104Y-49019048D02*
X211174200Y-49057143D01*
X211174200Y-49057143D02*
X211212295Y-49133333D01*
X211212295Y-49133333D02*
X211212295Y-49438095D01*
X211212295Y-49438095D02*
X210412295Y-49438095D01*
X210412295Y-49438095D02*
X210412295Y-49171429D01*
X210412295Y-49171429D02*
X210450390Y-49095238D01*
X210450390Y-49095238D02*
X210488485Y-49057143D01*
X210488485Y-49057143D02*
X210564676Y-49019048D01*
X210564676Y-49019048D02*
X210640866Y-49019048D01*
X210640866Y-49019048D02*
X210717057Y-49057143D01*
X210717057Y-49057143D02*
X210755152Y-49095238D01*
X210755152Y-49095238D02*
X210793247Y-49171429D01*
X210793247Y-49171429D02*
X210793247Y-49438095D01*
X210678961Y-48295238D02*
X211212295Y-48295238D01*
X210678961Y-48638095D02*
X211098009Y-48638095D01*
X211098009Y-48638095D02*
X211174200Y-48600000D01*
X211174200Y-48600000D02*
X211212295Y-48523810D01*
X211212295Y-48523810D02*
X211212295Y-48409524D01*
X211212295Y-48409524D02*
X211174200Y-48333333D01*
X211174200Y-48333333D02*
X211136104Y-48295238D01*
X210678961Y-48028571D02*
X210678961Y-47723809D01*
X210412295Y-47914285D02*
X211098009Y-47914285D01*
X211098009Y-47914285D02*
X211174200Y-47876190D01*
X211174200Y-47876190D02*
X211212295Y-47800000D01*
X211212295Y-47800000D02*
X211212295Y-47723809D01*
X210678961Y-47571428D02*
X210678961Y-47266666D01*
X210412295Y-47457142D02*
X211098009Y-47457142D01*
X211098009Y-47457142D02*
X211174200Y-47419047D01*
X211174200Y-47419047D02*
X211212295Y-47342857D01*
X211212295Y-47342857D02*
X211212295Y-47266666D01*
X211212295Y-46885714D02*
X211174200Y-46961904D01*
X211174200Y-46961904D02*
X211136104Y-46999999D01*
X211136104Y-46999999D02*
X211059914Y-47038095D01*
X211059914Y-47038095D02*
X210831342Y-47038095D01*
X210831342Y-47038095D02*
X210755152Y-46999999D01*
X210755152Y-46999999D02*
X210717057Y-46961904D01*
X210717057Y-46961904D02*
X210678961Y-46885714D01*
X210678961Y-46885714D02*
X210678961Y-46771428D01*
X210678961Y-46771428D02*
X210717057Y-46695237D01*
X210717057Y-46695237D02*
X210755152Y-46657142D01*
X210755152Y-46657142D02*
X210831342Y-46619047D01*
X210831342Y-46619047D02*
X211059914Y-46619047D01*
X211059914Y-46619047D02*
X211136104Y-46657142D01*
X211136104Y-46657142D02*
X211174200Y-46695237D01*
X211174200Y-46695237D02*
X211212295Y-46771428D01*
X211212295Y-46771428D02*
X211212295Y-46885714D01*
X210678961Y-46276189D02*
X211212295Y-46276189D01*
X210755152Y-46276189D02*
X210717057Y-46238094D01*
X210717057Y-46238094D02*
X210678961Y-46161904D01*
X210678961Y-46161904D02*
X210678961Y-46047618D01*
X210678961Y-46047618D02*
X210717057Y-45971427D01*
X210717057Y-45971427D02*
X210793247Y-45933332D01*
X210793247Y-45933332D02*
X211212295Y-45933332D01*
X210488485Y-44980951D02*
X210450390Y-44942855D01*
X210450390Y-44942855D02*
X210412295Y-44866665D01*
X210412295Y-44866665D02*
X210412295Y-44676189D01*
X210412295Y-44676189D02*
X210450390Y-44599998D01*
X210450390Y-44599998D02*
X210488485Y-44561903D01*
X210488485Y-44561903D02*
X210564676Y-44523808D01*
X210564676Y-44523808D02*
X210640866Y-44523808D01*
X210640866Y-44523808D02*
X210755152Y-44561903D01*
X210755152Y-44561903D02*
X211212295Y-45019046D01*
X211212295Y-45019046D02*
X211212295Y-44523808D01*
X221486667Y-71516104D02*
X221448571Y-71554200D01*
X221448571Y-71554200D02*
X221334286Y-71592295D01*
X221334286Y-71592295D02*
X221258095Y-71592295D01*
X221258095Y-71592295D02*
X221143809Y-71554200D01*
X221143809Y-71554200D02*
X221067619Y-71478009D01*
X221067619Y-71478009D02*
X221029524Y-71401819D01*
X221029524Y-71401819D02*
X220991428Y-71249438D01*
X220991428Y-71249438D02*
X220991428Y-71135152D01*
X220991428Y-71135152D02*
X221029524Y-70982771D01*
X221029524Y-70982771D02*
X221067619Y-70906580D01*
X221067619Y-70906580D02*
X221143809Y-70830390D01*
X221143809Y-70830390D02*
X221258095Y-70792295D01*
X221258095Y-70792295D02*
X221334286Y-70792295D01*
X221334286Y-70792295D02*
X221448571Y-70830390D01*
X221448571Y-70830390D02*
X221486667Y-70868485D01*
X222248571Y-71592295D02*
X221791428Y-71592295D01*
X222020000Y-71592295D02*
X222020000Y-70792295D01*
X222020000Y-70792295D02*
X221943809Y-70906580D01*
X221943809Y-70906580D02*
X221867619Y-70982771D01*
X221867619Y-70982771D02*
X221791428Y-71020866D01*
X248426666Y-50654819D02*
X248426666Y-51369104D01*
X248426666Y-51369104D02*
X248379047Y-51511961D01*
X248379047Y-51511961D02*
X248283809Y-51607200D01*
X248283809Y-51607200D02*
X248140952Y-51654819D01*
X248140952Y-51654819D02*
X248045714Y-51654819D01*
X249331428Y-50988152D02*
X249331428Y-51654819D01*
X249093333Y-50607200D02*
X248855238Y-51321485D01*
X248855238Y-51321485D02*
X249474285Y-51321485D01*
X257180952Y-66262295D02*
X256914285Y-65881342D01*
X256723809Y-66262295D02*
X256723809Y-65462295D01*
X256723809Y-65462295D02*
X257028571Y-65462295D01*
X257028571Y-65462295D02*
X257104761Y-65500390D01*
X257104761Y-65500390D02*
X257142856Y-65538485D01*
X257142856Y-65538485D02*
X257180952Y-65614676D01*
X257180952Y-65614676D02*
X257180952Y-65728961D01*
X257180952Y-65728961D02*
X257142856Y-65805152D01*
X257142856Y-65805152D02*
X257104761Y-65843247D01*
X257104761Y-65843247D02*
X257028571Y-65881342D01*
X257028571Y-65881342D02*
X256723809Y-65881342D01*
X257752380Y-65462295D02*
X257752380Y-66033723D01*
X257752380Y-66033723D02*
X257714285Y-66148009D01*
X257714285Y-66148009D02*
X257638094Y-66224200D01*
X257638094Y-66224200D02*
X257523809Y-66262295D01*
X257523809Y-66262295D02*
X257447618Y-66262295D01*
X258476190Y-65728961D02*
X258476190Y-66262295D01*
X258285714Y-65424200D02*
X258095237Y-65995628D01*
X258095237Y-65995628D02*
X258590476Y-65995628D01*
X259276190Y-65462295D02*
X258895238Y-65462295D01*
X258895238Y-65462295D02*
X258857142Y-65843247D01*
X258857142Y-65843247D02*
X258895238Y-65805152D01*
X258895238Y-65805152D02*
X258971428Y-65767057D01*
X258971428Y-65767057D02*
X259161904Y-65767057D01*
X259161904Y-65767057D02*
X259238095Y-65805152D01*
X259238095Y-65805152D02*
X259276190Y-65843247D01*
X259276190Y-65843247D02*
X259314285Y-65919438D01*
X259314285Y-65919438D02*
X259314285Y-66109914D01*
X259314285Y-66109914D02*
X259276190Y-66186104D01*
X259276190Y-66186104D02*
X259238095Y-66224200D01*
X259238095Y-66224200D02*
X259161904Y-66262295D01*
X259161904Y-66262295D02*
X258971428Y-66262295D01*
X258971428Y-66262295D02*
X258895238Y-66224200D01*
X258895238Y-66224200D02*
X258857142Y-66186104D01*
X212588095Y-63254819D02*
X212588095Y-63969104D01*
X212588095Y-63969104D02*
X212540476Y-64111961D01*
X212540476Y-64111961D02*
X212445238Y-64207200D01*
X212445238Y-64207200D02*
X212302381Y-64254819D01*
X212302381Y-64254819D02*
X212207143Y-64254819D01*
X213588095Y-64254819D02*
X213016667Y-64254819D01*
X213302381Y-64254819D02*
X213302381Y-63254819D01*
X213302381Y-63254819D02*
X213207143Y-63397676D01*
X213207143Y-63397676D02*
X213111905Y-63492914D01*
X213111905Y-63492914D02*
X213016667Y-63540533D01*
X214016667Y-64159580D02*
X214064286Y-64207200D01*
X214064286Y-64207200D02*
X214016667Y-64254819D01*
X214016667Y-64254819D02*
X213969048Y-64207200D01*
X213969048Y-64207200D02*
X214016667Y-64159580D01*
X214016667Y-64159580D02*
X214016667Y-64254819D01*
X214445238Y-63350057D02*
X214492857Y-63302438D01*
X214492857Y-63302438D02*
X214588095Y-63254819D01*
X214588095Y-63254819D02*
X214826190Y-63254819D01*
X214826190Y-63254819D02*
X214921428Y-63302438D01*
X214921428Y-63302438D02*
X214969047Y-63350057D01*
X214969047Y-63350057D02*
X215016666Y-63445295D01*
X215016666Y-63445295D02*
X215016666Y-63540533D01*
X215016666Y-63540533D02*
X214969047Y-63683390D01*
X214969047Y-63683390D02*
X214397619Y-64254819D01*
X214397619Y-64254819D02*
X215016666Y-64254819D01*
X215445238Y-64159580D02*
X215492857Y-64207200D01*
X215492857Y-64207200D02*
X215445238Y-64254819D01*
X215445238Y-64254819D02*
X215397619Y-64207200D01*
X215397619Y-64207200D02*
X215445238Y-64159580D01*
X215445238Y-64159580D02*
X215445238Y-64254819D01*
X215873809Y-63350057D02*
X215921428Y-63302438D01*
X215921428Y-63302438D02*
X216016666Y-63254819D01*
X216016666Y-63254819D02*
X216254761Y-63254819D01*
X216254761Y-63254819D02*
X216349999Y-63302438D01*
X216349999Y-63302438D02*
X216397618Y-63350057D01*
X216397618Y-63350057D02*
X216445237Y-63445295D01*
X216445237Y-63445295D02*
X216445237Y-63540533D01*
X216445237Y-63540533D02*
X216397618Y-63683390D01*
X216397618Y-63683390D02*
X215826190Y-64254819D01*
X215826190Y-64254819D02*
X216445237Y-64254819D01*
X210793247Y-68671429D02*
X210831342Y-68557143D01*
X210831342Y-68557143D02*
X210869438Y-68519048D01*
X210869438Y-68519048D02*
X210945628Y-68480952D01*
X210945628Y-68480952D02*
X211059914Y-68480952D01*
X211059914Y-68480952D02*
X211136104Y-68519048D01*
X211136104Y-68519048D02*
X211174200Y-68557143D01*
X211174200Y-68557143D02*
X211212295Y-68633333D01*
X211212295Y-68633333D02*
X211212295Y-68938095D01*
X211212295Y-68938095D02*
X210412295Y-68938095D01*
X210412295Y-68938095D02*
X210412295Y-68671429D01*
X210412295Y-68671429D02*
X210450390Y-68595238D01*
X210450390Y-68595238D02*
X210488485Y-68557143D01*
X210488485Y-68557143D02*
X210564676Y-68519048D01*
X210564676Y-68519048D02*
X210640866Y-68519048D01*
X210640866Y-68519048D02*
X210717057Y-68557143D01*
X210717057Y-68557143D02*
X210755152Y-68595238D01*
X210755152Y-68595238D02*
X210793247Y-68671429D01*
X210793247Y-68671429D02*
X210793247Y-68938095D01*
X210678961Y-67795238D02*
X211212295Y-67795238D01*
X210678961Y-68138095D02*
X211098009Y-68138095D01*
X211098009Y-68138095D02*
X211174200Y-68100000D01*
X211174200Y-68100000D02*
X211212295Y-68023810D01*
X211212295Y-68023810D02*
X211212295Y-67909524D01*
X211212295Y-67909524D02*
X211174200Y-67833333D01*
X211174200Y-67833333D02*
X211136104Y-67795238D01*
X210678961Y-67528571D02*
X210678961Y-67223809D01*
X210412295Y-67414285D02*
X211098009Y-67414285D01*
X211098009Y-67414285D02*
X211174200Y-67376190D01*
X211174200Y-67376190D02*
X211212295Y-67300000D01*
X211212295Y-67300000D02*
X211212295Y-67223809D01*
X210678961Y-67071428D02*
X210678961Y-66766666D01*
X210412295Y-66957142D02*
X211098009Y-66957142D01*
X211098009Y-66957142D02*
X211174200Y-66919047D01*
X211174200Y-66919047D02*
X211212295Y-66842857D01*
X211212295Y-66842857D02*
X211212295Y-66766666D01*
X211212295Y-66385714D02*
X211174200Y-66461904D01*
X211174200Y-66461904D02*
X211136104Y-66499999D01*
X211136104Y-66499999D02*
X211059914Y-66538095D01*
X211059914Y-66538095D02*
X210831342Y-66538095D01*
X210831342Y-66538095D02*
X210755152Y-66499999D01*
X210755152Y-66499999D02*
X210717057Y-66461904D01*
X210717057Y-66461904D02*
X210678961Y-66385714D01*
X210678961Y-66385714D02*
X210678961Y-66271428D01*
X210678961Y-66271428D02*
X210717057Y-66195237D01*
X210717057Y-66195237D02*
X210755152Y-66157142D01*
X210755152Y-66157142D02*
X210831342Y-66119047D01*
X210831342Y-66119047D02*
X211059914Y-66119047D01*
X211059914Y-66119047D02*
X211136104Y-66157142D01*
X211136104Y-66157142D02*
X211174200Y-66195237D01*
X211174200Y-66195237D02*
X211212295Y-66271428D01*
X211212295Y-66271428D02*
X211212295Y-66385714D01*
X210678961Y-65776189D02*
X211212295Y-65776189D01*
X210755152Y-65776189D02*
X210717057Y-65738094D01*
X210717057Y-65738094D02*
X210678961Y-65661904D01*
X210678961Y-65661904D02*
X210678961Y-65547618D01*
X210678961Y-65547618D02*
X210717057Y-65471427D01*
X210717057Y-65471427D02*
X210793247Y-65433332D01*
X210793247Y-65433332D02*
X211212295Y-65433332D01*
X210678961Y-64099998D02*
X211212295Y-64099998D01*
X210374200Y-64290474D02*
X210945628Y-64480951D01*
X210945628Y-64480951D02*
X210945628Y-63985712D01*
X226368095Y-52234819D02*
X226368095Y-53044342D01*
X226368095Y-53044342D02*
X226415714Y-53139580D01*
X226415714Y-53139580D02*
X226463333Y-53187200D01*
X226463333Y-53187200D02*
X226558571Y-53234819D01*
X226558571Y-53234819D02*
X226749047Y-53234819D01*
X226749047Y-53234819D02*
X226844285Y-53187200D01*
X226844285Y-53187200D02*
X226891904Y-53139580D01*
X226891904Y-53139580D02*
X226939523Y-53044342D01*
X226939523Y-53044342D02*
X226939523Y-52234819D01*
X227939523Y-53234819D02*
X227368095Y-53234819D01*
X227653809Y-53234819D02*
X227653809Y-52234819D01*
X227653809Y-52234819D02*
X227558571Y-52377676D01*
X227558571Y-52377676D02*
X227463333Y-52472914D01*
X227463333Y-52472914D02*
X227368095Y-52520533D01*
X227533723Y-68033334D02*
X227533723Y-67652381D01*
X227762295Y-68109524D02*
X226962295Y-67842857D01*
X226962295Y-67842857D02*
X227762295Y-67576191D01*
X226962295Y-67423810D02*
X226962295Y-66966667D01*
X227762295Y-67195239D02*
X226962295Y-67195239D01*
X227762295Y-66700000D02*
X227228961Y-66700000D01*
X227305152Y-66700000D02*
X227267057Y-66661905D01*
X227267057Y-66661905D02*
X227228961Y-66585715D01*
X227228961Y-66585715D02*
X227228961Y-66471429D01*
X227228961Y-66471429D02*
X227267057Y-66395238D01*
X227267057Y-66395238D02*
X227343247Y-66357143D01*
X227343247Y-66357143D02*
X227762295Y-66357143D01*
X227343247Y-66357143D02*
X227267057Y-66319048D01*
X227267057Y-66319048D02*
X227228961Y-66242857D01*
X227228961Y-66242857D02*
X227228961Y-66128572D01*
X227228961Y-66128572D02*
X227267057Y-66052381D01*
X227267057Y-66052381D02*
X227343247Y-66014286D01*
X227343247Y-66014286D02*
X227762295Y-66014286D01*
X227724200Y-65328571D02*
X227762295Y-65404762D01*
X227762295Y-65404762D02*
X227762295Y-65557143D01*
X227762295Y-65557143D02*
X227724200Y-65633333D01*
X227724200Y-65633333D02*
X227648009Y-65671429D01*
X227648009Y-65671429D02*
X227343247Y-65671429D01*
X227343247Y-65671429D02*
X227267057Y-65633333D01*
X227267057Y-65633333D02*
X227228961Y-65557143D01*
X227228961Y-65557143D02*
X227228961Y-65404762D01*
X227228961Y-65404762D02*
X227267057Y-65328571D01*
X227267057Y-65328571D02*
X227343247Y-65290476D01*
X227343247Y-65290476D02*
X227419438Y-65290476D01*
X227419438Y-65290476D02*
X227495628Y-65671429D01*
X227228961Y-64604762D02*
X227876580Y-64604762D01*
X227876580Y-64604762D02*
X227952771Y-64642857D01*
X227952771Y-64642857D02*
X227990866Y-64680953D01*
X227990866Y-64680953D02*
X228028961Y-64757143D01*
X228028961Y-64757143D02*
X228028961Y-64871429D01*
X228028961Y-64871429D02*
X227990866Y-64947619D01*
X227724200Y-64604762D02*
X227762295Y-64680953D01*
X227762295Y-64680953D02*
X227762295Y-64833334D01*
X227762295Y-64833334D02*
X227724200Y-64909524D01*
X227724200Y-64909524D02*
X227686104Y-64947619D01*
X227686104Y-64947619D02*
X227609914Y-64985715D01*
X227609914Y-64985715D02*
X227381342Y-64985715D01*
X227381342Y-64985715D02*
X227305152Y-64947619D01*
X227305152Y-64947619D02*
X227267057Y-64909524D01*
X227267057Y-64909524D02*
X227228961Y-64833334D01*
X227228961Y-64833334D02*
X227228961Y-64680953D01*
X227228961Y-64680953D02*
X227267057Y-64604762D01*
X227762295Y-63880952D02*
X227343247Y-63880952D01*
X227343247Y-63880952D02*
X227267057Y-63919047D01*
X227267057Y-63919047D02*
X227228961Y-63995238D01*
X227228961Y-63995238D02*
X227228961Y-64147619D01*
X227228961Y-64147619D02*
X227267057Y-64223809D01*
X227724200Y-63880952D02*
X227762295Y-63957143D01*
X227762295Y-63957143D02*
X227762295Y-64147619D01*
X227762295Y-64147619D02*
X227724200Y-64223809D01*
X227724200Y-64223809D02*
X227648009Y-64261905D01*
X227648009Y-64261905D02*
X227571819Y-64261905D01*
X227571819Y-64261905D02*
X227495628Y-64223809D01*
X227495628Y-64223809D02*
X227457533Y-64147619D01*
X227457533Y-64147619D02*
X227457533Y-63957143D01*
X227457533Y-63957143D02*
X227419438Y-63880952D01*
X226962295Y-63576190D02*
X226962295Y-63080952D01*
X226962295Y-63080952D02*
X227267057Y-63347618D01*
X227267057Y-63347618D02*
X227267057Y-63233333D01*
X227267057Y-63233333D02*
X227305152Y-63157142D01*
X227305152Y-63157142D02*
X227343247Y-63119047D01*
X227343247Y-63119047D02*
X227419438Y-63080952D01*
X227419438Y-63080952D02*
X227609914Y-63080952D01*
X227609914Y-63080952D02*
X227686104Y-63119047D01*
X227686104Y-63119047D02*
X227724200Y-63157142D01*
X227724200Y-63157142D02*
X227762295Y-63233333D01*
X227762295Y-63233333D02*
X227762295Y-63461904D01*
X227762295Y-63461904D02*
X227724200Y-63538095D01*
X227724200Y-63538095D02*
X227686104Y-63576190D01*
X227038485Y-62776190D02*
X227000390Y-62738094D01*
X227000390Y-62738094D02*
X226962295Y-62661904D01*
X226962295Y-62661904D02*
X226962295Y-62471428D01*
X226962295Y-62471428D02*
X227000390Y-62395237D01*
X227000390Y-62395237D02*
X227038485Y-62357142D01*
X227038485Y-62357142D02*
X227114676Y-62319047D01*
X227114676Y-62319047D02*
X227190866Y-62319047D01*
X227190866Y-62319047D02*
X227305152Y-62357142D01*
X227305152Y-62357142D02*
X227762295Y-62814285D01*
X227762295Y-62814285D02*
X227762295Y-62319047D01*
X227305152Y-61861904D02*
X227267057Y-61938094D01*
X227267057Y-61938094D02*
X227228961Y-61976189D01*
X227228961Y-61976189D02*
X227152771Y-62014285D01*
X227152771Y-62014285D02*
X227114676Y-62014285D01*
X227114676Y-62014285D02*
X227038485Y-61976189D01*
X227038485Y-61976189D02*
X227000390Y-61938094D01*
X227000390Y-61938094D02*
X226962295Y-61861904D01*
X226962295Y-61861904D02*
X226962295Y-61709523D01*
X226962295Y-61709523D02*
X227000390Y-61633332D01*
X227000390Y-61633332D02*
X227038485Y-61595237D01*
X227038485Y-61595237D02*
X227114676Y-61557142D01*
X227114676Y-61557142D02*
X227152771Y-61557142D01*
X227152771Y-61557142D02*
X227228961Y-61595237D01*
X227228961Y-61595237D02*
X227267057Y-61633332D01*
X227267057Y-61633332D02*
X227305152Y-61709523D01*
X227305152Y-61709523D02*
X227305152Y-61861904D01*
X227305152Y-61861904D02*
X227343247Y-61938094D01*
X227343247Y-61938094D02*
X227381342Y-61976189D01*
X227381342Y-61976189D02*
X227457533Y-62014285D01*
X227457533Y-62014285D02*
X227609914Y-62014285D01*
X227609914Y-62014285D02*
X227686104Y-61976189D01*
X227686104Y-61976189D02*
X227724200Y-61938094D01*
X227724200Y-61938094D02*
X227762295Y-61861904D01*
X227762295Y-61861904D02*
X227762295Y-61709523D01*
X227762295Y-61709523D02*
X227724200Y-61633332D01*
X227724200Y-61633332D02*
X227686104Y-61595237D01*
X227686104Y-61595237D02*
X227609914Y-61557142D01*
X227609914Y-61557142D02*
X227457533Y-61557142D01*
X227457533Y-61557142D02*
X227381342Y-61595237D01*
X227381342Y-61595237D02*
X227343247Y-61633332D01*
X227343247Y-61633332D02*
X227305152Y-61709523D01*
X227762295Y-61214284D02*
X226962295Y-61214284D01*
X226962295Y-61214284D02*
X226962295Y-60909522D01*
X226962295Y-60909522D02*
X227000390Y-60833332D01*
X227000390Y-60833332D02*
X227038485Y-60795237D01*
X227038485Y-60795237D02*
X227114676Y-60757141D01*
X227114676Y-60757141D02*
X227228961Y-60757141D01*
X227228961Y-60757141D02*
X227305152Y-60795237D01*
X227305152Y-60795237D02*
X227343247Y-60833332D01*
X227343247Y-60833332D02*
X227381342Y-60909522D01*
X227381342Y-60909522D02*
X227381342Y-61214284D01*
X227457533Y-60414284D02*
X227457533Y-59804761D01*
X227762295Y-59423808D02*
X226962295Y-59423808D01*
X226962295Y-59423808D02*
X226962295Y-59119046D01*
X226962295Y-59119046D02*
X227000390Y-59042856D01*
X227000390Y-59042856D02*
X227038485Y-59004761D01*
X227038485Y-59004761D02*
X227114676Y-58966665D01*
X227114676Y-58966665D02*
X227228961Y-58966665D01*
X227228961Y-58966665D02*
X227305152Y-59004761D01*
X227305152Y-59004761D02*
X227343247Y-59042856D01*
X227343247Y-59042856D02*
X227381342Y-59119046D01*
X227381342Y-59119046D02*
X227381342Y-59423808D01*
X246866666Y-86554819D02*
X246866666Y-87269104D01*
X246866666Y-87269104D02*
X246819047Y-87411961D01*
X246819047Y-87411961D02*
X246723809Y-87507200D01*
X246723809Y-87507200D02*
X246580952Y-87554819D01*
X246580952Y-87554819D02*
X246485714Y-87554819D01*
X247295238Y-86650057D02*
X247342857Y-86602438D01*
X247342857Y-86602438D02*
X247438095Y-86554819D01*
X247438095Y-86554819D02*
X247676190Y-86554819D01*
X247676190Y-86554819D02*
X247771428Y-86602438D01*
X247771428Y-86602438D02*
X247819047Y-86650057D01*
X247819047Y-86650057D02*
X247866666Y-86745295D01*
X247866666Y-86745295D02*
X247866666Y-86840533D01*
X247866666Y-86840533D02*
X247819047Y-86983390D01*
X247819047Y-86983390D02*
X247247619Y-87554819D01*
X247247619Y-87554819D02*
X247866666Y-87554819D01*
X241425000Y-77993723D02*
X241805953Y-77993723D01*
X241348810Y-78222295D02*
X241615477Y-77422295D01*
X241615477Y-77422295D02*
X241882143Y-78222295D01*
X242034524Y-77422295D02*
X242301191Y-78222295D01*
X242301191Y-78222295D02*
X242567857Y-77422295D01*
X243291667Y-78222295D02*
X243025000Y-77841342D01*
X242834524Y-78222295D02*
X242834524Y-77422295D01*
X242834524Y-77422295D02*
X243139286Y-77422295D01*
X243139286Y-77422295D02*
X243215476Y-77460390D01*
X243215476Y-77460390D02*
X243253571Y-77498485D01*
X243253571Y-77498485D02*
X243291667Y-77574676D01*
X243291667Y-77574676D02*
X243291667Y-77688961D01*
X243291667Y-77688961D02*
X243253571Y-77765152D01*
X243253571Y-77765152D02*
X243215476Y-77803247D01*
X243215476Y-77803247D02*
X243139286Y-77841342D01*
X243139286Y-77841342D02*
X242834524Y-77841342D01*
X243634524Y-77917533D02*
X244244048Y-77917533D01*
X244625000Y-78222295D02*
X244625000Y-77422295D01*
X244967856Y-78184200D02*
X245082142Y-78222295D01*
X245082142Y-78222295D02*
X245272618Y-78222295D01*
X245272618Y-78222295D02*
X245348809Y-78184200D01*
X245348809Y-78184200D02*
X245386904Y-78146104D01*
X245386904Y-78146104D02*
X245424999Y-78069914D01*
X245424999Y-78069914D02*
X245424999Y-77993723D01*
X245424999Y-77993723D02*
X245386904Y-77917533D01*
X245386904Y-77917533D02*
X245348809Y-77879438D01*
X245348809Y-77879438D02*
X245272618Y-77841342D01*
X245272618Y-77841342D02*
X245120237Y-77803247D01*
X245120237Y-77803247D02*
X245044047Y-77765152D01*
X245044047Y-77765152D02*
X245005952Y-77727057D01*
X245005952Y-77727057D02*
X244967856Y-77650866D01*
X244967856Y-77650866D02*
X244967856Y-77574676D01*
X244967856Y-77574676D02*
X245005952Y-77498485D01*
X245005952Y-77498485D02*
X245044047Y-77460390D01*
X245044047Y-77460390D02*
X245120237Y-77422295D01*
X245120237Y-77422295D02*
X245310714Y-77422295D01*
X245310714Y-77422295D02*
X245424999Y-77460390D01*
X245767857Y-78222295D02*
X245767857Y-77422295D01*
X245767857Y-77422295D02*
X246072619Y-77422295D01*
X246072619Y-77422295D02*
X246148809Y-77460390D01*
X246148809Y-77460390D02*
X246186904Y-77498485D01*
X246186904Y-77498485D02*
X246225000Y-77574676D01*
X246225000Y-77574676D02*
X246225000Y-77688961D01*
X246225000Y-77688961D02*
X246186904Y-77765152D01*
X246186904Y-77765152D02*
X246148809Y-77803247D01*
X246148809Y-77803247D02*
X246072619Y-77841342D01*
X246072619Y-77841342D02*
X245767857Y-77841342D01*
X224673809Y-67678628D02*
X224673809Y-68154819D01*
X224340476Y-67154819D02*
X224673809Y-67678628D01*
X224673809Y-67678628D02*
X225007142Y-67154819D01*
X225864285Y-68154819D02*
X225292857Y-68154819D01*
X225578571Y-68154819D02*
X225578571Y-67154819D01*
X225578571Y-67154819D02*
X225483333Y-67297676D01*
X225483333Y-67297676D02*
X225388095Y-67392914D01*
X225388095Y-67392914D02*
X225292857Y-67440533D01*
X220986104Y-76128571D02*
X221024200Y-76166667D01*
X221024200Y-76166667D02*
X221062295Y-76280952D01*
X221062295Y-76280952D02*
X221062295Y-76357143D01*
X221062295Y-76357143D02*
X221024200Y-76471429D01*
X221024200Y-76471429D02*
X220948009Y-76547619D01*
X220948009Y-76547619D02*
X220871819Y-76585714D01*
X220871819Y-76585714D02*
X220719438Y-76623810D01*
X220719438Y-76623810D02*
X220605152Y-76623810D01*
X220605152Y-76623810D02*
X220452771Y-76585714D01*
X220452771Y-76585714D02*
X220376580Y-76547619D01*
X220376580Y-76547619D02*
X220300390Y-76471429D01*
X220300390Y-76471429D02*
X220262295Y-76357143D01*
X220262295Y-76357143D02*
X220262295Y-76280952D01*
X220262295Y-76280952D02*
X220300390Y-76166667D01*
X220300390Y-76166667D02*
X220338485Y-76128571D01*
X221062295Y-75785714D02*
X220528961Y-75785714D01*
X220681342Y-75785714D02*
X220605152Y-75747619D01*
X220605152Y-75747619D02*
X220567057Y-75709524D01*
X220567057Y-75709524D02*
X220528961Y-75633333D01*
X220528961Y-75633333D02*
X220528961Y-75557143D01*
X220528961Y-75366667D02*
X221062295Y-75176191D01*
X220528961Y-74985714D02*
X221062295Y-75176191D01*
X221062295Y-75176191D02*
X221252771Y-75252381D01*
X221252771Y-75252381D02*
X221290866Y-75290476D01*
X221290866Y-75290476D02*
X221328961Y-75366667D01*
X221024200Y-74719048D02*
X221062295Y-74642857D01*
X221062295Y-74642857D02*
X221062295Y-74490476D01*
X221062295Y-74490476D02*
X221024200Y-74414286D01*
X221024200Y-74414286D02*
X220948009Y-74376190D01*
X220948009Y-74376190D02*
X220909914Y-74376190D01*
X220909914Y-74376190D02*
X220833723Y-74414286D01*
X220833723Y-74414286D02*
X220795628Y-74490476D01*
X220795628Y-74490476D02*
X220795628Y-74604762D01*
X220795628Y-74604762D02*
X220757533Y-74680952D01*
X220757533Y-74680952D02*
X220681342Y-74719048D01*
X220681342Y-74719048D02*
X220643247Y-74719048D01*
X220643247Y-74719048D02*
X220567057Y-74680952D01*
X220567057Y-74680952D02*
X220528961Y-74604762D01*
X220528961Y-74604762D02*
X220528961Y-74490476D01*
X220528961Y-74490476D02*
X220567057Y-74414286D01*
X220528961Y-74147619D02*
X220528961Y-73842857D01*
X220262295Y-74033333D02*
X220948009Y-74033333D01*
X220948009Y-74033333D02*
X221024200Y-73995238D01*
X221024200Y-73995238D02*
X221062295Y-73919048D01*
X221062295Y-73919048D02*
X221062295Y-73842857D01*
X221062295Y-73233333D02*
X220643247Y-73233333D01*
X220643247Y-73233333D02*
X220567057Y-73271428D01*
X220567057Y-73271428D02*
X220528961Y-73347619D01*
X220528961Y-73347619D02*
X220528961Y-73500000D01*
X220528961Y-73500000D02*
X220567057Y-73576190D01*
X221024200Y-73233333D02*
X221062295Y-73309524D01*
X221062295Y-73309524D02*
X221062295Y-73500000D01*
X221062295Y-73500000D02*
X221024200Y-73576190D01*
X221024200Y-73576190D02*
X220948009Y-73614286D01*
X220948009Y-73614286D02*
X220871819Y-73614286D01*
X220871819Y-73614286D02*
X220795628Y-73576190D01*
X220795628Y-73576190D02*
X220757533Y-73500000D01*
X220757533Y-73500000D02*
X220757533Y-73309524D01*
X220757533Y-73309524D02*
X220719438Y-73233333D01*
X221062295Y-72738095D02*
X221024200Y-72814285D01*
X221024200Y-72814285D02*
X220948009Y-72852380D01*
X220948009Y-72852380D02*
X220262295Y-72852380D01*
X238666667Y-71406104D02*
X238628571Y-71444200D01*
X238628571Y-71444200D02*
X238514286Y-71482295D01*
X238514286Y-71482295D02*
X238438095Y-71482295D01*
X238438095Y-71482295D02*
X238323809Y-71444200D01*
X238323809Y-71444200D02*
X238247619Y-71368009D01*
X238247619Y-71368009D02*
X238209524Y-71291819D01*
X238209524Y-71291819D02*
X238171428Y-71139438D01*
X238171428Y-71139438D02*
X238171428Y-71025152D01*
X238171428Y-71025152D02*
X238209524Y-70872771D01*
X238209524Y-70872771D02*
X238247619Y-70796580D01*
X238247619Y-70796580D02*
X238323809Y-70720390D01*
X238323809Y-70720390D02*
X238438095Y-70682295D01*
X238438095Y-70682295D02*
X238514286Y-70682295D01*
X238514286Y-70682295D02*
X238628571Y-70720390D01*
X238628571Y-70720390D02*
X238666667Y-70758485D01*
X238933333Y-70682295D02*
X239428571Y-70682295D01*
X239428571Y-70682295D02*
X239161905Y-70987057D01*
X239161905Y-70987057D02*
X239276190Y-70987057D01*
X239276190Y-70987057D02*
X239352381Y-71025152D01*
X239352381Y-71025152D02*
X239390476Y-71063247D01*
X239390476Y-71063247D02*
X239428571Y-71139438D01*
X239428571Y-71139438D02*
X239428571Y-71329914D01*
X239428571Y-71329914D02*
X239390476Y-71406104D01*
X239390476Y-71406104D02*
X239352381Y-71444200D01*
X239352381Y-71444200D02*
X239276190Y-71482295D01*
X239276190Y-71482295D02*
X239047619Y-71482295D01*
X239047619Y-71482295D02*
X238971428Y-71444200D01*
X238971428Y-71444200D02*
X238933333Y-71406104D01*
X254088095Y-77254819D02*
X254088095Y-77969104D01*
X254088095Y-77969104D02*
X254040476Y-78111961D01*
X254040476Y-78111961D02*
X253945238Y-78207200D01*
X253945238Y-78207200D02*
X253802381Y-78254819D01*
X253802381Y-78254819D02*
X253707143Y-78254819D01*
X255088095Y-78254819D02*
X254516667Y-78254819D01*
X254802381Y-78254819D02*
X254802381Y-77254819D01*
X254802381Y-77254819D02*
X254707143Y-77397676D01*
X254707143Y-77397676D02*
X254611905Y-77492914D01*
X254611905Y-77492914D02*
X254516667Y-77540533D01*
X255516667Y-78159580D02*
X255564286Y-78207200D01*
X255564286Y-78207200D02*
X255516667Y-78254819D01*
X255516667Y-78254819D02*
X255469048Y-78207200D01*
X255469048Y-78207200D02*
X255516667Y-78159580D01*
X255516667Y-78159580D02*
X255516667Y-78254819D01*
X255945238Y-77350057D02*
X255992857Y-77302438D01*
X255992857Y-77302438D02*
X256088095Y-77254819D01*
X256088095Y-77254819D02*
X256326190Y-77254819D01*
X256326190Y-77254819D02*
X256421428Y-77302438D01*
X256421428Y-77302438D02*
X256469047Y-77350057D01*
X256469047Y-77350057D02*
X256516666Y-77445295D01*
X256516666Y-77445295D02*
X256516666Y-77540533D01*
X256516666Y-77540533D02*
X256469047Y-77683390D01*
X256469047Y-77683390D02*
X255897619Y-78254819D01*
X255897619Y-78254819D02*
X256516666Y-78254819D01*
X256945238Y-78159580D02*
X256992857Y-78207200D01*
X256992857Y-78207200D02*
X256945238Y-78254819D01*
X256945238Y-78254819D02*
X256897619Y-78207200D01*
X256897619Y-78207200D02*
X256945238Y-78159580D01*
X256945238Y-78159580D02*
X256945238Y-78254819D01*
X257945237Y-78254819D02*
X257373809Y-78254819D01*
X257659523Y-78254819D02*
X257659523Y-77254819D01*
X257659523Y-77254819D02*
X257564285Y-77397676D01*
X257564285Y-77397676D02*
X257469047Y-77492914D01*
X257469047Y-77492914D02*
X257373809Y-77540533D01*
X259093247Y-82671429D02*
X259131342Y-82557143D01*
X259131342Y-82557143D02*
X259169438Y-82519048D01*
X259169438Y-82519048D02*
X259245628Y-82480952D01*
X259245628Y-82480952D02*
X259359914Y-82480952D01*
X259359914Y-82480952D02*
X259436104Y-82519048D01*
X259436104Y-82519048D02*
X259474200Y-82557143D01*
X259474200Y-82557143D02*
X259512295Y-82633333D01*
X259512295Y-82633333D02*
X259512295Y-82938095D01*
X259512295Y-82938095D02*
X258712295Y-82938095D01*
X258712295Y-82938095D02*
X258712295Y-82671429D01*
X258712295Y-82671429D02*
X258750390Y-82595238D01*
X258750390Y-82595238D02*
X258788485Y-82557143D01*
X258788485Y-82557143D02*
X258864676Y-82519048D01*
X258864676Y-82519048D02*
X258940866Y-82519048D01*
X258940866Y-82519048D02*
X259017057Y-82557143D01*
X259017057Y-82557143D02*
X259055152Y-82595238D01*
X259055152Y-82595238D02*
X259093247Y-82671429D01*
X259093247Y-82671429D02*
X259093247Y-82938095D01*
X258978961Y-81795238D02*
X259512295Y-81795238D01*
X258978961Y-82138095D02*
X259398009Y-82138095D01*
X259398009Y-82138095D02*
X259474200Y-82100000D01*
X259474200Y-82100000D02*
X259512295Y-82023810D01*
X259512295Y-82023810D02*
X259512295Y-81909524D01*
X259512295Y-81909524D02*
X259474200Y-81833333D01*
X259474200Y-81833333D02*
X259436104Y-81795238D01*
X258978961Y-81528571D02*
X258978961Y-81223809D01*
X258712295Y-81414285D02*
X259398009Y-81414285D01*
X259398009Y-81414285D02*
X259474200Y-81376190D01*
X259474200Y-81376190D02*
X259512295Y-81300000D01*
X259512295Y-81300000D02*
X259512295Y-81223809D01*
X258978961Y-81071428D02*
X258978961Y-80766666D01*
X258712295Y-80957142D02*
X259398009Y-80957142D01*
X259398009Y-80957142D02*
X259474200Y-80919047D01*
X259474200Y-80919047D02*
X259512295Y-80842857D01*
X259512295Y-80842857D02*
X259512295Y-80766666D01*
X259512295Y-80385714D02*
X259474200Y-80461904D01*
X259474200Y-80461904D02*
X259436104Y-80499999D01*
X259436104Y-80499999D02*
X259359914Y-80538095D01*
X259359914Y-80538095D02*
X259131342Y-80538095D01*
X259131342Y-80538095D02*
X259055152Y-80499999D01*
X259055152Y-80499999D02*
X259017057Y-80461904D01*
X259017057Y-80461904D02*
X258978961Y-80385714D01*
X258978961Y-80385714D02*
X258978961Y-80271428D01*
X258978961Y-80271428D02*
X259017057Y-80195237D01*
X259017057Y-80195237D02*
X259055152Y-80157142D01*
X259055152Y-80157142D02*
X259131342Y-80119047D01*
X259131342Y-80119047D02*
X259359914Y-80119047D01*
X259359914Y-80119047D02*
X259436104Y-80157142D01*
X259436104Y-80157142D02*
X259474200Y-80195237D01*
X259474200Y-80195237D02*
X259512295Y-80271428D01*
X259512295Y-80271428D02*
X259512295Y-80385714D01*
X258978961Y-79776189D02*
X259512295Y-79776189D01*
X259055152Y-79776189D02*
X259017057Y-79738094D01*
X259017057Y-79738094D02*
X258978961Y-79661904D01*
X258978961Y-79661904D02*
X258978961Y-79547618D01*
X258978961Y-79547618D02*
X259017057Y-79471427D01*
X259017057Y-79471427D02*
X259093247Y-79433332D01*
X259093247Y-79433332D02*
X259512295Y-79433332D01*
X258712295Y-78519046D02*
X258712295Y-78023808D01*
X258712295Y-78023808D02*
X259017057Y-78290474D01*
X259017057Y-78290474D02*
X259017057Y-78176189D01*
X259017057Y-78176189D02*
X259055152Y-78099998D01*
X259055152Y-78099998D02*
X259093247Y-78061903D01*
X259093247Y-78061903D02*
X259169438Y-78023808D01*
X259169438Y-78023808D02*
X259359914Y-78023808D01*
X259359914Y-78023808D02*
X259436104Y-78061903D01*
X259436104Y-78061903D02*
X259474200Y-78099998D01*
X259474200Y-78099998D02*
X259512295Y-78176189D01*
X259512295Y-78176189D02*
X259512295Y-78404760D01*
X259512295Y-78404760D02*
X259474200Y-78480951D01*
X259474200Y-78480951D02*
X259436104Y-78519046D01*
X240352381Y-87554819D02*
X240352381Y-88269104D01*
X240352381Y-88269104D02*
X240304762Y-88411961D01*
X240304762Y-88411961D02*
X240209524Y-88507200D01*
X240209524Y-88507200D02*
X240066667Y-88554819D01*
X240066667Y-88554819D02*
X239971429Y-88554819D01*
X241352381Y-88554819D02*
X240780953Y-88554819D01*
X241066667Y-88554819D02*
X241066667Y-87554819D01*
X241066667Y-87554819D02*
X240971429Y-87697676D01*
X240971429Y-87697676D02*
X240876191Y-87792914D01*
X240876191Y-87792914D02*
X240780953Y-87840533D01*
X241780953Y-88459580D02*
X241828572Y-88507200D01*
X241828572Y-88507200D02*
X241780953Y-88554819D01*
X241780953Y-88554819D02*
X241733334Y-88507200D01*
X241733334Y-88507200D02*
X241780953Y-88459580D01*
X241780953Y-88459580D02*
X241780953Y-88554819D01*
X242685714Y-87888152D02*
X242685714Y-88554819D01*
X242447619Y-87507200D02*
X242209524Y-88221485D01*
X242209524Y-88221485D02*
X242828571Y-88221485D01*
X233190475Y-94238485D02*
X233228571Y-94200390D01*
X233228571Y-94200390D02*
X233304761Y-94162295D01*
X233304761Y-94162295D02*
X233495237Y-94162295D01*
X233495237Y-94162295D02*
X233571428Y-94200390D01*
X233571428Y-94200390D02*
X233609523Y-94238485D01*
X233609523Y-94238485D02*
X233647618Y-94314676D01*
X233647618Y-94314676D02*
X233647618Y-94390866D01*
X233647618Y-94390866D02*
X233609523Y-94505152D01*
X233609523Y-94505152D02*
X233152380Y-94962295D01*
X233152380Y-94962295D02*
X233647618Y-94962295D01*
X233914285Y-94162295D02*
X234447619Y-94962295D01*
X234447619Y-94162295D02*
X233914285Y-94962295D01*
X234714285Y-94238485D02*
X234752381Y-94200390D01*
X234752381Y-94200390D02*
X234828571Y-94162295D01*
X234828571Y-94162295D02*
X235019047Y-94162295D01*
X235019047Y-94162295D02*
X235095238Y-94200390D01*
X235095238Y-94200390D02*
X235133333Y-94238485D01*
X235133333Y-94238485D02*
X235171428Y-94314676D01*
X235171428Y-94314676D02*
X235171428Y-94390866D01*
X235171428Y-94390866D02*
X235133333Y-94505152D01*
X235133333Y-94505152D02*
X234676190Y-94962295D01*
X234676190Y-94962295D02*
X235171428Y-94962295D01*
X236123810Y-94962295D02*
X236123810Y-94162295D01*
X236123810Y-94162295D02*
X236390476Y-94733723D01*
X236390476Y-94733723D02*
X236657143Y-94162295D01*
X236657143Y-94162295D02*
X236657143Y-94962295D01*
X237380953Y-94962295D02*
X237380953Y-94543247D01*
X237380953Y-94543247D02*
X237342858Y-94467057D01*
X237342858Y-94467057D02*
X237266667Y-94428961D01*
X237266667Y-94428961D02*
X237114286Y-94428961D01*
X237114286Y-94428961D02*
X237038096Y-94467057D01*
X237380953Y-94924200D02*
X237304762Y-94962295D01*
X237304762Y-94962295D02*
X237114286Y-94962295D01*
X237114286Y-94962295D02*
X237038096Y-94924200D01*
X237038096Y-94924200D02*
X237000000Y-94848009D01*
X237000000Y-94848009D02*
X237000000Y-94771819D01*
X237000000Y-94771819D02*
X237038096Y-94695628D01*
X237038096Y-94695628D02*
X237114286Y-94657533D01*
X237114286Y-94657533D02*
X237304762Y-94657533D01*
X237304762Y-94657533D02*
X237380953Y-94619438D01*
X237647620Y-94428961D02*
X237952382Y-94428961D01*
X237761906Y-94162295D02*
X237761906Y-94848009D01*
X237761906Y-94848009D02*
X237800001Y-94924200D01*
X237800001Y-94924200D02*
X237876191Y-94962295D01*
X237876191Y-94962295D02*
X237952382Y-94962295D01*
X238219049Y-94962295D02*
X238219049Y-94428961D01*
X238219049Y-94581342D02*
X238257144Y-94505152D01*
X238257144Y-94505152D02*
X238295239Y-94467057D01*
X238295239Y-94467057D02*
X238371430Y-94428961D01*
X238371430Y-94428961D02*
X238447620Y-94428961D01*
X238714287Y-94962295D02*
X238714287Y-94428961D01*
X238714287Y-94162295D02*
X238676191Y-94200390D01*
X238676191Y-94200390D02*
X238714287Y-94238485D01*
X238714287Y-94238485D02*
X238752382Y-94200390D01*
X238752382Y-94200390D02*
X238714287Y-94162295D01*
X238714287Y-94162295D02*
X238714287Y-94238485D01*
X239019048Y-94962295D02*
X239438096Y-94428961D01*
X239019048Y-94428961D02*
X239438096Y-94962295D01*
X240352382Y-94962295D02*
X240352382Y-94162295D01*
X240352382Y-94162295D02*
X240542858Y-94162295D01*
X240542858Y-94162295D02*
X240657144Y-94200390D01*
X240657144Y-94200390D02*
X240733334Y-94276580D01*
X240733334Y-94276580D02*
X240771429Y-94352771D01*
X240771429Y-94352771D02*
X240809525Y-94505152D01*
X240809525Y-94505152D02*
X240809525Y-94619438D01*
X240809525Y-94619438D02*
X240771429Y-94771819D01*
X240771429Y-94771819D02*
X240733334Y-94848009D01*
X240733334Y-94848009D02*
X240657144Y-94924200D01*
X240657144Y-94924200D02*
X240542858Y-94962295D01*
X240542858Y-94962295D02*
X240352382Y-94962295D01*
X245391667Y-69707200D02*
X245534524Y-69754819D01*
X245534524Y-69754819D02*
X245772619Y-69754819D01*
X245772619Y-69754819D02*
X245867857Y-69707200D01*
X245867857Y-69707200D02*
X245915476Y-69659580D01*
X245915476Y-69659580D02*
X245963095Y-69564342D01*
X245963095Y-69564342D02*
X245963095Y-69469104D01*
X245963095Y-69469104D02*
X245915476Y-69373866D01*
X245915476Y-69373866D02*
X245867857Y-69326247D01*
X245867857Y-69326247D02*
X245772619Y-69278628D01*
X245772619Y-69278628D02*
X245582143Y-69231009D01*
X245582143Y-69231009D02*
X245486905Y-69183390D01*
X245486905Y-69183390D02*
X245439286Y-69135771D01*
X245439286Y-69135771D02*
X245391667Y-69040533D01*
X245391667Y-69040533D02*
X245391667Y-68945295D01*
X245391667Y-68945295D02*
X245439286Y-68850057D01*
X245439286Y-68850057D02*
X245486905Y-68802438D01*
X245486905Y-68802438D02*
X245582143Y-68754819D01*
X245582143Y-68754819D02*
X245820238Y-68754819D01*
X245820238Y-68754819D02*
X245963095Y-68802438D01*
X246296429Y-68754819D02*
X246534524Y-69754819D01*
X246534524Y-69754819D02*
X246725000Y-69040533D01*
X246725000Y-69040533D02*
X246915476Y-69754819D01*
X246915476Y-69754819D02*
X247153572Y-68754819D01*
X248058333Y-69754819D02*
X247486905Y-69754819D01*
X247772619Y-69754819D02*
X247772619Y-68754819D01*
X247772619Y-68754819D02*
X247677381Y-68897676D01*
X247677381Y-68897676D02*
X247582143Y-68992914D01*
X247582143Y-68992914D02*
X247486905Y-69040533D01*
X251234524Y-73712295D02*
X250967857Y-73331342D01*
X250777381Y-73712295D02*
X250777381Y-72912295D01*
X250777381Y-72912295D02*
X251082143Y-72912295D01*
X251082143Y-72912295D02*
X251158333Y-72950390D01*
X251158333Y-72950390D02*
X251196428Y-72988485D01*
X251196428Y-72988485D02*
X251234524Y-73064676D01*
X251234524Y-73064676D02*
X251234524Y-73178961D01*
X251234524Y-73178961D02*
X251196428Y-73255152D01*
X251196428Y-73255152D02*
X251158333Y-73293247D01*
X251158333Y-73293247D02*
X251082143Y-73331342D01*
X251082143Y-73331342D02*
X250777381Y-73331342D01*
X251882143Y-73674200D02*
X251805952Y-73712295D01*
X251805952Y-73712295D02*
X251653571Y-73712295D01*
X251653571Y-73712295D02*
X251577381Y-73674200D01*
X251577381Y-73674200D02*
X251539285Y-73598009D01*
X251539285Y-73598009D02*
X251539285Y-73293247D01*
X251539285Y-73293247D02*
X251577381Y-73217057D01*
X251577381Y-73217057D02*
X251653571Y-73178961D01*
X251653571Y-73178961D02*
X251805952Y-73178961D01*
X251805952Y-73178961D02*
X251882143Y-73217057D01*
X251882143Y-73217057D02*
X251920238Y-73293247D01*
X251920238Y-73293247D02*
X251920238Y-73369438D01*
X251920238Y-73369438D02*
X251539285Y-73445628D01*
X252224999Y-73674200D02*
X252301190Y-73712295D01*
X252301190Y-73712295D02*
X252453571Y-73712295D01*
X252453571Y-73712295D02*
X252529761Y-73674200D01*
X252529761Y-73674200D02*
X252567857Y-73598009D01*
X252567857Y-73598009D02*
X252567857Y-73559914D01*
X252567857Y-73559914D02*
X252529761Y-73483723D01*
X252529761Y-73483723D02*
X252453571Y-73445628D01*
X252453571Y-73445628D02*
X252339285Y-73445628D01*
X252339285Y-73445628D02*
X252263095Y-73407533D01*
X252263095Y-73407533D02*
X252224999Y-73331342D01*
X252224999Y-73331342D02*
X252224999Y-73293247D01*
X252224999Y-73293247D02*
X252263095Y-73217057D01*
X252263095Y-73217057D02*
X252339285Y-73178961D01*
X252339285Y-73178961D02*
X252453571Y-73178961D01*
X252453571Y-73178961D02*
X252529761Y-73217057D01*
X253215476Y-73674200D02*
X253139285Y-73712295D01*
X253139285Y-73712295D02*
X252986904Y-73712295D01*
X252986904Y-73712295D02*
X252910714Y-73674200D01*
X252910714Y-73674200D02*
X252872618Y-73598009D01*
X252872618Y-73598009D02*
X252872618Y-73293247D01*
X252872618Y-73293247D02*
X252910714Y-73217057D01*
X252910714Y-73217057D02*
X252986904Y-73178961D01*
X252986904Y-73178961D02*
X253139285Y-73178961D01*
X253139285Y-73178961D02*
X253215476Y-73217057D01*
X253215476Y-73217057D02*
X253253571Y-73293247D01*
X253253571Y-73293247D02*
X253253571Y-73369438D01*
X253253571Y-73369438D02*
X252872618Y-73445628D01*
X253482142Y-73178961D02*
X253786904Y-73178961D01*
X253596428Y-72912295D02*
X253596428Y-73598009D01*
X253596428Y-73598009D02*
X253634523Y-73674200D01*
X253634523Y-73674200D02*
X253710713Y-73712295D01*
X253710713Y-73712295D02*
X253786904Y-73712295D01*
X221741666Y-51884819D02*
X221741666Y-52599104D01*
X221741666Y-52599104D02*
X221694047Y-52741961D01*
X221694047Y-52741961D02*
X221598809Y-52837200D01*
X221598809Y-52837200D02*
X221455952Y-52884819D01*
X221455952Y-52884819D02*
X221360714Y-52884819D01*
X222741666Y-52884819D02*
X222170238Y-52884819D01*
X222455952Y-52884819D02*
X222455952Y-51884819D01*
X222455952Y-51884819D02*
X222360714Y-52027676D01*
X222360714Y-52027676D02*
X222265476Y-52122914D01*
X222265476Y-52122914D02*
X222170238Y-52170533D01*
X216588152Y-61974762D02*
X217254819Y-61974762D01*
X216207200Y-62212857D02*
X216921485Y-62450952D01*
X216921485Y-62450952D02*
X216921485Y-61831905D01*
X216254819Y-61546190D02*
X217254819Y-60879524D01*
X216254819Y-60879524D02*
X217254819Y-61546190D01*
X216588152Y-60070000D02*
X217254819Y-60070000D01*
X216207200Y-60308095D02*
X216921485Y-60546190D01*
X216921485Y-60546190D02*
X216921485Y-59927143D01*
X217254819Y-58784285D02*
X216254819Y-58784285D01*
X216254819Y-58784285D02*
X216969104Y-58450952D01*
X216969104Y-58450952D02*
X216254819Y-58117619D01*
X216254819Y-58117619D02*
X217254819Y-58117619D01*
X217254819Y-57212857D02*
X216731009Y-57212857D01*
X216731009Y-57212857D02*
X216635771Y-57260476D01*
X216635771Y-57260476D02*
X216588152Y-57355714D01*
X216588152Y-57355714D02*
X216588152Y-57546190D01*
X216588152Y-57546190D02*
X216635771Y-57641428D01*
X217207200Y-57212857D02*
X217254819Y-57308095D01*
X217254819Y-57308095D02*
X217254819Y-57546190D01*
X217254819Y-57546190D02*
X217207200Y-57641428D01*
X217207200Y-57641428D02*
X217111961Y-57689047D01*
X217111961Y-57689047D02*
X217016723Y-57689047D01*
X217016723Y-57689047D02*
X216921485Y-57641428D01*
X216921485Y-57641428D02*
X216873866Y-57546190D01*
X216873866Y-57546190D02*
X216873866Y-57308095D01*
X216873866Y-57308095D02*
X216826247Y-57212857D01*
X216588152Y-56879523D02*
X216588152Y-56498571D01*
X216254819Y-56736666D02*
X217111961Y-56736666D01*
X217111961Y-56736666D02*
X217207200Y-56689047D01*
X217207200Y-56689047D02*
X217254819Y-56593809D01*
X217254819Y-56593809D02*
X217254819Y-56498571D01*
X217254819Y-56165237D02*
X216588152Y-56165237D01*
X216778628Y-56165237D02*
X216683390Y-56117618D01*
X216683390Y-56117618D02*
X216635771Y-56069999D01*
X216635771Y-56069999D02*
X216588152Y-55974761D01*
X216588152Y-55974761D02*
X216588152Y-55879523D01*
X217254819Y-55546189D02*
X216588152Y-55546189D01*
X216254819Y-55546189D02*
X216302438Y-55593808D01*
X216302438Y-55593808D02*
X216350057Y-55546189D01*
X216350057Y-55546189D02*
X216302438Y-55498570D01*
X216302438Y-55498570D02*
X216254819Y-55546189D01*
X216254819Y-55546189D02*
X216350057Y-55546189D01*
X217254819Y-55165237D02*
X216588152Y-54641428D01*
X216588152Y-55165237D02*
X217254819Y-54641428D01*
X212588095Y-86054819D02*
X212588095Y-86769104D01*
X212588095Y-86769104D02*
X212540476Y-86911961D01*
X212540476Y-86911961D02*
X212445238Y-87007200D01*
X212445238Y-87007200D02*
X212302381Y-87054819D01*
X212302381Y-87054819D02*
X212207143Y-87054819D01*
X213588095Y-87054819D02*
X213016667Y-87054819D01*
X213302381Y-87054819D02*
X213302381Y-86054819D01*
X213302381Y-86054819D02*
X213207143Y-86197676D01*
X213207143Y-86197676D02*
X213111905Y-86292914D01*
X213111905Y-86292914D02*
X213016667Y-86340533D01*
X214016667Y-86959580D02*
X214064286Y-87007200D01*
X214064286Y-87007200D02*
X214016667Y-87054819D01*
X214016667Y-87054819D02*
X213969048Y-87007200D01*
X213969048Y-87007200D02*
X214016667Y-86959580D01*
X214016667Y-86959580D02*
X214016667Y-87054819D01*
X215016666Y-87054819D02*
X214445238Y-87054819D01*
X214730952Y-87054819D02*
X214730952Y-86054819D01*
X214730952Y-86054819D02*
X214635714Y-86197676D01*
X214635714Y-86197676D02*
X214540476Y-86292914D01*
X214540476Y-86292914D02*
X214445238Y-86340533D01*
X215445238Y-86959580D02*
X215492857Y-87007200D01*
X215492857Y-87007200D02*
X215445238Y-87054819D01*
X215445238Y-87054819D02*
X215397619Y-87007200D01*
X215397619Y-87007200D02*
X215445238Y-86959580D01*
X215445238Y-86959580D02*
X215445238Y-87054819D01*
X216349999Y-86388152D02*
X216349999Y-87054819D01*
X216111904Y-86007200D02*
X215873809Y-86721485D01*
X215873809Y-86721485D02*
X216492856Y-86721485D01*
X210793247Y-91471429D02*
X210831342Y-91357143D01*
X210831342Y-91357143D02*
X210869438Y-91319048D01*
X210869438Y-91319048D02*
X210945628Y-91280952D01*
X210945628Y-91280952D02*
X211059914Y-91280952D01*
X211059914Y-91280952D02*
X211136104Y-91319048D01*
X211136104Y-91319048D02*
X211174200Y-91357143D01*
X211174200Y-91357143D02*
X211212295Y-91433333D01*
X211212295Y-91433333D02*
X211212295Y-91738095D01*
X211212295Y-91738095D02*
X210412295Y-91738095D01*
X210412295Y-91738095D02*
X210412295Y-91471429D01*
X210412295Y-91471429D02*
X210450390Y-91395238D01*
X210450390Y-91395238D02*
X210488485Y-91357143D01*
X210488485Y-91357143D02*
X210564676Y-91319048D01*
X210564676Y-91319048D02*
X210640866Y-91319048D01*
X210640866Y-91319048D02*
X210717057Y-91357143D01*
X210717057Y-91357143D02*
X210755152Y-91395238D01*
X210755152Y-91395238D02*
X210793247Y-91471429D01*
X210793247Y-91471429D02*
X210793247Y-91738095D01*
X210678961Y-90595238D02*
X211212295Y-90595238D01*
X210678961Y-90938095D02*
X211098009Y-90938095D01*
X211098009Y-90938095D02*
X211174200Y-90900000D01*
X211174200Y-90900000D02*
X211212295Y-90823810D01*
X211212295Y-90823810D02*
X211212295Y-90709524D01*
X211212295Y-90709524D02*
X211174200Y-90633333D01*
X211174200Y-90633333D02*
X211136104Y-90595238D01*
X210678961Y-90328571D02*
X210678961Y-90023809D01*
X210412295Y-90214285D02*
X211098009Y-90214285D01*
X211098009Y-90214285D02*
X211174200Y-90176190D01*
X211174200Y-90176190D02*
X211212295Y-90100000D01*
X211212295Y-90100000D02*
X211212295Y-90023809D01*
X210678961Y-89871428D02*
X210678961Y-89566666D01*
X210412295Y-89757142D02*
X211098009Y-89757142D01*
X211098009Y-89757142D02*
X211174200Y-89719047D01*
X211174200Y-89719047D02*
X211212295Y-89642857D01*
X211212295Y-89642857D02*
X211212295Y-89566666D01*
X211212295Y-89185714D02*
X211174200Y-89261904D01*
X211174200Y-89261904D02*
X211136104Y-89299999D01*
X211136104Y-89299999D02*
X211059914Y-89338095D01*
X211059914Y-89338095D02*
X210831342Y-89338095D01*
X210831342Y-89338095D02*
X210755152Y-89299999D01*
X210755152Y-89299999D02*
X210717057Y-89261904D01*
X210717057Y-89261904D02*
X210678961Y-89185714D01*
X210678961Y-89185714D02*
X210678961Y-89071428D01*
X210678961Y-89071428D02*
X210717057Y-88995237D01*
X210717057Y-88995237D02*
X210755152Y-88957142D01*
X210755152Y-88957142D02*
X210831342Y-88919047D01*
X210831342Y-88919047D02*
X211059914Y-88919047D01*
X211059914Y-88919047D02*
X211136104Y-88957142D01*
X211136104Y-88957142D02*
X211174200Y-88995237D01*
X211174200Y-88995237D02*
X211212295Y-89071428D01*
X211212295Y-89071428D02*
X211212295Y-89185714D01*
X210678961Y-88576189D02*
X211212295Y-88576189D01*
X210755152Y-88576189D02*
X210717057Y-88538094D01*
X210717057Y-88538094D02*
X210678961Y-88461904D01*
X210678961Y-88461904D02*
X210678961Y-88347618D01*
X210678961Y-88347618D02*
X210717057Y-88271427D01*
X210717057Y-88271427D02*
X210793247Y-88233332D01*
X210793247Y-88233332D02*
X211212295Y-88233332D01*
X210412295Y-86899998D02*
X210412295Y-87052379D01*
X210412295Y-87052379D02*
X210450390Y-87128570D01*
X210450390Y-87128570D02*
X210488485Y-87166665D01*
X210488485Y-87166665D02*
X210602771Y-87242855D01*
X210602771Y-87242855D02*
X210755152Y-87280951D01*
X210755152Y-87280951D02*
X211059914Y-87280951D01*
X211059914Y-87280951D02*
X211136104Y-87242855D01*
X211136104Y-87242855D02*
X211174200Y-87204760D01*
X211174200Y-87204760D02*
X211212295Y-87128570D01*
X211212295Y-87128570D02*
X211212295Y-86976189D01*
X211212295Y-86976189D02*
X211174200Y-86899998D01*
X211174200Y-86899998D02*
X211136104Y-86861903D01*
X211136104Y-86861903D02*
X211059914Y-86823808D01*
X211059914Y-86823808D02*
X210869438Y-86823808D01*
X210869438Y-86823808D02*
X210793247Y-86861903D01*
X210793247Y-86861903D02*
X210755152Y-86899998D01*
X210755152Y-86899998D02*
X210717057Y-86976189D01*
X210717057Y-86976189D02*
X210717057Y-87128570D01*
X210717057Y-87128570D02*
X210755152Y-87204760D01*
X210755152Y-87204760D02*
X210793247Y-87242855D01*
X210793247Y-87242855D02*
X210869438Y-87280951D01*
X219552381Y-44554819D02*
X219552381Y-45269104D01*
X219552381Y-45269104D02*
X219504762Y-45411961D01*
X219504762Y-45411961D02*
X219409524Y-45507200D01*
X219409524Y-45507200D02*
X219266667Y-45554819D01*
X219266667Y-45554819D02*
X219171429Y-45554819D01*
X220552381Y-45554819D02*
X219980953Y-45554819D01*
X220266667Y-45554819D02*
X220266667Y-44554819D01*
X220266667Y-44554819D02*
X220171429Y-44697676D01*
X220171429Y-44697676D02*
X220076191Y-44792914D01*
X220076191Y-44792914D02*
X219980953Y-44840533D01*
X220980953Y-45459580D02*
X221028572Y-45507200D01*
X221028572Y-45507200D02*
X220980953Y-45554819D01*
X220980953Y-45554819D02*
X220933334Y-45507200D01*
X220933334Y-45507200D02*
X220980953Y-45459580D01*
X220980953Y-45459580D02*
X220980953Y-45554819D01*
X221980952Y-45554819D02*
X221409524Y-45554819D01*
X221695238Y-45554819D02*
X221695238Y-44554819D01*
X221695238Y-44554819D02*
X221600000Y-44697676D01*
X221600000Y-44697676D02*
X221504762Y-44792914D01*
X221504762Y-44792914D02*
X221409524Y-44840533D01*
X221247618Y-43438485D02*
X221285714Y-43400390D01*
X221285714Y-43400390D02*
X221361904Y-43362295D01*
X221361904Y-43362295D02*
X221552380Y-43362295D01*
X221552380Y-43362295D02*
X221628571Y-43400390D01*
X221628571Y-43400390D02*
X221666666Y-43438485D01*
X221666666Y-43438485D02*
X221704761Y-43514676D01*
X221704761Y-43514676D02*
X221704761Y-43590866D01*
X221704761Y-43590866D02*
X221666666Y-43705152D01*
X221666666Y-43705152D02*
X221209523Y-44162295D01*
X221209523Y-44162295D02*
X221704761Y-44162295D01*
X221971428Y-43362295D02*
X222504762Y-44162295D01*
X222504762Y-43362295D02*
X221971428Y-44162295D01*
X222771428Y-43438485D02*
X222809524Y-43400390D01*
X222809524Y-43400390D02*
X222885714Y-43362295D01*
X222885714Y-43362295D02*
X223076190Y-43362295D01*
X223076190Y-43362295D02*
X223152381Y-43400390D01*
X223152381Y-43400390D02*
X223190476Y-43438485D01*
X223190476Y-43438485D02*
X223228571Y-43514676D01*
X223228571Y-43514676D02*
X223228571Y-43590866D01*
X223228571Y-43590866D02*
X223190476Y-43705152D01*
X223190476Y-43705152D02*
X222733333Y-44162295D01*
X222733333Y-44162295D02*
X223228571Y-44162295D01*
X224180953Y-44162295D02*
X224180953Y-43362295D01*
X224180953Y-43362295D02*
X224447619Y-43933723D01*
X224447619Y-43933723D02*
X224714286Y-43362295D01*
X224714286Y-43362295D02*
X224714286Y-44162295D01*
X225438096Y-44162295D02*
X225438096Y-43743247D01*
X225438096Y-43743247D02*
X225400001Y-43667057D01*
X225400001Y-43667057D02*
X225323810Y-43628961D01*
X225323810Y-43628961D02*
X225171429Y-43628961D01*
X225171429Y-43628961D02*
X225095239Y-43667057D01*
X225438096Y-44124200D02*
X225361905Y-44162295D01*
X225361905Y-44162295D02*
X225171429Y-44162295D01*
X225171429Y-44162295D02*
X225095239Y-44124200D01*
X225095239Y-44124200D02*
X225057143Y-44048009D01*
X225057143Y-44048009D02*
X225057143Y-43971819D01*
X225057143Y-43971819D02*
X225095239Y-43895628D01*
X225095239Y-43895628D02*
X225171429Y-43857533D01*
X225171429Y-43857533D02*
X225361905Y-43857533D01*
X225361905Y-43857533D02*
X225438096Y-43819438D01*
X225704763Y-43628961D02*
X226009525Y-43628961D01*
X225819049Y-43362295D02*
X225819049Y-44048009D01*
X225819049Y-44048009D02*
X225857144Y-44124200D01*
X225857144Y-44124200D02*
X225933334Y-44162295D01*
X225933334Y-44162295D02*
X226009525Y-44162295D01*
X226276192Y-44162295D02*
X226276192Y-43628961D01*
X226276192Y-43781342D02*
X226314287Y-43705152D01*
X226314287Y-43705152D02*
X226352382Y-43667057D01*
X226352382Y-43667057D02*
X226428573Y-43628961D01*
X226428573Y-43628961D02*
X226504763Y-43628961D01*
X226771430Y-44162295D02*
X226771430Y-43628961D01*
X226771430Y-43362295D02*
X226733334Y-43400390D01*
X226733334Y-43400390D02*
X226771430Y-43438485D01*
X226771430Y-43438485D02*
X226809525Y-43400390D01*
X226809525Y-43400390D02*
X226771430Y-43362295D01*
X226771430Y-43362295D02*
X226771430Y-43438485D01*
X227076191Y-44162295D02*
X227495239Y-43628961D01*
X227076191Y-43628961D02*
X227495239Y-44162295D01*
X228371429Y-43933723D02*
X228752382Y-43933723D01*
X228295239Y-44162295D02*
X228561906Y-43362295D01*
X228561906Y-43362295D02*
X228828572Y-44162295D01*
X231552381Y-44554819D02*
X231552381Y-45269104D01*
X231552381Y-45269104D02*
X231504762Y-45411961D01*
X231504762Y-45411961D02*
X231409524Y-45507200D01*
X231409524Y-45507200D02*
X231266667Y-45554819D01*
X231266667Y-45554819D02*
X231171429Y-45554819D01*
X232552381Y-45554819D02*
X231980953Y-45554819D01*
X232266667Y-45554819D02*
X232266667Y-44554819D01*
X232266667Y-44554819D02*
X232171429Y-44697676D01*
X232171429Y-44697676D02*
X232076191Y-44792914D01*
X232076191Y-44792914D02*
X231980953Y-44840533D01*
X232980953Y-45459580D02*
X233028572Y-45507200D01*
X233028572Y-45507200D02*
X232980953Y-45554819D01*
X232980953Y-45554819D02*
X232933334Y-45507200D01*
X232933334Y-45507200D02*
X232980953Y-45459580D01*
X232980953Y-45459580D02*
X232980953Y-45554819D01*
X233409524Y-44650057D02*
X233457143Y-44602438D01*
X233457143Y-44602438D02*
X233552381Y-44554819D01*
X233552381Y-44554819D02*
X233790476Y-44554819D01*
X233790476Y-44554819D02*
X233885714Y-44602438D01*
X233885714Y-44602438D02*
X233933333Y-44650057D01*
X233933333Y-44650057D02*
X233980952Y-44745295D01*
X233980952Y-44745295D02*
X233980952Y-44840533D01*
X233980952Y-44840533D02*
X233933333Y-44983390D01*
X233933333Y-44983390D02*
X233361905Y-45554819D01*
X233361905Y-45554819D02*
X233980952Y-45554819D01*
X233190475Y-43438485D02*
X233228571Y-43400390D01*
X233228571Y-43400390D02*
X233304761Y-43362295D01*
X233304761Y-43362295D02*
X233495237Y-43362295D01*
X233495237Y-43362295D02*
X233571428Y-43400390D01*
X233571428Y-43400390D02*
X233609523Y-43438485D01*
X233609523Y-43438485D02*
X233647618Y-43514676D01*
X233647618Y-43514676D02*
X233647618Y-43590866D01*
X233647618Y-43590866D02*
X233609523Y-43705152D01*
X233609523Y-43705152D02*
X233152380Y-44162295D01*
X233152380Y-44162295D02*
X233647618Y-44162295D01*
X233914285Y-43362295D02*
X234447619Y-44162295D01*
X234447619Y-43362295D02*
X233914285Y-44162295D01*
X234714285Y-43438485D02*
X234752381Y-43400390D01*
X234752381Y-43400390D02*
X234828571Y-43362295D01*
X234828571Y-43362295D02*
X235019047Y-43362295D01*
X235019047Y-43362295D02*
X235095238Y-43400390D01*
X235095238Y-43400390D02*
X235133333Y-43438485D01*
X235133333Y-43438485D02*
X235171428Y-43514676D01*
X235171428Y-43514676D02*
X235171428Y-43590866D01*
X235171428Y-43590866D02*
X235133333Y-43705152D01*
X235133333Y-43705152D02*
X234676190Y-44162295D01*
X234676190Y-44162295D02*
X235171428Y-44162295D01*
X236123810Y-44162295D02*
X236123810Y-43362295D01*
X236123810Y-43362295D02*
X236390476Y-43933723D01*
X236390476Y-43933723D02*
X236657143Y-43362295D01*
X236657143Y-43362295D02*
X236657143Y-44162295D01*
X237380953Y-44162295D02*
X237380953Y-43743247D01*
X237380953Y-43743247D02*
X237342858Y-43667057D01*
X237342858Y-43667057D02*
X237266667Y-43628961D01*
X237266667Y-43628961D02*
X237114286Y-43628961D01*
X237114286Y-43628961D02*
X237038096Y-43667057D01*
X237380953Y-44124200D02*
X237304762Y-44162295D01*
X237304762Y-44162295D02*
X237114286Y-44162295D01*
X237114286Y-44162295D02*
X237038096Y-44124200D01*
X237038096Y-44124200D02*
X237000000Y-44048009D01*
X237000000Y-44048009D02*
X237000000Y-43971819D01*
X237000000Y-43971819D02*
X237038096Y-43895628D01*
X237038096Y-43895628D02*
X237114286Y-43857533D01*
X237114286Y-43857533D02*
X237304762Y-43857533D01*
X237304762Y-43857533D02*
X237380953Y-43819438D01*
X237647620Y-43628961D02*
X237952382Y-43628961D01*
X237761906Y-43362295D02*
X237761906Y-44048009D01*
X237761906Y-44048009D02*
X237800001Y-44124200D01*
X237800001Y-44124200D02*
X237876191Y-44162295D01*
X237876191Y-44162295D02*
X237952382Y-44162295D01*
X238219049Y-44162295D02*
X238219049Y-43628961D01*
X238219049Y-43781342D02*
X238257144Y-43705152D01*
X238257144Y-43705152D02*
X238295239Y-43667057D01*
X238295239Y-43667057D02*
X238371430Y-43628961D01*
X238371430Y-43628961D02*
X238447620Y-43628961D01*
X238714287Y-44162295D02*
X238714287Y-43628961D01*
X238714287Y-43362295D02*
X238676191Y-43400390D01*
X238676191Y-43400390D02*
X238714287Y-43438485D01*
X238714287Y-43438485D02*
X238752382Y-43400390D01*
X238752382Y-43400390D02*
X238714287Y-43362295D01*
X238714287Y-43362295D02*
X238714287Y-43438485D01*
X239019048Y-44162295D02*
X239438096Y-43628961D01*
X239019048Y-43628961D02*
X239438096Y-44162295D01*
X240619048Y-43743247D02*
X240733334Y-43781342D01*
X240733334Y-43781342D02*
X240771429Y-43819438D01*
X240771429Y-43819438D02*
X240809525Y-43895628D01*
X240809525Y-43895628D02*
X240809525Y-44009914D01*
X240809525Y-44009914D02*
X240771429Y-44086104D01*
X240771429Y-44086104D02*
X240733334Y-44124200D01*
X240733334Y-44124200D02*
X240657144Y-44162295D01*
X240657144Y-44162295D02*
X240352382Y-44162295D01*
X240352382Y-44162295D02*
X240352382Y-43362295D01*
X240352382Y-43362295D02*
X240619048Y-43362295D01*
X240619048Y-43362295D02*
X240695239Y-43400390D01*
X240695239Y-43400390D02*
X240733334Y-43438485D01*
X240733334Y-43438485D02*
X240771429Y-43514676D01*
X240771429Y-43514676D02*
X240771429Y-43590866D01*
X240771429Y-43590866D02*
X240733334Y-43667057D01*
X240733334Y-43667057D02*
X240695239Y-43705152D01*
X240695239Y-43705152D02*
X240619048Y-43743247D01*
X240619048Y-43743247D02*
X240352382Y-43743247D01*
D12*
%TO.C,J3*%
X217995000Y-81960000D02*
X219435000Y-81960000D01*
X219435000Y-81390000D02*
X219435000Y-81960000D01*
X219435000Y-81390000D02*
X224635000Y-81390000D01*
X219435000Y-83480000D02*
X219435000Y-84500000D01*
X219435000Y-86020000D02*
X219435000Y-86590000D01*
X219435000Y-86590000D02*
X224635000Y-86590000D01*
X224635000Y-81390000D02*
X224635000Y-81960000D01*
X224635000Y-83480000D02*
X224635000Y-84500000D01*
X224635000Y-86020000D02*
X224635000Y-86590000D01*
%TO.C,J1.1.3*%
X250990000Y-87420000D02*
X250990000Y-88220000D01*
X251230000Y-87660000D02*
X251230000Y-93480000D01*
X252030000Y-87420000D02*
X250990000Y-87420000D01*
X252150000Y-87660000D02*
X252150000Y-93480000D01*
X253150000Y-87660000D02*
X253150000Y-93480000D01*
X256251000Y-87660000D02*
X256251000Y-93480000D01*
X257970000Y-87660000D02*
X251230000Y-87660000D01*
X257970000Y-87660000D02*
X257970000Y-93480000D01*
X257970000Y-93480000D02*
X251230000Y-93480000D01*
%TO.C,J1.1.1*%
X250990000Y-45120000D02*
X250990000Y-45920000D01*
X251230000Y-45360000D02*
X251230000Y-51180000D01*
X252030000Y-45120000D02*
X250990000Y-45120000D01*
X252150000Y-45360000D02*
X252150000Y-51180000D01*
X253150000Y-45360000D02*
X253150000Y-51180000D01*
X256251000Y-45360000D02*
X256251000Y-51180000D01*
X257970000Y-45360000D02*
X251230000Y-45360000D01*
X257970000Y-45360000D02*
X257970000Y-51180000D01*
X257970000Y-51180000D02*
X251230000Y-51180000D01*
%TO.C,J1.3*%
X220960000Y-88970000D02*
X222400000Y-88970000D01*
X222400000Y-88400000D02*
X222400000Y-88970000D01*
X222400000Y-88400000D02*
X227600000Y-88400000D01*
X222400000Y-90490000D02*
X222400000Y-91510000D01*
X222400000Y-93030000D02*
X222400000Y-93600000D01*
X222400000Y-93600000D02*
X227600000Y-93600000D01*
X227600000Y-88400000D02*
X227600000Y-88970000D01*
X227600000Y-90490000D02*
X227600000Y-91510000D01*
X227600000Y-93030000D02*
X227600000Y-93600000D01*
%TO.C,C2*%
X221470000Y-76807836D02*
X221470000Y-76592164D01*
X222190000Y-76807836D02*
X222190000Y-76592164D01*
%TO.C,J1.1.2*%
X211590000Y-45120000D02*
X211590000Y-45920000D01*
X211830000Y-45360000D02*
X211830000Y-51180000D01*
X212630000Y-45120000D02*
X211590000Y-45120000D01*
X212750000Y-45360000D02*
X212750000Y-51180000D01*
X213750000Y-45360000D02*
X213750000Y-51180000D01*
X216851000Y-45360000D02*
X216851000Y-51180000D01*
X218570000Y-45360000D02*
X211830000Y-45360000D01*
X218570000Y-45360000D02*
X218570000Y-51180000D01*
X218570000Y-51180000D02*
X211830000Y-51180000D01*
%TO.C,C1*%
X222180000Y-72522164D02*
X222180000Y-72737836D01*
X221460000Y-72522164D02*
X221460000Y-72737836D01*
%TO.C,J4*%
X240680000Y-52340000D02*
X240680000Y-55120000D01*
X240680000Y-65265000D02*
X238420000Y-65265000D01*
X240680000Y-68060000D02*
X240680000Y-65265000D01*
X240680000Y-68060000D02*
X256240000Y-68060000D01*
X256240000Y-52340000D02*
X240680000Y-52340000D01*
X256240000Y-55560000D02*
X256240000Y-52340000D01*
X256240000Y-64840000D02*
X259340000Y-64840000D01*
X256240000Y-68060000D02*
X256240000Y-64840000D01*
X259340000Y-55560000D02*
X256240000Y-55560000D01*
X259340000Y-64840000D02*
X259340000Y-55560000D01*
%TO.C,J1.2.2*%
X211590000Y-64620000D02*
X211590000Y-65420000D01*
X211830000Y-64860000D02*
X211830000Y-70680000D01*
X212630000Y-64620000D02*
X211590000Y-64620000D01*
X212750000Y-64860000D02*
X212750000Y-70680000D01*
X213750000Y-64860000D02*
X213750000Y-70680000D01*
X216851000Y-64860000D02*
X216851000Y-70680000D01*
X218570000Y-64860000D02*
X211830000Y-64860000D01*
X218570000Y-64860000D02*
X218570000Y-70680000D01*
X218570000Y-70680000D02*
X211830000Y-70680000D01*
%TO.C,U1*%
X230290000Y-51410000D02*
X230290000Y-87090000D01*
X230290000Y-87090000D02*
X235590000Y-87090000D01*
X231940000Y-51410000D02*
X230290000Y-51410000D01*
X235590000Y-51410000D02*
X233940000Y-51410000D01*
X235590000Y-87090000D02*
X235590000Y-51410000D01*
X233940000Y-51410000D02*
G75*
G02*
X231940000Y-51410000I-1000000J0D01*
G01*
%TO.C,J2*%
X241225000Y-79560000D02*
X241225000Y-78990000D01*
X241225000Y-82100000D02*
X241225000Y-81080000D01*
X241225000Y-84640000D02*
X241225000Y-83620000D01*
X241225000Y-86730000D02*
X241225000Y-86160000D01*
X246425000Y-78990000D02*
X241225000Y-78990000D01*
X246425000Y-79560000D02*
X246425000Y-78990000D01*
X246425000Y-82100000D02*
X246425000Y-81080000D01*
X246425000Y-84640000D02*
X246425000Y-83620000D01*
X246425000Y-86730000D02*
X241225000Y-86730000D01*
X246425000Y-86730000D02*
X246425000Y-86160000D01*
X247865000Y-86160000D02*
X246425000Y-86160000D01*
%TO.C,Y1*%
X227675000Y-77700000D02*
G75*
G02*
X222625000Y-77700000I-2525000J0D01*
G01*
X222625000Y-71450000D02*
G75*
G02*
X227675000Y-71450000I2525000J0D01*
G01*
X227675000Y-71450000D02*
X227675000Y-77700000D01*
X222625000Y-71450000D02*
X222625000Y-77700000D01*
%TO.C,C3*%
X238440000Y-72412164D02*
X238440000Y-72627836D01*
X239160000Y-72412164D02*
X239160000Y-72627836D01*
%TO.C,J1.2.1*%
X251090000Y-78620000D02*
X251090000Y-79420000D01*
X251330000Y-78860000D02*
X251330000Y-84680000D01*
X252130000Y-78620000D02*
X251090000Y-78620000D01*
X252250000Y-78860000D02*
X252250000Y-84680000D01*
X253250000Y-78860000D02*
X253250000Y-84680000D01*
X256351000Y-78860000D02*
X256351000Y-84680000D01*
X258070000Y-78860000D02*
X251330000Y-78860000D01*
X258070000Y-78860000D02*
X258070000Y-84680000D01*
X258070000Y-84680000D02*
X251330000Y-84680000D01*
%TO.C,J1.4*%
X234400000Y-88970000D02*
X234400000Y-88400000D01*
X234400000Y-91510000D02*
X234400000Y-90490000D01*
X234400000Y-93600000D02*
X234400000Y-93030000D01*
X239600000Y-88400000D02*
X234400000Y-88400000D01*
X239600000Y-88970000D02*
X239600000Y-88400000D01*
X239600000Y-91510000D02*
X239600000Y-90490000D01*
X239600000Y-93600000D02*
X234400000Y-93600000D01*
X239600000Y-93600000D02*
X239600000Y-93030000D01*
X241040000Y-93030000D02*
X239600000Y-93030000D01*
%TO.C,SW1*%
X243495000Y-70120000D02*
X249955000Y-70120000D01*
X243495000Y-70150000D02*
X243495000Y-70120000D01*
X243495000Y-72050000D02*
X243495000Y-74650000D01*
X243495000Y-76580000D02*
X243495000Y-76550000D01*
X243495000Y-76580000D02*
X249955000Y-76580000D01*
X249955000Y-70120000D02*
X249955000Y-70150000D01*
X249955000Y-72050000D02*
X249955000Y-74650000D01*
X249955000Y-76580000D02*
X249955000Y-76550000D01*
%TO.C,J1*%
X218035000Y-54000000D02*
X219475000Y-54000000D01*
X219475000Y-53430000D02*
X219475000Y-54000000D01*
X219475000Y-53430000D02*
X224675000Y-53430000D01*
X219475000Y-55520000D02*
X219475000Y-56540000D01*
X219475000Y-58060000D02*
X219475000Y-59080000D01*
X219475000Y-60600000D02*
X219475000Y-61620000D01*
X219475000Y-63140000D02*
X219475000Y-63710000D01*
X219475000Y-63710000D02*
X224675000Y-63710000D01*
X224675000Y-53430000D02*
X224675000Y-54000000D01*
X224675000Y-55520000D02*
X224675000Y-56540000D01*
X224675000Y-58060000D02*
X224675000Y-59080000D01*
X224675000Y-60600000D02*
X224675000Y-61620000D01*
X224675000Y-63140000D02*
X224675000Y-63710000D01*
%TO.C,J1.1.4*%
X211590000Y-87420000D02*
X211590000Y-88220000D01*
X211830000Y-87660000D02*
X211830000Y-93480000D01*
X212630000Y-87420000D02*
X211590000Y-87420000D01*
X212750000Y-87660000D02*
X212750000Y-93480000D01*
X213750000Y-87660000D02*
X213750000Y-93480000D01*
X216851000Y-87660000D02*
X216851000Y-93480000D01*
X218570000Y-87660000D02*
X211830000Y-87660000D01*
X218570000Y-87660000D02*
X218570000Y-93480000D01*
X218570000Y-93480000D02*
X211830000Y-93480000D01*
%TO.C,J1.1*%
X220960000Y-45970000D02*
X222400000Y-45970000D01*
X222400000Y-45400000D02*
X222400000Y-45970000D01*
X222400000Y-45400000D02*
X227600000Y-45400000D01*
X222400000Y-47490000D02*
X222400000Y-48510000D01*
X222400000Y-50030000D02*
X222400000Y-50600000D01*
X222400000Y-50600000D02*
X227600000Y-50600000D01*
X227600000Y-45400000D02*
X227600000Y-45970000D01*
X227600000Y-47490000D02*
X227600000Y-48510000D01*
X227600000Y-50030000D02*
X227600000Y-50600000D01*
%TO.C,J1.2*%
X232960000Y-45970000D02*
X234400000Y-45970000D01*
X234400000Y-45400000D02*
X234400000Y-45970000D01*
X234400000Y-45400000D02*
X239600000Y-45400000D01*
X234400000Y-47490000D02*
X234400000Y-48510000D01*
X234400000Y-50030000D02*
X234400000Y-50600000D01*
X234400000Y-50600000D02*
X239600000Y-50600000D01*
X239600000Y-45400000D02*
X239600000Y-45970000D01*
X239600000Y-47490000D02*
X239600000Y-48510000D01*
X239600000Y-50030000D02*
X239600000Y-50600000D01*
%TD*%
M02*
